%FSLAX45Y45*%
G04 Gerber Fmt 4.5, Leading zero omitted, Abs format (unit mm)*
G04 Created by KiCad (PCBNEW 5.1.12-84ad8e8a86~92~ubuntu16.04.1) date 2022-12-06 21:02:52*
%MOMM*%
%LPD*%
G01*
G04 APERTURE LIST*
%TA.AperFunction,Profile*%
%ADD10C,0.050000*%
%TD*%
%ADD11C,0.200000*%
%ADD12C,0.300000*%
G04 APERTURE END LIST*
D10*
X17322800Y-7086600D02*
X12903200Y-7086600D01*
X17526000Y-9677400D02*
X17526000Y-7289800D01*
X12903200Y-9880600D02*
X17322800Y-9880600D01*
X17526000Y-7289800D02*
G75*
G03*
X17322800Y-7086600I-203200J0D01*
G01*
X17322800Y-9880600D02*
G75*
G03*
X17526000Y-9677400I0J203200D01*
G01*
X12700000Y-7289800D02*
X12700000Y-9677400D01*
X12903200Y-7086600D02*
G75*
G03*
X12700000Y-7289800I0J-203200D01*
G01*
X12700000Y-9677400D02*
G75*
G03*
X12903200Y-9880600I203200J0D01*
G01*
D11*
X12883200Y-7269800D02*
X12923200Y-7309800D01*
X12923200Y-7269800D02*
X12883200Y-7309800D01*
X12883200Y-8469950D02*
X12923200Y-8509950D01*
X12923200Y-8469950D02*
X12883200Y-8509950D01*
X12883200Y-9657400D02*
X12923200Y-9697400D01*
X12923200Y-9657400D02*
X12883200Y-9697400D01*
X13600699Y-8031800D02*
X13640699Y-8071800D01*
X13640699Y-8031800D02*
X13600699Y-8071800D01*
X13600699Y-8336600D02*
X13640699Y-8376600D01*
X13640699Y-8336600D02*
X13600699Y-8376600D01*
X13615694Y-8631875D02*
X13655694Y-8671875D01*
X13655694Y-8631875D02*
X13615694Y-8671875D01*
X13734100Y-7517450D02*
X13774100Y-7557450D01*
X13774100Y-7517450D02*
X13734100Y-7557450D01*
X13975400Y-7269800D02*
X14015400Y-7309800D01*
X14015400Y-7269800D02*
X13975400Y-7309800D01*
X14038900Y-8755700D02*
X14078900Y-8795700D01*
X14078900Y-8755700D02*
X14038900Y-8795700D01*
X14051600Y-9657400D02*
X14091600Y-9697400D01*
X14091600Y-9657400D02*
X14051600Y-9697400D01*
X14077000Y-8197690D02*
X14117000Y-8237690D01*
X14117000Y-8197690D02*
X14077000Y-8237690D01*
X14153200Y-7930200D02*
X14193200Y-7970200D01*
X14193200Y-7930200D02*
X14153200Y-7970200D01*
X14292900Y-8584250D02*
X14332900Y-8624250D01*
X14332900Y-8584250D02*
X14292900Y-8624250D01*
X14508800Y-9225600D02*
X14548800Y-9265600D01*
X14548800Y-9225600D02*
X14508800Y-9265600D01*
X14851700Y-7968300D02*
X14891700Y-8008300D01*
X14891700Y-7968300D02*
X14851700Y-8008300D01*
X14851700Y-8603300D02*
X14891700Y-8643300D01*
X14891700Y-8603300D02*
X14851700Y-8643300D01*
X14966000Y-7269800D02*
X15006000Y-7309800D01*
X15006000Y-7269800D02*
X14966000Y-7309800D01*
X14966000Y-9657400D02*
X15006000Y-9697400D01*
X15006000Y-9657400D02*
X14966000Y-9697400D01*
X15169200Y-8285800D02*
X15209200Y-8325800D01*
X15209200Y-8285800D02*
X15169200Y-8325800D01*
X15169200Y-8781100D02*
X15209200Y-8821100D01*
X15209200Y-8781100D02*
X15169200Y-8821100D01*
X15220000Y-7269800D02*
X15260000Y-7309800D01*
X15260000Y-7269800D02*
X15220000Y-7309800D01*
X15220000Y-9657400D02*
X15260000Y-9697400D01*
X15260000Y-9657400D02*
X15220000Y-9697400D01*
X15435900Y-8743000D02*
X15475900Y-8783000D01*
X15475900Y-8743000D02*
X15435900Y-8783000D01*
X15753400Y-7904800D02*
X15793400Y-7944800D01*
X15793400Y-7904800D02*
X15753400Y-7944800D01*
X15778800Y-8590600D02*
X15818800Y-8630600D01*
X15818800Y-8590600D02*
X15778800Y-8630600D01*
X15778800Y-8755700D02*
X15818800Y-8795700D01*
X15818800Y-8755700D02*
X15778800Y-8795700D01*
X16197900Y-7955600D02*
X16237900Y-7995600D01*
X16237900Y-7955600D02*
X16197900Y-7995600D01*
X16299500Y-7269800D02*
X16339500Y-7309800D01*
X16339500Y-7269800D02*
X16299500Y-7309800D01*
X16299500Y-8971600D02*
X16339500Y-9011600D01*
X16339500Y-8971600D02*
X16299500Y-9011600D01*
X16299500Y-9657400D02*
X16339500Y-9697400D01*
X16339500Y-9657400D02*
X16299500Y-9697400D01*
X16769400Y-8209600D02*
X16809400Y-8249600D01*
X16809400Y-8209600D02*
X16769400Y-8249600D01*
X16769400Y-8463600D02*
X16809400Y-8503600D01*
X16809400Y-8463600D02*
X16769400Y-8503600D01*
X16769400Y-8717600D02*
X16809400Y-8757600D01*
X16809400Y-8717600D02*
X16769400Y-8757600D01*
X17302800Y-7269800D02*
X17342800Y-7309800D01*
X17342800Y-7269800D02*
X17302800Y-7309800D01*
X17302800Y-9657400D02*
X17342800Y-9697400D01*
X17342800Y-9657400D02*
X17302800Y-9697400D01*
X13905700Y-7950200D02*
G75*
G03*
X13905700Y-7950200I-50000J0D01*
G01*
X13905700Y-8204200D02*
G75*
G03*
X13905700Y-8204200I-50000J0D01*
G01*
X13905700Y-8788400D02*
G75*
G03*
X13905700Y-8788400I-50000J0D01*
G01*
X13905700Y-9042400D02*
G75*
G03*
X13905700Y-9042400I-50000J0D01*
G01*
X14782000Y-9245600D02*
G75*
G03*
X14782000Y-9245600I-50000J0D01*
G01*
X15036000Y-9245600D02*
G75*
G03*
X15036000Y-9245600I-50000J0D01*
G01*
X15290000Y-9245600D02*
G75*
G03*
X15290000Y-9245600I-50000J0D01*
G01*
X15544000Y-9245600D02*
G75*
G03*
X15544000Y-9245600I-50000J0D01*
G01*
X17322000Y-7975600D02*
G75*
G03*
X17322000Y-7975600I-50000J0D01*
G01*
X17322000Y-8229600D02*
G75*
G03*
X17322000Y-8229600I-50000J0D01*
G01*
X17322000Y-8483600D02*
G75*
G03*
X17322000Y-8483600I-50000J0D01*
G01*
X17322000Y-8737600D02*
G75*
G03*
X17322000Y-8737600I-50000J0D01*
G01*
X17322000Y-8991600D02*
G75*
G03*
X17322000Y-8991600I-50000J0D01*
G01*
X13335000Y-8074200D02*
X13335000Y-8204200D01*
X13270000Y-8139200D02*
X13400000Y-8139200D01*
X13335000Y-8424200D02*
X13335000Y-8554200D01*
X13270000Y-8489200D02*
X13400000Y-8489200D01*
X13335000Y-8774200D02*
X13335000Y-8904200D01*
X13270000Y-8839200D02*
X13400000Y-8839200D01*
D12*
X12983928Y-10348814D02*
X12983928Y-10048814D01*
X13055357Y-10048814D01*
X13098214Y-10063100D01*
X13126786Y-10091672D01*
X13141071Y-10120243D01*
X13155357Y-10177386D01*
X13155357Y-10220243D01*
X13141071Y-10277386D01*
X13126786Y-10305957D01*
X13098214Y-10334529D01*
X13055357Y-10348814D01*
X12983928Y-10348814D01*
X13283928Y-10348814D02*
X13283928Y-10148814D01*
X13283928Y-10205957D02*
X13298214Y-10177386D01*
X13312500Y-10163100D01*
X13341071Y-10148814D01*
X13369643Y-10148814D01*
X13469643Y-10348814D02*
X13469643Y-10148814D01*
X13469643Y-10048814D02*
X13455357Y-10063100D01*
X13469643Y-10077386D01*
X13483928Y-10063100D01*
X13469643Y-10048814D01*
X13469643Y-10077386D01*
X13655357Y-10348814D02*
X13626786Y-10334529D01*
X13612500Y-10305957D01*
X13612500Y-10048814D01*
X13812500Y-10348814D02*
X13783928Y-10334529D01*
X13769643Y-10305957D01*
X13769643Y-10048814D01*
X14155357Y-10348814D02*
X14155357Y-10048814D01*
X14255357Y-10263100D01*
X14355357Y-10048814D01*
X14355357Y-10348814D01*
X14626786Y-10348814D02*
X14626786Y-10191672D01*
X14612500Y-10163100D01*
X14583928Y-10148814D01*
X14526786Y-10148814D01*
X14498214Y-10163100D01*
X14626786Y-10334529D02*
X14598214Y-10348814D01*
X14526786Y-10348814D01*
X14498214Y-10334529D01*
X14483928Y-10305957D01*
X14483928Y-10277386D01*
X14498214Y-10248814D01*
X14526786Y-10234529D01*
X14598214Y-10234529D01*
X14626786Y-10220243D01*
X14769643Y-10148814D02*
X14769643Y-10448814D01*
X14769643Y-10163100D02*
X14798214Y-10148814D01*
X14855357Y-10148814D01*
X14883928Y-10163100D01*
X14898214Y-10177386D01*
X14912500Y-10205957D01*
X14912500Y-10291672D01*
X14898214Y-10320243D01*
X14883928Y-10334529D01*
X14855357Y-10348814D01*
X14798214Y-10348814D01*
X14769643Y-10334529D01*
X15041071Y-10320243D02*
X15055357Y-10334529D01*
X15041071Y-10348814D01*
X15026786Y-10334529D01*
X15041071Y-10320243D01*
X15041071Y-10348814D01*
X15041071Y-10163100D02*
X15055357Y-10177386D01*
X15041071Y-10191672D01*
X15026786Y-10177386D01*
X15041071Y-10163100D01*
X15041071Y-10191672D01*
X12657500Y-10823100D02*
X12697500Y-10863100D01*
X12697500Y-10823100D02*
X12657500Y-10863100D01*
X13041071Y-10678814D02*
X13069643Y-10678814D01*
X13098214Y-10693100D01*
X13112500Y-10707386D01*
X13126786Y-10735957D01*
X13141071Y-10793100D01*
X13141071Y-10864529D01*
X13126786Y-10921672D01*
X13112500Y-10950243D01*
X13098214Y-10964529D01*
X13069643Y-10978814D01*
X13041071Y-10978814D01*
X13012500Y-10964529D01*
X12998214Y-10950243D01*
X12983928Y-10921672D01*
X12969643Y-10864529D01*
X12969643Y-10793100D01*
X12983928Y-10735957D01*
X12998214Y-10707386D01*
X13012500Y-10693100D01*
X13041071Y-10678814D01*
X13269643Y-10950243D02*
X13283928Y-10964529D01*
X13269643Y-10978814D01*
X13255357Y-10964529D01*
X13269643Y-10950243D01*
X13269643Y-10978814D01*
X13541071Y-10778814D02*
X13541071Y-10978814D01*
X13469643Y-10664529D02*
X13398214Y-10878814D01*
X13583928Y-10878814D01*
X13755357Y-10678814D02*
X13783928Y-10678814D01*
X13812500Y-10693100D01*
X13826786Y-10707386D01*
X13841071Y-10735957D01*
X13855357Y-10793100D01*
X13855357Y-10864529D01*
X13841071Y-10921672D01*
X13826786Y-10950243D01*
X13812500Y-10964529D01*
X13783928Y-10978814D01*
X13755357Y-10978814D01*
X13726786Y-10964529D01*
X13712500Y-10950243D01*
X13698214Y-10921672D01*
X13683928Y-10864529D01*
X13683928Y-10793100D01*
X13698214Y-10735957D01*
X13712500Y-10707386D01*
X13726786Y-10693100D01*
X13755357Y-10678814D01*
X14041071Y-10678814D02*
X14069643Y-10678814D01*
X14098214Y-10693100D01*
X14112500Y-10707386D01*
X14126786Y-10735957D01*
X14141071Y-10793100D01*
X14141071Y-10864529D01*
X14126786Y-10921672D01*
X14112500Y-10950243D01*
X14098214Y-10964529D01*
X14069643Y-10978814D01*
X14041071Y-10978814D01*
X14012500Y-10964529D01*
X13998214Y-10950243D01*
X13983928Y-10921672D01*
X13969643Y-10864529D01*
X13969643Y-10793100D01*
X13983928Y-10735957D01*
X13998214Y-10707386D01*
X14012500Y-10693100D01*
X14041071Y-10678814D01*
X14269643Y-10978814D02*
X14269643Y-10778814D01*
X14269643Y-10807386D02*
X14283928Y-10793100D01*
X14312500Y-10778814D01*
X14355357Y-10778814D01*
X14383928Y-10793100D01*
X14398214Y-10821672D01*
X14398214Y-10978814D01*
X14398214Y-10821672D02*
X14412500Y-10793100D01*
X14441071Y-10778814D01*
X14483928Y-10778814D01*
X14512500Y-10793100D01*
X14526786Y-10821672D01*
X14526786Y-10978814D01*
X14669643Y-10978814D02*
X14669643Y-10778814D01*
X14669643Y-10807386D02*
X14683928Y-10793100D01*
X14712500Y-10778814D01*
X14755357Y-10778814D01*
X14783928Y-10793100D01*
X14798214Y-10821672D01*
X14798214Y-10978814D01*
X14798214Y-10821672D02*
X14812500Y-10793100D01*
X14841071Y-10778814D01*
X14883928Y-10778814D01*
X14912500Y-10793100D01*
X14926786Y-10821672D01*
X14926786Y-10978814D01*
X15512500Y-10664529D02*
X15255357Y-11050243D01*
X15898214Y-10678814D02*
X15926786Y-10678814D01*
X15955357Y-10693100D01*
X15969643Y-10707386D01*
X15983928Y-10735957D01*
X15998214Y-10793100D01*
X15998214Y-10864529D01*
X15983928Y-10921672D01*
X15969643Y-10950243D01*
X15955357Y-10964529D01*
X15926786Y-10978814D01*
X15898214Y-10978814D01*
X15869643Y-10964529D01*
X15855357Y-10950243D01*
X15841071Y-10921672D01*
X15826786Y-10864529D01*
X15826786Y-10793100D01*
X15841071Y-10735957D01*
X15855357Y-10707386D01*
X15869643Y-10693100D01*
X15898214Y-10678814D01*
X16126786Y-10950243D02*
X16141071Y-10964529D01*
X16126786Y-10978814D01*
X16112500Y-10964529D01*
X16126786Y-10950243D01*
X16126786Y-10978814D01*
X16326786Y-10678814D02*
X16355357Y-10678814D01*
X16383928Y-10693100D01*
X16398214Y-10707386D01*
X16412500Y-10735957D01*
X16426786Y-10793100D01*
X16426786Y-10864529D01*
X16412500Y-10921672D01*
X16398214Y-10950243D01*
X16383928Y-10964529D01*
X16355357Y-10978814D01*
X16326786Y-10978814D01*
X16298214Y-10964529D01*
X16283928Y-10950243D01*
X16269643Y-10921672D01*
X16255357Y-10864529D01*
X16255357Y-10793100D01*
X16269643Y-10735957D01*
X16283928Y-10707386D01*
X16298214Y-10693100D01*
X16326786Y-10678814D01*
X16712500Y-10978814D02*
X16541071Y-10978814D01*
X16626786Y-10978814D02*
X16626786Y-10678814D01*
X16598214Y-10721672D01*
X16569643Y-10750243D01*
X16541071Y-10764529D01*
X16983928Y-10678814D02*
X16841071Y-10678814D01*
X16826786Y-10821672D01*
X16841071Y-10807386D01*
X16869643Y-10793100D01*
X16941071Y-10793100D01*
X16969643Y-10807386D01*
X16983928Y-10821672D01*
X16998214Y-10850243D01*
X16998214Y-10921672D01*
X16983928Y-10950243D01*
X16969643Y-10964529D01*
X16941071Y-10978814D01*
X16869643Y-10978814D01*
X16841071Y-10964529D01*
X16826786Y-10950243D01*
X17098214Y-10678814D02*
X17298214Y-10678814D01*
X17169643Y-10978814D01*
X17398214Y-10678814D02*
X17398214Y-10735957D01*
X17512500Y-10678814D02*
X17512500Y-10735957D01*
X17955357Y-11093100D02*
X17941071Y-11078814D01*
X17912500Y-11035957D01*
X17898214Y-11007386D01*
X17883928Y-10964529D01*
X17869643Y-10893100D01*
X17869643Y-10835957D01*
X17883928Y-10764529D01*
X17898214Y-10721672D01*
X17912500Y-10693100D01*
X17941071Y-10650243D01*
X17955357Y-10635957D01*
X18041071Y-10678814D02*
X18226786Y-10678814D01*
X18126786Y-10793100D01*
X18169643Y-10793100D01*
X18198214Y-10807386D01*
X18212500Y-10821672D01*
X18226786Y-10850243D01*
X18226786Y-10921672D01*
X18212500Y-10950243D01*
X18198214Y-10964529D01*
X18169643Y-10978814D01*
X18083928Y-10978814D01*
X18055357Y-10964529D01*
X18041071Y-10950243D01*
X18498214Y-10678814D02*
X18355357Y-10678814D01*
X18341071Y-10821672D01*
X18355357Y-10807386D01*
X18383928Y-10793100D01*
X18455357Y-10793100D01*
X18483928Y-10807386D01*
X18498214Y-10821672D01*
X18512500Y-10850243D01*
X18512500Y-10921672D01*
X18498214Y-10950243D01*
X18483928Y-10964529D01*
X18455357Y-10978814D01*
X18383928Y-10978814D01*
X18355357Y-10964529D01*
X18341071Y-10950243D01*
X18869643Y-10978814D02*
X18869643Y-10678814D01*
X18998214Y-10978814D02*
X18998214Y-10821672D01*
X18983928Y-10793100D01*
X18955357Y-10778814D01*
X18912500Y-10778814D01*
X18883928Y-10793100D01*
X18869643Y-10807386D01*
X19183928Y-10978814D02*
X19155357Y-10964529D01*
X19141071Y-10950243D01*
X19126786Y-10921672D01*
X19126786Y-10835957D01*
X19141071Y-10807386D01*
X19155357Y-10793100D01*
X19183928Y-10778814D01*
X19226786Y-10778814D01*
X19255357Y-10793100D01*
X19269643Y-10807386D01*
X19283928Y-10835957D01*
X19283928Y-10921672D01*
X19269643Y-10950243D01*
X19255357Y-10964529D01*
X19226786Y-10978814D01*
X19183928Y-10978814D01*
X19455357Y-10978814D02*
X19426786Y-10964529D01*
X19412500Y-10935957D01*
X19412500Y-10678814D01*
X19683928Y-10964529D02*
X19655357Y-10978814D01*
X19598214Y-10978814D01*
X19569643Y-10964529D01*
X19555357Y-10935957D01*
X19555357Y-10821672D01*
X19569643Y-10793100D01*
X19598214Y-10778814D01*
X19655357Y-10778814D01*
X19683928Y-10793100D01*
X19698214Y-10821672D01*
X19698214Y-10850243D01*
X19555357Y-10878814D01*
X19812500Y-10964529D02*
X19841071Y-10978814D01*
X19898214Y-10978814D01*
X19926786Y-10964529D01*
X19941071Y-10935957D01*
X19941071Y-10921672D01*
X19926786Y-10893100D01*
X19898214Y-10878814D01*
X19855357Y-10878814D01*
X19826786Y-10864529D01*
X19812500Y-10835957D01*
X19812500Y-10821672D01*
X19826786Y-10793100D01*
X19855357Y-10778814D01*
X19898214Y-10778814D01*
X19926786Y-10793100D01*
X20041071Y-11093100D02*
X20055357Y-11078814D01*
X20083928Y-11035957D01*
X20098214Y-11007386D01*
X20112500Y-10964529D01*
X20126786Y-10893100D01*
X20126786Y-10835957D01*
X20112500Y-10764529D01*
X20098214Y-10721672D01*
X20083928Y-10693100D01*
X20055357Y-10650243D01*
X20041071Y-10635957D01*
X12697500Y-11239100D02*
G75*
G03*
X12697500Y-11239100I-50000J0D01*
G01*
X13141071Y-11374814D02*
X12969643Y-11374814D01*
X13055357Y-11374814D02*
X13055357Y-11074814D01*
X13026786Y-11117672D01*
X12998214Y-11146243D01*
X12969643Y-11160529D01*
X13269643Y-11346243D02*
X13283928Y-11360529D01*
X13269643Y-11374814D01*
X13255357Y-11360529D01*
X13269643Y-11346243D01*
X13269643Y-11374814D01*
X13469643Y-11074814D02*
X13498214Y-11074814D01*
X13526786Y-11089100D01*
X13541071Y-11103386D01*
X13555357Y-11131957D01*
X13569643Y-11189100D01*
X13569643Y-11260529D01*
X13555357Y-11317671D01*
X13541071Y-11346243D01*
X13526786Y-11360529D01*
X13498214Y-11374814D01*
X13469643Y-11374814D01*
X13441071Y-11360529D01*
X13426786Y-11346243D01*
X13412500Y-11317671D01*
X13398214Y-11260529D01*
X13398214Y-11189100D01*
X13412500Y-11131957D01*
X13426786Y-11103386D01*
X13441071Y-11089100D01*
X13469643Y-11074814D01*
X13755357Y-11074814D02*
X13783928Y-11074814D01*
X13812500Y-11089100D01*
X13826786Y-11103386D01*
X13841071Y-11131957D01*
X13855357Y-11189100D01*
X13855357Y-11260529D01*
X13841071Y-11317671D01*
X13826786Y-11346243D01*
X13812500Y-11360529D01*
X13783928Y-11374814D01*
X13755357Y-11374814D01*
X13726786Y-11360529D01*
X13712500Y-11346243D01*
X13698214Y-11317671D01*
X13683928Y-11260529D01*
X13683928Y-11189100D01*
X13698214Y-11131957D01*
X13712500Y-11103386D01*
X13726786Y-11089100D01*
X13755357Y-11074814D01*
X14041071Y-11074814D02*
X14069643Y-11074814D01*
X14098214Y-11089100D01*
X14112500Y-11103386D01*
X14126786Y-11131957D01*
X14141071Y-11189100D01*
X14141071Y-11260529D01*
X14126786Y-11317671D01*
X14112500Y-11346243D01*
X14098214Y-11360529D01*
X14069643Y-11374814D01*
X14041071Y-11374814D01*
X14012500Y-11360529D01*
X13998214Y-11346243D01*
X13983928Y-11317671D01*
X13969643Y-11260529D01*
X13969643Y-11189100D01*
X13983928Y-11131957D01*
X13998214Y-11103386D01*
X14012500Y-11089100D01*
X14041071Y-11074814D01*
X14269643Y-11374814D02*
X14269643Y-11174814D01*
X14269643Y-11203386D02*
X14283928Y-11189100D01*
X14312500Y-11174814D01*
X14355357Y-11174814D01*
X14383928Y-11189100D01*
X14398214Y-11217671D01*
X14398214Y-11374814D01*
X14398214Y-11217671D02*
X14412500Y-11189100D01*
X14441071Y-11174814D01*
X14483928Y-11174814D01*
X14512500Y-11189100D01*
X14526786Y-11217671D01*
X14526786Y-11374814D01*
X14669643Y-11374814D02*
X14669643Y-11174814D01*
X14669643Y-11203386D02*
X14683928Y-11189100D01*
X14712500Y-11174814D01*
X14755357Y-11174814D01*
X14783928Y-11189100D01*
X14798214Y-11217671D01*
X14798214Y-11374814D01*
X14798214Y-11217671D02*
X14812500Y-11189100D01*
X14841071Y-11174814D01*
X14883928Y-11174814D01*
X14912500Y-11189100D01*
X14926786Y-11217671D01*
X14926786Y-11374814D01*
X15512500Y-11060529D02*
X15255357Y-11446243D01*
X15898214Y-11074814D02*
X15926786Y-11074814D01*
X15955357Y-11089100D01*
X15969643Y-11103386D01*
X15983928Y-11131957D01*
X15998214Y-11189100D01*
X15998214Y-11260529D01*
X15983928Y-11317671D01*
X15969643Y-11346243D01*
X15955357Y-11360529D01*
X15926786Y-11374814D01*
X15898214Y-11374814D01*
X15869643Y-11360529D01*
X15855357Y-11346243D01*
X15841071Y-11317671D01*
X15826786Y-11260529D01*
X15826786Y-11189100D01*
X15841071Y-11131957D01*
X15855357Y-11103386D01*
X15869643Y-11089100D01*
X15898214Y-11074814D01*
X16126786Y-11346243D02*
X16141071Y-11360529D01*
X16126786Y-11374814D01*
X16112500Y-11360529D01*
X16126786Y-11346243D01*
X16126786Y-11374814D01*
X16326786Y-11074814D02*
X16355357Y-11074814D01*
X16383928Y-11089100D01*
X16398214Y-11103386D01*
X16412500Y-11131957D01*
X16426786Y-11189100D01*
X16426786Y-11260529D01*
X16412500Y-11317671D01*
X16398214Y-11346243D01*
X16383928Y-11360529D01*
X16355357Y-11374814D01*
X16326786Y-11374814D01*
X16298214Y-11360529D01*
X16283928Y-11346243D01*
X16269643Y-11317671D01*
X16255357Y-11260529D01*
X16255357Y-11189100D01*
X16269643Y-11131957D01*
X16283928Y-11103386D01*
X16298214Y-11089100D01*
X16326786Y-11074814D01*
X16526786Y-11074814D02*
X16712500Y-11074814D01*
X16612500Y-11189100D01*
X16655357Y-11189100D01*
X16683928Y-11203386D01*
X16698214Y-11217671D01*
X16712500Y-11246243D01*
X16712500Y-11317671D01*
X16698214Y-11346243D01*
X16683928Y-11360529D01*
X16655357Y-11374814D01*
X16569643Y-11374814D01*
X16541071Y-11360529D01*
X16526786Y-11346243D01*
X16855357Y-11374814D02*
X16912500Y-11374814D01*
X16941071Y-11360529D01*
X16955357Y-11346243D01*
X16983928Y-11303386D01*
X16998214Y-11246243D01*
X16998214Y-11131957D01*
X16983928Y-11103386D01*
X16969643Y-11089100D01*
X16941071Y-11074814D01*
X16883928Y-11074814D01*
X16855357Y-11089100D01*
X16841071Y-11103386D01*
X16826786Y-11131957D01*
X16826786Y-11203386D01*
X16841071Y-11231957D01*
X16855357Y-11246243D01*
X16883928Y-11260529D01*
X16941071Y-11260529D01*
X16969643Y-11246243D01*
X16983928Y-11231957D01*
X16998214Y-11203386D01*
X17255357Y-11174814D02*
X17255357Y-11374814D01*
X17183928Y-11060529D02*
X17112500Y-11274814D01*
X17298214Y-11274814D01*
X17398214Y-11074814D02*
X17398214Y-11131957D01*
X17512500Y-11074814D02*
X17512500Y-11131957D01*
X17955357Y-11489100D02*
X17941071Y-11474814D01*
X17912500Y-11431957D01*
X17898214Y-11403386D01*
X17883928Y-11360529D01*
X17869643Y-11289100D01*
X17869643Y-11231957D01*
X17883928Y-11160529D01*
X17898214Y-11117672D01*
X17912500Y-11089100D01*
X17941071Y-11046243D01*
X17955357Y-11031957D01*
X18226786Y-11374814D02*
X18055357Y-11374814D01*
X18141071Y-11374814D02*
X18141071Y-11074814D01*
X18112500Y-11117672D01*
X18083928Y-11146243D01*
X18055357Y-11160529D01*
X18326786Y-11074814D02*
X18512500Y-11074814D01*
X18412500Y-11189100D01*
X18455357Y-11189100D01*
X18483928Y-11203386D01*
X18498214Y-11217671D01*
X18512500Y-11246243D01*
X18512500Y-11317671D01*
X18498214Y-11346243D01*
X18483928Y-11360529D01*
X18455357Y-11374814D01*
X18369643Y-11374814D01*
X18341071Y-11360529D01*
X18326786Y-11346243D01*
X18869643Y-11374814D02*
X18869643Y-11074814D01*
X18998214Y-11374814D02*
X18998214Y-11217671D01*
X18983928Y-11189100D01*
X18955357Y-11174814D01*
X18912500Y-11174814D01*
X18883928Y-11189100D01*
X18869643Y-11203386D01*
X19183928Y-11374814D02*
X19155357Y-11360529D01*
X19141071Y-11346243D01*
X19126786Y-11317671D01*
X19126786Y-11231957D01*
X19141071Y-11203386D01*
X19155357Y-11189100D01*
X19183928Y-11174814D01*
X19226786Y-11174814D01*
X19255357Y-11189100D01*
X19269643Y-11203386D01*
X19283928Y-11231957D01*
X19283928Y-11317671D01*
X19269643Y-11346243D01*
X19255357Y-11360529D01*
X19226786Y-11374814D01*
X19183928Y-11374814D01*
X19455357Y-11374814D02*
X19426786Y-11360529D01*
X19412500Y-11331957D01*
X19412500Y-11074814D01*
X19683928Y-11360529D02*
X19655357Y-11374814D01*
X19598214Y-11374814D01*
X19569643Y-11360529D01*
X19555357Y-11331957D01*
X19555357Y-11217671D01*
X19569643Y-11189100D01*
X19598214Y-11174814D01*
X19655357Y-11174814D01*
X19683928Y-11189100D01*
X19698214Y-11217671D01*
X19698214Y-11246243D01*
X19555357Y-11274814D01*
X19812500Y-11360529D02*
X19841071Y-11374814D01*
X19898214Y-11374814D01*
X19926786Y-11360529D01*
X19941071Y-11331957D01*
X19941071Y-11317671D01*
X19926786Y-11289100D01*
X19898214Y-11274814D01*
X19855357Y-11274814D01*
X19826786Y-11260529D01*
X19812500Y-11231957D01*
X19812500Y-11217671D01*
X19826786Y-11189100D01*
X19855357Y-11174814D01*
X19898214Y-11174814D01*
X19926786Y-11189100D01*
X20041071Y-11489100D02*
X20055357Y-11474814D01*
X20083928Y-11431957D01*
X20098214Y-11403386D01*
X20112500Y-11360529D01*
X20126786Y-11289100D01*
X20126786Y-11231957D01*
X20112500Y-11160529D01*
X20098214Y-11117672D01*
X20083928Y-11089100D01*
X20055357Y-11046243D01*
X20041071Y-11031957D01*
X12632500Y-11570100D02*
X12632500Y-11700100D01*
X12567500Y-11635100D02*
X12697500Y-11635100D01*
X13141071Y-11770814D02*
X12969643Y-11770814D01*
X13055357Y-11770814D02*
X13055357Y-11470814D01*
X13026786Y-11513671D01*
X12998214Y-11542243D01*
X12969643Y-11556529D01*
X13269643Y-11742243D02*
X13283928Y-11756529D01*
X13269643Y-11770814D01*
X13255357Y-11756529D01*
X13269643Y-11742243D01*
X13269643Y-11770814D01*
X13383928Y-11470814D02*
X13569643Y-11470814D01*
X13469643Y-11585100D01*
X13512500Y-11585100D01*
X13541071Y-11599386D01*
X13555357Y-11613671D01*
X13569643Y-11642243D01*
X13569643Y-11713671D01*
X13555357Y-11742243D01*
X13541071Y-11756529D01*
X13512500Y-11770814D01*
X13426786Y-11770814D01*
X13398214Y-11756529D01*
X13383928Y-11742243D01*
X13755357Y-11470814D02*
X13783928Y-11470814D01*
X13812500Y-11485100D01*
X13826786Y-11499386D01*
X13841071Y-11527957D01*
X13855357Y-11585100D01*
X13855357Y-11656529D01*
X13841071Y-11713671D01*
X13826786Y-11742243D01*
X13812500Y-11756529D01*
X13783928Y-11770814D01*
X13755357Y-11770814D01*
X13726786Y-11756529D01*
X13712500Y-11742243D01*
X13698214Y-11713671D01*
X13683928Y-11656529D01*
X13683928Y-11585100D01*
X13698214Y-11527957D01*
X13712500Y-11499386D01*
X13726786Y-11485100D01*
X13755357Y-11470814D01*
X14041071Y-11470814D02*
X14069643Y-11470814D01*
X14098214Y-11485100D01*
X14112500Y-11499386D01*
X14126786Y-11527957D01*
X14141071Y-11585100D01*
X14141071Y-11656529D01*
X14126786Y-11713671D01*
X14112500Y-11742243D01*
X14098214Y-11756529D01*
X14069643Y-11770814D01*
X14041071Y-11770814D01*
X14012500Y-11756529D01*
X13998214Y-11742243D01*
X13983928Y-11713671D01*
X13969643Y-11656529D01*
X13969643Y-11585100D01*
X13983928Y-11527957D01*
X13998214Y-11499386D01*
X14012500Y-11485100D01*
X14041071Y-11470814D01*
X14269643Y-11770814D02*
X14269643Y-11570814D01*
X14269643Y-11599386D02*
X14283928Y-11585100D01*
X14312500Y-11570814D01*
X14355357Y-11570814D01*
X14383928Y-11585100D01*
X14398214Y-11613671D01*
X14398214Y-11770814D01*
X14398214Y-11613671D02*
X14412500Y-11585100D01*
X14441071Y-11570814D01*
X14483928Y-11570814D01*
X14512500Y-11585100D01*
X14526786Y-11613671D01*
X14526786Y-11770814D01*
X14669643Y-11770814D02*
X14669643Y-11570814D01*
X14669643Y-11599386D02*
X14683928Y-11585100D01*
X14712500Y-11570814D01*
X14755357Y-11570814D01*
X14783928Y-11585100D01*
X14798214Y-11613671D01*
X14798214Y-11770814D01*
X14798214Y-11613671D02*
X14812500Y-11585100D01*
X14841071Y-11570814D01*
X14883928Y-11570814D01*
X14912500Y-11585100D01*
X14926786Y-11613671D01*
X14926786Y-11770814D01*
X15512500Y-11456529D02*
X15255357Y-11842243D01*
X15898214Y-11470814D02*
X15926786Y-11470814D01*
X15955357Y-11485100D01*
X15969643Y-11499386D01*
X15983928Y-11527957D01*
X15998214Y-11585100D01*
X15998214Y-11656529D01*
X15983928Y-11713671D01*
X15969643Y-11742243D01*
X15955357Y-11756529D01*
X15926786Y-11770814D01*
X15898214Y-11770814D01*
X15869643Y-11756529D01*
X15855357Y-11742243D01*
X15841071Y-11713671D01*
X15826786Y-11656529D01*
X15826786Y-11585100D01*
X15841071Y-11527957D01*
X15855357Y-11499386D01*
X15869643Y-11485100D01*
X15898214Y-11470814D01*
X16126786Y-11742243D02*
X16141071Y-11756529D01*
X16126786Y-11770814D01*
X16112500Y-11756529D01*
X16126786Y-11742243D01*
X16126786Y-11770814D01*
X16326786Y-11470814D02*
X16355357Y-11470814D01*
X16383928Y-11485100D01*
X16398214Y-11499386D01*
X16412500Y-11527957D01*
X16426786Y-11585100D01*
X16426786Y-11656529D01*
X16412500Y-11713671D01*
X16398214Y-11742243D01*
X16383928Y-11756529D01*
X16355357Y-11770814D01*
X16326786Y-11770814D01*
X16298214Y-11756529D01*
X16283928Y-11742243D01*
X16269643Y-11713671D01*
X16255357Y-11656529D01*
X16255357Y-11585100D01*
X16269643Y-11527957D01*
X16283928Y-11499386D01*
X16298214Y-11485100D01*
X16326786Y-11470814D01*
X16698214Y-11470814D02*
X16555357Y-11470814D01*
X16541071Y-11613671D01*
X16555357Y-11599386D01*
X16583928Y-11585100D01*
X16655357Y-11585100D01*
X16683928Y-11599386D01*
X16698214Y-11613671D01*
X16712500Y-11642243D01*
X16712500Y-11713671D01*
X16698214Y-11742243D01*
X16683928Y-11756529D01*
X16655357Y-11770814D01*
X16583928Y-11770814D01*
X16555357Y-11756529D01*
X16541071Y-11742243D01*
X16998214Y-11770814D02*
X16826786Y-11770814D01*
X16912500Y-11770814D02*
X16912500Y-11470814D01*
X16883928Y-11513671D01*
X16855357Y-11542243D01*
X16826786Y-11556529D01*
X17112500Y-11499386D02*
X17126786Y-11485100D01*
X17155357Y-11470814D01*
X17226786Y-11470814D01*
X17255357Y-11485100D01*
X17269643Y-11499386D01*
X17283928Y-11527957D01*
X17283928Y-11556529D01*
X17269643Y-11599386D01*
X17098214Y-11770814D01*
X17283928Y-11770814D01*
X17398214Y-11470814D02*
X17398214Y-11527957D01*
X17512500Y-11470814D02*
X17512500Y-11527957D01*
X17955357Y-11885100D02*
X17941071Y-11870814D01*
X17912500Y-11827957D01*
X17898214Y-11799386D01*
X17883928Y-11756529D01*
X17869643Y-11685100D01*
X17869643Y-11627957D01*
X17883928Y-11556529D01*
X17898214Y-11513671D01*
X17912500Y-11485100D01*
X17941071Y-11442243D01*
X17955357Y-11427957D01*
X18041071Y-11470814D02*
X18226786Y-11470814D01*
X18126786Y-11585100D01*
X18169643Y-11585100D01*
X18198214Y-11599386D01*
X18212500Y-11613671D01*
X18226786Y-11642243D01*
X18226786Y-11713671D01*
X18212500Y-11742243D01*
X18198214Y-11756529D01*
X18169643Y-11770814D01*
X18083928Y-11770814D01*
X18055357Y-11756529D01*
X18041071Y-11742243D01*
X18583928Y-11770814D02*
X18583928Y-11470814D01*
X18712500Y-11770814D02*
X18712500Y-11613671D01*
X18698214Y-11585100D01*
X18669643Y-11570814D01*
X18626786Y-11570814D01*
X18598214Y-11585100D01*
X18583928Y-11599386D01*
X18898214Y-11770814D02*
X18869643Y-11756529D01*
X18855357Y-11742243D01*
X18841071Y-11713671D01*
X18841071Y-11627957D01*
X18855357Y-11599386D01*
X18869643Y-11585100D01*
X18898214Y-11570814D01*
X18941071Y-11570814D01*
X18969643Y-11585100D01*
X18983928Y-11599386D01*
X18998214Y-11627957D01*
X18998214Y-11713671D01*
X18983928Y-11742243D01*
X18969643Y-11756529D01*
X18941071Y-11770814D01*
X18898214Y-11770814D01*
X19169643Y-11770814D02*
X19141071Y-11756529D01*
X19126786Y-11727957D01*
X19126786Y-11470814D01*
X19398214Y-11756529D02*
X19369643Y-11770814D01*
X19312500Y-11770814D01*
X19283928Y-11756529D01*
X19269643Y-11727957D01*
X19269643Y-11613671D01*
X19283928Y-11585100D01*
X19312500Y-11570814D01*
X19369643Y-11570814D01*
X19398214Y-11585100D01*
X19412500Y-11613671D01*
X19412500Y-11642243D01*
X19269643Y-11670814D01*
X19526786Y-11756529D02*
X19555357Y-11770814D01*
X19612500Y-11770814D01*
X19641071Y-11756529D01*
X19655357Y-11727957D01*
X19655357Y-11713671D01*
X19641071Y-11685100D01*
X19612500Y-11670814D01*
X19569643Y-11670814D01*
X19541071Y-11656529D01*
X19526786Y-11627957D01*
X19526786Y-11613671D01*
X19541071Y-11585100D01*
X19569643Y-11570814D01*
X19612500Y-11570814D01*
X19641071Y-11585100D01*
X19755357Y-11885100D02*
X19769643Y-11870814D01*
X19798214Y-11827957D01*
X19812500Y-11799386D01*
X19826786Y-11756529D01*
X19841071Y-11685100D01*
X19841071Y-11627957D01*
X19826786Y-11556529D01*
X19812500Y-11513671D01*
X19798214Y-11485100D01*
X19769643Y-11442243D01*
X19755357Y-11427957D01*
M02*
