G04 #@! TF.GenerationSoftware,KiCad,Pcbnew,5.1.12-84ad8e8a86~92~ubuntu16.04.1*
G04 #@! TF.CreationDate,2022-12-06T21:02:49+01:00*
G04 #@! TF.ProjectId,RS485-TTL,52533438-352d-4545-944c-2e6b69636164,rev?*
G04 #@! TF.SameCoordinates,Original*
G04 #@! TF.FileFunction,Paste,Top*
G04 #@! TF.FilePolarity,Positive*
%FSLAX46Y46*%
G04 Gerber Fmt 4.6, Leading zero omitted, Abs format (unit mm)*
G04 Created by KiCad (PCBNEW 5.1.12-84ad8e8a86~92~ubuntu16.04.1) date 2022-12-06 21:02:49*
%MOMM*%
%LPD*%
G01*
G04 APERTURE LIST*
%ADD10R,0.800000X1.900000*%
G04 APERTURE END LIST*
G36*
G01*
X154574000Y-90087001D02*
X154574000Y-89236999D01*
G75*
G02*
X154823999Y-88987000I249999J0D01*
G01*
X155899001Y-88987000D01*
G75*
G02*
X156149000Y-89236999I0J-249999D01*
G01*
X156149000Y-90087001D01*
G75*
G02*
X155899001Y-90337000I-249999J0D01*
G01*
X154823999Y-90337000D01*
G75*
G02*
X154574000Y-90087001I0J249999D01*
G01*
G37*
G36*
G01*
X151699000Y-90087001D02*
X151699000Y-89236999D01*
G75*
G02*
X151948999Y-88987000I249999J0D01*
G01*
X153024001Y-88987000D01*
G75*
G02*
X153274000Y-89236999I0J-249999D01*
G01*
X153274000Y-90087001D01*
G75*
G02*
X153024001Y-90337000I-249999J0D01*
G01*
X151948999Y-90337000D01*
G75*
G02*
X151699000Y-90087001I0J249999D01*
G01*
G37*
G36*
G01*
X141402000Y-85286001D02*
X141402000Y-84385999D01*
G75*
G02*
X141651999Y-84136000I249999J0D01*
G01*
X142352001Y-84136000D01*
G75*
G02*
X142602000Y-84385999I0J-249999D01*
G01*
X142602000Y-85286001D01*
G75*
G02*
X142352001Y-85536000I-249999J0D01*
G01*
X141651999Y-85536000D01*
G75*
G02*
X141402000Y-85286001I0J249999D01*
G01*
G37*
G36*
G01*
X143402000Y-85286001D02*
X143402000Y-84385999D01*
G75*
G02*
X143651999Y-84136000I249999J0D01*
G01*
X144352001Y-84136000D01*
G75*
G02*
X144602000Y-84385999I0J-249999D01*
G01*
X144602000Y-85286001D01*
G75*
G02*
X144352001Y-85536000I-249999J0D01*
G01*
X143651999Y-85536000D01*
G75*
G02*
X143402000Y-85286001I0J249999D01*
G01*
G37*
G36*
G01*
X159157000Y-90391000D02*
X159157000Y-89441000D01*
G75*
G02*
X159407000Y-89191000I250000J0D01*
G01*
X160082000Y-89191000D01*
G75*
G02*
X160332000Y-89441000I0J-250000D01*
G01*
X160332000Y-90391000D01*
G75*
G02*
X160082000Y-90641000I-250000J0D01*
G01*
X159407000Y-90641000D01*
G75*
G02*
X159157000Y-90391000I0J250000D01*
G01*
G37*
G36*
G01*
X161232000Y-90391000D02*
X161232000Y-89441000D01*
G75*
G02*
X161482000Y-89191000I250000J0D01*
G01*
X162157000Y-89191000D01*
G75*
G02*
X162407000Y-89441000I0J-250000D01*
G01*
X162407000Y-90391000D01*
G75*
G02*
X162157000Y-90641000I-250000J0D01*
G01*
X161482000Y-90641000D01*
G75*
G02*
X161232000Y-90391000I0J250000D01*
G01*
G37*
G36*
G01*
X141377000Y-87851000D02*
X141377000Y-86901000D01*
G75*
G02*
X141627000Y-86651000I250000J0D01*
G01*
X142302000Y-86651000D01*
G75*
G02*
X142552000Y-86901000I0J-250000D01*
G01*
X142552000Y-87851000D01*
G75*
G02*
X142302000Y-88101000I-250000J0D01*
G01*
X141627000Y-88101000D01*
G75*
G02*
X141377000Y-87851000I0J250000D01*
G01*
G37*
G36*
G01*
X143452000Y-87851000D02*
X143452000Y-86901000D01*
G75*
G02*
X143702000Y-86651000I250000J0D01*
G01*
X144377000Y-86651000D01*
G75*
G02*
X144627000Y-86901000I0J-250000D01*
G01*
X144627000Y-87851000D01*
G75*
G02*
X144377000Y-88101000I-250000J0D01*
G01*
X143702000Y-88101000D01*
G75*
G02*
X143452000Y-87851000I0J250000D01*
G01*
G37*
G36*
G01*
X150561000Y-89236999D02*
X150561000Y-90087001D01*
G75*
G02*
X150311001Y-90337000I-249999J0D01*
G01*
X149235999Y-90337000D01*
G75*
G02*
X148986000Y-90087001I0J249999D01*
G01*
X148986000Y-89236999D01*
G75*
G02*
X149235999Y-88987000I249999J0D01*
G01*
X150311001Y-88987000D01*
G75*
G02*
X150561000Y-89236999I0J-249999D01*
G01*
G37*
G36*
G01*
X147686000Y-89236999D02*
X147686000Y-90087001D01*
G75*
G02*
X147436001Y-90337000I-249999J0D01*
G01*
X146360999Y-90337000D01*
G75*
G02*
X146111000Y-90087001I0J249999D01*
G01*
X146111000Y-89236999D01*
G75*
G02*
X146360999Y-88987000I249999J0D01*
G01*
X147436001Y-88987000D01*
G75*
G02*
X147686000Y-89236999I0J-249999D01*
G01*
G37*
D10*
X142052000Y-82526000D03*
X143952000Y-82526000D03*
X143002000Y-79526000D03*
G36*
G01*
X141402000Y-77158001D02*
X141402000Y-76257999D01*
G75*
G02*
X141651999Y-76008000I249999J0D01*
G01*
X142352001Y-76008000D01*
G75*
G02*
X142602000Y-76257999I0J-249999D01*
G01*
X142602000Y-77158001D01*
G75*
G02*
X142352001Y-77408000I-249999J0D01*
G01*
X141651999Y-77408000D01*
G75*
G02*
X141402000Y-77158001I0J249999D01*
G01*
G37*
G36*
G01*
X143402000Y-77158001D02*
X143402000Y-76257999D01*
G75*
G02*
X143651999Y-76008000I249999J0D01*
G01*
X144352001Y-76008000D01*
G75*
G02*
X144602000Y-76257999I0J-249999D01*
G01*
X144602000Y-77158001D01*
G75*
G02*
X144352001Y-77408000I-249999J0D01*
G01*
X143651999Y-77408000D01*
G75*
G02*
X143402000Y-77158001I0J249999D01*
G01*
G37*
G36*
G01*
X157313000Y-87353000D02*
X157313000Y-87653000D01*
G75*
G02*
X157163000Y-87803000I-150000J0D01*
G01*
X155413000Y-87803000D01*
G75*
G02*
X155263000Y-87653000I0J150000D01*
G01*
X155263000Y-87353000D01*
G75*
G02*
X155413000Y-87203000I150000J0D01*
G01*
X157163000Y-87203000D01*
G75*
G02*
X157313000Y-87353000I0J-150000D01*
G01*
G37*
G36*
G01*
X157313000Y-86083000D02*
X157313000Y-86383000D01*
G75*
G02*
X157163000Y-86533000I-150000J0D01*
G01*
X155413000Y-86533000D01*
G75*
G02*
X155263000Y-86383000I0J150000D01*
G01*
X155263000Y-86083000D01*
G75*
G02*
X155413000Y-85933000I150000J0D01*
G01*
X157163000Y-85933000D01*
G75*
G02*
X157313000Y-86083000I0J-150000D01*
G01*
G37*
G36*
G01*
X157313000Y-84813000D02*
X157313000Y-85113000D01*
G75*
G02*
X157163000Y-85263000I-150000J0D01*
G01*
X155413000Y-85263000D01*
G75*
G02*
X155263000Y-85113000I0J150000D01*
G01*
X155263000Y-84813000D01*
G75*
G02*
X155413000Y-84663000I150000J0D01*
G01*
X157163000Y-84663000D01*
G75*
G02*
X157313000Y-84813000I0J-150000D01*
G01*
G37*
G36*
G01*
X157313000Y-83543000D02*
X157313000Y-83843000D01*
G75*
G02*
X157163000Y-83993000I-150000J0D01*
G01*
X155413000Y-83993000D01*
G75*
G02*
X155263000Y-83843000I0J150000D01*
G01*
X155263000Y-83543000D01*
G75*
G02*
X155413000Y-83393000I150000J0D01*
G01*
X157163000Y-83393000D01*
G75*
G02*
X157313000Y-83543000I0J-150000D01*
G01*
G37*
G36*
G01*
X157313000Y-82273000D02*
X157313000Y-82573000D01*
G75*
G02*
X157163000Y-82723000I-150000J0D01*
G01*
X155413000Y-82723000D01*
G75*
G02*
X155263000Y-82573000I0J150000D01*
G01*
X155263000Y-82273000D01*
G75*
G02*
X155413000Y-82123000I150000J0D01*
G01*
X157163000Y-82123000D01*
G75*
G02*
X157313000Y-82273000I0J-150000D01*
G01*
G37*
G36*
G01*
X157313000Y-81003000D02*
X157313000Y-81303000D01*
G75*
G02*
X157163000Y-81453000I-150000J0D01*
G01*
X155413000Y-81453000D01*
G75*
G02*
X155263000Y-81303000I0J150000D01*
G01*
X155263000Y-81003000D01*
G75*
G02*
X155413000Y-80853000I150000J0D01*
G01*
X157163000Y-80853000D01*
G75*
G02*
X157313000Y-81003000I0J-150000D01*
G01*
G37*
G36*
G01*
X157313000Y-79733000D02*
X157313000Y-80033000D01*
G75*
G02*
X157163000Y-80183000I-150000J0D01*
G01*
X155413000Y-80183000D01*
G75*
G02*
X155263000Y-80033000I0J150000D01*
G01*
X155263000Y-79733000D01*
G75*
G02*
X155413000Y-79583000I150000J0D01*
G01*
X157163000Y-79583000D01*
G75*
G02*
X157313000Y-79733000I0J-150000D01*
G01*
G37*
G36*
G01*
X157313000Y-78463000D02*
X157313000Y-78763000D01*
G75*
G02*
X157163000Y-78913000I-150000J0D01*
G01*
X155413000Y-78913000D01*
G75*
G02*
X155263000Y-78763000I0J150000D01*
G01*
X155263000Y-78463000D01*
G75*
G02*
X155413000Y-78313000I150000J0D01*
G01*
X157163000Y-78313000D01*
G75*
G02*
X157313000Y-78463000I0J-150000D01*
G01*
G37*
G36*
G01*
X148013000Y-78463000D02*
X148013000Y-78763000D01*
G75*
G02*
X147863000Y-78913000I-150000J0D01*
G01*
X146113000Y-78913000D01*
G75*
G02*
X145963000Y-78763000I0J150000D01*
G01*
X145963000Y-78463000D01*
G75*
G02*
X146113000Y-78313000I150000J0D01*
G01*
X147863000Y-78313000D01*
G75*
G02*
X148013000Y-78463000I0J-150000D01*
G01*
G37*
G36*
G01*
X148013000Y-79733000D02*
X148013000Y-80033000D01*
G75*
G02*
X147863000Y-80183000I-150000J0D01*
G01*
X146113000Y-80183000D01*
G75*
G02*
X145963000Y-80033000I0J150000D01*
G01*
X145963000Y-79733000D01*
G75*
G02*
X146113000Y-79583000I150000J0D01*
G01*
X147863000Y-79583000D01*
G75*
G02*
X148013000Y-79733000I0J-150000D01*
G01*
G37*
G36*
G01*
X148013000Y-81003000D02*
X148013000Y-81303000D01*
G75*
G02*
X147863000Y-81453000I-150000J0D01*
G01*
X146113000Y-81453000D01*
G75*
G02*
X145963000Y-81303000I0J150000D01*
G01*
X145963000Y-81003000D01*
G75*
G02*
X146113000Y-80853000I150000J0D01*
G01*
X147863000Y-80853000D01*
G75*
G02*
X148013000Y-81003000I0J-150000D01*
G01*
G37*
G36*
G01*
X148013000Y-82273000D02*
X148013000Y-82573000D01*
G75*
G02*
X147863000Y-82723000I-150000J0D01*
G01*
X146113000Y-82723000D01*
G75*
G02*
X145963000Y-82573000I0J150000D01*
G01*
X145963000Y-82273000D01*
G75*
G02*
X146113000Y-82123000I150000J0D01*
G01*
X147863000Y-82123000D01*
G75*
G02*
X148013000Y-82273000I0J-150000D01*
G01*
G37*
G36*
G01*
X148013000Y-83543000D02*
X148013000Y-83843000D01*
G75*
G02*
X147863000Y-83993000I-150000J0D01*
G01*
X146113000Y-83993000D01*
G75*
G02*
X145963000Y-83843000I0J150000D01*
G01*
X145963000Y-83543000D01*
G75*
G02*
X146113000Y-83393000I150000J0D01*
G01*
X147863000Y-83393000D01*
G75*
G02*
X148013000Y-83543000I0J-150000D01*
G01*
G37*
G36*
G01*
X148013000Y-84813000D02*
X148013000Y-85113000D01*
G75*
G02*
X147863000Y-85263000I-150000J0D01*
G01*
X146113000Y-85263000D01*
G75*
G02*
X145963000Y-85113000I0J150000D01*
G01*
X145963000Y-84813000D01*
G75*
G02*
X146113000Y-84663000I150000J0D01*
G01*
X147863000Y-84663000D01*
G75*
G02*
X148013000Y-84813000I0J-150000D01*
G01*
G37*
G36*
G01*
X148013000Y-86083000D02*
X148013000Y-86383000D01*
G75*
G02*
X147863000Y-86533000I-150000J0D01*
G01*
X146113000Y-86533000D01*
G75*
G02*
X145963000Y-86383000I0J150000D01*
G01*
X145963000Y-86083000D01*
G75*
G02*
X146113000Y-85933000I150000J0D01*
G01*
X147863000Y-85933000D01*
G75*
G02*
X148013000Y-86083000I0J-150000D01*
G01*
G37*
G36*
G01*
X148013000Y-87353000D02*
X148013000Y-87653000D01*
G75*
G02*
X147863000Y-87803000I-150000J0D01*
G01*
X146113000Y-87803000D01*
G75*
G02*
X145963000Y-87653000I0J150000D01*
G01*
X145963000Y-87353000D01*
G75*
G02*
X146113000Y-87203000I150000J0D01*
G01*
X147863000Y-87203000D01*
G75*
G02*
X148013000Y-87353000I0J-150000D01*
G01*
G37*
G36*
G01*
X166192000Y-81845999D02*
X166192000Y-82746001D01*
G75*
G02*
X165942001Y-82996000I-249999J0D01*
G01*
X165291999Y-82996000D01*
G75*
G02*
X165042000Y-82746001I0J249999D01*
G01*
X165042000Y-81845999D01*
G75*
G02*
X165291999Y-81596000I249999J0D01*
G01*
X165942001Y-81596000D01*
G75*
G02*
X166192000Y-81845999I0J-249999D01*
G01*
G37*
G36*
G01*
X164142000Y-81845999D02*
X164142000Y-82746001D01*
G75*
G02*
X163892001Y-82996000I-249999J0D01*
G01*
X163241999Y-82996000D01*
G75*
G02*
X162992000Y-82746001I0J249999D01*
G01*
X162992000Y-81845999D01*
G75*
G02*
X163241999Y-81596000I249999J0D01*
G01*
X163892001Y-81596000D01*
G75*
G02*
X164142000Y-81845999I0J-249999D01*
G01*
G37*
G36*
G01*
X164142000Y-84385999D02*
X164142000Y-85286001D01*
G75*
G02*
X163892001Y-85536000I-249999J0D01*
G01*
X163241999Y-85536000D01*
G75*
G02*
X162992000Y-85286001I0J249999D01*
G01*
X162992000Y-84385999D01*
G75*
G02*
X163241999Y-84136000I249999J0D01*
G01*
X163892001Y-84136000D01*
G75*
G02*
X164142000Y-84385999I0J-249999D01*
G01*
G37*
G36*
G01*
X166192000Y-84385999D02*
X166192000Y-85286001D01*
G75*
G02*
X165942001Y-85536000I-249999J0D01*
G01*
X165291999Y-85536000D01*
G75*
G02*
X165042000Y-85286001I0J249999D01*
G01*
X165042000Y-84385999D01*
G75*
G02*
X165291999Y-84136000I249999J0D01*
G01*
X165942001Y-84136000D01*
G75*
G02*
X166192000Y-84385999I0J-249999D01*
G01*
G37*
G36*
G01*
X166192000Y-86925999D02*
X166192000Y-87826001D01*
G75*
G02*
X165942001Y-88076000I-249999J0D01*
G01*
X165291999Y-88076000D01*
G75*
G02*
X165042000Y-87826001I0J249999D01*
G01*
X165042000Y-86925999D01*
G75*
G02*
X165291999Y-86676000I249999J0D01*
G01*
X165942001Y-86676000D01*
G75*
G02*
X166192000Y-86925999I0J-249999D01*
G01*
G37*
G36*
G01*
X164142000Y-86925999D02*
X164142000Y-87826001D01*
G75*
G02*
X163892001Y-88076000I-249999J0D01*
G01*
X163241999Y-88076000D01*
G75*
G02*
X162992000Y-87826001I0J249999D01*
G01*
X162992000Y-86925999D01*
G75*
G02*
X163241999Y-86676000I249999J0D01*
G01*
X163892001Y-86676000D01*
G75*
G02*
X164142000Y-86925999I0J-249999D01*
G01*
G37*
G36*
G01*
X142552000Y-92005999D02*
X142552000Y-92906001D01*
G75*
G02*
X142302001Y-93156000I-249999J0D01*
G01*
X141651999Y-93156000D01*
G75*
G02*
X141402000Y-92906001I0J249999D01*
G01*
X141402000Y-92005999D01*
G75*
G02*
X141651999Y-91756000I249999J0D01*
G01*
X142302001Y-91756000D01*
G75*
G02*
X142552000Y-92005999I0J-249999D01*
G01*
G37*
G36*
G01*
X144602000Y-92005999D02*
X144602000Y-92906001D01*
G75*
G02*
X144352001Y-93156000I-249999J0D01*
G01*
X143701999Y-93156000D01*
G75*
G02*
X143452000Y-92906001I0J249999D01*
G01*
X143452000Y-92005999D01*
G75*
G02*
X143701999Y-91756000I249999J0D01*
G01*
X144352001Y-91756000D01*
G75*
G02*
X144602000Y-92005999I0J-249999D01*
G01*
G37*
G36*
G01*
X159182000Y-82746001D02*
X159182000Y-81845999D01*
G75*
G02*
X159431999Y-81596000I249999J0D01*
G01*
X160132001Y-81596000D01*
G75*
G02*
X160382000Y-81845999I0J-249999D01*
G01*
X160382000Y-82746001D01*
G75*
G02*
X160132001Y-82996000I-249999J0D01*
G01*
X159431999Y-82996000D01*
G75*
G02*
X159182000Y-82746001I0J249999D01*
G01*
G37*
G36*
G01*
X161182000Y-82746001D02*
X161182000Y-81845999D01*
G75*
G02*
X161431999Y-81596000I249999J0D01*
G01*
X162132001Y-81596000D01*
G75*
G02*
X162382000Y-81845999I0J-249999D01*
G01*
X162382000Y-82746001D01*
G75*
G02*
X162132001Y-82996000I-249999J0D01*
G01*
X161431999Y-82996000D01*
G75*
G02*
X161182000Y-82746001I0J249999D01*
G01*
G37*
G36*
G01*
X161182000Y-85286001D02*
X161182000Y-84385999D01*
G75*
G02*
X161431999Y-84136000I249999J0D01*
G01*
X162132001Y-84136000D01*
G75*
G02*
X162382000Y-84385999I0J-249999D01*
G01*
X162382000Y-85286001D01*
G75*
G02*
X162132001Y-85536000I-249999J0D01*
G01*
X161431999Y-85536000D01*
G75*
G02*
X161182000Y-85286001I0J249999D01*
G01*
G37*
G36*
G01*
X159182000Y-85286001D02*
X159182000Y-84385999D01*
G75*
G02*
X159431999Y-84136000I249999J0D01*
G01*
X160132001Y-84136000D01*
G75*
G02*
X160382000Y-84385999I0J-249999D01*
G01*
X160382000Y-85286001D01*
G75*
G02*
X160132001Y-85536000I-249999J0D01*
G01*
X159431999Y-85536000D01*
G75*
G02*
X159182000Y-85286001I0J249999D01*
G01*
G37*
G36*
G01*
X159182000Y-87826001D02*
X159182000Y-86925999D01*
G75*
G02*
X159431999Y-86676000I249999J0D01*
G01*
X160132001Y-86676000D01*
G75*
G02*
X160382000Y-86925999I0J-249999D01*
G01*
X160382000Y-87826001D01*
G75*
G02*
X160132001Y-88076000I-249999J0D01*
G01*
X159431999Y-88076000D01*
G75*
G02*
X159182000Y-87826001I0J249999D01*
G01*
G37*
G36*
G01*
X161182000Y-87826001D02*
X161182000Y-86925999D01*
G75*
G02*
X161431999Y-86676000I249999J0D01*
G01*
X162132001Y-86676000D01*
G75*
G02*
X162382000Y-86925999I0J-249999D01*
G01*
X162382000Y-87826001D01*
G75*
G02*
X162132001Y-88076000I-249999J0D01*
G01*
X161431999Y-88076000D01*
G75*
G02*
X161182000Y-87826001I0J249999D01*
G01*
G37*
G36*
G01*
X142602000Y-89465999D02*
X142602000Y-90366001D01*
G75*
G02*
X142352001Y-90616000I-249999J0D01*
G01*
X141651999Y-90616000D01*
G75*
G02*
X141402000Y-90366001I0J249999D01*
G01*
X141402000Y-89465999D01*
G75*
G02*
X141651999Y-89216000I249999J0D01*
G01*
X142352001Y-89216000D01*
G75*
G02*
X142602000Y-89465999I0J-249999D01*
G01*
G37*
G36*
G01*
X144602000Y-89465999D02*
X144602000Y-90366001D01*
G75*
G02*
X144352001Y-90616000I-249999J0D01*
G01*
X143651999Y-90616000D01*
G75*
G02*
X143402000Y-90366001I0J249999D01*
G01*
X143402000Y-89465999D01*
G75*
G02*
X143651999Y-89216000I249999J0D01*
G01*
X144352001Y-89216000D01*
G75*
G02*
X144602000Y-89465999I0J-249999D01*
G01*
G37*
G36*
G01*
X166217000Y-79281000D02*
X166217000Y-80231000D01*
G75*
G02*
X165967000Y-80481000I-250000J0D01*
G01*
X165292000Y-80481000D01*
G75*
G02*
X165042000Y-80231000I0J250000D01*
G01*
X165042000Y-79281000D01*
G75*
G02*
X165292000Y-79031000I250000J0D01*
G01*
X165967000Y-79031000D01*
G75*
G02*
X166217000Y-79281000I0J-250000D01*
G01*
G37*
G36*
G01*
X164142000Y-79281000D02*
X164142000Y-80231000D01*
G75*
G02*
X163892000Y-80481000I-250000J0D01*
G01*
X163217000Y-80481000D01*
G75*
G02*
X162967000Y-80231000I0J250000D01*
G01*
X162967000Y-79281000D01*
G75*
G02*
X163217000Y-79031000I250000J0D01*
G01*
X163892000Y-79031000D01*
G75*
G02*
X164142000Y-79281000I0J-250000D01*
G01*
G37*
G36*
G01*
X136957000Y-77158001D02*
X136957000Y-76257999D01*
G75*
G02*
X137206999Y-76008000I249999J0D01*
G01*
X137907001Y-76008000D01*
G75*
G02*
X138157000Y-76257999I0J-249999D01*
G01*
X138157000Y-77158001D01*
G75*
G02*
X137907001Y-77408000I-249999J0D01*
G01*
X137206999Y-77408000D01*
G75*
G02*
X136957000Y-77158001I0J249999D01*
G01*
G37*
G36*
G01*
X138957000Y-77158001D02*
X138957000Y-76257999D01*
G75*
G02*
X139206999Y-76008000I249999J0D01*
G01*
X139907001Y-76008000D01*
G75*
G02*
X140157000Y-76257999I0J-249999D01*
G01*
X140157000Y-77158001D01*
G75*
G02*
X139907001Y-77408000I-249999J0D01*
G01*
X139206999Y-77408000D01*
G75*
G02*
X138957000Y-77158001I0J249999D01*
G01*
G37*
G36*
G01*
X138957000Y-85286001D02*
X138957000Y-84385999D01*
G75*
G02*
X139206999Y-84136000I249999J0D01*
G01*
X139907001Y-84136000D01*
G75*
G02*
X140157000Y-84385999I0J-249999D01*
G01*
X140157000Y-85286001D01*
G75*
G02*
X139907001Y-85536000I-249999J0D01*
G01*
X139206999Y-85536000D01*
G75*
G02*
X138957000Y-85286001I0J249999D01*
G01*
G37*
G36*
G01*
X136957000Y-85286001D02*
X136957000Y-84385999D01*
G75*
G02*
X137206999Y-84136000I249999J0D01*
G01*
X137907001Y-84136000D01*
G75*
G02*
X138157000Y-84385999I0J-249999D01*
G01*
X138157000Y-85286001D01*
G75*
G02*
X137907001Y-85536000I-249999J0D01*
G01*
X137206999Y-85536000D01*
G75*
G02*
X136957000Y-85286001I0J249999D01*
G01*
G37*
G36*
G01*
X137020500Y-93731501D02*
X137020500Y-92831499D01*
G75*
G02*
X137270499Y-92581500I249999J0D01*
G01*
X137970501Y-92581500D01*
G75*
G02*
X138220500Y-92831499I0J-249999D01*
G01*
X138220500Y-93731501D01*
G75*
G02*
X137970501Y-93981500I-249999J0D01*
G01*
X137270499Y-93981500D01*
G75*
G02*
X137020500Y-93731501I0J249999D01*
G01*
G37*
G36*
G01*
X139020500Y-93731501D02*
X139020500Y-92831499D01*
G75*
G02*
X139270499Y-92581500I249999J0D01*
G01*
X139970501Y-92581500D01*
G75*
G02*
X140220500Y-92831499I0J-249999D01*
G01*
X140220500Y-93731501D01*
G75*
G02*
X139970501Y-93981500I-249999J0D01*
G01*
X139270499Y-93981500D01*
G75*
G02*
X139020500Y-93731501I0J249999D01*
G01*
G37*
M02*
