G04 #@! TF.GenerationSoftware,KiCad,Pcbnew,5.1.12-84ad8e8a86~92~ubuntu16.04.1*
G04 #@! TF.CreationDate,2022-06-26T12:08:55+02:00*
G04 #@! TF.ProjectId,LedBar,4c656442-6172-42e6-9b69-6361645f7063,rev?*
G04 #@! TF.SameCoordinates,Original*
G04 #@! TF.FileFunction,Profile,NP*
%FSLAX46Y46*%
G04 Gerber Fmt 4.6, Leading zero omitted, Abs format (unit mm)*
G04 Created by KiCad (PCBNEW 5.1.12-84ad8e8a86~92~ubuntu16.04.1) date 2022-06-26 12:08:55*
%MOMM*%
%LPD*%
G01*
G04 APERTURE LIST*
G04 #@! TA.AperFunction,Profile*
%ADD10C,0.050000*%
G04 #@! TD*
G04 APERTURE END LIST*
D10*
X168401999Y-58674001D02*
G75*
G02*
X168401999Y-58927999I-126999J-126999D01*
G01*
X158368999Y-68960999D02*
G75*
G02*
X158115001Y-68960999I-126999J126999D01*
G01*
X168402000Y-58674000D02*
G75*
G02*
X168402000Y-56896000I889000J889000D01*
G01*
X169672000Y-55626000D02*
X168402000Y-56896000D01*
X153670000Y-64516000D02*
X158115000Y-68961000D01*
X158369000Y-68961000D02*
X168402000Y-58928000D01*
X119888000Y-144780000D02*
G75*
G02*
X119380000Y-144272000I0J508000D01*
G01*
X182880000Y-144272000D02*
G75*
G02*
X182372000Y-144780000I-508000J0D01*
G01*
X182372000Y-71120000D02*
G75*
G02*
X182880000Y-71628000I0J-508000D01*
G01*
X182880000Y-68072000D02*
G75*
G02*
X182372000Y-68580000I-508000J0D01*
G01*
X172720000Y-68580000D02*
G75*
G02*
X172212000Y-68072000I0J508000D01*
G01*
X182372000Y-45466000D02*
G75*
G02*
X182880000Y-45974000I0J-508000D01*
G01*
X172212000Y-45974000D02*
G75*
G02*
X172720000Y-45466000I508000J0D01*
G01*
X151130000Y-68072000D02*
G75*
G02*
X150622000Y-68580000I-508000J0D01*
G01*
X150622000Y-45466000D02*
G75*
G02*
X151130000Y-45974000I0J-508000D01*
G01*
X132588000Y-45974000D02*
G75*
G02*
X133096000Y-45466000I508000J0D01*
G01*
X133096000Y-68580000D02*
G75*
G02*
X132588000Y-68072000I0J508000D01*
G01*
X130048000Y-68072000D02*
G75*
G02*
X129540000Y-68580000I-508000J0D01*
G01*
X129540000Y-45466000D02*
G75*
G02*
X130048000Y-45974000I0J-508000D01*
G01*
X119380000Y-45974000D02*
G75*
G02*
X119888000Y-45466000I508000J0D01*
G01*
X119380000Y-71628000D02*
G75*
G02*
X119888000Y-71120000I508000J0D01*
G01*
X119888000Y-68580000D02*
G75*
G02*
X119380000Y-68072000I0J508000D01*
G01*
X182245000Y-71120000D02*
X182372000Y-71120000D01*
X173355000Y-68580000D02*
X172720000Y-68580000D01*
X182245000Y-68580000D02*
X182372000Y-68580000D01*
X172212000Y-56769000D02*
X172212000Y-68072000D01*
X182880000Y-45974000D02*
X182880000Y-68072000D01*
X172720000Y-45466000D02*
X182372000Y-45466000D01*
X172212000Y-47879000D02*
X172212000Y-45974000D01*
X120269000Y-71120000D02*
X119888000Y-71120000D01*
X119888000Y-68580000D02*
X120269000Y-68580000D01*
X153670000Y-47879000D02*
X153670000Y-55626000D01*
X151130000Y-45974000D02*
X151130000Y-55626000D01*
X132588000Y-52451000D02*
X132588000Y-45974000D01*
X146304000Y-68580000D02*
X150622000Y-68580000D01*
X133096000Y-68580000D02*
X137414000Y-68580000D01*
X132588000Y-61341000D02*
X132588000Y-68072000D01*
X129159000Y-71120000D02*
X137414000Y-71120000D01*
X130048000Y-61341000D02*
X130048000Y-68072000D01*
X130048000Y-45974000D02*
X130048000Y-52451000D01*
X129159000Y-68580000D02*
X129540000Y-68580000D01*
X146304000Y-71120000D02*
X173355000Y-71120000D01*
X119380000Y-68072000D02*
X119380000Y-45974000D01*
X151130000Y-64516000D02*
X151130000Y-68072000D01*
X133096000Y-45466000D02*
X150622000Y-45466000D01*
X119888000Y-45466000D02*
X129540000Y-45466000D01*
X119380000Y-144272000D02*
X119380000Y-71628000D01*
X182372000Y-144780000D02*
X119888000Y-144780000D01*
X182880000Y-71628000D02*
X182880000Y-144272000D01*
X150610000Y-109728000D02*
X150610000Y-100076000D01*
X151650000Y-109728000D02*
X151650000Y-100076000D01*
X151650000Y-109728000D02*
G75*
G02*
X150610000Y-109728000I-520000J0D01*
G01*
X150610000Y-100076000D02*
G75*
G02*
X151650000Y-100076000I520000J0D01*
G01*
X169418000Y-47879000D02*
X168370000Y-47879000D01*
X154718000Y-47879000D02*
X153670000Y-47879000D01*
X156718000Y-45466000D02*
X166370000Y-45466000D01*
X166370000Y-45466000D02*
X166370000Y-47879000D01*
X156718000Y-47879000D02*
X156718000Y-45466000D01*
X154718000Y-47879000D02*
G75*
G03*
X156718000Y-47879000I1000000J0D01*
G01*
X166370000Y-47879000D02*
G75*
G03*
X168370000Y-47879000I1000000J0D01*
G01*
X120684000Y-71120000D02*
X120269000Y-71120000D01*
X120684000Y-68580000D02*
X120269000Y-68580000D01*
X128744000Y-68580000D02*
X129159000Y-68580000D01*
X128744000Y-71120000D02*
X129159000Y-71120000D01*
X128744000Y-71120000D02*
G75*
G02*
X128744000Y-68580000I0J1270000D01*
G01*
X120684000Y-68580000D02*
G75*
G02*
X120684000Y-71120000I0J-1270000D01*
G01*
X132588000Y-60926000D02*
X132588000Y-61341000D01*
X130048000Y-60926000D02*
X130048000Y-61341000D01*
X130048000Y-52866000D02*
X130048000Y-52451000D01*
X132588000Y-52866000D02*
X132588000Y-52451000D01*
X132588000Y-52866000D02*
G75*
G02*
X130048000Y-52866000I-1270000J0D01*
G01*
X130048000Y-60926000D02*
G75*
G02*
X132588000Y-60926000I1270000J0D01*
G01*
X145889000Y-71120000D02*
X146304000Y-71120000D01*
X145889000Y-68580000D02*
X146304000Y-68580000D01*
X137829000Y-68580000D02*
X137414000Y-68580000D01*
X137829000Y-71120000D02*
X137414000Y-71120000D01*
X137829000Y-68580000D02*
G75*
G02*
X137829000Y-71120000I0J-1270000D01*
G01*
X145889000Y-71120000D02*
G75*
G02*
X145889000Y-68580000I0J1270000D01*
G01*
X153670000Y-64101000D02*
X153670000Y-64516000D01*
X151130000Y-64101000D02*
X151130000Y-64516000D01*
X151130000Y-56041000D02*
X151130000Y-55626000D01*
X153670000Y-56041000D02*
X153670000Y-55626000D01*
X153670000Y-56041000D02*
G75*
G02*
X151130000Y-56041000I-1270000J0D01*
G01*
X151130000Y-64101000D02*
G75*
G02*
X153670000Y-64101000I1270000J0D01*
G01*
X172212000Y-56354000D02*
X172212000Y-56769000D01*
X169418000Y-48294000D02*
X169418000Y-47879000D01*
X172212000Y-48294000D02*
X172212000Y-47879000D01*
X170688000Y-49564000D02*
X170942000Y-49564000D01*
X170942000Y-55084000D02*
X170747826Y-55084000D01*
X169849800Y-55455974D02*
X169672000Y-55626000D01*
X169849800Y-55455974D02*
G75*
G02*
X170747826Y-55084000I898026J-898026D01*
G01*
X170688000Y-49564000D02*
G75*
G02*
X169418000Y-48294000I0J1270000D01*
G01*
X172212000Y-48294000D02*
G75*
G02*
X170942000Y-49564000I-1270000J0D01*
G01*
X170942000Y-55084000D02*
G75*
G02*
X172212000Y-56354000I0J-1270000D01*
G01*
X181830000Y-71120000D02*
X182245000Y-71120000D01*
X181830000Y-68580000D02*
X182245000Y-68580000D01*
X173770000Y-68580000D02*
X173355000Y-68580000D01*
X173770000Y-71120000D02*
X173355000Y-71120000D01*
X173770000Y-68580000D02*
G75*
G02*
X173770000Y-71120000I0J-1270000D01*
G01*
X181830000Y-71120000D02*
G75*
G02*
X181830000Y-68580000I0J1270000D01*
G01*
M02*
