G04 #@! TF.GenerationSoftware,KiCad,Pcbnew,5.1.12-84ad8e8a86~92~ubuntu16.04.1*
G04 #@! TF.CreationDate,2022-06-26T12:08:55+02:00*
G04 #@! TF.ProjectId,LedBar,4c656442-6172-42e6-9b69-6361645f7063,rev?*
G04 #@! TF.SameCoordinates,Original*
G04 #@! TF.FileFunction,Soldermask,Top*
G04 #@! TF.FilePolarity,Negative*
%FSLAX46Y46*%
G04 Gerber Fmt 4.6, Leading zero omitted, Abs format (unit mm)*
G04 Created by KiCad (PCBNEW 5.1.12-84ad8e8a86~92~ubuntu16.04.1) date 2022-06-26 12:08:55*
%MOMM*%
%LPD*%
G01*
G04 APERTURE LIST*
%ADD10C,10.200000*%
%ADD11R,5.100000X2.500000*%
%ADD12R,1.350000X1.350000*%
%ADD13O,1.350000X1.350000*%
%ADD14C,1.000000*%
%ADD15C,1.800000*%
%ADD16R,1.800000X1.800000*%
%ADD17O,1.600000X1.600000*%
%ADD18R,1.600000X1.600000*%
%ADD19C,4.300000*%
%ADD20C,2.000000*%
%ADD21R,2.000000X2.000000*%
%ADD22O,1.700000X1.700000*%
%ADD23R,1.700000X1.700000*%
%ADD24R,1.500000X1.500000*%
%ADD25C,1.500000*%
%ADD26C,3.000000*%
%ADD27C,3.200000*%
%ADD28C,2.800000*%
%ADD29R,2.032000X1.070000*%
%ADD30R,1.000000X1.000000*%
%ADD31O,1.000000X1.000000*%
%ADD32R,1.070000X4.413000*%
%ADD33C,0.100000*%
%ADD34O,4.050000X1.400000*%
%ADD35R,4.050000X1.400000*%
%ADD36R,4.050000X1.500000*%
%ADD37O,4.050000X1.500000*%
%ADD38C,0.800000*%
G04 APERTURE END LIST*
D10*
X176000000Y-88420000D03*
D11*
X176000000Y-80820000D03*
X176000000Y-96020000D03*
D12*
X140859000Y-59276000D03*
D13*
X142859000Y-59276000D03*
X140859000Y-57276000D03*
X142859000Y-57276000D03*
X140859000Y-55276000D03*
X142859000Y-55276000D03*
X140859000Y-53276000D03*
X142859000Y-53276000D03*
X140859000Y-51276000D03*
X142859000Y-51276000D03*
X140859000Y-49276000D03*
X142859000Y-49276000D03*
D12*
X175260000Y-51689000D03*
D13*
X175260000Y-53689000D03*
X175260000Y-55689000D03*
X175260000Y-57689000D03*
X175260000Y-59689000D03*
D12*
X127000000Y-59816000D03*
D13*
X127000000Y-57816000D03*
X127000000Y-55816000D03*
X127000000Y-53816000D03*
X127000000Y-51816000D03*
D14*
X170312000Y-79883000D03*
X172212000Y-79883000D03*
D15*
X168910000Y-77470000D03*
D16*
X168910000Y-74930000D03*
D17*
X156210000Y-80899000D03*
X166370000Y-88519000D03*
X158750000Y-80899000D03*
X163830000Y-88519000D03*
X161290000Y-80899000D03*
X161290000Y-88519000D03*
X163830000Y-80899000D03*
X158750000Y-88519000D03*
X166370000Y-80899000D03*
D18*
X156210000Y-88519000D03*
D19*
X124460000Y-139700000D03*
X177800000Y-139700000D03*
D15*
X133350000Y-77470000D03*
D16*
X133350000Y-74930000D03*
D20*
X140260000Y-78450000D03*
X140260000Y-73950000D03*
X146760000Y-78450000D03*
X146760000Y-73950000D03*
D15*
X153670000Y-77470000D03*
D16*
X153670000Y-74930000D03*
D15*
X158750000Y-77470000D03*
D16*
X158750000Y-74930000D03*
D15*
X163830000Y-77470000D03*
D16*
X163830000Y-74930000D03*
D20*
X138430000Y-104728000D03*
D21*
X138430000Y-109728000D03*
D20*
X163830000Y-104728000D03*
D21*
X163830000Y-109728000D03*
D19*
X124460000Y-76200000D03*
D22*
X175260000Y-110490000D03*
X175260000Y-107950000D03*
X175260000Y-105410000D03*
X175260000Y-102870000D03*
D23*
X175260000Y-100330000D03*
D22*
X127000000Y-100330000D03*
X127000000Y-102870000D03*
X127000000Y-105410000D03*
X127000000Y-107950000D03*
D23*
X127000000Y-110490000D03*
D24*
X141605000Y-87413000D03*
X141605000Y-95213000D03*
D25*
X135074000Y-83566000D03*
X139954000Y-83566000D03*
D26*
X155956000Y-118110000D03*
X178556000Y-118110000D03*
D19*
X177800000Y-76200000D03*
D27*
X127000000Y-65196000D03*
X141859000Y-65151000D03*
X175260000Y-65196000D03*
D28*
X165100000Y-139700000D03*
X168910000Y-139700000D03*
X132700000Y-139700000D03*
X136200000Y-139700000D03*
X139700000Y-139700000D03*
D29*
X152654000Y-108712000D03*
X149606000Y-108712000D03*
X152654000Y-107188000D03*
X149606000Y-107188000D03*
X152654000Y-105664000D03*
X149606000Y-105664000D03*
X152654000Y-104140000D03*
X149606000Y-104140000D03*
X152654000Y-102616000D03*
X149606000Y-102616000D03*
X152654000Y-101092000D03*
X149606000Y-101092000D03*
D28*
X147630000Y-139700000D03*
X151130000Y-139700000D03*
D30*
X122301000Y-92837000D03*
D31*
X122301000Y-91567000D03*
X122301000Y-90297000D03*
X122301000Y-89027000D03*
X122301000Y-87757000D03*
X122301000Y-86487000D03*
D32*
X165354000Y-47672500D03*
X163830000Y-47672500D03*
X162306000Y-47672500D03*
X160782000Y-47672500D03*
X159258000Y-47672500D03*
X157734000Y-47672500D03*
D33*
G36*
X167481398Y-59777602D02*
G01*
X166420738Y-60838262D01*
X164299418Y-58716942D01*
X165360078Y-57656282D01*
X167481398Y-59777602D01*
G37*
G36*
X166067184Y-61191816D02*
G01*
X165006524Y-62252476D01*
X162885204Y-60131156D01*
X163945864Y-59070496D01*
X166067184Y-61191816D01*
G37*
G36*
X164652971Y-62606029D02*
G01*
X163592311Y-63666689D01*
X161470991Y-61545369D01*
X162531651Y-60484709D01*
X164652971Y-62606029D01*
G37*
G36*
X163238757Y-64020243D02*
G01*
X162178097Y-65080903D01*
X160056777Y-62959583D01*
X161117437Y-61898923D01*
X163238757Y-64020243D01*
G37*
G36*
X161824543Y-65434456D02*
G01*
X160763883Y-66495116D01*
X158642563Y-64373796D01*
X159703223Y-63313136D01*
X161824543Y-65434456D01*
G37*
G36*
X160410330Y-66848670D02*
G01*
X159349670Y-67909330D01*
X157228350Y-65788010D01*
X158289010Y-64727350D01*
X160410330Y-66848670D01*
G37*
D34*
X121920000Y-60802000D03*
X121920000Y-64802000D03*
X121920000Y-62802000D03*
D35*
X121920000Y-66802000D03*
D34*
X121920000Y-58802000D03*
D36*
X121920000Y-54752000D03*
D37*
X121920000Y-52422000D03*
X121920000Y-50082000D03*
X121920000Y-47752000D03*
D34*
X135128000Y-58802000D03*
D35*
X135128000Y-66802000D03*
D34*
X135128000Y-62802000D03*
X135128000Y-64802000D03*
X135128000Y-60802000D03*
X148590000Y-58802000D03*
X148590000Y-60802000D03*
X148590000Y-62802000D03*
X148590000Y-64802000D03*
D35*
X148590000Y-66802000D03*
D37*
X135128000Y-47752000D03*
X135128000Y-50082000D03*
X135128000Y-52422000D03*
D36*
X135128000Y-54752000D03*
X148590000Y-54752000D03*
D37*
X148590000Y-52422000D03*
X148590000Y-50082000D03*
X148590000Y-47752000D03*
D35*
X180340000Y-66802000D03*
D34*
X180340000Y-64802000D03*
X180340000Y-62802000D03*
X180340000Y-60802000D03*
X180340000Y-58802000D03*
D37*
X180340000Y-47752000D03*
X180340000Y-50082000D03*
X180340000Y-52422000D03*
D36*
X180340000Y-54752000D03*
D38*
X124714000Y-68980000D03*
X126914000Y-68980000D03*
X123614000Y-68980000D03*
X122514000Y-68980000D03*
X125814000Y-68980000D03*
X126914000Y-70720000D03*
X125814000Y-70720000D03*
X122514000Y-70720000D03*
X123614000Y-70720000D03*
X124714000Y-70720000D03*
X130448000Y-56896000D03*
X130448000Y-54696000D03*
X130448000Y-57996000D03*
X130448000Y-59096000D03*
X130448000Y-55796000D03*
X132188000Y-54696000D03*
X132188000Y-55796000D03*
X132188000Y-59096000D03*
X132188000Y-57996000D03*
X132188000Y-56896000D03*
X141859000Y-70720000D03*
X140759000Y-70720000D03*
X139659000Y-70720000D03*
X142959000Y-70720000D03*
X144059000Y-70720000D03*
X142959000Y-68980000D03*
X139659000Y-68980000D03*
X140759000Y-68980000D03*
X144059000Y-68980000D03*
X141859000Y-68980000D03*
X151530000Y-60071000D03*
X151530000Y-57871000D03*
X151530000Y-61171000D03*
X151530000Y-62271000D03*
X151530000Y-58971000D03*
X153270000Y-57871000D03*
X153270000Y-58971000D03*
X153270000Y-62271000D03*
X153270000Y-61171000D03*
X153270000Y-60071000D03*
X169818000Y-52324000D03*
X169818000Y-50124000D03*
X169818000Y-53424000D03*
X169818000Y-54524000D03*
X169818000Y-51224000D03*
X171812000Y-50124000D03*
X171812000Y-51224000D03*
X171812000Y-54524000D03*
X171812000Y-53424000D03*
X171812000Y-52324000D03*
X177800000Y-70720000D03*
X176700000Y-70720000D03*
X175600000Y-70720000D03*
X178900000Y-70720000D03*
X180000000Y-70720000D03*
X178900000Y-68980000D03*
X175600000Y-68980000D03*
X176700000Y-68980000D03*
X180000000Y-68980000D03*
X177800000Y-68980000D03*
D20*
X127508000Y-120396000D03*
X130048000Y-120396000D03*
X132588000Y-120396000D03*
X135128000Y-120396000D03*
M02*
