M48
; DRILL file {KiCad 5.1.12-84ad8e8a86~92~ubuntu16.04.1} date zo 26 jun 2022 12:10:22 CEST
; FORMAT={-:-/ absolute / metric / decimal}
; #@! TF.CreationDate,2022-06-26T12:10:22+02:00
; #@! TF.GenerationSoftware,Kicad,Pcbnew,5.1.12-84ad8e8a86~92~ubuntu16.04.1
; #@! TF.FileFunction,Plated,1,2,PTH
FMAT,2
METRIC
T1C0.400
T2C0.500
T3C0.700
T4C0.800
T5C0.900
T6C1.000
T7C1.100
T8C1.300
T9C1.500
%
G90
G05
T1
X120.904Y-72.644
X120.904Y-83.82
X120.904Y-97.028
X120.904Y-107.442
X120.904Y-118.11
X120.904Y-120.142
X120.904Y-129.413
X120.904Y-143.256
X121.268Y-95.14
X123.19Y-81.28
X123.571Y-124.841
X124.25Y-92.329
X124.3Y-98.239
X124.994Y-97.519
X125.349Y-89.662
X126.111Y-134.366
X126.15Y-98.468
X126.492Y-92.71
X126.746Y-81.915
X128.488Y-90.12
X129.54Y-86.36
X129.54Y-126.873
X129.921Y-83.693
X130.493Y-82.296
X131.24Y-91.618
X131.293Y-93.018
X131.318Y-143.256
X131.445Y-80.01
X131.572Y-72.644
X131.649Y-87.317
X131.972Y-118.872
X132.08Y-125.095
X132.207Y-131.191
X132.662Y-92.22
X132.715Y-96.647
X133.066Y-87.881
X133.096Y-135.128
X133.159Y-101.409
X133.159Y-105.093
X133.159Y-108.775
X133.159Y-112.459
X134.391Y-87.32
X134.462Y-92.307
X135.445Y-126.873
X135.965Y-89.413
X136.001Y-91.725
X136.383Y-92.649
X136.402Y-90.809
X136.705Y-84.487
X136.8Y-101.6
X136.8Y-103.638
X136.906Y-87.376
X136.964Y-89.446
X137.287Y-80.01
X137.482Y-96.813
X137.795Y-86.36
X139.417Y-85.979
X139.914Y-102.728
X139.954Y-94.854
X140.314Y-101.047
X140.616Y-118.041
X140.716Y-125.222
X140.97Y-133.096
X140.97Y-134.62
X141.224Y-90.627
X141.605Y-143.256
X141.986Y-72.644
X142.705Y-86.296
X143.51Y-87.466
X143.637Y-143.256
X143.764Y-121.666
X143.954Y-99.504
X143.954Y-103.188
X143.954Y-106.87
X143.954Y-110.553
X144.272Y-84.455
X145.034Y-94.854
X145.034Y-137.287
X145.923Y-131.445
X146.05Y-116.84
X146.558Y-118.237
X146.812Y-81.407
X147.13Y-126.111
X148.844Y-86.36
X148.844Y-90.17
X149.987Y-80.391
X149.987Y-81.791
X149.987Y-84.591
X149.987Y-85.991
X150.008Y-83.191
X150.368Y-121.412
X150.622Y-129.667
X151.257Y-72.644
X151.387Y-91.754
X151.701Y-95.377
X153.416Y-97.536
X153.987Y-93.218
X154.432Y-126.492
X154.686Y-115.824
X154.94Y-143.256
X156.464Y-95.758
X156.718Y-132.969
X157.48Y-98.933
X157.607Y-121.539
X157.924Y-96.075
X158.305Y-101.409
X158.305Y-105.093
X158.305Y-108.775
X158.305Y-112.459
X158.75Y-130.429
X158.75Y-135.636
X158.877Y-125.095
X159.766Y-117.348
X160.782Y-132.969
X161.798Y-72.644
X161.862Y-102.679
X162.052Y-118.872
X162.306Y-134.62
X162.56Y-121.412
X162.687Y-93.472
X162.771Y-101.54
X163.557Y-98.127
X164.453Y-102.136
X164.846Y-143.256
X164.973Y-122.936
X165.46Y-101.117
X165.862Y-96.075
X165.989Y-94.225
X167.035Y-95.15
X167.615Y-91.542
X167.788Y-120.671
X168.91Y-86.868
X169.1Y-99.504
X169.1Y-103.188
X169.1Y-106.87
X169.1Y-109.347
X169.113Y-91.491
X170.688Y-113.538
X171.323Y-82.042
X171.45Y-95.758
X171.475Y-93.878
X172.466Y-116.078
X172.466Y-132.842
X172.593Y-124.968
X172.72Y-72.644
X174.053Y-94.02
X174.117Y-143.256
X174.498Y-131.064
X176.149Y-123.571
X176.16Y-97.87
X177.571Y-94.107
X178.971Y-93.853
X179.019Y-83.261
X179.324Y-81.02
X180.884Y-85.476
X181.356Y-72.644
X181.356Y-99.187
X181.356Y-112.522
X181.356Y-127.381
X181.356Y-143.256
X181.8Y-86.931
T2
X149.606Y-101.092
X149.606Y-102.616
X149.606Y-104.14
X149.606Y-105.664
X149.606Y-107.188
X149.606Y-108.712
X152.654Y-101.092
X152.654Y-102.616
X152.654Y-104.14
X152.654Y-105.664
X152.654Y-107.188
X152.654Y-108.712
X170.312Y-79.883
X172.212Y-79.883
T3
X122.301Y-86.487
X122.301Y-87.757
X122.301Y-89.027
X122.301Y-90.297
X122.301Y-91.567
X122.301Y-92.837
T4
X127.0Y-51.816
X127.0Y-53.816
X127.0Y-55.816
X127.0Y-57.816
X127.0Y-59.816
X135.074Y-83.566
X139.954Y-83.566
X140.859Y-49.276
X140.859Y-51.276
X140.859Y-53.276
X140.859Y-55.276
X140.859Y-57.276
X140.859Y-59.276
X142.859Y-49.276
X142.859Y-51.276
X142.859Y-53.276
X142.859Y-55.276
X142.859Y-57.276
X142.859Y-59.276
X156.21Y-80.899
X156.21Y-88.519
X158.75Y-80.899
X158.75Y-88.519
X161.29Y-80.899
X161.29Y-88.519
X163.83Y-80.899
X163.83Y-88.519
X166.37Y-80.899
X166.37Y-88.519
X175.26Y-51.689
X175.26Y-53.689
X175.26Y-55.689
X175.26Y-57.689
X175.26Y-59.689
T5
X133.35Y-74.93
X133.35Y-77.47
X153.67Y-74.93
X153.67Y-77.47
X158.75Y-74.93
X158.75Y-77.47
X163.83Y-74.93
X163.83Y-77.47
X168.91Y-74.93
X168.91Y-77.47
T6
X121.92Y-47.752
X121.92Y-50.082
X121.92Y-52.422
X121.92Y-54.752
X121.92Y-58.802
X121.92Y-60.802
X121.92Y-62.802
X121.92Y-64.802
X121.92Y-66.802
X127.0Y-100.33
X127.0Y-102.87
X127.0Y-105.41
X127.0Y-107.95
X127.0Y-110.49
X127.508Y-120.396
X130.048Y-120.396
X132.588Y-120.396
X135.128Y-47.752
X135.128Y-50.082
X135.128Y-52.422
X135.128Y-54.752
X135.128Y-58.802
X135.128Y-60.802
X135.128Y-62.802
X135.128Y-64.802
X135.128Y-66.802
X135.128Y-120.396
X138.43Y-104.728
X138.43Y-109.728
X148.59Y-47.752
X148.59Y-50.082
X148.59Y-52.422
X148.59Y-54.752
X148.59Y-58.802
X148.59Y-60.802
X148.59Y-62.802
X148.59Y-64.802
X148.59Y-66.802
X163.83Y-104.728
X163.83Y-109.728
X175.26Y-100.33
X175.26Y-102.87
X175.26Y-105.41
X175.26Y-107.95
X175.26Y-110.49
X180.34Y-47.752
X180.34Y-50.082
X180.34Y-52.422
X180.34Y-54.752
X180.34Y-58.802
X180.34Y-60.802
X180.34Y-62.802
X180.34Y-64.802
X180.34Y-66.802
T7
X140.26Y-73.95
X140.26Y-78.45
X146.76Y-73.95
X146.76Y-78.45
T8
X132.7Y-139.7
X136.2Y-139.7
X139.7Y-139.7
X147.63Y-139.7
X151.13Y-139.7
X165.1Y-139.7
X168.91Y-139.7
T9
X155.956Y-118.11
X178.556Y-118.11
T0
M30
