%FSLAX45Y45*%
G04 Gerber Fmt 4.5, Leading zero omitted, Abs format (unit mm)*
G04 Created by KiCad (PCBNEW 5.1.12-84ad8e8a86~92~ubuntu16.04.1) date 2022-06-26 12:10:51*
%MOMM*%
%LPD*%
G01*
G04 APERTURE LIST*
%TA.AperFunction,Profile*%
%ADD10C,0.050000*%
%TD*%
%ADD11C,0.200000*%
%ADD12C,0.300000*%
G04 APERTURE END LIST*
D10*
X16840200Y-5867400D02*
G75*
G02*
X16840200Y-5892800I-12700J-12700D01*
G01*
X15836900Y-6896100D02*
G75*
G02*
X15811500Y-6896100I-12700J12700D01*
G01*
X16840200Y-5867400D02*
G75*
G02*
X16840200Y-5689600I88900J88900D01*
G01*
X16967200Y-5562600D02*
X16840200Y-5689600D01*
X15367000Y-6451600D02*
X15811500Y-6896100D01*
X15836900Y-6896100D02*
X16840200Y-5892800D01*
X11988800Y-14478000D02*
G75*
G02*
X11938000Y-14427200I0J50800D01*
G01*
X18288000Y-14427200D02*
G75*
G02*
X18237200Y-14478000I-50800J0D01*
G01*
X18237200Y-7112000D02*
G75*
G02*
X18288000Y-7162800I0J-50800D01*
G01*
X18288000Y-6807200D02*
G75*
G02*
X18237200Y-6858000I-50800J0D01*
G01*
X17272000Y-6858000D02*
G75*
G02*
X17221200Y-6807200I0J50800D01*
G01*
X18237200Y-4546600D02*
G75*
G02*
X18288000Y-4597400I0J-50800D01*
G01*
X17221200Y-4597400D02*
G75*
G02*
X17272000Y-4546600I50800J0D01*
G01*
X15113000Y-6807200D02*
G75*
G02*
X15062200Y-6858000I-50800J0D01*
G01*
X15062200Y-4546600D02*
G75*
G02*
X15113000Y-4597400I0J-50800D01*
G01*
X13258800Y-4597400D02*
G75*
G02*
X13309600Y-4546600I50800J0D01*
G01*
X13309600Y-6858000D02*
G75*
G02*
X13258800Y-6807200I0J50800D01*
G01*
X13004800Y-6807200D02*
G75*
G02*
X12954000Y-6858000I-50800J0D01*
G01*
X12954000Y-4546600D02*
G75*
G02*
X13004800Y-4597400I0J-50800D01*
G01*
X11938000Y-4597400D02*
G75*
G02*
X11988800Y-4546600I50800J0D01*
G01*
X11938000Y-7162800D02*
G75*
G02*
X11988800Y-7112000I50800J0D01*
G01*
X11988800Y-6858000D02*
G75*
G02*
X11938000Y-6807200I0J50800D01*
G01*
X18224500Y-7112000D02*
X18237200Y-7112000D01*
X17335500Y-6858000D02*
X17272000Y-6858000D01*
X18224500Y-6858000D02*
X18237200Y-6858000D01*
X17221200Y-5676900D02*
X17221200Y-6807200D01*
X18288000Y-4597400D02*
X18288000Y-6807200D01*
X17272000Y-4546600D02*
X18237200Y-4546600D01*
X17221200Y-4787900D02*
X17221200Y-4597400D01*
X12026900Y-7112000D02*
X11988800Y-7112000D01*
X11988800Y-6858000D02*
X12026900Y-6858000D01*
X15367000Y-4787900D02*
X15367000Y-5562600D01*
X15113000Y-4597400D02*
X15113000Y-5562600D01*
X13258800Y-5245100D02*
X13258800Y-4597400D01*
X14630400Y-6858000D02*
X15062200Y-6858000D01*
X13309600Y-6858000D02*
X13741400Y-6858000D01*
X13258800Y-6134100D02*
X13258800Y-6807200D01*
X12915900Y-7112000D02*
X13741400Y-7112000D01*
X13004800Y-6134100D02*
X13004800Y-6807200D01*
X13004800Y-4597400D02*
X13004800Y-5245100D01*
X12915900Y-6858000D02*
X12954000Y-6858000D01*
X14630400Y-7112000D02*
X17335500Y-7112000D01*
X11938000Y-6807200D02*
X11938000Y-4597400D01*
X15113000Y-6451600D02*
X15113000Y-6807200D01*
X13309600Y-4546600D02*
X15062200Y-4546600D01*
X11988800Y-4546600D02*
X12954000Y-4546600D01*
X11938000Y-14427200D02*
X11938000Y-7162800D01*
X18237200Y-14478000D02*
X11988800Y-14478000D01*
X18288000Y-7162800D02*
X18288000Y-14427200D01*
D11*
X12070400Y-7244400D02*
X12110400Y-7284400D01*
X12110400Y-7244400D02*
X12070400Y-7284400D01*
X12070400Y-8362000D02*
X12110400Y-8402000D01*
X12110400Y-8362000D02*
X12070400Y-8402000D01*
X12070400Y-9682800D02*
X12110400Y-9722800D01*
X12110400Y-9682800D02*
X12070400Y-9722800D01*
X12070400Y-10724200D02*
X12110400Y-10764200D01*
X12110400Y-10724200D02*
X12070400Y-10764200D01*
X12070400Y-11791000D02*
X12110400Y-11831000D01*
X12110400Y-11791000D02*
X12070400Y-11831000D01*
X12070400Y-11994200D02*
X12110400Y-12034200D01*
X12110400Y-11994200D02*
X12070400Y-12034200D01*
X12070400Y-12921300D02*
X12110400Y-12961300D01*
X12110400Y-12921300D02*
X12070400Y-12961300D01*
X12070400Y-14305600D02*
X12110400Y-14345600D01*
X12110400Y-14305600D02*
X12070400Y-14345600D01*
X12106764Y-9494036D02*
X12146764Y-9534036D01*
X12146764Y-9494036D02*
X12106764Y-9534036D01*
X12299000Y-8108000D02*
X12339000Y-8148000D01*
X12339000Y-8108000D02*
X12299000Y-8148000D01*
X12337100Y-12464100D02*
X12377100Y-12504100D01*
X12377100Y-12464100D02*
X12337100Y-12504100D01*
X12404997Y-9212900D02*
X12444997Y-9252900D01*
X12444997Y-9212900D02*
X12404997Y-9252900D01*
X12409995Y-9803910D02*
X12449995Y-9843910D01*
X12449995Y-9803910D02*
X12409995Y-9843910D01*
X12479402Y-9731919D02*
X12519402Y-9771919D01*
X12519402Y-9731919D02*
X12479402Y-9771919D01*
X12514900Y-8946200D02*
X12554900Y-8986200D01*
X12554900Y-8946200D02*
X12514900Y-8986200D01*
X12591100Y-13416600D02*
X12631100Y-13456600D01*
X12631100Y-13416600D02*
X12591100Y-13456600D01*
X12594996Y-9826802D02*
X12634996Y-9866802D01*
X12634996Y-9826802D02*
X12594996Y-9866802D01*
X12629200Y-9251000D02*
X12669200Y-9291000D01*
X12669200Y-9251000D02*
X12629200Y-9291000D01*
X12654600Y-8171500D02*
X12694600Y-8211500D01*
X12694600Y-8171500D02*
X12654600Y-8211500D01*
X12828796Y-8992041D02*
X12868796Y-9032041D01*
X12868796Y-8992041D02*
X12828796Y-9032041D01*
X12934000Y-8616000D02*
X12974000Y-8656000D01*
X12974000Y-8616000D02*
X12934000Y-8656000D01*
X12934000Y-12667300D02*
X12974000Y-12707300D01*
X12974000Y-12667300D02*
X12934000Y-12707300D01*
X12972100Y-8349300D02*
X13012100Y-8389300D01*
X13012100Y-8349300D02*
X12972100Y-8389300D01*
X13029250Y-8209600D02*
X13069250Y-8249600D01*
X13069250Y-8209600D02*
X13029250Y-8249600D01*
X13104045Y-9141808D02*
X13144045Y-9181808D01*
X13144045Y-9141808D02*
X13104045Y-9181808D01*
X13109272Y-9281808D02*
X13149272Y-9321808D01*
X13149272Y-9281808D02*
X13109272Y-9321808D01*
X13111800Y-14305600D02*
X13151800Y-14345600D01*
X13151800Y-14305600D02*
X13111800Y-14345600D01*
X13124500Y-7981000D02*
X13164500Y-8021000D01*
X13164500Y-7981000D02*
X13124500Y-8021000D01*
X13137200Y-7244400D02*
X13177200Y-7284400D01*
X13177200Y-7244400D02*
X13137200Y-7284400D01*
X13144917Y-8711677D02*
X13184917Y-8751677D01*
X13184917Y-8711677D02*
X13144917Y-8751677D01*
X13177210Y-11867200D02*
X13217210Y-11907200D01*
X13217210Y-11867200D02*
X13177210Y-11907200D01*
X13188000Y-12489500D02*
X13228000Y-12529500D01*
X13228000Y-12489500D02*
X13188000Y-12529500D01*
X13200700Y-13099100D02*
X13240700Y-13139100D01*
X13240700Y-13099100D02*
X13200700Y-13139100D01*
X13246200Y-9201999D02*
X13286200Y-9241999D01*
X13286200Y-9201999D02*
X13246200Y-9241999D01*
X13251500Y-9644700D02*
X13291500Y-9684700D01*
X13291500Y-9644700D02*
X13251500Y-9684700D01*
X13286623Y-8768085D02*
X13326623Y-8808085D01*
X13326623Y-8768085D02*
X13286623Y-8808085D01*
X13289600Y-13492800D02*
X13329600Y-13532800D01*
X13329600Y-13492800D02*
X13289600Y-13532800D01*
X13295950Y-10120950D02*
X13335950Y-10160950D01*
X13335950Y-10120950D02*
X13295950Y-10160950D01*
X13295950Y-10489250D02*
X13335950Y-10529250D01*
X13335950Y-10489250D02*
X13295950Y-10529250D01*
X13295950Y-10857550D02*
X13335950Y-10897550D01*
X13335950Y-10857550D02*
X13295950Y-10897550D01*
X13295950Y-11225850D02*
X13335950Y-11265850D01*
X13335950Y-11225850D02*
X13295950Y-11265850D01*
X13419140Y-8712000D02*
X13459140Y-8752000D01*
X13459140Y-8712000D02*
X13419140Y-8752000D01*
X13426201Y-9210743D02*
X13466201Y-9250743D01*
X13466201Y-9210743D02*
X13426201Y-9250743D01*
X13524550Y-12667300D02*
X13564550Y-12707300D01*
X13564550Y-12667300D02*
X13524550Y-12707300D01*
X13576453Y-8921309D02*
X13616453Y-8961309D01*
X13616453Y-8921309D02*
X13576453Y-8961309D01*
X13580123Y-9152500D02*
X13620123Y-9192500D01*
X13620123Y-9152500D02*
X13580123Y-9192500D01*
X13618280Y-9244934D02*
X13658280Y-9284934D01*
X13658280Y-9244934D02*
X13618280Y-9284934D01*
X13620234Y-9060897D02*
X13660234Y-9100897D01*
X13660234Y-9060897D02*
X13620234Y-9100897D01*
X13650539Y-8428666D02*
X13690539Y-8468666D01*
X13690539Y-8428666D02*
X13650539Y-8468666D01*
X13660000Y-10140000D02*
X13700000Y-10180000D01*
X13700000Y-10140000D02*
X13660000Y-10180000D01*
X13660000Y-10343848D02*
X13700000Y-10383848D01*
X13700000Y-10343848D02*
X13660000Y-10383848D01*
X13670600Y-8717600D02*
X13710600Y-8757600D01*
X13710600Y-8717600D02*
X13670600Y-8757600D01*
X13676398Y-8924633D02*
X13716398Y-8964633D01*
X13716398Y-8924633D02*
X13676398Y-8964633D01*
X13708700Y-7981000D02*
X13748700Y-8021000D01*
X13748700Y-7981000D02*
X13708700Y-8021000D01*
X13728208Y-9661267D02*
X13768208Y-9701267D01*
X13768208Y-9661267D02*
X13728208Y-9701267D01*
X13759500Y-8616000D02*
X13799500Y-8656000D01*
X13799500Y-8616000D02*
X13759500Y-8656000D01*
X13921727Y-8577900D02*
X13961727Y-8617900D01*
X13961727Y-8577900D02*
X13921727Y-8617900D01*
X13971399Y-10252778D02*
X14011399Y-10292778D01*
X14011399Y-10252778D02*
X13971399Y-10292778D01*
X13975400Y-9465442D02*
X14015400Y-9505442D01*
X14015400Y-9465442D02*
X13975400Y-9505442D01*
X14011400Y-10084660D02*
X14051400Y-10124660D01*
X14051400Y-10084660D02*
X14011400Y-10124660D01*
X14041578Y-11784146D02*
X14081578Y-11824146D01*
X14081578Y-11784146D02*
X14041578Y-11824146D01*
X14051600Y-12502200D02*
X14091600Y-12542200D01*
X14091600Y-12502200D02*
X14051600Y-12542200D01*
X14077000Y-13289600D02*
X14117000Y-13329600D01*
X14117000Y-13289600D02*
X14077000Y-13329600D01*
X14077000Y-13442000D02*
X14117000Y-13482000D01*
X14117000Y-13442000D02*
X14077000Y-13482000D01*
X14102400Y-9042720D02*
X14142400Y-9082720D01*
X14142400Y-9042720D02*
X14102400Y-9082720D01*
X14140500Y-14305600D02*
X14180500Y-14345600D01*
X14180500Y-14305600D02*
X14140500Y-14345600D01*
X14178600Y-7244400D02*
X14218600Y-7284400D01*
X14218600Y-7244400D02*
X14178600Y-7284400D01*
X14250500Y-8609650D02*
X14290500Y-8649650D01*
X14290500Y-8609650D02*
X14250500Y-8649650D01*
X14331000Y-8726600D02*
X14371000Y-8766600D01*
X14371000Y-8726600D02*
X14331000Y-8766600D01*
X14343700Y-14305600D02*
X14383700Y-14345600D01*
X14383700Y-14305600D02*
X14343700Y-14345600D01*
X14356400Y-12146600D02*
X14396400Y-12186600D01*
X14396400Y-12146600D02*
X14356400Y-12186600D01*
X14375450Y-9930450D02*
X14415450Y-9970450D01*
X14415450Y-9930450D02*
X14375450Y-9970450D01*
X14375450Y-10298750D02*
X14415450Y-10338750D01*
X14415450Y-10298750D02*
X14375450Y-10338750D01*
X14375450Y-10667050D02*
X14415450Y-10707050D01*
X14415450Y-10667050D02*
X14375450Y-10707050D01*
X14375450Y-11035350D02*
X14415450Y-11075350D01*
X14415450Y-11035350D02*
X14375450Y-11075350D01*
X14407200Y-8425500D02*
X14447200Y-8465500D01*
X14447200Y-8425500D02*
X14407200Y-8465500D01*
X14483400Y-9465442D02*
X14523400Y-9505442D01*
X14523400Y-9465442D02*
X14483400Y-9505442D01*
X14483400Y-13708700D02*
X14523400Y-13748700D01*
X14523400Y-13708700D02*
X14483400Y-13748700D01*
X14572300Y-13124500D02*
X14612300Y-13164500D01*
X14612300Y-13124500D02*
X14572300Y-13164500D01*
X14585000Y-11664000D02*
X14625000Y-11704000D01*
X14625000Y-11664000D02*
X14585000Y-11704000D01*
X14635800Y-11803700D02*
X14675800Y-11843700D01*
X14675800Y-11803700D02*
X14635800Y-11843700D01*
X14661200Y-8120700D02*
X14701200Y-8160700D01*
X14701200Y-8120700D02*
X14661200Y-8160700D01*
X14692950Y-12591100D02*
X14732950Y-12631100D01*
X14732950Y-12591100D02*
X14692950Y-12631100D01*
X14864400Y-8616000D02*
X14904400Y-8656000D01*
X14904400Y-8616000D02*
X14864400Y-8656000D01*
X14864400Y-8997000D02*
X14904400Y-9037000D01*
X14904400Y-8997000D02*
X14864400Y-9037000D01*
X14978700Y-8019100D02*
X15018700Y-8059100D01*
X15018700Y-8019100D02*
X14978700Y-8059100D01*
X14978700Y-8159100D02*
X15018700Y-8199100D01*
X15018700Y-8159100D02*
X14978700Y-8199100D01*
X14978700Y-8439100D02*
X15018700Y-8479100D01*
X15018700Y-8439100D02*
X14978700Y-8479100D01*
X14978700Y-8579100D02*
X15018700Y-8619100D01*
X15018700Y-8579100D02*
X14978700Y-8619100D01*
X14980786Y-8299100D02*
X15020786Y-8339100D01*
X15020786Y-8299100D02*
X14980786Y-8339100D01*
X15016800Y-12121200D02*
X15056800Y-12161200D01*
X15056800Y-12121200D02*
X15016800Y-12161200D01*
X15042200Y-12946700D02*
X15082200Y-12986700D01*
X15082200Y-12946700D02*
X15042200Y-12986700D01*
X15105700Y-7244400D02*
X15145700Y-7284400D01*
X15145700Y-7244400D02*
X15105700Y-7284400D01*
X15118747Y-9155438D02*
X15158747Y-9195438D01*
X15158747Y-9155438D02*
X15118747Y-9195438D01*
X15150150Y-9517700D02*
X15190150Y-9557700D01*
X15190150Y-9517700D02*
X15150150Y-9557700D01*
X15321600Y-9733600D02*
X15361600Y-9773600D01*
X15361600Y-9733600D02*
X15321600Y-9773600D01*
X15378750Y-9301800D02*
X15418750Y-9341800D01*
X15418750Y-9301800D02*
X15378750Y-9341800D01*
X15423200Y-12629200D02*
X15463200Y-12669200D01*
X15463200Y-12629200D02*
X15423200Y-12669200D01*
X15448600Y-11562400D02*
X15488600Y-11602400D01*
X15488600Y-11562400D02*
X15448600Y-11602400D01*
X15474000Y-14305600D02*
X15514000Y-14345600D01*
X15514000Y-14305600D02*
X15474000Y-14345600D01*
X15626400Y-9555800D02*
X15666400Y-9595800D01*
X15666400Y-9555800D02*
X15626400Y-9595800D01*
X15651800Y-13276900D02*
X15691800Y-13316900D01*
X15691800Y-13276900D02*
X15651800Y-13316900D01*
X15728000Y-9873300D02*
X15768000Y-9913300D01*
X15768000Y-9873300D02*
X15728000Y-9913300D01*
X15740700Y-12133900D02*
X15780700Y-12173900D01*
X15780700Y-12133900D02*
X15740700Y-12173900D01*
X15772450Y-9587550D02*
X15812450Y-9627550D01*
X15812450Y-9587550D02*
X15772450Y-9627550D01*
X15810550Y-10120950D02*
X15850550Y-10160950D01*
X15850550Y-10120950D02*
X15810550Y-10160950D01*
X15810550Y-10489250D02*
X15850550Y-10529250D01*
X15850550Y-10489250D02*
X15810550Y-10529250D01*
X15810550Y-10857550D02*
X15850550Y-10897550D01*
X15850550Y-10857550D02*
X15810550Y-10897550D01*
X15810550Y-11225850D02*
X15850550Y-11265850D01*
X15850550Y-11225850D02*
X15810550Y-11265850D01*
X15855000Y-13022900D02*
X15895000Y-13062900D01*
X15895000Y-13022900D02*
X15855000Y-13062900D01*
X15855000Y-13543600D02*
X15895000Y-13583600D01*
X15895000Y-13543600D02*
X15855000Y-13583600D01*
X15867700Y-12489500D02*
X15907700Y-12529500D01*
X15907700Y-12489500D02*
X15867700Y-12529500D01*
X15956600Y-11714800D02*
X15996600Y-11754800D01*
X15996600Y-11714800D02*
X15956600Y-11754800D01*
X16058200Y-13276900D02*
X16098200Y-13316900D01*
X16098200Y-13276900D02*
X16058200Y-13316900D01*
X16159800Y-7244400D02*
X16199800Y-7284400D01*
X16199800Y-7244400D02*
X16159800Y-7284400D01*
X16166150Y-10247950D02*
X16206150Y-10287950D01*
X16206150Y-10247950D02*
X16166150Y-10287950D01*
X16185200Y-11867200D02*
X16225200Y-11907200D01*
X16225200Y-11867200D02*
X16185200Y-11907200D01*
X16210600Y-13442000D02*
X16250600Y-13482000D01*
X16250600Y-13442000D02*
X16210600Y-13482000D01*
X16236000Y-12121200D02*
X16276000Y-12161200D01*
X16276000Y-12121200D02*
X16236000Y-12161200D01*
X16248700Y-9327200D02*
X16288700Y-9367200D01*
X16288700Y-9327200D02*
X16248700Y-9367200D01*
X16257100Y-10133952D02*
X16297100Y-10173952D01*
X16297100Y-10133952D02*
X16257100Y-10173952D01*
X16335663Y-9792687D02*
X16375663Y-9832687D01*
X16375663Y-9792687D02*
X16335663Y-9832687D01*
X16425252Y-10193566D02*
X16465252Y-10233566D01*
X16465252Y-10193566D02*
X16425252Y-10233566D01*
X16464600Y-14305600D02*
X16504600Y-14345600D01*
X16504600Y-14305600D02*
X16464600Y-14345600D01*
X16477300Y-12273600D02*
X16517300Y-12313600D01*
X16517300Y-12273600D02*
X16477300Y-12313600D01*
X16526000Y-10091719D02*
X16566000Y-10131719D01*
X16566000Y-10091719D02*
X16526000Y-10131719D01*
X16566200Y-9587550D02*
X16606200Y-9627550D01*
X16606200Y-9587550D02*
X16566200Y-9627550D01*
X16578900Y-9402549D02*
X16618900Y-9442549D01*
X16618900Y-9402549D02*
X16578900Y-9442549D01*
X16683509Y-9495028D02*
X16723509Y-9535028D01*
X16723509Y-9495028D02*
X16683509Y-9535028D01*
X16741460Y-9134160D02*
X16781460Y-9174160D01*
X16781460Y-9134160D02*
X16741460Y-9174160D01*
X16758838Y-12047138D02*
X16798838Y-12087138D01*
X16798838Y-12047138D02*
X16758838Y-12087138D01*
X16871000Y-8666800D02*
X16911000Y-8706800D01*
X16911000Y-8666800D02*
X16871000Y-8706800D01*
X16890050Y-9930450D02*
X16930050Y-9970450D01*
X16930050Y-9930450D02*
X16890050Y-9970450D01*
X16890050Y-10298750D02*
X16930050Y-10338750D01*
X16930050Y-10298750D02*
X16890050Y-10338750D01*
X16890050Y-10667050D02*
X16930050Y-10707050D01*
X16930050Y-10667050D02*
X16890050Y-10707050D01*
X16890050Y-10914700D02*
X16930050Y-10954700D01*
X16930050Y-10914700D02*
X16890050Y-10954700D01*
X16891320Y-9129080D02*
X16931320Y-9169080D01*
X16931320Y-9129080D02*
X16891320Y-9169080D01*
X17048800Y-11333800D02*
X17088800Y-11373800D01*
X17088800Y-11333800D02*
X17048800Y-11373800D01*
X17112300Y-8184200D02*
X17152300Y-8224200D01*
X17152300Y-8184200D02*
X17112300Y-8224200D01*
X17125000Y-9555800D02*
X17165000Y-9595800D01*
X17165000Y-9555800D02*
X17125000Y-9595800D01*
X17127540Y-9367840D02*
X17167540Y-9407840D01*
X17167540Y-9367840D02*
X17127540Y-9407840D01*
X17226600Y-11587800D02*
X17266600Y-11627800D01*
X17266600Y-11587800D02*
X17226600Y-11627800D01*
X17226600Y-13264200D02*
X17266600Y-13304200D01*
X17266600Y-13264200D02*
X17226600Y-13304200D01*
X17239300Y-12476800D02*
X17279300Y-12516800D01*
X17279300Y-12476800D02*
X17239300Y-12516800D01*
X17252000Y-7244400D02*
X17292000Y-7284400D01*
X17292000Y-7244400D02*
X17252000Y-7284400D01*
X17385350Y-9382000D02*
X17425350Y-9422000D01*
X17425350Y-9382000D02*
X17385350Y-9422000D01*
X17391700Y-14305600D02*
X17431700Y-14345600D01*
X17431700Y-14305600D02*
X17391700Y-14345600D01*
X17429800Y-13086400D02*
X17469800Y-13126400D01*
X17469800Y-13086400D02*
X17429800Y-13126400D01*
X17594900Y-12337100D02*
X17634900Y-12377100D01*
X17634900Y-12337100D02*
X17594900Y-12377100D01*
X17596001Y-9767000D02*
X17636001Y-9807000D01*
X17636001Y-9767000D02*
X17596001Y-9807000D01*
X17737140Y-9390700D02*
X17777140Y-9430700D01*
X17777140Y-9390700D02*
X17737140Y-9430700D01*
X17877140Y-9365300D02*
X17917140Y-9405300D01*
X17917140Y-9365300D02*
X17877140Y-9405300D01*
X17881920Y-8306120D02*
X17921920Y-8346120D01*
X17921920Y-8306120D02*
X17881920Y-8346120D01*
X17912400Y-8081999D02*
X17952400Y-8121999D01*
X17952400Y-8081999D02*
X17912400Y-8121999D01*
X18068356Y-8527608D02*
X18108356Y-8567608D01*
X18108356Y-8527608D02*
X18068356Y-8567608D01*
X18115600Y-7244400D02*
X18155600Y-7284400D01*
X18155600Y-7244400D02*
X18115600Y-7284400D01*
X18115600Y-9898700D02*
X18155600Y-9938700D01*
X18155600Y-9898700D02*
X18115600Y-9938700D01*
X18115600Y-11232200D02*
X18155600Y-11272200D01*
X18155600Y-11232200D02*
X18115600Y-11272200D01*
X18115600Y-12718100D02*
X18155600Y-12758100D01*
X18155600Y-12718100D02*
X18115600Y-12758100D01*
X18115600Y-14305600D02*
X18155600Y-14345600D01*
X18155600Y-14305600D02*
X18115600Y-14345600D01*
X18160050Y-8673150D02*
X18200050Y-8713150D01*
X18200050Y-8673150D02*
X18160050Y-8713150D01*
X14985600Y-10109200D02*
G75*
G03*
X14985600Y-10109200I-25000J0D01*
G01*
X14985600Y-10261600D02*
G75*
G03*
X14985600Y-10261600I-25000J0D01*
G01*
X14985600Y-10414000D02*
G75*
G03*
X14985600Y-10414000I-25000J0D01*
G01*
X14985600Y-10566400D02*
G75*
G03*
X14985600Y-10566400I-25000J0D01*
G01*
X14985600Y-10718800D02*
G75*
G03*
X14985600Y-10718800I-25000J0D01*
G01*
X14985600Y-10871200D02*
G75*
G03*
X14985600Y-10871200I-25000J0D01*
G01*
X15290400Y-10109200D02*
G75*
G03*
X15290400Y-10109200I-25000J0D01*
G01*
X15290400Y-10261600D02*
G75*
G03*
X15290400Y-10261600I-25000J0D01*
G01*
X15290400Y-10414000D02*
G75*
G03*
X15290400Y-10414000I-25000J0D01*
G01*
X15290400Y-10566400D02*
G75*
G03*
X15290400Y-10566400I-25000J0D01*
G01*
X15290400Y-10718800D02*
G75*
G03*
X15290400Y-10718800I-25000J0D01*
G01*
X15290400Y-10871200D02*
G75*
G03*
X15290400Y-10871200I-25000J0D01*
G01*
X17056200Y-7988300D02*
G75*
G03*
X17056200Y-7988300I-25000J0D01*
G01*
X17246200Y-7988300D02*
G75*
G03*
X17246200Y-7988300I-25000J0D01*
G01*
X12230100Y-8613700D02*
X12230100Y-8683700D01*
X12195100Y-8648700D02*
X12265100Y-8648700D01*
X12230100Y-8740700D02*
X12230100Y-8810700D01*
X12195100Y-8775700D02*
X12265100Y-8775700D01*
X12230100Y-8867700D02*
X12230100Y-8937700D01*
X12195100Y-8902700D02*
X12265100Y-8902700D01*
X12230100Y-8994700D02*
X12230100Y-9064700D01*
X12195100Y-9029700D02*
X12265100Y-9029700D01*
X12230100Y-9121700D02*
X12230100Y-9191700D01*
X12195100Y-9156700D02*
X12265100Y-9156700D01*
X12230100Y-9248700D02*
X12230100Y-9318700D01*
X12195100Y-9283700D02*
X12265100Y-9283700D01*
X12728284Y-5209885D02*
X12728284Y-5153316D01*
X12671715Y-5153316D01*
X12671715Y-5209885D01*
X12728284Y-5209885D01*
X12728284Y-5409885D02*
X12728284Y-5353316D01*
X12671715Y-5353316D01*
X12671715Y-5409885D01*
X12728284Y-5409885D01*
X12728284Y-5609884D02*
X12728284Y-5553316D01*
X12671715Y-5553316D01*
X12671715Y-5609884D01*
X12728284Y-5609884D01*
X12728284Y-5809884D02*
X12728284Y-5753315D01*
X12671715Y-5753315D01*
X12671715Y-5809884D01*
X12728284Y-5809884D01*
X12728284Y-6009884D02*
X12728284Y-5953315D01*
X12671715Y-5953315D01*
X12671715Y-6009884D01*
X12728284Y-6009884D01*
X13535684Y-8384884D02*
X13535684Y-8328315D01*
X13479115Y-8328315D01*
X13479115Y-8384884D01*
X13535684Y-8384884D01*
X14023684Y-8384884D02*
X14023684Y-8328315D01*
X13967115Y-8328315D01*
X13967115Y-8384884D01*
X14023684Y-8384884D01*
X14114184Y-4955885D02*
X14114184Y-4899316D01*
X14057615Y-4899316D01*
X14057615Y-4955885D01*
X14114184Y-4955885D01*
X14114184Y-5155885D02*
X14114184Y-5099316D01*
X14057615Y-5099316D01*
X14057615Y-5155885D01*
X14114184Y-5155885D01*
X14114184Y-5355885D02*
X14114184Y-5299316D01*
X14057615Y-5299316D01*
X14057615Y-5355885D01*
X14114184Y-5355885D01*
X14114184Y-5555885D02*
X14114184Y-5499316D01*
X14057615Y-5499316D01*
X14057615Y-5555885D01*
X14114184Y-5555885D01*
X14114184Y-5755884D02*
X14114184Y-5699315D01*
X14057615Y-5699315D01*
X14057615Y-5755884D01*
X14114184Y-5755884D01*
X14114184Y-5955884D02*
X14114184Y-5899315D01*
X14057615Y-5899315D01*
X14057615Y-5955884D01*
X14114184Y-5955884D01*
X14314184Y-4955885D02*
X14314184Y-4899316D01*
X14257615Y-4899316D01*
X14257615Y-4955885D01*
X14314184Y-4955885D01*
X14314184Y-5155885D02*
X14314184Y-5099316D01*
X14257615Y-5099316D01*
X14257615Y-5155885D01*
X14314184Y-5155885D01*
X14314184Y-5355885D02*
X14314184Y-5299316D01*
X14257615Y-5299316D01*
X14257615Y-5355885D01*
X14314184Y-5355885D01*
X14314184Y-5555885D02*
X14314184Y-5499316D01*
X14257615Y-5499316D01*
X14257615Y-5555885D01*
X14314184Y-5555885D01*
X14314184Y-5755884D02*
X14314184Y-5699315D01*
X14257615Y-5699315D01*
X14257615Y-5755884D01*
X14314184Y-5755884D01*
X14314184Y-5955884D02*
X14314184Y-5899315D01*
X14257615Y-5899315D01*
X14257615Y-5955884D01*
X14314184Y-5955884D01*
X15649284Y-8118184D02*
X15649284Y-8061615D01*
X15592715Y-8061615D01*
X15592715Y-8118184D01*
X15649284Y-8118184D01*
X15649284Y-8880185D02*
X15649284Y-8823616D01*
X15592715Y-8823616D01*
X15592715Y-8880185D01*
X15649284Y-8880185D01*
X15903284Y-8118184D02*
X15903284Y-8061615D01*
X15846715Y-8061615D01*
X15846715Y-8118184D01*
X15903284Y-8118184D01*
X15903284Y-8880185D02*
X15903284Y-8823616D01*
X15846715Y-8823616D01*
X15846715Y-8880185D01*
X15903284Y-8880185D01*
X16157284Y-8118184D02*
X16157284Y-8061615D01*
X16100715Y-8061615D01*
X16100715Y-8118184D01*
X16157284Y-8118184D01*
X16157284Y-8880185D02*
X16157284Y-8823616D01*
X16100715Y-8823616D01*
X16100715Y-8880185D01*
X16157284Y-8880185D01*
X16411284Y-8118184D02*
X16411284Y-8061615D01*
X16354715Y-8061615D01*
X16354715Y-8118184D01*
X16411284Y-8118184D01*
X16411284Y-8880185D02*
X16411284Y-8823616D01*
X16354715Y-8823616D01*
X16354715Y-8880185D01*
X16411284Y-8880185D01*
X16665284Y-8118184D02*
X16665284Y-8061615D01*
X16608715Y-8061615D01*
X16608715Y-8118184D01*
X16665284Y-8118184D01*
X16665284Y-8880185D02*
X16665284Y-8823616D01*
X16608715Y-8823616D01*
X16608715Y-8880185D01*
X16665284Y-8880185D01*
X17554285Y-5197185D02*
X17554285Y-5140616D01*
X17497716Y-5140616D01*
X17497716Y-5197185D01*
X17554285Y-5197185D01*
X17554285Y-5397185D02*
X17554285Y-5340616D01*
X17497716Y-5340616D01*
X17497716Y-5397185D01*
X17554285Y-5397185D01*
X17554285Y-5597184D02*
X17554285Y-5540616D01*
X17497716Y-5540616D01*
X17497716Y-5597184D01*
X17554285Y-5597184D01*
X17554285Y-5797184D02*
X17554285Y-5740615D01*
X17497716Y-5740615D01*
X17497716Y-5797184D01*
X17554285Y-5797184D01*
X17554285Y-5997184D02*
X17554285Y-5940615D01*
X17497716Y-5940615D01*
X17497716Y-5997184D01*
X17554285Y-5997184D01*
X13335000Y-7538000D02*
X13380000Y-7493000D01*
X13335000Y-7448000D01*
X13290000Y-7493000D01*
X13335000Y-7538000D01*
X13335000Y-7792000D02*
X13380000Y-7747000D01*
X13335000Y-7702000D01*
X13290000Y-7747000D01*
X13335000Y-7792000D01*
X15367000Y-7538000D02*
X15412000Y-7493000D01*
X15367000Y-7448000D01*
X15322000Y-7493000D01*
X15367000Y-7538000D01*
X15367000Y-7792000D02*
X15412000Y-7747000D01*
X15367000Y-7702000D01*
X15322000Y-7747000D01*
X15367000Y-7792000D01*
X15875000Y-7538000D02*
X15920000Y-7493000D01*
X15875000Y-7448000D01*
X15830000Y-7493000D01*
X15875000Y-7538000D01*
X15875000Y-7792000D02*
X15920000Y-7747000D01*
X15875000Y-7702000D01*
X15830000Y-7747000D01*
X15875000Y-7792000D01*
X16383000Y-7538000D02*
X16428000Y-7493000D01*
X16383000Y-7448000D01*
X16338000Y-7493000D01*
X16383000Y-7538000D01*
X16383000Y-7792000D02*
X16428000Y-7747000D01*
X16383000Y-7702000D01*
X16338000Y-7747000D01*
X16383000Y-7792000D01*
X16891000Y-7538000D02*
X16936000Y-7493000D01*
X16891000Y-7448000D01*
X16846000Y-7493000D01*
X16891000Y-7538000D01*
X16891000Y-7792000D02*
X16936000Y-7747000D01*
X16891000Y-7702000D01*
X16846000Y-7747000D01*
X16891000Y-7792000D01*
X12142000Y-4725200D02*
X12242000Y-4825200D01*
X12242000Y-4725200D02*
X12142000Y-4825200D01*
X12242000Y-4775200D02*
G75*
G03*
X12242000Y-4775200I-50000J0D01*
G01*
X12142000Y-4958200D02*
X12242000Y-5058200D01*
X12242000Y-4958200D02*
X12142000Y-5058200D01*
X12242000Y-5008200D02*
G75*
G03*
X12242000Y-5008200I-50000J0D01*
G01*
X12142000Y-5192200D02*
X12242000Y-5292200D01*
X12242000Y-5192200D02*
X12142000Y-5292200D01*
X12242000Y-5242200D02*
G75*
G03*
X12242000Y-5242200I-50000J0D01*
G01*
X12142000Y-5425200D02*
X12242000Y-5525200D01*
X12242000Y-5425200D02*
X12142000Y-5525200D01*
X12242000Y-5475200D02*
G75*
G03*
X12242000Y-5475200I-50000J0D01*
G01*
X12142000Y-5830200D02*
X12242000Y-5930200D01*
X12242000Y-5830200D02*
X12142000Y-5930200D01*
X12242000Y-5880200D02*
G75*
G03*
X12242000Y-5880200I-50000J0D01*
G01*
X12142000Y-6030200D02*
X12242000Y-6130200D01*
X12242000Y-6030200D02*
X12142000Y-6130200D01*
X12242000Y-6080200D02*
G75*
G03*
X12242000Y-6080200I-50000J0D01*
G01*
X12142000Y-6230200D02*
X12242000Y-6330200D01*
X12242000Y-6230200D02*
X12142000Y-6330200D01*
X12242000Y-6280200D02*
G75*
G03*
X12242000Y-6280200I-50000J0D01*
G01*
X12142000Y-6430200D02*
X12242000Y-6530200D01*
X12242000Y-6430200D02*
X12142000Y-6530200D01*
X12242000Y-6480200D02*
G75*
G03*
X12242000Y-6480200I-50000J0D01*
G01*
X12142000Y-6630200D02*
X12242000Y-6730200D01*
X12242000Y-6630200D02*
X12142000Y-6730200D01*
X12242000Y-6680200D02*
G75*
G03*
X12242000Y-6680200I-50000J0D01*
G01*
X12650000Y-9983000D02*
X12750000Y-10083000D01*
X12750000Y-9983000D02*
X12650000Y-10083000D01*
X12750000Y-10033000D02*
G75*
G03*
X12750000Y-10033000I-50000J0D01*
G01*
X12650000Y-10237000D02*
X12750000Y-10337000D01*
X12750000Y-10237000D02*
X12650000Y-10337000D01*
X12750000Y-10287000D02*
G75*
G03*
X12750000Y-10287000I-50000J0D01*
G01*
X12650000Y-10491000D02*
X12750000Y-10591000D01*
X12750000Y-10491000D02*
X12650000Y-10591000D01*
X12750000Y-10541000D02*
G75*
G03*
X12750000Y-10541000I-50000J0D01*
G01*
X12650000Y-10745000D02*
X12750000Y-10845000D01*
X12750000Y-10745000D02*
X12650000Y-10845000D01*
X12750000Y-10795000D02*
G75*
G03*
X12750000Y-10795000I-50000J0D01*
G01*
X12650000Y-10999000D02*
X12750000Y-11099000D01*
X12750000Y-10999000D02*
X12650000Y-11099000D01*
X12750000Y-11049000D02*
G75*
G03*
X12750000Y-11049000I-50000J0D01*
G01*
X12700800Y-11989600D02*
X12800800Y-12089600D01*
X12800800Y-11989600D02*
X12700800Y-12089600D01*
X12800800Y-12039600D02*
G75*
G03*
X12800800Y-12039600I-50000J0D01*
G01*
X12954800Y-11989600D02*
X13054800Y-12089600D01*
X13054800Y-11989600D02*
X12954800Y-12089600D01*
X13054800Y-12039600D02*
G75*
G03*
X13054800Y-12039600I-50000J0D01*
G01*
X13208800Y-11989600D02*
X13308800Y-12089600D01*
X13308800Y-11989600D02*
X13208800Y-12089600D01*
X13308800Y-12039600D02*
G75*
G03*
X13308800Y-12039600I-50000J0D01*
G01*
X13462800Y-4725200D02*
X13562800Y-4825200D01*
X13562800Y-4725200D02*
X13462800Y-4825200D01*
X13562800Y-4775200D02*
G75*
G03*
X13562800Y-4775200I-50000J0D01*
G01*
X13462800Y-4958200D02*
X13562800Y-5058200D01*
X13562800Y-4958200D02*
X13462800Y-5058200D01*
X13562800Y-5008200D02*
G75*
G03*
X13562800Y-5008200I-50000J0D01*
G01*
X13462800Y-5192200D02*
X13562800Y-5292200D01*
X13562800Y-5192200D02*
X13462800Y-5292200D01*
X13562800Y-5242200D02*
G75*
G03*
X13562800Y-5242200I-50000J0D01*
G01*
X13462800Y-5425200D02*
X13562800Y-5525200D01*
X13562800Y-5425200D02*
X13462800Y-5525200D01*
X13562800Y-5475200D02*
G75*
G03*
X13562800Y-5475200I-50000J0D01*
G01*
X13462800Y-5830200D02*
X13562800Y-5930200D01*
X13562800Y-5830200D02*
X13462800Y-5930200D01*
X13562800Y-5880200D02*
G75*
G03*
X13562800Y-5880200I-50000J0D01*
G01*
X13462800Y-6030200D02*
X13562800Y-6130200D01*
X13562800Y-6030200D02*
X13462800Y-6130200D01*
X13562800Y-6080200D02*
G75*
G03*
X13562800Y-6080200I-50000J0D01*
G01*
X13462800Y-6230200D02*
X13562800Y-6330200D01*
X13562800Y-6230200D02*
X13462800Y-6330200D01*
X13562800Y-6280200D02*
G75*
G03*
X13562800Y-6280200I-50000J0D01*
G01*
X13462800Y-6430200D02*
X13562800Y-6530200D01*
X13562800Y-6430200D02*
X13462800Y-6530200D01*
X13562800Y-6480200D02*
G75*
G03*
X13562800Y-6480200I-50000J0D01*
G01*
X13462800Y-6630200D02*
X13562800Y-6730200D01*
X13562800Y-6630200D02*
X13462800Y-6730200D01*
X13562800Y-6680200D02*
G75*
G03*
X13562800Y-6680200I-50000J0D01*
G01*
X13462800Y-11989600D02*
X13562800Y-12089600D01*
X13562800Y-11989600D02*
X13462800Y-12089600D01*
X13562800Y-12039600D02*
G75*
G03*
X13562800Y-12039600I-50000J0D01*
G01*
X13793000Y-10422800D02*
X13893000Y-10522800D01*
X13893000Y-10422800D02*
X13793000Y-10522800D01*
X13893000Y-10472800D02*
G75*
G03*
X13893000Y-10472800I-50000J0D01*
G01*
X13793000Y-10922800D02*
X13893000Y-11022800D01*
X13893000Y-10922800D02*
X13793000Y-11022800D01*
X13893000Y-10972800D02*
G75*
G03*
X13893000Y-10972800I-50000J0D01*
G01*
X14809000Y-4725200D02*
X14909000Y-4825200D01*
X14909000Y-4725200D02*
X14809000Y-4825200D01*
X14909000Y-4775200D02*
G75*
G03*
X14909000Y-4775200I-50000J0D01*
G01*
X14809000Y-4958200D02*
X14909000Y-5058200D01*
X14909000Y-4958200D02*
X14809000Y-5058200D01*
X14909000Y-5008200D02*
G75*
G03*
X14909000Y-5008200I-50000J0D01*
G01*
X14809000Y-5192200D02*
X14909000Y-5292200D01*
X14909000Y-5192200D02*
X14809000Y-5292200D01*
X14909000Y-5242200D02*
G75*
G03*
X14909000Y-5242200I-50000J0D01*
G01*
X14809000Y-5425200D02*
X14909000Y-5525200D01*
X14909000Y-5425200D02*
X14809000Y-5525200D01*
X14909000Y-5475200D02*
G75*
G03*
X14909000Y-5475200I-50000J0D01*
G01*
X14809000Y-5830200D02*
X14909000Y-5930200D01*
X14909000Y-5830200D02*
X14809000Y-5930200D01*
X14909000Y-5880200D02*
G75*
G03*
X14909000Y-5880200I-50000J0D01*
G01*
X14809000Y-6030200D02*
X14909000Y-6130200D01*
X14909000Y-6030200D02*
X14809000Y-6130200D01*
X14909000Y-6080200D02*
G75*
G03*
X14909000Y-6080200I-50000J0D01*
G01*
X14809000Y-6230200D02*
X14909000Y-6330200D01*
X14909000Y-6230200D02*
X14809000Y-6330200D01*
X14909000Y-6280200D02*
G75*
G03*
X14909000Y-6280200I-50000J0D01*
G01*
X14809000Y-6430200D02*
X14909000Y-6530200D01*
X14909000Y-6430200D02*
X14809000Y-6530200D01*
X14909000Y-6480200D02*
G75*
G03*
X14909000Y-6480200I-50000J0D01*
G01*
X14809000Y-6630200D02*
X14909000Y-6730200D01*
X14909000Y-6630200D02*
X14809000Y-6730200D01*
X14909000Y-6680200D02*
G75*
G03*
X14909000Y-6680200I-50000J0D01*
G01*
X16333000Y-10422800D02*
X16433000Y-10522800D01*
X16433000Y-10422800D02*
X16333000Y-10522800D01*
X16433000Y-10472800D02*
G75*
G03*
X16433000Y-10472800I-50000J0D01*
G01*
X16333000Y-10922800D02*
X16433000Y-11022800D01*
X16433000Y-10922800D02*
X16333000Y-11022800D01*
X16433000Y-10972800D02*
G75*
G03*
X16433000Y-10972800I-50000J0D01*
G01*
X17476000Y-9983000D02*
X17576000Y-10083000D01*
X17576000Y-9983000D02*
X17476000Y-10083000D01*
X17576000Y-10033000D02*
G75*
G03*
X17576000Y-10033000I-50000J0D01*
G01*
X17476000Y-10237000D02*
X17576000Y-10337000D01*
X17576000Y-10237000D02*
X17476000Y-10337000D01*
X17576000Y-10287000D02*
G75*
G03*
X17576000Y-10287000I-50000J0D01*
G01*
X17476000Y-10491000D02*
X17576000Y-10591000D01*
X17576000Y-10491000D02*
X17476000Y-10591000D01*
X17576000Y-10541000D02*
G75*
G03*
X17576000Y-10541000I-50000J0D01*
G01*
X17476000Y-10745000D02*
X17576000Y-10845000D01*
X17576000Y-10745000D02*
X17476000Y-10845000D01*
X17576000Y-10795000D02*
G75*
G03*
X17576000Y-10795000I-50000J0D01*
G01*
X17476000Y-10999000D02*
X17576000Y-11099000D01*
X17576000Y-10999000D02*
X17476000Y-11099000D01*
X17576000Y-11049000D02*
G75*
G03*
X17576000Y-11049000I-50000J0D01*
G01*
X17984000Y-4725200D02*
X18084000Y-4825200D01*
X18084000Y-4725200D02*
X17984000Y-4825200D01*
X18084000Y-4775200D02*
G75*
G03*
X18084000Y-4775200I-50000J0D01*
G01*
X17984000Y-4958200D02*
X18084000Y-5058200D01*
X18084000Y-4958200D02*
X17984000Y-5058200D01*
X18084000Y-5008200D02*
G75*
G03*
X18084000Y-5008200I-50000J0D01*
G01*
X17984000Y-5192200D02*
X18084000Y-5292200D01*
X18084000Y-5192200D02*
X17984000Y-5292200D01*
X18084000Y-5242200D02*
G75*
G03*
X18084000Y-5242200I-50000J0D01*
G01*
X17984000Y-5425200D02*
X18084000Y-5525200D01*
X18084000Y-5425200D02*
X17984000Y-5525200D01*
X18084000Y-5475200D02*
G75*
G03*
X18084000Y-5475200I-50000J0D01*
G01*
X17984000Y-5830200D02*
X18084000Y-5930200D01*
X18084000Y-5830200D02*
X17984000Y-5930200D01*
X18084000Y-5880200D02*
G75*
G03*
X18084000Y-5880200I-50000J0D01*
G01*
X17984000Y-6030200D02*
X18084000Y-6130200D01*
X18084000Y-6030200D02*
X17984000Y-6130200D01*
X18084000Y-6080200D02*
G75*
G03*
X18084000Y-6080200I-50000J0D01*
G01*
X17984000Y-6230200D02*
X18084000Y-6330200D01*
X18084000Y-6230200D02*
X17984000Y-6330200D01*
X18084000Y-6280200D02*
G75*
G03*
X18084000Y-6280200I-50000J0D01*
G01*
X17984000Y-6430200D02*
X18084000Y-6530200D01*
X18084000Y-6430200D02*
X17984000Y-6530200D01*
X18084000Y-6480200D02*
G75*
G03*
X18084000Y-6480200I-50000J0D01*
G01*
X17984000Y-6630200D02*
X18084000Y-6730200D01*
X18084000Y-6630200D02*
X17984000Y-6730200D01*
X18084000Y-6680200D02*
G75*
G03*
X18084000Y-6680200I-50000J0D01*
G01*
X13971000Y-7340000D02*
X14081000Y-7450000D01*
X14081000Y-7340000D02*
X13971000Y-7450000D01*
X14026000Y-7340000D02*
X14026000Y-7450000D01*
X13971000Y-7395000D02*
X14081000Y-7395000D01*
X13971000Y-7790000D02*
X14081000Y-7900000D01*
X14081000Y-7790000D02*
X13971000Y-7900000D01*
X14026000Y-7790000D02*
X14026000Y-7900000D01*
X13971000Y-7845000D02*
X14081000Y-7845000D01*
X14621000Y-7340000D02*
X14731000Y-7450000D01*
X14731000Y-7340000D02*
X14621000Y-7450000D01*
X14676000Y-7340000D02*
X14676000Y-7450000D01*
X14621000Y-7395000D02*
X14731000Y-7395000D01*
X14621000Y-7790000D02*
X14731000Y-7900000D01*
X14731000Y-7790000D02*
X14621000Y-7900000D01*
X14676000Y-7790000D02*
X14676000Y-7900000D01*
X14621000Y-7845000D02*
X14731000Y-7845000D01*
X13205000Y-13905000D02*
X13335000Y-14035000D01*
X13335000Y-13905000D02*
X13205000Y-14035000D01*
X13315962Y-14015962D02*
X13315962Y-13924038D01*
X13224038Y-13924038D01*
X13224038Y-14015962D01*
X13315962Y-14015962D01*
X13555000Y-13905000D02*
X13685000Y-14035000D01*
X13685000Y-13905000D02*
X13555000Y-14035000D01*
X13665962Y-14015962D02*
X13665962Y-13924038D01*
X13574038Y-13924038D01*
X13574038Y-14015962D01*
X13665962Y-14015962D01*
X13905000Y-13905000D02*
X14035000Y-14035000D01*
X14035000Y-13905000D02*
X13905000Y-14035000D01*
X14015962Y-14015962D02*
X14015962Y-13924038D01*
X13924038Y-13924038D01*
X13924038Y-14015962D01*
X14015962Y-14015962D01*
X14698000Y-13905000D02*
X14828000Y-14035000D01*
X14828000Y-13905000D02*
X14698000Y-14035000D01*
X14808962Y-14015962D02*
X14808962Y-13924038D01*
X14717038Y-13924038D01*
X14717038Y-14015962D01*
X14808962Y-14015962D01*
X15048000Y-13905000D02*
X15178000Y-14035000D01*
X15178000Y-13905000D02*
X15048000Y-14035000D01*
X15158962Y-14015962D02*
X15158962Y-13924038D01*
X15067038Y-13924038D01*
X15067038Y-14015962D01*
X15158962Y-14015962D01*
X16445000Y-13905000D02*
X16575000Y-14035000D01*
X16575000Y-13905000D02*
X16445000Y-14035000D01*
X16555962Y-14015962D02*
X16555962Y-13924038D01*
X16464038Y-13924038D01*
X16464038Y-14015962D01*
X16555962Y-14015962D01*
X16826000Y-13905000D02*
X16956000Y-14035000D01*
X16956000Y-13905000D02*
X16826000Y-14035000D01*
X16936962Y-14015962D02*
X16936962Y-13924038D01*
X16845038Y-13924038D01*
X16845038Y-14015962D01*
X16936962Y-14015962D01*
X15520600Y-11736000D02*
X15670600Y-11886000D01*
X15670600Y-11736000D02*
X15520600Y-11886000D01*
X15595600Y-11886000D02*
X15670600Y-11811000D01*
X15595600Y-11736000D01*
X15520600Y-11811000D01*
X15595600Y-11886000D01*
X17780600Y-11736000D02*
X17930600Y-11886000D01*
X17930600Y-11736000D02*
X17780600Y-11886000D01*
X17855600Y-11886000D02*
X17930600Y-11811000D01*
X17855600Y-11736000D01*
X17780600Y-11811000D01*
X17855600Y-11886000D01*
D12*
X12221928Y-14946214D02*
X12221928Y-14646214D01*
X12293357Y-14646214D01*
X12336214Y-14660500D01*
X12364786Y-14689071D01*
X12379071Y-14717643D01*
X12393357Y-14774786D01*
X12393357Y-14817643D01*
X12379071Y-14874786D01*
X12364786Y-14903357D01*
X12336214Y-14931929D01*
X12293357Y-14946214D01*
X12221928Y-14946214D01*
X12521928Y-14946214D02*
X12521928Y-14746214D01*
X12521928Y-14803357D02*
X12536214Y-14774786D01*
X12550500Y-14760500D01*
X12579071Y-14746214D01*
X12607643Y-14746214D01*
X12707643Y-14946214D02*
X12707643Y-14746214D01*
X12707643Y-14646214D02*
X12693357Y-14660500D01*
X12707643Y-14674786D01*
X12721928Y-14660500D01*
X12707643Y-14646214D01*
X12707643Y-14674786D01*
X12893357Y-14946214D02*
X12864786Y-14931929D01*
X12850500Y-14903357D01*
X12850500Y-14646214D01*
X13050500Y-14946214D02*
X13021928Y-14931929D01*
X13007643Y-14903357D01*
X13007643Y-14646214D01*
X13393357Y-14946214D02*
X13393357Y-14646214D01*
X13493357Y-14860500D01*
X13593357Y-14646214D01*
X13593357Y-14946214D01*
X13864786Y-14946214D02*
X13864786Y-14789071D01*
X13850500Y-14760500D01*
X13821928Y-14746214D01*
X13764786Y-14746214D01*
X13736214Y-14760500D01*
X13864786Y-14931929D02*
X13836214Y-14946214D01*
X13764786Y-14946214D01*
X13736214Y-14931929D01*
X13721928Y-14903357D01*
X13721928Y-14874786D01*
X13736214Y-14846214D01*
X13764786Y-14831929D01*
X13836214Y-14831929D01*
X13864786Y-14817643D01*
X14007643Y-14746214D02*
X14007643Y-15046214D01*
X14007643Y-14760500D02*
X14036214Y-14746214D01*
X14093357Y-14746214D01*
X14121928Y-14760500D01*
X14136214Y-14774786D01*
X14150500Y-14803357D01*
X14150500Y-14889071D01*
X14136214Y-14917643D01*
X14121928Y-14931929D01*
X14093357Y-14946214D01*
X14036214Y-14946214D01*
X14007643Y-14931929D01*
X14279071Y-14917643D02*
X14293357Y-14931929D01*
X14279071Y-14946214D01*
X14264786Y-14931929D01*
X14279071Y-14917643D01*
X14279071Y-14946214D01*
X14279071Y-14760500D02*
X14293357Y-14774786D01*
X14279071Y-14789071D01*
X14264786Y-14774786D01*
X14279071Y-14760500D01*
X14279071Y-14789071D01*
X11895500Y-15420500D02*
X11935500Y-15460500D01*
X11935500Y-15420500D02*
X11895500Y-15460500D01*
X12279071Y-15276214D02*
X12307643Y-15276214D01*
X12336214Y-15290500D01*
X12350500Y-15304786D01*
X12364786Y-15333357D01*
X12379071Y-15390500D01*
X12379071Y-15461929D01*
X12364786Y-15519071D01*
X12350500Y-15547643D01*
X12336214Y-15561929D01*
X12307643Y-15576214D01*
X12279071Y-15576214D01*
X12250500Y-15561929D01*
X12236214Y-15547643D01*
X12221928Y-15519071D01*
X12207643Y-15461929D01*
X12207643Y-15390500D01*
X12221928Y-15333357D01*
X12236214Y-15304786D01*
X12250500Y-15290500D01*
X12279071Y-15276214D01*
X12507643Y-15547643D02*
X12521928Y-15561929D01*
X12507643Y-15576214D01*
X12493357Y-15561929D01*
X12507643Y-15547643D01*
X12507643Y-15576214D01*
X12779071Y-15376214D02*
X12779071Y-15576214D01*
X12707643Y-15261929D02*
X12636214Y-15476214D01*
X12821928Y-15476214D01*
X12993357Y-15276214D02*
X13021928Y-15276214D01*
X13050500Y-15290500D01*
X13064786Y-15304786D01*
X13079071Y-15333357D01*
X13093357Y-15390500D01*
X13093357Y-15461929D01*
X13079071Y-15519071D01*
X13064786Y-15547643D01*
X13050500Y-15561929D01*
X13021928Y-15576214D01*
X12993357Y-15576214D01*
X12964786Y-15561929D01*
X12950500Y-15547643D01*
X12936214Y-15519071D01*
X12921928Y-15461929D01*
X12921928Y-15390500D01*
X12936214Y-15333357D01*
X12950500Y-15304786D01*
X12964786Y-15290500D01*
X12993357Y-15276214D01*
X13279071Y-15276214D02*
X13307643Y-15276214D01*
X13336214Y-15290500D01*
X13350500Y-15304786D01*
X13364786Y-15333357D01*
X13379071Y-15390500D01*
X13379071Y-15461929D01*
X13364786Y-15519071D01*
X13350500Y-15547643D01*
X13336214Y-15561929D01*
X13307643Y-15576214D01*
X13279071Y-15576214D01*
X13250500Y-15561929D01*
X13236214Y-15547643D01*
X13221928Y-15519071D01*
X13207643Y-15461929D01*
X13207643Y-15390500D01*
X13221928Y-15333357D01*
X13236214Y-15304786D01*
X13250500Y-15290500D01*
X13279071Y-15276214D01*
X13507643Y-15576214D02*
X13507643Y-15376214D01*
X13507643Y-15404786D02*
X13521928Y-15390500D01*
X13550500Y-15376214D01*
X13593357Y-15376214D01*
X13621928Y-15390500D01*
X13636214Y-15419071D01*
X13636214Y-15576214D01*
X13636214Y-15419071D02*
X13650500Y-15390500D01*
X13679071Y-15376214D01*
X13721928Y-15376214D01*
X13750500Y-15390500D01*
X13764786Y-15419071D01*
X13764786Y-15576214D01*
X13907643Y-15576214D02*
X13907643Y-15376214D01*
X13907643Y-15404786D02*
X13921928Y-15390500D01*
X13950500Y-15376214D01*
X13993357Y-15376214D01*
X14021928Y-15390500D01*
X14036214Y-15419071D01*
X14036214Y-15576214D01*
X14036214Y-15419071D02*
X14050500Y-15390500D01*
X14079071Y-15376214D01*
X14121928Y-15376214D01*
X14150500Y-15390500D01*
X14164786Y-15419071D01*
X14164786Y-15576214D01*
X14750500Y-15261929D02*
X14493357Y-15647643D01*
X15136214Y-15276214D02*
X15164786Y-15276214D01*
X15193357Y-15290500D01*
X15207643Y-15304786D01*
X15221928Y-15333357D01*
X15236214Y-15390500D01*
X15236214Y-15461929D01*
X15221928Y-15519071D01*
X15207643Y-15547643D01*
X15193357Y-15561929D01*
X15164786Y-15576214D01*
X15136214Y-15576214D01*
X15107643Y-15561929D01*
X15093357Y-15547643D01*
X15079071Y-15519071D01*
X15064786Y-15461929D01*
X15064786Y-15390500D01*
X15079071Y-15333357D01*
X15093357Y-15304786D01*
X15107643Y-15290500D01*
X15136214Y-15276214D01*
X15364786Y-15547643D02*
X15379071Y-15561929D01*
X15364786Y-15576214D01*
X15350500Y-15561929D01*
X15364786Y-15547643D01*
X15364786Y-15576214D01*
X15564786Y-15276214D02*
X15593357Y-15276214D01*
X15621928Y-15290500D01*
X15636214Y-15304786D01*
X15650500Y-15333357D01*
X15664786Y-15390500D01*
X15664786Y-15461929D01*
X15650500Y-15519071D01*
X15636214Y-15547643D01*
X15621928Y-15561929D01*
X15593357Y-15576214D01*
X15564786Y-15576214D01*
X15536214Y-15561929D01*
X15521928Y-15547643D01*
X15507643Y-15519071D01*
X15493357Y-15461929D01*
X15493357Y-15390500D01*
X15507643Y-15333357D01*
X15521928Y-15304786D01*
X15536214Y-15290500D01*
X15564786Y-15276214D01*
X15950500Y-15576214D02*
X15779071Y-15576214D01*
X15864786Y-15576214D02*
X15864786Y-15276214D01*
X15836214Y-15319071D01*
X15807643Y-15347643D01*
X15779071Y-15361929D01*
X16221928Y-15276214D02*
X16079071Y-15276214D01*
X16064786Y-15419071D01*
X16079071Y-15404786D01*
X16107643Y-15390500D01*
X16179071Y-15390500D01*
X16207643Y-15404786D01*
X16221928Y-15419071D01*
X16236214Y-15447643D01*
X16236214Y-15519071D01*
X16221928Y-15547643D01*
X16207643Y-15561929D01*
X16179071Y-15576214D01*
X16107643Y-15576214D01*
X16079071Y-15561929D01*
X16064786Y-15547643D01*
X16336214Y-15276214D02*
X16536214Y-15276214D01*
X16407643Y-15576214D01*
X16636214Y-15276214D02*
X16636214Y-15333357D01*
X16750500Y-15276214D02*
X16750500Y-15333357D01*
X17193357Y-15690500D02*
X17179071Y-15676214D01*
X17150500Y-15633357D01*
X17136214Y-15604786D01*
X17121928Y-15561929D01*
X17107643Y-15490500D01*
X17107643Y-15433357D01*
X17121928Y-15361929D01*
X17136214Y-15319071D01*
X17150500Y-15290500D01*
X17179071Y-15247643D01*
X17193357Y-15233357D01*
X17464786Y-15576214D02*
X17293357Y-15576214D01*
X17379071Y-15576214D02*
X17379071Y-15276214D01*
X17350500Y-15319071D01*
X17321928Y-15347643D01*
X17293357Y-15361929D01*
X17721928Y-15276214D02*
X17664786Y-15276214D01*
X17636214Y-15290500D01*
X17621928Y-15304786D01*
X17593357Y-15347643D01*
X17579071Y-15404786D01*
X17579071Y-15519071D01*
X17593357Y-15547643D01*
X17607643Y-15561929D01*
X17636214Y-15576214D01*
X17693357Y-15576214D01*
X17721928Y-15561929D01*
X17736214Y-15547643D01*
X17750500Y-15519071D01*
X17750500Y-15447643D01*
X17736214Y-15419071D01*
X17721928Y-15404786D01*
X17693357Y-15390500D01*
X17636214Y-15390500D01*
X17607643Y-15404786D01*
X17593357Y-15419071D01*
X17579071Y-15447643D01*
X18036214Y-15576214D02*
X17864786Y-15576214D01*
X17950500Y-15576214D02*
X17950500Y-15276214D01*
X17921928Y-15319071D01*
X17893357Y-15347643D01*
X17864786Y-15361929D01*
X18393357Y-15576214D02*
X18393357Y-15276214D01*
X18521928Y-15576214D02*
X18521928Y-15419071D01*
X18507643Y-15390500D01*
X18479071Y-15376214D01*
X18436214Y-15376214D01*
X18407643Y-15390500D01*
X18393357Y-15404786D01*
X18707643Y-15576214D02*
X18679071Y-15561929D01*
X18664786Y-15547643D01*
X18650500Y-15519071D01*
X18650500Y-15433357D01*
X18664786Y-15404786D01*
X18679071Y-15390500D01*
X18707643Y-15376214D01*
X18750500Y-15376214D01*
X18779071Y-15390500D01*
X18793357Y-15404786D01*
X18807643Y-15433357D01*
X18807643Y-15519071D01*
X18793357Y-15547643D01*
X18779071Y-15561929D01*
X18750500Y-15576214D01*
X18707643Y-15576214D01*
X18979071Y-15576214D02*
X18950500Y-15561929D01*
X18936214Y-15533357D01*
X18936214Y-15276214D01*
X19207643Y-15561929D02*
X19179071Y-15576214D01*
X19121928Y-15576214D01*
X19093357Y-15561929D01*
X19079071Y-15533357D01*
X19079071Y-15419071D01*
X19093357Y-15390500D01*
X19121928Y-15376214D01*
X19179071Y-15376214D01*
X19207643Y-15390500D01*
X19221928Y-15419071D01*
X19221928Y-15447643D01*
X19079071Y-15476214D01*
X19336214Y-15561929D02*
X19364786Y-15576214D01*
X19421928Y-15576214D01*
X19450500Y-15561929D01*
X19464786Y-15533357D01*
X19464786Y-15519071D01*
X19450500Y-15490500D01*
X19421928Y-15476214D01*
X19379071Y-15476214D01*
X19350500Y-15461929D01*
X19336214Y-15433357D01*
X19336214Y-15419071D01*
X19350500Y-15390500D01*
X19379071Y-15376214D01*
X19421928Y-15376214D01*
X19450500Y-15390500D01*
X19564786Y-15690500D02*
X19579071Y-15676214D01*
X19607643Y-15633357D01*
X19621928Y-15604786D01*
X19636214Y-15561929D01*
X19650500Y-15490500D01*
X19650500Y-15433357D01*
X19636214Y-15361929D01*
X19621928Y-15319071D01*
X19607643Y-15290500D01*
X19579071Y-15247643D01*
X19564786Y-15233357D01*
X11935500Y-15836500D02*
G75*
G03*
X11935500Y-15836500I-25000J0D01*
G01*
X12279071Y-15672214D02*
X12307643Y-15672214D01*
X12336214Y-15686500D01*
X12350500Y-15700786D01*
X12364786Y-15729357D01*
X12379071Y-15786500D01*
X12379071Y-15857929D01*
X12364786Y-15915071D01*
X12350500Y-15943643D01*
X12336214Y-15957929D01*
X12307643Y-15972214D01*
X12279071Y-15972214D01*
X12250500Y-15957929D01*
X12236214Y-15943643D01*
X12221928Y-15915071D01*
X12207643Y-15857929D01*
X12207643Y-15786500D01*
X12221928Y-15729357D01*
X12236214Y-15700786D01*
X12250500Y-15686500D01*
X12279071Y-15672214D01*
X12507643Y-15943643D02*
X12521928Y-15957929D01*
X12507643Y-15972214D01*
X12493357Y-15957929D01*
X12507643Y-15943643D01*
X12507643Y-15972214D01*
X12793357Y-15672214D02*
X12650500Y-15672214D01*
X12636214Y-15815071D01*
X12650500Y-15800786D01*
X12679071Y-15786500D01*
X12750500Y-15786500D01*
X12779071Y-15800786D01*
X12793357Y-15815071D01*
X12807643Y-15843643D01*
X12807643Y-15915071D01*
X12793357Y-15943643D01*
X12779071Y-15957929D01*
X12750500Y-15972214D01*
X12679071Y-15972214D01*
X12650500Y-15957929D01*
X12636214Y-15943643D01*
X12993357Y-15672214D02*
X13021928Y-15672214D01*
X13050500Y-15686500D01*
X13064786Y-15700786D01*
X13079071Y-15729357D01*
X13093357Y-15786500D01*
X13093357Y-15857929D01*
X13079071Y-15915071D01*
X13064786Y-15943643D01*
X13050500Y-15957929D01*
X13021928Y-15972214D01*
X12993357Y-15972214D01*
X12964786Y-15957929D01*
X12950500Y-15943643D01*
X12936214Y-15915071D01*
X12921928Y-15857929D01*
X12921928Y-15786500D01*
X12936214Y-15729357D01*
X12950500Y-15700786D01*
X12964786Y-15686500D01*
X12993357Y-15672214D01*
X13279071Y-15672214D02*
X13307643Y-15672214D01*
X13336214Y-15686500D01*
X13350500Y-15700786D01*
X13364786Y-15729357D01*
X13379071Y-15786500D01*
X13379071Y-15857929D01*
X13364786Y-15915071D01*
X13350500Y-15943643D01*
X13336214Y-15957929D01*
X13307643Y-15972214D01*
X13279071Y-15972214D01*
X13250500Y-15957929D01*
X13236214Y-15943643D01*
X13221928Y-15915071D01*
X13207643Y-15857929D01*
X13207643Y-15786500D01*
X13221928Y-15729357D01*
X13236214Y-15700786D01*
X13250500Y-15686500D01*
X13279071Y-15672214D01*
X13507643Y-15972214D02*
X13507643Y-15772214D01*
X13507643Y-15800786D02*
X13521928Y-15786500D01*
X13550500Y-15772214D01*
X13593357Y-15772214D01*
X13621928Y-15786500D01*
X13636214Y-15815071D01*
X13636214Y-15972214D01*
X13636214Y-15815071D02*
X13650500Y-15786500D01*
X13679071Y-15772214D01*
X13721928Y-15772214D01*
X13750500Y-15786500D01*
X13764786Y-15815071D01*
X13764786Y-15972214D01*
X13907643Y-15972214D02*
X13907643Y-15772214D01*
X13907643Y-15800786D02*
X13921928Y-15786500D01*
X13950500Y-15772214D01*
X13993357Y-15772214D01*
X14021928Y-15786500D01*
X14036214Y-15815071D01*
X14036214Y-15972214D01*
X14036214Y-15815071D02*
X14050500Y-15786500D01*
X14079071Y-15772214D01*
X14121928Y-15772214D01*
X14150500Y-15786500D01*
X14164786Y-15815071D01*
X14164786Y-15972214D01*
X14750500Y-15657929D02*
X14493357Y-16043643D01*
X15136214Y-15672214D02*
X15164786Y-15672214D01*
X15193357Y-15686500D01*
X15207643Y-15700786D01*
X15221928Y-15729357D01*
X15236214Y-15786500D01*
X15236214Y-15857929D01*
X15221928Y-15915071D01*
X15207643Y-15943643D01*
X15193357Y-15957929D01*
X15164786Y-15972214D01*
X15136214Y-15972214D01*
X15107643Y-15957929D01*
X15093357Y-15943643D01*
X15079071Y-15915071D01*
X15064786Y-15857929D01*
X15064786Y-15786500D01*
X15079071Y-15729357D01*
X15093357Y-15700786D01*
X15107643Y-15686500D01*
X15136214Y-15672214D01*
X15364786Y-15943643D02*
X15379071Y-15957929D01*
X15364786Y-15972214D01*
X15350500Y-15957929D01*
X15364786Y-15943643D01*
X15364786Y-15972214D01*
X15564786Y-15672214D02*
X15593357Y-15672214D01*
X15621928Y-15686500D01*
X15636214Y-15700786D01*
X15650500Y-15729357D01*
X15664786Y-15786500D01*
X15664786Y-15857929D01*
X15650500Y-15915071D01*
X15636214Y-15943643D01*
X15621928Y-15957929D01*
X15593357Y-15972214D01*
X15564786Y-15972214D01*
X15536214Y-15957929D01*
X15521928Y-15943643D01*
X15507643Y-15915071D01*
X15493357Y-15857929D01*
X15493357Y-15786500D01*
X15507643Y-15729357D01*
X15521928Y-15700786D01*
X15536214Y-15686500D01*
X15564786Y-15672214D01*
X15950500Y-15972214D02*
X15779071Y-15972214D01*
X15864786Y-15972214D02*
X15864786Y-15672214D01*
X15836214Y-15715071D01*
X15807643Y-15743643D01*
X15779071Y-15757929D01*
X16093357Y-15972214D02*
X16150500Y-15972214D01*
X16179071Y-15957929D01*
X16193357Y-15943643D01*
X16221928Y-15900786D01*
X16236214Y-15843643D01*
X16236214Y-15729357D01*
X16221928Y-15700786D01*
X16207643Y-15686500D01*
X16179071Y-15672214D01*
X16121928Y-15672214D01*
X16093357Y-15686500D01*
X16079071Y-15700786D01*
X16064786Y-15729357D01*
X16064786Y-15800786D01*
X16079071Y-15829357D01*
X16093357Y-15843643D01*
X16121928Y-15857929D01*
X16179071Y-15857929D01*
X16207643Y-15843643D01*
X16221928Y-15829357D01*
X16236214Y-15800786D01*
X16336214Y-15672214D02*
X16536214Y-15672214D01*
X16407643Y-15972214D01*
X16636214Y-15672214D02*
X16636214Y-15729357D01*
X16750500Y-15672214D02*
X16750500Y-15729357D01*
X17193357Y-16086500D02*
X17179071Y-16072214D01*
X17150500Y-16029357D01*
X17136214Y-16000786D01*
X17121928Y-15957929D01*
X17107643Y-15886500D01*
X17107643Y-15829357D01*
X17121928Y-15757929D01*
X17136214Y-15715071D01*
X17150500Y-15686500D01*
X17179071Y-15643643D01*
X17193357Y-15629357D01*
X17464786Y-15972214D02*
X17293357Y-15972214D01*
X17379071Y-15972214D02*
X17379071Y-15672214D01*
X17350500Y-15715071D01*
X17321928Y-15743643D01*
X17293357Y-15757929D01*
X17721928Y-15772214D02*
X17721928Y-15972214D01*
X17650500Y-15657929D02*
X17579071Y-15872214D01*
X17764786Y-15872214D01*
X18107643Y-15972214D02*
X18107643Y-15672214D01*
X18236214Y-15972214D02*
X18236214Y-15815071D01*
X18221928Y-15786500D01*
X18193357Y-15772214D01*
X18150500Y-15772214D01*
X18121928Y-15786500D01*
X18107643Y-15800786D01*
X18421928Y-15972214D02*
X18393357Y-15957929D01*
X18379071Y-15943643D01*
X18364786Y-15915071D01*
X18364786Y-15829357D01*
X18379071Y-15800786D01*
X18393357Y-15786500D01*
X18421928Y-15772214D01*
X18464786Y-15772214D01*
X18493357Y-15786500D01*
X18507643Y-15800786D01*
X18521928Y-15829357D01*
X18521928Y-15915071D01*
X18507643Y-15943643D01*
X18493357Y-15957929D01*
X18464786Y-15972214D01*
X18421928Y-15972214D01*
X18693357Y-15972214D02*
X18664786Y-15957929D01*
X18650500Y-15929357D01*
X18650500Y-15672214D01*
X18921928Y-15957929D02*
X18893357Y-15972214D01*
X18836214Y-15972214D01*
X18807643Y-15957929D01*
X18793357Y-15929357D01*
X18793357Y-15815071D01*
X18807643Y-15786500D01*
X18836214Y-15772214D01*
X18893357Y-15772214D01*
X18921928Y-15786500D01*
X18936214Y-15815071D01*
X18936214Y-15843643D01*
X18793357Y-15872214D01*
X19050500Y-15957929D02*
X19079071Y-15972214D01*
X19136214Y-15972214D01*
X19164786Y-15957929D01*
X19179071Y-15929357D01*
X19179071Y-15915071D01*
X19164786Y-15886500D01*
X19136214Y-15872214D01*
X19093357Y-15872214D01*
X19064786Y-15857929D01*
X19050500Y-15829357D01*
X19050500Y-15815071D01*
X19064786Y-15786500D01*
X19093357Y-15772214D01*
X19136214Y-15772214D01*
X19164786Y-15786500D01*
X19279071Y-16086500D02*
X19293357Y-16072214D01*
X19321928Y-16029357D01*
X19336214Y-16000786D01*
X19350500Y-15957929D01*
X19364786Y-15886500D01*
X19364786Y-15829357D01*
X19350500Y-15757929D01*
X19336214Y-15715071D01*
X19321928Y-15686500D01*
X19293357Y-15643643D01*
X19279071Y-15629357D01*
X11900500Y-16197500D02*
X11900500Y-16267500D01*
X11865500Y-16232500D02*
X11935500Y-16232500D01*
X12279071Y-16068214D02*
X12307643Y-16068214D01*
X12336214Y-16082500D01*
X12350500Y-16096786D01*
X12364786Y-16125357D01*
X12379071Y-16182500D01*
X12379071Y-16253929D01*
X12364786Y-16311071D01*
X12350500Y-16339643D01*
X12336214Y-16353929D01*
X12307643Y-16368214D01*
X12279071Y-16368214D01*
X12250500Y-16353929D01*
X12236214Y-16339643D01*
X12221928Y-16311071D01*
X12207643Y-16253929D01*
X12207643Y-16182500D01*
X12221928Y-16125357D01*
X12236214Y-16096786D01*
X12250500Y-16082500D01*
X12279071Y-16068214D01*
X12507643Y-16339643D02*
X12521928Y-16353929D01*
X12507643Y-16368214D01*
X12493357Y-16353929D01*
X12507643Y-16339643D01*
X12507643Y-16368214D01*
X12621928Y-16068214D02*
X12821928Y-16068214D01*
X12693357Y-16368214D01*
X12993357Y-16068214D02*
X13021928Y-16068214D01*
X13050500Y-16082500D01*
X13064786Y-16096786D01*
X13079071Y-16125357D01*
X13093357Y-16182500D01*
X13093357Y-16253929D01*
X13079071Y-16311071D01*
X13064786Y-16339643D01*
X13050500Y-16353929D01*
X13021928Y-16368214D01*
X12993357Y-16368214D01*
X12964786Y-16353929D01*
X12950500Y-16339643D01*
X12936214Y-16311071D01*
X12921928Y-16253929D01*
X12921928Y-16182500D01*
X12936214Y-16125357D01*
X12950500Y-16096786D01*
X12964786Y-16082500D01*
X12993357Y-16068214D01*
X13279071Y-16068214D02*
X13307643Y-16068214D01*
X13336214Y-16082500D01*
X13350500Y-16096786D01*
X13364786Y-16125357D01*
X13379071Y-16182500D01*
X13379071Y-16253929D01*
X13364786Y-16311071D01*
X13350500Y-16339643D01*
X13336214Y-16353929D01*
X13307643Y-16368214D01*
X13279071Y-16368214D01*
X13250500Y-16353929D01*
X13236214Y-16339643D01*
X13221928Y-16311071D01*
X13207643Y-16253929D01*
X13207643Y-16182500D01*
X13221928Y-16125357D01*
X13236214Y-16096786D01*
X13250500Y-16082500D01*
X13279071Y-16068214D01*
X13507643Y-16368214D02*
X13507643Y-16168214D01*
X13507643Y-16196786D02*
X13521928Y-16182500D01*
X13550500Y-16168214D01*
X13593357Y-16168214D01*
X13621928Y-16182500D01*
X13636214Y-16211071D01*
X13636214Y-16368214D01*
X13636214Y-16211071D02*
X13650500Y-16182500D01*
X13679071Y-16168214D01*
X13721928Y-16168214D01*
X13750500Y-16182500D01*
X13764786Y-16211071D01*
X13764786Y-16368214D01*
X13907643Y-16368214D02*
X13907643Y-16168214D01*
X13907643Y-16196786D02*
X13921928Y-16182500D01*
X13950500Y-16168214D01*
X13993357Y-16168214D01*
X14021928Y-16182500D01*
X14036214Y-16211071D01*
X14036214Y-16368214D01*
X14036214Y-16211071D02*
X14050500Y-16182500D01*
X14079071Y-16168214D01*
X14121928Y-16168214D01*
X14150500Y-16182500D01*
X14164786Y-16211071D01*
X14164786Y-16368214D01*
X14750500Y-16053929D02*
X14493357Y-16439643D01*
X15136214Y-16068214D02*
X15164786Y-16068214D01*
X15193357Y-16082500D01*
X15207643Y-16096786D01*
X15221928Y-16125357D01*
X15236214Y-16182500D01*
X15236214Y-16253929D01*
X15221928Y-16311071D01*
X15207643Y-16339643D01*
X15193357Y-16353929D01*
X15164786Y-16368214D01*
X15136214Y-16368214D01*
X15107643Y-16353929D01*
X15093357Y-16339643D01*
X15079071Y-16311071D01*
X15064786Y-16253929D01*
X15064786Y-16182500D01*
X15079071Y-16125357D01*
X15093357Y-16096786D01*
X15107643Y-16082500D01*
X15136214Y-16068214D01*
X15364786Y-16339643D02*
X15379071Y-16353929D01*
X15364786Y-16368214D01*
X15350500Y-16353929D01*
X15364786Y-16339643D01*
X15364786Y-16368214D01*
X15564786Y-16068214D02*
X15593357Y-16068214D01*
X15621928Y-16082500D01*
X15636214Y-16096786D01*
X15650500Y-16125357D01*
X15664786Y-16182500D01*
X15664786Y-16253929D01*
X15650500Y-16311071D01*
X15636214Y-16339643D01*
X15621928Y-16353929D01*
X15593357Y-16368214D01*
X15564786Y-16368214D01*
X15536214Y-16353929D01*
X15521928Y-16339643D01*
X15507643Y-16311071D01*
X15493357Y-16253929D01*
X15493357Y-16182500D01*
X15507643Y-16125357D01*
X15521928Y-16096786D01*
X15536214Y-16082500D01*
X15564786Y-16068214D01*
X15779071Y-16096786D02*
X15793357Y-16082500D01*
X15821928Y-16068214D01*
X15893357Y-16068214D01*
X15921928Y-16082500D01*
X15936214Y-16096786D01*
X15950500Y-16125357D01*
X15950500Y-16153929D01*
X15936214Y-16196786D01*
X15764786Y-16368214D01*
X15950500Y-16368214D01*
X16050500Y-16068214D02*
X16250500Y-16068214D01*
X16121928Y-16368214D01*
X16493357Y-16068214D02*
X16436214Y-16068214D01*
X16407643Y-16082500D01*
X16393357Y-16096786D01*
X16364786Y-16139643D01*
X16350500Y-16196786D01*
X16350500Y-16311071D01*
X16364786Y-16339643D01*
X16379071Y-16353929D01*
X16407643Y-16368214D01*
X16464786Y-16368214D01*
X16493357Y-16353929D01*
X16507643Y-16339643D01*
X16521928Y-16311071D01*
X16521928Y-16239643D01*
X16507643Y-16211071D01*
X16493357Y-16196786D01*
X16464786Y-16182500D01*
X16407643Y-16182500D01*
X16379071Y-16196786D01*
X16364786Y-16211071D01*
X16350500Y-16239643D01*
X16636214Y-16068214D02*
X16636214Y-16125357D01*
X16750500Y-16068214D02*
X16750500Y-16125357D01*
X17193357Y-16482500D02*
X17179071Y-16468214D01*
X17150500Y-16425357D01*
X17136214Y-16396786D01*
X17121928Y-16353929D01*
X17107643Y-16282500D01*
X17107643Y-16225357D01*
X17121928Y-16153929D01*
X17136214Y-16111071D01*
X17150500Y-16082500D01*
X17179071Y-16039643D01*
X17193357Y-16025357D01*
X17436214Y-16068214D02*
X17379071Y-16068214D01*
X17350500Y-16082500D01*
X17336214Y-16096786D01*
X17307643Y-16139643D01*
X17293357Y-16196786D01*
X17293357Y-16311071D01*
X17307643Y-16339643D01*
X17321928Y-16353929D01*
X17350500Y-16368214D01*
X17407643Y-16368214D01*
X17436214Y-16353929D01*
X17450500Y-16339643D01*
X17464786Y-16311071D01*
X17464786Y-16239643D01*
X17450500Y-16211071D01*
X17436214Y-16196786D01*
X17407643Y-16182500D01*
X17350500Y-16182500D01*
X17321928Y-16196786D01*
X17307643Y-16211071D01*
X17293357Y-16239643D01*
X17821928Y-16368214D02*
X17821928Y-16068214D01*
X17950500Y-16368214D02*
X17950500Y-16211071D01*
X17936214Y-16182500D01*
X17907643Y-16168214D01*
X17864786Y-16168214D01*
X17836214Y-16182500D01*
X17821928Y-16196786D01*
X18136214Y-16368214D02*
X18107643Y-16353929D01*
X18093357Y-16339643D01*
X18079071Y-16311071D01*
X18079071Y-16225357D01*
X18093357Y-16196786D01*
X18107643Y-16182500D01*
X18136214Y-16168214D01*
X18179071Y-16168214D01*
X18207643Y-16182500D01*
X18221928Y-16196786D01*
X18236214Y-16225357D01*
X18236214Y-16311071D01*
X18221928Y-16339643D01*
X18207643Y-16353929D01*
X18179071Y-16368214D01*
X18136214Y-16368214D01*
X18407643Y-16368214D02*
X18379071Y-16353929D01*
X18364786Y-16325357D01*
X18364786Y-16068214D01*
X18636214Y-16353929D02*
X18607643Y-16368214D01*
X18550500Y-16368214D01*
X18521928Y-16353929D01*
X18507643Y-16325357D01*
X18507643Y-16211071D01*
X18521928Y-16182500D01*
X18550500Y-16168214D01*
X18607643Y-16168214D01*
X18636214Y-16182500D01*
X18650500Y-16211071D01*
X18650500Y-16239643D01*
X18507643Y-16268214D01*
X18764786Y-16353929D02*
X18793357Y-16368214D01*
X18850500Y-16368214D01*
X18879071Y-16353929D01*
X18893357Y-16325357D01*
X18893357Y-16311071D01*
X18879071Y-16282500D01*
X18850500Y-16268214D01*
X18807643Y-16268214D01*
X18779071Y-16253929D01*
X18764786Y-16225357D01*
X18764786Y-16211071D01*
X18779071Y-16182500D01*
X18807643Y-16168214D01*
X18850500Y-16168214D01*
X18879071Y-16182500D01*
X18993357Y-16482500D02*
X19007643Y-16468214D01*
X19036214Y-16425357D01*
X19050500Y-16396786D01*
X19064786Y-16353929D01*
X19079071Y-16282500D01*
X19079071Y-16225357D01*
X19064786Y-16153929D01*
X19050500Y-16111071D01*
X19036214Y-16082500D01*
X19007643Y-16039643D01*
X18993357Y-16025357D01*
X11923784Y-16656785D02*
X11923784Y-16600216D01*
X11867215Y-16600216D01*
X11867215Y-16656785D01*
X11923784Y-16656785D01*
X12279071Y-16464214D02*
X12307643Y-16464214D01*
X12336214Y-16478500D01*
X12350500Y-16492786D01*
X12364786Y-16521357D01*
X12379071Y-16578500D01*
X12379071Y-16649929D01*
X12364786Y-16707071D01*
X12350500Y-16735643D01*
X12336214Y-16749929D01*
X12307643Y-16764214D01*
X12279071Y-16764214D01*
X12250500Y-16749929D01*
X12236214Y-16735643D01*
X12221928Y-16707071D01*
X12207643Y-16649929D01*
X12207643Y-16578500D01*
X12221928Y-16521357D01*
X12236214Y-16492786D01*
X12250500Y-16478500D01*
X12279071Y-16464214D01*
X12507643Y-16735643D02*
X12521928Y-16749929D01*
X12507643Y-16764214D01*
X12493357Y-16749929D01*
X12507643Y-16735643D01*
X12507643Y-16764214D01*
X12693357Y-16592786D02*
X12664786Y-16578500D01*
X12650500Y-16564214D01*
X12636214Y-16535643D01*
X12636214Y-16521357D01*
X12650500Y-16492786D01*
X12664786Y-16478500D01*
X12693357Y-16464214D01*
X12750500Y-16464214D01*
X12779071Y-16478500D01*
X12793357Y-16492786D01*
X12807643Y-16521357D01*
X12807643Y-16535643D01*
X12793357Y-16564214D01*
X12779071Y-16578500D01*
X12750500Y-16592786D01*
X12693357Y-16592786D01*
X12664786Y-16607071D01*
X12650500Y-16621357D01*
X12636214Y-16649929D01*
X12636214Y-16707071D01*
X12650500Y-16735643D01*
X12664786Y-16749929D01*
X12693357Y-16764214D01*
X12750500Y-16764214D01*
X12779071Y-16749929D01*
X12793357Y-16735643D01*
X12807643Y-16707071D01*
X12807643Y-16649929D01*
X12793357Y-16621357D01*
X12779071Y-16607071D01*
X12750500Y-16592786D01*
X12993357Y-16464214D02*
X13021928Y-16464214D01*
X13050500Y-16478500D01*
X13064786Y-16492786D01*
X13079071Y-16521357D01*
X13093357Y-16578500D01*
X13093357Y-16649929D01*
X13079071Y-16707071D01*
X13064786Y-16735643D01*
X13050500Y-16749929D01*
X13021928Y-16764214D01*
X12993357Y-16764214D01*
X12964786Y-16749929D01*
X12950500Y-16735643D01*
X12936214Y-16707071D01*
X12921928Y-16649929D01*
X12921928Y-16578500D01*
X12936214Y-16521357D01*
X12950500Y-16492786D01*
X12964786Y-16478500D01*
X12993357Y-16464214D01*
X13279071Y-16464214D02*
X13307643Y-16464214D01*
X13336214Y-16478500D01*
X13350500Y-16492786D01*
X13364786Y-16521357D01*
X13379071Y-16578500D01*
X13379071Y-16649929D01*
X13364786Y-16707071D01*
X13350500Y-16735643D01*
X13336214Y-16749929D01*
X13307643Y-16764214D01*
X13279071Y-16764214D01*
X13250500Y-16749929D01*
X13236214Y-16735643D01*
X13221928Y-16707071D01*
X13207643Y-16649929D01*
X13207643Y-16578500D01*
X13221928Y-16521357D01*
X13236214Y-16492786D01*
X13250500Y-16478500D01*
X13279071Y-16464214D01*
X13507643Y-16764214D02*
X13507643Y-16564214D01*
X13507643Y-16592786D02*
X13521928Y-16578500D01*
X13550500Y-16564214D01*
X13593357Y-16564214D01*
X13621928Y-16578500D01*
X13636214Y-16607071D01*
X13636214Y-16764214D01*
X13636214Y-16607071D02*
X13650500Y-16578500D01*
X13679071Y-16564214D01*
X13721928Y-16564214D01*
X13750500Y-16578500D01*
X13764786Y-16607071D01*
X13764786Y-16764214D01*
X13907643Y-16764214D02*
X13907643Y-16564214D01*
X13907643Y-16592786D02*
X13921928Y-16578500D01*
X13950500Y-16564214D01*
X13993357Y-16564214D01*
X14021928Y-16578500D01*
X14036214Y-16607071D01*
X14036214Y-16764214D01*
X14036214Y-16607071D02*
X14050500Y-16578500D01*
X14079071Y-16564214D01*
X14121928Y-16564214D01*
X14150500Y-16578500D01*
X14164786Y-16607071D01*
X14164786Y-16764214D01*
X14750500Y-16449929D02*
X14493357Y-16835643D01*
X15136214Y-16464214D02*
X15164786Y-16464214D01*
X15193357Y-16478500D01*
X15207643Y-16492786D01*
X15221928Y-16521357D01*
X15236214Y-16578500D01*
X15236214Y-16649929D01*
X15221928Y-16707071D01*
X15207643Y-16735643D01*
X15193357Y-16749929D01*
X15164786Y-16764214D01*
X15136214Y-16764214D01*
X15107643Y-16749929D01*
X15093357Y-16735643D01*
X15079071Y-16707071D01*
X15064786Y-16649929D01*
X15064786Y-16578500D01*
X15079071Y-16521357D01*
X15093357Y-16492786D01*
X15107643Y-16478500D01*
X15136214Y-16464214D01*
X15364786Y-16735643D02*
X15379071Y-16749929D01*
X15364786Y-16764214D01*
X15350500Y-16749929D01*
X15364786Y-16735643D01*
X15364786Y-16764214D01*
X15564786Y-16464214D02*
X15593357Y-16464214D01*
X15621928Y-16478500D01*
X15636214Y-16492786D01*
X15650500Y-16521357D01*
X15664786Y-16578500D01*
X15664786Y-16649929D01*
X15650500Y-16707071D01*
X15636214Y-16735643D01*
X15621928Y-16749929D01*
X15593357Y-16764214D01*
X15564786Y-16764214D01*
X15536214Y-16749929D01*
X15521928Y-16735643D01*
X15507643Y-16707071D01*
X15493357Y-16649929D01*
X15493357Y-16578500D01*
X15507643Y-16521357D01*
X15521928Y-16492786D01*
X15536214Y-16478500D01*
X15564786Y-16464214D01*
X15764786Y-16464214D02*
X15950500Y-16464214D01*
X15850500Y-16578500D01*
X15893357Y-16578500D01*
X15921928Y-16592786D01*
X15936214Y-16607071D01*
X15950500Y-16635643D01*
X15950500Y-16707071D01*
X15936214Y-16735643D01*
X15921928Y-16749929D01*
X15893357Y-16764214D01*
X15807643Y-16764214D01*
X15779071Y-16749929D01*
X15764786Y-16735643D01*
X16236214Y-16764214D02*
X16064786Y-16764214D01*
X16150500Y-16764214D02*
X16150500Y-16464214D01*
X16121928Y-16507071D01*
X16093357Y-16535643D01*
X16064786Y-16549929D01*
X16507643Y-16464214D02*
X16364786Y-16464214D01*
X16350500Y-16607071D01*
X16364786Y-16592786D01*
X16393357Y-16578500D01*
X16464786Y-16578500D01*
X16493357Y-16592786D01*
X16507643Y-16607071D01*
X16521928Y-16635643D01*
X16521928Y-16707071D01*
X16507643Y-16735643D01*
X16493357Y-16749929D01*
X16464786Y-16764214D01*
X16393357Y-16764214D01*
X16364786Y-16749929D01*
X16350500Y-16735643D01*
X16636214Y-16464214D02*
X16636214Y-16521357D01*
X16750500Y-16464214D02*
X16750500Y-16521357D01*
X17193357Y-16878500D02*
X17179071Y-16864214D01*
X17150500Y-16821357D01*
X17136214Y-16792786D01*
X17121928Y-16749929D01*
X17107643Y-16678500D01*
X17107643Y-16621357D01*
X17121928Y-16549929D01*
X17136214Y-16507071D01*
X17150500Y-16478500D01*
X17179071Y-16435643D01*
X17193357Y-16421357D01*
X17279071Y-16464214D02*
X17464786Y-16464214D01*
X17364786Y-16578500D01*
X17407643Y-16578500D01*
X17436214Y-16592786D01*
X17450500Y-16607071D01*
X17464786Y-16635643D01*
X17464786Y-16707071D01*
X17450500Y-16735643D01*
X17436214Y-16749929D01*
X17407643Y-16764214D01*
X17321928Y-16764214D01*
X17293357Y-16749929D01*
X17279071Y-16735643D01*
X17721928Y-16564214D02*
X17721928Y-16764214D01*
X17650500Y-16449929D02*
X17579071Y-16664214D01*
X17764786Y-16664214D01*
X18107643Y-16764214D02*
X18107643Y-16464214D01*
X18236214Y-16764214D02*
X18236214Y-16607071D01*
X18221928Y-16578500D01*
X18193357Y-16564214D01*
X18150500Y-16564214D01*
X18121928Y-16578500D01*
X18107643Y-16592786D01*
X18421928Y-16764214D02*
X18393357Y-16749929D01*
X18379071Y-16735643D01*
X18364786Y-16707071D01*
X18364786Y-16621357D01*
X18379071Y-16592786D01*
X18393357Y-16578500D01*
X18421928Y-16564214D01*
X18464786Y-16564214D01*
X18493357Y-16578500D01*
X18507643Y-16592786D01*
X18521928Y-16621357D01*
X18521928Y-16707071D01*
X18507643Y-16735643D01*
X18493357Y-16749929D01*
X18464786Y-16764214D01*
X18421928Y-16764214D01*
X18693357Y-16764214D02*
X18664786Y-16749929D01*
X18650500Y-16721357D01*
X18650500Y-16464214D01*
X18921928Y-16749929D02*
X18893357Y-16764214D01*
X18836214Y-16764214D01*
X18807643Y-16749929D01*
X18793357Y-16721357D01*
X18793357Y-16607071D01*
X18807643Y-16578500D01*
X18836214Y-16564214D01*
X18893357Y-16564214D01*
X18921928Y-16578500D01*
X18936214Y-16607071D01*
X18936214Y-16635643D01*
X18793357Y-16664214D01*
X19050500Y-16749929D02*
X19079071Y-16764214D01*
X19136214Y-16764214D01*
X19164786Y-16749929D01*
X19179071Y-16721357D01*
X19179071Y-16707071D01*
X19164786Y-16678500D01*
X19136214Y-16664214D01*
X19093357Y-16664214D01*
X19064786Y-16649929D01*
X19050500Y-16621357D01*
X19050500Y-16607071D01*
X19064786Y-16578500D01*
X19093357Y-16564214D01*
X19136214Y-16564214D01*
X19164786Y-16578500D01*
X19279071Y-16878500D02*
X19293357Y-16864214D01*
X19321928Y-16821357D01*
X19336214Y-16792786D01*
X19350500Y-16749929D01*
X19364786Y-16678500D01*
X19364786Y-16621357D01*
X19350500Y-16549929D01*
X19336214Y-16507071D01*
X19321928Y-16478500D01*
X19293357Y-16435643D01*
X19279071Y-16421357D01*
X11890500Y-17069500D02*
X11935500Y-17024500D01*
X11890500Y-16979500D01*
X11845500Y-17024500D01*
X11890500Y-17069500D01*
X12279071Y-16860214D02*
X12307643Y-16860214D01*
X12336214Y-16874500D01*
X12350500Y-16888786D01*
X12364786Y-16917357D01*
X12379071Y-16974500D01*
X12379071Y-17045929D01*
X12364786Y-17103072D01*
X12350500Y-17131643D01*
X12336214Y-17145929D01*
X12307643Y-17160214D01*
X12279071Y-17160214D01*
X12250500Y-17145929D01*
X12236214Y-17131643D01*
X12221928Y-17103072D01*
X12207643Y-17045929D01*
X12207643Y-16974500D01*
X12221928Y-16917357D01*
X12236214Y-16888786D01*
X12250500Y-16874500D01*
X12279071Y-16860214D01*
X12507643Y-17131643D02*
X12521928Y-17145929D01*
X12507643Y-17160214D01*
X12493357Y-17145929D01*
X12507643Y-17131643D01*
X12507643Y-17160214D01*
X12664786Y-17160214D02*
X12721928Y-17160214D01*
X12750500Y-17145929D01*
X12764786Y-17131643D01*
X12793357Y-17088786D01*
X12807643Y-17031643D01*
X12807643Y-16917357D01*
X12793357Y-16888786D01*
X12779071Y-16874500D01*
X12750500Y-16860214D01*
X12693357Y-16860214D01*
X12664786Y-16874500D01*
X12650500Y-16888786D01*
X12636214Y-16917357D01*
X12636214Y-16988786D01*
X12650500Y-17017357D01*
X12664786Y-17031643D01*
X12693357Y-17045929D01*
X12750500Y-17045929D01*
X12779071Y-17031643D01*
X12793357Y-17017357D01*
X12807643Y-16988786D01*
X12993357Y-16860214D02*
X13021928Y-16860214D01*
X13050500Y-16874500D01*
X13064786Y-16888786D01*
X13079071Y-16917357D01*
X13093357Y-16974500D01*
X13093357Y-17045929D01*
X13079071Y-17103072D01*
X13064786Y-17131643D01*
X13050500Y-17145929D01*
X13021928Y-17160214D01*
X12993357Y-17160214D01*
X12964786Y-17145929D01*
X12950500Y-17131643D01*
X12936214Y-17103072D01*
X12921928Y-17045929D01*
X12921928Y-16974500D01*
X12936214Y-16917357D01*
X12950500Y-16888786D01*
X12964786Y-16874500D01*
X12993357Y-16860214D01*
X13279071Y-16860214D02*
X13307643Y-16860214D01*
X13336214Y-16874500D01*
X13350500Y-16888786D01*
X13364786Y-16917357D01*
X13379071Y-16974500D01*
X13379071Y-17045929D01*
X13364786Y-17103072D01*
X13350500Y-17131643D01*
X13336214Y-17145929D01*
X13307643Y-17160214D01*
X13279071Y-17160214D01*
X13250500Y-17145929D01*
X13236214Y-17131643D01*
X13221928Y-17103072D01*
X13207643Y-17045929D01*
X13207643Y-16974500D01*
X13221928Y-16917357D01*
X13236214Y-16888786D01*
X13250500Y-16874500D01*
X13279071Y-16860214D01*
X13507643Y-17160214D02*
X13507643Y-16960214D01*
X13507643Y-16988786D02*
X13521928Y-16974500D01*
X13550500Y-16960214D01*
X13593357Y-16960214D01*
X13621928Y-16974500D01*
X13636214Y-17003072D01*
X13636214Y-17160214D01*
X13636214Y-17003072D02*
X13650500Y-16974500D01*
X13679071Y-16960214D01*
X13721928Y-16960214D01*
X13750500Y-16974500D01*
X13764786Y-17003072D01*
X13764786Y-17160214D01*
X13907643Y-17160214D02*
X13907643Y-16960214D01*
X13907643Y-16988786D02*
X13921928Y-16974500D01*
X13950500Y-16960214D01*
X13993357Y-16960214D01*
X14021928Y-16974500D01*
X14036214Y-17003072D01*
X14036214Y-17160214D01*
X14036214Y-17003072D02*
X14050500Y-16974500D01*
X14079071Y-16960214D01*
X14121928Y-16960214D01*
X14150500Y-16974500D01*
X14164786Y-17003072D01*
X14164786Y-17160214D01*
X14750500Y-16845929D02*
X14493357Y-17231643D01*
X15136214Y-16860214D02*
X15164786Y-16860214D01*
X15193357Y-16874500D01*
X15207643Y-16888786D01*
X15221928Y-16917357D01*
X15236214Y-16974500D01*
X15236214Y-17045929D01*
X15221928Y-17103072D01*
X15207643Y-17131643D01*
X15193357Y-17145929D01*
X15164786Y-17160214D01*
X15136214Y-17160214D01*
X15107643Y-17145929D01*
X15093357Y-17131643D01*
X15079071Y-17103072D01*
X15064786Y-17045929D01*
X15064786Y-16974500D01*
X15079071Y-16917357D01*
X15093357Y-16888786D01*
X15107643Y-16874500D01*
X15136214Y-16860214D01*
X15364786Y-17131643D02*
X15379071Y-17145929D01*
X15364786Y-17160214D01*
X15350500Y-17145929D01*
X15364786Y-17131643D01*
X15364786Y-17160214D01*
X15564786Y-16860214D02*
X15593357Y-16860214D01*
X15621928Y-16874500D01*
X15636214Y-16888786D01*
X15650500Y-16917357D01*
X15664786Y-16974500D01*
X15664786Y-17045929D01*
X15650500Y-17103072D01*
X15636214Y-17131643D01*
X15621928Y-17145929D01*
X15593357Y-17160214D01*
X15564786Y-17160214D01*
X15536214Y-17145929D01*
X15521928Y-17131643D01*
X15507643Y-17103072D01*
X15493357Y-17045929D01*
X15493357Y-16974500D01*
X15507643Y-16917357D01*
X15521928Y-16888786D01*
X15536214Y-16874500D01*
X15564786Y-16860214D01*
X15764786Y-16860214D02*
X15950500Y-16860214D01*
X15850500Y-16974500D01*
X15893357Y-16974500D01*
X15921928Y-16988786D01*
X15936214Y-17003072D01*
X15950500Y-17031643D01*
X15950500Y-17103072D01*
X15936214Y-17131643D01*
X15921928Y-17145929D01*
X15893357Y-17160214D01*
X15807643Y-17160214D01*
X15779071Y-17145929D01*
X15764786Y-17131643D01*
X16221928Y-16860214D02*
X16079071Y-16860214D01*
X16064786Y-17003072D01*
X16079071Y-16988786D01*
X16107643Y-16974500D01*
X16179071Y-16974500D01*
X16207643Y-16988786D01*
X16221928Y-17003072D01*
X16236214Y-17031643D01*
X16236214Y-17103072D01*
X16221928Y-17131643D01*
X16207643Y-17145929D01*
X16179071Y-17160214D01*
X16107643Y-17160214D01*
X16079071Y-17145929D01*
X16064786Y-17131643D01*
X16493357Y-16960214D02*
X16493357Y-17160214D01*
X16421928Y-16845929D02*
X16350500Y-17060214D01*
X16536214Y-17060214D01*
X16636214Y-16860214D02*
X16636214Y-16917357D01*
X16750500Y-16860214D02*
X16750500Y-16917357D01*
X17193357Y-17274500D02*
X17179071Y-17260214D01*
X17150500Y-17217357D01*
X17136214Y-17188786D01*
X17121928Y-17145929D01*
X17107643Y-17074500D01*
X17107643Y-17017357D01*
X17121928Y-16945929D01*
X17136214Y-16903072D01*
X17150500Y-16874500D01*
X17179071Y-16831643D01*
X17193357Y-16817357D01*
X17464786Y-17160214D02*
X17293357Y-17160214D01*
X17379071Y-17160214D02*
X17379071Y-16860214D01*
X17350500Y-16903072D01*
X17321928Y-16931643D01*
X17293357Y-16945929D01*
X17650500Y-16860214D02*
X17679071Y-16860214D01*
X17707643Y-16874500D01*
X17721928Y-16888786D01*
X17736214Y-16917357D01*
X17750500Y-16974500D01*
X17750500Y-17045929D01*
X17736214Y-17103072D01*
X17721928Y-17131643D01*
X17707643Y-17145929D01*
X17679071Y-17160214D01*
X17650500Y-17160214D01*
X17621928Y-17145929D01*
X17607643Y-17131643D01*
X17593357Y-17103072D01*
X17579071Y-17045929D01*
X17579071Y-16974500D01*
X17593357Y-16917357D01*
X17607643Y-16888786D01*
X17621928Y-16874500D01*
X17650500Y-16860214D01*
X18107643Y-17160214D02*
X18107643Y-16860214D01*
X18236214Y-17160214D02*
X18236214Y-17003072D01*
X18221928Y-16974500D01*
X18193357Y-16960214D01*
X18150500Y-16960214D01*
X18121928Y-16974500D01*
X18107643Y-16988786D01*
X18421928Y-17160214D02*
X18393357Y-17145929D01*
X18379071Y-17131643D01*
X18364786Y-17103072D01*
X18364786Y-17017357D01*
X18379071Y-16988786D01*
X18393357Y-16974500D01*
X18421928Y-16960214D01*
X18464786Y-16960214D01*
X18493357Y-16974500D01*
X18507643Y-16988786D01*
X18521928Y-17017357D01*
X18521928Y-17103072D01*
X18507643Y-17131643D01*
X18493357Y-17145929D01*
X18464786Y-17160214D01*
X18421928Y-17160214D01*
X18693357Y-17160214D02*
X18664786Y-17145929D01*
X18650500Y-17117357D01*
X18650500Y-16860214D01*
X18921928Y-17145929D02*
X18893357Y-17160214D01*
X18836214Y-17160214D01*
X18807643Y-17145929D01*
X18793357Y-17117357D01*
X18793357Y-17003072D01*
X18807643Y-16974500D01*
X18836214Y-16960214D01*
X18893357Y-16960214D01*
X18921928Y-16974500D01*
X18936214Y-17003072D01*
X18936214Y-17031643D01*
X18793357Y-17060214D01*
X19050500Y-17145929D02*
X19079071Y-17160214D01*
X19136214Y-17160214D01*
X19164786Y-17145929D01*
X19179071Y-17117357D01*
X19179071Y-17103072D01*
X19164786Y-17074500D01*
X19136214Y-17060214D01*
X19093357Y-17060214D01*
X19064786Y-17045929D01*
X19050500Y-17017357D01*
X19050500Y-17003072D01*
X19064786Y-16974500D01*
X19093357Y-16960214D01*
X19136214Y-16960214D01*
X19164786Y-16974500D01*
X19279071Y-17274500D02*
X19293357Y-17260214D01*
X19321928Y-17217357D01*
X19336214Y-17188786D01*
X19350500Y-17145929D01*
X19364786Y-17074500D01*
X19364786Y-17017357D01*
X19350500Y-16945929D01*
X19336214Y-16903072D01*
X19321928Y-16874500D01*
X19293357Y-16831643D01*
X19279071Y-16817357D01*
X11835500Y-17370500D02*
X11935500Y-17470500D01*
X11935500Y-17370500D02*
X11835500Y-17470500D01*
X11935500Y-17420500D02*
G75*
G03*
X11935500Y-17420500I-50000J0D01*
G01*
X12379071Y-17556214D02*
X12207643Y-17556214D01*
X12293357Y-17556214D02*
X12293357Y-17256214D01*
X12264786Y-17299072D01*
X12236214Y-17327643D01*
X12207643Y-17341929D01*
X12507643Y-17527643D02*
X12521928Y-17541929D01*
X12507643Y-17556214D01*
X12493357Y-17541929D01*
X12507643Y-17527643D01*
X12507643Y-17556214D01*
X12707643Y-17256214D02*
X12736214Y-17256214D01*
X12764786Y-17270500D01*
X12779071Y-17284786D01*
X12793357Y-17313357D01*
X12807643Y-17370500D01*
X12807643Y-17441929D01*
X12793357Y-17499072D01*
X12779071Y-17527643D01*
X12764786Y-17541929D01*
X12736214Y-17556214D01*
X12707643Y-17556214D01*
X12679071Y-17541929D01*
X12664786Y-17527643D01*
X12650500Y-17499072D01*
X12636214Y-17441929D01*
X12636214Y-17370500D01*
X12650500Y-17313357D01*
X12664786Y-17284786D01*
X12679071Y-17270500D01*
X12707643Y-17256214D01*
X12993357Y-17256214D02*
X13021928Y-17256214D01*
X13050500Y-17270500D01*
X13064786Y-17284786D01*
X13079071Y-17313357D01*
X13093357Y-17370500D01*
X13093357Y-17441929D01*
X13079071Y-17499072D01*
X13064786Y-17527643D01*
X13050500Y-17541929D01*
X13021928Y-17556214D01*
X12993357Y-17556214D01*
X12964786Y-17541929D01*
X12950500Y-17527643D01*
X12936214Y-17499072D01*
X12921928Y-17441929D01*
X12921928Y-17370500D01*
X12936214Y-17313357D01*
X12950500Y-17284786D01*
X12964786Y-17270500D01*
X12993357Y-17256214D01*
X13279071Y-17256214D02*
X13307643Y-17256214D01*
X13336214Y-17270500D01*
X13350500Y-17284786D01*
X13364786Y-17313357D01*
X13379071Y-17370500D01*
X13379071Y-17441929D01*
X13364786Y-17499072D01*
X13350500Y-17527643D01*
X13336214Y-17541929D01*
X13307643Y-17556214D01*
X13279071Y-17556214D01*
X13250500Y-17541929D01*
X13236214Y-17527643D01*
X13221928Y-17499072D01*
X13207643Y-17441929D01*
X13207643Y-17370500D01*
X13221928Y-17313357D01*
X13236214Y-17284786D01*
X13250500Y-17270500D01*
X13279071Y-17256214D01*
X13507643Y-17556214D02*
X13507643Y-17356214D01*
X13507643Y-17384786D02*
X13521928Y-17370500D01*
X13550500Y-17356214D01*
X13593357Y-17356214D01*
X13621928Y-17370500D01*
X13636214Y-17399072D01*
X13636214Y-17556214D01*
X13636214Y-17399072D02*
X13650500Y-17370500D01*
X13679071Y-17356214D01*
X13721928Y-17356214D01*
X13750500Y-17370500D01*
X13764786Y-17399072D01*
X13764786Y-17556214D01*
X13907643Y-17556214D02*
X13907643Y-17356214D01*
X13907643Y-17384786D02*
X13921928Y-17370500D01*
X13950500Y-17356214D01*
X13993357Y-17356214D01*
X14021928Y-17370500D01*
X14036214Y-17399072D01*
X14036214Y-17556214D01*
X14036214Y-17399072D02*
X14050500Y-17370500D01*
X14079071Y-17356214D01*
X14121928Y-17356214D01*
X14150500Y-17370500D01*
X14164786Y-17399072D01*
X14164786Y-17556214D01*
X14750500Y-17241929D02*
X14493357Y-17627643D01*
X15136214Y-17256214D02*
X15164786Y-17256214D01*
X15193357Y-17270500D01*
X15207643Y-17284786D01*
X15221928Y-17313357D01*
X15236214Y-17370500D01*
X15236214Y-17441929D01*
X15221928Y-17499072D01*
X15207643Y-17527643D01*
X15193357Y-17541929D01*
X15164786Y-17556214D01*
X15136214Y-17556214D01*
X15107643Y-17541929D01*
X15093357Y-17527643D01*
X15079071Y-17499072D01*
X15064786Y-17441929D01*
X15064786Y-17370500D01*
X15079071Y-17313357D01*
X15093357Y-17284786D01*
X15107643Y-17270500D01*
X15136214Y-17256214D01*
X15364786Y-17527643D02*
X15379071Y-17541929D01*
X15364786Y-17556214D01*
X15350500Y-17541929D01*
X15364786Y-17527643D01*
X15364786Y-17556214D01*
X15564786Y-17256214D02*
X15593357Y-17256214D01*
X15621928Y-17270500D01*
X15636214Y-17284786D01*
X15650500Y-17313357D01*
X15664786Y-17370500D01*
X15664786Y-17441929D01*
X15650500Y-17499072D01*
X15636214Y-17527643D01*
X15621928Y-17541929D01*
X15593357Y-17556214D01*
X15564786Y-17556214D01*
X15536214Y-17541929D01*
X15521928Y-17527643D01*
X15507643Y-17499072D01*
X15493357Y-17441929D01*
X15493357Y-17370500D01*
X15507643Y-17313357D01*
X15521928Y-17284786D01*
X15536214Y-17270500D01*
X15564786Y-17256214D01*
X15764786Y-17256214D02*
X15950500Y-17256214D01*
X15850500Y-17370500D01*
X15893357Y-17370500D01*
X15921928Y-17384786D01*
X15936214Y-17399072D01*
X15950500Y-17427643D01*
X15950500Y-17499072D01*
X15936214Y-17527643D01*
X15921928Y-17541929D01*
X15893357Y-17556214D01*
X15807643Y-17556214D01*
X15779071Y-17541929D01*
X15764786Y-17527643D01*
X16093357Y-17556214D02*
X16150500Y-17556214D01*
X16179071Y-17541929D01*
X16193357Y-17527643D01*
X16221928Y-17484786D01*
X16236214Y-17427643D01*
X16236214Y-17313357D01*
X16221928Y-17284786D01*
X16207643Y-17270500D01*
X16179071Y-17256214D01*
X16121928Y-17256214D01*
X16093357Y-17270500D01*
X16079071Y-17284786D01*
X16064786Y-17313357D01*
X16064786Y-17384786D01*
X16079071Y-17413357D01*
X16093357Y-17427643D01*
X16121928Y-17441929D01*
X16179071Y-17441929D01*
X16207643Y-17427643D01*
X16221928Y-17413357D01*
X16236214Y-17384786D01*
X16493357Y-17356214D02*
X16493357Y-17556214D01*
X16421928Y-17241929D02*
X16350500Y-17456214D01*
X16536214Y-17456214D01*
X16636214Y-17256214D02*
X16636214Y-17313357D01*
X16750500Y-17256214D02*
X16750500Y-17313357D01*
X17193357Y-17670500D02*
X17179071Y-17656214D01*
X17150500Y-17613357D01*
X17136214Y-17584786D01*
X17121928Y-17541929D01*
X17107643Y-17470500D01*
X17107643Y-17413357D01*
X17121928Y-17341929D01*
X17136214Y-17299072D01*
X17150500Y-17270500D01*
X17179071Y-17227643D01*
X17193357Y-17213357D01*
X17450500Y-17256214D02*
X17307643Y-17256214D01*
X17293357Y-17399072D01*
X17307643Y-17384786D01*
X17336214Y-17370500D01*
X17407643Y-17370500D01*
X17436214Y-17384786D01*
X17450500Y-17399072D01*
X17464786Y-17427643D01*
X17464786Y-17499072D01*
X17450500Y-17527643D01*
X17436214Y-17541929D01*
X17407643Y-17556214D01*
X17336214Y-17556214D01*
X17307643Y-17541929D01*
X17293357Y-17527643D01*
X17721928Y-17356214D02*
X17721928Y-17556214D01*
X17650500Y-17241929D02*
X17579071Y-17456214D01*
X17764786Y-17456214D01*
X18107643Y-17556214D02*
X18107643Y-17256214D01*
X18236214Y-17556214D02*
X18236214Y-17399072D01*
X18221928Y-17370500D01*
X18193357Y-17356214D01*
X18150500Y-17356214D01*
X18121928Y-17370500D01*
X18107643Y-17384786D01*
X18421928Y-17556214D02*
X18393357Y-17541929D01*
X18379071Y-17527643D01*
X18364786Y-17499072D01*
X18364786Y-17413357D01*
X18379071Y-17384786D01*
X18393357Y-17370500D01*
X18421928Y-17356214D01*
X18464786Y-17356214D01*
X18493357Y-17370500D01*
X18507643Y-17384786D01*
X18521928Y-17413357D01*
X18521928Y-17499072D01*
X18507643Y-17527643D01*
X18493357Y-17541929D01*
X18464786Y-17556214D01*
X18421928Y-17556214D01*
X18693357Y-17556214D02*
X18664786Y-17541929D01*
X18650500Y-17513357D01*
X18650500Y-17256214D01*
X18921928Y-17541929D02*
X18893357Y-17556214D01*
X18836214Y-17556214D01*
X18807643Y-17541929D01*
X18793357Y-17513357D01*
X18793357Y-17399072D01*
X18807643Y-17370500D01*
X18836214Y-17356214D01*
X18893357Y-17356214D01*
X18921928Y-17370500D01*
X18936214Y-17399072D01*
X18936214Y-17427643D01*
X18793357Y-17456214D01*
X19050500Y-17541929D02*
X19079071Y-17556214D01*
X19136214Y-17556214D01*
X19164786Y-17541929D01*
X19179071Y-17513357D01*
X19179071Y-17499072D01*
X19164786Y-17470500D01*
X19136214Y-17456214D01*
X19093357Y-17456214D01*
X19064786Y-17441929D01*
X19050500Y-17413357D01*
X19050500Y-17399072D01*
X19064786Y-17370500D01*
X19093357Y-17356214D01*
X19136214Y-17356214D01*
X19164786Y-17370500D01*
X19279071Y-17670500D02*
X19293357Y-17656214D01*
X19321928Y-17613357D01*
X19336214Y-17584786D01*
X19350500Y-17541929D01*
X19364786Y-17470500D01*
X19364786Y-17413357D01*
X19350500Y-17341929D01*
X19336214Y-17299072D01*
X19321928Y-17270500D01*
X19293357Y-17227643D01*
X19279071Y-17213357D01*
X11825500Y-17761500D02*
X11935500Y-17871500D01*
X11935500Y-17761500D02*
X11825500Y-17871500D01*
X11880500Y-17761500D02*
X11880500Y-17871500D01*
X11825500Y-17816500D02*
X11935500Y-17816500D01*
X12379071Y-17952214D02*
X12207643Y-17952214D01*
X12293357Y-17952214D02*
X12293357Y-17652214D01*
X12264786Y-17695072D01*
X12236214Y-17723643D01*
X12207643Y-17737929D01*
X12507643Y-17923643D02*
X12521928Y-17937929D01*
X12507643Y-17952214D01*
X12493357Y-17937929D01*
X12507643Y-17923643D01*
X12507643Y-17952214D01*
X12807643Y-17952214D02*
X12636214Y-17952214D01*
X12721928Y-17952214D02*
X12721928Y-17652214D01*
X12693357Y-17695072D01*
X12664786Y-17723643D01*
X12636214Y-17737929D01*
X12993357Y-17652214D02*
X13021928Y-17652214D01*
X13050500Y-17666500D01*
X13064786Y-17680786D01*
X13079071Y-17709357D01*
X13093357Y-17766500D01*
X13093357Y-17837929D01*
X13079071Y-17895072D01*
X13064786Y-17923643D01*
X13050500Y-17937929D01*
X13021928Y-17952214D01*
X12993357Y-17952214D01*
X12964786Y-17937929D01*
X12950500Y-17923643D01*
X12936214Y-17895072D01*
X12921928Y-17837929D01*
X12921928Y-17766500D01*
X12936214Y-17709357D01*
X12950500Y-17680786D01*
X12964786Y-17666500D01*
X12993357Y-17652214D01*
X13279071Y-17652214D02*
X13307643Y-17652214D01*
X13336214Y-17666500D01*
X13350500Y-17680786D01*
X13364786Y-17709357D01*
X13379071Y-17766500D01*
X13379071Y-17837929D01*
X13364786Y-17895072D01*
X13350500Y-17923643D01*
X13336214Y-17937929D01*
X13307643Y-17952214D01*
X13279071Y-17952214D01*
X13250500Y-17937929D01*
X13236214Y-17923643D01*
X13221928Y-17895072D01*
X13207643Y-17837929D01*
X13207643Y-17766500D01*
X13221928Y-17709357D01*
X13236214Y-17680786D01*
X13250500Y-17666500D01*
X13279071Y-17652214D01*
X13507643Y-17952214D02*
X13507643Y-17752214D01*
X13507643Y-17780786D02*
X13521928Y-17766500D01*
X13550500Y-17752214D01*
X13593357Y-17752214D01*
X13621928Y-17766500D01*
X13636214Y-17795072D01*
X13636214Y-17952214D01*
X13636214Y-17795072D02*
X13650500Y-17766500D01*
X13679071Y-17752214D01*
X13721928Y-17752214D01*
X13750500Y-17766500D01*
X13764786Y-17795072D01*
X13764786Y-17952214D01*
X13907643Y-17952214D02*
X13907643Y-17752214D01*
X13907643Y-17780786D02*
X13921928Y-17766500D01*
X13950500Y-17752214D01*
X13993357Y-17752214D01*
X14021928Y-17766500D01*
X14036214Y-17795072D01*
X14036214Y-17952214D01*
X14036214Y-17795072D02*
X14050500Y-17766500D01*
X14079071Y-17752214D01*
X14121928Y-17752214D01*
X14150500Y-17766500D01*
X14164786Y-17795072D01*
X14164786Y-17952214D01*
X14750500Y-17637929D02*
X14493357Y-18023643D01*
X15136214Y-17652214D02*
X15164786Y-17652214D01*
X15193357Y-17666500D01*
X15207643Y-17680786D01*
X15221928Y-17709357D01*
X15236214Y-17766500D01*
X15236214Y-17837929D01*
X15221928Y-17895072D01*
X15207643Y-17923643D01*
X15193357Y-17937929D01*
X15164786Y-17952214D01*
X15136214Y-17952214D01*
X15107643Y-17937929D01*
X15093357Y-17923643D01*
X15079071Y-17895072D01*
X15064786Y-17837929D01*
X15064786Y-17766500D01*
X15079071Y-17709357D01*
X15093357Y-17680786D01*
X15107643Y-17666500D01*
X15136214Y-17652214D01*
X15364786Y-17923643D02*
X15379071Y-17937929D01*
X15364786Y-17952214D01*
X15350500Y-17937929D01*
X15364786Y-17923643D01*
X15364786Y-17952214D01*
X15564786Y-17652214D02*
X15593357Y-17652214D01*
X15621928Y-17666500D01*
X15636214Y-17680786D01*
X15650500Y-17709357D01*
X15664786Y-17766500D01*
X15664786Y-17837929D01*
X15650500Y-17895072D01*
X15636214Y-17923643D01*
X15621928Y-17937929D01*
X15593357Y-17952214D01*
X15564786Y-17952214D01*
X15536214Y-17937929D01*
X15521928Y-17923643D01*
X15507643Y-17895072D01*
X15493357Y-17837929D01*
X15493357Y-17766500D01*
X15507643Y-17709357D01*
X15521928Y-17680786D01*
X15536214Y-17666500D01*
X15564786Y-17652214D01*
X15921928Y-17752214D02*
X15921928Y-17952214D01*
X15850500Y-17637929D02*
X15779071Y-17852214D01*
X15964786Y-17852214D01*
X16050500Y-17652214D02*
X16236214Y-17652214D01*
X16136214Y-17766500D01*
X16179071Y-17766500D01*
X16207643Y-17780786D01*
X16221928Y-17795072D01*
X16236214Y-17823643D01*
X16236214Y-17895072D01*
X16221928Y-17923643D01*
X16207643Y-17937929D01*
X16179071Y-17952214D01*
X16093357Y-17952214D01*
X16064786Y-17937929D01*
X16050500Y-17923643D01*
X16336214Y-17652214D02*
X16521928Y-17652214D01*
X16421928Y-17766500D01*
X16464786Y-17766500D01*
X16493357Y-17780786D01*
X16507643Y-17795072D01*
X16521928Y-17823643D01*
X16521928Y-17895072D01*
X16507643Y-17923643D01*
X16493357Y-17937929D01*
X16464786Y-17952214D01*
X16379071Y-17952214D01*
X16350500Y-17937929D01*
X16336214Y-17923643D01*
X16636214Y-17652214D02*
X16636214Y-17709357D01*
X16750500Y-17652214D02*
X16750500Y-17709357D01*
X17193357Y-18066500D02*
X17179071Y-18052214D01*
X17150500Y-18009357D01*
X17136214Y-17980786D01*
X17121928Y-17937929D01*
X17107643Y-17866500D01*
X17107643Y-17809357D01*
X17121928Y-17737929D01*
X17136214Y-17695072D01*
X17150500Y-17666500D01*
X17179071Y-17623643D01*
X17193357Y-17609357D01*
X17436214Y-17752214D02*
X17436214Y-17952214D01*
X17364786Y-17637929D02*
X17293357Y-17852214D01*
X17479071Y-17852214D01*
X17821928Y-17952214D02*
X17821928Y-17652214D01*
X17950500Y-17952214D02*
X17950500Y-17795072D01*
X17936214Y-17766500D01*
X17907643Y-17752214D01*
X17864786Y-17752214D01*
X17836214Y-17766500D01*
X17821928Y-17780786D01*
X18136214Y-17952214D02*
X18107643Y-17937929D01*
X18093357Y-17923643D01*
X18079071Y-17895072D01*
X18079071Y-17809357D01*
X18093357Y-17780786D01*
X18107643Y-17766500D01*
X18136214Y-17752214D01*
X18179071Y-17752214D01*
X18207643Y-17766500D01*
X18221928Y-17780786D01*
X18236214Y-17809357D01*
X18236214Y-17895072D01*
X18221928Y-17923643D01*
X18207643Y-17937929D01*
X18179071Y-17952214D01*
X18136214Y-17952214D01*
X18407643Y-17952214D02*
X18379071Y-17937929D01*
X18364786Y-17909357D01*
X18364786Y-17652214D01*
X18636214Y-17937929D02*
X18607643Y-17952214D01*
X18550500Y-17952214D01*
X18521928Y-17937929D01*
X18507643Y-17909357D01*
X18507643Y-17795072D01*
X18521928Y-17766500D01*
X18550500Y-17752214D01*
X18607643Y-17752214D01*
X18636214Y-17766500D01*
X18650500Y-17795072D01*
X18650500Y-17823643D01*
X18507643Y-17852214D01*
X18764786Y-17937929D02*
X18793357Y-17952214D01*
X18850500Y-17952214D01*
X18879071Y-17937929D01*
X18893357Y-17909357D01*
X18893357Y-17895072D01*
X18879071Y-17866500D01*
X18850500Y-17852214D01*
X18807643Y-17852214D01*
X18779071Y-17837929D01*
X18764786Y-17809357D01*
X18764786Y-17795072D01*
X18779071Y-17766500D01*
X18807643Y-17752214D01*
X18850500Y-17752214D01*
X18879071Y-17766500D01*
X18993357Y-18066500D02*
X19007643Y-18052214D01*
X19036214Y-18009357D01*
X19050500Y-17980786D01*
X19064786Y-17937929D01*
X19079071Y-17866500D01*
X19079071Y-17809357D01*
X19064786Y-17737929D01*
X19050500Y-17695072D01*
X19036214Y-17666500D01*
X19007643Y-17623643D01*
X18993357Y-17609357D01*
X11805500Y-18147500D02*
X11935500Y-18277500D01*
X11935500Y-18147500D02*
X11805500Y-18277500D01*
X11916462Y-18258463D02*
X11916462Y-18166538D01*
X11824537Y-18166538D01*
X11824537Y-18258463D01*
X11916462Y-18258463D01*
X12379071Y-18348214D02*
X12207643Y-18348214D01*
X12293357Y-18348214D02*
X12293357Y-18048214D01*
X12264786Y-18091072D01*
X12236214Y-18119643D01*
X12207643Y-18133929D01*
X12507643Y-18319643D02*
X12521928Y-18333929D01*
X12507643Y-18348214D01*
X12493357Y-18333929D01*
X12507643Y-18319643D01*
X12507643Y-18348214D01*
X12621928Y-18048214D02*
X12807643Y-18048214D01*
X12707643Y-18162500D01*
X12750500Y-18162500D01*
X12779071Y-18176786D01*
X12793357Y-18191072D01*
X12807643Y-18219643D01*
X12807643Y-18291072D01*
X12793357Y-18319643D01*
X12779071Y-18333929D01*
X12750500Y-18348214D01*
X12664786Y-18348214D01*
X12636214Y-18333929D01*
X12621928Y-18319643D01*
X12993357Y-18048214D02*
X13021928Y-18048214D01*
X13050500Y-18062500D01*
X13064786Y-18076786D01*
X13079071Y-18105357D01*
X13093357Y-18162500D01*
X13093357Y-18233929D01*
X13079071Y-18291072D01*
X13064786Y-18319643D01*
X13050500Y-18333929D01*
X13021928Y-18348214D01*
X12993357Y-18348214D01*
X12964786Y-18333929D01*
X12950500Y-18319643D01*
X12936214Y-18291072D01*
X12921928Y-18233929D01*
X12921928Y-18162500D01*
X12936214Y-18105357D01*
X12950500Y-18076786D01*
X12964786Y-18062500D01*
X12993357Y-18048214D01*
X13279071Y-18048214D02*
X13307643Y-18048214D01*
X13336214Y-18062500D01*
X13350500Y-18076786D01*
X13364786Y-18105357D01*
X13379071Y-18162500D01*
X13379071Y-18233929D01*
X13364786Y-18291072D01*
X13350500Y-18319643D01*
X13336214Y-18333929D01*
X13307643Y-18348214D01*
X13279071Y-18348214D01*
X13250500Y-18333929D01*
X13236214Y-18319643D01*
X13221928Y-18291072D01*
X13207643Y-18233929D01*
X13207643Y-18162500D01*
X13221928Y-18105357D01*
X13236214Y-18076786D01*
X13250500Y-18062500D01*
X13279071Y-18048214D01*
X13507643Y-18348214D02*
X13507643Y-18148214D01*
X13507643Y-18176786D02*
X13521928Y-18162500D01*
X13550500Y-18148214D01*
X13593357Y-18148214D01*
X13621928Y-18162500D01*
X13636214Y-18191072D01*
X13636214Y-18348214D01*
X13636214Y-18191072D02*
X13650500Y-18162500D01*
X13679071Y-18148214D01*
X13721928Y-18148214D01*
X13750500Y-18162500D01*
X13764786Y-18191072D01*
X13764786Y-18348214D01*
X13907643Y-18348214D02*
X13907643Y-18148214D01*
X13907643Y-18176786D02*
X13921928Y-18162500D01*
X13950500Y-18148214D01*
X13993357Y-18148214D01*
X14021928Y-18162500D01*
X14036214Y-18191072D01*
X14036214Y-18348214D01*
X14036214Y-18191072D02*
X14050500Y-18162500D01*
X14079071Y-18148214D01*
X14121928Y-18148214D01*
X14150500Y-18162500D01*
X14164786Y-18191072D01*
X14164786Y-18348214D01*
X14750500Y-18033929D02*
X14493357Y-18419643D01*
X15136214Y-18048214D02*
X15164786Y-18048214D01*
X15193357Y-18062500D01*
X15207643Y-18076786D01*
X15221928Y-18105357D01*
X15236214Y-18162500D01*
X15236214Y-18233929D01*
X15221928Y-18291072D01*
X15207643Y-18319643D01*
X15193357Y-18333929D01*
X15164786Y-18348214D01*
X15136214Y-18348214D01*
X15107643Y-18333929D01*
X15093357Y-18319643D01*
X15079071Y-18291072D01*
X15064786Y-18233929D01*
X15064786Y-18162500D01*
X15079071Y-18105357D01*
X15093357Y-18076786D01*
X15107643Y-18062500D01*
X15136214Y-18048214D01*
X15364786Y-18319643D02*
X15379071Y-18333929D01*
X15364786Y-18348214D01*
X15350500Y-18333929D01*
X15364786Y-18319643D01*
X15364786Y-18348214D01*
X15564786Y-18048214D02*
X15593357Y-18048214D01*
X15621928Y-18062500D01*
X15636214Y-18076786D01*
X15650500Y-18105357D01*
X15664786Y-18162500D01*
X15664786Y-18233929D01*
X15650500Y-18291072D01*
X15636214Y-18319643D01*
X15621928Y-18333929D01*
X15593357Y-18348214D01*
X15564786Y-18348214D01*
X15536214Y-18333929D01*
X15521928Y-18319643D01*
X15507643Y-18291072D01*
X15493357Y-18233929D01*
X15493357Y-18162500D01*
X15507643Y-18105357D01*
X15521928Y-18076786D01*
X15536214Y-18062500D01*
X15564786Y-18048214D01*
X15936214Y-18048214D02*
X15793357Y-18048214D01*
X15779071Y-18191072D01*
X15793357Y-18176786D01*
X15821928Y-18162500D01*
X15893357Y-18162500D01*
X15921928Y-18176786D01*
X15936214Y-18191072D01*
X15950500Y-18219643D01*
X15950500Y-18291072D01*
X15936214Y-18319643D01*
X15921928Y-18333929D01*
X15893357Y-18348214D01*
X15821928Y-18348214D01*
X15793357Y-18333929D01*
X15779071Y-18319643D01*
X16236214Y-18348214D02*
X16064786Y-18348214D01*
X16150500Y-18348214D02*
X16150500Y-18048214D01*
X16121928Y-18091072D01*
X16093357Y-18119643D01*
X16064786Y-18133929D01*
X16350500Y-18076786D02*
X16364786Y-18062500D01*
X16393357Y-18048214D01*
X16464786Y-18048214D01*
X16493357Y-18062500D01*
X16507643Y-18076786D01*
X16521928Y-18105357D01*
X16521928Y-18133929D01*
X16507643Y-18176786D01*
X16336214Y-18348214D01*
X16521928Y-18348214D01*
X16636214Y-18048214D02*
X16636214Y-18105357D01*
X16750500Y-18048214D02*
X16750500Y-18105357D01*
X17193357Y-18462500D02*
X17179071Y-18448214D01*
X17150500Y-18405357D01*
X17136214Y-18376786D01*
X17121928Y-18333929D01*
X17107643Y-18262500D01*
X17107643Y-18205357D01*
X17121928Y-18133929D01*
X17136214Y-18091072D01*
X17150500Y-18062500D01*
X17179071Y-18019643D01*
X17193357Y-18005357D01*
X17279071Y-18048214D02*
X17479071Y-18048214D01*
X17350500Y-18348214D01*
X17821928Y-18348214D02*
X17821928Y-18048214D01*
X17950500Y-18348214D02*
X17950500Y-18191072D01*
X17936214Y-18162500D01*
X17907643Y-18148214D01*
X17864786Y-18148214D01*
X17836214Y-18162500D01*
X17821928Y-18176786D01*
X18136214Y-18348214D02*
X18107643Y-18333929D01*
X18093357Y-18319643D01*
X18079071Y-18291072D01*
X18079071Y-18205357D01*
X18093357Y-18176786D01*
X18107643Y-18162500D01*
X18136214Y-18148214D01*
X18179071Y-18148214D01*
X18207643Y-18162500D01*
X18221928Y-18176786D01*
X18236214Y-18205357D01*
X18236214Y-18291072D01*
X18221928Y-18319643D01*
X18207643Y-18333929D01*
X18179071Y-18348214D01*
X18136214Y-18348214D01*
X18407643Y-18348214D02*
X18379071Y-18333929D01*
X18364786Y-18305357D01*
X18364786Y-18048214D01*
X18636214Y-18333929D02*
X18607643Y-18348214D01*
X18550500Y-18348214D01*
X18521928Y-18333929D01*
X18507643Y-18305357D01*
X18507643Y-18191072D01*
X18521928Y-18162500D01*
X18550500Y-18148214D01*
X18607643Y-18148214D01*
X18636214Y-18162500D01*
X18650500Y-18191072D01*
X18650500Y-18219643D01*
X18507643Y-18248214D01*
X18764786Y-18333929D02*
X18793357Y-18348214D01*
X18850500Y-18348214D01*
X18879071Y-18333929D01*
X18893357Y-18305357D01*
X18893357Y-18291072D01*
X18879071Y-18262500D01*
X18850500Y-18248214D01*
X18807643Y-18248214D01*
X18779071Y-18233929D01*
X18764786Y-18205357D01*
X18764786Y-18191072D01*
X18779071Y-18162500D01*
X18807643Y-18148214D01*
X18850500Y-18148214D01*
X18879071Y-18162500D01*
X18993357Y-18462500D02*
X19007643Y-18448214D01*
X19036214Y-18405357D01*
X19050500Y-18376786D01*
X19064786Y-18333929D01*
X19079071Y-18262500D01*
X19079071Y-18205357D01*
X19064786Y-18133929D01*
X19050500Y-18091072D01*
X19036214Y-18062500D01*
X19007643Y-18019643D01*
X18993357Y-18005357D01*
X11785500Y-18533500D02*
X11935500Y-18683500D01*
X11935500Y-18533500D02*
X11785500Y-18683500D01*
X11860500Y-18683500D02*
X11935500Y-18608500D01*
X11860500Y-18533500D01*
X11785500Y-18608500D01*
X11860500Y-18683500D01*
X12379071Y-18744214D02*
X12207643Y-18744214D01*
X12293357Y-18744214D02*
X12293357Y-18444214D01*
X12264786Y-18487072D01*
X12236214Y-18515643D01*
X12207643Y-18529929D01*
X12507643Y-18715643D02*
X12521928Y-18729929D01*
X12507643Y-18744214D01*
X12493357Y-18729929D01*
X12507643Y-18715643D01*
X12507643Y-18744214D01*
X12793357Y-18444214D02*
X12650500Y-18444214D01*
X12636214Y-18587072D01*
X12650500Y-18572786D01*
X12679071Y-18558500D01*
X12750500Y-18558500D01*
X12779071Y-18572786D01*
X12793357Y-18587072D01*
X12807643Y-18615643D01*
X12807643Y-18687072D01*
X12793357Y-18715643D01*
X12779071Y-18729929D01*
X12750500Y-18744214D01*
X12679071Y-18744214D01*
X12650500Y-18729929D01*
X12636214Y-18715643D01*
X12993357Y-18444214D02*
X13021928Y-18444214D01*
X13050500Y-18458500D01*
X13064786Y-18472786D01*
X13079071Y-18501357D01*
X13093357Y-18558500D01*
X13093357Y-18629929D01*
X13079071Y-18687072D01*
X13064786Y-18715643D01*
X13050500Y-18729929D01*
X13021928Y-18744214D01*
X12993357Y-18744214D01*
X12964786Y-18729929D01*
X12950500Y-18715643D01*
X12936214Y-18687072D01*
X12921928Y-18629929D01*
X12921928Y-18558500D01*
X12936214Y-18501357D01*
X12950500Y-18472786D01*
X12964786Y-18458500D01*
X12993357Y-18444214D01*
X13279071Y-18444214D02*
X13307643Y-18444214D01*
X13336214Y-18458500D01*
X13350500Y-18472786D01*
X13364786Y-18501357D01*
X13379071Y-18558500D01*
X13379071Y-18629929D01*
X13364786Y-18687072D01*
X13350500Y-18715643D01*
X13336214Y-18729929D01*
X13307643Y-18744214D01*
X13279071Y-18744214D01*
X13250500Y-18729929D01*
X13236214Y-18715643D01*
X13221928Y-18687072D01*
X13207643Y-18629929D01*
X13207643Y-18558500D01*
X13221928Y-18501357D01*
X13236214Y-18472786D01*
X13250500Y-18458500D01*
X13279071Y-18444214D01*
X13507643Y-18744214D02*
X13507643Y-18544214D01*
X13507643Y-18572786D02*
X13521928Y-18558500D01*
X13550500Y-18544214D01*
X13593357Y-18544214D01*
X13621928Y-18558500D01*
X13636214Y-18587072D01*
X13636214Y-18744214D01*
X13636214Y-18587072D02*
X13650500Y-18558500D01*
X13679071Y-18544214D01*
X13721928Y-18544214D01*
X13750500Y-18558500D01*
X13764786Y-18587072D01*
X13764786Y-18744214D01*
X13907643Y-18744214D02*
X13907643Y-18544214D01*
X13907643Y-18572786D02*
X13921928Y-18558500D01*
X13950500Y-18544214D01*
X13993357Y-18544214D01*
X14021928Y-18558500D01*
X14036214Y-18587072D01*
X14036214Y-18744214D01*
X14036214Y-18587072D02*
X14050500Y-18558500D01*
X14079071Y-18544214D01*
X14121928Y-18544214D01*
X14150500Y-18558500D01*
X14164786Y-18587072D01*
X14164786Y-18744214D01*
X14750500Y-18429929D02*
X14493357Y-18815643D01*
X15136214Y-18444214D02*
X15164786Y-18444214D01*
X15193357Y-18458500D01*
X15207643Y-18472786D01*
X15221928Y-18501357D01*
X15236214Y-18558500D01*
X15236214Y-18629929D01*
X15221928Y-18687072D01*
X15207643Y-18715643D01*
X15193357Y-18729929D01*
X15164786Y-18744214D01*
X15136214Y-18744214D01*
X15107643Y-18729929D01*
X15093357Y-18715643D01*
X15079071Y-18687072D01*
X15064786Y-18629929D01*
X15064786Y-18558500D01*
X15079071Y-18501357D01*
X15093357Y-18472786D01*
X15107643Y-18458500D01*
X15136214Y-18444214D01*
X15364786Y-18715643D02*
X15379071Y-18729929D01*
X15364786Y-18744214D01*
X15350500Y-18729929D01*
X15364786Y-18715643D01*
X15364786Y-18744214D01*
X15564786Y-18444214D02*
X15593357Y-18444214D01*
X15621928Y-18458500D01*
X15636214Y-18472786D01*
X15650500Y-18501357D01*
X15664786Y-18558500D01*
X15664786Y-18629929D01*
X15650500Y-18687072D01*
X15636214Y-18715643D01*
X15621928Y-18729929D01*
X15593357Y-18744214D01*
X15564786Y-18744214D01*
X15536214Y-18729929D01*
X15521928Y-18715643D01*
X15507643Y-18687072D01*
X15493357Y-18629929D01*
X15493357Y-18558500D01*
X15507643Y-18501357D01*
X15521928Y-18472786D01*
X15536214Y-18458500D01*
X15564786Y-18444214D01*
X15936214Y-18444214D02*
X15793357Y-18444214D01*
X15779071Y-18587072D01*
X15793357Y-18572786D01*
X15821928Y-18558500D01*
X15893357Y-18558500D01*
X15921928Y-18572786D01*
X15936214Y-18587072D01*
X15950500Y-18615643D01*
X15950500Y-18687072D01*
X15936214Y-18715643D01*
X15921928Y-18729929D01*
X15893357Y-18744214D01*
X15821928Y-18744214D01*
X15793357Y-18729929D01*
X15779071Y-18715643D01*
X16093357Y-18744214D02*
X16150500Y-18744214D01*
X16179071Y-18729929D01*
X16193357Y-18715643D01*
X16221928Y-18672786D01*
X16236214Y-18615643D01*
X16236214Y-18501357D01*
X16221928Y-18472786D01*
X16207643Y-18458500D01*
X16179071Y-18444214D01*
X16121928Y-18444214D01*
X16093357Y-18458500D01*
X16079071Y-18472786D01*
X16064786Y-18501357D01*
X16064786Y-18572786D01*
X16079071Y-18601357D01*
X16093357Y-18615643D01*
X16121928Y-18629929D01*
X16179071Y-18629929D01*
X16207643Y-18615643D01*
X16221928Y-18601357D01*
X16236214Y-18572786D01*
X16521928Y-18744214D02*
X16350500Y-18744214D01*
X16436214Y-18744214D02*
X16436214Y-18444214D01*
X16407643Y-18487072D01*
X16379071Y-18515643D01*
X16350500Y-18529929D01*
X16636214Y-18444214D02*
X16636214Y-18501357D01*
X16750500Y-18444214D02*
X16750500Y-18501357D01*
X17193357Y-18858500D02*
X17179071Y-18844214D01*
X17150500Y-18801357D01*
X17136214Y-18772786D01*
X17121928Y-18729929D01*
X17107643Y-18658500D01*
X17107643Y-18601357D01*
X17121928Y-18529929D01*
X17136214Y-18487072D01*
X17150500Y-18458500D01*
X17179071Y-18415643D01*
X17193357Y-18401357D01*
X17293357Y-18472786D02*
X17307643Y-18458500D01*
X17336214Y-18444214D01*
X17407643Y-18444214D01*
X17436214Y-18458500D01*
X17450500Y-18472786D01*
X17464786Y-18501357D01*
X17464786Y-18529929D01*
X17450500Y-18572786D01*
X17279071Y-18744214D01*
X17464786Y-18744214D01*
X17821928Y-18744214D02*
X17821928Y-18444214D01*
X17950500Y-18744214D02*
X17950500Y-18587072D01*
X17936214Y-18558500D01*
X17907643Y-18544214D01*
X17864786Y-18544214D01*
X17836214Y-18558500D01*
X17821928Y-18572786D01*
X18136214Y-18744214D02*
X18107643Y-18729929D01*
X18093357Y-18715643D01*
X18079071Y-18687072D01*
X18079071Y-18601357D01*
X18093357Y-18572786D01*
X18107643Y-18558500D01*
X18136214Y-18544214D01*
X18179071Y-18544214D01*
X18207643Y-18558500D01*
X18221928Y-18572786D01*
X18236214Y-18601357D01*
X18236214Y-18687072D01*
X18221928Y-18715643D01*
X18207643Y-18729929D01*
X18179071Y-18744214D01*
X18136214Y-18744214D01*
X18407643Y-18744214D02*
X18379071Y-18729929D01*
X18364786Y-18701357D01*
X18364786Y-18444214D01*
X18636214Y-18729929D02*
X18607643Y-18744214D01*
X18550500Y-18744214D01*
X18521928Y-18729929D01*
X18507643Y-18701357D01*
X18507643Y-18587072D01*
X18521928Y-18558500D01*
X18550500Y-18544214D01*
X18607643Y-18544214D01*
X18636214Y-18558500D01*
X18650500Y-18587072D01*
X18650500Y-18615643D01*
X18507643Y-18644214D01*
X18764786Y-18729929D02*
X18793357Y-18744214D01*
X18850500Y-18744214D01*
X18879071Y-18729929D01*
X18893357Y-18701357D01*
X18893357Y-18687072D01*
X18879071Y-18658500D01*
X18850500Y-18644214D01*
X18807643Y-18644214D01*
X18779071Y-18629929D01*
X18764786Y-18601357D01*
X18764786Y-18587072D01*
X18779071Y-18558500D01*
X18807643Y-18544214D01*
X18850500Y-18544214D01*
X18879071Y-18558500D01*
X18993357Y-18858500D02*
X19007643Y-18844214D01*
X19036214Y-18801357D01*
X19050500Y-18772786D01*
X19064786Y-18729929D01*
X19079071Y-18658500D01*
X19079071Y-18601357D01*
X19064786Y-18529929D01*
X19050500Y-18487072D01*
X19036214Y-18458500D01*
X19007643Y-18415643D01*
X18993357Y-18401357D01*
M02*
