M48
; DRILL file {KiCad 5.1.12-84ad8e8a86~92~ubuntu16.04.1} date zo 26 jun 2022 12:10:22 CEST
; FORMAT={-:-/ absolute / metric / decimal}
; #@! TF.CreationDate,2022-06-26T12:10:22+02:00
; #@! TF.GenerationSoftware,Kicad,Pcbnew,5.1.12-84ad8e8a86~92~ubuntu16.04.1
; #@! TF.FileFunction,NonPlated,1,2,NPTH
FMAT,2
METRIC
T1C0.800
T2C3.200
T3C4.300
%
G90
G05
T1
X122.514Y-68.98
X122.514Y-70.72
X123.614Y-68.98
X123.614Y-70.72
X124.714Y-68.98
X124.714Y-70.72
X125.814Y-68.98
X125.814Y-70.72
X126.914Y-68.98
X126.914Y-70.72
X130.448Y-54.696
X130.448Y-55.796
X130.448Y-56.896
X130.448Y-57.996
X130.448Y-59.096
X132.188Y-54.696
X132.188Y-55.796
X132.188Y-56.896
X132.188Y-57.996
X132.188Y-59.096
X139.659Y-68.98
X139.659Y-70.72
X140.759Y-68.98
X140.759Y-70.72
X141.859Y-68.98
X141.859Y-70.72
X142.959Y-68.98
X142.959Y-70.72
X144.059Y-68.98
X144.059Y-70.72
X151.53Y-57.871
X151.53Y-58.971
X151.53Y-60.071
X151.53Y-61.171
X151.53Y-62.271
X153.27Y-57.871
X153.27Y-58.971
X153.27Y-60.071
X153.27Y-61.171
X153.27Y-62.271
X169.818Y-50.124
X169.818Y-51.224
X169.818Y-52.324
X169.818Y-53.424
X169.818Y-54.524
X171.812Y-50.124
X171.812Y-51.224
X171.812Y-52.324
X171.812Y-53.424
X171.812Y-54.524
X175.6Y-68.98
X175.6Y-70.72
X176.7Y-68.98
X176.7Y-70.72
X177.8Y-68.98
X177.8Y-70.72
X178.9Y-68.98
X178.9Y-70.72
X180.0Y-68.98
X180.0Y-70.72
T2
X127.0Y-65.196
X141.859Y-65.151
X175.26Y-65.196
T3
X124.46Y-76.2
X124.46Y-139.7
X177.8Y-76.2
X177.8Y-139.7
T0
M30
