G04 #@! TF.GenerationSoftware,KiCad,Pcbnew,5.1.12-84ad8e8a86~92~ubuntu16.04.1*
G04 #@! TF.CreationDate,2022-11-17T23:54:25+01:00*
G04 #@! TF.ProjectId,RS485-TTL,52533438-352d-4545-944c-2e6b69636164,rev?*
G04 #@! TF.SameCoordinates,Original*
G04 #@! TF.FileFunction,Copper,L1,Top*
G04 #@! TF.FilePolarity,Positive*
%FSLAX46Y46*%
G04 Gerber Fmt 4.6, Leading zero omitted, Abs format (unit mm)*
G04 Created by KiCad (PCBNEW 5.1.12-84ad8e8a86~92~ubuntu16.04.1) date 2022-11-17 23:54:25*
%MOMM*%
%LPD*%
G01*
G04 APERTURE LIST*
G04 #@! TA.AperFunction,ComponentPad*
%ADD10C,2.800000*%
G04 #@! TD*
G04 #@! TA.AperFunction,ComponentPad*
%ADD11O,1.700000X1.700000*%
G04 #@! TD*
G04 #@! TA.AperFunction,ComponentPad*
%ADD12R,1.700000X1.700000*%
G04 #@! TD*
G04 #@! TA.AperFunction,ComponentPad*
%ADD13C,2.000000*%
G04 #@! TD*
G04 #@! TA.AperFunction,SMDPad,CuDef*
%ADD14R,0.800000X1.900000*%
G04 #@! TD*
G04 #@! TA.AperFunction,ViaPad*
%ADD15C,0.800000*%
G04 #@! TD*
G04 #@! TA.AperFunction,Conductor*
%ADD16C,0.250000*%
G04 #@! TD*
G04 #@! TA.AperFunction,Conductor*
%ADD17C,0.350000*%
G04 #@! TD*
G04 #@! TA.AperFunction,Conductor*
%ADD18C,0.200000*%
G04 #@! TD*
G04 #@! TA.AperFunction,Conductor*
%ADD19C,0.100000*%
G04 #@! TD*
G04 #@! TA.AperFunction,Conductor*
%ADD20C,0.254000*%
G04 #@! TD*
G04 APERTURE END LIST*
D10*
X133350000Y-88392000D03*
X133350000Y-84892000D03*
X133350000Y-81392000D03*
D11*
X138557000Y-87884000D03*
D12*
X138557000Y-90424000D03*
G04 #@! TA.AperFunction,SMDPad,CuDef*
G36*
G01*
X154574000Y-90087001D02*
X154574000Y-89236999D01*
G75*
G02*
X154823999Y-88987000I249999J0D01*
G01*
X155899001Y-88987000D01*
G75*
G02*
X156149000Y-89236999I0J-249999D01*
G01*
X156149000Y-90087001D01*
G75*
G02*
X155899001Y-90337000I-249999J0D01*
G01*
X154823999Y-90337000D01*
G75*
G02*
X154574000Y-90087001I0J249999D01*
G01*
G37*
G04 #@! TD.AperFunction*
G04 #@! TA.AperFunction,SMDPad,CuDef*
G36*
G01*
X151699000Y-90087001D02*
X151699000Y-89236999D01*
G75*
G02*
X151948999Y-88987000I249999J0D01*
G01*
X153024001Y-88987000D01*
G75*
G02*
X153274000Y-89236999I0J-249999D01*
G01*
X153274000Y-90087001D01*
G75*
G02*
X153024001Y-90337000I-249999J0D01*
G01*
X151948999Y-90337000D01*
G75*
G02*
X151699000Y-90087001I0J249999D01*
G01*
G37*
G04 #@! TD.AperFunction*
D13*
X154940000Y-92456000D03*
X152400000Y-92456000D03*
X149860000Y-92456000D03*
X147320000Y-92456000D03*
G04 #@! TA.AperFunction,SMDPad,CuDef*
G36*
G01*
X141402000Y-85286001D02*
X141402000Y-84385999D01*
G75*
G02*
X141651999Y-84136000I249999J0D01*
G01*
X142352001Y-84136000D01*
G75*
G02*
X142602000Y-84385999I0J-249999D01*
G01*
X142602000Y-85286001D01*
G75*
G02*
X142352001Y-85536000I-249999J0D01*
G01*
X141651999Y-85536000D01*
G75*
G02*
X141402000Y-85286001I0J249999D01*
G01*
G37*
G04 #@! TD.AperFunction*
G04 #@! TA.AperFunction,SMDPad,CuDef*
G36*
G01*
X143402000Y-85286001D02*
X143402000Y-84385999D01*
G75*
G02*
X143651999Y-84136000I249999J0D01*
G01*
X144352001Y-84136000D01*
G75*
G02*
X144602000Y-84385999I0J-249999D01*
G01*
X144602000Y-85286001D01*
G75*
G02*
X144352001Y-85536000I-249999J0D01*
G01*
X143651999Y-85536000D01*
G75*
G02*
X143402000Y-85286001I0J249999D01*
G01*
G37*
G04 #@! TD.AperFunction*
G04 #@! TA.AperFunction,SMDPad,CuDef*
G36*
G01*
X159157000Y-90391000D02*
X159157000Y-89441000D01*
G75*
G02*
X159407000Y-89191000I250000J0D01*
G01*
X160082000Y-89191000D01*
G75*
G02*
X160332000Y-89441000I0J-250000D01*
G01*
X160332000Y-90391000D01*
G75*
G02*
X160082000Y-90641000I-250000J0D01*
G01*
X159407000Y-90641000D01*
G75*
G02*
X159157000Y-90391000I0J250000D01*
G01*
G37*
G04 #@! TD.AperFunction*
G04 #@! TA.AperFunction,SMDPad,CuDef*
G36*
G01*
X161232000Y-90391000D02*
X161232000Y-89441000D01*
G75*
G02*
X161482000Y-89191000I250000J0D01*
G01*
X162157000Y-89191000D01*
G75*
G02*
X162407000Y-89441000I0J-250000D01*
G01*
X162407000Y-90391000D01*
G75*
G02*
X162157000Y-90641000I-250000J0D01*
G01*
X161482000Y-90641000D01*
G75*
G02*
X161232000Y-90391000I0J250000D01*
G01*
G37*
G04 #@! TD.AperFunction*
G04 #@! TA.AperFunction,SMDPad,CuDef*
G36*
G01*
X141377000Y-87851000D02*
X141377000Y-86901000D01*
G75*
G02*
X141627000Y-86651000I250000J0D01*
G01*
X142302000Y-86651000D01*
G75*
G02*
X142552000Y-86901000I0J-250000D01*
G01*
X142552000Y-87851000D01*
G75*
G02*
X142302000Y-88101000I-250000J0D01*
G01*
X141627000Y-88101000D01*
G75*
G02*
X141377000Y-87851000I0J250000D01*
G01*
G37*
G04 #@! TD.AperFunction*
G04 #@! TA.AperFunction,SMDPad,CuDef*
G36*
G01*
X143452000Y-87851000D02*
X143452000Y-86901000D01*
G75*
G02*
X143702000Y-86651000I250000J0D01*
G01*
X144377000Y-86651000D01*
G75*
G02*
X144627000Y-86901000I0J-250000D01*
G01*
X144627000Y-87851000D01*
G75*
G02*
X144377000Y-88101000I-250000J0D01*
G01*
X143702000Y-88101000D01*
G75*
G02*
X143452000Y-87851000I0J250000D01*
G01*
G37*
G04 #@! TD.AperFunction*
G04 #@! TA.AperFunction,SMDPad,CuDef*
G36*
G01*
X150561000Y-89236999D02*
X150561000Y-90087001D01*
G75*
G02*
X150311001Y-90337000I-249999J0D01*
G01*
X149235999Y-90337000D01*
G75*
G02*
X148986000Y-90087001I0J249999D01*
G01*
X148986000Y-89236999D01*
G75*
G02*
X149235999Y-88987000I249999J0D01*
G01*
X150311001Y-88987000D01*
G75*
G02*
X150561000Y-89236999I0J-249999D01*
G01*
G37*
G04 #@! TD.AperFunction*
G04 #@! TA.AperFunction,SMDPad,CuDef*
G36*
G01*
X147686000Y-89236999D02*
X147686000Y-90087001D01*
G75*
G02*
X147436001Y-90337000I-249999J0D01*
G01*
X146360999Y-90337000D01*
G75*
G02*
X146111000Y-90087001I0J249999D01*
G01*
X146111000Y-89236999D01*
G75*
G02*
X146360999Y-88987000I249999J0D01*
G01*
X147436001Y-88987000D01*
G75*
G02*
X147686000Y-89236999I0J-249999D01*
G01*
G37*
G04 #@! TD.AperFunction*
D14*
X142052000Y-82526000D03*
X143952000Y-82526000D03*
X143002000Y-79526000D03*
G04 #@! TA.AperFunction,SMDPad,CuDef*
G36*
G01*
X141402000Y-77158001D02*
X141402000Y-76257999D01*
G75*
G02*
X141651999Y-76008000I249999J0D01*
G01*
X142352001Y-76008000D01*
G75*
G02*
X142602000Y-76257999I0J-249999D01*
G01*
X142602000Y-77158001D01*
G75*
G02*
X142352001Y-77408000I-249999J0D01*
G01*
X141651999Y-77408000D01*
G75*
G02*
X141402000Y-77158001I0J249999D01*
G01*
G37*
G04 #@! TD.AperFunction*
G04 #@! TA.AperFunction,SMDPad,CuDef*
G36*
G01*
X143402000Y-77158001D02*
X143402000Y-76257999D01*
G75*
G02*
X143651999Y-76008000I249999J0D01*
G01*
X144352001Y-76008000D01*
G75*
G02*
X144602000Y-76257999I0J-249999D01*
G01*
X144602000Y-77158001D01*
G75*
G02*
X144352001Y-77408000I-249999J0D01*
G01*
X143651999Y-77408000D01*
G75*
G02*
X143402000Y-77158001I0J249999D01*
G01*
G37*
G04 #@! TD.AperFunction*
G04 #@! TA.AperFunction,SMDPad,CuDef*
G36*
G01*
X157313000Y-87353000D02*
X157313000Y-87653000D01*
G75*
G02*
X157163000Y-87803000I-150000J0D01*
G01*
X155413000Y-87803000D01*
G75*
G02*
X155263000Y-87653000I0J150000D01*
G01*
X155263000Y-87353000D01*
G75*
G02*
X155413000Y-87203000I150000J0D01*
G01*
X157163000Y-87203000D01*
G75*
G02*
X157313000Y-87353000I0J-150000D01*
G01*
G37*
G04 #@! TD.AperFunction*
G04 #@! TA.AperFunction,SMDPad,CuDef*
G36*
G01*
X157313000Y-86083000D02*
X157313000Y-86383000D01*
G75*
G02*
X157163000Y-86533000I-150000J0D01*
G01*
X155413000Y-86533000D01*
G75*
G02*
X155263000Y-86383000I0J150000D01*
G01*
X155263000Y-86083000D01*
G75*
G02*
X155413000Y-85933000I150000J0D01*
G01*
X157163000Y-85933000D01*
G75*
G02*
X157313000Y-86083000I0J-150000D01*
G01*
G37*
G04 #@! TD.AperFunction*
G04 #@! TA.AperFunction,SMDPad,CuDef*
G36*
G01*
X157313000Y-84813000D02*
X157313000Y-85113000D01*
G75*
G02*
X157163000Y-85263000I-150000J0D01*
G01*
X155413000Y-85263000D01*
G75*
G02*
X155263000Y-85113000I0J150000D01*
G01*
X155263000Y-84813000D01*
G75*
G02*
X155413000Y-84663000I150000J0D01*
G01*
X157163000Y-84663000D01*
G75*
G02*
X157313000Y-84813000I0J-150000D01*
G01*
G37*
G04 #@! TD.AperFunction*
G04 #@! TA.AperFunction,SMDPad,CuDef*
G36*
G01*
X157313000Y-83543000D02*
X157313000Y-83843000D01*
G75*
G02*
X157163000Y-83993000I-150000J0D01*
G01*
X155413000Y-83993000D01*
G75*
G02*
X155263000Y-83843000I0J150000D01*
G01*
X155263000Y-83543000D01*
G75*
G02*
X155413000Y-83393000I150000J0D01*
G01*
X157163000Y-83393000D01*
G75*
G02*
X157313000Y-83543000I0J-150000D01*
G01*
G37*
G04 #@! TD.AperFunction*
G04 #@! TA.AperFunction,SMDPad,CuDef*
G36*
G01*
X157313000Y-82273000D02*
X157313000Y-82573000D01*
G75*
G02*
X157163000Y-82723000I-150000J0D01*
G01*
X155413000Y-82723000D01*
G75*
G02*
X155263000Y-82573000I0J150000D01*
G01*
X155263000Y-82273000D01*
G75*
G02*
X155413000Y-82123000I150000J0D01*
G01*
X157163000Y-82123000D01*
G75*
G02*
X157313000Y-82273000I0J-150000D01*
G01*
G37*
G04 #@! TD.AperFunction*
G04 #@! TA.AperFunction,SMDPad,CuDef*
G36*
G01*
X157313000Y-81003000D02*
X157313000Y-81303000D01*
G75*
G02*
X157163000Y-81453000I-150000J0D01*
G01*
X155413000Y-81453000D01*
G75*
G02*
X155263000Y-81303000I0J150000D01*
G01*
X155263000Y-81003000D01*
G75*
G02*
X155413000Y-80853000I150000J0D01*
G01*
X157163000Y-80853000D01*
G75*
G02*
X157313000Y-81003000I0J-150000D01*
G01*
G37*
G04 #@! TD.AperFunction*
G04 #@! TA.AperFunction,SMDPad,CuDef*
G36*
G01*
X157313000Y-79733000D02*
X157313000Y-80033000D01*
G75*
G02*
X157163000Y-80183000I-150000J0D01*
G01*
X155413000Y-80183000D01*
G75*
G02*
X155263000Y-80033000I0J150000D01*
G01*
X155263000Y-79733000D01*
G75*
G02*
X155413000Y-79583000I150000J0D01*
G01*
X157163000Y-79583000D01*
G75*
G02*
X157313000Y-79733000I0J-150000D01*
G01*
G37*
G04 #@! TD.AperFunction*
G04 #@! TA.AperFunction,SMDPad,CuDef*
G36*
G01*
X157313000Y-78463000D02*
X157313000Y-78763000D01*
G75*
G02*
X157163000Y-78913000I-150000J0D01*
G01*
X155413000Y-78913000D01*
G75*
G02*
X155263000Y-78763000I0J150000D01*
G01*
X155263000Y-78463000D01*
G75*
G02*
X155413000Y-78313000I150000J0D01*
G01*
X157163000Y-78313000D01*
G75*
G02*
X157313000Y-78463000I0J-150000D01*
G01*
G37*
G04 #@! TD.AperFunction*
G04 #@! TA.AperFunction,SMDPad,CuDef*
G36*
G01*
X148013000Y-78463000D02*
X148013000Y-78763000D01*
G75*
G02*
X147863000Y-78913000I-150000J0D01*
G01*
X146113000Y-78913000D01*
G75*
G02*
X145963000Y-78763000I0J150000D01*
G01*
X145963000Y-78463000D01*
G75*
G02*
X146113000Y-78313000I150000J0D01*
G01*
X147863000Y-78313000D01*
G75*
G02*
X148013000Y-78463000I0J-150000D01*
G01*
G37*
G04 #@! TD.AperFunction*
G04 #@! TA.AperFunction,SMDPad,CuDef*
G36*
G01*
X148013000Y-79733000D02*
X148013000Y-80033000D01*
G75*
G02*
X147863000Y-80183000I-150000J0D01*
G01*
X146113000Y-80183000D01*
G75*
G02*
X145963000Y-80033000I0J150000D01*
G01*
X145963000Y-79733000D01*
G75*
G02*
X146113000Y-79583000I150000J0D01*
G01*
X147863000Y-79583000D01*
G75*
G02*
X148013000Y-79733000I0J-150000D01*
G01*
G37*
G04 #@! TD.AperFunction*
G04 #@! TA.AperFunction,SMDPad,CuDef*
G36*
G01*
X148013000Y-81003000D02*
X148013000Y-81303000D01*
G75*
G02*
X147863000Y-81453000I-150000J0D01*
G01*
X146113000Y-81453000D01*
G75*
G02*
X145963000Y-81303000I0J150000D01*
G01*
X145963000Y-81003000D01*
G75*
G02*
X146113000Y-80853000I150000J0D01*
G01*
X147863000Y-80853000D01*
G75*
G02*
X148013000Y-81003000I0J-150000D01*
G01*
G37*
G04 #@! TD.AperFunction*
G04 #@! TA.AperFunction,SMDPad,CuDef*
G36*
G01*
X148013000Y-82273000D02*
X148013000Y-82573000D01*
G75*
G02*
X147863000Y-82723000I-150000J0D01*
G01*
X146113000Y-82723000D01*
G75*
G02*
X145963000Y-82573000I0J150000D01*
G01*
X145963000Y-82273000D01*
G75*
G02*
X146113000Y-82123000I150000J0D01*
G01*
X147863000Y-82123000D01*
G75*
G02*
X148013000Y-82273000I0J-150000D01*
G01*
G37*
G04 #@! TD.AperFunction*
G04 #@! TA.AperFunction,SMDPad,CuDef*
G36*
G01*
X148013000Y-83543000D02*
X148013000Y-83843000D01*
G75*
G02*
X147863000Y-83993000I-150000J0D01*
G01*
X146113000Y-83993000D01*
G75*
G02*
X145963000Y-83843000I0J150000D01*
G01*
X145963000Y-83543000D01*
G75*
G02*
X146113000Y-83393000I150000J0D01*
G01*
X147863000Y-83393000D01*
G75*
G02*
X148013000Y-83543000I0J-150000D01*
G01*
G37*
G04 #@! TD.AperFunction*
G04 #@! TA.AperFunction,SMDPad,CuDef*
G36*
G01*
X148013000Y-84813000D02*
X148013000Y-85113000D01*
G75*
G02*
X147863000Y-85263000I-150000J0D01*
G01*
X146113000Y-85263000D01*
G75*
G02*
X145963000Y-85113000I0J150000D01*
G01*
X145963000Y-84813000D01*
G75*
G02*
X146113000Y-84663000I150000J0D01*
G01*
X147863000Y-84663000D01*
G75*
G02*
X148013000Y-84813000I0J-150000D01*
G01*
G37*
G04 #@! TD.AperFunction*
G04 #@! TA.AperFunction,SMDPad,CuDef*
G36*
G01*
X148013000Y-86083000D02*
X148013000Y-86383000D01*
G75*
G02*
X147863000Y-86533000I-150000J0D01*
G01*
X146113000Y-86533000D01*
G75*
G02*
X145963000Y-86383000I0J150000D01*
G01*
X145963000Y-86083000D01*
G75*
G02*
X146113000Y-85933000I150000J0D01*
G01*
X147863000Y-85933000D01*
G75*
G02*
X148013000Y-86083000I0J-150000D01*
G01*
G37*
G04 #@! TD.AperFunction*
G04 #@! TA.AperFunction,SMDPad,CuDef*
G36*
G01*
X148013000Y-87353000D02*
X148013000Y-87653000D01*
G75*
G02*
X147863000Y-87803000I-150000J0D01*
G01*
X146113000Y-87803000D01*
G75*
G02*
X145963000Y-87653000I0J150000D01*
G01*
X145963000Y-87353000D01*
G75*
G02*
X146113000Y-87203000I150000J0D01*
G01*
X147863000Y-87203000D01*
G75*
G02*
X148013000Y-87353000I0J-150000D01*
G01*
G37*
G04 #@! TD.AperFunction*
G04 #@! TA.AperFunction,SMDPad,CuDef*
G36*
G01*
X166192000Y-81845999D02*
X166192000Y-82746001D01*
G75*
G02*
X165942001Y-82996000I-249999J0D01*
G01*
X165291999Y-82996000D01*
G75*
G02*
X165042000Y-82746001I0J249999D01*
G01*
X165042000Y-81845999D01*
G75*
G02*
X165291999Y-81596000I249999J0D01*
G01*
X165942001Y-81596000D01*
G75*
G02*
X166192000Y-81845999I0J-249999D01*
G01*
G37*
G04 #@! TD.AperFunction*
G04 #@! TA.AperFunction,SMDPad,CuDef*
G36*
G01*
X164142000Y-81845999D02*
X164142000Y-82746001D01*
G75*
G02*
X163892001Y-82996000I-249999J0D01*
G01*
X163241999Y-82996000D01*
G75*
G02*
X162992000Y-82746001I0J249999D01*
G01*
X162992000Y-81845999D01*
G75*
G02*
X163241999Y-81596000I249999J0D01*
G01*
X163892001Y-81596000D01*
G75*
G02*
X164142000Y-81845999I0J-249999D01*
G01*
G37*
G04 #@! TD.AperFunction*
G04 #@! TA.AperFunction,SMDPad,CuDef*
G36*
G01*
X164142000Y-84385999D02*
X164142000Y-85286001D01*
G75*
G02*
X163892001Y-85536000I-249999J0D01*
G01*
X163241999Y-85536000D01*
G75*
G02*
X162992000Y-85286001I0J249999D01*
G01*
X162992000Y-84385999D01*
G75*
G02*
X163241999Y-84136000I249999J0D01*
G01*
X163892001Y-84136000D01*
G75*
G02*
X164142000Y-84385999I0J-249999D01*
G01*
G37*
G04 #@! TD.AperFunction*
G04 #@! TA.AperFunction,SMDPad,CuDef*
G36*
G01*
X166192000Y-84385999D02*
X166192000Y-85286001D01*
G75*
G02*
X165942001Y-85536000I-249999J0D01*
G01*
X165291999Y-85536000D01*
G75*
G02*
X165042000Y-85286001I0J249999D01*
G01*
X165042000Y-84385999D01*
G75*
G02*
X165291999Y-84136000I249999J0D01*
G01*
X165942001Y-84136000D01*
G75*
G02*
X166192000Y-84385999I0J-249999D01*
G01*
G37*
G04 #@! TD.AperFunction*
G04 #@! TA.AperFunction,SMDPad,CuDef*
G36*
G01*
X166192000Y-86925999D02*
X166192000Y-87826001D01*
G75*
G02*
X165942001Y-88076000I-249999J0D01*
G01*
X165291999Y-88076000D01*
G75*
G02*
X165042000Y-87826001I0J249999D01*
G01*
X165042000Y-86925999D01*
G75*
G02*
X165291999Y-86676000I249999J0D01*
G01*
X165942001Y-86676000D01*
G75*
G02*
X166192000Y-86925999I0J-249999D01*
G01*
G37*
G04 #@! TD.AperFunction*
G04 #@! TA.AperFunction,SMDPad,CuDef*
G36*
G01*
X164142000Y-86925999D02*
X164142000Y-87826001D01*
G75*
G02*
X163892001Y-88076000I-249999J0D01*
G01*
X163241999Y-88076000D01*
G75*
G02*
X162992000Y-87826001I0J249999D01*
G01*
X162992000Y-86925999D01*
G75*
G02*
X163241999Y-86676000I249999J0D01*
G01*
X163892001Y-86676000D01*
G75*
G02*
X164142000Y-86925999I0J-249999D01*
G01*
G37*
G04 #@! TD.AperFunction*
G04 #@! TA.AperFunction,SMDPad,CuDef*
G36*
G01*
X142552000Y-92005999D02*
X142552000Y-92906001D01*
G75*
G02*
X142302001Y-93156000I-249999J0D01*
G01*
X141651999Y-93156000D01*
G75*
G02*
X141402000Y-92906001I0J249999D01*
G01*
X141402000Y-92005999D01*
G75*
G02*
X141651999Y-91756000I249999J0D01*
G01*
X142302001Y-91756000D01*
G75*
G02*
X142552000Y-92005999I0J-249999D01*
G01*
G37*
G04 #@! TD.AperFunction*
G04 #@! TA.AperFunction,SMDPad,CuDef*
G36*
G01*
X144602000Y-92005999D02*
X144602000Y-92906001D01*
G75*
G02*
X144352001Y-93156000I-249999J0D01*
G01*
X143701999Y-93156000D01*
G75*
G02*
X143452000Y-92906001I0J249999D01*
G01*
X143452000Y-92005999D01*
G75*
G02*
X143701999Y-91756000I249999J0D01*
G01*
X144352001Y-91756000D01*
G75*
G02*
X144602000Y-92005999I0J-249999D01*
G01*
G37*
G04 #@! TD.AperFunction*
D12*
X172720000Y-79756000D03*
D11*
X172720000Y-82296000D03*
X172720000Y-84836000D03*
X172720000Y-87376000D03*
X172720000Y-89916000D03*
G04 #@! TA.AperFunction,SMDPad,CuDef*
G36*
G01*
X159182000Y-82746001D02*
X159182000Y-81845999D01*
G75*
G02*
X159431999Y-81596000I249999J0D01*
G01*
X160132001Y-81596000D01*
G75*
G02*
X160382000Y-81845999I0J-249999D01*
G01*
X160382000Y-82746001D01*
G75*
G02*
X160132001Y-82996000I-249999J0D01*
G01*
X159431999Y-82996000D01*
G75*
G02*
X159182000Y-82746001I0J249999D01*
G01*
G37*
G04 #@! TD.AperFunction*
G04 #@! TA.AperFunction,SMDPad,CuDef*
G36*
G01*
X161182000Y-82746001D02*
X161182000Y-81845999D01*
G75*
G02*
X161431999Y-81596000I249999J0D01*
G01*
X162132001Y-81596000D01*
G75*
G02*
X162382000Y-81845999I0J-249999D01*
G01*
X162382000Y-82746001D01*
G75*
G02*
X162132001Y-82996000I-249999J0D01*
G01*
X161431999Y-82996000D01*
G75*
G02*
X161182000Y-82746001I0J249999D01*
G01*
G37*
G04 #@! TD.AperFunction*
G04 #@! TA.AperFunction,SMDPad,CuDef*
G36*
G01*
X161182000Y-85286001D02*
X161182000Y-84385999D01*
G75*
G02*
X161431999Y-84136000I249999J0D01*
G01*
X162132001Y-84136000D01*
G75*
G02*
X162382000Y-84385999I0J-249999D01*
G01*
X162382000Y-85286001D01*
G75*
G02*
X162132001Y-85536000I-249999J0D01*
G01*
X161431999Y-85536000D01*
G75*
G02*
X161182000Y-85286001I0J249999D01*
G01*
G37*
G04 #@! TD.AperFunction*
G04 #@! TA.AperFunction,SMDPad,CuDef*
G36*
G01*
X159182000Y-85286001D02*
X159182000Y-84385999D01*
G75*
G02*
X159431999Y-84136000I249999J0D01*
G01*
X160132001Y-84136000D01*
G75*
G02*
X160382000Y-84385999I0J-249999D01*
G01*
X160382000Y-85286001D01*
G75*
G02*
X160132001Y-85536000I-249999J0D01*
G01*
X159431999Y-85536000D01*
G75*
G02*
X159182000Y-85286001I0J249999D01*
G01*
G37*
G04 #@! TD.AperFunction*
G04 #@! TA.AperFunction,SMDPad,CuDef*
G36*
G01*
X159182000Y-87826001D02*
X159182000Y-86925999D01*
G75*
G02*
X159431999Y-86676000I249999J0D01*
G01*
X160132001Y-86676000D01*
G75*
G02*
X160382000Y-86925999I0J-249999D01*
G01*
X160382000Y-87826001D01*
G75*
G02*
X160132001Y-88076000I-249999J0D01*
G01*
X159431999Y-88076000D01*
G75*
G02*
X159182000Y-87826001I0J249999D01*
G01*
G37*
G04 #@! TD.AperFunction*
G04 #@! TA.AperFunction,SMDPad,CuDef*
G36*
G01*
X161182000Y-87826001D02*
X161182000Y-86925999D01*
G75*
G02*
X161431999Y-86676000I249999J0D01*
G01*
X162132001Y-86676000D01*
G75*
G02*
X162382000Y-86925999I0J-249999D01*
G01*
X162382000Y-87826001D01*
G75*
G02*
X162132001Y-88076000I-249999J0D01*
G01*
X161431999Y-88076000D01*
G75*
G02*
X161182000Y-87826001I0J249999D01*
G01*
G37*
G04 #@! TD.AperFunction*
G04 #@! TA.AperFunction,SMDPad,CuDef*
G36*
G01*
X142602000Y-89465999D02*
X142602000Y-90366001D01*
G75*
G02*
X142352001Y-90616000I-249999J0D01*
G01*
X141651999Y-90616000D01*
G75*
G02*
X141402000Y-90366001I0J249999D01*
G01*
X141402000Y-89465999D01*
G75*
G02*
X141651999Y-89216000I249999J0D01*
G01*
X142352001Y-89216000D01*
G75*
G02*
X142602000Y-89465999I0J-249999D01*
G01*
G37*
G04 #@! TD.AperFunction*
G04 #@! TA.AperFunction,SMDPad,CuDef*
G36*
G01*
X144602000Y-89465999D02*
X144602000Y-90366001D01*
G75*
G02*
X144352001Y-90616000I-249999J0D01*
G01*
X143651999Y-90616000D01*
G75*
G02*
X143402000Y-90366001I0J249999D01*
G01*
X143402000Y-89465999D01*
G75*
G02*
X143651999Y-89216000I249999J0D01*
G01*
X144352001Y-89216000D01*
G75*
G02*
X144602000Y-89465999I0J-249999D01*
G01*
G37*
G04 #@! TD.AperFunction*
G04 #@! TA.AperFunction,SMDPad,CuDef*
G36*
G01*
X166217000Y-79281000D02*
X166217000Y-80231000D01*
G75*
G02*
X165967000Y-80481000I-250000J0D01*
G01*
X165292000Y-80481000D01*
G75*
G02*
X165042000Y-80231000I0J250000D01*
G01*
X165042000Y-79281000D01*
G75*
G02*
X165292000Y-79031000I250000J0D01*
G01*
X165967000Y-79031000D01*
G75*
G02*
X166217000Y-79281000I0J-250000D01*
G01*
G37*
G04 #@! TD.AperFunction*
G04 #@! TA.AperFunction,SMDPad,CuDef*
G36*
G01*
X164142000Y-79281000D02*
X164142000Y-80231000D01*
G75*
G02*
X163892000Y-80481000I-250000J0D01*
G01*
X163217000Y-80481000D01*
G75*
G02*
X162967000Y-80231000I0J250000D01*
G01*
X162967000Y-79281000D01*
G75*
G02*
X163217000Y-79031000I250000J0D01*
G01*
X163892000Y-79031000D01*
G75*
G02*
X164142000Y-79281000I0J-250000D01*
G01*
G37*
G04 #@! TD.AperFunction*
D12*
X138557000Y-82042000D03*
D11*
X138557000Y-79502000D03*
G04 #@! TA.AperFunction,SMDPad,CuDef*
G36*
G01*
X136957000Y-77158001D02*
X136957000Y-76257999D01*
G75*
G02*
X137206999Y-76008000I249999J0D01*
G01*
X137907001Y-76008000D01*
G75*
G02*
X138157000Y-76257999I0J-249999D01*
G01*
X138157000Y-77158001D01*
G75*
G02*
X137907001Y-77408000I-249999J0D01*
G01*
X137206999Y-77408000D01*
G75*
G02*
X136957000Y-77158001I0J249999D01*
G01*
G37*
G04 #@! TD.AperFunction*
G04 #@! TA.AperFunction,SMDPad,CuDef*
G36*
G01*
X138957000Y-77158001D02*
X138957000Y-76257999D01*
G75*
G02*
X139206999Y-76008000I249999J0D01*
G01*
X139907001Y-76008000D01*
G75*
G02*
X140157000Y-76257999I0J-249999D01*
G01*
X140157000Y-77158001D01*
G75*
G02*
X139907001Y-77408000I-249999J0D01*
G01*
X139206999Y-77408000D01*
G75*
G02*
X138957000Y-77158001I0J249999D01*
G01*
G37*
G04 #@! TD.AperFunction*
G04 #@! TA.AperFunction,SMDPad,CuDef*
G36*
G01*
X138957000Y-85286001D02*
X138957000Y-84385999D01*
G75*
G02*
X139206999Y-84136000I249999J0D01*
G01*
X139907001Y-84136000D01*
G75*
G02*
X140157000Y-84385999I0J-249999D01*
G01*
X140157000Y-85286001D01*
G75*
G02*
X139907001Y-85536000I-249999J0D01*
G01*
X139206999Y-85536000D01*
G75*
G02*
X138957000Y-85286001I0J249999D01*
G01*
G37*
G04 #@! TD.AperFunction*
G04 #@! TA.AperFunction,SMDPad,CuDef*
G36*
G01*
X136957000Y-85286001D02*
X136957000Y-84385999D01*
G75*
G02*
X137206999Y-84136000I249999J0D01*
G01*
X137907001Y-84136000D01*
G75*
G02*
X138157000Y-84385999I0J-249999D01*
G01*
X138157000Y-85286001D01*
G75*
G02*
X137907001Y-85536000I-249999J0D01*
G01*
X137206999Y-85536000D01*
G75*
G02*
X136957000Y-85286001I0J249999D01*
G01*
G37*
G04 #@! TD.AperFunction*
G04 #@! TA.AperFunction,SMDPad,CuDef*
G36*
G01*
X137020500Y-93731501D02*
X137020500Y-92831499D01*
G75*
G02*
X137270499Y-92581500I249999J0D01*
G01*
X137970501Y-92581500D01*
G75*
G02*
X138220500Y-92831499I0J-249999D01*
G01*
X138220500Y-93731501D01*
G75*
G02*
X137970501Y-93981500I-249999J0D01*
G01*
X137270499Y-93981500D01*
G75*
G02*
X137020500Y-93731501I0J249999D01*
G01*
G37*
G04 #@! TD.AperFunction*
G04 #@! TA.AperFunction,SMDPad,CuDef*
G36*
G01*
X139020500Y-93731501D02*
X139020500Y-92831499D01*
G75*
G02*
X139270499Y-92581500I249999J0D01*
G01*
X139970501Y-92581500D01*
G75*
G02*
X140220500Y-92831499I0J-249999D01*
G01*
X140220500Y-93731501D01*
G75*
G02*
X139970501Y-93981500I-249999J0D01*
G01*
X139270499Y-93981500D01*
G75*
G02*
X139020500Y-93731501I0J249999D01*
G01*
G37*
G04 #@! TD.AperFunction*
D15*
X163195000Y-89916000D03*
X157988000Y-86106000D03*
X157734000Y-79248000D03*
X167894000Y-84836000D03*
X167894000Y-87376000D03*
X157988000Y-87757000D03*
X173228000Y-72898000D03*
X173228000Y-96774000D03*
X154559000Y-87630000D03*
X152400000Y-72898000D03*
X163195000Y-72898000D03*
X163195000Y-96774000D03*
X152400000Y-96774000D03*
X151892000Y-88011000D03*
X167894000Y-82296000D03*
X151892000Y-83058000D03*
X162179000Y-79756000D03*
X149860000Y-96774000D03*
X149860000Y-72898000D03*
X148717000Y-79883000D03*
X148717000Y-86233000D03*
X141732000Y-79502000D03*
X140716000Y-96774000D03*
X139954000Y-72898000D03*
X129032000Y-72898000D03*
X129032000Y-96774000D03*
X129032000Y-84899500D03*
X140589000Y-87757000D03*
X143129000Y-86042500D03*
X136206989Y-83566000D03*
X136206989Y-80518000D03*
X137541000Y-75374500D03*
X136356944Y-86518750D03*
X145288000Y-92456000D03*
X140969999Y-82176902D03*
D16*
X156288000Y-87503000D02*
X157099000Y-87503000D01*
X159744500Y-89916000D02*
X159512000Y-89916000D01*
D17*
X159744500Y-89916000D02*
X158881002Y-89916000D01*
X158881002Y-89916000D02*
X156972000Y-88006998D01*
X156972000Y-88006998D02*
X156972000Y-87378000D01*
X156413000Y-87378000D02*
X156288000Y-87503000D01*
X156972000Y-87378000D02*
X156413000Y-87378000D01*
X172720000Y-79756000D02*
X165629500Y-79756000D01*
X152667001Y-89481499D02*
X152486500Y-89662000D01*
X165629500Y-79756000D02*
X163089500Y-77216000D01*
X154686000Y-77216000D02*
X152667001Y-79234999D01*
X163089500Y-77216000D02*
X154686000Y-77216000D01*
X152667001Y-79234999D02*
X152667001Y-89481499D01*
X152400000Y-89748500D02*
X152486500Y-89662000D01*
X152400000Y-92456000D02*
X152400000Y-89748500D01*
X159744500Y-91207500D02*
X159744500Y-89916000D01*
X153987500Y-94043500D02*
X156908500Y-94043500D01*
X156908500Y-94043500D02*
X159744500Y-91207500D01*
X152400000Y-92456000D02*
X153987500Y-94043500D01*
D16*
X161685590Y-89916000D02*
X161819500Y-89916000D01*
X165617000Y-86676000D02*
X165617000Y-87376000D01*
X156288000Y-79883000D02*
X155263000Y-79883000D01*
X173895001Y-88740999D02*
X172720000Y-89916000D01*
X171101001Y-81120999D02*
X173284001Y-81120999D01*
X173482000Y-83858998D02*
X173895001Y-84271999D01*
X170376010Y-81845990D02*
X171101001Y-81120999D01*
X165617000Y-82296000D02*
X166067010Y-81845990D01*
X173482000Y-83463000D02*
X173482000Y-83858998D01*
X173895001Y-84271999D02*
X173895001Y-88740999D01*
X173284001Y-81120999D02*
X173895001Y-81731999D01*
X173895001Y-81731999D02*
X173895001Y-83049999D01*
X173895001Y-83049999D02*
X173482000Y-83463000D01*
X156288000Y-78613000D02*
X156288000Y-79883000D01*
X144166500Y-87503000D02*
X144039500Y-87376000D01*
D17*
X146988000Y-87503000D02*
X144166500Y-87503000D01*
X146898500Y-87592500D02*
X146988000Y-87503000D01*
X146898500Y-89662000D02*
X146898500Y-87592500D01*
X144039500Y-89878500D02*
X144002000Y-89916000D01*
X144039500Y-87376000D02*
X144039500Y-89878500D01*
X146898500Y-92034500D02*
X147320000Y-92456000D01*
X146898500Y-89662000D02*
X146898500Y-92034500D01*
X147320000Y-92456000D02*
X145796000Y-93980000D01*
X140319000Y-93980000D02*
X139620500Y-93281500D01*
X145796000Y-93980000D02*
X140319000Y-93980000D01*
D16*
X142002000Y-82576000D02*
X142052000Y-82526000D01*
X142002000Y-84836000D02*
X142002000Y-82576000D01*
X139041000Y-82526000D02*
X138557000Y-82042000D01*
X141702902Y-82176902D02*
X142052000Y-82526000D01*
X140969999Y-82176902D02*
X141702902Y-82176902D01*
X142002000Y-77216000D02*
X142002000Y-77911000D01*
X139382500Y-87693500D02*
X138557000Y-87693500D01*
X141076990Y-85999010D02*
X139382500Y-87693500D01*
X141076990Y-85999010D02*
X141076990Y-83348992D01*
X141076990Y-83348992D02*
X140244999Y-82517001D01*
X140244999Y-81820999D02*
X140814999Y-81250999D01*
X140244999Y-82517001D02*
X140244999Y-81820999D01*
X142712001Y-81250999D02*
X143185502Y-81724500D01*
X140814999Y-81250999D02*
X142712001Y-81250999D01*
X143185502Y-81724500D02*
X143700500Y-81724500D01*
X143952000Y-81976000D02*
X143952000Y-82526000D01*
X143700500Y-81724500D02*
X143952000Y-81976000D01*
X142002000Y-77911000D02*
X142427000Y-77911000D01*
X142427000Y-77911000D02*
X142748000Y-78232000D01*
X143643002Y-78232000D02*
X143764000Y-78352998D01*
X142748000Y-78232000D02*
X143643002Y-78232000D01*
X143764000Y-82338000D02*
X143952000Y-82526000D01*
X143764000Y-78352998D02*
X143764000Y-82338000D01*
X156288000Y-81153000D02*
X157313000Y-81153000D01*
X159129590Y-82296000D02*
X159782000Y-82296000D01*
X157986590Y-81153000D02*
X159129590Y-82296000D01*
X156288000Y-81153000D02*
X157986590Y-81153000D01*
X169094002Y-82296000D02*
X172720000Y-82296000D01*
X168068992Y-83321010D02*
X169094002Y-82296000D01*
X160807010Y-83321010D02*
X168068992Y-83321010D01*
X159782000Y-82296000D02*
X160807010Y-83321010D01*
X159655000Y-84963000D02*
X159782000Y-84836000D01*
X156288000Y-84963000D02*
X159655000Y-84963000D01*
X160807010Y-85861010D02*
X167179992Y-85861010D01*
X159782000Y-84836000D02*
X160807010Y-85861010D01*
X167179992Y-85861010D02*
X168068992Y-85861010D01*
X169094002Y-84836000D02*
X168621001Y-85309001D01*
X168621001Y-85309001D02*
X168746001Y-85184001D01*
X172720000Y-84836000D02*
X169094002Y-84836000D01*
X168068992Y-85861010D02*
X168621001Y-85309001D01*
X156288000Y-82423000D02*
X156288000Y-83693000D01*
X159782000Y-87376000D02*
X159283990Y-86877990D01*
X154686000Y-86868000D02*
X159274000Y-86868000D01*
X156288000Y-83693000D02*
X155067000Y-83693000D01*
X155067000Y-83693000D02*
X154305000Y-84455000D01*
X159274000Y-86868000D02*
X159782000Y-87376000D01*
X154305000Y-86487000D02*
X154686000Y-86868000D01*
X154305000Y-84455000D02*
X154305000Y-86487000D01*
X169094002Y-87376000D02*
X172720000Y-87376000D01*
X160168810Y-87376000D02*
X161193820Y-88401010D01*
X159782000Y-87376000D02*
X160168810Y-87376000D01*
X168068992Y-88401010D02*
X169094002Y-87376000D01*
X161193820Y-88401010D02*
X168068992Y-88401010D01*
X142002000Y-92431000D02*
X141977000Y-92456000D01*
X142002000Y-89916000D02*
X142002000Y-92431000D01*
X163567000Y-82296000D02*
X161782000Y-82296000D01*
X163567000Y-84836000D02*
X161782000Y-84836000D01*
X163567000Y-87376000D02*
X161782000Y-87376000D01*
X139557000Y-78502000D02*
X138557000Y-79502000D01*
X139557000Y-76708000D02*
X139557000Y-78502000D01*
X138557000Y-79502000D02*
X138175588Y-79502000D01*
X136931989Y-84210989D02*
X137557000Y-84836000D01*
X136931989Y-80745599D02*
X136931989Y-84210989D01*
X138175588Y-79502000D02*
X136931989Y-80745599D01*
X136906000Y-88582500D02*
X138557000Y-90233500D01*
X136906000Y-86995000D02*
X136906000Y-88582500D01*
X139128500Y-86296500D02*
X137604500Y-86296500D01*
X139557000Y-85868000D02*
X139128500Y-86296500D01*
X139557000Y-84836000D02*
X139557000Y-85868000D01*
X137604500Y-86296500D02*
X136906000Y-86995000D01*
X137620500Y-91360500D02*
X138557000Y-90424000D01*
X137620500Y-93281500D02*
X137620500Y-91360500D01*
X146380000Y-83693000D02*
X146988000Y-83693000D01*
X144002000Y-84836000D02*
X144400822Y-84836000D01*
X144341788Y-84496212D02*
X144865788Y-84496212D01*
X144002000Y-84836000D02*
X144341788Y-84496212D01*
X145669000Y-83693000D02*
X146988000Y-83693000D01*
X144865788Y-84496212D02*
X145669000Y-83693000D01*
X145127012Y-81881012D02*
X145669000Y-82423000D01*
X145669000Y-82423000D02*
X146988000Y-82423000D01*
X145127012Y-81881012D02*
X145127012Y-81182512D01*
X145127012Y-81881012D02*
X145127012Y-80992012D01*
X144772000Y-80637000D02*
X144772000Y-77478000D01*
X145127012Y-80992012D02*
X144772000Y-80637000D01*
X144002000Y-76708000D02*
X144772000Y-77478000D01*
D18*
X150776000Y-73002922D02*
X150776000Y-88591671D01*
X150734041Y-88569243D01*
X150649215Y-88543511D01*
X150561000Y-88534823D01*
X150040000Y-88537000D01*
X149927500Y-88649500D01*
X149927500Y-89508000D01*
X149947500Y-89508000D01*
X149947500Y-89816000D01*
X149927500Y-89816000D01*
X149927500Y-90674500D01*
X150040000Y-90787000D01*
X150561000Y-90789177D01*
X150649215Y-90780489D01*
X150734041Y-90754757D01*
X150776000Y-90732329D01*
X150776000Y-91322208D01*
X150695564Y-91402644D01*
X150587027Y-91193333D01*
X150326723Y-91075759D01*
X150048484Y-91011227D01*
X149763001Y-91002217D01*
X149481245Y-91049074D01*
X149214045Y-91149999D01*
X149132973Y-91193333D01*
X149024435Y-91402646D01*
X149860000Y-92238211D01*
X149874142Y-92224069D01*
X150091931Y-92441858D01*
X150077789Y-92456000D01*
X150091931Y-92470142D01*
X149874142Y-92687931D01*
X149860000Y-92673789D01*
X149024435Y-93509354D01*
X149132973Y-93718667D01*
X149393277Y-93836241D01*
X149671516Y-93900773D01*
X149956999Y-93909783D01*
X150238755Y-93862926D01*
X150505955Y-93762001D01*
X150587027Y-93718667D01*
X150695564Y-93509356D01*
X150776000Y-93589792D01*
X150776000Y-96669078D01*
X149755078Y-97690000D01*
X129073422Y-97690000D01*
X128116000Y-96732578D01*
X128116000Y-94779319D01*
X131150000Y-94779319D01*
X131150000Y-95212681D01*
X131234545Y-95637716D01*
X131400385Y-96038091D01*
X131641148Y-96398418D01*
X131947582Y-96704852D01*
X132307909Y-96945615D01*
X132708284Y-97111455D01*
X133133319Y-97196000D01*
X133566681Y-97196000D01*
X133991716Y-97111455D01*
X134392091Y-96945615D01*
X134752418Y-96704852D01*
X135058852Y-96398418D01*
X135299615Y-96038091D01*
X135465455Y-95637716D01*
X135550000Y-95212681D01*
X135550000Y-94779319D01*
X135465455Y-94354284D01*
X135299615Y-93953909D01*
X135058852Y-93593582D01*
X134752418Y-93287148D01*
X134392091Y-93046385D01*
X133991716Y-92880545D01*
X133566681Y-92796000D01*
X133133319Y-92796000D01*
X132708284Y-92880545D01*
X132307909Y-93046385D01*
X131947582Y-93287148D01*
X131641148Y-93593582D01*
X131400385Y-93953909D01*
X131234545Y-94354284D01*
X131150000Y-94779319D01*
X128116000Y-94779319D01*
X128116000Y-89731011D01*
X132228778Y-89731011D01*
X132385680Y-89981272D01*
X132714261Y-90138864D01*
X133067273Y-90229326D01*
X133431150Y-90249180D01*
X133791909Y-90197663D01*
X134135685Y-90076755D01*
X134314320Y-89981272D01*
X134471222Y-89731011D01*
X133350000Y-88609789D01*
X132228778Y-89731011D01*
X128116000Y-89731011D01*
X128116000Y-88473150D01*
X131492820Y-88473150D01*
X131544337Y-88833909D01*
X131665245Y-89177685D01*
X131760728Y-89356320D01*
X132010989Y-89513222D01*
X133132211Y-88392000D01*
X133567789Y-88392000D01*
X134689011Y-89513222D01*
X134939272Y-89356320D01*
X135096864Y-89027739D01*
X135187326Y-88674727D01*
X135207180Y-88310850D01*
X135155663Y-87950091D01*
X135034755Y-87606315D01*
X134939272Y-87427680D01*
X134689011Y-87270778D01*
X133567789Y-88392000D01*
X133132211Y-88392000D01*
X132010989Y-87270778D01*
X131760728Y-87427680D01*
X131603136Y-87756261D01*
X131512674Y-88109273D01*
X131492820Y-88473150D01*
X128116000Y-88473150D01*
X128116000Y-84724565D01*
X131650000Y-84724565D01*
X131650000Y-85059435D01*
X131715330Y-85387872D01*
X131843479Y-85697252D01*
X132029523Y-85975687D01*
X132266313Y-86212477D01*
X132544748Y-86398521D01*
X132854128Y-86526670D01*
X133051290Y-86565888D01*
X132908091Y-86586337D01*
X132564315Y-86707245D01*
X132385680Y-86802728D01*
X132228778Y-87052989D01*
X133350000Y-88174211D01*
X134471222Y-87052989D01*
X134434866Y-86995000D01*
X136478945Y-86995000D01*
X136481000Y-87015867D01*
X136481001Y-88561624D01*
X136478945Y-88582500D01*
X136487150Y-88665814D01*
X136505871Y-88727526D01*
X136511453Y-88745927D01*
X136550917Y-88819760D01*
X136604027Y-88884474D01*
X136620239Y-88897779D01*
X137405549Y-89683089D01*
X137405549Y-90974411D01*
X137334739Y-91045221D01*
X137318527Y-91058526D01*
X137265417Y-91123240D01*
X137247907Y-91156000D01*
X137225953Y-91197073D01*
X137201650Y-91277186D01*
X137193445Y-91360500D01*
X137195501Y-91381377D01*
X137195501Y-92287436D01*
X137162916Y-92290645D01*
X137059468Y-92322026D01*
X136964130Y-92372985D01*
X136880565Y-92441565D01*
X136811985Y-92525130D01*
X136761026Y-92620468D01*
X136729645Y-92723916D01*
X136719049Y-92831499D01*
X136719049Y-93731501D01*
X136729645Y-93839084D01*
X136761026Y-93942532D01*
X136811985Y-94037870D01*
X136880565Y-94121435D01*
X136964130Y-94190015D01*
X137059468Y-94240974D01*
X137162916Y-94272355D01*
X137270499Y-94282951D01*
X137970501Y-94282951D01*
X138078084Y-94272355D01*
X138181532Y-94240974D01*
X138276870Y-94190015D01*
X138360435Y-94121435D01*
X138429015Y-94037870D01*
X138479974Y-93942532D01*
X138511355Y-93839084D01*
X138521951Y-93731501D01*
X138521951Y-92831499D01*
X138719049Y-92831499D01*
X138719049Y-93731501D01*
X138729645Y-93839084D01*
X138761026Y-93942532D01*
X138811985Y-94037870D01*
X138880565Y-94121435D01*
X138964130Y-94190015D01*
X139059468Y-94240974D01*
X139162916Y-94272355D01*
X139270499Y-94282951D01*
X139950200Y-94282951D01*
X139966620Y-94299371D01*
X139981499Y-94317501D01*
X140053827Y-94376859D01*
X140136346Y-94420966D01*
X140198722Y-94439888D01*
X140225883Y-94448127D01*
X140318999Y-94457298D01*
X140342331Y-94455000D01*
X145772668Y-94455000D01*
X145796000Y-94457298D01*
X145819332Y-94455000D01*
X145889116Y-94448127D01*
X145978654Y-94420966D01*
X146061173Y-94376859D01*
X146133501Y-94317501D01*
X146148384Y-94299366D01*
X146800022Y-93647728D01*
X146940804Y-93706042D01*
X147191961Y-93756000D01*
X147448039Y-93756000D01*
X147699196Y-93706042D01*
X147935781Y-93608045D01*
X148148702Y-93465776D01*
X148329776Y-93284702D01*
X148472045Y-93071781D01*
X148508949Y-92982686D01*
X148553999Y-93101955D01*
X148597333Y-93183027D01*
X148806646Y-93291565D01*
X149642211Y-92456000D01*
X148806646Y-91620435D01*
X148597333Y-91728973D01*
X148507942Y-91926881D01*
X148472045Y-91840219D01*
X148329776Y-91627298D01*
X148148702Y-91446224D01*
X147935781Y-91303955D01*
X147699196Y-91205958D01*
X147448039Y-91156000D01*
X147373500Y-91156000D01*
X147373500Y-90638451D01*
X147436001Y-90638451D01*
X147543584Y-90627855D01*
X147647032Y-90596474D01*
X147742370Y-90545515D01*
X147825935Y-90476935D01*
X147894515Y-90393370D01*
X147924645Y-90337000D01*
X148533823Y-90337000D01*
X148542511Y-90425215D01*
X148568243Y-90510041D01*
X148610029Y-90588216D01*
X148666263Y-90656737D01*
X148734784Y-90712971D01*
X148812959Y-90754757D01*
X148897785Y-90780489D01*
X148986000Y-90789177D01*
X149507000Y-90787000D01*
X149619500Y-90674500D01*
X149619500Y-89816000D01*
X148648500Y-89816000D01*
X148536000Y-89928500D01*
X148533823Y-90337000D01*
X147924645Y-90337000D01*
X147945474Y-90298032D01*
X147976855Y-90194584D01*
X147987451Y-90087001D01*
X147987451Y-89236999D01*
X147976855Y-89129416D01*
X147945474Y-89025968D01*
X147924646Y-88987000D01*
X148533823Y-88987000D01*
X148536000Y-89395500D01*
X148648500Y-89508000D01*
X149619500Y-89508000D01*
X149619500Y-88649500D01*
X149507000Y-88537000D01*
X148986000Y-88534823D01*
X148897785Y-88543511D01*
X148812959Y-88569243D01*
X148734784Y-88611029D01*
X148666263Y-88667263D01*
X148610029Y-88735784D01*
X148568243Y-88813959D01*
X148542511Y-88898785D01*
X148533823Y-88987000D01*
X147924646Y-88987000D01*
X147894515Y-88930630D01*
X147825935Y-88847065D01*
X147742370Y-88778485D01*
X147647032Y-88727526D01*
X147543584Y-88696145D01*
X147436001Y-88685549D01*
X147373500Y-88685549D01*
X147373500Y-88104451D01*
X147863000Y-88104451D01*
X147951074Y-88095776D01*
X148035763Y-88070086D01*
X148113813Y-88028368D01*
X148182224Y-87972224D01*
X148238368Y-87903813D01*
X148280086Y-87825763D01*
X148305776Y-87741074D01*
X148314451Y-87653000D01*
X148314451Y-87353000D01*
X148305776Y-87264926D01*
X148280086Y-87180237D01*
X148238368Y-87102187D01*
X148182224Y-87033776D01*
X148113813Y-86977632D01*
X148107888Y-86974465D01*
X148186041Y-86950757D01*
X148264216Y-86908971D01*
X148332737Y-86852737D01*
X148388971Y-86784216D01*
X148430757Y-86706041D01*
X148456489Y-86621215D01*
X148465177Y-86533000D01*
X148463000Y-86499500D01*
X148350500Y-86387000D01*
X147142000Y-86387000D01*
X147142000Y-86407000D01*
X146834000Y-86407000D01*
X146834000Y-86387000D01*
X145625500Y-86387000D01*
X145513000Y-86499500D01*
X145510823Y-86533000D01*
X145519511Y-86621215D01*
X145545243Y-86706041D01*
X145587029Y-86784216D01*
X145643263Y-86852737D01*
X145711784Y-86908971D01*
X145789959Y-86950757D01*
X145868112Y-86974465D01*
X145862187Y-86977632D01*
X145800814Y-87028000D01*
X144928451Y-87028000D01*
X144928451Y-86901000D01*
X144917855Y-86793417D01*
X144886474Y-86689969D01*
X144835515Y-86594630D01*
X144766935Y-86511065D01*
X144683370Y-86442485D01*
X144588031Y-86391526D01*
X144484583Y-86360145D01*
X144377000Y-86349549D01*
X143702000Y-86349549D01*
X143594417Y-86360145D01*
X143490969Y-86391526D01*
X143395630Y-86442485D01*
X143312065Y-86511065D01*
X143243485Y-86594630D01*
X143192526Y-86689969D01*
X143161145Y-86793417D01*
X143150549Y-86901000D01*
X143150549Y-87851000D01*
X143161145Y-87958583D01*
X143192526Y-88062031D01*
X143243485Y-88157370D01*
X143312065Y-88240935D01*
X143395630Y-88309515D01*
X143490969Y-88360474D01*
X143564500Y-88382780D01*
X143564501Y-88923167D01*
X143544416Y-88925145D01*
X143440968Y-88956526D01*
X143345630Y-89007485D01*
X143262065Y-89076065D01*
X143193485Y-89159630D01*
X143142526Y-89254968D01*
X143111145Y-89358416D01*
X143100549Y-89465999D01*
X143100549Y-90366001D01*
X143111145Y-90473584D01*
X143142526Y-90577032D01*
X143193485Y-90672370D01*
X143262065Y-90755935D01*
X143345630Y-90824515D01*
X143440968Y-90875474D01*
X143544416Y-90906855D01*
X143651999Y-90917451D01*
X144352001Y-90917451D01*
X144459584Y-90906855D01*
X144563032Y-90875474D01*
X144658370Y-90824515D01*
X144741935Y-90755935D01*
X144810515Y-90672370D01*
X144861474Y-90577032D01*
X144892855Y-90473584D01*
X144903451Y-90366001D01*
X144903451Y-89465999D01*
X144892855Y-89358416D01*
X144861474Y-89254968D01*
X144810515Y-89159630D01*
X144741935Y-89076065D01*
X144658370Y-89007485D01*
X144563032Y-88956526D01*
X144514500Y-88941804D01*
X144514500Y-88382780D01*
X144588031Y-88360474D01*
X144683370Y-88309515D01*
X144766935Y-88240935D01*
X144835515Y-88157370D01*
X144886474Y-88062031D01*
X144911965Y-87978000D01*
X145800814Y-87978000D01*
X145862187Y-88028368D01*
X145940237Y-88070086D01*
X146024926Y-88095776D01*
X146113000Y-88104451D01*
X146423501Y-88104451D01*
X146423500Y-88685549D01*
X146360999Y-88685549D01*
X146253416Y-88696145D01*
X146149968Y-88727526D01*
X146054630Y-88778485D01*
X145971065Y-88847065D01*
X145902485Y-88930630D01*
X145851526Y-89025968D01*
X145820145Y-89129416D01*
X145809549Y-89236999D01*
X145809549Y-90087001D01*
X145820145Y-90194584D01*
X145851526Y-90298032D01*
X145902485Y-90393370D01*
X145971065Y-90476935D01*
X146054630Y-90545515D01*
X146149968Y-90596474D01*
X146253416Y-90627855D01*
X146360999Y-90638451D01*
X146423500Y-90638451D01*
X146423501Y-91514021D01*
X146310224Y-91627298D01*
X146167955Y-91840219D01*
X146069958Y-92076804D01*
X146020000Y-92327961D01*
X146020000Y-92584039D01*
X146069958Y-92835196D01*
X146128272Y-92975978D01*
X145599250Y-93505000D01*
X144886080Y-93505000D01*
X144921737Y-93475737D01*
X144977971Y-93407216D01*
X145019757Y-93329041D01*
X145045489Y-93244215D01*
X145054177Y-93156000D01*
X145052000Y-92722500D01*
X144939500Y-92610000D01*
X144181000Y-92610000D01*
X144181000Y-92630000D01*
X143873000Y-92630000D01*
X143873000Y-92610000D01*
X143114500Y-92610000D01*
X143002000Y-92722500D01*
X142999823Y-93156000D01*
X143008511Y-93244215D01*
X143034243Y-93329041D01*
X143076029Y-93407216D01*
X143132263Y-93475737D01*
X143167920Y-93505000D01*
X140521951Y-93505000D01*
X140521951Y-92831499D01*
X140511355Y-92723916D01*
X140479974Y-92620468D01*
X140429015Y-92525130D01*
X140360435Y-92441565D01*
X140276870Y-92372985D01*
X140181532Y-92322026D01*
X140078084Y-92290645D01*
X139970501Y-92280049D01*
X139270499Y-92280049D01*
X139162916Y-92290645D01*
X139059468Y-92322026D01*
X138964130Y-92372985D01*
X138880565Y-92441565D01*
X138811985Y-92525130D01*
X138761026Y-92620468D01*
X138729645Y-92723916D01*
X138719049Y-92831499D01*
X138521951Y-92831499D01*
X138511355Y-92723916D01*
X138479974Y-92620468D01*
X138429015Y-92525130D01*
X138360435Y-92441565D01*
X138276870Y-92372985D01*
X138181532Y-92322026D01*
X138078084Y-92290645D01*
X138045500Y-92287436D01*
X138045500Y-91575451D01*
X139407000Y-91575451D01*
X139465810Y-91569659D01*
X139522360Y-91552504D01*
X139574477Y-91524647D01*
X139620158Y-91487158D01*
X139657647Y-91441477D01*
X139685504Y-91389360D01*
X139702659Y-91332810D01*
X139708451Y-91274000D01*
X139708451Y-89574000D01*
X139702659Y-89515190D01*
X139687737Y-89465999D01*
X141100549Y-89465999D01*
X141100549Y-90366001D01*
X141111145Y-90473584D01*
X141142526Y-90577032D01*
X141193485Y-90672370D01*
X141262065Y-90755935D01*
X141345630Y-90824515D01*
X141440968Y-90875474D01*
X141544416Y-90906855D01*
X141577000Y-90910064D01*
X141577001Y-91461936D01*
X141544416Y-91465145D01*
X141440968Y-91496526D01*
X141345630Y-91547485D01*
X141262065Y-91616065D01*
X141193485Y-91699630D01*
X141142526Y-91794968D01*
X141111145Y-91898416D01*
X141100549Y-92005999D01*
X141100549Y-92906001D01*
X141111145Y-93013584D01*
X141142526Y-93117032D01*
X141193485Y-93212370D01*
X141262065Y-93295935D01*
X141345630Y-93364515D01*
X141440968Y-93415474D01*
X141544416Y-93446855D01*
X141651999Y-93457451D01*
X142302001Y-93457451D01*
X142409584Y-93446855D01*
X142513032Y-93415474D01*
X142608370Y-93364515D01*
X142691935Y-93295935D01*
X142760515Y-93212370D01*
X142811474Y-93117032D01*
X142842855Y-93013584D01*
X142853451Y-92906001D01*
X142853451Y-92005999D01*
X142842855Y-91898416D01*
X142811474Y-91794968D01*
X142790646Y-91756000D01*
X142999823Y-91756000D01*
X143002000Y-92189500D01*
X143114500Y-92302000D01*
X143873000Y-92302000D01*
X143873000Y-91418500D01*
X144181000Y-91418500D01*
X144181000Y-92302000D01*
X144939500Y-92302000D01*
X145052000Y-92189500D01*
X145054177Y-91756000D01*
X145045489Y-91667785D01*
X145019757Y-91582959D01*
X144977971Y-91504784D01*
X144921737Y-91436263D01*
X144853216Y-91380029D01*
X144775041Y-91338243D01*
X144690215Y-91312511D01*
X144602000Y-91303823D01*
X144293500Y-91306000D01*
X144181000Y-91418500D01*
X143873000Y-91418500D01*
X143760500Y-91306000D01*
X143452000Y-91303823D01*
X143363785Y-91312511D01*
X143278959Y-91338243D01*
X143200784Y-91380029D01*
X143132263Y-91436263D01*
X143076029Y-91504784D01*
X143034243Y-91582959D01*
X143008511Y-91667785D01*
X142999823Y-91756000D01*
X142790646Y-91756000D01*
X142760515Y-91699630D01*
X142691935Y-91616065D01*
X142608370Y-91547485D01*
X142513032Y-91496526D01*
X142427000Y-91470428D01*
X142427000Y-90910064D01*
X142459584Y-90906855D01*
X142563032Y-90875474D01*
X142658370Y-90824515D01*
X142741935Y-90755935D01*
X142810515Y-90672370D01*
X142861474Y-90577032D01*
X142892855Y-90473584D01*
X142903451Y-90366001D01*
X142903451Y-89465999D01*
X142892855Y-89358416D01*
X142861474Y-89254968D01*
X142810515Y-89159630D01*
X142741935Y-89076065D01*
X142658370Y-89007485D01*
X142563032Y-88956526D01*
X142459584Y-88925145D01*
X142352001Y-88914549D01*
X141651999Y-88914549D01*
X141544416Y-88925145D01*
X141440968Y-88956526D01*
X141345630Y-89007485D01*
X141262065Y-89076065D01*
X141193485Y-89159630D01*
X141142526Y-89254968D01*
X141111145Y-89358416D01*
X141100549Y-89465999D01*
X139687737Y-89465999D01*
X139685504Y-89458640D01*
X139657647Y-89406523D01*
X139620158Y-89360842D01*
X139574477Y-89323353D01*
X139522360Y-89295496D01*
X139465810Y-89278341D01*
X139407000Y-89272549D01*
X138197089Y-89272549D01*
X137331000Y-88406460D01*
X137331000Y-87770735D01*
X137407000Y-87770735D01*
X137407000Y-87997265D01*
X137451194Y-88219443D01*
X137537884Y-88428729D01*
X137663737Y-88617082D01*
X137823918Y-88777263D01*
X138012271Y-88903116D01*
X138221557Y-88989806D01*
X138443735Y-89034000D01*
X138670265Y-89034000D01*
X138892443Y-88989806D01*
X139101729Y-88903116D01*
X139290082Y-88777263D01*
X139450263Y-88617082D01*
X139576116Y-88428729D01*
X139662806Y-88219443D01*
X139686365Y-88101000D01*
X140924823Y-88101000D01*
X140933511Y-88189215D01*
X140959243Y-88274041D01*
X141001029Y-88352216D01*
X141057263Y-88420737D01*
X141125784Y-88476971D01*
X141203959Y-88518757D01*
X141288785Y-88544489D01*
X141377000Y-88553177D01*
X141698000Y-88551000D01*
X141810500Y-88438500D01*
X141810500Y-87530000D01*
X142118500Y-87530000D01*
X142118500Y-88438500D01*
X142231000Y-88551000D01*
X142552000Y-88553177D01*
X142640215Y-88544489D01*
X142725041Y-88518757D01*
X142803216Y-88476971D01*
X142871737Y-88420737D01*
X142927971Y-88352216D01*
X142969757Y-88274041D01*
X142995489Y-88189215D01*
X143004177Y-88101000D01*
X143002000Y-87642500D01*
X142889500Y-87530000D01*
X142118500Y-87530000D01*
X141810500Y-87530000D01*
X141039500Y-87530000D01*
X140927000Y-87642500D01*
X140924823Y-88101000D01*
X139686365Y-88101000D01*
X139707000Y-87997265D01*
X139707000Y-87970040D01*
X140925301Y-86751739D01*
X140927000Y-87109500D01*
X141039500Y-87222000D01*
X141810500Y-87222000D01*
X141810500Y-86313500D01*
X142118500Y-86313500D01*
X142118500Y-87222000D01*
X142889500Y-87222000D01*
X143002000Y-87109500D01*
X143004177Y-86651000D01*
X142995489Y-86562785D01*
X142969757Y-86477959D01*
X142927971Y-86399784D01*
X142871737Y-86331263D01*
X142803216Y-86275029D01*
X142725041Y-86233243D01*
X142640215Y-86207511D01*
X142552000Y-86198823D01*
X142231000Y-86201000D01*
X142118500Y-86313500D01*
X141810500Y-86313500D01*
X141698000Y-86201000D01*
X141451818Y-86199330D01*
X141457791Y-86188155D01*
X141471538Y-86162438D01*
X141495840Y-86082324D01*
X141496167Y-86079000D01*
X141501990Y-86019884D01*
X141501990Y-86019877D01*
X141504045Y-85999010D01*
X141501990Y-85978143D01*
X141501990Y-85933000D01*
X145510823Y-85933000D01*
X145513000Y-85966500D01*
X145625500Y-86079000D01*
X146834000Y-86079000D01*
X146834000Y-86059000D01*
X147142000Y-86059000D01*
X147142000Y-86079000D01*
X148350500Y-86079000D01*
X148463000Y-85966500D01*
X148465177Y-85933000D01*
X148456489Y-85844785D01*
X148430757Y-85759959D01*
X148388971Y-85681784D01*
X148332737Y-85613263D01*
X148264216Y-85557029D01*
X148186041Y-85515243D01*
X148107888Y-85491535D01*
X148113813Y-85488368D01*
X148182224Y-85432224D01*
X148238368Y-85363813D01*
X148280086Y-85285763D01*
X148305776Y-85201074D01*
X148314451Y-85113000D01*
X148314451Y-84813000D01*
X148305776Y-84724926D01*
X148280086Y-84640237D01*
X148238368Y-84562187D01*
X148182224Y-84493776D01*
X148113813Y-84437632D01*
X148035763Y-84395914D01*
X147951074Y-84370224D01*
X147863000Y-84361549D01*
X146113000Y-84361549D01*
X146024926Y-84370224D01*
X145940237Y-84395914D01*
X145862187Y-84437632D01*
X145793776Y-84493776D01*
X145737632Y-84562187D01*
X145695914Y-84640237D01*
X145670224Y-84724926D01*
X145661549Y-84813000D01*
X145661549Y-85113000D01*
X145670224Y-85201074D01*
X145695914Y-85285763D01*
X145737632Y-85363813D01*
X145793776Y-85432224D01*
X145862187Y-85488368D01*
X145868112Y-85491535D01*
X145789959Y-85515243D01*
X145711784Y-85557029D01*
X145643263Y-85613263D01*
X145587029Y-85681784D01*
X145545243Y-85759959D01*
X145519511Y-85844785D01*
X145510823Y-85933000D01*
X141501990Y-85933000D01*
X141501990Y-85813985D01*
X141544416Y-85826855D01*
X141651999Y-85837451D01*
X142352001Y-85837451D01*
X142459584Y-85826855D01*
X142563032Y-85795474D01*
X142658370Y-85744515D01*
X142741935Y-85675935D01*
X142810515Y-85592370D01*
X142861474Y-85497032D01*
X142892855Y-85393584D01*
X142903451Y-85286001D01*
X142903451Y-84385999D01*
X143100549Y-84385999D01*
X143100549Y-85286001D01*
X143111145Y-85393584D01*
X143142526Y-85497032D01*
X143193485Y-85592370D01*
X143262065Y-85675935D01*
X143345630Y-85744515D01*
X143440968Y-85795474D01*
X143544416Y-85826855D01*
X143651999Y-85837451D01*
X144352001Y-85837451D01*
X144459584Y-85826855D01*
X144563032Y-85795474D01*
X144658370Y-85744515D01*
X144741935Y-85675935D01*
X144810515Y-85592370D01*
X144861474Y-85497032D01*
X144892855Y-85393584D01*
X144903451Y-85286001D01*
X144903451Y-84919558D01*
X144949102Y-84915062D01*
X145029215Y-84890760D01*
X145103048Y-84851296D01*
X145167762Y-84798186D01*
X145181071Y-84781969D01*
X145797643Y-84165398D01*
X145862187Y-84218368D01*
X145940237Y-84260086D01*
X146024926Y-84285776D01*
X146113000Y-84294451D01*
X147863000Y-84294451D01*
X147951074Y-84285776D01*
X148035763Y-84260086D01*
X148113813Y-84218368D01*
X148182224Y-84162224D01*
X148238368Y-84093813D01*
X148280086Y-84015763D01*
X148305776Y-83931074D01*
X148314451Y-83843000D01*
X148314451Y-83543000D01*
X148305776Y-83454926D01*
X148280086Y-83370237D01*
X148238368Y-83292187D01*
X148182224Y-83223776D01*
X148113813Y-83167632D01*
X148035763Y-83125914D01*
X147951074Y-83100224D01*
X147863000Y-83091549D01*
X146113000Y-83091549D01*
X146024926Y-83100224D01*
X145940237Y-83125914D01*
X145862187Y-83167632D01*
X145793776Y-83223776D01*
X145757482Y-83268000D01*
X145689866Y-83268000D01*
X145668999Y-83265945D01*
X145648132Y-83268000D01*
X145648126Y-83268000D01*
X145594098Y-83273321D01*
X145585685Y-83274150D01*
X145561383Y-83281522D01*
X145505573Y-83298452D01*
X145431740Y-83337916D01*
X145367026Y-83391026D01*
X145353721Y-83407238D01*
X144752284Y-84008676D01*
X144741935Y-83996065D01*
X144658370Y-83927485D01*
X144563032Y-83876526D01*
X144459584Y-83845145D01*
X144352001Y-83834549D01*
X143651999Y-83834549D01*
X143544416Y-83845145D01*
X143440968Y-83876526D01*
X143345630Y-83927485D01*
X143262065Y-83996065D01*
X143193485Y-84079630D01*
X143142526Y-84174968D01*
X143111145Y-84278416D01*
X143100549Y-84385999D01*
X142903451Y-84385999D01*
X142892855Y-84278416D01*
X142861474Y-84174968D01*
X142810515Y-84079630D01*
X142741935Y-83996065D01*
X142658370Y-83927485D01*
X142563032Y-83876526D01*
X142459584Y-83845145D01*
X142427000Y-83841936D01*
X142427000Y-83777451D01*
X142452000Y-83777451D01*
X142510810Y-83771659D01*
X142567360Y-83754504D01*
X142619477Y-83726647D01*
X142665158Y-83689158D01*
X142702647Y-83643477D01*
X142730504Y-83591360D01*
X142747659Y-83534810D01*
X142753451Y-83476000D01*
X142753451Y-81893489D01*
X142870218Y-82010256D01*
X142883528Y-82026474D01*
X142948242Y-82079584D01*
X143001327Y-82107958D01*
X143022075Y-82119048D01*
X143102188Y-82143350D01*
X143185502Y-82151556D01*
X143206376Y-82149500D01*
X143250549Y-82149500D01*
X143250549Y-83476000D01*
X143256341Y-83534810D01*
X143273496Y-83591360D01*
X143301353Y-83643477D01*
X143338842Y-83689158D01*
X143384523Y-83726647D01*
X143436640Y-83754504D01*
X143493190Y-83771659D01*
X143552000Y-83777451D01*
X144352000Y-83777451D01*
X144410810Y-83771659D01*
X144467360Y-83754504D01*
X144519477Y-83726647D01*
X144565158Y-83689158D01*
X144602647Y-83643477D01*
X144630504Y-83591360D01*
X144647659Y-83534810D01*
X144653451Y-83476000D01*
X144653451Y-81576000D01*
X144647659Y-81517190D01*
X144630504Y-81460640D01*
X144602647Y-81408523D01*
X144565158Y-81362842D01*
X144519477Y-81325353D01*
X144467360Y-81297496D01*
X144410810Y-81280341D01*
X144352000Y-81274549D01*
X144189000Y-81274549D01*
X144189000Y-78373864D01*
X144191055Y-78352997D01*
X144189000Y-78332130D01*
X144189000Y-78332124D01*
X144182850Y-78269684D01*
X144158548Y-78189571D01*
X144119084Y-78115738D01*
X144065974Y-78051024D01*
X144049758Y-78037716D01*
X143958286Y-77946244D01*
X143944976Y-77930026D01*
X143880262Y-77876916D01*
X143806429Y-77837452D01*
X143726316Y-77813150D01*
X143663876Y-77807000D01*
X143663869Y-77807000D01*
X143643002Y-77804945D01*
X143622135Y-77807000D01*
X142924040Y-77807000D01*
X142742284Y-77625244D01*
X142728974Y-77609026D01*
X142698235Y-77583799D01*
X142741935Y-77547935D01*
X142810515Y-77464370D01*
X142861474Y-77369032D01*
X142892855Y-77265584D01*
X142903451Y-77158001D01*
X142903451Y-76257999D01*
X143100549Y-76257999D01*
X143100549Y-77158001D01*
X143111145Y-77265584D01*
X143142526Y-77369032D01*
X143193485Y-77464370D01*
X143262065Y-77547935D01*
X143345630Y-77616515D01*
X143440968Y-77667474D01*
X143544416Y-77698855D01*
X143651999Y-77709451D01*
X144347001Y-77709451D01*
X144347000Y-80616133D01*
X144344945Y-80637000D01*
X144347000Y-80657867D01*
X144347000Y-80657873D01*
X144350168Y-80690038D01*
X144353150Y-80720314D01*
X144355244Y-80727216D01*
X144377452Y-80800426D01*
X144416916Y-80874259D01*
X144470026Y-80938974D01*
X144486243Y-80952283D01*
X144702013Y-81168053D01*
X144702012Y-81535239D01*
X144702012Y-81860145D01*
X144699957Y-81881012D01*
X144702012Y-81901879D01*
X144702012Y-81901885D01*
X144703713Y-81919150D01*
X144708162Y-81964326D01*
X144713802Y-81982917D01*
X144732464Y-82044438D01*
X144771928Y-82118271D01*
X144825038Y-82182986D01*
X144841255Y-82196295D01*
X145353721Y-82708762D01*
X145367026Y-82724974D01*
X145431740Y-82778084D01*
X145467568Y-82797234D01*
X145505572Y-82817548D01*
X145583807Y-82841280D01*
X145585686Y-82841850D01*
X145648126Y-82848000D01*
X145648133Y-82848000D01*
X145669000Y-82850055D01*
X145689867Y-82848000D01*
X145757482Y-82848000D01*
X145793776Y-82892224D01*
X145862187Y-82948368D01*
X145940237Y-82990086D01*
X146024926Y-83015776D01*
X146113000Y-83024451D01*
X147863000Y-83024451D01*
X147951074Y-83015776D01*
X148035763Y-82990086D01*
X148113813Y-82948368D01*
X148182224Y-82892224D01*
X148238368Y-82823813D01*
X148280086Y-82745763D01*
X148305776Y-82661074D01*
X148314451Y-82573000D01*
X148314451Y-82273000D01*
X148305776Y-82184926D01*
X148280086Y-82100237D01*
X148238368Y-82022187D01*
X148182224Y-81953776D01*
X148113813Y-81897632D01*
X148035763Y-81855914D01*
X147951074Y-81830224D01*
X147863000Y-81821549D01*
X146113000Y-81821549D01*
X146024926Y-81830224D01*
X145940237Y-81855914D01*
X145862187Y-81897632D01*
X145797643Y-81950602D01*
X145552012Y-81704972D01*
X145552012Y-81012879D01*
X145554067Y-80992012D01*
X145552012Y-80971145D01*
X145552012Y-80971138D01*
X145545862Y-80908698D01*
X145535415Y-80874259D01*
X145521560Y-80828584D01*
X145506509Y-80800426D01*
X145482096Y-80754752D01*
X145428986Y-80690038D01*
X145412774Y-80676733D01*
X145197000Y-80460960D01*
X145197000Y-80183000D01*
X145510823Y-80183000D01*
X145519511Y-80271215D01*
X145545243Y-80356041D01*
X145587029Y-80434216D01*
X145643263Y-80502737D01*
X145711784Y-80558971D01*
X145789959Y-80600757D01*
X145868112Y-80624465D01*
X145862187Y-80627632D01*
X145793776Y-80683776D01*
X145737632Y-80752187D01*
X145695914Y-80830237D01*
X145670224Y-80914926D01*
X145661549Y-81003000D01*
X145661549Y-81303000D01*
X145670224Y-81391074D01*
X145695914Y-81475763D01*
X145737632Y-81553813D01*
X145793776Y-81622224D01*
X145862187Y-81678368D01*
X145940237Y-81720086D01*
X146024926Y-81745776D01*
X146113000Y-81754451D01*
X147863000Y-81754451D01*
X147951074Y-81745776D01*
X148035763Y-81720086D01*
X148113813Y-81678368D01*
X148182224Y-81622224D01*
X148238368Y-81553813D01*
X148280086Y-81475763D01*
X148305776Y-81391074D01*
X148314451Y-81303000D01*
X148314451Y-81003000D01*
X148305776Y-80914926D01*
X148280086Y-80830237D01*
X148238368Y-80752187D01*
X148182224Y-80683776D01*
X148113813Y-80627632D01*
X148107888Y-80624465D01*
X148186041Y-80600757D01*
X148264216Y-80558971D01*
X148332737Y-80502737D01*
X148388971Y-80434216D01*
X148430757Y-80356041D01*
X148456489Y-80271215D01*
X148465177Y-80183000D01*
X148463000Y-80149500D01*
X148350500Y-80037000D01*
X147142000Y-80037000D01*
X147142000Y-80057000D01*
X146834000Y-80057000D01*
X146834000Y-80037000D01*
X145625500Y-80037000D01*
X145513000Y-80149500D01*
X145510823Y-80183000D01*
X145197000Y-80183000D01*
X145197000Y-78913000D01*
X145510823Y-78913000D01*
X145519511Y-79001215D01*
X145545243Y-79086041D01*
X145587029Y-79164216D01*
X145643263Y-79232737D01*
X145661861Y-79248000D01*
X145643263Y-79263263D01*
X145587029Y-79331784D01*
X145545243Y-79409959D01*
X145519511Y-79494785D01*
X145510823Y-79583000D01*
X145513000Y-79616500D01*
X145625500Y-79729000D01*
X146834000Y-79729000D01*
X146834000Y-78767000D01*
X147142000Y-78767000D01*
X147142000Y-79729000D01*
X148350500Y-79729000D01*
X148463000Y-79616500D01*
X148465177Y-79583000D01*
X148456489Y-79494785D01*
X148430757Y-79409959D01*
X148388971Y-79331784D01*
X148332737Y-79263263D01*
X148314139Y-79248000D01*
X148332737Y-79232737D01*
X148388971Y-79164216D01*
X148430757Y-79086041D01*
X148456489Y-79001215D01*
X148465177Y-78913000D01*
X148463000Y-78879500D01*
X148350500Y-78767000D01*
X147142000Y-78767000D01*
X146834000Y-78767000D01*
X145625500Y-78767000D01*
X145513000Y-78879500D01*
X145510823Y-78913000D01*
X145197000Y-78913000D01*
X145197000Y-78313000D01*
X145510823Y-78313000D01*
X145513000Y-78346500D01*
X145625500Y-78459000D01*
X146834000Y-78459000D01*
X146834000Y-77975500D01*
X147142000Y-77975500D01*
X147142000Y-78459000D01*
X148350500Y-78459000D01*
X148463000Y-78346500D01*
X148465177Y-78313000D01*
X148456489Y-78224785D01*
X148430757Y-78139959D01*
X148388971Y-78061784D01*
X148332737Y-77993263D01*
X148264216Y-77937029D01*
X148186041Y-77895243D01*
X148101215Y-77869511D01*
X148013000Y-77860823D01*
X147254500Y-77863000D01*
X147142000Y-77975500D01*
X146834000Y-77975500D01*
X146721500Y-77863000D01*
X145963000Y-77860823D01*
X145874785Y-77869511D01*
X145789959Y-77895243D01*
X145711784Y-77937029D01*
X145643263Y-77993263D01*
X145587029Y-78061784D01*
X145545243Y-78139959D01*
X145519511Y-78224785D01*
X145510823Y-78313000D01*
X145197000Y-78313000D01*
X145197000Y-77498866D01*
X145199055Y-77477999D01*
X145197000Y-77457132D01*
X145197000Y-77457126D01*
X145190850Y-77394686D01*
X145166548Y-77314573D01*
X145127084Y-77240740D01*
X145073974Y-77176026D01*
X145057762Y-77162721D01*
X144903451Y-77008410D01*
X144903451Y-76257999D01*
X144892855Y-76150416D01*
X144861474Y-76046968D01*
X144810515Y-75951630D01*
X144741935Y-75868065D01*
X144658370Y-75799485D01*
X144563032Y-75748526D01*
X144459584Y-75717145D01*
X144352001Y-75706549D01*
X143651999Y-75706549D01*
X143544416Y-75717145D01*
X143440968Y-75748526D01*
X143345630Y-75799485D01*
X143262065Y-75868065D01*
X143193485Y-75951630D01*
X143142526Y-76046968D01*
X143111145Y-76150416D01*
X143100549Y-76257999D01*
X142903451Y-76257999D01*
X142892855Y-76150416D01*
X142861474Y-76046968D01*
X142810515Y-75951630D01*
X142741935Y-75868065D01*
X142658370Y-75799485D01*
X142563032Y-75748526D01*
X142459584Y-75717145D01*
X142352001Y-75706549D01*
X141651999Y-75706549D01*
X141544416Y-75717145D01*
X141440968Y-75748526D01*
X141345630Y-75799485D01*
X141262065Y-75868065D01*
X141193485Y-75951630D01*
X141142526Y-76046968D01*
X141111145Y-76150416D01*
X141100549Y-76257999D01*
X141100549Y-77158001D01*
X141111145Y-77265584D01*
X141142526Y-77369032D01*
X141193485Y-77464370D01*
X141262065Y-77547935D01*
X141345630Y-77616515D01*
X141440968Y-77667474D01*
X141544416Y-77698855D01*
X141577001Y-77702064D01*
X141577001Y-77890116D01*
X141574944Y-77911000D01*
X141583150Y-77994314D01*
X141607452Y-78074427D01*
X141646916Y-78148260D01*
X141700026Y-78212974D01*
X141764740Y-78266084D01*
X141838573Y-78305548D01*
X141918686Y-78329850D01*
X141981126Y-78336000D01*
X142002000Y-78338056D01*
X142022874Y-78336000D01*
X142220034Y-78336000D01*
X142184243Y-78402959D01*
X142158511Y-78487785D01*
X142149823Y-78576000D01*
X142152000Y-79259500D01*
X142264500Y-79372000D01*
X142848000Y-79372000D01*
X142848000Y-79352000D01*
X143156000Y-79352000D01*
X143156000Y-79372000D01*
X143176000Y-79372000D01*
X143176000Y-79680000D01*
X143156000Y-79680000D01*
X143156000Y-80813500D01*
X143268500Y-80926000D01*
X143339001Y-80927150D01*
X143339001Y-81276959D01*
X143027285Y-80965243D01*
X143013975Y-80949025D01*
X142949261Y-80895915D01*
X142875428Y-80856451D01*
X142821429Y-80840071D01*
X142848000Y-80813500D01*
X142848000Y-79680000D01*
X142264500Y-79680000D01*
X142152000Y-79792500D01*
X142149823Y-80476000D01*
X142158511Y-80564215D01*
X142184243Y-80649041D01*
X142226029Y-80727216D01*
X142282263Y-80795737D01*
X142319137Y-80825999D01*
X140835866Y-80825999D01*
X140814999Y-80823944D01*
X140794132Y-80825999D01*
X140794125Y-80825999D01*
X140731685Y-80832149D01*
X140651571Y-80856451D01*
X140625854Y-80870198D01*
X140577739Y-80895915D01*
X140513025Y-80949025D01*
X140499720Y-80965237D01*
X139959238Y-81505720D01*
X139943026Y-81519025D01*
X139889916Y-81583739D01*
X139870045Y-81620916D01*
X139850452Y-81657572D01*
X139826149Y-81737685D01*
X139817944Y-81820999D01*
X139820000Y-81841875D01*
X139819999Y-82496134D01*
X139817944Y-82517001D01*
X139819999Y-82537868D01*
X139819999Y-82537874D01*
X139823754Y-82576000D01*
X139826149Y-82600315D01*
X139828879Y-82609313D01*
X139850451Y-82680427D01*
X139889915Y-82754260D01*
X139943025Y-82818975D01*
X139959242Y-82832284D01*
X140651991Y-83525034D01*
X140651990Y-85822969D01*
X139387152Y-87087807D01*
X139290082Y-86990737D01*
X139101729Y-86864884D01*
X138892443Y-86778194D01*
X138670265Y-86734000D01*
X138443735Y-86734000D01*
X138221557Y-86778194D01*
X138012271Y-86864884D01*
X137823918Y-86990737D01*
X137663737Y-87150918D01*
X137537884Y-87339271D01*
X137451194Y-87548557D01*
X137407000Y-87770735D01*
X137331000Y-87770735D01*
X137331000Y-87171040D01*
X137780541Y-86721500D01*
X139107633Y-86721500D01*
X139128500Y-86723555D01*
X139149367Y-86721500D01*
X139149374Y-86721500D01*
X139211814Y-86715350D01*
X139291927Y-86691048D01*
X139365760Y-86651584D01*
X139430474Y-86598474D01*
X139443784Y-86582256D01*
X139842756Y-86183284D01*
X139858974Y-86169974D01*
X139912084Y-86105260D01*
X139951548Y-86031427D01*
X139975850Y-85951314D01*
X139982000Y-85888874D01*
X139984056Y-85868000D01*
X139982000Y-85847126D01*
X139982000Y-85830064D01*
X140014584Y-85826855D01*
X140118032Y-85795474D01*
X140213370Y-85744515D01*
X140296935Y-85675935D01*
X140365515Y-85592370D01*
X140416474Y-85497032D01*
X140447855Y-85393584D01*
X140458451Y-85286001D01*
X140458451Y-84385999D01*
X140447855Y-84278416D01*
X140416474Y-84174968D01*
X140365515Y-84079630D01*
X140296935Y-83996065D01*
X140213370Y-83927485D01*
X140118032Y-83876526D01*
X140014584Y-83845145D01*
X139907001Y-83834549D01*
X139206999Y-83834549D01*
X139099416Y-83845145D01*
X138995968Y-83876526D01*
X138900630Y-83927485D01*
X138817065Y-83996065D01*
X138748485Y-84079630D01*
X138697526Y-84174968D01*
X138666145Y-84278416D01*
X138655549Y-84385999D01*
X138655549Y-85286001D01*
X138666145Y-85393584D01*
X138697526Y-85497032D01*
X138748485Y-85592370D01*
X138817065Y-85675935D01*
X138900630Y-85744515D01*
X138995968Y-85795474D01*
X139020918Y-85803042D01*
X138952460Y-85871500D01*
X137625366Y-85871500D01*
X137604499Y-85869445D01*
X137583632Y-85871500D01*
X137583626Y-85871500D01*
X137529598Y-85876821D01*
X137521185Y-85877650D01*
X137496883Y-85885022D01*
X137441073Y-85901952D01*
X137367240Y-85941416D01*
X137302526Y-85994526D01*
X137289221Y-86010738D01*
X136620243Y-86679717D01*
X136604026Y-86693026D01*
X136550916Y-86757741D01*
X136511452Y-86831574D01*
X136487150Y-86911687D01*
X136481000Y-86974127D01*
X136481000Y-86974133D01*
X136478945Y-86995000D01*
X134434866Y-86995000D01*
X134314320Y-86802728D01*
X133985739Y-86645136D01*
X133664348Y-86562777D01*
X133845872Y-86526670D01*
X134155252Y-86398521D01*
X134433687Y-86212477D01*
X134670477Y-85975687D01*
X134856521Y-85697252D01*
X134984670Y-85387872D01*
X135050000Y-85059435D01*
X135050000Y-84724565D01*
X134984670Y-84396128D01*
X134856521Y-84086748D01*
X134670477Y-83808313D01*
X134433687Y-83571523D01*
X134155252Y-83385479D01*
X133845872Y-83257330D01*
X133517435Y-83192000D01*
X133182565Y-83192000D01*
X132854128Y-83257330D01*
X132544748Y-83385479D01*
X132266313Y-83571523D01*
X132029523Y-83808313D01*
X131843479Y-84086748D01*
X131715330Y-84396128D01*
X131650000Y-84724565D01*
X128116000Y-84724565D01*
X128116000Y-81224565D01*
X131650000Y-81224565D01*
X131650000Y-81559435D01*
X131715330Y-81887872D01*
X131843479Y-82197252D01*
X132029523Y-82475687D01*
X132266313Y-82712477D01*
X132544748Y-82898521D01*
X132854128Y-83026670D01*
X133182565Y-83092000D01*
X133517435Y-83092000D01*
X133845872Y-83026670D01*
X134155252Y-82898521D01*
X134433687Y-82712477D01*
X134670477Y-82475687D01*
X134856521Y-82197252D01*
X134984670Y-81887872D01*
X135050000Y-81559435D01*
X135050000Y-81224565D01*
X134984670Y-80896128D01*
X134922320Y-80745599D01*
X136504934Y-80745599D01*
X136506989Y-80766466D01*
X136506990Y-84190112D01*
X136504934Y-84210989D01*
X136513139Y-84294303D01*
X136524813Y-84332785D01*
X136537442Y-84374416D01*
X136576906Y-84448249D01*
X136603715Y-84480916D01*
X136616269Y-84496212D01*
X136630016Y-84512963D01*
X136646228Y-84526268D01*
X136655549Y-84535589D01*
X136655549Y-85286001D01*
X136666145Y-85393584D01*
X136697526Y-85497032D01*
X136748485Y-85592370D01*
X136817065Y-85675935D01*
X136900630Y-85744515D01*
X136995968Y-85795474D01*
X137099416Y-85826855D01*
X137206999Y-85837451D01*
X137907001Y-85837451D01*
X138014584Y-85826855D01*
X138118032Y-85795474D01*
X138213370Y-85744515D01*
X138296935Y-85675935D01*
X138365515Y-85592370D01*
X138416474Y-85497032D01*
X138447855Y-85393584D01*
X138458451Y-85286001D01*
X138458451Y-84385999D01*
X138447855Y-84278416D01*
X138416474Y-84174968D01*
X138365515Y-84079630D01*
X138296935Y-83996065D01*
X138213370Y-83927485D01*
X138118032Y-83876526D01*
X138014584Y-83845145D01*
X137907001Y-83834549D01*
X137356989Y-83834549D01*
X137356989Y-81192000D01*
X137405549Y-81192000D01*
X137405549Y-82892000D01*
X137411341Y-82950810D01*
X137428496Y-83007360D01*
X137456353Y-83059477D01*
X137493842Y-83105158D01*
X137539523Y-83142647D01*
X137591640Y-83170504D01*
X137648190Y-83187659D01*
X137707000Y-83193451D01*
X139407000Y-83193451D01*
X139465810Y-83187659D01*
X139522360Y-83170504D01*
X139574477Y-83142647D01*
X139620158Y-83105158D01*
X139657647Y-83059477D01*
X139685504Y-83007360D01*
X139702659Y-82950810D01*
X139708451Y-82892000D01*
X139708451Y-81192000D01*
X139702659Y-81133190D01*
X139685504Y-81076640D01*
X139657647Y-81024523D01*
X139620158Y-80978842D01*
X139574477Y-80941353D01*
X139522360Y-80913496D01*
X139465810Y-80896341D01*
X139407000Y-80890549D01*
X137707000Y-80890549D01*
X137648190Y-80896341D01*
X137591640Y-80913496D01*
X137539523Y-80941353D01*
X137493842Y-80978842D01*
X137456353Y-81024523D01*
X137428496Y-81076640D01*
X137411341Y-81133190D01*
X137405549Y-81192000D01*
X137356989Y-81192000D01*
X137356989Y-80921639D01*
X137859554Y-80419074D01*
X138012271Y-80521116D01*
X138221557Y-80607806D01*
X138443735Y-80652000D01*
X138670265Y-80652000D01*
X138892443Y-80607806D01*
X139101729Y-80521116D01*
X139290082Y-80395263D01*
X139450263Y-80235082D01*
X139576116Y-80046729D01*
X139662806Y-79837443D01*
X139707000Y-79615265D01*
X139707000Y-79388735D01*
X139662806Y-79166557D01*
X139613212Y-79046828D01*
X139842756Y-78817284D01*
X139858974Y-78803974D01*
X139912084Y-78739260D01*
X139951548Y-78665427D01*
X139975850Y-78585314D01*
X139982000Y-78522874D01*
X139984056Y-78502000D01*
X139982000Y-78481126D01*
X139982000Y-77702064D01*
X140014584Y-77698855D01*
X140118032Y-77667474D01*
X140213370Y-77616515D01*
X140296935Y-77547935D01*
X140365515Y-77464370D01*
X140416474Y-77369032D01*
X140447855Y-77265584D01*
X140458451Y-77158001D01*
X140458451Y-76257999D01*
X140447855Y-76150416D01*
X140416474Y-76046968D01*
X140365515Y-75951630D01*
X140296935Y-75868065D01*
X140213370Y-75799485D01*
X140118032Y-75748526D01*
X140014584Y-75717145D01*
X139907001Y-75706549D01*
X139206999Y-75706549D01*
X139099416Y-75717145D01*
X138995968Y-75748526D01*
X138900630Y-75799485D01*
X138817065Y-75868065D01*
X138748485Y-75951630D01*
X138697526Y-76046968D01*
X138666145Y-76150416D01*
X138655549Y-76257999D01*
X138655549Y-77158001D01*
X138666145Y-77265584D01*
X138697526Y-77369032D01*
X138748485Y-77464370D01*
X138817065Y-77547935D01*
X138900630Y-77616515D01*
X138995968Y-77667474D01*
X139099416Y-77698855D01*
X139132001Y-77702064D01*
X139132001Y-78325959D01*
X139012172Y-78445788D01*
X138892443Y-78396194D01*
X138670265Y-78352000D01*
X138443735Y-78352000D01*
X138221557Y-78396194D01*
X138012271Y-78482884D01*
X137823918Y-78608737D01*
X137663737Y-78768918D01*
X137537884Y-78957271D01*
X137451194Y-79166557D01*
X137407000Y-79388735D01*
X137407000Y-79615265D01*
X137416006Y-79660542D01*
X136646233Y-80430315D01*
X136630015Y-80443625D01*
X136576905Y-80508340D01*
X136537441Y-80582173D01*
X136523998Y-80626489D01*
X136514478Y-80657873D01*
X136513139Y-80662286D01*
X136506989Y-80724726D01*
X136506989Y-80724732D01*
X136504934Y-80745599D01*
X134922320Y-80745599D01*
X134856521Y-80586748D01*
X134670477Y-80308313D01*
X134433687Y-80071523D01*
X134155252Y-79885479D01*
X133845872Y-79757330D01*
X133517435Y-79692000D01*
X133182565Y-79692000D01*
X132854128Y-79757330D01*
X132544748Y-79885479D01*
X132266313Y-80071523D01*
X132029523Y-80308313D01*
X131843479Y-80586748D01*
X131715330Y-80896128D01*
X131650000Y-81224565D01*
X128116000Y-81224565D01*
X128116000Y-77408000D01*
X136504823Y-77408000D01*
X136513511Y-77496215D01*
X136539243Y-77581041D01*
X136581029Y-77659216D01*
X136637263Y-77727737D01*
X136705784Y-77783971D01*
X136783959Y-77825757D01*
X136868785Y-77851489D01*
X136957000Y-77860177D01*
X137290500Y-77858000D01*
X137403000Y-77745500D01*
X137403000Y-76862000D01*
X137711000Y-76862000D01*
X137711000Y-77745500D01*
X137823500Y-77858000D01*
X138157000Y-77860177D01*
X138245215Y-77851489D01*
X138330041Y-77825757D01*
X138408216Y-77783971D01*
X138476737Y-77727737D01*
X138532971Y-77659216D01*
X138574757Y-77581041D01*
X138600489Y-77496215D01*
X138609177Y-77408000D01*
X138607000Y-76974500D01*
X138494500Y-76862000D01*
X137711000Y-76862000D01*
X137403000Y-76862000D01*
X136619500Y-76862000D01*
X136507000Y-76974500D01*
X136504823Y-77408000D01*
X128116000Y-77408000D01*
X128116000Y-74459319D01*
X131150000Y-74459319D01*
X131150000Y-74892681D01*
X131234545Y-75317716D01*
X131400385Y-75718091D01*
X131641148Y-76078418D01*
X131947582Y-76384852D01*
X132307909Y-76625615D01*
X132708284Y-76791455D01*
X133133319Y-76876000D01*
X133566681Y-76876000D01*
X133991716Y-76791455D01*
X134392091Y-76625615D01*
X134752418Y-76384852D01*
X135058852Y-76078418D01*
X135105903Y-76008000D01*
X136504823Y-76008000D01*
X136507000Y-76441500D01*
X136619500Y-76554000D01*
X137403000Y-76554000D01*
X137403000Y-75670500D01*
X137711000Y-75670500D01*
X137711000Y-76554000D01*
X138494500Y-76554000D01*
X138607000Y-76441500D01*
X138609177Y-76008000D01*
X138600489Y-75919785D01*
X138574757Y-75834959D01*
X138532971Y-75756784D01*
X138476737Y-75688263D01*
X138408216Y-75632029D01*
X138330041Y-75590243D01*
X138245215Y-75564511D01*
X138157000Y-75555823D01*
X137823500Y-75558000D01*
X137711000Y-75670500D01*
X137403000Y-75670500D01*
X137290500Y-75558000D01*
X136957000Y-75555823D01*
X136868785Y-75564511D01*
X136783959Y-75590243D01*
X136705784Y-75632029D01*
X136637263Y-75688263D01*
X136581029Y-75756784D01*
X136539243Y-75834959D01*
X136513511Y-75919785D01*
X136504823Y-76008000D01*
X135105903Y-76008000D01*
X135299615Y-75718091D01*
X135465455Y-75317716D01*
X135550000Y-74892681D01*
X135550000Y-74459319D01*
X135465455Y-74034284D01*
X135299615Y-73633909D01*
X135058852Y-73273582D01*
X134752418Y-72967148D01*
X134392091Y-72726385D01*
X133991716Y-72560545D01*
X133566681Y-72476000D01*
X133133319Y-72476000D01*
X132708284Y-72560545D01*
X132307909Y-72726385D01*
X131947582Y-72967148D01*
X131641148Y-73273582D01*
X131400385Y-73633909D01*
X131234545Y-74034284D01*
X131150000Y-74459319D01*
X128116000Y-74459319D01*
X128116000Y-72939422D01*
X129073422Y-71982000D01*
X149755078Y-71982000D01*
X150776000Y-73002922D01*
G04 #@! TA.AperFunction,Conductor*
D19*
G36*
X150776000Y-73002922D02*
G01*
X150776000Y-88591671D01*
X150734041Y-88569243D01*
X150649215Y-88543511D01*
X150561000Y-88534823D01*
X150040000Y-88537000D01*
X149927500Y-88649500D01*
X149927500Y-89508000D01*
X149947500Y-89508000D01*
X149947500Y-89816000D01*
X149927500Y-89816000D01*
X149927500Y-90674500D01*
X150040000Y-90787000D01*
X150561000Y-90789177D01*
X150649215Y-90780489D01*
X150734041Y-90754757D01*
X150776000Y-90732329D01*
X150776000Y-91322208D01*
X150695564Y-91402644D01*
X150587027Y-91193333D01*
X150326723Y-91075759D01*
X150048484Y-91011227D01*
X149763001Y-91002217D01*
X149481245Y-91049074D01*
X149214045Y-91149999D01*
X149132973Y-91193333D01*
X149024435Y-91402646D01*
X149860000Y-92238211D01*
X149874142Y-92224069D01*
X150091931Y-92441858D01*
X150077789Y-92456000D01*
X150091931Y-92470142D01*
X149874142Y-92687931D01*
X149860000Y-92673789D01*
X149024435Y-93509354D01*
X149132973Y-93718667D01*
X149393277Y-93836241D01*
X149671516Y-93900773D01*
X149956999Y-93909783D01*
X150238755Y-93862926D01*
X150505955Y-93762001D01*
X150587027Y-93718667D01*
X150695564Y-93509356D01*
X150776000Y-93589792D01*
X150776000Y-96669078D01*
X149755078Y-97690000D01*
X129073422Y-97690000D01*
X128116000Y-96732578D01*
X128116000Y-94779319D01*
X131150000Y-94779319D01*
X131150000Y-95212681D01*
X131234545Y-95637716D01*
X131400385Y-96038091D01*
X131641148Y-96398418D01*
X131947582Y-96704852D01*
X132307909Y-96945615D01*
X132708284Y-97111455D01*
X133133319Y-97196000D01*
X133566681Y-97196000D01*
X133991716Y-97111455D01*
X134392091Y-96945615D01*
X134752418Y-96704852D01*
X135058852Y-96398418D01*
X135299615Y-96038091D01*
X135465455Y-95637716D01*
X135550000Y-95212681D01*
X135550000Y-94779319D01*
X135465455Y-94354284D01*
X135299615Y-93953909D01*
X135058852Y-93593582D01*
X134752418Y-93287148D01*
X134392091Y-93046385D01*
X133991716Y-92880545D01*
X133566681Y-92796000D01*
X133133319Y-92796000D01*
X132708284Y-92880545D01*
X132307909Y-93046385D01*
X131947582Y-93287148D01*
X131641148Y-93593582D01*
X131400385Y-93953909D01*
X131234545Y-94354284D01*
X131150000Y-94779319D01*
X128116000Y-94779319D01*
X128116000Y-89731011D01*
X132228778Y-89731011D01*
X132385680Y-89981272D01*
X132714261Y-90138864D01*
X133067273Y-90229326D01*
X133431150Y-90249180D01*
X133791909Y-90197663D01*
X134135685Y-90076755D01*
X134314320Y-89981272D01*
X134471222Y-89731011D01*
X133350000Y-88609789D01*
X132228778Y-89731011D01*
X128116000Y-89731011D01*
X128116000Y-88473150D01*
X131492820Y-88473150D01*
X131544337Y-88833909D01*
X131665245Y-89177685D01*
X131760728Y-89356320D01*
X132010989Y-89513222D01*
X133132211Y-88392000D01*
X133567789Y-88392000D01*
X134689011Y-89513222D01*
X134939272Y-89356320D01*
X135096864Y-89027739D01*
X135187326Y-88674727D01*
X135207180Y-88310850D01*
X135155663Y-87950091D01*
X135034755Y-87606315D01*
X134939272Y-87427680D01*
X134689011Y-87270778D01*
X133567789Y-88392000D01*
X133132211Y-88392000D01*
X132010989Y-87270778D01*
X131760728Y-87427680D01*
X131603136Y-87756261D01*
X131512674Y-88109273D01*
X131492820Y-88473150D01*
X128116000Y-88473150D01*
X128116000Y-84724565D01*
X131650000Y-84724565D01*
X131650000Y-85059435D01*
X131715330Y-85387872D01*
X131843479Y-85697252D01*
X132029523Y-85975687D01*
X132266313Y-86212477D01*
X132544748Y-86398521D01*
X132854128Y-86526670D01*
X133051290Y-86565888D01*
X132908091Y-86586337D01*
X132564315Y-86707245D01*
X132385680Y-86802728D01*
X132228778Y-87052989D01*
X133350000Y-88174211D01*
X134471222Y-87052989D01*
X134434866Y-86995000D01*
X136478945Y-86995000D01*
X136481000Y-87015867D01*
X136481001Y-88561624D01*
X136478945Y-88582500D01*
X136487150Y-88665814D01*
X136505871Y-88727526D01*
X136511453Y-88745927D01*
X136550917Y-88819760D01*
X136604027Y-88884474D01*
X136620239Y-88897779D01*
X137405549Y-89683089D01*
X137405549Y-90974411D01*
X137334739Y-91045221D01*
X137318527Y-91058526D01*
X137265417Y-91123240D01*
X137247907Y-91156000D01*
X137225953Y-91197073D01*
X137201650Y-91277186D01*
X137193445Y-91360500D01*
X137195501Y-91381377D01*
X137195501Y-92287436D01*
X137162916Y-92290645D01*
X137059468Y-92322026D01*
X136964130Y-92372985D01*
X136880565Y-92441565D01*
X136811985Y-92525130D01*
X136761026Y-92620468D01*
X136729645Y-92723916D01*
X136719049Y-92831499D01*
X136719049Y-93731501D01*
X136729645Y-93839084D01*
X136761026Y-93942532D01*
X136811985Y-94037870D01*
X136880565Y-94121435D01*
X136964130Y-94190015D01*
X137059468Y-94240974D01*
X137162916Y-94272355D01*
X137270499Y-94282951D01*
X137970501Y-94282951D01*
X138078084Y-94272355D01*
X138181532Y-94240974D01*
X138276870Y-94190015D01*
X138360435Y-94121435D01*
X138429015Y-94037870D01*
X138479974Y-93942532D01*
X138511355Y-93839084D01*
X138521951Y-93731501D01*
X138521951Y-92831499D01*
X138719049Y-92831499D01*
X138719049Y-93731501D01*
X138729645Y-93839084D01*
X138761026Y-93942532D01*
X138811985Y-94037870D01*
X138880565Y-94121435D01*
X138964130Y-94190015D01*
X139059468Y-94240974D01*
X139162916Y-94272355D01*
X139270499Y-94282951D01*
X139950200Y-94282951D01*
X139966620Y-94299371D01*
X139981499Y-94317501D01*
X140053827Y-94376859D01*
X140136346Y-94420966D01*
X140198722Y-94439888D01*
X140225883Y-94448127D01*
X140318999Y-94457298D01*
X140342331Y-94455000D01*
X145772668Y-94455000D01*
X145796000Y-94457298D01*
X145819332Y-94455000D01*
X145889116Y-94448127D01*
X145978654Y-94420966D01*
X146061173Y-94376859D01*
X146133501Y-94317501D01*
X146148384Y-94299366D01*
X146800022Y-93647728D01*
X146940804Y-93706042D01*
X147191961Y-93756000D01*
X147448039Y-93756000D01*
X147699196Y-93706042D01*
X147935781Y-93608045D01*
X148148702Y-93465776D01*
X148329776Y-93284702D01*
X148472045Y-93071781D01*
X148508949Y-92982686D01*
X148553999Y-93101955D01*
X148597333Y-93183027D01*
X148806646Y-93291565D01*
X149642211Y-92456000D01*
X148806646Y-91620435D01*
X148597333Y-91728973D01*
X148507942Y-91926881D01*
X148472045Y-91840219D01*
X148329776Y-91627298D01*
X148148702Y-91446224D01*
X147935781Y-91303955D01*
X147699196Y-91205958D01*
X147448039Y-91156000D01*
X147373500Y-91156000D01*
X147373500Y-90638451D01*
X147436001Y-90638451D01*
X147543584Y-90627855D01*
X147647032Y-90596474D01*
X147742370Y-90545515D01*
X147825935Y-90476935D01*
X147894515Y-90393370D01*
X147924645Y-90337000D01*
X148533823Y-90337000D01*
X148542511Y-90425215D01*
X148568243Y-90510041D01*
X148610029Y-90588216D01*
X148666263Y-90656737D01*
X148734784Y-90712971D01*
X148812959Y-90754757D01*
X148897785Y-90780489D01*
X148986000Y-90789177D01*
X149507000Y-90787000D01*
X149619500Y-90674500D01*
X149619500Y-89816000D01*
X148648500Y-89816000D01*
X148536000Y-89928500D01*
X148533823Y-90337000D01*
X147924645Y-90337000D01*
X147945474Y-90298032D01*
X147976855Y-90194584D01*
X147987451Y-90087001D01*
X147987451Y-89236999D01*
X147976855Y-89129416D01*
X147945474Y-89025968D01*
X147924646Y-88987000D01*
X148533823Y-88987000D01*
X148536000Y-89395500D01*
X148648500Y-89508000D01*
X149619500Y-89508000D01*
X149619500Y-88649500D01*
X149507000Y-88537000D01*
X148986000Y-88534823D01*
X148897785Y-88543511D01*
X148812959Y-88569243D01*
X148734784Y-88611029D01*
X148666263Y-88667263D01*
X148610029Y-88735784D01*
X148568243Y-88813959D01*
X148542511Y-88898785D01*
X148533823Y-88987000D01*
X147924646Y-88987000D01*
X147894515Y-88930630D01*
X147825935Y-88847065D01*
X147742370Y-88778485D01*
X147647032Y-88727526D01*
X147543584Y-88696145D01*
X147436001Y-88685549D01*
X147373500Y-88685549D01*
X147373500Y-88104451D01*
X147863000Y-88104451D01*
X147951074Y-88095776D01*
X148035763Y-88070086D01*
X148113813Y-88028368D01*
X148182224Y-87972224D01*
X148238368Y-87903813D01*
X148280086Y-87825763D01*
X148305776Y-87741074D01*
X148314451Y-87653000D01*
X148314451Y-87353000D01*
X148305776Y-87264926D01*
X148280086Y-87180237D01*
X148238368Y-87102187D01*
X148182224Y-87033776D01*
X148113813Y-86977632D01*
X148107888Y-86974465D01*
X148186041Y-86950757D01*
X148264216Y-86908971D01*
X148332737Y-86852737D01*
X148388971Y-86784216D01*
X148430757Y-86706041D01*
X148456489Y-86621215D01*
X148465177Y-86533000D01*
X148463000Y-86499500D01*
X148350500Y-86387000D01*
X147142000Y-86387000D01*
X147142000Y-86407000D01*
X146834000Y-86407000D01*
X146834000Y-86387000D01*
X145625500Y-86387000D01*
X145513000Y-86499500D01*
X145510823Y-86533000D01*
X145519511Y-86621215D01*
X145545243Y-86706041D01*
X145587029Y-86784216D01*
X145643263Y-86852737D01*
X145711784Y-86908971D01*
X145789959Y-86950757D01*
X145868112Y-86974465D01*
X145862187Y-86977632D01*
X145800814Y-87028000D01*
X144928451Y-87028000D01*
X144928451Y-86901000D01*
X144917855Y-86793417D01*
X144886474Y-86689969D01*
X144835515Y-86594630D01*
X144766935Y-86511065D01*
X144683370Y-86442485D01*
X144588031Y-86391526D01*
X144484583Y-86360145D01*
X144377000Y-86349549D01*
X143702000Y-86349549D01*
X143594417Y-86360145D01*
X143490969Y-86391526D01*
X143395630Y-86442485D01*
X143312065Y-86511065D01*
X143243485Y-86594630D01*
X143192526Y-86689969D01*
X143161145Y-86793417D01*
X143150549Y-86901000D01*
X143150549Y-87851000D01*
X143161145Y-87958583D01*
X143192526Y-88062031D01*
X143243485Y-88157370D01*
X143312065Y-88240935D01*
X143395630Y-88309515D01*
X143490969Y-88360474D01*
X143564500Y-88382780D01*
X143564501Y-88923167D01*
X143544416Y-88925145D01*
X143440968Y-88956526D01*
X143345630Y-89007485D01*
X143262065Y-89076065D01*
X143193485Y-89159630D01*
X143142526Y-89254968D01*
X143111145Y-89358416D01*
X143100549Y-89465999D01*
X143100549Y-90366001D01*
X143111145Y-90473584D01*
X143142526Y-90577032D01*
X143193485Y-90672370D01*
X143262065Y-90755935D01*
X143345630Y-90824515D01*
X143440968Y-90875474D01*
X143544416Y-90906855D01*
X143651999Y-90917451D01*
X144352001Y-90917451D01*
X144459584Y-90906855D01*
X144563032Y-90875474D01*
X144658370Y-90824515D01*
X144741935Y-90755935D01*
X144810515Y-90672370D01*
X144861474Y-90577032D01*
X144892855Y-90473584D01*
X144903451Y-90366001D01*
X144903451Y-89465999D01*
X144892855Y-89358416D01*
X144861474Y-89254968D01*
X144810515Y-89159630D01*
X144741935Y-89076065D01*
X144658370Y-89007485D01*
X144563032Y-88956526D01*
X144514500Y-88941804D01*
X144514500Y-88382780D01*
X144588031Y-88360474D01*
X144683370Y-88309515D01*
X144766935Y-88240935D01*
X144835515Y-88157370D01*
X144886474Y-88062031D01*
X144911965Y-87978000D01*
X145800814Y-87978000D01*
X145862187Y-88028368D01*
X145940237Y-88070086D01*
X146024926Y-88095776D01*
X146113000Y-88104451D01*
X146423501Y-88104451D01*
X146423500Y-88685549D01*
X146360999Y-88685549D01*
X146253416Y-88696145D01*
X146149968Y-88727526D01*
X146054630Y-88778485D01*
X145971065Y-88847065D01*
X145902485Y-88930630D01*
X145851526Y-89025968D01*
X145820145Y-89129416D01*
X145809549Y-89236999D01*
X145809549Y-90087001D01*
X145820145Y-90194584D01*
X145851526Y-90298032D01*
X145902485Y-90393370D01*
X145971065Y-90476935D01*
X146054630Y-90545515D01*
X146149968Y-90596474D01*
X146253416Y-90627855D01*
X146360999Y-90638451D01*
X146423500Y-90638451D01*
X146423501Y-91514021D01*
X146310224Y-91627298D01*
X146167955Y-91840219D01*
X146069958Y-92076804D01*
X146020000Y-92327961D01*
X146020000Y-92584039D01*
X146069958Y-92835196D01*
X146128272Y-92975978D01*
X145599250Y-93505000D01*
X144886080Y-93505000D01*
X144921737Y-93475737D01*
X144977971Y-93407216D01*
X145019757Y-93329041D01*
X145045489Y-93244215D01*
X145054177Y-93156000D01*
X145052000Y-92722500D01*
X144939500Y-92610000D01*
X144181000Y-92610000D01*
X144181000Y-92630000D01*
X143873000Y-92630000D01*
X143873000Y-92610000D01*
X143114500Y-92610000D01*
X143002000Y-92722500D01*
X142999823Y-93156000D01*
X143008511Y-93244215D01*
X143034243Y-93329041D01*
X143076029Y-93407216D01*
X143132263Y-93475737D01*
X143167920Y-93505000D01*
X140521951Y-93505000D01*
X140521951Y-92831499D01*
X140511355Y-92723916D01*
X140479974Y-92620468D01*
X140429015Y-92525130D01*
X140360435Y-92441565D01*
X140276870Y-92372985D01*
X140181532Y-92322026D01*
X140078084Y-92290645D01*
X139970501Y-92280049D01*
X139270499Y-92280049D01*
X139162916Y-92290645D01*
X139059468Y-92322026D01*
X138964130Y-92372985D01*
X138880565Y-92441565D01*
X138811985Y-92525130D01*
X138761026Y-92620468D01*
X138729645Y-92723916D01*
X138719049Y-92831499D01*
X138521951Y-92831499D01*
X138511355Y-92723916D01*
X138479974Y-92620468D01*
X138429015Y-92525130D01*
X138360435Y-92441565D01*
X138276870Y-92372985D01*
X138181532Y-92322026D01*
X138078084Y-92290645D01*
X138045500Y-92287436D01*
X138045500Y-91575451D01*
X139407000Y-91575451D01*
X139465810Y-91569659D01*
X139522360Y-91552504D01*
X139574477Y-91524647D01*
X139620158Y-91487158D01*
X139657647Y-91441477D01*
X139685504Y-91389360D01*
X139702659Y-91332810D01*
X139708451Y-91274000D01*
X139708451Y-89574000D01*
X139702659Y-89515190D01*
X139687737Y-89465999D01*
X141100549Y-89465999D01*
X141100549Y-90366001D01*
X141111145Y-90473584D01*
X141142526Y-90577032D01*
X141193485Y-90672370D01*
X141262065Y-90755935D01*
X141345630Y-90824515D01*
X141440968Y-90875474D01*
X141544416Y-90906855D01*
X141577000Y-90910064D01*
X141577001Y-91461936D01*
X141544416Y-91465145D01*
X141440968Y-91496526D01*
X141345630Y-91547485D01*
X141262065Y-91616065D01*
X141193485Y-91699630D01*
X141142526Y-91794968D01*
X141111145Y-91898416D01*
X141100549Y-92005999D01*
X141100549Y-92906001D01*
X141111145Y-93013584D01*
X141142526Y-93117032D01*
X141193485Y-93212370D01*
X141262065Y-93295935D01*
X141345630Y-93364515D01*
X141440968Y-93415474D01*
X141544416Y-93446855D01*
X141651999Y-93457451D01*
X142302001Y-93457451D01*
X142409584Y-93446855D01*
X142513032Y-93415474D01*
X142608370Y-93364515D01*
X142691935Y-93295935D01*
X142760515Y-93212370D01*
X142811474Y-93117032D01*
X142842855Y-93013584D01*
X142853451Y-92906001D01*
X142853451Y-92005999D01*
X142842855Y-91898416D01*
X142811474Y-91794968D01*
X142790646Y-91756000D01*
X142999823Y-91756000D01*
X143002000Y-92189500D01*
X143114500Y-92302000D01*
X143873000Y-92302000D01*
X143873000Y-91418500D01*
X144181000Y-91418500D01*
X144181000Y-92302000D01*
X144939500Y-92302000D01*
X145052000Y-92189500D01*
X145054177Y-91756000D01*
X145045489Y-91667785D01*
X145019757Y-91582959D01*
X144977971Y-91504784D01*
X144921737Y-91436263D01*
X144853216Y-91380029D01*
X144775041Y-91338243D01*
X144690215Y-91312511D01*
X144602000Y-91303823D01*
X144293500Y-91306000D01*
X144181000Y-91418500D01*
X143873000Y-91418500D01*
X143760500Y-91306000D01*
X143452000Y-91303823D01*
X143363785Y-91312511D01*
X143278959Y-91338243D01*
X143200784Y-91380029D01*
X143132263Y-91436263D01*
X143076029Y-91504784D01*
X143034243Y-91582959D01*
X143008511Y-91667785D01*
X142999823Y-91756000D01*
X142790646Y-91756000D01*
X142760515Y-91699630D01*
X142691935Y-91616065D01*
X142608370Y-91547485D01*
X142513032Y-91496526D01*
X142427000Y-91470428D01*
X142427000Y-90910064D01*
X142459584Y-90906855D01*
X142563032Y-90875474D01*
X142658370Y-90824515D01*
X142741935Y-90755935D01*
X142810515Y-90672370D01*
X142861474Y-90577032D01*
X142892855Y-90473584D01*
X142903451Y-90366001D01*
X142903451Y-89465999D01*
X142892855Y-89358416D01*
X142861474Y-89254968D01*
X142810515Y-89159630D01*
X142741935Y-89076065D01*
X142658370Y-89007485D01*
X142563032Y-88956526D01*
X142459584Y-88925145D01*
X142352001Y-88914549D01*
X141651999Y-88914549D01*
X141544416Y-88925145D01*
X141440968Y-88956526D01*
X141345630Y-89007485D01*
X141262065Y-89076065D01*
X141193485Y-89159630D01*
X141142526Y-89254968D01*
X141111145Y-89358416D01*
X141100549Y-89465999D01*
X139687737Y-89465999D01*
X139685504Y-89458640D01*
X139657647Y-89406523D01*
X139620158Y-89360842D01*
X139574477Y-89323353D01*
X139522360Y-89295496D01*
X139465810Y-89278341D01*
X139407000Y-89272549D01*
X138197089Y-89272549D01*
X137331000Y-88406460D01*
X137331000Y-87770735D01*
X137407000Y-87770735D01*
X137407000Y-87997265D01*
X137451194Y-88219443D01*
X137537884Y-88428729D01*
X137663737Y-88617082D01*
X137823918Y-88777263D01*
X138012271Y-88903116D01*
X138221557Y-88989806D01*
X138443735Y-89034000D01*
X138670265Y-89034000D01*
X138892443Y-88989806D01*
X139101729Y-88903116D01*
X139290082Y-88777263D01*
X139450263Y-88617082D01*
X139576116Y-88428729D01*
X139662806Y-88219443D01*
X139686365Y-88101000D01*
X140924823Y-88101000D01*
X140933511Y-88189215D01*
X140959243Y-88274041D01*
X141001029Y-88352216D01*
X141057263Y-88420737D01*
X141125784Y-88476971D01*
X141203959Y-88518757D01*
X141288785Y-88544489D01*
X141377000Y-88553177D01*
X141698000Y-88551000D01*
X141810500Y-88438500D01*
X141810500Y-87530000D01*
X142118500Y-87530000D01*
X142118500Y-88438500D01*
X142231000Y-88551000D01*
X142552000Y-88553177D01*
X142640215Y-88544489D01*
X142725041Y-88518757D01*
X142803216Y-88476971D01*
X142871737Y-88420737D01*
X142927971Y-88352216D01*
X142969757Y-88274041D01*
X142995489Y-88189215D01*
X143004177Y-88101000D01*
X143002000Y-87642500D01*
X142889500Y-87530000D01*
X142118500Y-87530000D01*
X141810500Y-87530000D01*
X141039500Y-87530000D01*
X140927000Y-87642500D01*
X140924823Y-88101000D01*
X139686365Y-88101000D01*
X139707000Y-87997265D01*
X139707000Y-87970040D01*
X140925301Y-86751739D01*
X140927000Y-87109500D01*
X141039500Y-87222000D01*
X141810500Y-87222000D01*
X141810500Y-86313500D01*
X142118500Y-86313500D01*
X142118500Y-87222000D01*
X142889500Y-87222000D01*
X143002000Y-87109500D01*
X143004177Y-86651000D01*
X142995489Y-86562785D01*
X142969757Y-86477959D01*
X142927971Y-86399784D01*
X142871737Y-86331263D01*
X142803216Y-86275029D01*
X142725041Y-86233243D01*
X142640215Y-86207511D01*
X142552000Y-86198823D01*
X142231000Y-86201000D01*
X142118500Y-86313500D01*
X141810500Y-86313500D01*
X141698000Y-86201000D01*
X141451818Y-86199330D01*
X141457791Y-86188155D01*
X141471538Y-86162438D01*
X141495840Y-86082324D01*
X141496167Y-86079000D01*
X141501990Y-86019884D01*
X141501990Y-86019877D01*
X141504045Y-85999010D01*
X141501990Y-85978143D01*
X141501990Y-85933000D01*
X145510823Y-85933000D01*
X145513000Y-85966500D01*
X145625500Y-86079000D01*
X146834000Y-86079000D01*
X146834000Y-86059000D01*
X147142000Y-86059000D01*
X147142000Y-86079000D01*
X148350500Y-86079000D01*
X148463000Y-85966500D01*
X148465177Y-85933000D01*
X148456489Y-85844785D01*
X148430757Y-85759959D01*
X148388971Y-85681784D01*
X148332737Y-85613263D01*
X148264216Y-85557029D01*
X148186041Y-85515243D01*
X148107888Y-85491535D01*
X148113813Y-85488368D01*
X148182224Y-85432224D01*
X148238368Y-85363813D01*
X148280086Y-85285763D01*
X148305776Y-85201074D01*
X148314451Y-85113000D01*
X148314451Y-84813000D01*
X148305776Y-84724926D01*
X148280086Y-84640237D01*
X148238368Y-84562187D01*
X148182224Y-84493776D01*
X148113813Y-84437632D01*
X148035763Y-84395914D01*
X147951074Y-84370224D01*
X147863000Y-84361549D01*
X146113000Y-84361549D01*
X146024926Y-84370224D01*
X145940237Y-84395914D01*
X145862187Y-84437632D01*
X145793776Y-84493776D01*
X145737632Y-84562187D01*
X145695914Y-84640237D01*
X145670224Y-84724926D01*
X145661549Y-84813000D01*
X145661549Y-85113000D01*
X145670224Y-85201074D01*
X145695914Y-85285763D01*
X145737632Y-85363813D01*
X145793776Y-85432224D01*
X145862187Y-85488368D01*
X145868112Y-85491535D01*
X145789959Y-85515243D01*
X145711784Y-85557029D01*
X145643263Y-85613263D01*
X145587029Y-85681784D01*
X145545243Y-85759959D01*
X145519511Y-85844785D01*
X145510823Y-85933000D01*
X141501990Y-85933000D01*
X141501990Y-85813985D01*
X141544416Y-85826855D01*
X141651999Y-85837451D01*
X142352001Y-85837451D01*
X142459584Y-85826855D01*
X142563032Y-85795474D01*
X142658370Y-85744515D01*
X142741935Y-85675935D01*
X142810515Y-85592370D01*
X142861474Y-85497032D01*
X142892855Y-85393584D01*
X142903451Y-85286001D01*
X142903451Y-84385999D01*
X143100549Y-84385999D01*
X143100549Y-85286001D01*
X143111145Y-85393584D01*
X143142526Y-85497032D01*
X143193485Y-85592370D01*
X143262065Y-85675935D01*
X143345630Y-85744515D01*
X143440968Y-85795474D01*
X143544416Y-85826855D01*
X143651999Y-85837451D01*
X144352001Y-85837451D01*
X144459584Y-85826855D01*
X144563032Y-85795474D01*
X144658370Y-85744515D01*
X144741935Y-85675935D01*
X144810515Y-85592370D01*
X144861474Y-85497032D01*
X144892855Y-85393584D01*
X144903451Y-85286001D01*
X144903451Y-84919558D01*
X144949102Y-84915062D01*
X145029215Y-84890760D01*
X145103048Y-84851296D01*
X145167762Y-84798186D01*
X145181071Y-84781969D01*
X145797643Y-84165398D01*
X145862187Y-84218368D01*
X145940237Y-84260086D01*
X146024926Y-84285776D01*
X146113000Y-84294451D01*
X147863000Y-84294451D01*
X147951074Y-84285776D01*
X148035763Y-84260086D01*
X148113813Y-84218368D01*
X148182224Y-84162224D01*
X148238368Y-84093813D01*
X148280086Y-84015763D01*
X148305776Y-83931074D01*
X148314451Y-83843000D01*
X148314451Y-83543000D01*
X148305776Y-83454926D01*
X148280086Y-83370237D01*
X148238368Y-83292187D01*
X148182224Y-83223776D01*
X148113813Y-83167632D01*
X148035763Y-83125914D01*
X147951074Y-83100224D01*
X147863000Y-83091549D01*
X146113000Y-83091549D01*
X146024926Y-83100224D01*
X145940237Y-83125914D01*
X145862187Y-83167632D01*
X145793776Y-83223776D01*
X145757482Y-83268000D01*
X145689866Y-83268000D01*
X145668999Y-83265945D01*
X145648132Y-83268000D01*
X145648126Y-83268000D01*
X145594098Y-83273321D01*
X145585685Y-83274150D01*
X145561383Y-83281522D01*
X145505573Y-83298452D01*
X145431740Y-83337916D01*
X145367026Y-83391026D01*
X145353721Y-83407238D01*
X144752284Y-84008676D01*
X144741935Y-83996065D01*
X144658370Y-83927485D01*
X144563032Y-83876526D01*
X144459584Y-83845145D01*
X144352001Y-83834549D01*
X143651999Y-83834549D01*
X143544416Y-83845145D01*
X143440968Y-83876526D01*
X143345630Y-83927485D01*
X143262065Y-83996065D01*
X143193485Y-84079630D01*
X143142526Y-84174968D01*
X143111145Y-84278416D01*
X143100549Y-84385999D01*
X142903451Y-84385999D01*
X142892855Y-84278416D01*
X142861474Y-84174968D01*
X142810515Y-84079630D01*
X142741935Y-83996065D01*
X142658370Y-83927485D01*
X142563032Y-83876526D01*
X142459584Y-83845145D01*
X142427000Y-83841936D01*
X142427000Y-83777451D01*
X142452000Y-83777451D01*
X142510810Y-83771659D01*
X142567360Y-83754504D01*
X142619477Y-83726647D01*
X142665158Y-83689158D01*
X142702647Y-83643477D01*
X142730504Y-83591360D01*
X142747659Y-83534810D01*
X142753451Y-83476000D01*
X142753451Y-81893489D01*
X142870218Y-82010256D01*
X142883528Y-82026474D01*
X142948242Y-82079584D01*
X143001327Y-82107958D01*
X143022075Y-82119048D01*
X143102188Y-82143350D01*
X143185502Y-82151556D01*
X143206376Y-82149500D01*
X143250549Y-82149500D01*
X143250549Y-83476000D01*
X143256341Y-83534810D01*
X143273496Y-83591360D01*
X143301353Y-83643477D01*
X143338842Y-83689158D01*
X143384523Y-83726647D01*
X143436640Y-83754504D01*
X143493190Y-83771659D01*
X143552000Y-83777451D01*
X144352000Y-83777451D01*
X144410810Y-83771659D01*
X144467360Y-83754504D01*
X144519477Y-83726647D01*
X144565158Y-83689158D01*
X144602647Y-83643477D01*
X144630504Y-83591360D01*
X144647659Y-83534810D01*
X144653451Y-83476000D01*
X144653451Y-81576000D01*
X144647659Y-81517190D01*
X144630504Y-81460640D01*
X144602647Y-81408523D01*
X144565158Y-81362842D01*
X144519477Y-81325353D01*
X144467360Y-81297496D01*
X144410810Y-81280341D01*
X144352000Y-81274549D01*
X144189000Y-81274549D01*
X144189000Y-78373864D01*
X144191055Y-78352997D01*
X144189000Y-78332130D01*
X144189000Y-78332124D01*
X144182850Y-78269684D01*
X144158548Y-78189571D01*
X144119084Y-78115738D01*
X144065974Y-78051024D01*
X144049758Y-78037716D01*
X143958286Y-77946244D01*
X143944976Y-77930026D01*
X143880262Y-77876916D01*
X143806429Y-77837452D01*
X143726316Y-77813150D01*
X143663876Y-77807000D01*
X143663869Y-77807000D01*
X143643002Y-77804945D01*
X143622135Y-77807000D01*
X142924040Y-77807000D01*
X142742284Y-77625244D01*
X142728974Y-77609026D01*
X142698235Y-77583799D01*
X142741935Y-77547935D01*
X142810515Y-77464370D01*
X142861474Y-77369032D01*
X142892855Y-77265584D01*
X142903451Y-77158001D01*
X142903451Y-76257999D01*
X143100549Y-76257999D01*
X143100549Y-77158001D01*
X143111145Y-77265584D01*
X143142526Y-77369032D01*
X143193485Y-77464370D01*
X143262065Y-77547935D01*
X143345630Y-77616515D01*
X143440968Y-77667474D01*
X143544416Y-77698855D01*
X143651999Y-77709451D01*
X144347001Y-77709451D01*
X144347000Y-80616133D01*
X144344945Y-80637000D01*
X144347000Y-80657867D01*
X144347000Y-80657873D01*
X144350168Y-80690038D01*
X144353150Y-80720314D01*
X144355244Y-80727216D01*
X144377452Y-80800426D01*
X144416916Y-80874259D01*
X144470026Y-80938974D01*
X144486243Y-80952283D01*
X144702013Y-81168053D01*
X144702012Y-81535239D01*
X144702012Y-81860145D01*
X144699957Y-81881012D01*
X144702012Y-81901879D01*
X144702012Y-81901885D01*
X144703713Y-81919150D01*
X144708162Y-81964326D01*
X144713802Y-81982917D01*
X144732464Y-82044438D01*
X144771928Y-82118271D01*
X144825038Y-82182986D01*
X144841255Y-82196295D01*
X145353721Y-82708762D01*
X145367026Y-82724974D01*
X145431740Y-82778084D01*
X145467568Y-82797234D01*
X145505572Y-82817548D01*
X145583807Y-82841280D01*
X145585686Y-82841850D01*
X145648126Y-82848000D01*
X145648133Y-82848000D01*
X145669000Y-82850055D01*
X145689867Y-82848000D01*
X145757482Y-82848000D01*
X145793776Y-82892224D01*
X145862187Y-82948368D01*
X145940237Y-82990086D01*
X146024926Y-83015776D01*
X146113000Y-83024451D01*
X147863000Y-83024451D01*
X147951074Y-83015776D01*
X148035763Y-82990086D01*
X148113813Y-82948368D01*
X148182224Y-82892224D01*
X148238368Y-82823813D01*
X148280086Y-82745763D01*
X148305776Y-82661074D01*
X148314451Y-82573000D01*
X148314451Y-82273000D01*
X148305776Y-82184926D01*
X148280086Y-82100237D01*
X148238368Y-82022187D01*
X148182224Y-81953776D01*
X148113813Y-81897632D01*
X148035763Y-81855914D01*
X147951074Y-81830224D01*
X147863000Y-81821549D01*
X146113000Y-81821549D01*
X146024926Y-81830224D01*
X145940237Y-81855914D01*
X145862187Y-81897632D01*
X145797643Y-81950602D01*
X145552012Y-81704972D01*
X145552012Y-81012879D01*
X145554067Y-80992012D01*
X145552012Y-80971145D01*
X145552012Y-80971138D01*
X145545862Y-80908698D01*
X145535415Y-80874259D01*
X145521560Y-80828584D01*
X145506509Y-80800426D01*
X145482096Y-80754752D01*
X145428986Y-80690038D01*
X145412774Y-80676733D01*
X145197000Y-80460960D01*
X145197000Y-80183000D01*
X145510823Y-80183000D01*
X145519511Y-80271215D01*
X145545243Y-80356041D01*
X145587029Y-80434216D01*
X145643263Y-80502737D01*
X145711784Y-80558971D01*
X145789959Y-80600757D01*
X145868112Y-80624465D01*
X145862187Y-80627632D01*
X145793776Y-80683776D01*
X145737632Y-80752187D01*
X145695914Y-80830237D01*
X145670224Y-80914926D01*
X145661549Y-81003000D01*
X145661549Y-81303000D01*
X145670224Y-81391074D01*
X145695914Y-81475763D01*
X145737632Y-81553813D01*
X145793776Y-81622224D01*
X145862187Y-81678368D01*
X145940237Y-81720086D01*
X146024926Y-81745776D01*
X146113000Y-81754451D01*
X147863000Y-81754451D01*
X147951074Y-81745776D01*
X148035763Y-81720086D01*
X148113813Y-81678368D01*
X148182224Y-81622224D01*
X148238368Y-81553813D01*
X148280086Y-81475763D01*
X148305776Y-81391074D01*
X148314451Y-81303000D01*
X148314451Y-81003000D01*
X148305776Y-80914926D01*
X148280086Y-80830237D01*
X148238368Y-80752187D01*
X148182224Y-80683776D01*
X148113813Y-80627632D01*
X148107888Y-80624465D01*
X148186041Y-80600757D01*
X148264216Y-80558971D01*
X148332737Y-80502737D01*
X148388971Y-80434216D01*
X148430757Y-80356041D01*
X148456489Y-80271215D01*
X148465177Y-80183000D01*
X148463000Y-80149500D01*
X148350500Y-80037000D01*
X147142000Y-80037000D01*
X147142000Y-80057000D01*
X146834000Y-80057000D01*
X146834000Y-80037000D01*
X145625500Y-80037000D01*
X145513000Y-80149500D01*
X145510823Y-80183000D01*
X145197000Y-80183000D01*
X145197000Y-78913000D01*
X145510823Y-78913000D01*
X145519511Y-79001215D01*
X145545243Y-79086041D01*
X145587029Y-79164216D01*
X145643263Y-79232737D01*
X145661861Y-79248000D01*
X145643263Y-79263263D01*
X145587029Y-79331784D01*
X145545243Y-79409959D01*
X145519511Y-79494785D01*
X145510823Y-79583000D01*
X145513000Y-79616500D01*
X145625500Y-79729000D01*
X146834000Y-79729000D01*
X146834000Y-78767000D01*
X147142000Y-78767000D01*
X147142000Y-79729000D01*
X148350500Y-79729000D01*
X148463000Y-79616500D01*
X148465177Y-79583000D01*
X148456489Y-79494785D01*
X148430757Y-79409959D01*
X148388971Y-79331784D01*
X148332737Y-79263263D01*
X148314139Y-79248000D01*
X148332737Y-79232737D01*
X148388971Y-79164216D01*
X148430757Y-79086041D01*
X148456489Y-79001215D01*
X148465177Y-78913000D01*
X148463000Y-78879500D01*
X148350500Y-78767000D01*
X147142000Y-78767000D01*
X146834000Y-78767000D01*
X145625500Y-78767000D01*
X145513000Y-78879500D01*
X145510823Y-78913000D01*
X145197000Y-78913000D01*
X145197000Y-78313000D01*
X145510823Y-78313000D01*
X145513000Y-78346500D01*
X145625500Y-78459000D01*
X146834000Y-78459000D01*
X146834000Y-77975500D01*
X147142000Y-77975500D01*
X147142000Y-78459000D01*
X148350500Y-78459000D01*
X148463000Y-78346500D01*
X148465177Y-78313000D01*
X148456489Y-78224785D01*
X148430757Y-78139959D01*
X148388971Y-78061784D01*
X148332737Y-77993263D01*
X148264216Y-77937029D01*
X148186041Y-77895243D01*
X148101215Y-77869511D01*
X148013000Y-77860823D01*
X147254500Y-77863000D01*
X147142000Y-77975500D01*
X146834000Y-77975500D01*
X146721500Y-77863000D01*
X145963000Y-77860823D01*
X145874785Y-77869511D01*
X145789959Y-77895243D01*
X145711784Y-77937029D01*
X145643263Y-77993263D01*
X145587029Y-78061784D01*
X145545243Y-78139959D01*
X145519511Y-78224785D01*
X145510823Y-78313000D01*
X145197000Y-78313000D01*
X145197000Y-77498866D01*
X145199055Y-77477999D01*
X145197000Y-77457132D01*
X145197000Y-77457126D01*
X145190850Y-77394686D01*
X145166548Y-77314573D01*
X145127084Y-77240740D01*
X145073974Y-77176026D01*
X145057762Y-77162721D01*
X144903451Y-77008410D01*
X144903451Y-76257999D01*
X144892855Y-76150416D01*
X144861474Y-76046968D01*
X144810515Y-75951630D01*
X144741935Y-75868065D01*
X144658370Y-75799485D01*
X144563032Y-75748526D01*
X144459584Y-75717145D01*
X144352001Y-75706549D01*
X143651999Y-75706549D01*
X143544416Y-75717145D01*
X143440968Y-75748526D01*
X143345630Y-75799485D01*
X143262065Y-75868065D01*
X143193485Y-75951630D01*
X143142526Y-76046968D01*
X143111145Y-76150416D01*
X143100549Y-76257999D01*
X142903451Y-76257999D01*
X142892855Y-76150416D01*
X142861474Y-76046968D01*
X142810515Y-75951630D01*
X142741935Y-75868065D01*
X142658370Y-75799485D01*
X142563032Y-75748526D01*
X142459584Y-75717145D01*
X142352001Y-75706549D01*
X141651999Y-75706549D01*
X141544416Y-75717145D01*
X141440968Y-75748526D01*
X141345630Y-75799485D01*
X141262065Y-75868065D01*
X141193485Y-75951630D01*
X141142526Y-76046968D01*
X141111145Y-76150416D01*
X141100549Y-76257999D01*
X141100549Y-77158001D01*
X141111145Y-77265584D01*
X141142526Y-77369032D01*
X141193485Y-77464370D01*
X141262065Y-77547935D01*
X141345630Y-77616515D01*
X141440968Y-77667474D01*
X141544416Y-77698855D01*
X141577001Y-77702064D01*
X141577001Y-77890116D01*
X141574944Y-77911000D01*
X141583150Y-77994314D01*
X141607452Y-78074427D01*
X141646916Y-78148260D01*
X141700026Y-78212974D01*
X141764740Y-78266084D01*
X141838573Y-78305548D01*
X141918686Y-78329850D01*
X141981126Y-78336000D01*
X142002000Y-78338056D01*
X142022874Y-78336000D01*
X142220034Y-78336000D01*
X142184243Y-78402959D01*
X142158511Y-78487785D01*
X142149823Y-78576000D01*
X142152000Y-79259500D01*
X142264500Y-79372000D01*
X142848000Y-79372000D01*
X142848000Y-79352000D01*
X143156000Y-79352000D01*
X143156000Y-79372000D01*
X143176000Y-79372000D01*
X143176000Y-79680000D01*
X143156000Y-79680000D01*
X143156000Y-80813500D01*
X143268500Y-80926000D01*
X143339001Y-80927150D01*
X143339001Y-81276959D01*
X143027285Y-80965243D01*
X143013975Y-80949025D01*
X142949261Y-80895915D01*
X142875428Y-80856451D01*
X142821429Y-80840071D01*
X142848000Y-80813500D01*
X142848000Y-79680000D01*
X142264500Y-79680000D01*
X142152000Y-79792500D01*
X142149823Y-80476000D01*
X142158511Y-80564215D01*
X142184243Y-80649041D01*
X142226029Y-80727216D01*
X142282263Y-80795737D01*
X142319137Y-80825999D01*
X140835866Y-80825999D01*
X140814999Y-80823944D01*
X140794132Y-80825999D01*
X140794125Y-80825999D01*
X140731685Y-80832149D01*
X140651571Y-80856451D01*
X140625854Y-80870198D01*
X140577739Y-80895915D01*
X140513025Y-80949025D01*
X140499720Y-80965237D01*
X139959238Y-81505720D01*
X139943026Y-81519025D01*
X139889916Y-81583739D01*
X139870045Y-81620916D01*
X139850452Y-81657572D01*
X139826149Y-81737685D01*
X139817944Y-81820999D01*
X139820000Y-81841875D01*
X139819999Y-82496134D01*
X139817944Y-82517001D01*
X139819999Y-82537868D01*
X139819999Y-82537874D01*
X139823754Y-82576000D01*
X139826149Y-82600315D01*
X139828879Y-82609313D01*
X139850451Y-82680427D01*
X139889915Y-82754260D01*
X139943025Y-82818975D01*
X139959242Y-82832284D01*
X140651991Y-83525034D01*
X140651990Y-85822969D01*
X139387152Y-87087807D01*
X139290082Y-86990737D01*
X139101729Y-86864884D01*
X138892443Y-86778194D01*
X138670265Y-86734000D01*
X138443735Y-86734000D01*
X138221557Y-86778194D01*
X138012271Y-86864884D01*
X137823918Y-86990737D01*
X137663737Y-87150918D01*
X137537884Y-87339271D01*
X137451194Y-87548557D01*
X137407000Y-87770735D01*
X137331000Y-87770735D01*
X137331000Y-87171040D01*
X137780541Y-86721500D01*
X139107633Y-86721500D01*
X139128500Y-86723555D01*
X139149367Y-86721500D01*
X139149374Y-86721500D01*
X139211814Y-86715350D01*
X139291927Y-86691048D01*
X139365760Y-86651584D01*
X139430474Y-86598474D01*
X139443784Y-86582256D01*
X139842756Y-86183284D01*
X139858974Y-86169974D01*
X139912084Y-86105260D01*
X139951548Y-86031427D01*
X139975850Y-85951314D01*
X139982000Y-85888874D01*
X139984056Y-85868000D01*
X139982000Y-85847126D01*
X139982000Y-85830064D01*
X140014584Y-85826855D01*
X140118032Y-85795474D01*
X140213370Y-85744515D01*
X140296935Y-85675935D01*
X140365515Y-85592370D01*
X140416474Y-85497032D01*
X140447855Y-85393584D01*
X140458451Y-85286001D01*
X140458451Y-84385999D01*
X140447855Y-84278416D01*
X140416474Y-84174968D01*
X140365515Y-84079630D01*
X140296935Y-83996065D01*
X140213370Y-83927485D01*
X140118032Y-83876526D01*
X140014584Y-83845145D01*
X139907001Y-83834549D01*
X139206999Y-83834549D01*
X139099416Y-83845145D01*
X138995968Y-83876526D01*
X138900630Y-83927485D01*
X138817065Y-83996065D01*
X138748485Y-84079630D01*
X138697526Y-84174968D01*
X138666145Y-84278416D01*
X138655549Y-84385999D01*
X138655549Y-85286001D01*
X138666145Y-85393584D01*
X138697526Y-85497032D01*
X138748485Y-85592370D01*
X138817065Y-85675935D01*
X138900630Y-85744515D01*
X138995968Y-85795474D01*
X139020918Y-85803042D01*
X138952460Y-85871500D01*
X137625366Y-85871500D01*
X137604499Y-85869445D01*
X137583632Y-85871500D01*
X137583626Y-85871500D01*
X137529598Y-85876821D01*
X137521185Y-85877650D01*
X137496883Y-85885022D01*
X137441073Y-85901952D01*
X137367240Y-85941416D01*
X137302526Y-85994526D01*
X137289221Y-86010738D01*
X136620243Y-86679717D01*
X136604026Y-86693026D01*
X136550916Y-86757741D01*
X136511452Y-86831574D01*
X136487150Y-86911687D01*
X136481000Y-86974127D01*
X136481000Y-86974133D01*
X136478945Y-86995000D01*
X134434866Y-86995000D01*
X134314320Y-86802728D01*
X133985739Y-86645136D01*
X133664348Y-86562777D01*
X133845872Y-86526670D01*
X134155252Y-86398521D01*
X134433687Y-86212477D01*
X134670477Y-85975687D01*
X134856521Y-85697252D01*
X134984670Y-85387872D01*
X135050000Y-85059435D01*
X135050000Y-84724565D01*
X134984670Y-84396128D01*
X134856521Y-84086748D01*
X134670477Y-83808313D01*
X134433687Y-83571523D01*
X134155252Y-83385479D01*
X133845872Y-83257330D01*
X133517435Y-83192000D01*
X133182565Y-83192000D01*
X132854128Y-83257330D01*
X132544748Y-83385479D01*
X132266313Y-83571523D01*
X132029523Y-83808313D01*
X131843479Y-84086748D01*
X131715330Y-84396128D01*
X131650000Y-84724565D01*
X128116000Y-84724565D01*
X128116000Y-81224565D01*
X131650000Y-81224565D01*
X131650000Y-81559435D01*
X131715330Y-81887872D01*
X131843479Y-82197252D01*
X132029523Y-82475687D01*
X132266313Y-82712477D01*
X132544748Y-82898521D01*
X132854128Y-83026670D01*
X133182565Y-83092000D01*
X133517435Y-83092000D01*
X133845872Y-83026670D01*
X134155252Y-82898521D01*
X134433687Y-82712477D01*
X134670477Y-82475687D01*
X134856521Y-82197252D01*
X134984670Y-81887872D01*
X135050000Y-81559435D01*
X135050000Y-81224565D01*
X134984670Y-80896128D01*
X134922320Y-80745599D01*
X136504934Y-80745599D01*
X136506989Y-80766466D01*
X136506990Y-84190112D01*
X136504934Y-84210989D01*
X136513139Y-84294303D01*
X136524813Y-84332785D01*
X136537442Y-84374416D01*
X136576906Y-84448249D01*
X136603715Y-84480916D01*
X136616269Y-84496212D01*
X136630016Y-84512963D01*
X136646228Y-84526268D01*
X136655549Y-84535589D01*
X136655549Y-85286001D01*
X136666145Y-85393584D01*
X136697526Y-85497032D01*
X136748485Y-85592370D01*
X136817065Y-85675935D01*
X136900630Y-85744515D01*
X136995968Y-85795474D01*
X137099416Y-85826855D01*
X137206999Y-85837451D01*
X137907001Y-85837451D01*
X138014584Y-85826855D01*
X138118032Y-85795474D01*
X138213370Y-85744515D01*
X138296935Y-85675935D01*
X138365515Y-85592370D01*
X138416474Y-85497032D01*
X138447855Y-85393584D01*
X138458451Y-85286001D01*
X138458451Y-84385999D01*
X138447855Y-84278416D01*
X138416474Y-84174968D01*
X138365515Y-84079630D01*
X138296935Y-83996065D01*
X138213370Y-83927485D01*
X138118032Y-83876526D01*
X138014584Y-83845145D01*
X137907001Y-83834549D01*
X137356989Y-83834549D01*
X137356989Y-81192000D01*
X137405549Y-81192000D01*
X137405549Y-82892000D01*
X137411341Y-82950810D01*
X137428496Y-83007360D01*
X137456353Y-83059477D01*
X137493842Y-83105158D01*
X137539523Y-83142647D01*
X137591640Y-83170504D01*
X137648190Y-83187659D01*
X137707000Y-83193451D01*
X139407000Y-83193451D01*
X139465810Y-83187659D01*
X139522360Y-83170504D01*
X139574477Y-83142647D01*
X139620158Y-83105158D01*
X139657647Y-83059477D01*
X139685504Y-83007360D01*
X139702659Y-82950810D01*
X139708451Y-82892000D01*
X139708451Y-81192000D01*
X139702659Y-81133190D01*
X139685504Y-81076640D01*
X139657647Y-81024523D01*
X139620158Y-80978842D01*
X139574477Y-80941353D01*
X139522360Y-80913496D01*
X139465810Y-80896341D01*
X139407000Y-80890549D01*
X137707000Y-80890549D01*
X137648190Y-80896341D01*
X137591640Y-80913496D01*
X137539523Y-80941353D01*
X137493842Y-80978842D01*
X137456353Y-81024523D01*
X137428496Y-81076640D01*
X137411341Y-81133190D01*
X137405549Y-81192000D01*
X137356989Y-81192000D01*
X137356989Y-80921639D01*
X137859554Y-80419074D01*
X138012271Y-80521116D01*
X138221557Y-80607806D01*
X138443735Y-80652000D01*
X138670265Y-80652000D01*
X138892443Y-80607806D01*
X139101729Y-80521116D01*
X139290082Y-80395263D01*
X139450263Y-80235082D01*
X139576116Y-80046729D01*
X139662806Y-79837443D01*
X139707000Y-79615265D01*
X139707000Y-79388735D01*
X139662806Y-79166557D01*
X139613212Y-79046828D01*
X139842756Y-78817284D01*
X139858974Y-78803974D01*
X139912084Y-78739260D01*
X139951548Y-78665427D01*
X139975850Y-78585314D01*
X139982000Y-78522874D01*
X139984056Y-78502000D01*
X139982000Y-78481126D01*
X139982000Y-77702064D01*
X140014584Y-77698855D01*
X140118032Y-77667474D01*
X140213370Y-77616515D01*
X140296935Y-77547935D01*
X140365515Y-77464370D01*
X140416474Y-77369032D01*
X140447855Y-77265584D01*
X140458451Y-77158001D01*
X140458451Y-76257999D01*
X140447855Y-76150416D01*
X140416474Y-76046968D01*
X140365515Y-75951630D01*
X140296935Y-75868065D01*
X140213370Y-75799485D01*
X140118032Y-75748526D01*
X140014584Y-75717145D01*
X139907001Y-75706549D01*
X139206999Y-75706549D01*
X139099416Y-75717145D01*
X138995968Y-75748526D01*
X138900630Y-75799485D01*
X138817065Y-75868065D01*
X138748485Y-75951630D01*
X138697526Y-76046968D01*
X138666145Y-76150416D01*
X138655549Y-76257999D01*
X138655549Y-77158001D01*
X138666145Y-77265584D01*
X138697526Y-77369032D01*
X138748485Y-77464370D01*
X138817065Y-77547935D01*
X138900630Y-77616515D01*
X138995968Y-77667474D01*
X139099416Y-77698855D01*
X139132001Y-77702064D01*
X139132001Y-78325959D01*
X139012172Y-78445788D01*
X138892443Y-78396194D01*
X138670265Y-78352000D01*
X138443735Y-78352000D01*
X138221557Y-78396194D01*
X138012271Y-78482884D01*
X137823918Y-78608737D01*
X137663737Y-78768918D01*
X137537884Y-78957271D01*
X137451194Y-79166557D01*
X137407000Y-79388735D01*
X137407000Y-79615265D01*
X137416006Y-79660542D01*
X136646233Y-80430315D01*
X136630015Y-80443625D01*
X136576905Y-80508340D01*
X136537441Y-80582173D01*
X136523998Y-80626489D01*
X136514478Y-80657873D01*
X136513139Y-80662286D01*
X136506989Y-80724726D01*
X136506989Y-80724732D01*
X136504934Y-80745599D01*
X134922320Y-80745599D01*
X134856521Y-80586748D01*
X134670477Y-80308313D01*
X134433687Y-80071523D01*
X134155252Y-79885479D01*
X133845872Y-79757330D01*
X133517435Y-79692000D01*
X133182565Y-79692000D01*
X132854128Y-79757330D01*
X132544748Y-79885479D01*
X132266313Y-80071523D01*
X132029523Y-80308313D01*
X131843479Y-80586748D01*
X131715330Y-80896128D01*
X131650000Y-81224565D01*
X128116000Y-81224565D01*
X128116000Y-77408000D01*
X136504823Y-77408000D01*
X136513511Y-77496215D01*
X136539243Y-77581041D01*
X136581029Y-77659216D01*
X136637263Y-77727737D01*
X136705784Y-77783971D01*
X136783959Y-77825757D01*
X136868785Y-77851489D01*
X136957000Y-77860177D01*
X137290500Y-77858000D01*
X137403000Y-77745500D01*
X137403000Y-76862000D01*
X137711000Y-76862000D01*
X137711000Y-77745500D01*
X137823500Y-77858000D01*
X138157000Y-77860177D01*
X138245215Y-77851489D01*
X138330041Y-77825757D01*
X138408216Y-77783971D01*
X138476737Y-77727737D01*
X138532971Y-77659216D01*
X138574757Y-77581041D01*
X138600489Y-77496215D01*
X138609177Y-77408000D01*
X138607000Y-76974500D01*
X138494500Y-76862000D01*
X137711000Y-76862000D01*
X137403000Y-76862000D01*
X136619500Y-76862000D01*
X136507000Y-76974500D01*
X136504823Y-77408000D01*
X128116000Y-77408000D01*
X128116000Y-74459319D01*
X131150000Y-74459319D01*
X131150000Y-74892681D01*
X131234545Y-75317716D01*
X131400385Y-75718091D01*
X131641148Y-76078418D01*
X131947582Y-76384852D01*
X132307909Y-76625615D01*
X132708284Y-76791455D01*
X133133319Y-76876000D01*
X133566681Y-76876000D01*
X133991716Y-76791455D01*
X134392091Y-76625615D01*
X134752418Y-76384852D01*
X135058852Y-76078418D01*
X135105903Y-76008000D01*
X136504823Y-76008000D01*
X136507000Y-76441500D01*
X136619500Y-76554000D01*
X137403000Y-76554000D01*
X137403000Y-75670500D01*
X137711000Y-75670500D01*
X137711000Y-76554000D01*
X138494500Y-76554000D01*
X138607000Y-76441500D01*
X138609177Y-76008000D01*
X138600489Y-75919785D01*
X138574757Y-75834959D01*
X138532971Y-75756784D01*
X138476737Y-75688263D01*
X138408216Y-75632029D01*
X138330041Y-75590243D01*
X138245215Y-75564511D01*
X138157000Y-75555823D01*
X137823500Y-75558000D01*
X137711000Y-75670500D01*
X137403000Y-75670500D01*
X137290500Y-75558000D01*
X136957000Y-75555823D01*
X136868785Y-75564511D01*
X136783959Y-75590243D01*
X136705784Y-75632029D01*
X136637263Y-75688263D01*
X136581029Y-75756784D01*
X136539243Y-75834959D01*
X136513511Y-75919785D01*
X136504823Y-76008000D01*
X135105903Y-76008000D01*
X135299615Y-75718091D01*
X135465455Y-75317716D01*
X135550000Y-74892681D01*
X135550000Y-74459319D01*
X135465455Y-74034284D01*
X135299615Y-73633909D01*
X135058852Y-73273582D01*
X134752418Y-72967148D01*
X134392091Y-72726385D01*
X133991716Y-72560545D01*
X133566681Y-72476000D01*
X133133319Y-72476000D01*
X132708284Y-72560545D01*
X132307909Y-72726385D01*
X131947582Y-72967148D01*
X131641148Y-73273582D01*
X131400385Y-73633909D01*
X131234545Y-74034284D01*
X131150000Y-74459319D01*
X128116000Y-74459319D01*
X128116000Y-72939422D01*
X129073422Y-71982000D01*
X149755078Y-71982000D01*
X150776000Y-73002922D01*
G37*
G04 #@! TD.AperFunction*
D20*
X174117000Y-72950606D02*
X174117000Y-96721394D01*
X173175394Y-97663000D01*
X152516106Y-97663000D01*
X151511000Y-96657894D01*
X151511000Y-94776660D01*
X166683000Y-94776660D01*
X166683000Y-95215340D01*
X166768582Y-95645592D01*
X166936458Y-96050880D01*
X167180176Y-96415630D01*
X167490370Y-96725824D01*
X167855120Y-96969542D01*
X168260408Y-97137418D01*
X168690660Y-97223000D01*
X169129340Y-97223000D01*
X169559592Y-97137418D01*
X169964880Y-96969542D01*
X170329630Y-96725824D01*
X170639824Y-96415630D01*
X170883542Y-96050880D01*
X171051418Y-95645592D01*
X171137000Y-95215340D01*
X171137000Y-94776660D01*
X171051418Y-94346408D01*
X170883542Y-93941120D01*
X170639824Y-93576370D01*
X170329630Y-93266176D01*
X169964880Y-93022458D01*
X169559592Y-92854582D01*
X169129340Y-92769000D01*
X168690660Y-92769000D01*
X168260408Y-92854582D01*
X167855120Y-93022458D01*
X167490370Y-93266176D01*
X167180176Y-93576370D01*
X166936458Y-93941120D01*
X166768582Y-94346408D01*
X166683000Y-94776660D01*
X151511000Y-94776660D01*
X151511000Y-93443661D01*
X151554087Y-93486748D01*
X151771430Y-93631972D01*
X152012928Y-93732004D01*
X152269302Y-93783000D01*
X152530698Y-93783000D01*
X152787072Y-93732004D01*
X152913642Y-93679577D01*
X153615103Y-94381038D01*
X153630816Y-94400184D01*
X153707255Y-94462917D01*
X153794464Y-94509531D01*
X153889091Y-94538236D01*
X153962847Y-94545500D01*
X153962856Y-94545500D01*
X153987499Y-94547927D01*
X154012142Y-94545500D01*
X156883857Y-94545500D01*
X156908500Y-94547927D01*
X156933143Y-94545500D01*
X156933153Y-94545500D01*
X157006909Y-94538236D01*
X157101536Y-94509531D01*
X157188745Y-94462917D01*
X157265184Y-94400184D01*
X157280901Y-94381033D01*
X160082043Y-91579893D01*
X160101184Y-91564184D01*
X160116892Y-91545044D01*
X160116900Y-91545036D01*
X160163917Y-91487746D01*
X160210530Y-91400537D01*
X160210531Y-91400536D01*
X160239236Y-91305909D01*
X160246500Y-91232153D01*
X160246500Y-91232143D01*
X160248927Y-91207500D01*
X160246500Y-91182857D01*
X160246500Y-90942805D01*
X160303414Y-90925540D01*
X160403443Y-90872073D01*
X160491119Y-90800119D01*
X160563073Y-90712443D01*
X160601260Y-90641000D01*
X160752692Y-90641000D01*
X160761902Y-90734508D01*
X160789177Y-90824423D01*
X160833470Y-90907289D01*
X160893078Y-90979922D01*
X160965711Y-91039530D01*
X161048577Y-91083823D01*
X161138492Y-91111098D01*
X161232000Y-91120308D01*
X161573250Y-91118000D01*
X161692500Y-90998750D01*
X161692500Y-90043000D01*
X161946500Y-90043000D01*
X161946500Y-90998750D01*
X162065750Y-91118000D01*
X162407000Y-91120308D01*
X162500508Y-91111098D01*
X162590423Y-91083823D01*
X162673289Y-91039530D01*
X162745922Y-90979922D01*
X162805530Y-90907289D01*
X162849823Y-90824423D01*
X162877098Y-90734508D01*
X162886308Y-90641000D01*
X162884414Y-90248072D01*
X171435221Y-90248072D01*
X171467252Y-90353679D01*
X171576710Y-90589668D01*
X171730104Y-90799769D01*
X171921539Y-90975907D01*
X172143659Y-91111313D01*
X172387927Y-91200784D01*
X172593000Y-91117664D01*
X172593000Y-90043000D01*
X172847000Y-90043000D01*
X172847000Y-91117664D01*
X173052073Y-91200784D01*
X173296341Y-91111313D01*
X173518461Y-90975907D01*
X173709896Y-90799769D01*
X173863290Y-90589668D01*
X173972748Y-90353679D01*
X174004779Y-90248072D01*
X173921054Y-90043000D01*
X172847000Y-90043000D01*
X172593000Y-90043000D01*
X171518946Y-90043000D01*
X171435221Y-90248072D01*
X162884414Y-90248072D01*
X162884000Y-90162250D01*
X162764750Y-90043000D01*
X161946500Y-90043000D01*
X161692500Y-90043000D01*
X160874250Y-90043000D01*
X160755000Y-90162250D01*
X160752692Y-90641000D01*
X160601260Y-90641000D01*
X160616540Y-90612414D01*
X160649465Y-90503876D01*
X160660582Y-90391000D01*
X160660582Y-89441000D01*
X160649465Y-89328124D01*
X160616540Y-89219586D01*
X160563073Y-89119557D01*
X160491119Y-89031881D01*
X160403443Y-88959927D01*
X160303414Y-88906460D01*
X160194876Y-88873535D01*
X160082000Y-88862418D01*
X159407000Y-88862418D01*
X159294124Y-88873535D01*
X159185586Y-88906460D01*
X159085557Y-88959927D01*
X158997881Y-89031881D01*
X158925927Y-89119557D01*
X158880145Y-89205208D01*
X157572385Y-87897448D01*
X157605152Y-87836145D01*
X157632386Y-87746367D01*
X157641582Y-87653000D01*
X157641582Y-87353000D01*
X157638332Y-87320000D01*
X158853418Y-87320000D01*
X158853418Y-87826001D01*
X158864535Y-87938877D01*
X158897460Y-88047414D01*
X158950926Y-88147443D01*
X159022880Y-88235120D01*
X159110557Y-88307074D01*
X159210586Y-88360540D01*
X159319123Y-88393465D01*
X159431999Y-88404582D01*
X160132001Y-88404582D01*
X160244877Y-88393465D01*
X160353414Y-88360540D01*
X160453443Y-88307074D01*
X160457407Y-88303821D01*
X160858501Y-88704915D01*
X160872661Y-88722169D01*
X160941487Y-88778653D01*
X160966524Y-88792035D01*
X160965711Y-88792470D01*
X160893078Y-88852078D01*
X160833470Y-88924711D01*
X160789177Y-89007577D01*
X160761902Y-89097492D01*
X160752692Y-89191000D01*
X160755000Y-89669750D01*
X160874250Y-89789000D01*
X161692500Y-89789000D01*
X161692500Y-89769000D01*
X161946500Y-89769000D01*
X161946500Y-89789000D01*
X162764750Y-89789000D01*
X162884000Y-89669750D01*
X162884413Y-89583928D01*
X171435221Y-89583928D01*
X171518946Y-89789000D01*
X172593000Y-89789000D01*
X172593000Y-88714336D01*
X172847000Y-88714336D01*
X172847000Y-89789000D01*
X173921054Y-89789000D01*
X174004779Y-89583928D01*
X173972748Y-89478321D01*
X173863290Y-89242332D01*
X173709896Y-89032231D01*
X173518461Y-88856093D01*
X173296341Y-88720687D01*
X173052073Y-88631216D01*
X172847000Y-88714336D01*
X172593000Y-88714336D01*
X172387927Y-88631216D01*
X172143659Y-88720687D01*
X171921539Y-88856093D01*
X171730104Y-89032231D01*
X171576710Y-89242332D01*
X171467252Y-89478321D01*
X171435221Y-89583928D01*
X162884413Y-89583928D01*
X162886308Y-89191000D01*
X162877098Y-89097492D01*
X162849823Y-89007577D01*
X162805530Y-88924711D01*
X162746687Y-88853010D01*
X168046787Y-88853010D01*
X168068992Y-88855197D01*
X168091197Y-88853010D01*
X168157599Y-88846470D01*
X168242802Y-88820624D01*
X168321325Y-88778653D01*
X168390151Y-88722169D01*
X168404315Y-88704910D01*
X169281226Y-87828000D01*
X171633249Y-87828000D01*
X171676956Y-87933519D01*
X171805764Y-88126294D01*
X171969706Y-88290236D01*
X172162481Y-88419044D01*
X172376682Y-88507769D01*
X172604076Y-88553000D01*
X172835924Y-88553000D01*
X173063318Y-88507769D01*
X173277519Y-88419044D01*
X173470294Y-88290236D01*
X173634236Y-88126294D01*
X173763044Y-87933519D01*
X173851769Y-87719318D01*
X173897000Y-87491924D01*
X173897000Y-87260076D01*
X173851769Y-87032682D01*
X173763044Y-86818481D01*
X173634236Y-86625706D01*
X173470294Y-86461764D01*
X173277519Y-86332956D01*
X173063318Y-86244231D01*
X172835924Y-86199000D01*
X172604076Y-86199000D01*
X172376682Y-86244231D01*
X172162481Y-86332956D01*
X171969706Y-86461764D01*
X171805764Y-86625706D01*
X171676956Y-86818481D01*
X171633249Y-86924000D01*
X169116206Y-86924000D01*
X169094001Y-86921813D01*
X169005394Y-86930540D01*
X168970296Y-86941187D01*
X168920192Y-86956386D01*
X168841669Y-86998357D01*
X168772843Y-87054841D01*
X168758683Y-87072095D01*
X167881769Y-87949010D01*
X166670662Y-87949010D01*
X166669000Y-87622250D01*
X166549750Y-87503000D01*
X165744000Y-87503000D01*
X165744000Y-87523000D01*
X165490000Y-87523000D01*
X165490000Y-87503000D01*
X164684250Y-87503000D01*
X164565000Y-87622250D01*
X164563338Y-87949010D01*
X164456391Y-87949010D01*
X164459465Y-87938877D01*
X164470582Y-87826001D01*
X164470582Y-86925999D01*
X164459465Y-86813123D01*
X164426540Y-86704586D01*
X164373074Y-86604557D01*
X164301120Y-86516880D01*
X164213443Y-86444926D01*
X164113414Y-86391460D01*
X164004877Y-86358535D01*
X163892001Y-86347418D01*
X163241999Y-86347418D01*
X163129123Y-86358535D01*
X163020586Y-86391460D01*
X162920557Y-86444926D01*
X162832880Y-86516880D01*
X162760926Y-86604557D01*
X162707460Y-86704586D01*
X162687000Y-86772032D01*
X162666540Y-86704586D01*
X162613074Y-86604557D01*
X162541120Y-86516880D01*
X162453443Y-86444926D01*
X162353414Y-86391460D01*
X162244877Y-86358535D01*
X162132001Y-86347418D01*
X161431999Y-86347418D01*
X161319123Y-86358535D01*
X161210586Y-86391460D01*
X161110557Y-86444926D01*
X161022880Y-86516880D01*
X160950926Y-86604557D01*
X160897460Y-86704586D01*
X160864535Y-86813123D01*
X160853418Y-86925999D01*
X160853418Y-87421385D01*
X160710582Y-87278549D01*
X160710582Y-86925999D01*
X160699465Y-86813123D01*
X160666540Y-86704586D01*
X160613074Y-86604557D01*
X160541120Y-86516880D01*
X160453443Y-86444926D01*
X160353414Y-86391460D01*
X160244877Y-86358535D01*
X160132001Y-86347418D01*
X159431999Y-86347418D01*
X159319123Y-86358535D01*
X159210586Y-86391460D01*
X159164674Y-86416000D01*
X157726750Y-86416000D01*
X157670750Y-86360000D01*
X156415000Y-86360000D01*
X156415000Y-86380000D01*
X156161000Y-86380000D01*
X156161000Y-86360000D01*
X154905250Y-86360000D01*
X154861237Y-86404013D01*
X154757000Y-86299776D01*
X154757000Y-85933000D01*
X154783692Y-85933000D01*
X154786000Y-85986750D01*
X154905250Y-86106000D01*
X156161000Y-86106000D01*
X156161000Y-86086000D01*
X156415000Y-86086000D01*
X156415000Y-86106000D01*
X157670750Y-86106000D01*
X157790000Y-85986750D01*
X157792308Y-85933000D01*
X157783098Y-85839492D01*
X157755823Y-85749577D01*
X157711530Y-85666711D01*
X157651922Y-85594078D01*
X157579289Y-85534470D01*
X157496423Y-85490177D01*
X157465572Y-85480819D01*
X157501409Y-85451409D01*
X157531289Y-85415000D01*
X158869426Y-85415000D01*
X158897460Y-85507414D01*
X158950926Y-85607443D01*
X159022880Y-85695120D01*
X159110557Y-85767074D01*
X159210586Y-85820540D01*
X159319123Y-85853465D01*
X159431999Y-85864582D01*
X160132001Y-85864582D01*
X160167830Y-85861053D01*
X160471691Y-86164915D01*
X160485851Y-86182169D01*
X160554677Y-86238653D01*
X160627299Y-86277470D01*
X160633200Y-86280624D01*
X160718402Y-86306470D01*
X160807009Y-86315197D01*
X160829214Y-86313010D01*
X164732405Y-86313010D01*
X164703078Y-86337078D01*
X164643470Y-86409711D01*
X164599177Y-86492577D01*
X164571902Y-86582492D01*
X164562692Y-86676000D01*
X164565000Y-87129750D01*
X164684250Y-87249000D01*
X165490000Y-87249000D01*
X165490000Y-87229000D01*
X165744000Y-87229000D01*
X165744000Y-87249000D01*
X166549750Y-87249000D01*
X166669000Y-87129750D01*
X166671308Y-86676000D01*
X166662098Y-86582492D01*
X166634823Y-86492577D01*
X166590530Y-86409711D01*
X166530922Y-86337078D01*
X166501595Y-86313010D01*
X168046787Y-86313010D01*
X168068992Y-86315197D01*
X168091197Y-86313010D01*
X168157599Y-86306470D01*
X168242802Y-86280624D01*
X168321325Y-86238653D01*
X168390151Y-86182169D01*
X168404315Y-86164910D01*
X168956314Y-85612912D01*
X168956319Y-85612906D01*
X169034755Y-85534470D01*
X169281226Y-85288000D01*
X171633249Y-85288000D01*
X171676956Y-85393519D01*
X171805764Y-85586294D01*
X171969706Y-85750236D01*
X172162481Y-85879044D01*
X172376682Y-85967769D01*
X172604076Y-86013000D01*
X172835924Y-86013000D01*
X173063318Y-85967769D01*
X173277519Y-85879044D01*
X173470294Y-85750236D01*
X173634236Y-85586294D01*
X173763044Y-85393519D01*
X173851769Y-85179318D01*
X173897000Y-84951924D01*
X173897000Y-84720076D01*
X173851769Y-84492682D01*
X173763044Y-84278481D01*
X173634236Y-84085706D01*
X173470294Y-83921764D01*
X173277519Y-83792956D01*
X173063318Y-83704231D01*
X172835924Y-83659000D01*
X172604076Y-83659000D01*
X172376682Y-83704231D01*
X172162481Y-83792956D01*
X171969706Y-83921764D01*
X171805764Y-84085706D01*
X171676956Y-84278481D01*
X171633249Y-84384000D01*
X169116204Y-84384000D01*
X169094001Y-84381813D01*
X169071798Y-84384000D01*
X169071797Y-84384000D01*
X169005395Y-84390540D01*
X168920192Y-84416386D01*
X168841669Y-84458357D01*
X168772843Y-84514841D01*
X168758687Y-84532090D01*
X168317095Y-84973684D01*
X168317090Y-84973688D01*
X167881769Y-85409010D01*
X166670662Y-85409010D01*
X166669000Y-85082250D01*
X166549750Y-84963000D01*
X165744000Y-84963000D01*
X165744000Y-84983000D01*
X165490000Y-84983000D01*
X165490000Y-84963000D01*
X164684250Y-84963000D01*
X164565000Y-85082250D01*
X164563338Y-85409010D01*
X164456391Y-85409010D01*
X164459465Y-85398877D01*
X164470582Y-85286001D01*
X164470582Y-84385999D01*
X164459465Y-84273123D01*
X164426540Y-84164586D01*
X164373074Y-84064557D01*
X164301120Y-83976880D01*
X164213443Y-83904926D01*
X164113414Y-83851460D01*
X164004877Y-83818535D01*
X163892001Y-83807418D01*
X163241999Y-83807418D01*
X163129123Y-83818535D01*
X163020586Y-83851460D01*
X162920557Y-83904926D01*
X162832880Y-83976880D01*
X162760926Y-84064557D01*
X162707460Y-84164586D01*
X162687000Y-84232032D01*
X162666540Y-84164586D01*
X162613074Y-84064557D01*
X162541120Y-83976880D01*
X162453443Y-83904926D01*
X162353414Y-83851460D01*
X162244877Y-83818535D01*
X162132001Y-83807418D01*
X161431999Y-83807418D01*
X161319123Y-83818535D01*
X161210586Y-83851460D01*
X161110557Y-83904926D01*
X161022880Y-83976880D01*
X160950926Y-84064557D01*
X160897460Y-84164586D01*
X160864535Y-84273123D01*
X160853418Y-84385999D01*
X160853418Y-85268194D01*
X160710582Y-85125358D01*
X160710582Y-84385999D01*
X160699465Y-84273123D01*
X160666540Y-84164586D01*
X160613074Y-84064557D01*
X160541120Y-83976880D01*
X160453443Y-83904926D01*
X160353414Y-83851460D01*
X160244877Y-83818535D01*
X160132001Y-83807418D01*
X159431999Y-83807418D01*
X159319123Y-83818535D01*
X159210586Y-83851460D01*
X159110557Y-83904926D01*
X159022880Y-83976880D01*
X158950926Y-84064557D01*
X158897460Y-84164586D01*
X158864535Y-84273123D01*
X158853418Y-84385999D01*
X158853418Y-84511000D01*
X157531289Y-84511000D01*
X157501409Y-84474591D01*
X157428886Y-84415074D01*
X157346145Y-84370848D01*
X157256367Y-84343614D01*
X157163000Y-84334418D01*
X155413000Y-84334418D01*
X155319633Y-84343614D01*
X155229855Y-84370848D01*
X155147114Y-84415074D01*
X155074591Y-84474591D01*
X155015074Y-84547114D01*
X154970848Y-84629855D01*
X154943614Y-84719633D01*
X154934418Y-84813000D01*
X154934418Y-85113000D01*
X154943614Y-85206367D01*
X154970848Y-85296145D01*
X155015074Y-85378886D01*
X155074591Y-85451409D01*
X155110428Y-85480819D01*
X155079577Y-85490177D01*
X154996711Y-85534470D01*
X154924078Y-85594078D01*
X154864470Y-85666711D01*
X154820177Y-85749577D01*
X154792902Y-85839492D01*
X154783692Y-85933000D01*
X154757000Y-85933000D01*
X154757000Y-84642223D01*
X155154402Y-84244822D01*
X155229855Y-84285152D01*
X155319633Y-84312386D01*
X155413000Y-84321582D01*
X157163000Y-84321582D01*
X157256367Y-84312386D01*
X157346145Y-84285152D01*
X157428886Y-84240926D01*
X157501409Y-84181409D01*
X157560926Y-84108886D01*
X157605152Y-84026145D01*
X157632386Y-83936367D01*
X157641582Y-83843000D01*
X157641582Y-83543000D01*
X157632386Y-83449633D01*
X157605152Y-83359855D01*
X157560926Y-83277114D01*
X157501409Y-83204591D01*
X157428886Y-83145074D01*
X157346145Y-83100848D01*
X157256367Y-83073614D01*
X157163000Y-83064418D01*
X156740000Y-83064418D01*
X156740000Y-83051582D01*
X157163000Y-83051582D01*
X157256367Y-83042386D01*
X157346145Y-83015152D01*
X157428886Y-82970926D01*
X157501409Y-82911409D01*
X157560926Y-82838886D01*
X157605152Y-82756145D01*
X157632386Y-82666367D01*
X157641582Y-82573000D01*
X157641582Y-82273000D01*
X157632386Y-82179633D01*
X157605152Y-82089855D01*
X157560926Y-82007114D01*
X157501409Y-81934591D01*
X157428886Y-81875074D01*
X157346145Y-81830848D01*
X157256367Y-81803614D01*
X157163000Y-81794418D01*
X155413000Y-81794418D01*
X155319633Y-81803614D01*
X155229855Y-81830848D01*
X155147114Y-81875074D01*
X155074591Y-81934591D01*
X155015074Y-82007114D01*
X154970848Y-82089855D01*
X154943614Y-82179633D01*
X154934418Y-82273000D01*
X154934418Y-82573000D01*
X154943614Y-82666367D01*
X154970848Y-82756145D01*
X155015074Y-82838886D01*
X155074591Y-82911409D01*
X155147114Y-82970926D01*
X155229855Y-83015152D01*
X155319633Y-83042386D01*
X155413000Y-83051582D01*
X155836000Y-83051582D01*
X155836001Y-83064418D01*
X155413000Y-83064418D01*
X155319633Y-83073614D01*
X155229855Y-83100848D01*
X155147114Y-83145074D01*
X155074591Y-83204591D01*
X155044704Y-83241009D01*
X154978392Y-83247540D01*
X154929772Y-83262289D01*
X154893190Y-83273386D01*
X154814667Y-83315357D01*
X154745841Y-83371841D01*
X154731681Y-83389095D01*
X154001100Y-84119677D01*
X153983841Y-84133841D01*
X153944804Y-84181409D01*
X153927358Y-84202667D01*
X153885386Y-84281191D01*
X153859540Y-84366393D01*
X153850813Y-84455000D01*
X153853000Y-84477205D01*
X153853001Y-86464785D01*
X153850813Y-86487000D01*
X153859540Y-86575607D01*
X153885386Y-86660809D01*
X153915112Y-86716423D01*
X153927358Y-86739333D01*
X153983842Y-86808159D01*
X154001095Y-86822318D01*
X154350685Y-87171910D01*
X154364841Y-87189159D01*
X154433667Y-87245643D01*
X154512190Y-87287614D01*
X154577562Y-87307444D01*
X154597392Y-87313460D01*
X154685999Y-87322187D01*
X154708204Y-87320000D01*
X154937668Y-87320000D01*
X154934418Y-87353000D01*
X154934418Y-87653000D01*
X154943614Y-87746367D01*
X154970848Y-87836145D01*
X155015074Y-87918886D01*
X155074591Y-87991409D01*
X155147114Y-88050926D01*
X155229855Y-88095152D01*
X155319633Y-88122386D01*
X155413000Y-88131582D01*
X156485204Y-88131582D01*
X156505969Y-88200033D01*
X156552583Y-88287243D01*
X156615316Y-88363682D01*
X156634467Y-88379399D01*
X158508605Y-90253538D01*
X158524318Y-90272684D01*
X158543464Y-90288397D01*
X158543467Y-90288400D01*
X158600756Y-90335417D01*
X158687965Y-90382031D01*
X158782592Y-90410736D01*
X158791434Y-90411607D01*
X158830830Y-90415487D01*
X158839535Y-90503876D01*
X158872460Y-90612414D01*
X158925927Y-90712443D01*
X158997881Y-90800119D01*
X159085557Y-90872073D01*
X159185586Y-90925540D01*
X159242500Y-90942805D01*
X159242500Y-90999564D01*
X156700566Y-93541500D01*
X155794610Y-93541500D01*
X155811139Y-93506744D01*
X154940000Y-92635605D01*
X154925858Y-92649748D01*
X154746253Y-92470143D01*
X154760395Y-92456000D01*
X155119605Y-92456000D01*
X155990744Y-93327139D01*
X156210945Y-93222415D01*
X156336044Y-92959739D01*
X156407495Y-92677706D01*
X156422550Y-92387152D01*
X156380631Y-92099243D01*
X156283349Y-91825045D01*
X156210945Y-91689585D01*
X155990744Y-91584861D01*
X155119605Y-92456000D01*
X154760395Y-92456000D01*
X153889256Y-91584861D01*
X153669055Y-91689585D01*
X153588734Y-91858239D01*
X153575972Y-91827430D01*
X153430748Y-91610087D01*
X153245913Y-91425252D01*
X153215987Y-91405256D01*
X154068861Y-91405256D01*
X154940000Y-92276395D01*
X155811139Y-91405256D01*
X155706415Y-91185055D01*
X155443739Y-91059956D01*
X155161706Y-90988505D01*
X154871152Y-90973450D01*
X154583243Y-91015369D01*
X154309045Y-91112651D01*
X154173585Y-91185055D01*
X154068861Y-91405256D01*
X153215987Y-91405256D01*
X153028570Y-91280028D01*
X152902000Y-91227601D01*
X152902000Y-90665582D01*
X153024001Y-90665582D01*
X153136877Y-90654465D01*
X153245414Y-90621540D01*
X153345443Y-90568074D01*
X153433120Y-90496120D01*
X153505074Y-90408443D01*
X153543260Y-90337000D01*
X154094692Y-90337000D01*
X154103902Y-90430508D01*
X154131177Y-90520423D01*
X154175470Y-90603289D01*
X154235078Y-90675922D01*
X154307711Y-90735530D01*
X154390577Y-90779823D01*
X154480492Y-90807098D01*
X154574000Y-90816308D01*
X155115250Y-90814000D01*
X155234500Y-90694750D01*
X155234500Y-89789000D01*
X155488500Y-89789000D01*
X155488500Y-90694750D01*
X155607750Y-90814000D01*
X156149000Y-90816308D01*
X156242508Y-90807098D01*
X156332423Y-90779823D01*
X156415289Y-90735530D01*
X156487922Y-90675922D01*
X156547530Y-90603289D01*
X156591823Y-90520423D01*
X156619098Y-90430508D01*
X156628308Y-90337000D01*
X156626000Y-89908250D01*
X156506750Y-89789000D01*
X155488500Y-89789000D01*
X155234500Y-89789000D01*
X154216250Y-89789000D01*
X154097000Y-89908250D01*
X154094692Y-90337000D01*
X153543260Y-90337000D01*
X153558540Y-90308414D01*
X153591465Y-90199877D01*
X153602582Y-90087001D01*
X153602582Y-89236999D01*
X153591465Y-89124123D01*
X153558540Y-89015586D01*
X153543261Y-88987000D01*
X154094692Y-88987000D01*
X154097000Y-89415750D01*
X154216250Y-89535000D01*
X155234500Y-89535000D01*
X155234500Y-88629250D01*
X155488500Y-88629250D01*
X155488500Y-89535000D01*
X156506750Y-89535000D01*
X156626000Y-89415750D01*
X156628308Y-88987000D01*
X156619098Y-88893492D01*
X156591823Y-88803577D01*
X156547530Y-88720711D01*
X156487922Y-88648078D01*
X156415289Y-88588470D01*
X156332423Y-88544177D01*
X156242508Y-88516902D01*
X156149000Y-88507692D01*
X155607750Y-88510000D01*
X155488500Y-88629250D01*
X155234500Y-88629250D01*
X155115250Y-88510000D01*
X154574000Y-88507692D01*
X154480492Y-88516902D01*
X154390577Y-88544177D01*
X154307711Y-88588470D01*
X154235078Y-88648078D01*
X154175470Y-88720711D01*
X154131177Y-88803577D01*
X154103902Y-88893492D01*
X154094692Y-88987000D01*
X153543261Y-88987000D01*
X153505074Y-88915557D01*
X153433120Y-88827880D01*
X153345443Y-88755926D01*
X153245414Y-88702460D01*
X153169001Y-88679280D01*
X153169001Y-80183000D01*
X154783692Y-80183000D01*
X154792902Y-80276508D01*
X154820177Y-80366423D01*
X154864470Y-80449289D01*
X154924078Y-80521922D01*
X154996711Y-80581530D01*
X155079577Y-80625823D01*
X155110428Y-80635181D01*
X155074591Y-80664591D01*
X155015074Y-80737114D01*
X154970848Y-80819855D01*
X154943614Y-80909633D01*
X154934418Y-81003000D01*
X154934418Y-81303000D01*
X154943614Y-81396367D01*
X154970848Y-81486145D01*
X155015074Y-81568886D01*
X155074591Y-81641409D01*
X155147114Y-81700926D01*
X155229855Y-81745152D01*
X155319633Y-81772386D01*
X155413000Y-81781582D01*
X157163000Y-81781582D01*
X157256367Y-81772386D01*
X157346145Y-81745152D01*
X157428886Y-81700926D01*
X157501409Y-81641409D01*
X157531289Y-81605000D01*
X157799367Y-81605000D01*
X158794275Y-82599910D01*
X158808431Y-82617159D01*
X158853418Y-82654079D01*
X158853418Y-82746001D01*
X158864535Y-82858877D01*
X158897460Y-82967414D01*
X158950926Y-83067443D01*
X159022880Y-83155120D01*
X159110557Y-83227074D01*
X159210586Y-83280540D01*
X159319123Y-83313465D01*
X159431999Y-83324582D01*
X160132001Y-83324582D01*
X160167830Y-83321053D01*
X160471691Y-83624915D01*
X160485851Y-83642169D01*
X160554677Y-83698653D01*
X160585644Y-83715205D01*
X160633200Y-83740624D01*
X160718402Y-83766470D01*
X160807009Y-83775197D01*
X160829214Y-83773010D01*
X164732405Y-83773010D01*
X164703078Y-83797078D01*
X164643470Y-83869711D01*
X164599177Y-83952577D01*
X164571902Y-84042492D01*
X164562692Y-84136000D01*
X164565000Y-84589750D01*
X164684250Y-84709000D01*
X165490000Y-84709000D01*
X165490000Y-84689000D01*
X165744000Y-84689000D01*
X165744000Y-84709000D01*
X166549750Y-84709000D01*
X166669000Y-84589750D01*
X166671308Y-84136000D01*
X166662098Y-84042492D01*
X166634823Y-83952577D01*
X166590530Y-83869711D01*
X166530922Y-83797078D01*
X166501595Y-83773010D01*
X168046787Y-83773010D01*
X168068992Y-83775197D01*
X168091197Y-83773010D01*
X168157599Y-83766470D01*
X168242802Y-83740624D01*
X168321325Y-83698653D01*
X168390151Y-83642169D01*
X168404315Y-83624910D01*
X169281226Y-82748000D01*
X171633249Y-82748000D01*
X171676956Y-82853519D01*
X171805764Y-83046294D01*
X171969706Y-83210236D01*
X172162481Y-83339044D01*
X172376682Y-83427769D01*
X172604076Y-83473000D01*
X172835924Y-83473000D01*
X173063318Y-83427769D01*
X173277519Y-83339044D01*
X173470294Y-83210236D01*
X173634236Y-83046294D01*
X173763044Y-82853519D01*
X173851769Y-82639318D01*
X173897000Y-82411924D01*
X173897000Y-82180076D01*
X173851769Y-81952682D01*
X173763044Y-81738481D01*
X173634236Y-81545706D01*
X173470294Y-81381764D01*
X173277519Y-81252956D01*
X173063318Y-81164231D01*
X172835924Y-81119000D01*
X172604076Y-81119000D01*
X172376682Y-81164231D01*
X172162481Y-81252956D01*
X171969706Y-81381764D01*
X171805764Y-81545706D01*
X171676956Y-81738481D01*
X171633249Y-81844000D01*
X169116206Y-81844000D01*
X169094001Y-81841813D01*
X169005394Y-81850540D01*
X168924517Y-81875074D01*
X168920192Y-81876386D01*
X168841669Y-81918357D01*
X168772843Y-81974841D01*
X168758683Y-81992095D01*
X167881769Y-82869010D01*
X166670662Y-82869010D01*
X166669000Y-82542250D01*
X166549750Y-82423000D01*
X165744000Y-82423000D01*
X165744000Y-82443000D01*
X165490000Y-82443000D01*
X165490000Y-82423000D01*
X164684250Y-82423000D01*
X164565000Y-82542250D01*
X164563338Y-82869010D01*
X164456391Y-82869010D01*
X164459465Y-82858877D01*
X164470582Y-82746001D01*
X164470582Y-81845999D01*
X164459465Y-81733123D01*
X164426540Y-81624586D01*
X164411261Y-81596000D01*
X164562692Y-81596000D01*
X164565000Y-82049750D01*
X164684250Y-82169000D01*
X165490000Y-82169000D01*
X165490000Y-81238250D01*
X165744000Y-81238250D01*
X165744000Y-82169000D01*
X166549750Y-82169000D01*
X166669000Y-82049750D01*
X166671308Y-81596000D01*
X166662098Y-81502492D01*
X166634823Y-81412577D01*
X166590530Y-81329711D01*
X166530922Y-81257078D01*
X166458289Y-81197470D01*
X166375423Y-81153177D01*
X166285508Y-81125902D01*
X166192000Y-81116692D01*
X165863250Y-81119000D01*
X165744000Y-81238250D01*
X165490000Y-81238250D01*
X165370750Y-81119000D01*
X165042000Y-81116692D01*
X164948492Y-81125902D01*
X164858577Y-81153177D01*
X164775711Y-81197470D01*
X164703078Y-81257078D01*
X164643470Y-81329711D01*
X164599177Y-81412577D01*
X164571902Y-81502492D01*
X164562692Y-81596000D01*
X164411261Y-81596000D01*
X164373074Y-81524557D01*
X164301120Y-81436880D01*
X164213443Y-81364926D01*
X164113414Y-81311460D01*
X164004877Y-81278535D01*
X163892001Y-81267418D01*
X163241999Y-81267418D01*
X163129123Y-81278535D01*
X163020586Y-81311460D01*
X162920557Y-81364926D01*
X162832880Y-81436880D01*
X162760926Y-81524557D01*
X162707460Y-81624586D01*
X162687000Y-81692032D01*
X162666540Y-81624586D01*
X162613074Y-81524557D01*
X162541120Y-81436880D01*
X162453443Y-81364926D01*
X162353414Y-81311460D01*
X162244877Y-81278535D01*
X162132001Y-81267418D01*
X161431999Y-81267418D01*
X161319123Y-81278535D01*
X161210586Y-81311460D01*
X161110557Y-81364926D01*
X161022880Y-81436880D01*
X160950926Y-81524557D01*
X160897460Y-81624586D01*
X160864535Y-81733123D01*
X160853418Y-81845999D01*
X160853418Y-82728194D01*
X160710582Y-82585358D01*
X160710582Y-81845999D01*
X160699465Y-81733123D01*
X160666540Y-81624586D01*
X160613074Y-81524557D01*
X160541120Y-81436880D01*
X160453443Y-81364926D01*
X160353414Y-81311460D01*
X160244877Y-81278535D01*
X160132001Y-81267418D01*
X159431999Y-81267418D01*
X159319123Y-81278535D01*
X159210586Y-81311460D01*
X159110557Y-81364926D01*
X159022880Y-81436880D01*
X158971861Y-81499047D01*
X158321913Y-80849100D01*
X158307749Y-80831841D01*
X158238923Y-80775357D01*
X158160400Y-80733386D01*
X158075197Y-80707540D01*
X158008795Y-80701000D01*
X157986590Y-80698813D01*
X157964385Y-80701000D01*
X157531289Y-80701000D01*
X157501409Y-80664591D01*
X157465572Y-80635181D01*
X157496423Y-80625823D01*
X157579289Y-80581530D01*
X157651922Y-80521922D01*
X157685505Y-80481000D01*
X162487692Y-80481000D01*
X162496902Y-80574508D01*
X162524177Y-80664423D01*
X162568470Y-80747289D01*
X162628078Y-80819922D01*
X162700711Y-80879530D01*
X162783577Y-80923823D01*
X162873492Y-80951098D01*
X162967000Y-80960308D01*
X163308250Y-80958000D01*
X163427500Y-80838750D01*
X163427500Y-79883000D01*
X163681500Y-79883000D01*
X163681500Y-80838750D01*
X163800750Y-80958000D01*
X164142000Y-80960308D01*
X164235508Y-80951098D01*
X164325423Y-80923823D01*
X164408289Y-80879530D01*
X164480922Y-80819922D01*
X164540530Y-80747289D01*
X164584823Y-80664423D01*
X164612098Y-80574508D01*
X164621308Y-80481000D01*
X164619000Y-80002250D01*
X164499750Y-79883000D01*
X163681500Y-79883000D01*
X163427500Y-79883000D01*
X162609250Y-79883000D01*
X162490000Y-80002250D01*
X162487692Y-80481000D01*
X157685505Y-80481000D01*
X157711530Y-80449289D01*
X157755823Y-80366423D01*
X157783098Y-80276508D01*
X157792308Y-80183000D01*
X157790000Y-80129250D01*
X157670750Y-80010000D01*
X156415000Y-80010000D01*
X156415000Y-80030000D01*
X156161000Y-80030000D01*
X156161000Y-80010000D01*
X154905250Y-80010000D01*
X154786000Y-80129250D01*
X154783692Y-80183000D01*
X153169001Y-80183000D01*
X153169001Y-79442933D01*
X153698934Y-78913000D01*
X154783692Y-78913000D01*
X154792902Y-79006508D01*
X154820177Y-79096423D01*
X154864470Y-79179289D01*
X154920859Y-79248000D01*
X154864470Y-79316711D01*
X154820177Y-79399577D01*
X154792902Y-79489492D01*
X154783692Y-79583000D01*
X154786000Y-79636750D01*
X154905250Y-79756000D01*
X156161000Y-79756000D01*
X156161000Y-78740000D01*
X156415000Y-78740000D01*
X156415000Y-79756000D01*
X157670750Y-79756000D01*
X157790000Y-79636750D01*
X157792308Y-79583000D01*
X157783098Y-79489492D01*
X157755823Y-79399577D01*
X157711530Y-79316711D01*
X157655141Y-79248000D01*
X157711530Y-79179289D01*
X157755823Y-79096423D01*
X157775668Y-79031000D01*
X162487692Y-79031000D01*
X162490000Y-79509750D01*
X162609250Y-79629000D01*
X163427500Y-79629000D01*
X163427500Y-78673250D01*
X163308250Y-78554000D01*
X162967000Y-78551692D01*
X162873492Y-78560902D01*
X162783577Y-78588177D01*
X162700711Y-78632470D01*
X162628078Y-78692078D01*
X162568470Y-78764711D01*
X162524177Y-78847577D01*
X162496902Y-78937492D01*
X162487692Y-79031000D01*
X157775668Y-79031000D01*
X157783098Y-79006508D01*
X157792308Y-78913000D01*
X157790000Y-78859250D01*
X157670750Y-78740000D01*
X156415000Y-78740000D01*
X156161000Y-78740000D01*
X154905250Y-78740000D01*
X154786000Y-78859250D01*
X154783692Y-78913000D01*
X153698934Y-78913000D01*
X154298935Y-78313000D01*
X154783692Y-78313000D01*
X154786000Y-78366750D01*
X154905250Y-78486000D01*
X156161000Y-78486000D01*
X156161000Y-77955250D01*
X156415000Y-77955250D01*
X156415000Y-78486000D01*
X157670750Y-78486000D01*
X157790000Y-78366750D01*
X157792308Y-78313000D01*
X157783098Y-78219492D01*
X157755823Y-78129577D01*
X157711530Y-78046711D01*
X157651922Y-77974078D01*
X157579289Y-77914470D01*
X157496423Y-77870177D01*
X157406508Y-77842902D01*
X157313000Y-77833692D01*
X156534250Y-77836000D01*
X156415000Y-77955250D01*
X156161000Y-77955250D01*
X156041750Y-77836000D01*
X155263000Y-77833692D01*
X155169492Y-77842902D01*
X155079577Y-77870177D01*
X154996711Y-77914470D01*
X154924078Y-77974078D01*
X154864470Y-78046711D01*
X154820177Y-78129577D01*
X154792902Y-78219492D01*
X154783692Y-78313000D01*
X154298935Y-78313000D01*
X154893936Y-77718000D01*
X162881566Y-77718000D01*
X163759158Y-78595592D01*
X163681500Y-78673250D01*
X163681500Y-79629000D01*
X164499750Y-79629000D01*
X164619000Y-79509750D01*
X164619261Y-79455695D01*
X164713418Y-79549853D01*
X164713418Y-80231000D01*
X164724535Y-80343876D01*
X164757460Y-80452414D01*
X164810927Y-80552443D01*
X164882881Y-80640119D01*
X164970557Y-80712073D01*
X165070586Y-80765540D01*
X165179124Y-80798465D01*
X165292000Y-80809582D01*
X165967000Y-80809582D01*
X166079876Y-80798465D01*
X166188414Y-80765540D01*
X166288443Y-80712073D01*
X166376119Y-80640119D01*
X166448073Y-80552443D01*
X166501540Y-80452414D01*
X166534465Y-80343876D01*
X166542923Y-80258000D01*
X171541418Y-80258000D01*
X171541418Y-80606000D01*
X171547732Y-80670103D01*
X171566430Y-80731743D01*
X171596794Y-80788550D01*
X171637657Y-80838343D01*
X171687450Y-80879206D01*
X171744257Y-80909570D01*
X171805897Y-80928268D01*
X171870000Y-80934582D01*
X173570000Y-80934582D01*
X173634103Y-80928268D01*
X173695743Y-80909570D01*
X173752550Y-80879206D01*
X173802343Y-80838343D01*
X173843206Y-80788550D01*
X173873570Y-80731743D01*
X173892268Y-80670103D01*
X173898582Y-80606000D01*
X173898582Y-78906000D01*
X173892268Y-78841897D01*
X173873570Y-78780257D01*
X173843206Y-78723450D01*
X173802343Y-78673657D01*
X173752550Y-78632794D01*
X173695743Y-78602430D01*
X173634103Y-78583732D01*
X173570000Y-78577418D01*
X171870000Y-78577418D01*
X171805897Y-78583732D01*
X171744257Y-78602430D01*
X171687450Y-78632794D01*
X171637657Y-78673657D01*
X171596794Y-78723450D01*
X171566430Y-78780257D01*
X171547732Y-78841897D01*
X171541418Y-78906000D01*
X171541418Y-79254000D01*
X166542923Y-79254000D01*
X166534465Y-79168124D01*
X166501540Y-79059586D01*
X166448073Y-78959557D01*
X166376119Y-78871881D01*
X166288443Y-78799927D01*
X166188414Y-78746460D01*
X166079876Y-78713535D01*
X165967000Y-78702418D01*
X165292000Y-78702418D01*
X165286404Y-78702969D01*
X163461902Y-76878468D01*
X163446184Y-76859316D01*
X163369745Y-76796583D01*
X163282536Y-76749969D01*
X163187909Y-76721264D01*
X163114153Y-76714000D01*
X163114143Y-76714000D01*
X163089500Y-76711573D01*
X163064857Y-76714000D01*
X154710643Y-76714000D01*
X154686000Y-76711573D01*
X154661357Y-76714000D01*
X154661347Y-76714000D01*
X154587591Y-76721264D01*
X154492964Y-76749969D01*
X154452368Y-76771668D01*
X154405754Y-76796583D01*
X154348464Y-76843600D01*
X154348456Y-76843608D01*
X154329316Y-76859316D01*
X154313607Y-76878457D01*
X152329468Y-78862598D01*
X152310317Y-78878315D01*
X152247584Y-78954754D01*
X152200970Y-79041964D01*
X152172265Y-79136591D01*
X152165001Y-79210347D01*
X152165001Y-79210356D01*
X152162574Y-79234999D01*
X152165001Y-79259642D01*
X152165002Y-88658418D01*
X151948999Y-88658418D01*
X151836123Y-88669535D01*
X151727586Y-88702460D01*
X151627557Y-88755926D01*
X151539880Y-88827880D01*
X151511000Y-88863071D01*
X151511000Y-74456660D01*
X166683000Y-74456660D01*
X166683000Y-74895340D01*
X166768582Y-75325592D01*
X166936458Y-75730880D01*
X167180176Y-76095630D01*
X167490370Y-76405824D01*
X167855120Y-76649542D01*
X168260408Y-76817418D01*
X168690660Y-76903000D01*
X169129340Y-76903000D01*
X169559592Y-76817418D01*
X169964880Y-76649542D01*
X170329630Y-76405824D01*
X170639824Y-76095630D01*
X170883542Y-75730880D01*
X171051418Y-75325592D01*
X171137000Y-74895340D01*
X171137000Y-74456660D01*
X171051418Y-74026408D01*
X170883542Y-73621120D01*
X170639824Y-73256370D01*
X170329630Y-72946176D01*
X169964880Y-72702458D01*
X169559592Y-72534582D01*
X169129340Y-72449000D01*
X168690660Y-72449000D01*
X168260408Y-72534582D01*
X167855120Y-72702458D01*
X167490370Y-72946176D01*
X167180176Y-73256370D01*
X166936458Y-73621120D01*
X166768582Y-74026408D01*
X166683000Y-74456660D01*
X151511000Y-74456660D01*
X151511000Y-73014106D01*
X152516106Y-72009000D01*
X173175394Y-72009000D01*
X174117000Y-72950606D01*
G04 #@! TA.AperFunction,Conductor*
D19*
G36*
X174117000Y-72950606D02*
G01*
X174117000Y-96721394D01*
X173175394Y-97663000D01*
X152516106Y-97663000D01*
X151511000Y-96657894D01*
X151511000Y-94776660D01*
X166683000Y-94776660D01*
X166683000Y-95215340D01*
X166768582Y-95645592D01*
X166936458Y-96050880D01*
X167180176Y-96415630D01*
X167490370Y-96725824D01*
X167855120Y-96969542D01*
X168260408Y-97137418D01*
X168690660Y-97223000D01*
X169129340Y-97223000D01*
X169559592Y-97137418D01*
X169964880Y-96969542D01*
X170329630Y-96725824D01*
X170639824Y-96415630D01*
X170883542Y-96050880D01*
X171051418Y-95645592D01*
X171137000Y-95215340D01*
X171137000Y-94776660D01*
X171051418Y-94346408D01*
X170883542Y-93941120D01*
X170639824Y-93576370D01*
X170329630Y-93266176D01*
X169964880Y-93022458D01*
X169559592Y-92854582D01*
X169129340Y-92769000D01*
X168690660Y-92769000D01*
X168260408Y-92854582D01*
X167855120Y-93022458D01*
X167490370Y-93266176D01*
X167180176Y-93576370D01*
X166936458Y-93941120D01*
X166768582Y-94346408D01*
X166683000Y-94776660D01*
X151511000Y-94776660D01*
X151511000Y-93443661D01*
X151554087Y-93486748D01*
X151771430Y-93631972D01*
X152012928Y-93732004D01*
X152269302Y-93783000D01*
X152530698Y-93783000D01*
X152787072Y-93732004D01*
X152913642Y-93679577D01*
X153615103Y-94381038D01*
X153630816Y-94400184D01*
X153707255Y-94462917D01*
X153794464Y-94509531D01*
X153889091Y-94538236D01*
X153962847Y-94545500D01*
X153962856Y-94545500D01*
X153987499Y-94547927D01*
X154012142Y-94545500D01*
X156883857Y-94545500D01*
X156908500Y-94547927D01*
X156933143Y-94545500D01*
X156933153Y-94545500D01*
X157006909Y-94538236D01*
X157101536Y-94509531D01*
X157188745Y-94462917D01*
X157265184Y-94400184D01*
X157280901Y-94381033D01*
X160082043Y-91579893D01*
X160101184Y-91564184D01*
X160116892Y-91545044D01*
X160116900Y-91545036D01*
X160163917Y-91487746D01*
X160210530Y-91400537D01*
X160210531Y-91400536D01*
X160239236Y-91305909D01*
X160246500Y-91232153D01*
X160246500Y-91232143D01*
X160248927Y-91207500D01*
X160246500Y-91182857D01*
X160246500Y-90942805D01*
X160303414Y-90925540D01*
X160403443Y-90872073D01*
X160491119Y-90800119D01*
X160563073Y-90712443D01*
X160601260Y-90641000D01*
X160752692Y-90641000D01*
X160761902Y-90734508D01*
X160789177Y-90824423D01*
X160833470Y-90907289D01*
X160893078Y-90979922D01*
X160965711Y-91039530D01*
X161048577Y-91083823D01*
X161138492Y-91111098D01*
X161232000Y-91120308D01*
X161573250Y-91118000D01*
X161692500Y-90998750D01*
X161692500Y-90043000D01*
X161946500Y-90043000D01*
X161946500Y-90998750D01*
X162065750Y-91118000D01*
X162407000Y-91120308D01*
X162500508Y-91111098D01*
X162590423Y-91083823D01*
X162673289Y-91039530D01*
X162745922Y-90979922D01*
X162805530Y-90907289D01*
X162849823Y-90824423D01*
X162877098Y-90734508D01*
X162886308Y-90641000D01*
X162884414Y-90248072D01*
X171435221Y-90248072D01*
X171467252Y-90353679D01*
X171576710Y-90589668D01*
X171730104Y-90799769D01*
X171921539Y-90975907D01*
X172143659Y-91111313D01*
X172387927Y-91200784D01*
X172593000Y-91117664D01*
X172593000Y-90043000D01*
X172847000Y-90043000D01*
X172847000Y-91117664D01*
X173052073Y-91200784D01*
X173296341Y-91111313D01*
X173518461Y-90975907D01*
X173709896Y-90799769D01*
X173863290Y-90589668D01*
X173972748Y-90353679D01*
X174004779Y-90248072D01*
X173921054Y-90043000D01*
X172847000Y-90043000D01*
X172593000Y-90043000D01*
X171518946Y-90043000D01*
X171435221Y-90248072D01*
X162884414Y-90248072D01*
X162884000Y-90162250D01*
X162764750Y-90043000D01*
X161946500Y-90043000D01*
X161692500Y-90043000D01*
X160874250Y-90043000D01*
X160755000Y-90162250D01*
X160752692Y-90641000D01*
X160601260Y-90641000D01*
X160616540Y-90612414D01*
X160649465Y-90503876D01*
X160660582Y-90391000D01*
X160660582Y-89441000D01*
X160649465Y-89328124D01*
X160616540Y-89219586D01*
X160563073Y-89119557D01*
X160491119Y-89031881D01*
X160403443Y-88959927D01*
X160303414Y-88906460D01*
X160194876Y-88873535D01*
X160082000Y-88862418D01*
X159407000Y-88862418D01*
X159294124Y-88873535D01*
X159185586Y-88906460D01*
X159085557Y-88959927D01*
X158997881Y-89031881D01*
X158925927Y-89119557D01*
X158880145Y-89205208D01*
X157572385Y-87897448D01*
X157605152Y-87836145D01*
X157632386Y-87746367D01*
X157641582Y-87653000D01*
X157641582Y-87353000D01*
X157638332Y-87320000D01*
X158853418Y-87320000D01*
X158853418Y-87826001D01*
X158864535Y-87938877D01*
X158897460Y-88047414D01*
X158950926Y-88147443D01*
X159022880Y-88235120D01*
X159110557Y-88307074D01*
X159210586Y-88360540D01*
X159319123Y-88393465D01*
X159431999Y-88404582D01*
X160132001Y-88404582D01*
X160244877Y-88393465D01*
X160353414Y-88360540D01*
X160453443Y-88307074D01*
X160457407Y-88303821D01*
X160858501Y-88704915D01*
X160872661Y-88722169D01*
X160941487Y-88778653D01*
X160966524Y-88792035D01*
X160965711Y-88792470D01*
X160893078Y-88852078D01*
X160833470Y-88924711D01*
X160789177Y-89007577D01*
X160761902Y-89097492D01*
X160752692Y-89191000D01*
X160755000Y-89669750D01*
X160874250Y-89789000D01*
X161692500Y-89789000D01*
X161692500Y-89769000D01*
X161946500Y-89769000D01*
X161946500Y-89789000D01*
X162764750Y-89789000D01*
X162884000Y-89669750D01*
X162884413Y-89583928D01*
X171435221Y-89583928D01*
X171518946Y-89789000D01*
X172593000Y-89789000D01*
X172593000Y-88714336D01*
X172847000Y-88714336D01*
X172847000Y-89789000D01*
X173921054Y-89789000D01*
X174004779Y-89583928D01*
X173972748Y-89478321D01*
X173863290Y-89242332D01*
X173709896Y-89032231D01*
X173518461Y-88856093D01*
X173296341Y-88720687D01*
X173052073Y-88631216D01*
X172847000Y-88714336D01*
X172593000Y-88714336D01*
X172387927Y-88631216D01*
X172143659Y-88720687D01*
X171921539Y-88856093D01*
X171730104Y-89032231D01*
X171576710Y-89242332D01*
X171467252Y-89478321D01*
X171435221Y-89583928D01*
X162884413Y-89583928D01*
X162886308Y-89191000D01*
X162877098Y-89097492D01*
X162849823Y-89007577D01*
X162805530Y-88924711D01*
X162746687Y-88853010D01*
X168046787Y-88853010D01*
X168068992Y-88855197D01*
X168091197Y-88853010D01*
X168157599Y-88846470D01*
X168242802Y-88820624D01*
X168321325Y-88778653D01*
X168390151Y-88722169D01*
X168404315Y-88704910D01*
X169281226Y-87828000D01*
X171633249Y-87828000D01*
X171676956Y-87933519D01*
X171805764Y-88126294D01*
X171969706Y-88290236D01*
X172162481Y-88419044D01*
X172376682Y-88507769D01*
X172604076Y-88553000D01*
X172835924Y-88553000D01*
X173063318Y-88507769D01*
X173277519Y-88419044D01*
X173470294Y-88290236D01*
X173634236Y-88126294D01*
X173763044Y-87933519D01*
X173851769Y-87719318D01*
X173897000Y-87491924D01*
X173897000Y-87260076D01*
X173851769Y-87032682D01*
X173763044Y-86818481D01*
X173634236Y-86625706D01*
X173470294Y-86461764D01*
X173277519Y-86332956D01*
X173063318Y-86244231D01*
X172835924Y-86199000D01*
X172604076Y-86199000D01*
X172376682Y-86244231D01*
X172162481Y-86332956D01*
X171969706Y-86461764D01*
X171805764Y-86625706D01*
X171676956Y-86818481D01*
X171633249Y-86924000D01*
X169116206Y-86924000D01*
X169094001Y-86921813D01*
X169005394Y-86930540D01*
X168970296Y-86941187D01*
X168920192Y-86956386D01*
X168841669Y-86998357D01*
X168772843Y-87054841D01*
X168758683Y-87072095D01*
X167881769Y-87949010D01*
X166670662Y-87949010D01*
X166669000Y-87622250D01*
X166549750Y-87503000D01*
X165744000Y-87503000D01*
X165744000Y-87523000D01*
X165490000Y-87523000D01*
X165490000Y-87503000D01*
X164684250Y-87503000D01*
X164565000Y-87622250D01*
X164563338Y-87949010D01*
X164456391Y-87949010D01*
X164459465Y-87938877D01*
X164470582Y-87826001D01*
X164470582Y-86925999D01*
X164459465Y-86813123D01*
X164426540Y-86704586D01*
X164373074Y-86604557D01*
X164301120Y-86516880D01*
X164213443Y-86444926D01*
X164113414Y-86391460D01*
X164004877Y-86358535D01*
X163892001Y-86347418D01*
X163241999Y-86347418D01*
X163129123Y-86358535D01*
X163020586Y-86391460D01*
X162920557Y-86444926D01*
X162832880Y-86516880D01*
X162760926Y-86604557D01*
X162707460Y-86704586D01*
X162687000Y-86772032D01*
X162666540Y-86704586D01*
X162613074Y-86604557D01*
X162541120Y-86516880D01*
X162453443Y-86444926D01*
X162353414Y-86391460D01*
X162244877Y-86358535D01*
X162132001Y-86347418D01*
X161431999Y-86347418D01*
X161319123Y-86358535D01*
X161210586Y-86391460D01*
X161110557Y-86444926D01*
X161022880Y-86516880D01*
X160950926Y-86604557D01*
X160897460Y-86704586D01*
X160864535Y-86813123D01*
X160853418Y-86925999D01*
X160853418Y-87421385D01*
X160710582Y-87278549D01*
X160710582Y-86925999D01*
X160699465Y-86813123D01*
X160666540Y-86704586D01*
X160613074Y-86604557D01*
X160541120Y-86516880D01*
X160453443Y-86444926D01*
X160353414Y-86391460D01*
X160244877Y-86358535D01*
X160132001Y-86347418D01*
X159431999Y-86347418D01*
X159319123Y-86358535D01*
X159210586Y-86391460D01*
X159164674Y-86416000D01*
X157726750Y-86416000D01*
X157670750Y-86360000D01*
X156415000Y-86360000D01*
X156415000Y-86380000D01*
X156161000Y-86380000D01*
X156161000Y-86360000D01*
X154905250Y-86360000D01*
X154861237Y-86404013D01*
X154757000Y-86299776D01*
X154757000Y-85933000D01*
X154783692Y-85933000D01*
X154786000Y-85986750D01*
X154905250Y-86106000D01*
X156161000Y-86106000D01*
X156161000Y-86086000D01*
X156415000Y-86086000D01*
X156415000Y-86106000D01*
X157670750Y-86106000D01*
X157790000Y-85986750D01*
X157792308Y-85933000D01*
X157783098Y-85839492D01*
X157755823Y-85749577D01*
X157711530Y-85666711D01*
X157651922Y-85594078D01*
X157579289Y-85534470D01*
X157496423Y-85490177D01*
X157465572Y-85480819D01*
X157501409Y-85451409D01*
X157531289Y-85415000D01*
X158869426Y-85415000D01*
X158897460Y-85507414D01*
X158950926Y-85607443D01*
X159022880Y-85695120D01*
X159110557Y-85767074D01*
X159210586Y-85820540D01*
X159319123Y-85853465D01*
X159431999Y-85864582D01*
X160132001Y-85864582D01*
X160167830Y-85861053D01*
X160471691Y-86164915D01*
X160485851Y-86182169D01*
X160554677Y-86238653D01*
X160627299Y-86277470D01*
X160633200Y-86280624D01*
X160718402Y-86306470D01*
X160807009Y-86315197D01*
X160829214Y-86313010D01*
X164732405Y-86313010D01*
X164703078Y-86337078D01*
X164643470Y-86409711D01*
X164599177Y-86492577D01*
X164571902Y-86582492D01*
X164562692Y-86676000D01*
X164565000Y-87129750D01*
X164684250Y-87249000D01*
X165490000Y-87249000D01*
X165490000Y-87229000D01*
X165744000Y-87229000D01*
X165744000Y-87249000D01*
X166549750Y-87249000D01*
X166669000Y-87129750D01*
X166671308Y-86676000D01*
X166662098Y-86582492D01*
X166634823Y-86492577D01*
X166590530Y-86409711D01*
X166530922Y-86337078D01*
X166501595Y-86313010D01*
X168046787Y-86313010D01*
X168068992Y-86315197D01*
X168091197Y-86313010D01*
X168157599Y-86306470D01*
X168242802Y-86280624D01*
X168321325Y-86238653D01*
X168390151Y-86182169D01*
X168404315Y-86164910D01*
X168956314Y-85612912D01*
X168956319Y-85612906D01*
X169034755Y-85534470D01*
X169281226Y-85288000D01*
X171633249Y-85288000D01*
X171676956Y-85393519D01*
X171805764Y-85586294D01*
X171969706Y-85750236D01*
X172162481Y-85879044D01*
X172376682Y-85967769D01*
X172604076Y-86013000D01*
X172835924Y-86013000D01*
X173063318Y-85967769D01*
X173277519Y-85879044D01*
X173470294Y-85750236D01*
X173634236Y-85586294D01*
X173763044Y-85393519D01*
X173851769Y-85179318D01*
X173897000Y-84951924D01*
X173897000Y-84720076D01*
X173851769Y-84492682D01*
X173763044Y-84278481D01*
X173634236Y-84085706D01*
X173470294Y-83921764D01*
X173277519Y-83792956D01*
X173063318Y-83704231D01*
X172835924Y-83659000D01*
X172604076Y-83659000D01*
X172376682Y-83704231D01*
X172162481Y-83792956D01*
X171969706Y-83921764D01*
X171805764Y-84085706D01*
X171676956Y-84278481D01*
X171633249Y-84384000D01*
X169116204Y-84384000D01*
X169094001Y-84381813D01*
X169071798Y-84384000D01*
X169071797Y-84384000D01*
X169005395Y-84390540D01*
X168920192Y-84416386D01*
X168841669Y-84458357D01*
X168772843Y-84514841D01*
X168758687Y-84532090D01*
X168317095Y-84973684D01*
X168317090Y-84973688D01*
X167881769Y-85409010D01*
X166670662Y-85409010D01*
X166669000Y-85082250D01*
X166549750Y-84963000D01*
X165744000Y-84963000D01*
X165744000Y-84983000D01*
X165490000Y-84983000D01*
X165490000Y-84963000D01*
X164684250Y-84963000D01*
X164565000Y-85082250D01*
X164563338Y-85409010D01*
X164456391Y-85409010D01*
X164459465Y-85398877D01*
X164470582Y-85286001D01*
X164470582Y-84385999D01*
X164459465Y-84273123D01*
X164426540Y-84164586D01*
X164373074Y-84064557D01*
X164301120Y-83976880D01*
X164213443Y-83904926D01*
X164113414Y-83851460D01*
X164004877Y-83818535D01*
X163892001Y-83807418D01*
X163241999Y-83807418D01*
X163129123Y-83818535D01*
X163020586Y-83851460D01*
X162920557Y-83904926D01*
X162832880Y-83976880D01*
X162760926Y-84064557D01*
X162707460Y-84164586D01*
X162687000Y-84232032D01*
X162666540Y-84164586D01*
X162613074Y-84064557D01*
X162541120Y-83976880D01*
X162453443Y-83904926D01*
X162353414Y-83851460D01*
X162244877Y-83818535D01*
X162132001Y-83807418D01*
X161431999Y-83807418D01*
X161319123Y-83818535D01*
X161210586Y-83851460D01*
X161110557Y-83904926D01*
X161022880Y-83976880D01*
X160950926Y-84064557D01*
X160897460Y-84164586D01*
X160864535Y-84273123D01*
X160853418Y-84385999D01*
X160853418Y-85268194D01*
X160710582Y-85125358D01*
X160710582Y-84385999D01*
X160699465Y-84273123D01*
X160666540Y-84164586D01*
X160613074Y-84064557D01*
X160541120Y-83976880D01*
X160453443Y-83904926D01*
X160353414Y-83851460D01*
X160244877Y-83818535D01*
X160132001Y-83807418D01*
X159431999Y-83807418D01*
X159319123Y-83818535D01*
X159210586Y-83851460D01*
X159110557Y-83904926D01*
X159022880Y-83976880D01*
X158950926Y-84064557D01*
X158897460Y-84164586D01*
X158864535Y-84273123D01*
X158853418Y-84385999D01*
X158853418Y-84511000D01*
X157531289Y-84511000D01*
X157501409Y-84474591D01*
X157428886Y-84415074D01*
X157346145Y-84370848D01*
X157256367Y-84343614D01*
X157163000Y-84334418D01*
X155413000Y-84334418D01*
X155319633Y-84343614D01*
X155229855Y-84370848D01*
X155147114Y-84415074D01*
X155074591Y-84474591D01*
X155015074Y-84547114D01*
X154970848Y-84629855D01*
X154943614Y-84719633D01*
X154934418Y-84813000D01*
X154934418Y-85113000D01*
X154943614Y-85206367D01*
X154970848Y-85296145D01*
X155015074Y-85378886D01*
X155074591Y-85451409D01*
X155110428Y-85480819D01*
X155079577Y-85490177D01*
X154996711Y-85534470D01*
X154924078Y-85594078D01*
X154864470Y-85666711D01*
X154820177Y-85749577D01*
X154792902Y-85839492D01*
X154783692Y-85933000D01*
X154757000Y-85933000D01*
X154757000Y-84642223D01*
X155154402Y-84244822D01*
X155229855Y-84285152D01*
X155319633Y-84312386D01*
X155413000Y-84321582D01*
X157163000Y-84321582D01*
X157256367Y-84312386D01*
X157346145Y-84285152D01*
X157428886Y-84240926D01*
X157501409Y-84181409D01*
X157560926Y-84108886D01*
X157605152Y-84026145D01*
X157632386Y-83936367D01*
X157641582Y-83843000D01*
X157641582Y-83543000D01*
X157632386Y-83449633D01*
X157605152Y-83359855D01*
X157560926Y-83277114D01*
X157501409Y-83204591D01*
X157428886Y-83145074D01*
X157346145Y-83100848D01*
X157256367Y-83073614D01*
X157163000Y-83064418D01*
X156740000Y-83064418D01*
X156740000Y-83051582D01*
X157163000Y-83051582D01*
X157256367Y-83042386D01*
X157346145Y-83015152D01*
X157428886Y-82970926D01*
X157501409Y-82911409D01*
X157560926Y-82838886D01*
X157605152Y-82756145D01*
X157632386Y-82666367D01*
X157641582Y-82573000D01*
X157641582Y-82273000D01*
X157632386Y-82179633D01*
X157605152Y-82089855D01*
X157560926Y-82007114D01*
X157501409Y-81934591D01*
X157428886Y-81875074D01*
X157346145Y-81830848D01*
X157256367Y-81803614D01*
X157163000Y-81794418D01*
X155413000Y-81794418D01*
X155319633Y-81803614D01*
X155229855Y-81830848D01*
X155147114Y-81875074D01*
X155074591Y-81934591D01*
X155015074Y-82007114D01*
X154970848Y-82089855D01*
X154943614Y-82179633D01*
X154934418Y-82273000D01*
X154934418Y-82573000D01*
X154943614Y-82666367D01*
X154970848Y-82756145D01*
X155015074Y-82838886D01*
X155074591Y-82911409D01*
X155147114Y-82970926D01*
X155229855Y-83015152D01*
X155319633Y-83042386D01*
X155413000Y-83051582D01*
X155836000Y-83051582D01*
X155836001Y-83064418D01*
X155413000Y-83064418D01*
X155319633Y-83073614D01*
X155229855Y-83100848D01*
X155147114Y-83145074D01*
X155074591Y-83204591D01*
X155044704Y-83241009D01*
X154978392Y-83247540D01*
X154929772Y-83262289D01*
X154893190Y-83273386D01*
X154814667Y-83315357D01*
X154745841Y-83371841D01*
X154731681Y-83389095D01*
X154001100Y-84119677D01*
X153983841Y-84133841D01*
X153944804Y-84181409D01*
X153927358Y-84202667D01*
X153885386Y-84281191D01*
X153859540Y-84366393D01*
X153850813Y-84455000D01*
X153853000Y-84477205D01*
X153853001Y-86464785D01*
X153850813Y-86487000D01*
X153859540Y-86575607D01*
X153885386Y-86660809D01*
X153915112Y-86716423D01*
X153927358Y-86739333D01*
X153983842Y-86808159D01*
X154001095Y-86822318D01*
X154350685Y-87171910D01*
X154364841Y-87189159D01*
X154433667Y-87245643D01*
X154512190Y-87287614D01*
X154577562Y-87307444D01*
X154597392Y-87313460D01*
X154685999Y-87322187D01*
X154708204Y-87320000D01*
X154937668Y-87320000D01*
X154934418Y-87353000D01*
X154934418Y-87653000D01*
X154943614Y-87746367D01*
X154970848Y-87836145D01*
X155015074Y-87918886D01*
X155074591Y-87991409D01*
X155147114Y-88050926D01*
X155229855Y-88095152D01*
X155319633Y-88122386D01*
X155413000Y-88131582D01*
X156485204Y-88131582D01*
X156505969Y-88200033D01*
X156552583Y-88287243D01*
X156615316Y-88363682D01*
X156634467Y-88379399D01*
X158508605Y-90253538D01*
X158524318Y-90272684D01*
X158543464Y-90288397D01*
X158543467Y-90288400D01*
X158600756Y-90335417D01*
X158687965Y-90382031D01*
X158782592Y-90410736D01*
X158791434Y-90411607D01*
X158830830Y-90415487D01*
X158839535Y-90503876D01*
X158872460Y-90612414D01*
X158925927Y-90712443D01*
X158997881Y-90800119D01*
X159085557Y-90872073D01*
X159185586Y-90925540D01*
X159242500Y-90942805D01*
X159242500Y-90999564D01*
X156700566Y-93541500D01*
X155794610Y-93541500D01*
X155811139Y-93506744D01*
X154940000Y-92635605D01*
X154925858Y-92649748D01*
X154746253Y-92470143D01*
X154760395Y-92456000D01*
X155119605Y-92456000D01*
X155990744Y-93327139D01*
X156210945Y-93222415D01*
X156336044Y-92959739D01*
X156407495Y-92677706D01*
X156422550Y-92387152D01*
X156380631Y-92099243D01*
X156283349Y-91825045D01*
X156210945Y-91689585D01*
X155990744Y-91584861D01*
X155119605Y-92456000D01*
X154760395Y-92456000D01*
X153889256Y-91584861D01*
X153669055Y-91689585D01*
X153588734Y-91858239D01*
X153575972Y-91827430D01*
X153430748Y-91610087D01*
X153245913Y-91425252D01*
X153215987Y-91405256D01*
X154068861Y-91405256D01*
X154940000Y-92276395D01*
X155811139Y-91405256D01*
X155706415Y-91185055D01*
X155443739Y-91059956D01*
X155161706Y-90988505D01*
X154871152Y-90973450D01*
X154583243Y-91015369D01*
X154309045Y-91112651D01*
X154173585Y-91185055D01*
X154068861Y-91405256D01*
X153215987Y-91405256D01*
X153028570Y-91280028D01*
X152902000Y-91227601D01*
X152902000Y-90665582D01*
X153024001Y-90665582D01*
X153136877Y-90654465D01*
X153245414Y-90621540D01*
X153345443Y-90568074D01*
X153433120Y-90496120D01*
X153505074Y-90408443D01*
X153543260Y-90337000D01*
X154094692Y-90337000D01*
X154103902Y-90430508D01*
X154131177Y-90520423D01*
X154175470Y-90603289D01*
X154235078Y-90675922D01*
X154307711Y-90735530D01*
X154390577Y-90779823D01*
X154480492Y-90807098D01*
X154574000Y-90816308D01*
X155115250Y-90814000D01*
X155234500Y-90694750D01*
X155234500Y-89789000D01*
X155488500Y-89789000D01*
X155488500Y-90694750D01*
X155607750Y-90814000D01*
X156149000Y-90816308D01*
X156242508Y-90807098D01*
X156332423Y-90779823D01*
X156415289Y-90735530D01*
X156487922Y-90675922D01*
X156547530Y-90603289D01*
X156591823Y-90520423D01*
X156619098Y-90430508D01*
X156628308Y-90337000D01*
X156626000Y-89908250D01*
X156506750Y-89789000D01*
X155488500Y-89789000D01*
X155234500Y-89789000D01*
X154216250Y-89789000D01*
X154097000Y-89908250D01*
X154094692Y-90337000D01*
X153543260Y-90337000D01*
X153558540Y-90308414D01*
X153591465Y-90199877D01*
X153602582Y-90087001D01*
X153602582Y-89236999D01*
X153591465Y-89124123D01*
X153558540Y-89015586D01*
X153543261Y-88987000D01*
X154094692Y-88987000D01*
X154097000Y-89415750D01*
X154216250Y-89535000D01*
X155234500Y-89535000D01*
X155234500Y-88629250D01*
X155488500Y-88629250D01*
X155488500Y-89535000D01*
X156506750Y-89535000D01*
X156626000Y-89415750D01*
X156628308Y-88987000D01*
X156619098Y-88893492D01*
X156591823Y-88803577D01*
X156547530Y-88720711D01*
X156487922Y-88648078D01*
X156415289Y-88588470D01*
X156332423Y-88544177D01*
X156242508Y-88516902D01*
X156149000Y-88507692D01*
X155607750Y-88510000D01*
X155488500Y-88629250D01*
X155234500Y-88629250D01*
X155115250Y-88510000D01*
X154574000Y-88507692D01*
X154480492Y-88516902D01*
X154390577Y-88544177D01*
X154307711Y-88588470D01*
X154235078Y-88648078D01*
X154175470Y-88720711D01*
X154131177Y-88803577D01*
X154103902Y-88893492D01*
X154094692Y-88987000D01*
X153543261Y-88987000D01*
X153505074Y-88915557D01*
X153433120Y-88827880D01*
X153345443Y-88755926D01*
X153245414Y-88702460D01*
X153169001Y-88679280D01*
X153169001Y-80183000D01*
X154783692Y-80183000D01*
X154792902Y-80276508D01*
X154820177Y-80366423D01*
X154864470Y-80449289D01*
X154924078Y-80521922D01*
X154996711Y-80581530D01*
X155079577Y-80625823D01*
X155110428Y-80635181D01*
X155074591Y-80664591D01*
X155015074Y-80737114D01*
X154970848Y-80819855D01*
X154943614Y-80909633D01*
X154934418Y-81003000D01*
X154934418Y-81303000D01*
X154943614Y-81396367D01*
X154970848Y-81486145D01*
X155015074Y-81568886D01*
X155074591Y-81641409D01*
X155147114Y-81700926D01*
X155229855Y-81745152D01*
X155319633Y-81772386D01*
X155413000Y-81781582D01*
X157163000Y-81781582D01*
X157256367Y-81772386D01*
X157346145Y-81745152D01*
X157428886Y-81700926D01*
X157501409Y-81641409D01*
X157531289Y-81605000D01*
X157799367Y-81605000D01*
X158794275Y-82599910D01*
X158808431Y-82617159D01*
X158853418Y-82654079D01*
X158853418Y-82746001D01*
X158864535Y-82858877D01*
X158897460Y-82967414D01*
X158950926Y-83067443D01*
X159022880Y-83155120D01*
X159110557Y-83227074D01*
X159210586Y-83280540D01*
X159319123Y-83313465D01*
X159431999Y-83324582D01*
X160132001Y-83324582D01*
X160167830Y-83321053D01*
X160471691Y-83624915D01*
X160485851Y-83642169D01*
X160554677Y-83698653D01*
X160585644Y-83715205D01*
X160633200Y-83740624D01*
X160718402Y-83766470D01*
X160807009Y-83775197D01*
X160829214Y-83773010D01*
X164732405Y-83773010D01*
X164703078Y-83797078D01*
X164643470Y-83869711D01*
X164599177Y-83952577D01*
X164571902Y-84042492D01*
X164562692Y-84136000D01*
X164565000Y-84589750D01*
X164684250Y-84709000D01*
X165490000Y-84709000D01*
X165490000Y-84689000D01*
X165744000Y-84689000D01*
X165744000Y-84709000D01*
X166549750Y-84709000D01*
X166669000Y-84589750D01*
X166671308Y-84136000D01*
X166662098Y-84042492D01*
X166634823Y-83952577D01*
X166590530Y-83869711D01*
X166530922Y-83797078D01*
X166501595Y-83773010D01*
X168046787Y-83773010D01*
X168068992Y-83775197D01*
X168091197Y-83773010D01*
X168157599Y-83766470D01*
X168242802Y-83740624D01*
X168321325Y-83698653D01*
X168390151Y-83642169D01*
X168404315Y-83624910D01*
X169281226Y-82748000D01*
X171633249Y-82748000D01*
X171676956Y-82853519D01*
X171805764Y-83046294D01*
X171969706Y-83210236D01*
X172162481Y-83339044D01*
X172376682Y-83427769D01*
X172604076Y-83473000D01*
X172835924Y-83473000D01*
X173063318Y-83427769D01*
X173277519Y-83339044D01*
X173470294Y-83210236D01*
X173634236Y-83046294D01*
X173763044Y-82853519D01*
X173851769Y-82639318D01*
X173897000Y-82411924D01*
X173897000Y-82180076D01*
X173851769Y-81952682D01*
X173763044Y-81738481D01*
X173634236Y-81545706D01*
X173470294Y-81381764D01*
X173277519Y-81252956D01*
X173063318Y-81164231D01*
X172835924Y-81119000D01*
X172604076Y-81119000D01*
X172376682Y-81164231D01*
X172162481Y-81252956D01*
X171969706Y-81381764D01*
X171805764Y-81545706D01*
X171676956Y-81738481D01*
X171633249Y-81844000D01*
X169116206Y-81844000D01*
X169094001Y-81841813D01*
X169005394Y-81850540D01*
X168924517Y-81875074D01*
X168920192Y-81876386D01*
X168841669Y-81918357D01*
X168772843Y-81974841D01*
X168758683Y-81992095D01*
X167881769Y-82869010D01*
X166670662Y-82869010D01*
X166669000Y-82542250D01*
X166549750Y-82423000D01*
X165744000Y-82423000D01*
X165744000Y-82443000D01*
X165490000Y-82443000D01*
X165490000Y-82423000D01*
X164684250Y-82423000D01*
X164565000Y-82542250D01*
X164563338Y-82869010D01*
X164456391Y-82869010D01*
X164459465Y-82858877D01*
X164470582Y-82746001D01*
X164470582Y-81845999D01*
X164459465Y-81733123D01*
X164426540Y-81624586D01*
X164411261Y-81596000D01*
X164562692Y-81596000D01*
X164565000Y-82049750D01*
X164684250Y-82169000D01*
X165490000Y-82169000D01*
X165490000Y-81238250D01*
X165744000Y-81238250D01*
X165744000Y-82169000D01*
X166549750Y-82169000D01*
X166669000Y-82049750D01*
X166671308Y-81596000D01*
X166662098Y-81502492D01*
X166634823Y-81412577D01*
X166590530Y-81329711D01*
X166530922Y-81257078D01*
X166458289Y-81197470D01*
X166375423Y-81153177D01*
X166285508Y-81125902D01*
X166192000Y-81116692D01*
X165863250Y-81119000D01*
X165744000Y-81238250D01*
X165490000Y-81238250D01*
X165370750Y-81119000D01*
X165042000Y-81116692D01*
X164948492Y-81125902D01*
X164858577Y-81153177D01*
X164775711Y-81197470D01*
X164703078Y-81257078D01*
X164643470Y-81329711D01*
X164599177Y-81412577D01*
X164571902Y-81502492D01*
X164562692Y-81596000D01*
X164411261Y-81596000D01*
X164373074Y-81524557D01*
X164301120Y-81436880D01*
X164213443Y-81364926D01*
X164113414Y-81311460D01*
X164004877Y-81278535D01*
X163892001Y-81267418D01*
X163241999Y-81267418D01*
X163129123Y-81278535D01*
X163020586Y-81311460D01*
X162920557Y-81364926D01*
X162832880Y-81436880D01*
X162760926Y-81524557D01*
X162707460Y-81624586D01*
X162687000Y-81692032D01*
X162666540Y-81624586D01*
X162613074Y-81524557D01*
X162541120Y-81436880D01*
X162453443Y-81364926D01*
X162353414Y-81311460D01*
X162244877Y-81278535D01*
X162132001Y-81267418D01*
X161431999Y-81267418D01*
X161319123Y-81278535D01*
X161210586Y-81311460D01*
X161110557Y-81364926D01*
X161022880Y-81436880D01*
X160950926Y-81524557D01*
X160897460Y-81624586D01*
X160864535Y-81733123D01*
X160853418Y-81845999D01*
X160853418Y-82728194D01*
X160710582Y-82585358D01*
X160710582Y-81845999D01*
X160699465Y-81733123D01*
X160666540Y-81624586D01*
X160613074Y-81524557D01*
X160541120Y-81436880D01*
X160453443Y-81364926D01*
X160353414Y-81311460D01*
X160244877Y-81278535D01*
X160132001Y-81267418D01*
X159431999Y-81267418D01*
X159319123Y-81278535D01*
X159210586Y-81311460D01*
X159110557Y-81364926D01*
X159022880Y-81436880D01*
X158971861Y-81499047D01*
X158321913Y-80849100D01*
X158307749Y-80831841D01*
X158238923Y-80775357D01*
X158160400Y-80733386D01*
X158075197Y-80707540D01*
X158008795Y-80701000D01*
X157986590Y-80698813D01*
X157964385Y-80701000D01*
X157531289Y-80701000D01*
X157501409Y-80664591D01*
X157465572Y-80635181D01*
X157496423Y-80625823D01*
X157579289Y-80581530D01*
X157651922Y-80521922D01*
X157685505Y-80481000D01*
X162487692Y-80481000D01*
X162496902Y-80574508D01*
X162524177Y-80664423D01*
X162568470Y-80747289D01*
X162628078Y-80819922D01*
X162700711Y-80879530D01*
X162783577Y-80923823D01*
X162873492Y-80951098D01*
X162967000Y-80960308D01*
X163308250Y-80958000D01*
X163427500Y-80838750D01*
X163427500Y-79883000D01*
X163681500Y-79883000D01*
X163681500Y-80838750D01*
X163800750Y-80958000D01*
X164142000Y-80960308D01*
X164235508Y-80951098D01*
X164325423Y-80923823D01*
X164408289Y-80879530D01*
X164480922Y-80819922D01*
X164540530Y-80747289D01*
X164584823Y-80664423D01*
X164612098Y-80574508D01*
X164621308Y-80481000D01*
X164619000Y-80002250D01*
X164499750Y-79883000D01*
X163681500Y-79883000D01*
X163427500Y-79883000D01*
X162609250Y-79883000D01*
X162490000Y-80002250D01*
X162487692Y-80481000D01*
X157685505Y-80481000D01*
X157711530Y-80449289D01*
X157755823Y-80366423D01*
X157783098Y-80276508D01*
X157792308Y-80183000D01*
X157790000Y-80129250D01*
X157670750Y-80010000D01*
X156415000Y-80010000D01*
X156415000Y-80030000D01*
X156161000Y-80030000D01*
X156161000Y-80010000D01*
X154905250Y-80010000D01*
X154786000Y-80129250D01*
X154783692Y-80183000D01*
X153169001Y-80183000D01*
X153169001Y-79442933D01*
X153698934Y-78913000D01*
X154783692Y-78913000D01*
X154792902Y-79006508D01*
X154820177Y-79096423D01*
X154864470Y-79179289D01*
X154920859Y-79248000D01*
X154864470Y-79316711D01*
X154820177Y-79399577D01*
X154792902Y-79489492D01*
X154783692Y-79583000D01*
X154786000Y-79636750D01*
X154905250Y-79756000D01*
X156161000Y-79756000D01*
X156161000Y-78740000D01*
X156415000Y-78740000D01*
X156415000Y-79756000D01*
X157670750Y-79756000D01*
X157790000Y-79636750D01*
X157792308Y-79583000D01*
X157783098Y-79489492D01*
X157755823Y-79399577D01*
X157711530Y-79316711D01*
X157655141Y-79248000D01*
X157711530Y-79179289D01*
X157755823Y-79096423D01*
X157775668Y-79031000D01*
X162487692Y-79031000D01*
X162490000Y-79509750D01*
X162609250Y-79629000D01*
X163427500Y-79629000D01*
X163427500Y-78673250D01*
X163308250Y-78554000D01*
X162967000Y-78551692D01*
X162873492Y-78560902D01*
X162783577Y-78588177D01*
X162700711Y-78632470D01*
X162628078Y-78692078D01*
X162568470Y-78764711D01*
X162524177Y-78847577D01*
X162496902Y-78937492D01*
X162487692Y-79031000D01*
X157775668Y-79031000D01*
X157783098Y-79006508D01*
X157792308Y-78913000D01*
X157790000Y-78859250D01*
X157670750Y-78740000D01*
X156415000Y-78740000D01*
X156161000Y-78740000D01*
X154905250Y-78740000D01*
X154786000Y-78859250D01*
X154783692Y-78913000D01*
X153698934Y-78913000D01*
X154298935Y-78313000D01*
X154783692Y-78313000D01*
X154786000Y-78366750D01*
X154905250Y-78486000D01*
X156161000Y-78486000D01*
X156161000Y-77955250D01*
X156415000Y-77955250D01*
X156415000Y-78486000D01*
X157670750Y-78486000D01*
X157790000Y-78366750D01*
X157792308Y-78313000D01*
X157783098Y-78219492D01*
X157755823Y-78129577D01*
X157711530Y-78046711D01*
X157651922Y-77974078D01*
X157579289Y-77914470D01*
X157496423Y-77870177D01*
X157406508Y-77842902D01*
X157313000Y-77833692D01*
X156534250Y-77836000D01*
X156415000Y-77955250D01*
X156161000Y-77955250D01*
X156041750Y-77836000D01*
X155263000Y-77833692D01*
X155169492Y-77842902D01*
X155079577Y-77870177D01*
X154996711Y-77914470D01*
X154924078Y-77974078D01*
X154864470Y-78046711D01*
X154820177Y-78129577D01*
X154792902Y-78219492D01*
X154783692Y-78313000D01*
X154298935Y-78313000D01*
X154893936Y-77718000D01*
X162881566Y-77718000D01*
X163759158Y-78595592D01*
X163681500Y-78673250D01*
X163681500Y-79629000D01*
X164499750Y-79629000D01*
X164619000Y-79509750D01*
X164619261Y-79455695D01*
X164713418Y-79549853D01*
X164713418Y-80231000D01*
X164724535Y-80343876D01*
X164757460Y-80452414D01*
X164810927Y-80552443D01*
X164882881Y-80640119D01*
X164970557Y-80712073D01*
X165070586Y-80765540D01*
X165179124Y-80798465D01*
X165292000Y-80809582D01*
X165967000Y-80809582D01*
X166079876Y-80798465D01*
X166188414Y-80765540D01*
X166288443Y-80712073D01*
X166376119Y-80640119D01*
X166448073Y-80552443D01*
X166501540Y-80452414D01*
X166534465Y-80343876D01*
X166542923Y-80258000D01*
X171541418Y-80258000D01*
X171541418Y-80606000D01*
X171547732Y-80670103D01*
X171566430Y-80731743D01*
X171596794Y-80788550D01*
X171637657Y-80838343D01*
X171687450Y-80879206D01*
X171744257Y-80909570D01*
X171805897Y-80928268D01*
X171870000Y-80934582D01*
X173570000Y-80934582D01*
X173634103Y-80928268D01*
X173695743Y-80909570D01*
X173752550Y-80879206D01*
X173802343Y-80838343D01*
X173843206Y-80788550D01*
X173873570Y-80731743D01*
X173892268Y-80670103D01*
X173898582Y-80606000D01*
X173898582Y-78906000D01*
X173892268Y-78841897D01*
X173873570Y-78780257D01*
X173843206Y-78723450D01*
X173802343Y-78673657D01*
X173752550Y-78632794D01*
X173695743Y-78602430D01*
X173634103Y-78583732D01*
X173570000Y-78577418D01*
X171870000Y-78577418D01*
X171805897Y-78583732D01*
X171744257Y-78602430D01*
X171687450Y-78632794D01*
X171637657Y-78673657D01*
X171596794Y-78723450D01*
X171566430Y-78780257D01*
X171547732Y-78841897D01*
X171541418Y-78906000D01*
X171541418Y-79254000D01*
X166542923Y-79254000D01*
X166534465Y-79168124D01*
X166501540Y-79059586D01*
X166448073Y-78959557D01*
X166376119Y-78871881D01*
X166288443Y-78799927D01*
X166188414Y-78746460D01*
X166079876Y-78713535D01*
X165967000Y-78702418D01*
X165292000Y-78702418D01*
X165286404Y-78702969D01*
X163461902Y-76878468D01*
X163446184Y-76859316D01*
X163369745Y-76796583D01*
X163282536Y-76749969D01*
X163187909Y-76721264D01*
X163114153Y-76714000D01*
X163114143Y-76714000D01*
X163089500Y-76711573D01*
X163064857Y-76714000D01*
X154710643Y-76714000D01*
X154686000Y-76711573D01*
X154661357Y-76714000D01*
X154661347Y-76714000D01*
X154587591Y-76721264D01*
X154492964Y-76749969D01*
X154452368Y-76771668D01*
X154405754Y-76796583D01*
X154348464Y-76843600D01*
X154348456Y-76843608D01*
X154329316Y-76859316D01*
X154313607Y-76878457D01*
X152329468Y-78862598D01*
X152310317Y-78878315D01*
X152247584Y-78954754D01*
X152200970Y-79041964D01*
X152172265Y-79136591D01*
X152165001Y-79210347D01*
X152165001Y-79210356D01*
X152162574Y-79234999D01*
X152165001Y-79259642D01*
X152165002Y-88658418D01*
X151948999Y-88658418D01*
X151836123Y-88669535D01*
X151727586Y-88702460D01*
X151627557Y-88755926D01*
X151539880Y-88827880D01*
X151511000Y-88863071D01*
X151511000Y-74456660D01*
X166683000Y-74456660D01*
X166683000Y-74895340D01*
X166768582Y-75325592D01*
X166936458Y-75730880D01*
X167180176Y-76095630D01*
X167490370Y-76405824D01*
X167855120Y-76649542D01*
X168260408Y-76817418D01*
X168690660Y-76903000D01*
X169129340Y-76903000D01*
X169559592Y-76817418D01*
X169964880Y-76649542D01*
X170329630Y-76405824D01*
X170639824Y-76095630D01*
X170883542Y-75730880D01*
X171051418Y-75325592D01*
X171137000Y-74895340D01*
X171137000Y-74456660D01*
X171051418Y-74026408D01*
X170883542Y-73621120D01*
X170639824Y-73256370D01*
X170329630Y-72946176D01*
X169964880Y-72702458D01*
X169559592Y-72534582D01*
X169129340Y-72449000D01*
X168690660Y-72449000D01*
X168260408Y-72534582D01*
X167855120Y-72702458D01*
X167490370Y-72946176D01*
X167180176Y-73256370D01*
X166936458Y-73621120D01*
X166768582Y-74026408D01*
X166683000Y-74456660D01*
X151511000Y-74456660D01*
X151511000Y-73014106D01*
X152516106Y-72009000D01*
X173175394Y-72009000D01*
X174117000Y-72950606D01*
G37*
G04 #@! TD.AperFunction*
M02*
