G04 #@! TF.GenerationSoftware,KiCad,Pcbnew,5.1.12-84ad8e8a86~92~ubuntu16.04.1*
G04 #@! TF.CreationDate,2022-11-17T23:54:25+01:00*
G04 #@! TF.ProjectId,RS485-TTL,52533438-352d-4545-944c-2e6b69636164,rev?*
G04 #@! TF.SameCoordinates,Original*
G04 #@! TF.FileFunction,Copper,L2,Bot*
G04 #@! TF.FilePolarity,Positive*
%FSLAX46Y46*%
G04 Gerber Fmt 4.6, Leading zero omitted, Abs format (unit mm)*
G04 Created by KiCad (PCBNEW 5.1.12-84ad8e8a86~92~ubuntu16.04.1) date 2022-11-17 23:54:25*
%MOMM*%
%LPD*%
G01*
G04 APERTURE LIST*
G04 #@! TA.AperFunction,ComponentPad*
%ADD10C,2.800000*%
G04 #@! TD*
G04 #@! TA.AperFunction,ComponentPad*
%ADD11O,1.700000X1.700000*%
G04 #@! TD*
G04 #@! TA.AperFunction,ComponentPad*
%ADD12R,1.700000X1.700000*%
G04 #@! TD*
G04 #@! TA.AperFunction,ComponentPad*
%ADD13C,2.000000*%
G04 #@! TD*
G04 #@! TA.AperFunction,ViaPad*
%ADD14C,0.800000*%
G04 #@! TD*
G04 #@! TA.AperFunction,Conductor*
%ADD15C,0.250000*%
G04 #@! TD*
G04 #@! TA.AperFunction,Conductor*
%ADD16C,0.200000*%
G04 #@! TD*
G04 #@! TA.AperFunction,Conductor*
%ADD17C,0.100000*%
G04 #@! TD*
G04 #@! TA.AperFunction,Conductor*
%ADD18C,0.254000*%
G04 #@! TD*
G04 APERTURE END LIST*
D10*
X133350000Y-88392000D03*
X133350000Y-84892000D03*
X133350000Y-81392000D03*
D11*
X138557000Y-87884000D03*
D12*
X138557000Y-90424000D03*
D13*
X154940000Y-92456000D03*
X152400000Y-92456000D03*
X149860000Y-92456000D03*
X147320000Y-92456000D03*
D12*
X172720000Y-79756000D03*
D11*
X172720000Y-82296000D03*
X172720000Y-84836000D03*
X172720000Y-87376000D03*
X172720000Y-89916000D03*
D12*
X138557000Y-82042000D03*
D11*
X138557000Y-79502000D03*
D14*
X163195000Y-89916000D03*
X157988000Y-86106000D03*
X157734000Y-79248000D03*
X167894000Y-84836000D03*
X167894000Y-87376000D03*
X157988000Y-87757000D03*
X173228000Y-72898000D03*
X173228000Y-96774000D03*
X154559000Y-87630000D03*
X152400000Y-72898000D03*
X163195000Y-72898000D03*
X163195000Y-96774000D03*
X152400000Y-96774000D03*
X151892000Y-88011000D03*
X167894000Y-82296000D03*
X151892000Y-83058000D03*
X162179000Y-79756000D03*
X149860000Y-96774000D03*
X149860000Y-72898000D03*
X148717000Y-79883000D03*
X148717000Y-86233000D03*
X141732000Y-79502000D03*
X140716000Y-96774000D03*
X139954000Y-72898000D03*
X129032000Y-72898000D03*
X129032000Y-96774000D03*
X129032000Y-84899500D03*
X140589000Y-87757000D03*
X143129000Y-86042500D03*
X136206989Y-83566000D03*
X136206989Y-80518000D03*
X137541000Y-75374500D03*
X136356944Y-86518750D03*
X145288000Y-92456000D03*
X140969999Y-82176902D03*
D15*
X134000000Y-82042000D02*
X133350000Y-81392000D01*
X138557000Y-82042000D02*
X134000000Y-82042000D01*
X138691902Y-82176902D02*
X138557000Y-82042000D01*
X140969999Y-82176902D02*
X138691902Y-82176902D01*
X135755500Y-84892000D02*
X138557000Y-87693500D01*
X133350000Y-84892000D02*
X135755500Y-84892000D01*
D16*
X150776000Y-73002922D02*
X150776000Y-91306573D01*
X150680819Y-91064238D01*
X150393528Y-90930846D01*
X150085735Y-90856066D01*
X149769265Y-90842770D01*
X149456284Y-90891469D01*
X149158816Y-91000292D01*
X149039181Y-91064238D01*
X148939590Y-91317801D01*
X149860000Y-92238211D01*
X149874142Y-92224069D01*
X150091931Y-92441858D01*
X150077789Y-92456000D01*
X150091931Y-92470142D01*
X149874142Y-92687931D01*
X149860000Y-92673789D01*
X148939590Y-93594199D01*
X149039181Y-93847762D01*
X149326472Y-93981154D01*
X149634265Y-94055934D01*
X149950735Y-94069230D01*
X150263716Y-94020531D01*
X150561184Y-93911708D01*
X150680819Y-93847762D01*
X150776000Y-93605427D01*
X150776000Y-96669078D01*
X149755078Y-97690000D01*
X129073422Y-97690000D01*
X128116000Y-96732578D01*
X128116000Y-94779319D01*
X131150000Y-94779319D01*
X131150000Y-95212681D01*
X131234545Y-95637716D01*
X131400385Y-96038091D01*
X131641148Y-96398418D01*
X131947582Y-96704852D01*
X132307909Y-96945615D01*
X132708284Y-97111455D01*
X133133319Y-97196000D01*
X133566681Y-97196000D01*
X133991716Y-97111455D01*
X134392091Y-96945615D01*
X134752418Y-96704852D01*
X135058852Y-96398418D01*
X135299615Y-96038091D01*
X135465455Y-95637716D01*
X135550000Y-95212681D01*
X135550000Y-94779319D01*
X135465455Y-94354284D01*
X135299615Y-93953909D01*
X135058852Y-93593582D01*
X134752418Y-93287148D01*
X134392091Y-93046385D01*
X133991716Y-92880545D01*
X133566681Y-92796000D01*
X133133319Y-92796000D01*
X132708284Y-92880545D01*
X132307909Y-93046385D01*
X131947582Y-93287148D01*
X131641148Y-93593582D01*
X131400385Y-93953909D01*
X131234545Y-94354284D01*
X131150000Y-94779319D01*
X128116000Y-94779319D01*
X128116000Y-92327961D01*
X146020000Y-92327961D01*
X146020000Y-92584039D01*
X146069958Y-92835196D01*
X146167955Y-93071781D01*
X146310224Y-93284702D01*
X146491298Y-93465776D01*
X146704219Y-93608045D01*
X146940804Y-93706042D01*
X147191961Y-93756000D01*
X147448039Y-93756000D01*
X147699196Y-93706042D01*
X147935781Y-93608045D01*
X148148702Y-93465776D01*
X148329776Y-93284702D01*
X148409042Y-93166071D01*
X148468238Y-93276819D01*
X148721801Y-93376410D01*
X149642211Y-92456000D01*
X148721801Y-91535590D01*
X148468238Y-91635181D01*
X148413629Y-91752794D01*
X148329776Y-91627298D01*
X148148702Y-91446224D01*
X147935781Y-91303955D01*
X147699196Y-91205958D01*
X147448039Y-91156000D01*
X147191961Y-91156000D01*
X146940804Y-91205958D01*
X146704219Y-91303955D01*
X146491298Y-91446224D01*
X146310224Y-91627298D01*
X146167955Y-91840219D01*
X146069958Y-92076804D01*
X146020000Y-92327961D01*
X128116000Y-92327961D01*
X128116000Y-89815653D01*
X132144136Y-89815653D01*
X132292065Y-90110124D01*
X132647583Y-90283504D01*
X133030094Y-90384194D01*
X133424898Y-90408325D01*
X133816824Y-90354970D01*
X134190811Y-90226180D01*
X134407935Y-90110124D01*
X134555864Y-89815653D01*
X133350000Y-88609789D01*
X132144136Y-89815653D01*
X128116000Y-89815653D01*
X128116000Y-88466898D01*
X131333675Y-88466898D01*
X131387030Y-88858824D01*
X131515820Y-89232811D01*
X131631876Y-89449935D01*
X131926347Y-89597864D01*
X133132211Y-88392000D01*
X133567789Y-88392000D01*
X134773653Y-89597864D01*
X134821157Y-89574000D01*
X137405549Y-89574000D01*
X137405549Y-91274000D01*
X137411341Y-91332810D01*
X137428496Y-91389360D01*
X137456353Y-91441477D01*
X137493842Y-91487158D01*
X137539523Y-91524647D01*
X137591640Y-91552504D01*
X137648190Y-91569659D01*
X137707000Y-91575451D01*
X139407000Y-91575451D01*
X139465810Y-91569659D01*
X139522360Y-91552504D01*
X139574477Y-91524647D01*
X139620158Y-91487158D01*
X139657647Y-91441477D01*
X139685504Y-91389360D01*
X139702659Y-91332810D01*
X139708451Y-91274000D01*
X139708451Y-89574000D01*
X139702659Y-89515190D01*
X139685504Y-89458640D01*
X139657647Y-89406523D01*
X139620158Y-89360842D01*
X139574477Y-89323353D01*
X139522360Y-89295496D01*
X139465810Y-89278341D01*
X139407000Y-89272549D01*
X137707000Y-89272549D01*
X137648190Y-89278341D01*
X137591640Y-89295496D01*
X137539523Y-89323353D01*
X137493842Y-89360842D01*
X137456353Y-89406523D01*
X137428496Y-89458640D01*
X137411341Y-89515190D01*
X137405549Y-89574000D01*
X134821157Y-89574000D01*
X135068124Y-89449935D01*
X135241504Y-89094417D01*
X135342194Y-88711906D01*
X135366325Y-88317102D01*
X135312970Y-87925176D01*
X135184180Y-87551189D01*
X135068124Y-87334065D01*
X134773653Y-87186136D01*
X133567789Y-88392000D01*
X133132211Y-88392000D01*
X131926347Y-87186136D01*
X131631876Y-87334065D01*
X131458496Y-87689583D01*
X131357806Y-88072094D01*
X131333675Y-88466898D01*
X128116000Y-88466898D01*
X128116000Y-84724565D01*
X131650000Y-84724565D01*
X131650000Y-85059435D01*
X131715330Y-85387872D01*
X131843479Y-85697252D01*
X132029523Y-85975687D01*
X132266313Y-86212477D01*
X132544748Y-86398521D01*
X132738601Y-86478817D01*
X132509189Y-86557820D01*
X132292065Y-86673876D01*
X132144136Y-86968347D01*
X133350000Y-88174211D01*
X134555864Y-86968347D01*
X134407935Y-86673876D01*
X134052417Y-86500496D01*
X133964765Y-86477423D01*
X134155252Y-86398521D01*
X134433687Y-86212477D01*
X134670477Y-85975687D01*
X134856521Y-85697252D01*
X134984670Y-85387872D01*
X134998767Y-85317000D01*
X135579460Y-85317000D01*
X137563457Y-87300998D01*
X137537884Y-87339271D01*
X137451194Y-87548557D01*
X137407000Y-87770735D01*
X137407000Y-87997265D01*
X137451194Y-88219443D01*
X137537884Y-88428729D01*
X137663737Y-88617082D01*
X137823918Y-88777263D01*
X138012271Y-88903116D01*
X138221557Y-88989806D01*
X138443735Y-89034000D01*
X138670265Y-89034000D01*
X138892443Y-88989806D01*
X139101729Y-88903116D01*
X139290082Y-88777263D01*
X139450263Y-88617082D01*
X139576116Y-88428729D01*
X139662806Y-88219443D01*
X139707000Y-87997265D01*
X139707000Y-87770735D01*
X139662806Y-87548557D01*
X139576116Y-87339271D01*
X139450263Y-87150918D01*
X139290082Y-86990737D01*
X139101729Y-86864884D01*
X138892443Y-86778194D01*
X138670265Y-86734000D01*
X138443735Y-86734000D01*
X138239221Y-86774680D01*
X136070783Y-84606243D01*
X136057474Y-84590026D01*
X135992760Y-84536916D01*
X135918927Y-84497452D01*
X135838814Y-84473150D01*
X135776374Y-84467000D01*
X135776367Y-84467000D01*
X135755500Y-84464945D01*
X135734633Y-84467000D01*
X134998767Y-84467000D01*
X134984670Y-84396128D01*
X134856521Y-84086748D01*
X134670477Y-83808313D01*
X134433687Y-83571523D01*
X134155252Y-83385479D01*
X133845872Y-83257330D01*
X133517435Y-83192000D01*
X133182565Y-83192000D01*
X132854128Y-83257330D01*
X132544748Y-83385479D01*
X132266313Y-83571523D01*
X132029523Y-83808313D01*
X131843479Y-84086748D01*
X131715330Y-84396128D01*
X131650000Y-84724565D01*
X128116000Y-84724565D01*
X128116000Y-81224565D01*
X131650000Y-81224565D01*
X131650000Y-81559435D01*
X131715330Y-81887872D01*
X131843479Y-82197252D01*
X132029523Y-82475687D01*
X132266313Y-82712477D01*
X132544748Y-82898521D01*
X132854128Y-83026670D01*
X133182565Y-83092000D01*
X133517435Y-83092000D01*
X133845872Y-83026670D01*
X134155252Y-82898521D01*
X134433687Y-82712477D01*
X134670477Y-82475687D01*
X134676281Y-82467000D01*
X137405549Y-82467000D01*
X137405549Y-82892000D01*
X137411341Y-82950810D01*
X137428496Y-83007360D01*
X137456353Y-83059477D01*
X137493842Y-83105158D01*
X137539523Y-83142647D01*
X137591640Y-83170504D01*
X137648190Y-83187659D01*
X137707000Y-83193451D01*
X139407000Y-83193451D01*
X139465810Y-83187659D01*
X139522360Y-83170504D01*
X139574477Y-83142647D01*
X139620158Y-83105158D01*
X139657647Y-83059477D01*
X139685504Y-83007360D01*
X139702659Y-82950810D01*
X139708451Y-82892000D01*
X139708451Y-82601902D01*
X140412092Y-82601902D01*
X140426273Y-82623126D01*
X140523775Y-82720628D01*
X140638425Y-82797234D01*
X140765817Y-82850001D01*
X140901055Y-82876902D01*
X141038943Y-82876902D01*
X141174181Y-82850001D01*
X141301573Y-82797234D01*
X141416223Y-82720628D01*
X141513725Y-82623126D01*
X141590331Y-82508476D01*
X141643098Y-82381084D01*
X141669999Y-82245846D01*
X141669999Y-82107958D01*
X141643098Y-81972720D01*
X141590331Y-81845328D01*
X141513725Y-81730678D01*
X141416223Y-81633176D01*
X141301573Y-81556570D01*
X141174181Y-81503803D01*
X141038943Y-81476902D01*
X140901055Y-81476902D01*
X140765817Y-81503803D01*
X140638425Y-81556570D01*
X140523775Y-81633176D01*
X140426273Y-81730678D01*
X140412092Y-81751902D01*
X139708451Y-81751902D01*
X139708451Y-81192000D01*
X139702659Y-81133190D01*
X139685504Y-81076640D01*
X139657647Y-81024523D01*
X139620158Y-80978842D01*
X139574477Y-80941353D01*
X139522360Y-80913496D01*
X139465810Y-80896341D01*
X139407000Y-80890549D01*
X137707000Y-80890549D01*
X137648190Y-80896341D01*
X137591640Y-80913496D01*
X137539523Y-80941353D01*
X137493842Y-80978842D01*
X137456353Y-81024523D01*
X137428496Y-81076640D01*
X137411341Y-81133190D01*
X137405549Y-81192000D01*
X137405549Y-81617000D01*
X135038550Y-81617000D01*
X135050000Y-81559435D01*
X135050000Y-81224565D01*
X134984670Y-80896128D01*
X134856521Y-80586748D01*
X134670477Y-80308313D01*
X134433687Y-80071523D01*
X134155252Y-79885479D01*
X133845872Y-79757330D01*
X133517435Y-79692000D01*
X133182565Y-79692000D01*
X132854128Y-79757330D01*
X132544748Y-79885479D01*
X132266313Y-80071523D01*
X132029523Y-80308313D01*
X131843479Y-80586748D01*
X131715330Y-80896128D01*
X131650000Y-81224565D01*
X128116000Y-81224565D01*
X128116000Y-79388735D01*
X137407000Y-79388735D01*
X137407000Y-79615265D01*
X137451194Y-79837443D01*
X137537884Y-80046729D01*
X137663737Y-80235082D01*
X137823918Y-80395263D01*
X138012271Y-80521116D01*
X138221557Y-80607806D01*
X138443735Y-80652000D01*
X138670265Y-80652000D01*
X138892443Y-80607806D01*
X139101729Y-80521116D01*
X139290082Y-80395263D01*
X139450263Y-80235082D01*
X139576116Y-80046729D01*
X139662806Y-79837443D01*
X139707000Y-79615265D01*
X139707000Y-79388735D01*
X139662806Y-79166557D01*
X139576116Y-78957271D01*
X139450263Y-78768918D01*
X139290082Y-78608737D01*
X139101729Y-78482884D01*
X138892443Y-78396194D01*
X138670265Y-78352000D01*
X138443735Y-78352000D01*
X138221557Y-78396194D01*
X138012271Y-78482884D01*
X137823918Y-78608737D01*
X137663737Y-78768918D01*
X137537884Y-78957271D01*
X137451194Y-79166557D01*
X137407000Y-79388735D01*
X128116000Y-79388735D01*
X128116000Y-74459319D01*
X131150000Y-74459319D01*
X131150000Y-74892681D01*
X131234545Y-75317716D01*
X131400385Y-75718091D01*
X131641148Y-76078418D01*
X131947582Y-76384852D01*
X132307909Y-76625615D01*
X132708284Y-76791455D01*
X133133319Y-76876000D01*
X133566681Y-76876000D01*
X133991716Y-76791455D01*
X134392091Y-76625615D01*
X134752418Y-76384852D01*
X135058852Y-76078418D01*
X135299615Y-75718091D01*
X135465455Y-75317716D01*
X135550000Y-74892681D01*
X135550000Y-74459319D01*
X135465455Y-74034284D01*
X135299615Y-73633909D01*
X135058852Y-73273582D01*
X134752418Y-72967148D01*
X134392091Y-72726385D01*
X133991716Y-72560545D01*
X133566681Y-72476000D01*
X133133319Y-72476000D01*
X132708284Y-72560545D01*
X132307909Y-72726385D01*
X131947582Y-72967148D01*
X131641148Y-73273582D01*
X131400385Y-73633909D01*
X131234545Y-74034284D01*
X131150000Y-74459319D01*
X128116000Y-74459319D01*
X128116000Y-72939422D01*
X129073422Y-71982000D01*
X149755078Y-71982000D01*
X150776000Y-73002922D01*
G04 #@! TA.AperFunction,Conductor*
D17*
G36*
X150776000Y-73002922D02*
G01*
X150776000Y-91306573D01*
X150680819Y-91064238D01*
X150393528Y-90930846D01*
X150085735Y-90856066D01*
X149769265Y-90842770D01*
X149456284Y-90891469D01*
X149158816Y-91000292D01*
X149039181Y-91064238D01*
X148939590Y-91317801D01*
X149860000Y-92238211D01*
X149874142Y-92224069D01*
X150091931Y-92441858D01*
X150077789Y-92456000D01*
X150091931Y-92470142D01*
X149874142Y-92687931D01*
X149860000Y-92673789D01*
X148939590Y-93594199D01*
X149039181Y-93847762D01*
X149326472Y-93981154D01*
X149634265Y-94055934D01*
X149950735Y-94069230D01*
X150263716Y-94020531D01*
X150561184Y-93911708D01*
X150680819Y-93847762D01*
X150776000Y-93605427D01*
X150776000Y-96669078D01*
X149755078Y-97690000D01*
X129073422Y-97690000D01*
X128116000Y-96732578D01*
X128116000Y-94779319D01*
X131150000Y-94779319D01*
X131150000Y-95212681D01*
X131234545Y-95637716D01*
X131400385Y-96038091D01*
X131641148Y-96398418D01*
X131947582Y-96704852D01*
X132307909Y-96945615D01*
X132708284Y-97111455D01*
X133133319Y-97196000D01*
X133566681Y-97196000D01*
X133991716Y-97111455D01*
X134392091Y-96945615D01*
X134752418Y-96704852D01*
X135058852Y-96398418D01*
X135299615Y-96038091D01*
X135465455Y-95637716D01*
X135550000Y-95212681D01*
X135550000Y-94779319D01*
X135465455Y-94354284D01*
X135299615Y-93953909D01*
X135058852Y-93593582D01*
X134752418Y-93287148D01*
X134392091Y-93046385D01*
X133991716Y-92880545D01*
X133566681Y-92796000D01*
X133133319Y-92796000D01*
X132708284Y-92880545D01*
X132307909Y-93046385D01*
X131947582Y-93287148D01*
X131641148Y-93593582D01*
X131400385Y-93953909D01*
X131234545Y-94354284D01*
X131150000Y-94779319D01*
X128116000Y-94779319D01*
X128116000Y-92327961D01*
X146020000Y-92327961D01*
X146020000Y-92584039D01*
X146069958Y-92835196D01*
X146167955Y-93071781D01*
X146310224Y-93284702D01*
X146491298Y-93465776D01*
X146704219Y-93608045D01*
X146940804Y-93706042D01*
X147191961Y-93756000D01*
X147448039Y-93756000D01*
X147699196Y-93706042D01*
X147935781Y-93608045D01*
X148148702Y-93465776D01*
X148329776Y-93284702D01*
X148409042Y-93166071D01*
X148468238Y-93276819D01*
X148721801Y-93376410D01*
X149642211Y-92456000D01*
X148721801Y-91535590D01*
X148468238Y-91635181D01*
X148413629Y-91752794D01*
X148329776Y-91627298D01*
X148148702Y-91446224D01*
X147935781Y-91303955D01*
X147699196Y-91205958D01*
X147448039Y-91156000D01*
X147191961Y-91156000D01*
X146940804Y-91205958D01*
X146704219Y-91303955D01*
X146491298Y-91446224D01*
X146310224Y-91627298D01*
X146167955Y-91840219D01*
X146069958Y-92076804D01*
X146020000Y-92327961D01*
X128116000Y-92327961D01*
X128116000Y-89815653D01*
X132144136Y-89815653D01*
X132292065Y-90110124D01*
X132647583Y-90283504D01*
X133030094Y-90384194D01*
X133424898Y-90408325D01*
X133816824Y-90354970D01*
X134190811Y-90226180D01*
X134407935Y-90110124D01*
X134555864Y-89815653D01*
X133350000Y-88609789D01*
X132144136Y-89815653D01*
X128116000Y-89815653D01*
X128116000Y-88466898D01*
X131333675Y-88466898D01*
X131387030Y-88858824D01*
X131515820Y-89232811D01*
X131631876Y-89449935D01*
X131926347Y-89597864D01*
X133132211Y-88392000D01*
X133567789Y-88392000D01*
X134773653Y-89597864D01*
X134821157Y-89574000D01*
X137405549Y-89574000D01*
X137405549Y-91274000D01*
X137411341Y-91332810D01*
X137428496Y-91389360D01*
X137456353Y-91441477D01*
X137493842Y-91487158D01*
X137539523Y-91524647D01*
X137591640Y-91552504D01*
X137648190Y-91569659D01*
X137707000Y-91575451D01*
X139407000Y-91575451D01*
X139465810Y-91569659D01*
X139522360Y-91552504D01*
X139574477Y-91524647D01*
X139620158Y-91487158D01*
X139657647Y-91441477D01*
X139685504Y-91389360D01*
X139702659Y-91332810D01*
X139708451Y-91274000D01*
X139708451Y-89574000D01*
X139702659Y-89515190D01*
X139685504Y-89458640D01*
X139657647Y-89406523D01*
X139620158Y-89360842D01*
X139574477Y-89323353D01*
X139522360Y-89295496D01*
X139465810Y-89278341D01*
X139407000Y-89272549D01*
X137707000Y-89272549D01*
X137648190Y-89278341D01*
X137591640Y-89295496D01*
X137539523Y-89323353D01*
X137493842Y-89360842D01*
X137456353Y-89406523D01*
X137428496Y-89458640D01*
X137411341Y-89515190D01*
X137405549Y-89574000D01*
X134821157Y-89574000D01*
X135068124Y-89449935D01*
X135241504Y-89094417D01*
X135342194Y-88711906D01*
X135366325Y-88317102D01*
X135312970Y-87925176D01*
X135184180Y-87551189D01*
X135068124Y-87334065D01*
X134773653Y-87186136D01*
X133567789Y-88392000D01*
X133132211Y-88392000D01*
X131926347Y-87186136D01*
X131631876Y-87334065D01*
X131458496Y-87689583D01*
X131357806Y-88072094D01*
X131333675Y-88466898D01*
X128116000Y-88466898D01*
X128116000Y-84724565D01*
X131650000Y-84724565D01*
X131650000Y-85059435D01*
X131715330Y-85387872D01*
X131843479Y-85697252D01*
X132029523Y-85975687D01*
X132266313Y-86212477D01*
X132544748Y-86398521D01*
X132738601Y-86478817D01*
X132509189Y-86557820D01*
X132292065Y-86673876D01*
X132144136Y-86968347D01*
X133350000Y-88174211D01*
X134555864Y-86968347D01*
X134407935Y-86673876D01*
X134052417Y-86500496D01*
X133964765Y-86477423D01*
X134155252Y-86398521D01*
X134433687Y-86212477D01*
X134670477Y-85975687D01*
X134856521Y-85697252D01*
X134984670Y-85387872D01*
X134998767Y-85317000D01*
X135579460Y-85317000D01*
X137563457Y-87300998D01*
X137537884Y-87339271D01*
X137451194Y-87548557D01*
X137407000Y-87770735D01*
X137407000Y-87997265D01*
X137451194Y-88219443D01*
X137537884Y-88428729D01*
X137663737Y-88617082D01*
X137823918Y-88777263D01*
X138012271Y-88903116D01*
X138221557Y-88989806D01*
X138443735Y-89034000D01*
X138670265Y-89034000D01*
X138892443Y-88989806D01*
X139101729Y-88903116D01*
X139290082Y-88777263D01*
X139450263Y-88617082D01*
X139576116Y-88428729D01*
X139662806Y-88219443D01*
X139707000Y-87997265D01*
X139707000Y-87770735D01*
X139662806Y-87548557D01*
X139576116Y-87339271D01*
X139450263Y-87150918D01*
X139290082Y-86990737D01*
X139101729Y-86864884D01*
X138892443Y-86778194D01*
X138670265Y-86734000D01*
X138443735Y-86734000D01*
X138239221Y-86774680D01*
X136070783Y-84606243D01*
X136057474Y-84590026D01*
X135992760Y-84536916D01*
X135918927Y-84497452D01*
X135838814Y-84473150D01*
X135776374Y-84467000D01*
X135776367Y-84467000D01*
X135755500Y-84464945D01*
X135734633Y-84467000D01*
X134998767Y-84467000D01*
X134984670Y-84396128D01*
X134856521Y-84086748D01*
X134670477Y-83808313D01*
X134433687Y-83571523D01*
X134155252Y-83385479D01*
X133845872Y-83257330D01*
X133517435Y-83192000D01*
X133182565Y-83192000D01*
X132854128Y-83257330D01*
X132544748Y-83385479D01*
X132266313Y-83571523D01*
X132029523Y-83808313D01*
X131843479Y-84086748D01*
X131715330Y-84396128D01*
X131650000Y-84724565D01*
X128116000Y-84724565D01*
X128116000Y-81224565D01*
X131650000Y-81224565D01*
X131650000Y-81559435D01*
X131715330Y-81887872D01*
X131843479Y-82197252D01*
X132029523Y-82475687D01*
X132266313Y-82712477D01*
X132544748Y-82898521D01*
X132854128Y-83026670D01*
X133182565Y-83092000D01*
X133517435Y-83092000D01*
X133845872Y-83026670D01*
X134155252Y-82898521D01*
X134433687Y-82712477D01*
X134670477Y-82475687D01*
X134676281Y-82467000D01*
X137405549Y-82467000D01*
X137405549Y-82892000D01*
X137411341Y-82950810D01*
X137428496Y-83007360D01*
X137456353Y-83059477D01*
X137493842Y-83105158D01*
X137539523Y-83142647D01*
X137591640Y-83170504D01*
X137648190Y-83187659D01*
X137707000Y-83193451D01*
X139407000Y-83193451D01*
X139465810Y-83187659D01*
X139522360Y-83170504D01*
X139574477Y-83142647D01*
X139620158Y-83105158D01*
X139657647Y-83059477D01*
X139685504Y-83007360D01*
X139702659Y-82950810D01*
X139708451Y-82892000D01*
X139708451Y-82601902D01*
X140412092Y-82601902D01*
X140426273Y-82623126D01*
X140523775Y-82720628D01*
X140638425Y-82797234D01*
X140765817Y-82850001D01*
X140901055Y-82876902D01*
X141038943Y-82876902D01*
X141174181Y-82850001D01*
X141301573Y-82797234D01*
X141416223Y-82720628D01*
X141513725Y-82623126D01*
X141590331Y-82508476D01*
X141643098Y-82381084D01*
X141669999Y-82245846D01*
X141669999Y-82107958D01*
X141643098Y-81972720D01*
X141590331Y-81845328D01*
X141513725Y-81730678D01*
X141416223Y-81633176D01*
X141301573Y-81556570D01*
X141174181Y-81503803D01*
X141038943Y-81476902D01*
X140901055Y-81476902D01*
X140765817Y-81503803D01*
X140638425Y-81556570D01*
X140523775Y-81633176D01*
X140426273Y-81730678D01*
X140412092Y-81751902D01*
X139708451Y-81751902D01*
X139708451Y-81192000D01*
X139702659Y-81133190D01*
X139685504Y-81076640D01*
X139657647Y-81024523D01*
X139620158Y-80978842D01*
X139574477Y-80941353D01*
X139522360Y-80913496D01*
X139465810Y-80896341D01*
X139407000Y-80890549D01*
X137707000Y-80890549D01*
X137648190Y-80896341D01*
X137591640Y-80913496D01*
X137539523Y-80941353D01*
X137493842Y-80978842D01*
X137456353Y-81024523D01*
X137428496Y-81076640D01*
X137411341Y-81133190D01*
X137405549Y-81192000D01*
X137405549Y-81617000D01*
X135038550Y-81617000D01*
X135050000Y-81559435D01*
X135050000Y-81224565D01*
X134984670Y-80896128D01*
X134856521Y-80586748D01*
X134670477Y-80308313D01*
X134433687Y-80071523D01*
X134155252Y-79885479D01*
X133845872Y-79757330D01*
X133517435Y-79692000D01*
X133182565Y-79692000D01*
X132854128Y-79757330D01*
X132544748Y-79885479D01*
X132266313Y-80071523D01*
X132029523Y-80308313D01*
X131843479Y-80586748D01*
X131715330Y-80896128D01*
X131650000Y-81224565D01*
X128116000Y-81224565D01*
X128116000Y-79388735D01*
X137407000Y-79388735D01*
X137407000Y-79615265D01*
X137451194Y-79837443D01*
X137537884Y-80046729D01*
X137663737Y-80235082D01*
X137823918Y-80395263D01*
X138012271Y-80521116D01*
X138221557Y-80607806D01*
X138443735Y-80652000D01*
X138670265Y-80652000D01*
X138892443Y-80607806D01*
X139101729Y-80521116D01*
X139290082Y-80395263D01*
X139450263Y-80235082D01*
X139576116Y-80046729D01*
X139662806Y-79837443D01*
X139707000Y-79615265D01*
X139707000Y-79388735D01*
X139662806Y-79166557D01*
X139576116Y-78957271D01*
X139450263Y-78768918D01*
X139290082Y-78608737D01*
X139101729Y-78482884D01*
X138892443Y-78396194D01*
X138670265Y-78352000D01*
X138443735Y-78352000D01*
X138221557Y-78396194D01*
X138012271Y-78482884D01*
X137823918Y-78608737D01*
X137663737Y-78768918D01*
X137537884Y-78957271D01*
X137451194Y-79166557D01*
X137407000Y-79388735D01*
X128116000Y-79388735D01*
X128116000Y-74459319D01*
X131150000Y-74459319D01*
X131150000Y-74892681D01*
X131234545Y-75317716D01*
X131400385Y-75718091D01*
X131641148Y-76078418D01*
X131947582Y-76384852D01*
X132307909Y-76625615D01*
X132708284Y-76791455D01*
X133133319Y-76876000D01*
X133566681Y-76876000D01*
X133991716Y-76791455D01*
X134392091Y-76625615D01*
X134752418Y-76384852D01*
X135058852Y-76078418D01*
X135299615Y-75718091D01*
X135465455Y-75317716D01*
X135550000Y-74892681D01*
X135550000Y-74459319D01*
X135465455Y-74034284D01*
X135299615Y-73633909D01*
X135058852Y-73273582D01*
X134752418Y-72967148D01*
X134392091Y-72726385D01*
X133991716Y-72560545D01*
X133566681Y-72476000D01*
X133133319Y-72476000D01*
X132708284Y-72560545D01*
X132307909Y-72726385D01*
X131947582Y-72967148D01*
X131641148Y-73273582D01*
X131400385Y-73633909D01*
X131234545Y-74034284D01*
X131150000Y-74459319D01*
X128116000Y-74459319D01*
X128116000Y-72939422D01*
X129073422Y-71982000D01*
X149755078Y-71982000D01*
X150776000Y-73002922D01*
G37*
G04 #@! TD.AperFunction*
D18*
X174117000Y-72950606D02*
X174117000Y-89412478D01*
X174116825Y-89411901D01*
X173991641Y-89149080D01*
X173817588Y-88915731D01*
X173601355Y-88720822D01*
X173351252Y-88571843D01*
X173188832Y-88514228D01*
X173303097Y-88466898D01*
X173504717Y-88332180D01*
X173676180Y-88160717D01*
X173810898Y-87959097D01*
X173903693Y-87735069D01*
X173951000Y-87497243D01*
X173951000Y-87254757D01*
X173903693Y-87016931D01*
X173810898Y-86792903D01*
X173676180Y-86591283D01*
X173504717Y-86419820D01*
X173303097Y-86285102D01*
X173079069Y-86192307D01*
X172841243Y-86145000D01*
X172598757Y-86145000D01*
X172360931Y-86192307D01*
X172136903Y-86285102D01*
X171935283Y-86419820D01*
X171763820Y-86591283D01*
X171629102Y-86792903D01*
X171536307Y-87016931D01*
X171489000Y-87254757D01*
X171489000Y-87497243D01*
X171536307Y-87735069D01*
X171629102Y-87959097D01*
X171763820Y-88160717D01*
X171935283Y-88332180D01*
X172136903Y-88466898D01*
X172251168Y-88514228D01*
X172088748Y-88571843D01*
X171838645Y-88720822D01*
X171622412Y-88915731D01*
X171448359Y-89149080D01*
X171323175Y-89411901D01*
X171278524Y-89559110D01*
X171399845Y-89789000D01*
X172593000Y-89789000D01*
X172593000Y-89769000D01*
X172847000Y-89769000D01*
X172847000Y-89789000D01*
X172867000Y-89789000D01*
X172867000Y-90043000D01*
X172847000Y-90043000D01*
X172847000Y-91236814D01*
X173076891Y-91357481D01*
X173351252Y-91260157D01*
X173601355Y-91111178D01*
X173817588Y-90916269D01*
X173991641Y-90682920D01*
X174116825Y-90420099D01*
X174117000Y-90419522D01*
X174117000Y-96721394D01*
X173175394Y-97663000D01*
X152516106Y-97663000D01*
X151511000Y-96657894D01*
X151511000Y-94776660D01*
X166683000Y-94776660D01*
X166683000Y-95215340D01*
X166768582Y-95645592D01*
X166936458Y-96050880D01*
X167180176Y-96415630D01*
X167490370Y-96725824D01*
X167855120Y-96969542D01*
X168260408Y-97137418D01*
X168690660Y-97223000D01*
X169129340Y-97223000D01*
X169559592Y-97137418D01*
X169964880Y-96969542D01*
X170329630Y-96725824D01*
X170639824Y-96415630D01*
X170883542Y-96050880D01*
X171051418Y-95645592D01*
X171137000Y-95215340D01*
X171137000Y-94776660D01*
X171051418Y-94346408D01*
X170883542Y-93941120D01*
X170639824Y-93576370D01*
X170329630Y-93266176D01*
X169964880Y-93022458D01*
X169559592Y-92854582D01*
X169129340Y-92769000D01*
X168690660Y-92769000D01*
X168260408Y-92854582D01*
X167855120Y-93022458D01*
X167490370Y-93266176D01*
X167180176Y-93576370D01*
X166936458Y-93941120D01*
X166768582Y-94346408D01*
X166683000Y-94776660D01*
X151511000Y-94776660D01*
X151511000Y-93520029D01*
X151519664Y-93528693D01*
X151745851Y-93679826D01*
X151997177Y-93783929D01*
X152263983Y-93837000D01*
X152536017Y-93837000D01*
X152802823Y-93783929D01*
X153054149Y-93679826D01*
X153186468Y-93591413D01*
X153984192Y-93591413D01*
X154079956Y-93855814D01*
X154369571Y-93996704D01*
X154681108Y-94078384D01*
X155002595Y-94097718D01*
X155321675Y-94053961D01*
X155626088Y-93948795D01*
X155800044Y-93855814D01*
X155895808Y-93591413D01*
X154940000Y-92635605D01*
X153984192Y-93591413D01*
X153186468Y-93591413D01*
X153280336Y-93528693D01*
X153472693Y-93336336D01*
X153516216Y-93271199D01*
X153540186Y-93316044D01*
X153804587Y-93411808D01*
X154760395Y-92456000D01*
X155119605Y-92456000D01*
X156075413Y-93411808D01*
X156339814Y-93316044D01*
X156480704Y-93026429D01*
X156562384Y-92714892D01*
X156581718Y-92393405D01*
X156537961Y-92074325D01*
X156432795Y-91769912D01*
X156339814Y-91595956D01*
X156075413Y-91500192D01*
X155119605Y-92456000D01*
X154760395Y-92456000D01*
X153804587Y-91500192D01*
X153540186Y-91595956D01*
X153517463Y-91642667D01*
X153472693Y-91575664D01*
X153280336Y-91383307D01*
X153186469Y-91320587D01*
X153984192Y-91320587D01*
X154940000Y-92276395D01*
X155895808Y-91320587D01*
X155800044Y-91056186D01*
X155510429Y-90915296D01*
X155198892Y-90833616D01*
X154877405Y-90814282D01*
X154558325Y-90858039D01*
X154253912Y-90963205D01*
X154079956Y-91056186D01*
X153984192Y-91320587D01*
X153186469Y-91320587D01*
X153054149Y-91232174D01*
X152802823Y-91128071D01*
X152536017Y-91075000D01*
X152263983Y-91075000D01*
X151997177Y-91128071D01*
X151745851Y-91232174D01*
X151519664Y-91383307D01*
X151511000Y-91391971D01*
X151511000Y-90272890D01*
X171278524Y-90272890D01*
X171323175Y-90420099D01*
X171448359Y-90682920D01*
X171622412Y-90916269D01*
X171838645Y-91111178D01*
X172088748Y-91260157D01*
X172363109Y-91357481D01*
X172593000Y-91236814D01*
X172593000Y-90043000D01*
X171399845Y-90043000D01*
X171278524Y-90272890D01*
X151511000Y-90272890D01*
X151511000Y-84714757D01*
X171489000Y-84714757D01*
X171489000Y-84957243D01*
X171536307Y-85195069D01*
X171629102Y-85419097D01*
X171763820Y-85620717D01*
X171935283Y-85792180D01*
X172136903Y-85926898D01*
X172360931Y-86019693D01*
X172598757Y-86067000D01*
X172841243Y-86067000D01*
X173079069Y-86019693D01*
X173303097Y-85926898D01*
X173504717Y-85792180D01*
X173676180Y-85620717D01*
X173810898Y-85419097D01*
X173903693Y-85195069D01*
X173951000Y-84957243D01*
X173951000Y-84714757D01*
X173903693Y-84476931D01*
X173810898Y-84252903D01*
X173676180Y-84051283D01*
X173504717Y-83879820D01*
X173303097Y-83745102D01*
X173079069Y-83652307D01*
X172841243Y-83605000D01*
X172598757Y-83605000D01*
X172360931Y-83652307D01*
X172136903Y-83745102D01*
X171935283Y-83879820D01*
X171763820Y-84051283D01*
X171629102Y-84252903D01*
X171536307Y-84476931D01*
X171489000Y-84714757D01*
X151511000Y-84714757D01*
X151511000Y-82174757D01*
X171489000Y-82174757D01*
X171489000Y-82417243D01*
X171536307Y-82655069D01*
X171629102Y-82879097D01*
X171763820Y-83080717D01*
X171935283Y-83252180D01*
X172136903Y-83386898D01*
X172360931Y-83479693D01*
X172598757Y-83527000D01*
X172841243Y-83527000D01*
X173079069Y-83479693D01*
X173303097Y-83386898D01*
X173504717Y-83252180D01*
X173676180Y-83080717D01*
X173810898Y-82879097D01*
X173903693Y-82655069D01*
X173951000Y-82417243D01*
X173951000Y-82174757D01*
X173903693Y-81936931D01*
X173810898Y-81712903D01*
X173676180Y-81511283D01*
X173504717Y-81339820D01*
X173303097Y-81205102D01*
X173079069Y-81112307D01*
X172841243Y-81065000D01*
X172598757Y-81065000D01*
X172360931Y-81112307D01*
X172136903Y-81205102D01*
X171935283Y-81339820D01*
X171763820Y-81511283D01*
X171629102Y-81712903D01*
X171536307Y-81936931D01*
X171489000Y-82174757D01*
X151511000Y-82174757D01*
X151511000Y-78906000D01*
X171487157Y-78906000D01*
X171487157Y-80606000D01*
X171494513Y-80680689D01*
X171516299Y-80752508D01*
X171551678Y-80818696D01*
X171599289Y-80876711D01*
X171657304Y-80924322D01*
X171723492Y-80959701D01*
X171795311Y-80981487D01*
X171870000Y-80988843D01*
X173570000Y-80988843D01*
X173644689Y-80981487D01*
X173716508Y-80959701D01*
X173782696Y-80924322D01*
X173840711Y-80876711D01*
X173888322Y-80818696D01*
X173923701Y-80752508D01*
X173945487Y-80680689D01*
X173952843Y-80606000D01*
X173952843Y-78906000D01*
X173945487Y-78831311D01*
X173923701Y-78759492D01*
X173888322Y-78693304D01*
X173840711Y-78635289D01*
X173782696Y-78587678D01*
X173716508Y-78552299D01*
X173644689Y-78530513D01*
X173570000Y-78523157D01*
X171870000Y-78523157D01*
X171795311Y-78530513D01*
X171723492Y-78552299D01*
X171657304Y-78587678D01*
X171599289Y-78635289D01*
X171551678Y-78693304D01*
X171516299Y-78759492D01*
X171494513Y-78831311D01*
X171487157Y-78906000D01*
X151511000Y-78906000D01*
X151511000Y-74456660D01*
X166683000Y-74456660D01*
X166683000Y-74895340D01*
X166768582Y-75325592D01*
X166936458Y-75730880D01*
X167180176Y-76095630D01*
X167490370Y-76405824D01*
X167855120Y-76649542D01*
X168260408Y-76817418D01*
X168690660Y-76903000D01*
X169129340Y-76903000D01*
X169559592Y-76817418D01*
X169964880Y-76649542D01*
X170329630Y-76405824D01*
X170639824Y-76095630D01*
X170883542Y-75730880D01*
X171051418Y-75325592D01*
X171137000Y-74895340D01*
X171137000Y-74456660D01*
X171051418Y-74026408D01*
X170883542Y-73621120D01*
X170639824Y-73256370D01*
X170329630Y-72946176D01*
X169964880Y-72702458D01*
X169559592Y-72534582D01*
X169129340Y-72449000D01*
X168690660Y-72449000D01*
X168260408Y-72534582D01*
X167855120Y-72702458D01*
X167490370Y-72946176D01*
X167180176Y-73256370D01*
X166936458Y-73621120D01*
X166768582Y-74026408D01*
X166683000Y-74456660D01*
X151511000Y-74456660D01*
X151511000Y-73014106D01*
X152516106Y-72009000D01*
X173175394Y-72009000D01*
X174117000Y-72950606D01*
G04 #@! TA.AperFunction,Conductor*
D17*
G36*
X174117000Y-72950606D02*
G01*
X174117000Y-89412478D01*
X174116825Y-89411901D01*
X173991641Y-89149080D01*
X173817588Y-88915731D01*
X173601355Y-88720822D01*
X173351252Y-88571843D01*
X173188832Y-88514228D01*
X173303097Y-88466898D01*
X173504717Y-88332180D01*
X173676180Y-88160717D01*
X173810898Y-87959097D01*
X173903693Y-87735069D01*
X173951000Y-87497243D01*
X173951000Y-87254757D01*
X173903693Y-87016931D01*
X173810898Y-86792903D01*
X173676180Y-86591283D01*
X173504717Y-86419820D01*
X173303097Y-86285102D01*
X173079069Y-86192307D01*
X172841243Y-86145000D01*
X172598757Y-86145000D01*
X172360931Y-86192307D01*
X172136903Y-86285102D01*
X171935283Y-86419820D01*
X171763820Y-86591283D01*
X171629102Y-86792903D01*
X171536307Y-87016931D01*
X171489000Y-87254757D01*
X171489000Y-87497243D01*
X171536307Y-87735069D01*
X171629102Y-87959097D01*
X171763820Y-88160717D01*
X171935283Y-88332180D01*
X172136903Y-88466898D01*
X172251168Y-88514228D01*
X172088748Y-88571843D01*
X171838645Y-88720822D01*
X171622412Y-88915731D01*
X171448359Y-89149080D01*
X171323175Y-89411901D01*
X171278524Y-89559110D01*
X171399845Y-89789000D01*
X172593000Y-89789000D01*
X172593000Y-89769000D01*
X172847000Y-89769000D01*
X172847000Y-89789000D01*
X172867000Y-89789000D01*
X172867000Y-90043000D01*
X172847000Y-90043000D01*
X172847000Y-91236814D01*
X173076891Y-91357481D01*
X173351252Y-91260157D01*
X173601355Y-91111178D01*
X173817588Y-90916269D01*
X173991641Y-90682920D01*
X174116825Y-90420099D01*
X174117000Y-90419522D01*
X174117000Y-96721394D01*
X173175394Y-97663000D01*
X152516106Y-97663000D01*
X151511000Y-96657894D01*
X151511000Y-94776660D01*
X166683000Y-94776660D01*
X166683000Y-95215340D01*
X166768582Y-95645592D01*
X166936458Y-96050880D01*
X167180176Y-96415630D01*
X167490370Y-96725824D01*
X167855120Y-96969542D01*
X168260408Y-97137418D01*
X168690660Y-97223000D01*
X169129340Y-97223000D01*
X169559592Y-97137418D01*
X169964880Y-96969542D01*
X170329630Y-96725824D01*
X170639824Y-96415630D01*
X170883542Y-96050880D01*
X171051418Y-95645592D01*
X171137000Y-95215340D01*
X171137000Y-94776660D01*
X171051418Y-94346408D01*
X170883542Y-93941120D01*
X170639824Y-93576370D01*
X170329630Y-93266176D01*
X169964880Y-93022458D01*
X169559592Y-92854582D01*
X169129340Y-92769000D01*
X168690660Y-92769000D01*
X168260408Y-92854582D01*
X167855120Y-93022458D01*
X167490370Y-93266176D01*
X167180176Y-93576370D01*
X166936458Y-93941120D01*
X166768582Y-94346408D01*
X166683000Y-94776660D01*
X151511000Y-94776660D01*
X151511000Y-93520029D01*
X151519664Y-93528693D01*
X151745851Y-93679826D01*
X151997177Y-93783929D01*
X152263983Y-93837000D01*
X152536017Y-93837000D01*
X152802823Y-93783929D01*
X153054149Y-93679826D01*
X153186468Y-93591413D01*
X153984192Y-93591413D01*
X154079956Y-93855814D01*
X154369571Y-93996704D01*
X154681108Y-94078384D01*
X155002595Y-94097718D01*
X155321675Y-94053961D01*
X155626088Y-93948795D01*
X155800044Y-93855814D01*
X155895808Y-93591413D01*
X154940000Y-92635605D01*
X153984192Y-93591413D01*
X153186468Y-93591413D01*
X153280336Y-93528693D01*
X153472693Y-93336336D01*
X153516216Y-93271199D01*
X153540186Y-93316044D01*
X153804587Y-93411808D01*
X154760395Y-92456000D01*
X155119605Y-92456000D01*
X156075413Y-93411808D01*
X156339814Y-93316044D01*
X156480704Y-93026429D01*
X156562384Y-92714892D01*
X156581718Y-92393405D01*
X156537961Y-92074325D01*
X156432795Y-91769912D01*
X156339814Y-91595956D01*
X156075413Y-91500192D01*
X155119605Y-92456000D01*
X154760395Y-92456000D01*
X153804587Y-91500192D01*
X153540186Y-91595956D01*
X153517463Y-91642667D01*
X153472693Y-91575664D01*
X153280336Y-91383307D01*
X153186469Y-91320587D01*
X153984192Y-91320587D01*
X154940000Y-92276395D01*
X155895808Y-91320587D01*
X155800044Y-91056186D01*
X155510429Y-90915296D01*
X155198892Y-90833616D01*
X154877405Y-90814282D01*
X154558325Y-90858039D01*
X154253912Y-90963205D01*
X154079956Y-91056186D01*
X153984192Y-91320587D01*
X153186469Y-91320587D01*
X153054149Y-91232174D01*
X152802823Y-91128071D01*
X152536017Y-91075000D01*
X152263983Y-91075000D01*
X151997177Y-91128071D01*
X151745851Y-91232174D01*
X151519664Y-91383307D01*
X151511000Y-91391971D01*
X151511000Y-90272890D01*
X171278524Y-90272890D01*
X171323175Y-90420099D01*
X171448359Y-90682920D01*
X171622412Y-90916269D01*
X171838645Y-91111178D01*
X172088748Y-91260157D01*
X172363109Y-91357481D01*
X172593000Y-91236814D01*
X172593000Y-90043000D01*
X171399845Y-90043000D01*
X171278524Y-90272890D01*
X151511000Y-90272890D01*
X151511000Y-84714757D01*
X171489000Y-84714757D01*
X171489000Y-84957243D01*
X171536307Y-85195069D01*
X171629102Y-85419097D01*
X171763820Y-85620717D01*
X171935283Y-85792180D01*
X172136903Y-85926898D01*
X172360931Y-86019693D01*
X172598757Y-86067000D01*
X172841243Y-86067000D01*
X173079069Y-86019693D01*
X173303097Y-85926898D01*
X173504717Y-85792180D01*
X173676180Y-85620717D01*
X173810898Y-85419097D01*
X173903693Y-85195069D01*
X173951000Y-84957243D01*
X173951000Y-84714757D01*
X173903693Y-84476931D01*
X173810898Y-84252903D01*
X173676180Y-84051283D01*
X173504717Y-83879820D01*
X173303097Y-83745102D01*
X173079069Y-83652307D01*
X172841243Y-83605000D01*
X172598757Y-83605000D01*
X172360931Y-83652307D01*
X172136903Y-83745102D01*
X171935283Y-83879820D01*
X171763820Y-84051283D01*
X171629102Y-84252903D01*
X171536307Y-84476931D01*
X171489000Y-84714757D01*
X151511000Y-84714757D01*
X151511000Y-82174757D01*
X171489000Y-82174757D01*
X171489000Y-82417243D01*
X171536307Y-82655069D01*
X171629102Y-82879097D01*
X171763820Y-83080717D01*
X171935283Y-83252180D01*
X172136903Y-83386898D01*
X172360931Y-83479693D01*
X172598757Y-83527000D01*
X172841243Y-83527000D01*
X173079069Y-83479693D01*
X173303097Y-83386898D01*
X173504717Y-83252180D01*
X173676180Y-83080717D01*
X173810898Y-82879097D01*
X173903693Y-82655069D01*
X173951000Y-82417243D01*
X173951000Y-82174757D01*
X173903693Y-81936931D01*
X173810898Y-81712903D01*
X173676180Y-81511283D01*
X173504717Y-81339820D01*
X173303097Y-81205102D01*
X173079069Y-81112307D01*
X172841243Y-81065000D01*
X172598757Y-81065000D01*
X172360931Y-81112307D01*
X172136903Y-81205102D01*
X171935283Y-81339820D01*
X171763820Y-81511283D01*
X171629102Y-81712903D01*
X171536307Y-81936931D01*
X171489000Y-82174757D01*
X151511000Y-82174757D01*
X151511000Y-78906000D01*
X171487157Y-78906000D01*
X171487157Y-80606000D01*
X171494513Y-80680689D01*
X171516299Y-80752508D01*
X171551678Y-80818696D01*
X171599289Y-80876711D01*
X171657304Y-80924322D01*
X171723492Y-80959701D01*
X171795311Y-80981487D01*
X171870000Y-80988843D01*
X173570000Y-80988843D01*
X173644689Y-80981487D01*
X173716508Y-80959701D01*
X173782696Y-80924322D01*
X173840711Y-80876711D01*
X173888322Y-80818696D01*
X173923701Y-80752508D01*
X173945487Y-80680689D01*
X173952843Y-80606000D01*
X173952843Y-78906000D01*
X173945487Y-78831311D01*
X173923701Y-78759492D01*
X173888322Y-78693304D01*
X173840711Y-78635289D01*
X173782696Y-78587678D01*
X173716508Y-78552299D01*
X173644689Y-78530513D01*
X173570000Y-78523157D01*
X171870000Y-78523157D01*
X171795311Y-78530513D01*
X171723492Y-78552299D01*
X171657304Y-78587678D01*
X171599289Y-78635289D01*
X171551678Y-78693304D01*
X171516299Y-78759492D01*
X171494513Y-78831311D01*
X171487157Y-78906000D01*
X151511000Y-78906000D01*
X151511000Y-74456660D01*
X166683000Y-74456660D01*
X166683000Y-74895340D01*
X166768582Y-75325592D01*
X166936458Y-75730880D01*
X167180176Y-76095630D01*
X167490370Y-76405824D01*
X167855120Y-76649542D01*
X168260408Y-76817418D01*
X168690660Y-76903000D01*
X169129340Y-76903000D01*
X169559592Y-76817418D01*
X169964880Y-76649542D01*
X170329630Y-76405824D01*
X170639824Y-76095630D01*
X170883542Y-75730880D01*
X171051418Y-75325592D01*
X171137000Y-74895340D01*
X171137000Y-74456660D01*
X171051418Y-74026408D01*
X170883542Y-73621120D01*
X170639824Y-73256370D01*
X170329630Y-72946176D01*
X169964880Y-72702458D01*
X169559592Y-72534582D01*
X169129340Y-72449000D01*
X168690660Y-72449000D01*
X168260408Y-72534582D01*
X167855120Y-72702458D01*
X167490370Y-72946176D01*
X167180176Y-73256370D01*
X166936458Y-73621120D01*
X166768582Y-74026408D01*
X166683000Y-74456660D01*
X151511000Y-74456660D01*
X151511000Y-73014106D01*
X152516106Y-72009000D01*
X173175394Y-72009000D01*
X174117000Y-72950606D01*
G37*
G04 #@! TD.AperFunction*
M02*
