G04 #@! TF.GenerationSoftware,KiCad,Pcbnew,5.1.12-84ad8e8a86~92~ubuntu16.04.1*
G04 #@! TF.CreationDate,2022-11-17T23:54:25+01:00*
G04 #@! TF.ProjectId,RS485-TTL,52533438-352d-4545-944c-2e6b69636164,rev?*
G04 #@! TF.SameCoordinates,Original*
G04 #@! TF.FileFunction,Legend,Bot*
G04 #@! TF.FilePolarity,Positive*
%FSLAX46Y46*%
G04 Gerber Fmt 4.6, Leading zero omitted, Abs format (unit mm)*
G04 Created by KiCad (PCBNEW 5.1.12-84ad8e8a86~92~ubuntu16.04.1) date 2022-11-17 23:54:25*
%MOMM*%
%LPD*%
G01*
G04 APERTURE LIST*
%ADD10C,0.100000*%
%ADD11C,0.200000*%
%ADD12C,2.800000*%
%ADD13O,1.700000X1.700000*%
%ADD14R,1.700000X1.700000*%
%ADD15C,2.000000*%
%ADD16C,3.200000*%
G04 APERTURE END LIST*
D10*
X165622476Y-94642142D02*
X165670095Y-94689761D01*
X165812952Y-94737380D01*
X165908190Y-94737380D01*
X166051047Y-94689761D01*
X166146285Y-94594523D01*
X166193904Y-94499285D01*
X166241523Y-94308809D01*
X166241523Y-94165952D01*
X166193904Y-93975476D01*
X166146285Y-93880238D01*
X166051047Y-93785000D01*
X165908190Y-93737380D01*
X165812952Y-93737380D01*
X165670095Y-93785000D01*
X165622476Y-93832619D01*
X165193904Y-94737380D02*
X165193904Y-94070714D01*
X165193904Y-94261190D02*
X165146285Y-94165952D01*
X165098666Y-94118333D01*
X165003428Y-94070714D01*
X164908190Y-94070714D01*
X164193904Y-94689761D02*
X164289142Y-94737380D01*
X164479619Y-94737380D01*
X164574857Y-94689761D01*
X164622476Y-94594523D01*
X164622476Y-94213571D01*
X164574857Y-94118333D01*
X164479619Y-94070714D01*
X164289142Y-94070714D01*
X164193904Y-94118333D01*
X164146285Y-94213571D01*
X164146285Y-94308809D01*
X164622476Y-94404047D01*
X163289142Y-94737380D02*
X163289142Y-94213571D01*
X163336761Y-94118333D01*
X163432000Y-94070714D01*
X163622476Y-94070714D01*
X163717714Y-94118333D01*
X163289142Y-94689761D02*
X163384380Y-94737380D01*
X163622476Y-94737380D01*
X163717714Y-94689761D01*
X163765333Y-94594523D01*
X163765333Y-94499285D01*
X163717714Y-94404047D01*
X163622476Y-94356428D01*
X163384380Y-94356428D01*
X163289142Y-94308809D01*
X162955809Y-94070714D02*
X162574857Y-94070714D01*
X162812952Y-93737380D02*
X162812952Y-94594523D01*
X162765333Y-94689761D01*
X162670095Y-94737380D01*
X162574857Y-94737380D01*
X161860571Y-94689761D02*
X161955809Y-94737380D01*
X162146285Y-94737380D01*
X162241523Y-94689761D01*
X162289142Y-94594523D01*
X162289142Y-94213571D01*
X162241523Y-94118333D01*
X162146285Y-94070714D01*
X161955809Y-94070714D01*
X161860571Y-94118333D01*
X161812952Y-94213571D01*
X161812952Y-94308809D01*
X162289142Y-94404047D01*
X160955809Y-94737380D02*
X160955809Y-93737380D01*
X160955809Y-94689761D02*
X161051047Y-94737380D01*
X161241523Y-94737380D01*
X161336761Y-94689761D01*
X161384380Y-94642142D01*
X161432000Y-94546904D01*
X161432000Y-94261190D01*
X161384380Y-94165952D01*
X161336761Y-94118333D01*
X161241523Y-94070714D01*
X161051047Y-94070714D01*
X160955809Y-94118333D01*
X159717714Y-94737380D02*
X159717714Y-93737380D01*
X159717714Y-94118333D02*
X159622476Y-94070714D01*
X159432000Y-94070714D01*
X159336761Y-94118333D01*
X159289142Y-94165952D01*
X159241523Y-94261190D01*
X159241523Y-94546904D01*
X159289142Y-94642142D01*
X159336761Y-94689761D01*
X159432000Y-94737380D01*
X159622476Y-94737380D01*
X159717714Y-94689761D01*
X158908190Y-94070714D02*
X158670095Y-94737380D01*
X158432000Y-94070714D02*
X158670095Y-94737380D01*
X158765333Y-94975476D01*
X158812952Y-95023095D01*
X158908190Y-95070714D01*
X158051047Y-94642142D02*
X158003428Y-94689761D01*
X158051047Y-94737380D01*
X158098666Y-94689761D01*
X158051047Y-94642142D01*
X158051047Y-94737380D01*
X158051047Y-94118333D02*
X158003428Y-94165952D01*
X158051047Y-94213571D01*
X158098666Y-94165952D01*
X158051047Y-94118333D01*
X158051047Y-94213571D01*
X156241523Y-94737380D02*
X156574857Y-94261190D01*
X156812952Y-94737380D02*
X156812952Y-93737380D01*
X156432000Y-93737380D01*
X156336761Y-93785000D01*
X156289142Y-93832619D01*
X156241523Y-93927857D01*
X156241523Y-94070714D01*
X156289142Y-94165952D01*
X156336761Y-94213571D01*
X156432000Y-94261190D01*
X156812952Y-94261190D01*
X155670095Y-94737380D02*
X155765333Y-94689761D01*
X155812952Y-94642142D01*
X155860571Y-94546904D01*
X155860571Y-94261190D01*
X155812952Y-94165952D01*
X155765333Y-94118333D01*
X155670095Y-94070714D01*
X155527238Y-94070714D01*
X155432000Y-94118333D01*
X155384380Y-94165952D01*
X155336761Y-94261190D01*
X155336761Y-94546904D01*
X155384380Y-94642142D01*
X155432000Y-94689761D01*
X155527238Y-94737380D01*
X155670095Y-94737380D01*
X154527238Y-94689761D02*
X154622476Y-94737380D01*
X154812952Y-94737380D01*
X154908190Y-94689761D01*
X154955809Y-94594523D01*
X154955809Y-94213571D01*
X154908190Y-94118333D01*
X154812952Y-94070714D01*
X154622476Y-94070714D01*
X154527238Y-94118333D01*
X154479619Y-94213571D01*
X154479619Y-94308809D01*
X154955809Y-94404047D01*
X153908190Y-94737380D02*
X154003428Y-94689761D01*
X154051047Y-94594523D01*
X154051047Y-93737380D01*
X152765333Y-94737380D02*
X152765333Y-93737380D01*
X152527238Y-93737380D01*
X152384380Y-93785000D01*
X152289142Y-93880238D01*
X152241523Y-93975476D01*
X152193904Y-94165952D01*
X152193904Y-94308809D01*
X152241523Y-94499285D01*
X152289142Y-94594523D01*
X152384380Y-94689761D01*
X152527238Y-94737380D01*
X152765333Y-94737380D01*
X151765333Y-94737380D02*
X151765333Y-94070714D01*
X151765333Y-94261190D02*
X151717714Y-94165952D01*
X151670095Y-94118333D01*
X151574857Y-94070714D01*
X151479619Y-94070714D01*
X151003428Y-94737380D02*
X151098666Y-94689761D01*
X151146285Y-94642142D01*
X151193904Y-94546904D01*
X151193904Y-94261190D01*
X151146285Y-94165952D01*
X151098666Y-94118333D01*
X151003428Y-94070714D01*
X150860571Y-94070714D01*
X150765333Y-94118333D01*
X150717714Y-94165952D01*
X150670095Y-94261190D01*
X150670095Y-94546904D01*
X150717714Y-94642142D01*
X150765333Y-94689761D01*
X150860571Y-94737380D01*
X151003428Y-94737380D01*
X150289142Y-94689761D02*
X150193904Y-94737380D01*
X150003428Y-94737380D01*
X149908190Y-94689761D01*
X149860571Y-94594523D01*
X149860571Y-94546904D01*
X149908190Y-94451666D01*
X150003428Y-94404047D01*
X150146285Y-94404047D01*
X150241523Y-94356428D01*
X150289142Y-94261190D01*
X150289142Y-94213571D01*
X150241523Y-94118333D01*
X150146285Y-94070714D01*
X150003428Y-94070714D01*
X149908190Y-94118333D01*
X149574857Y-94070714D02*
X149193904Y-94070714D01*
X149432000Y-93737380D02*
X149432000Y-94594523D01*
X149384380Y-94689761D01*
X149289142Y-94737380D01*
X149193904Y-94737380D01*
X165622476Y-96337380D02*
X165955809Y-95861190D01*
X166193904Y-96337380D02*
X166193904Y-95337380D01*
X165812952Y-95337380D01*
X165717714Y-95385000D01*
X165670095Y-95432619D01*
X165622476Y-95527857D01*
X165622476Y-95670714D01*
X165670095Y-95765952D01*
X165717714Y-95813571D01*
X165812952Y-95861190D01*
X166193904Y-95861190D01*
X164812952Y-96289761D02*
X164908190Y-96337380D01*
X165098666Y-96337380D01*
X165193904Y-96289761D01*
X165241523Y-96194523D01*
X165241523Y-95813571D01*
X165193904Y-95718333D01*
X165098666Y-95670714D01*
X164908190Y-95670714D01*
X164812952Y-95718333D01*
X164765333Y-95813571D01*
X164765333Y-95908809D01*
X165241523Y-96004047D01*
X164432000Y-95670714D02*
X164193904Y-96337380D01*
X163955809Y-95670714D01*
X163574857Y-96337380D02*
X163574857Y-95670714D01*
X163574857Y-95337380D02*
X163622476Y-95385000D01*
X163574857Y-95432619D01*
X163527238Y-95385000D01*
X163574857Y-95337380D01*
X163574857Y-95432619D01*
X163146285Y-96289761D02*
X163051047Y-96337380D01*
X162860571Y-96337380D01*
X162765333Y-96289761D01*
X162717714Y-96194523D01*
X162717714Y-96146904D01*
X162765333Y-96051666D01*
X162860571Y-96004047D01*
X163003428Y-96004047D01*
X163098666Y-95956428D01*
X163146285Y-95861190D01*
X163146285Y-95813571D01*
X163098666Y-95718333D01*
X163003428Y-95670714D01*
X162860571Y-95670714D01*
X162765333Y-95718333D01*
X162289142Y-96337380D02*
X162289142Y-95670714D01*
X162289142Y-95337380D02*
X162336761Y-95385000D01*
X162289142Y-95432619D01*
X162241523Y-95385000D01*
X162289142Y-95337380D01*
X162289142Y-95432619D01*
X161670095Y-96337380D02*
X161765333Y-96289761D01*
X161812952Y-96242142D01*
X161860571Y-96146904D01*
X161860571Y-95861190D01*
X161812952Y-95765952D01*
X161765333Y-95718333D01*
X161670095Y-95670714D01*
X161527238Y-95670714D01*
X161431999Y-95718333D01*
X161384380Y-95765952D01*
X161336761Y-95861190D01*
X161336761Y-96146904D01*
X161384380Y-96242142D01*
X161431999Y-96289761D01*
X161527238Y-96337380D01*
X161670095Y-96337380D01*
X160908190Y-95670714D02*
X160908190Y-96337380D01*
X160908190Y-95765952D02*
X160860571Y-95718333D01*
X160765333Y-95670714D01*
X160622476Y-95670714D01*
X160527238Y-95718333D01*
X160479619Y-95813571D01*
X160479619Y-96337380D01*
X160003428Y-96242142D02*
X159955809Y-96289761D01*
X160003428Y-96337380D01*
X160051047Y-96289761D01*
X160003428Y-96242142D01*
X160003428Y-96337380D01*
X160003428Y-95718333D02*
X159955809Y-95765952D01*
X160003428Y-95813571D01*
X160051047Y-95765952D01*
X160003428Y-95718333D01*
X160003428Y-95813571D01*
X158860571Y-95670714D02*
X158622476Y-96337380D01*
X158384380Y-95670714D01*
X157479619Y-96337380D02*
X158051047Y-96337380D01*
X157765333Y-96337380D02*
X157765333Y-95337380D01*
X157860571Y-95480238D01*
X157955809Y-95575476D01*
X158051047Y-95623095D01*
X157051047Y-96242142D02*
X157003428Y-96289761D01*
X157051047Y-96337380D01*
X157098666Y-96289761D01*
X157051047Y-96242142D01*
X157051047Y-96337380D01*
X156384380Y-95337380D02*
X156289142Y-95337380D01*
X156193904Y-95385000D01*
X156146285Y-95432619D01*
X156098666Y-95527857D01*
X156051047Y-95718333D01*
X156051047Y-95956428D01*
X156098666Y-96146904D01*
X156146285Y-96242142D01*
X156193904Y-96289761D01*
X156289142Y-96337380D01*
X156384380Y-96337380D01*
X156479619Y-96289761D01*
X156527238Y-96242142D01*
X156574857Y-96146904D01*
X156622476Y-95956428D01*
X156622476Y-95718333D01*
X156574857Y-95527857D01*
X156527238Y-95432619D01*
X156479619Y-95385000D01*
X156384380Y-95337380D01*
X154574857Y-96718333D02*
X154622476Y-96670714D01*
X154717714Y-96527857D01*
X154765333Y-96432619D01*
X154812952Y-96289761D01*
X154860571Y-96051666D01*
X154860571Y-95861190D01*
X154812952Y-95623095D01*
X154765333Y-95480238D01*
X154717714Y-95385000D01*
X154622476Y-95242142D01*
X154574857Y-95194523D01*
X154241523Y-95432619D02*
X154193904Y-95385000D01*
X154098666Y-95337380D01*
X153860571Y-95337380D01*
X153765333Y-95385000D01*
X153717714Y-95432619D01*
X153670095Y-95527857D01*
X153670095Y-95623095D01*
X153717714Y-95765952D01*
X154289142Y-96337380D01*
X153670095Y-96337380D01*
X153051047Y-95337380D02*
X152955809Y-95337380D01*
X152860571Y-95385000D01*
X152812952Y-95432619D01*
X152765333Y-95527857D01*
X152717714Y-95718333D01*
X152717714Y-95956428D01*
X152765333Y-96146904D01*
X152812952Y-96242142D01*
X152860571Y-96289761D01*
X152955809Y-96337380D01*
X153051047Y-96337380D01*
X153146285Y-96289761D01*
X153193904Y-96242142D01*
X153241523Y-96146904D01*
X153289142Y-95956428D01*
X153289142Y-95718333D01*
X153241523Y-95527857D01*
X153193904Y-95432619D01*
X153146285Y-95385000D01*
X153051047Y-95337380D01*
X152336761Y-95432619D02*
X152289142Y-95385000D01*
X152193904Y-95337380D01*
X151955809Y-95337380D01*
X151860571Y-95385000D01*
X151812952Y-95432619D01*
X151765333Y-95527857D01*
X151765333Y-95623095D01*
X151812952Y-95765952D01*
X152384380Y-96337380D01*
X151765333Y-96337380D01*
X151384380Y-95432619D02*
X151336761Y-95385000D01*
X151241523Y-95337380D01*
X151003428Y-95337380D01*
X150908190Y-95385000D01*
X150860571Y-95432619D01*
X150812952Y-95527857D01*
X150812952Y-95623095D01*
X150860571Y-95765952D01*
X151432000Y-96337380D01*
X150812952Y-96337380D01*
X150384380Y-95956428D02*
X149622476Y-95956428D01*
X148622476Y-96337380D02*
X149193904Y-96337380D01*
X148908190Y-96337380D02*
X148908190Y-95337380D01*
X149003428Y-95480238D01*
X149098666Y-95575476D01*
X149193904Y-95623095D01*
X147670095Y-96337380D02*
X148241523Y-96337380D01*
X147955809Y-96337380D02*
X147955809Y-95337380D01*
X148051047Y-95480238D01*
X148146285Y-95575476D01*
X148241523Y-95623095D01*
X147241523Y-95956428D02*
X146479619Y-95956428D01*
X145479619Y-96337380D02*
X146051047Y-96337380D01*
X145765333Y-96337380D02*
X145765333Y-95337380D01*
X145860571Y-95480238D01*
X145955809Y-95575476D01*
X146051047Y-95623095D01*
X145146285Y-95337380D02*
X144479619Y-95337380D01*
X144908190Y-96337380D01*
X144193904Y-96718333D02*
X144146285Y-96670714D01*
X144051047Y-96527857D01*
X144003428Y-96432619D01*
X143955809Y-96289761D01*
X143908190Y-96051666D01*
X143908190Y-95861190D01*
X143955809Y-95623095D01*
X144003428Y-95480238D01*
X144051047Y-95385000D01*
X144146285Y-95242142D01*
X144193904Y-95194523D01*
X166193904Y-97937380D02*
X166193904Y-96937380D01*
X165765333Y-97937380D02*
X165765333Y-97413571D01*
X165812952Y-97318333D01*
X165908190Y-97270714D01*
X166051047Y-97270714D01*
X166146285Y-97318333D01*
X166193904Y-97365952D01*
X165432000Y-97270714D02*
X165051047Y-97270714D01*
X165289142Y-96937380D02*
X165289142Y-97794523D01*
X165241523Y-97889761D01*
X165146285Y-97937380D01*
X165051047Y-97937380D01*
X164860571Y-97270714D02*
X164479619Y-97270714D01*
X164717714Y-96937380D02*
X164717714Y-97794523D01*
X164670095Y-97889761D01*
X164574857Y-97937380D01*
X164479619Y-97937380D01*
X164146285Y-97270714D02*
X164146285Y-98270714D01*
X164146285Y-97318333D02*
X164051047Y-97270714D01*
X163860571Y-97270714D01*
X163765333Y-97318333D01*
X163717714Y-97365952D01*
X163670095Y-97461190D01*
X163670095Y-97746904D01*
X163717714Y-97842142D01*
X163765333Y-97889761D01*
X163860571Y-97937380D01*
X164051047Y-97937380D01*
X164146285Y-97889761D01*
X163241523Y-97842142D02*
X163193904Y-97889761D01*
X163241523Y-97937380D01*
X163289142Y-97889761D01*
X163241523Y-97842142D01*
X163241523Y-97937380D01*
X163241523Y-97318333D02*
X163193904Y-97365952D01*
X163241523Y-97413571D01*
X163289142Y-97365952D01*
X163241523Y-97318333D01*
X163241523Y-97413571D01*
X162051047Y-96889761D02*
X162908190Y-98175476D01*
X161003428Y-96889761D02*
X161860571Y-98175476D01*
X160241523Y-97270714D02*
X160241523Y-98080238D01*
X160289142Y-98175476D01*
X160336761Y-98223095D01*
X160432000Y-98270714D01*
X160574857Y-98270714D01*
X160670095Y-98223095D01*
X160241523Y-97889761D02*
X160336761Y-97937380D01*
X160527238Y-97937380D01*
X160622476Y-97889761D01*
X160670095Y-97842142D01*
X160717714Y-97746904D01*
X160717714Y-97461190D01*
X160670095Y-97365952D01*
X160622476Y-97318333D01*
X160527238Y-97270714D01*
X160336761Y-97270714D01*
X160241523Y-97318333D01*
X159765333Y-97937380D02*
X159765333Y-97270714D01*
X159765333Y-96937380D02*
X159812952Y-96985000D01*
X159765333Y-97032619D01*
X159717714Y-96985000D01*
X159765333Y-96937380D01*
X159765333Y-97032619D01*
X159432000Y-97270714D02*
X159051047Y-97270714D01*
X159289142Y-96937380D02*
X159289142Y-97794523D01*
X159241523Y-97889761D01*
X159146285Y-97937380D01*
X159051047Y-97937380D01*
X158717714Y-97937380D02*
X158717714Y-96937380D01*
X158289142Y-97937380D02*
X158289142Y-97413571D01*
X158336761Y-97318333D01*
X158432000Y-97270714D01*
X158574857Y-97270714D01*
X158670095Y-97318333D01*
X158717714Y-97365952D01*
X157384380Y-97270714D02*
X157384380Y-97937380D01*
X157812952Y-97270714D02*
X157812952Y-97794523D01*
X157765333Y-97889761D01*
X157670095Y-97937380D01*
X157527238Y-97937380D01*
X157432000Y-97889761D01*
X157384380Y-97842142D01*
X156908190Y-97937380D02*
X156908190Y-96937380D01*
X156908190Y-97318333D02*
X156812952Y-97270714D01*
X156622476Y-97270714D01*
X156527238Y-97318333D01*
X156479619Y-97365952D01*
X156432000Y-97461190D01*
X156432000Y-97746904D01*
X156479619Y-97842142D01*
X156527238Y-97889761D01*
X156622476Y-97937380D01*
X156812952Y-97937380D01*
X156908190Y-97889761D01*
X156003428Y-97842142D02*
X155955809Y-97889761D01*
X156003428Y-97937380D01*
X156051047Y-97889761D01*
X156003428Y-97842142D01*
X156003428Y-97937380D01*
X155098666Y-97889761D02*
X155193904Y-97937380D01*
X155384380Y-97937380D01*
X155479619Y-97889761D01*
X155527238Y-97842142D01*
X155574857Y-97746904D01*
X155574857Y-97461190D01*
X155527238Y-97365952D01*
X155479619Y-97318333D01*
X155384380Y-97270714D01*
X155193904Y-97270714D01*
X155098666Y-97318333D01*
X154527238Y-97937380D02*
X154622476Y-97889761D01*
X154670095Y-97842142D01*
X154717714Y-97746904D01*
X154717714Y-97461190D01*
X154670095Y-97365952D01*
X154622476Y-97318333D01*
X154527238Y-97270714D01*
X154384380Y-97270714D01*
X154289142Y-97318333D01*
X154241523Y-97365952D01*
X154193904Y-97461190D01*
X154193904Y-97746904D01*
X154241523Y-97842142D01*
X154289142Y-97889761D01*
X154384380Y-97937380D01*
X154527238Y-97937380D01*
X153765333Y-97937380D02*
X153765333Y-97270714D01*
X153765333Y-97365952D02*
X153717714Y-97318333D01*
X153622476Y-97270714D01*
X153479619Y-97270714D01*
X153384380Y-97318333D01*
X153336761Y-97413571D01*
X153336761Y-97937380D01*
X153336761Y-97413571D02*
X153289142Y-97318333D01*
X153193904Y-97270714D01*
X153051047Y-97270714D01*
X152955809Y-97318333D01*
X152908190Y-97413571D01*
X152908190Y-97937380D01*
X151717714Y-96889761D02*
X152574857Y-98175476D01*
X150812952Y-97937380D02*
X151146285Y-97461190D01*
X151384380Y-97937380D02*
X151384380Y-96937380D01*
X151003428Y-96937380D01*
X150908190Y-96985000D01*
X150860571Y-97032619D01*
X150812952Y-97127857D01*
X150812952Y-97270714D01*
X150860571Y-97365952D01*
X150908190Y-97413571D01*
X151003428Y-97461190D01*
X151384380Y-97461190D01*
X150241523Y-97937380D02*
X150336761Y-97889761D01*
X150384380Y-97842142D01*
X150432000Y-97746904D01*
X150432000Y-97461190D01*
X150384380Y-97365952D01*
X150336761Y-97318333D01*
X150241523Y-97270714D01*
X150098666Y-97270714D01*
X150003428Y-97318333D01*
X149955809Y-97365952D01*
X149908190Y-97461190D01*
X149908190Y-97746904D01*
X149955809Y-97842142D01*
X150003428Y-97889761D01*
X150098666Y-97937380D01*
X150241523Y-97937380D01*
X149098666Y-97889761D02*
X149193904Y-97937380D01*
X149384380Y-97937380D01*
X149479619Y-97889761D01*
X149527238Y-97794523D01*
X149527238Y-97413571D01*
X149479619Y-97318333D01*
X149384380Y-97270714D01*
X149193904Y-97270714D01*
X149098666Y-97318333D01*
X149051047Y-97413571D01*
X149051047Y-97508809D01*
X149527238Y-97604047D01*
X148479619Y-97937380D02*
X148574857Y-97889761D01*
X148622476Y-97794523D01*
X148622476Y-96937380D01*
X147574857Y-97937380D02*
X148146285Y-97937380D01*
X147860571Y-97937380D02*
X147860571Y-96937380D01*
X147955809Y-97080238D01*
X148051047Y-97175476D01*
X148146285Y-97223095D01*
X147098666Y-97937380D02*
X146908190Y-97937380D01*
X146812952Y-97889761D01*
X146765333Y-97842142D01*
X146670095Y-97699285D01*
X146622476Y-97508809D01*
X146622476Y-97127857D01*
X146670095Y-97032619D01*
X146717714Y-96985000D01*
X146812952Y-96937380D01*
X147003428Y-96937380D01*
X147098666Y-96985000D01*
X147146285Y-97032619D01*
X147193904Y-97127857D01*
X147193904Y-97365952D01*
X147146285Y-97461190D01*
X147098666Y-97508809D01*
X147003428Y-97556428D01*
X146812952Y-97556428D01*
X146717714Y-97508809D01*
X146670095Y-97461190D01*
X146622476Y-97365952D01*
X146051047Y-97365952D02*
X146146285Y-97318333D01*
X146193904Y-97270714D01*
X146241523Y-97175476D01*
X146241523Y-97127857D01*
X146193904Y-97032619D01*
X146146285Y-96985000D01*
X146051047Y-96937380D01*
X145860571Y-96937380D01*
X145765333Y-96985000D01*
X145717714Y-97032619D01*
X145670095Y-97127857D01*
X145670095Y-97175476D01*
X145717714Y-97270714D01*
X145765333Y-97318333D01*
X145860571Y-97365952D01*
X146051047Y-97365952D01*
X146146285Y-97413571D01*
X146193904Y-97461190D01*
X146241523Y-97556428D01*
X146241523Y-97746904D01*
X146193904Y-97842142D01*
X146146285Y-97889761D01*
X146051047Y-97937380D01*
X145860571Y-97937380D01*
X145765333Y-97889761D01*
X145717714Y-97842142D01*
X145670095Y-97746904D01*
X145670095Y-97556428D01*
X145717714Y-97461190D01*
X145765333Y-97413571D01*
X145860571Y-97365952D01*
X145336761Y-96937380D02*
X144717714Y-96937380D01*
X145051047Y-97318333D01*
X144908190Y-97318333D01*
X144812952Y-97365952D01*
X144765333Y-97413571D01*
X144717714Y-97508809D01*
X144717714Y-97746904D01*
X144765333Y-97842142D01*
X144812952Y-97889761D01*
X144908190Y-97937380D01*
X145193904Y-97937380D01*
X145289142Y-97889761D01*
X145336761Y-97842142D01*
X144289142Y-97842142D02*
X144241523Y-97889761D01*
X144289142Y-97937380D01*
X144336761Y-97889761D01*
X144289142Y-97842142D01*
X144289142Y-97937380D01*
X143241523Y-97937380D02*
X143574857Y-97461190D01*
X143812952Y-97937380D02*
X143812952Y-96937380D01*
X143432000Y-96937380D01*
X143336761Y-96985000D01*
X143289142Y-97032619D01*
X143241523Y-97127857D01*
X143241523Y-97270714D01*
X143289142Y-97365952D01*
X143336761Y-97413571D01*
X143432000Y-97461190D01*
X143812952Y-97461190D01*
X142289142Y-96985000D02*
X142384380Y-96937380D01*
X142527238Y-96937380D01*
X142670095Y-96985000D01*
X142765333Y-97080238D01*
X142812952Y-97175476D01*
X142860571Y-97365952D01*
X142860571Y-97508809D01*
X142812952Y-97699285D01*
X142765333Y-97794523D01*
X142670095Y-97889761D01*
X142527238Y-97937380D01*
X142432000Y-97937380D01*
X142289142Y-97889761D01*
X142241523Y-97842142D01*
X142241523Y-97508809D01*
X142432000Y-97508809D01*
X141479619Y-97413571D02*
X141336761Y-97461190D01*
X141289142Y-97508809D01*
X141241523Y-97604047D01*
X141241523Y-97746904D01*
X141289142Y-97842142D01*
X141336761Y-97889761D01*
X141432000Y-97937380D01*
X141812952Y-97937380D01*
X141812952Y-96937380D01*
X141479619Y-96937380D01*
X141384380Y-96985000D01*
X141336761Y-97032619D01*
X141289142Y-97127857D01*
X141289142Y-97223095D01*
X141336761Y-97318333D01*
X141384380Y-97365952D01*
X141479619Y-97413571D01*
X141812952Y-97413571D01*
X140908190Y-96937380D02*
X140670095Y-97937380D01*
X140479619Y-97223095D01*
X140289142Y-97937380D01*
X140051047Y-96937380D01*
X139670095Y-97556428D02*
X138908190Y-97556428D01*
X138098666Y-97413571D02*
X137955809Y-97461190D01*
X137908190Y-97508809D01*
X137860571Y-97604047D01*
X137860571Y-97746904D01*
X137908190Y-97842142D01*
X137955809Y-97889761D01*
X138051047Y-97937380D01*
X138432000Y-97937380D01*
X138432000Y-96937380D01*
X138098666Y-96937380D01*
X138003428Y-96985000D01*
X137955809Y-97032619D01*
X137908190Y-97127857D01*
X137908190Y-97223095D01*
X137955809Y-97318333D01*
X138003428Y-97365952D01*
X138098666Y-97413571D01*
X138432000Y-97413571D01*
X137003428Y-97937380D02*
X137003428Y-97413571D01*
X137051047Y-97318333D01*
X137146285Y-97270714D01*
X137336761Y-97270714D01*
X137432000Y-97318333D01*
X137003428Y-97889761D02*
X137098666Y-97937380D01*
X137336761Y-97937380D01*
X137432000Y-97889761D01*
X137479619Y-97794523D01*
X137479619Y-97699285D01*
X137432000Y-97604047D01*
X137336761Y-97556428D01*
X137098666Y-97556428D01*
X137003428Y-97508809D01*
X136527238Y-97937380D02*
X136527238Y-97270714D01*
X136527238Y-97461190D02*
X136479619Y-97365952D01*
X136432000Y-97318333D01*
X136336761Y-97270714D01*
X136241523Y-97270714D01*
D11*
X165587142Y-74964857D02*
X165587142Y-73764857D01*
X165587142Y-74336285D02*
X164901428Y-74336285D01*
X164901428Y-74964857D02*
X164901428Y-73764857D01*
X163815714Y-74964857D02*
X163815714Y-74336285D01*
X163872857Y-74222000D01*
X163987142Y-74164857D01*
X164215714Y-74164857D01*
X164330000Y-74222000D01*
X163815714Y-74907714D02*
X163930000Y-74964857D01*
X164215714Y-74964857D01*
X164330000Y-74907714D01*
X164387142Y-74793428D01*
X164387142Y-74679142D01*
X164330000Y-74564857D01*
X164215714Y-74507714D01*
X163930000Y-74507714D01*
X163815714Y-74450571D01*
X163072857Y-74964857D02*
X163187142Y-74907714D01*
X163244285Y-74793428D01*
X163244285Y-73764857D01*
X162787142Y-74164857D02*
X162330000Y-74164857D01*
X162615714Y-74964857D02*
X162615714Y-73936285D01*
X162558571Y-73822000D01*
X162444285Y-73764857D01*
X162330000Y-73764857D01*
X160501428Y-74964857D02*
X160501428Y-73764857D01*
X160501428Y-74907714D02*
X160615714Y-74964857D01*
X160844285Y-74964857D01*
X160958571Y-74907714D01*
X161015714Y-74850571D01*
X161072857Y-74736285D01*
X161072857Y-74393428D01*
X161015714Y-74279142D01*
X160958571Y-74222000D01*
X160844285Y-74164857D01*
X160615714Y-74164857D01*
X160501428Y-74222000D01*
X159415714Y-74164857D02*
X159415714Y-74964857D01*
X159930000Y-74164857D02*
X159930000Y-74793428D01*
X159872857Y-74907714D01*
X159758571Y-74964857D01*
X159587142Y-74964857D01*
X159472857Y-74907714D01*
X159415714Y-74850571D01*
X158844285Y-74164857D02*
X158844285Y-75364857D01*
X158844285Y-74222000D02*
X158730000Y-74164857D01*
X158501428Y-74164857D01*
X158387142Y-74222000D01*
X158330000Y-74279142D01*
X158272857Y-74393428D01*
X158272857Y-74736285D01*
X158330000Y-74850571D01*
X158387142Y-74907714D01*
X158501428Y-74964857D01*
X158730000Y-74964857D01*
X158844285Y-74907714D01*
X157587142Y-74964857D02*
X157701428Y-74907714D01*
X157758571Y-74793428D01*
X157758571Y-73764857D01*
X156672857Y-74907714D02*
X156787142Y-74964857D01*
X157015714Y-74964857D01*
X157130000Y-74907714D01*
X157187142Y-74793428D01*
X157187142Y-74336285D01*
X157130000Y-74222000D01*
X157015714Y-74164857D01*
X156787142Y-74164857D01*
X156672857Y-74222000D01*
X156615714Y-74336285D01*
X156615714Y-74450571D01*
X157187142Y-74564857D01*
X156215714Y-74964857D02*
X155587142Y-74164857D01*
X156215714Y-74164857D02*
X155587142Y-74964857D01*
X154215714Y-74964857D02*
X154215714Y-73764857D01*
X153701428Y-74907714D02*
X153587142Y-74964857D01*
X153358571Y-74964857D01*
X153244285Y-74907714D01*
X153187142Y-74793428D01*
X153187142Y-74736285D01*
X153244285Y-74622000D01*
X153358571Y-74564857D01*
X153530000Y-74564857D01*
X153644285Y-74507714D01*
X153701428Y-74393428D01*
X153701428Y-74336285D01*
X153644285Y-74222000D01*
X153530000Y-74164857D01*
X153358571Y-74164857D01*
X153244285Y-74222000D01*
X152501428Y-74964857D02*
X152615714Y-74907714D01*
X152672857Y-74850571D01*
X152730000Y-74736285D01*
X152730000Y-74393428D01*
X152672857Y-74279142D01*
X152615714Y-74222000D01*
X152501428Y-74164857D01*
X152330000Y-74164857D01*
X152215714Y-74222000D01*
X152158571Y-74279142D01*
X152101428Y-74393428D01*
X152101428Y-74736285D01*
X152158571Y-74850571D01*
X152215714Y-74907714D01*
X152330000Y-74964857D01*
X152501428Y-74964857D01*
X151415714Y-74964857D02*
X151530000Y-74907714D01*
X151587142Y-74793428D01*
X151587142Y-73764857D01*
X150444285Y-74964857D02*
X150444285Y-74336285D01*
X150501428Y-74222000D01*
X150615714Y-74164857D01*
X150844285Y-74164857D01*
X150958571Y-74222000D01*
X150444285Y-74907714D02*
X150558571Y-74964857D01*
X150844285Y-74964857D01*
X150958571Y-74907714D01*
X151015714Y-74793428D01*
X151015714Y-74679142D01*
X150958571Y-74564857D01*
X150844285Y-74507714D01*
X150558571Y-74507714D01*
X150444285Y-74450571D01*
X150044285Y-74164857D02*
X149587142Y-74164857D01*
X149872857Y-73764857D02*
X149872857Y-74793428D01*
X149815714Y-74907714D01*
X149701428Y-74964857D01*
X149587142Y-74964857D01*
X148730000Y-74907714D02*
X148844285Y-74964857D01*
X149072857Y-74964857D01*
X149187142Y-74907714D01*
X149244285Y-74793428D01*
X149244285Y-74336285D01*
X149187142Y-74222000D01*
X149072857Y-74164857D01*
X148844285Y-74164857D01*
X148730000Y-74222000D01*
X148672857Y-74336285D01*
X148672857Y-74450571D01*
X149244285Y-74564857D01*
X147644285Y-74964857D02*
X147644285Y-73764857D01*
X147644285Y-74907714D02*
X147758571Y-74964857D01*
X147987142Y-74964857D01*
X148101428Y-74907714D01*
X148158571Y-74850571D01*
X148215714Y-74736285D01*
X148215714Y-74393428D01*
X148158571Y-74279142D01*
X148101428Y-74222000D01*
X147987142Y-74164857D01*
X147758571Y-74164857D01*
X147644285Y-74222000D01*
X145472857Y-74964857D02*
X145872857Y-74393428D01*
X146158571Y-74964857D02*
X146158571Y-73764857D01*
X145701428Y-73764857D01*
X145587142Y-73822000D01*
X145530000Y-73879142D01*
X145472857Y-73993428D01*
X145472857Y-74164857D01*
X145530000Y-74279142D01*
X145587142Y-74336285D01*
X145701428Y-74393428D01*
X146158571Y-74393428D01*
X145015714Y-74907714D02*
X144844285Y-74964857D01*
X144558571Y-74964857D01*
X144444285Y-74907714D01*
X144387142Y-74850571D01*
X144330000Y-74736285D01*
X144330000Y-74622000D01*
X144387142Y-74507714D01*
X144444285Y-74450571D01*
X144558571Y-74393428D01*
X144787142Y-74336285D01*
X144901428Y-74279142D01*
X144958571Y-74222000D01*
X145015714Y-74107714D01*
X145015714Y-73993428D01*
X144958571Y-73879142D01*
X144901428Y-73822000D01*
X144787142Y-73764857D01*
X144501428Y-73764857D01*
X144330000Y-73822000D01*
X143301428Y-74164857D02*
X143301428Y-74964857D01*
X143587142Y-73707714D02*
X143872857Y-74564857D01*
X143130000Y-74564857D01*
X142501428Y-74279142D02*
X142615714Y-74222000D01*
X142672857Y-74164857D01*
X142730000Y-74050571D01*
X142730000Y-73993428D01*
X142672857Y-73879142D01*
X142615714Y-73822000D01*
X142501428Y-73764857D01*
X142272857Y-73764857D01*
X142158571Y-73822000D01*
X142101428Y-73879142D01*
X142044285Y-73993428D01*
X142044285Y-74050571D01*
X142101428Y-74164857D01*
X142158571Y-74222000D01*
X142272857Y-74279142D01*
X142501428Y-74279142D01*
X142615714Y-74336285D01*
X142672857Y-74393428D01*
X142730000Y-74507714D01*
X142730000Y-74736285D01*
X142672857Y-74850571D01*
X142615714Y-74907714D01*
X142501428Y-74964857D01*
X142272857Y-74964857D01*
X142158571Y-74907714D01*
X142101428Y-74850571D01*
X142044285Y-74736285D01*
X142044285Y-74507714D01*
X142101428Y-74393428D01*
X142158571Y-74336285D01*
X142272857Y-74279142D01*
X140958571Y-73764857D02*
X141530000Y-73764857D01*
X141587142Y-74336285D01*
X141530000Y-74279142D01*
X141415714Y-74222000D01*
X141130000Y-74222000D01*
X141015714Y-74279142D01*
X140958571Y-74336285D01*
X140901428Y-74450571D01*
X140901428Y-74736285D01*
X140958571Y-74850571D01*
X141015714Y-74907714D01*
X141130000Y-74964857D01*
X141415714Y-74964857D01*
X141530000Y-74907714D01*
X141587142Y-74850571D01*
X140387142Y-74507714D02*
X139472857Y-74507714D01*
X139072857Y-73764857D02*
X138387142Y-73764857D01*
X138730000Y-74964857D02*
X138730000Y-73764857D01*
X138158571Y-73764857D02*
X137472857Y-73764857D01*
X137815714Y-74964857D02*
X137815714Y-73764857D01*
X136501428Y-74964857D02*
X137072857Y-74964857D01*
X137072857Y-73764857D01*
%LPC*%
D12*
X133350000Y-88392000D03*
X133350000Y-84892000D03*
X133350000Y-81392000D03*
D13*
X138557000Y-87884000D03*
D14*
X138557000Y-90424000D03*
D15*
X154940000Y-92456000D03*
X152400000Y-92456000D03*
X149860000Y-92456000D03*
X147320000Y-92456000D03*
D16*
X133350000Y-74676000D03*
X168910000Y-74676000D03*
X133350000Y-94996000D03*
X168910000Y-94996000D03*
D14*
X172720000Y-79756000D03*
D13*
X172720000Y-82296000D03*
X172720000Y-84836000D03*
X172720000Y-87376000D03*
X172720000Y-89916000D03*
D14*
X138557000Y-82042000D03*
D13*
X138557000Y-79502000D03*
M02*
