M48
; DRILL file {KiCad 5.1.12-84ad8e8a86~92~ubuntu16.04.1} date do 17 nov 2022 23:54:39 CET
; FORMAT={-:-/ absolute / metric / decimal}
; #@! TF.CreationDate,2022-11-17T23:54:39+01:00
; #@! TF.GenerationSoftware,Kicad,Pcbnew,5.1.12-84ad8e8a86~92~ubuntu16.04.1
; #@! TF.FileFunction,Plated,1,2,PTH
FMAT,2
METRIC
T1C0.400
T2C1.000
T3C1.300
%
G90
G05
T1
X129.032Y-72.898
X129.032Y-84.899
X129.032Y-96.774
X136.207Y-80.518
X136.207Y-83.566
X136.357Y-86.519
X137.541Y-75.374
X139.954Y-72.898
X140.589Y-87.757
X140.716Y-96.774
X140.97Y-82.177
X141.732Y-79.502
X143.129Y-86.042
X145.288Y-92.456
X148.717Y-79.883
X148.717Y-86.233
X149.86Y-72.898
X149.86Y-96.774
X151.892Y-83.058
X151.892Y-88.011
X152.4Y-72.898
X152.4Y-96.774
X154.559Y-87.63
X157.734Y-79.248
X157.988Y-86.106
X157.988Y-87.757
X162.179Y-79.756
X163.195Y-72.898
X163.195Y-89.916
X163.195Y-96.774
X167.894Y-82.296
X167.894Y-84.836
X167.894Y-87.376
X173.228Y-72.898
X173.228Y-96.774
T2
X138.557Y-79.502
X138.557Y-82.042
X138.557Y-87.884
X138.557Y-90.424
X147.32Y-92.456
X149.86Y-92.456
X152.4Y-92.456
X154.94Y-92.456
X172.72Y-79.756
X172.72Y-82.296
X172.72Y-84.836
X172.72Y-87.376
X172.72Y-89.916
T3
X133.35Y-81.392
X133.35Y-84.892
X133.35Y-88.392
T0
M30
