G04 #@! TF.GenerationSoftware,KiCad,Pcbnew,5.1.12-84ad8e8a86~92~ubuntu16.04.1*
G04 #@! TF.CreationDate,2022-11-17T21:27:21+01:00*
G04 #@! TF.ProjectId,LedBar,4c656442-6172-42e6-9b69-6361645f7063,rev?*
G04 #@! TF.SameCoordinates,Original*
G04 #@! TF.FileFunction,Legend,Top*
G04 #@! TF.FilePolarity,Positive*
%FSLAX46Y46*%
G04 Gerber Fmt 4.6, Leading zero omitted, Abs format (unit mm)*
G04 Created by KiCad (PCBNEW 5.1.12-84ad8e8a86~92~ubuntu16.04.1) date 2022-11-17 21:27:21*
%MOMM*%
%LPD*%
G01*
G04 APERTURE LIST*
%ADD10C,0.200000*%
%ADD11C,0.150000*%
%ADD12C,0.120000*%
%ADD13C,0.240000*%
%ADD14C,0.250000*%
%ADD15C,0.100000*%
%ADD16C,0.130000*%
%ADD17O,1.350000X1.350000*%
%ADD18R,1.350000X1.350000*%
%ADD19O,4.050000X1.400000*%
%ADD20R,4.050000X1.400000*%
%ADD21C,3.200000*%
%ADD22C,2.000000*%
%ADD23C,0.800000*%
%ADD24R,1.070000X4.413000*%
%ADD25O,1.000000X1.000000*%
%ADD26R,1.000000X1.000000*%
%ADD27C,2.800000*%
%ADD28R,2.032000X1.070000*%
%ADD29C,4.300000*%
%ADD30C,3.000000*%
%ADD31C,1.500000*%
%ADD32R,1.500000X1.500000*%
%ADD33O,1.700000X1.700000*%
%ADD34R,1.700000X1.700000*%
%ADD35R,2.000000X2.000000*%
%ADD36C,1.800000*%
%ADD37R,1.800000X1.800000*%
%ADD38O,1.600000X1.600000*%
%ADD39R,1.600000X1.600000*%
%ADD40C,1.000000*%
%ADD41C,10.200000*%
%ADD42R,5.100000X2.500000*%
%ADD43R,4.050000X1.500000*%
%ADD44O,4.050000X1.500000*%
G04 APERTURE END LIST*
D10*
X145367142Y-72334428D02*
X145224285Y-72286809D01*
X145176666Y-72239190D01*
X145129047Y-72143952D01*
X145129047Y-72001095D01*
X145176666Y-71905857D01*
X145224285Y-71858238D01*
X145319523Y-71810619D01*
X145700476Y-71810619D01*
X145700476Y-72810619D01*
X145367142Y-72810619D01*
X145271904Y-72763000D01*
X145224285Y-72715380D01*
X145176666Y-72620142D01*
X145176666Y-72524904D01*
X145224285Y-72429666D01*
X145271904Y-72382047D01*
X145367142Y-72334428D01*
X145700476Y-72334428D01*
X144271904Y-72477285D02*
X144271904Y-71810619D01*
X144700476Y-72477285D02*
X144700476Y-71953476D01*
X144652857Y-71858238D01*
X144557619Y-71810619D01*
X144414761Y-71810619D01*
X144319523Y-71858238D01*
X144271904Y-71905857D01*
X143938571Y-72477285D02*
X143557619Y-72477285D01*
X143795714Y-72810619D02*
X143795714Y-71953476D01*
X143748095Y-71858238D01*
X143652857Y-71810619D01*
X143557619Y-71810619D01*
X143367142Y-72477285D02*
X142986190Y-72477285D01*
X143224285Y-72810619D02*
X143224285Y-71953476D01*
X143176666Y-71858238D01*
X143081428Y-71810619D01*
X142986190Y-71810619D01*
X142510000Y-71810619D02*
X142605238Y-71858238D01*
X142652857Y-71905857D01*
X142700476Y-72001095D01*
X142700476Y-72286809D01*
X142652857Y-72382047D01*
X142605238Y-72429666D01*
X142510000Y-72477285D01*
X142367142Y-72477285D01*
X142271904Y-72429666D01*
X142224285Y-72382047D01*
X142176666Y-72286809D01*
X142176666Y-72001095D01*
X142224285Y-71905857D01*
X142271904Y-71858238D01*
X142367142Y-71810619D01*
X142510000Y-71810619D01*
X141748095Y-72477285D02*
X141748095Y-71810619D01*
X141748095Y-72382047D02*
X141700476Y-72429666D01*
X141605238Y-72477285D01*
X141462380Y-72477285D01*
X141367142Y-72429666D01*
X141319523Y-72334428D01*
X141319523Y-71810619D01*
X135326190Y-71810619D02*
X135326190Y-72810619D01*
X134945238Y-72810619D01*
X134850000Y-72763000D01*
X134802380Y-72715380D01*
X134754761Y-72620142D01*
X134754761Y-72477285D01*
X134802380Y-72382047D01*
X134850000Y-72334428D01*
X134945238Y-72286809D01*
X135326190Y-72286809D01*
X134183333Y-71810619D02*
X134278571Y-71858238D01*
X134326190Y-71905857D01*
X134373809Y-72001095D01*
X134373809Y-72286809D01*
X134326190Y-72382047D01*
X134278571Y-72429666D01*
X134183333Y-72477285D01*
X134040476Y-72477285D01*
X133945238Y-72429666D01*
X133897619Y-72382047D01*
X133850000Y-72286809D01*
X133850000Y-72001095D01*
X133897619Y-71905857D01*
X133945238Y-71858238D01*
X134040476Y-71810619D01*
X134183333Y-71810619D01*
X133516666Y-72477285D02*
X133326190Y-71810619D01*
X133135714Y-72286809D01*
X132945238Y-71810619D01*
X132754761Y-72477285D01*
X131992857Y-71858238D02*
X132088095Y-71810619D01*
X132278571Y-71810619D01*
X132373809Y-71858238D01*
X132421428Y-71953476D01*
X132421428Y-72334428D01*
X132373809Y-72429666D01*
X132278571Y-72477285D01*
X132088095Y-72477285D01*
X131992857Y-72429666D01*
X131945238Y-72334428D01*
X131945238Y-72239190D01*
X132421428Y-72143952D01*
X131516666Y-71810619D02*
X131516666Y-72477285D01*
X131516666Y-72286809D02*
X131469047Y-72382047D01*
X131421428Y-72429666D01*
X131326190Y-72477285D01*
X131230952Y-72477285D01*
X154789047Y-71810619D02*
X155265238Y-71810619D01*
X155265238Y-72810619D01*
X154455714Y-72334428D02*
X154122380Y-72334428D01*
X153979523Y-71810619D02*
X154455714Y-71810619D01*
X154455714Y-72810619D01*
X153979523Y-72810619D01*
X153550952Y-71810619D02*
X153550952Y-72810619D01*
X153312857Y-72810619D01*
X153170000Y-72763000D01*
X153074761Y-72667761D01*
X153027142Y-72572523D01*
X152979523Y-72382047D01*
X152979523Y-72239190D01*
X153027142Y-72048714D01*
X153074761Y-71953476D01*
X153170000Y-71858238D01*
X153312857Y-71810619D01*
X153550952Y-71810619D01*
X152122380Y-72477285D02*
X152122380Y-71810619D01*
X152360476Y-72858238D02*
X152598571Y-72143952D01*
X151979523Y-72143952D01*
X159869047Y-71810619D02*
X160345238Y-71810619D01*
X160345238Y-72810619D01*
X159535714Y-72334428D02*
X159202380Y-72334428D01*
X159059523Y-71810619D02*
X159535714Y-71810619D01*
X159535714Y-72810619D01*
X159059523Y-72810619D01*
X158630952Y-71810619D02*
X158630952Y-72810619D01*
X158392857Y-72810619D01*
X158250000Y-72763000D01*
X158154761Y-72667761D01*
X158107142Y-72572523D01*
X158059523Y-72382047D01*
X158059523Y-72239190D01*
X158107142Y-72048714D01*
X158154761Y-71953476D01*
X158250000Y-71858238D01*
X158392857Y-71810619D01*
X158630952Y-71810619D01*
X157726190Y-72810619D02*
X157107142Y-72810619D01*
X157440476Y-72429666D01*
X157297619Y-72429666D01*
X157202380Y-72382047D01*
X157154761Y-72334428D01*
X157107142Y-72239190D01*
X157107142Y-72001095D01*
X157154761Y-71905857D01*
X157202380Y-71858238D01*
X157297619Y-71810619D01*
X157583333Y-71810619D01*
X157678571Y-71858238D01*
X157726190Y-71905857D01*
X170029047Y-71810619D02*
X170505238Y-71810619D01*
X170505238Y-72810619D01*
X169695714Y-72334428D02*
X169362380Y-72334428D01*
X169219523Y-71810619D02*
X169695714Y-71810619D01*
X169695714Y-72810619D01*
X169219523Y-72810619D01*
X168790952Y-71810619D02*
X168790952Y-72810619D01*
X168552857Y-72810619D01*
X168410000Y-72763000D01*
X168314761Y-72667761D01*
X168267142Y-72572523D01*
X168219523Y-72382047D01*
X168219523Y-72239190D01*
X168267142Y-72048714D01*
X168314761Y-71953476D01*
X168410000Y-71858238D01*
X168552857Y-71810619D01*
X168790952Y-71810619D01*
X167267142Y-71810619D02*
X167838571Y-71810619D01*
X167552857Y-71810619D02*
X167552857Y-72810619D01*
X167648095Y-72667761D01*
X167743333Y-72572523D01*
X167838571Y-72524904D01*
X164949047Y-71810619D02*
X165425238Y-71810619D01*
X165425238Y-72810619D01*
X164615714Y-72334428D02*
X164282380Y-72334428D01*
X164139523Y-71810619D02*
X164615714Y-71810619D01*
X164615714Y-72810619D01*
X164139523Y-72810619D01*
X163710952Y-71810619D02*
X163710952Y-72810619D01*
X163472857Y-72810619D01*
X163330000Y-72763000D01*
X163234761Y-72667761D01*
X163187142Y-72572523D01*
X163139523Y-72382047D01*
X163139523Y-72239190D01*
X163187142Y-72048714D01*
X163234761Y-71953476D01*
X163330000Y-71858238D01*
X163472857Y-71810619D01*
X163710952Y-71810619D01*
X162758571Y-72715380D02*
X162710952Y-72763000D01*
X162615714Y-72810619D01*
X162377619Y-72810619D01*
X162282380Y-72763000D01*
X162234761Y-72715380D01*
X162187142Y-72620142D01*
X162187142Y-72524904D01*
X162234761Y-72382047D01*
X162806190Y-71810619D01*
X162187142Y-71810619D01*
X155971904Y-90844619D02*
X156448095Y-90844619D01*
X156495714Y-90368428D01*
X156448095Y-90416047D01*
X156352857Y-90463666D01*
X156114761Y-90463666D01*
X156019523Y-90416047D01*
X155971904Y-90368428D01*
X155924285Y-90273190D01*
X155924285Y-90035095D01*
X155971904Y-89939857D01*
X156019523Y-89892238D01*
X156114761Y-89844619D01*
X156352857Y-89844619D01*
X156448095Y-89892238D01*
X156495714Y-89939857D01*
X158559523Y-90511285D02*
X158559523Y-89844619D01*
X158797619Y-90892238D02*
X159035714Y-90177952D01*
X158416666Y-90177952D01*
X161623333Y-90844619D02*
X161004285Y-90844619D01*
X161337619Y-90463666D01*
X161194761Y-90463666D01*
X161099523Y-90416047D01*
X161051904Y-90368428D01*
X161004285Y-90273190D01*
X161004285Y-90035095D01*
X161051904Y-89939857D01*
X161099523Y-89892238D01*
X161194761Y-89844619D01*
X161480476Y-89844619D01*
X161575714Y-89892238D01*
X161623333Y-89939857D01*
X164115714Y-90749380D02*
X164068095Y-90797000D01*
X163972857Y-90844619D01*
X163734761Y-90844619D01*
X163639523Y-90797000D01*
X163591904Y-90749380D01*
X163544285Y-90654142D01*
X163544285Y-90558904D01*
X163591904Y-90416047D01*
X164163333Y-89844619D01*
X163544285Y-89844619D01*
X166084285Y-89844619D02*
X166655714Y-89844619D01*
X166370000Y-89844619D02*
X166370000Y-90844619D01*
X166465238Y-90701761D01*
X166560476Y-90606523D01*
X166655714Y-90558904D01*
D11*
X166472571Y-54538619D02*
X166472571Y-55538619D01*
X166091619Y-55538619D01*
X165996380Y-55491000D01*
X165948761Y-55443380D01*
X165901142Y-55348142D01*
X165901142Y-55205285D01*
X165948761Y-55110047D01*
X165996380Y-55062428D01*
X166091619Y-55014809D01*
X166472571Y-55014809D01*
X165091619Y-54586238D02*
X165186857Y-54538619D01*
X165377333Y-54538619D01*
X165472571Y-54586238D01*
X165520190Y-54681476D01*
X165520190Y-55062428D01*
X165472571Y-55157666D01*
X165377333Y-55205285D01*
X165186857Y-55205285D01*
X165091619Y-55157666D01*
X165044000Y-55062428D01*
X165044000Y-54967190D01*
X165520190Y-54871952D01*
X164615428Y-54538619D02*
X164615428Y-55205285D01*
X164615428Y-55014809D02*
X164567809Y-55110047D01*
X164520190Y-55157666D01*
X164424952Y-55205285D01*
X164329714Y-55205285D01*
X163996380Y-55205285D02*
X163996380Y-54205285D01*
X163996380Y-55157666D02*
X163901142Y-55205285D01*
X163710666Y-55205285D01*
X163615428Y-55157666D01*
X163567809Y-55110047D01*
X163520190Y-55014809D01*
X163520190Y-54729095D01*
X163567809Y-54633857D01*
X163615428Y-54586238D01*
X163710666Y-54538619D01*
X163901142Y-54538619D01*
X163996380Y-54586238D01*
X162710666Y-54586238D02*
X162805904Y-54538619D01*
X162996380Y-54538619D01*
X163091619Y-54586238D01*
X163139238Y-54681476D01*
X163139238Y-55062428D01*
X163091619Y-55157666D01*
X162996380Y-55205285D01*
X162805904Y-55205285D01*
X162710666Y-55157666D01*
X162663047Y-55062428D01*
X162663047Y-54967190D01*
X163139238Y-54871952D01*
X162234476Y-55205285D02*
X162234476Y-54538619D01*
X162234476Y-55110047D02*
X162186857Y-55157666D01*
X162091619Y-55205285D01*
X161948761Y-55205285D01*
X161853523Y-55157666D01*
X161805904Y-55062428D01*
X161805904Y-54538619D01*
X160901142Y-54538619D02*
X160901142Y-55538619D01*
X160901142Y-54586238D02*
X160996380Y-54538619D01*
X161186857Y-54538619D01*
X161282095Y-54586238D01*
X161329714Y-54633857D01*
X161377333Y-54729095D01*
X161377333Y-55014809D01*
X161329714Y-55110047D01*
X161282095Y-55157666D01*
X161186857Y-55205285D01*
X160996380Y-55205285D01*
X160901142Y-55157666D01*
X160424952Y-54538619D02*
X160424952Y-55205285D01*
X160424952Y-55538619D02*
X160472571Y-55491000D01*
X160424952Y-55443380D01*
X160377333Y-55491000D01*
X160424952Y-55538619D01*
X160424952Y-55443380D01*
X159520190Y-54586238D02*
X159615428Y-54538619D01*
X159805904Y-54538619D01*
X159901142Y-54586238D01*
X159948761Y-54633857D01*
X159996380Y-54729095D01*
X159996380Y-55014809D01*
X159948761Y-55110047D01*
X159901142Y-55157666D01*
X159805904Y-55205285D01*
X159615428Y-55205285D01*
X159520190Y-55157666D01*
X158663047Y-55205285D02*
X158663047Y-54538619D01*
X159091619Y-55205285D02*
X159091619Y-54681476D01*
X159044000Y-54586238D01*
X158948761Y-54538619D01*
X158805904Y-54538619D01*
X158710666Y-54586238D01*
X158663047Y-54633857D01*
X158044000Y-54538619D02*
X158139238Y-54586238D01*
X158186857Y-54681476D01*
X158186857Y-55538619D01*
X157234476Y-54538619D02*
X157234476Y-55062428D01*
X157282095Y-55157666D01*
X157377333Y-55205285D01*
X157567809Y-55205285D01*
X157663047Y-55157666D01*
X157234476Y-54586238D02*
X157329714Y-54538619D01*
X157567809Y-54538619D01*
X157663047Y-54586238D01*
X157710666Y-54681476D01*
X157710666Y-54776714D01*
X157663047Y-54871952D01*
X157567809Y-54919571D01*
X157329714Y-54919571D01*
X157234476Y-54967190D01*
X156758285Y-54538619D02*
X156758285Y-55205285D01*
X156758285Y-55014809D02*
X156710666Y-55110047D01*
X156663047Y-55157666D01*
X156567809Y-55205285D01*
X156472571Y-55205285D01*
X164853523Y-52633666D02*
X164901142Y-52681285D01*
X164996380Y-52824142D01*
X165044000Y-52919380D01*
X165091619Y-53062238D01*
X165139238Y-53300333D01*
X165139238Y-53490809D01*
X165091619Y-53728904D01*
X165044000Y-53871761D01*
X164996380Y-53967000D01*
X164901142Y-54109857D01*
X164853523Y-54157476D01*
X164329714Y-53014619D02*
X164424952Y-53062238D01*
X164472571Y-53157476D01*
X164472571Y-54014619D01*
X163567809Y-53062238D02*
X163663047Y-53014619D01*
X163853523Y-53014619D01*
X163948761Y-53062238D01*
X163996380Y-53157476D01*
X163996380Y-53538428D01*
X163948761Y-53633666D01*
X163853523Y-53681285D01*
X163663047Y-53681285D01*
X163567809Y-53633666D01*
X163520190Y-53538428D01*
X163520190Y-53443190D01*
X163996380Y-53347952D01*
X163234476Y-53681285D02*
X162853523Y-53681285D01*
X163091619Y-53014619D02*
X163091619Y-53871761D01*
X163044000Y-53967000D01*
X162948761Y-54014619D01*
X162853523Y-54014619D01*
X162663047Y-53681285D02*
X162282095Y-53681285D01*
X162520190Y-54014619D02*
X162520190Y-53157476D01*
X162472571Y-53062238D01*
X162377333Y-53014619D01*
X162282095Y-53014619D01*
X161234476Y-53062238D02*
X161139238Y-53014619D01*
X160948761Y-53014619D01*
X160853523Y-53062238D01*
X160805904Y-53157476D01*
X160805904Y-53205095D01*
X160853523Y-53300333D01*
X160948761Y-53347952D01*
X161091619Y-53347952D01*
X161186857Y-53395571D01*
X161234476Y-53490809D01*
X161234476Y-53538428D01*
X161186857Y-53633666D01*
X161091619Y-53681285D01*
X160948761Y-53681285D01*
X160853523Y-53633666D01*
X160377333Y-53014619D02*
X160377333Y-53681285D01*
X160377333Y-54014619D02*
X160424952Y-53967000D01*
X160377333Y-53919380D01*
X160329714Y-53967000D01*
X160377333Y-54014619D01*
X160377333Y-53919380D01*
X159472571Y-53014619D02*
X159472571Y-54014619D01*
X159472571Y-53062238D02*
X159567809Y-53014619D01*
X159758285Y-53014619D01*
X159853523Y-53062238D01*
X159901142Y-53109857D01*
X159948761Y-53205095D01*
X159948761Y-53490809D01*
X159901142Y-53586047D01*
X159853523Y-53633666D01*
X159758285Y-53681285D01*
X159567809Y-53681285D01*
X159472571Y-53633666D01*
X158615428Y-53062238D02*
X158710666Y-53014619D01*
X158901142Y-53014619D01*
X158996380Y-53062238D01*
X159044000Y-53157476D01*
X159044000Y-53538428D01*
X158996380Y-53633666D01*
X158901142Y-53681285D01*
X158710666Y-53681285D01*
X158615428Y-53633666D01*
X158567809Y-53538428D01*
X158567809Y-53443190D01*
X159044000Y-53347952D01*
X158234476Y-52633666D02*
X158186857Y-52681285D01*
X158091619Y-52824142D01*
X158044000Y-52919380D01*
X157996380Y-53062238D01*
X157948761Y-53300333D01*
X157948761Y-53490809D01*
X157996380Y-53728904D01*
X158044000Y-53871761D01*
X158091619Y-53967000D01*
X158186857Y-54109857D01*
X158234476Y-54157476D01*
D12*
X173482000Y-109220000D02*
X171577000Y-109220000D01*
X169418000Y-99060000D02*
X169418000Y-111760000D01*
X173482000Y-99060000D02*
X169418000Y-99060000D01*
X173482000Y-101600000D02*
X171577000Y-101600000D01*
X173482000Y-104140000D02*
X171577000Y-104140000D01*
X171577000Y-111760000D02*
X171577000Y-99060000D01*
X173482000Y-111760000D02*
X173482000Y-99060000D01*
X173482000Y-106680000D02*
X171577000Y-106680000D01*
X169418000Y-111760000D02*
X173482000Y-111760000D01*
X128778000Y-101600000D02*
X130683000Y-101600000D01*
X128778000Y-104140000D02*
X130683000Y-104140000D01*
X128778000Y-106680000D02*
X130683000Y-106680000D01*
X128778000Y-109220000D02*
X130683000Y-109220000D01*
X130683000Y-99060000D02*
X130683000Y-111760000D01*
X132842000Y-99060000D02*
X128778000Y-99060000D01*
X132842000Y-111760000D02*
X132842000Y-99060000D01*
X128778000Y-111760000D02*
X132842000Y-111760000D01*
X128778000Y-99060000D02*
X128778000Y-111760000D01*
D10*
X165209761Y-125002142D02*
X164776428Y-125002142D01*
X164776428Y-125683095D02*
X164776428Y-124383095D01*
X165395476Y-124383095D01*
X166447857Y-124816428D02*
X166447857Y-125683095D01*
X165890714Y-124816428D02*
X165890714Y-125497380D01*
X165952619Y-125621190D01*
X166076428Y-125683095D01*
X166262142Y-125683095D01*
X166385952Y-125621190D01*
X166447857Y-125559285D01*
X167005000Y-125621190D02*
X167128809Y-125683095D01*
X167376428Y-125683095D01*
X167500238Y-125621190D01*
X167562142Y-125497380D01*
X167562142Y-125435476D01*
X167500238Y-125311666D01*
X167376428Y-125249761D01*
X167190714Y-125249761D01*
X167066904Y-125187857D01*
X167005000Y-125064047D01*
X167005000Y-125002142D01*
X167066904Y-124878333D01*
X167190714Y-124816428D01*
X167376428Y-124816428D01*
X167500238Y-124878333D01*
X168614523Y-125621190D02*
X168490714Y-125683095D01*
X168243095Y-125683095D01*
X168119285Y-125621190D01*
X168057380Y-125497380D01*
X168057380Y-125002142D01*
X168119285Y-124878333D01*
X168243095Y-124816428D01*
X168490714Y-124816428D01*
X168614523Y-124878333D01*
X168676428Y-125002142D01*
X168676428Y-125125952D01*
X168057380Y-125249761D01*
X169233571Y-125559285D02*
X169295476Y-125621190D01*
X169233571Y-125683095D01*
X169171666Y-125621190D01*
X169233571Y-125559285D01*
X169233571Y-125683095D01*
X169233571Y-124878333D02*
X169295476Y-124940238D01*
X169233571Y-125002142D01*
X169171666Y-124940238D01*
X169233571Y-124878333D01*
X169233571Y-125002142D01*
D13*
X172558857Y-110985238D02*
X172558857Y-109994761D01*
X173054095Y-110490000D02*
X172063619Y-110490000D01*
X171943000Y-107609523D02*
X171881095Y-107733333D01*
X171881095Y-107919047D01*
X171943000Y-108104761D01*
X172066809Y-108228571D01*
X172190619Y-108290476D01*
X172438238Y-108352380D01*
X172623952Y-108352380D01*
X172871571Y-108290476D01*
X172995380Y-108228571D01*
X173119190Y-108104761D01*
X173181095Y-107919047D01*
X173181095Y-107795238D01*
X173119190Y-107609523D01*
X173057285Y-107547619D01*
X172623952Y-107547619D01*
X172623952Y-107795238D01*
X173181095Y-105007619D02*
X172562047Y-105440952D01*
X173181095Y-105750476D02*
X171881095Y-105750476D01*
X171881095Y-105255238D01*
X171943000Y-105131428D01*
X172004904Y-105069523D01*
X172128714Y-105007619D01*
X172314428Y-105007619D01*
X172438238Y-105069523D01*
X172500142Y-105131428D01*
X172562047Y-105255238D01*
X172562047Y-105750476D01*
X172500142Y-102777142D02*
X172562047Y-102591428D01*
X172623952Y-102529523D01*
X172747761Y-102467619D01*
X172933476Y-102467619D01*
X173057285Y-102529523D01*
X173119190Y-102591428D01*
X173181095Y-102715238D01*
X173181095Y-103210476D01*
X171881095Y-103210476D01*
X171881095Y-102777142D01*
X171943000Y-102653333D01*
X172004904Y-102591428D01*
X172128714Y-102529523D01*
X172252523Y-102529523D01*
X172376333Y-102591428D01*
X172438238Y-102653333D01*
X172500142Y-102777142D01*
X172500142Y-103210476D01*
X171881095Y-100887142D02*
X173181095Y-100577619D01*
X172252523Y-100330000D01*
X173181095Y-100082380D01*
X171881095Y-99772857D01*
X129701142Y-110058261D02*
X129701142Y-111048738D01*
X129205904Y-110553500D02*
X130196380Y-110553500D01*
X130317000Y-108290476D02*
X130378904Y-108166666D01*
X130378904Y-107980952D01*
X130317000Y-107795238D01*
X130193190Y-107671428D01*
X130069380Y-107609523D01*
X129821761Y-107547619D01*
X129636047Y-107547619D01*
X129388428Y-107609523D01*
X129264619Y-107671428D01*
X129140809Y-107795238D01*
X129078904Y-107980952D01*
X129078904Y-108104761D01*
X129140809Y-108290476D01*
X129202714Y-108352380D01*
X129636047Y-108352380D01*
X129636047Y-108104761D01*
X129078904Y-105812380D02*
X129697952Y-105379047D01*
X129078904Y-105069523D02*
X130378904Y-105069523D01*
X130378904Y-105564761D01*
X130317000Y-105688571D01*
X130255095Y-105750476D01*
X130131285Y-105812380D01*
X129945571Y-105812380D01*
X129821761Y-105750476D01*
X129759857Y-105688571D01*
X129697952Y-105564761D01*
X129697952Y-105069523D01*
X129759857Y-102962857D02*
X129697952Y-103148571D01*
X129636047Y-103210476D01*
X129512238Y-103272380D01*
X129326523Y-103272380D01*
X129202714Y-103210476D01*
X129140809Y-103148571D01*
X129078904Y-103024761D01*
X129078904Y-102529523D01*
X130378904Y-102529523D01*
X130378904Y-102962857D01*
X130317000Y-103086666D01*
X130255095Y-103148571D01*
X130131285Y-103210476D01*
X130007476Y-103210476D01*
X129883666Y-103148571D01*
X129821761Y-103086666D01*
X129759857Y-102962857D01*
X129759857Y-102529523D01*
X130378904Y-99772857D02*
X129078904Y-100082380D01*
X130007476Y-100330000D01*
X129078904Y-100577619D01*
X130378904Y-100887142D01*
D10*
X182221142Y-90614238D02*
X182268761Y-90661857D01*
X182316380Y-90804714D01*
X182316380Y-90899952D01*
X182268761Y-91042809D01*
X182173523Y-91138047D01*
X182078285Y-91185666D01*
X181887809Y-91233285D01*
X181744952Y-91233285D01*
X181554476Y-91185666D01*
X181459238Y-91138047D01*
X181364000Y-91042809D01*
X181316380Y-90899952D01*
X181316380Y-90804714D01*
X181364000Y-90661857D01*
X181411619Y-90614238D01*
X182316380Y-89614238D02*
X181840190Y-89947571D01*
X182316380Y-90185666D02*
X181316380Y-90185666D01*
X181316380Y-89804714D01*
X181364000Y-89709476D01*
X181411619Y-89661857D01*
X181506857Y-89614238D01*
X181649714Y-89614238D01*
X181744952Y-89661857D01*
X181792571Y-89709476D01*
X181840190Y-89804714D01*
X181840190Y-90185666D01*
X182316380Y-88661857D02*
X182316380Y-89233285D01*
X182316380Y-88947571D02*
X181316380Y-88947571D01*
X181459238Y-89042809D01*
X181554476Y-89138047D01*
X181602095Y-89233285D01*
X181411619Y-88280904D02*
X181364000Y-88233285D01*
X181316380Y-88138047D01*
X181316380Y-87899952D01*
X181364000Y-87804714D01*
X181411619Y-87757095D01*
X181506857Y-87709476D01*
X181602095Y-87709476D01*
X181744952Y-87757095D01*
X182316380Y-88328523D01*
X182316380Y-87709476D01*
X181411619Y-87328523D02*
X181364000Y-87280904D01*
X181316380Y-87185666D01*
X181316380Y-86947571D01*
X181364000Y-86852333D01*
X181411619Y-86804714D01*
X181506857Y-86757095D01*
X181602095Y-86757095D01*
X181744952Y-86804714D01*
X182316380Y-87376142D01*
X182316380Y-86757095D01*
X181316380Y-85852333D02*
X181316380Y-86328523D01*
X181792571Y-86376142D01*
X181744952Y-86328523D01*
X181697333Y-86233285D01*
X181697333Y-85995190D01*
X181744952Y-85899952D01*
X181792571Y-85852333D01*
X181887809Y-85804714D01*
X182125904Y-85804714D01*
X182221142Y-85852333D01*
X182268761Y-85899952D01*
X182316380Y-85995190D01*
X182316380Y-86233285D01*
X182268761Y-86328523D01*
X182221142Y-86376142D01*
D12*
X160655000Y-128270000D02*
X160655000Y-123825000D01*
X173355000Y-128270000D02*
X160655000Y-128270000D01*
X173355000Y-123825000D02*
X173355000Y-128270000D01*
X160655000Y-123825000D02*
X173355000Y-123825000D01*
X165735000Y-132080000D02*
X165735000Y-134620000D01*
X160655000Y-132080000D02*
X173355000Y-132080000D01*
X160655000Y-134620000D02*
X160655000Y-129540000D01*
X173355000Y-134620000D02*
X160655000Y-134620000D01*
X173355000Y-129540000D02*
X173355000Y-134620000D01*
X160655000Y-129540000D02*
X173355000Y-129540000D01*
D13*
X162514047Y-133983333D02*
X162514047Y-132583333D01*
X163133095Y-133983333D02*
X163133095Y-132583333D01*
X163875952Y-133983333D01*
X163875952Y-132583333D01*
X168554523Y-132700000D02*
X168430714Y-132638095D01*
X168245000Y-132638095D01*
X168059285Y-132700000D01*
X167935476Y-132823809D01*
X167873571Y-132947619D01*
X167811666Y-133195238D01*
X167811666Y-133380952D01*
X167873571Y-133628571D01*
X167935476Y-133752380D01*
X168059285Y-133876190D01*
X168245000Y-133938095D01*
X168368809Y-133938095D01*
X168554523Y-133876190D01*
X168616428Y-133814285D01*
X168616428Y-133380952D01*
X168368809Y-133380952D01*
X169173571Y-133938095D02*
X169173571Y-132638095D01*
X169916428Y-133938095D01*
X169916428Y-132638095D01*
X170535476Y-133938095D02*
X170535476Y-132638095D01*
X170845000Y-132638095D01*
X171030714Y-132700000D01*
X171154523Y-132823809D01*
X171216428Y-132947619D01*
X171278333Y-133195238D01*
X171278333Y-133380952D01*
X171216428Y-133628571D01*
X171154523Y-133752380D01*
X171030714Y-133876190D01*
X170845000Y-133938095D01*
X170535476Y-133938095D01*
D12*
X149352000Y-132080000D02*
X149352000Y-134620000D01*
X154432000Y-132080000D02*
X149352000Y-132080000D01*
X144272000Y-132080000D02*
X154432000Y-132080000D01*
X154432000Y-134620000D02*
X144272000Y-134620000D01*
X154432000Y-129540000D02*
X154432000Y-134620000D01*
X144272000Y-129540000D02*
X154432000Y-129540000D01*
X144272000Y-134620000D02*
X144272000Y-129540000D01*
D13*
X145512000Y-132638095D02*
X145759619Y-132638095D01*
X145883428Y-132700000D01*
X146007238Y-132823809D01*
X146069142Y-133071428D01*
X146069142Y-133504761D01*
X146007238Y-133752380D01*
X145883428Y-133876190D01*
X145759619Y-133938095D01*
X145512000Y-133938095D01*
X145388190Y-133876190D01*
X145264380Y-133752380D01*
X145202476Y-133504761D01*
X145202476Y-133071428D01*
X145264380Y-132823809D01*
X145388190Y-132700000D01*
X145512000Y-132638095D01*
X146626285Y-132638095D02*
X146626285Y-133690476D01*
X146688190Y-133814285D01*
X146750095Y-133876190D01*
X146873904Y-133938095D01*
X147121523Y-133938095D01*
X147245333Y-133876190D01*
X147307238Y-133814285D01*
X147369142Y-133690476D01*
X147369142Y-132638095D01*
X147802476Y-132638095D02*
X148545333Y-132638095D01*
X148173904Y-133938095D02*
X148173904Y-132638095D01*
X150901523Y-132700000D02*
X150777714Y-132638095D01*
X150592000Y-132638095D01*
X150406285Y-132700000D01*
X150282476Y-132823809D01*
X150220571Y-132947619D01*
X150158666Y-133195238D01*
X150158666Y-133380952D01*
X150220571Y-133628571D01*
X150282476Y-133752380D01*
X150406285Y-133876190D01*
X150592000Y-133938095D01*
X150715809Y-133938095D01*
X150901523Y-133876190D01*
X150963428Y-133814285D01*
X150963428Y-133380952D01*
X150715809Y-133380952D01*
X151520571Y-133938095D02*
X151520571Y-132638095D01*
X152263428Y-133938095D01*
X152263428Y-132638095D01*
X152882476Y-133938095D02*
X152882476Y-132638095D01*
X153192000Y-132638095D01*
X153377714Y-132700000D01*
X153501523Y-132823809D01*
X153563428Y-132947619D01*
X153625333Y-133195238D01*
X153625333Y-133380952D01*
X153563428Y-133628571D01*
X153501523Y-133752380D01*
X153377714Y-133876190D01*
X153192000Y-133938095D01*
X152882476Y-133938095D01*
D12*
X133604000Y-132080000D02*
X133604000Y-134620000D01*
X136144000Y-132080000D02*
X136144000Y-134620000D01*
X131064000Y-132080000D02*
X141224000Y-132080000D01*
X131064000Y-129540000D02*
X131064000Y-134620000D01*
X141224000Y-129540000D02*
X131064000Y-129540000D01*
X141224000Y-134620000D02*
X141224000Y-129540000D01*
X131064000Y-134620000D02*
X141224000Y-134620000D01*
D13*
X134564476Y-133566666D02*
X135183523Y-133566666D01*
X134440666Y-133938095D02*
X134874000Y-132638095D01*
X135307333Y-133938095D01*
X137693523Y-132700000D02*
X137569714Y-132638095D01*
X137384000Y-132638095D01*
X137198285Y-132700000D01*
X137074476Y-132823809D01*
X137012571Y-132947619D01*
X136950666Y-133195238D01*
X136950666Y-133380952D01*
X137012571Y-133628571D01*
X137074476Y-133752380D01*
X137198285Y-133876190D01*
X137384000Y-133938095D01*
X137507809Y-133938095D01*
X137693523Y-133876190D01*
X137755428Y-133814285D01*
X137755428Y-133380952D01*
X137507809Y-133380952D01*
X138312571Y-133938095D02*
X138312571Y-132638095D01*
X139055428Y-133938095D01*
X139055428Y-132638095D01*
X139674476Y-133938095D02*
X139674476Y-132638095D01*
X139984000Y-132638095D01*
X140169714Y-132700000D01*
X140293523Y-132823809D01*
X140355428Y-132947619D01*
X140417333Y-133195238D01*
X140417333Y-133380952D01*
X140355428Y-133628571D01*
X140293523Y-133752380D01*
X140169714Y-133876190D01*
X139984000Y-133938095D01*
X139674476Y-133938095D01*
X132426857Y-133257142D02*
X132612571Y-133319047D01*
X132674476Y-133380952D01*
X132736380Y-133504761D01*
X132736380Y-133690476D01*
X132674476Y-133814285D01*
X132612571Y-133876190D01*
X132488761Y-133938095D01*
X131993523Y-133938095D01*
X131993523Y-132638095D01*
X132426857Y-132638095D01*
X132550666Y-132700000D01*
X132612571Y-132761904D01*
X132674476Y-132885714D01*
X132674476Y-133009523D01*
X132612571Y-133133333D01*
X132550666Y-133195238D01*
X132426857Y-133257142D01*
X131993523Y-133257142D01*
D14*
X162433571Y-131488571D02*
X161576428Y-131488571D01*
X162005000Y-131488571D02*
X162005000Y-129988571D01*
X161862142Y-130202857D01*
X161719285Y-130345714D01*
X161576428Y-130417142D01*
X163005000Y-130131428D02*
X163076428Y-130060000D01*
X163219285Y-129988571D01*
X163576428Y-129988571D01*
X163719285Y-130060000D01*
X163790714Y-130131428D01*
X163862142Y-130274285D01*
X163862142Y-130417142D01*
X163790714Y-130631428D01*
X162933571Y-131488571D01*
X163862142Y-131488571D01*
X164290714Y-129988571D02*
X164790714Y-131488571D01*
X165290714Y-129988571D01*
X166647857Y-131345714D02*
X166576428Y-131417142D01*
X166362142Y-131488571D01*
X166219285Y-131488571D01*
X166005000Y-131417142D01*
X165862142Y-131274285D01*
X165790714Y-131131428D01*
X165719285Y-130845714D01*
X165719285Y-130631428D01*
X165790714Y-130345714D01*
X165862142Y-130202857D01*
X166005000Y-130060000D01*
X166219285Y-129988571D01*
X166362142Y-129988571D01*
X166576428Y-130060000D01*
X166647857Y-130131428D01*
X167290714Y-131488571D02*
X167290714Y-129988571D01*
X167647857Y-129988571D01*
X167862142Y-130060000D01*
X168005000Y-130202857D01*
X168076428Y-130345714D01*
X168147857Y-130631428D01*
X168147857Y-130845714D01*
X168076428Y-131131428D01*
X168005000Y-131274285D01*
X167862142Y-131417142D01*
X167647857Y-131488571D01*
X167290714Y-131488571D01*
X169862142Y-129917142D02*
X168576428Y-131845714D01*
X171076428Y-129988571D02*
X170362142Y-129988571D01*
X170290714Y-130702857D01*
X170362142Y-130631428D01*
X170505000Y-130560000D01*
X170862142Y-130560000D01*
X171005000Y-130631428D01*
X171076428Y-130702857D01*
X171147857Y-130845714D01*
X171147857Y-131202857D01*
X171076428Y-131345714D01*
X171005000Y-131417142D01*
X170862142Y-131488571D01*
X170505000Y-131488571D01*
X170362142Y-131417142D01*
X170290714Y-131345714D01*
X171719285Y-131060000D02*
X172433571Y-131060000D01*
X171576428Y-131488571D02*
X172076428Y-129988571D01*
X172576428Y-131488571D01*
X146280571Y-129988571D02*
X146423428Y-129988571D01*
X146566285Y-130060000D01*
X146637714Y-130131428D01*
X146709142Y-130274285D01*
X146780571Y-130560000D01*
X146780571Y-130917142D01*
X146709142Y-131202857D01*
X146637714Y-131345714D01*
X146566285Y-131417142D01*
X146423428Y-131488571D01*
X146280571Y-131488571D01*
X146137714Y-131417142D01*
X146066285Y-131345714D01*
X145994857Y-131202857D01*
X145923428Y-130917142D01*
X145923428Y-130560000D01*
X145994857Y-130274285D01*
X146066285Y-130131428D01*
X146137714Y-130060000D01*
X146280571Y-129988571D01*
X147423428Y-130917142D02*
X148566285Y-130917142D01*
X150066285Y-131488571D02*
X149209142Y-131488571D01*
X149637714Y-131488571D02*
X149637714Y-129988571D01*
X149494857Y-130202857D01*
X149352000Y-130345714D01*
X149209142Y-130417142D01*
X150994857Y-129988571D02*
X151137714Y-129988571D01*
X151280571Y-130060000D01*
X151352000Y-130131428D01*
X151423428Y-130274285D01*
X151494857Y-130560000D01*
X151494857Y-130917142D01*
X151423428Y-131202857D01*
X151352000Y-131345714D01*
X151280571Y-131417142D01*
X151137714Y-131488571D01*
X150994857Y-131488571D01*
X150852000Y-131417142D01*
X150780571Y-131345714D01*
X150709142Y-131202857D01*
X150637714Y-130917142D01*
X150637714Y-130560000D01*
X150709142Y-130274285D01*
X150780571Y-130131428D01*
X150852000Y-130060000D01*
X150994857Y-129988571D01*
X151923428Y-129988571D02*
X152423428Y-131488571D01*
X152923428Y-129988571D01*
X133751142Y-131488571D02*
X133251142Y-130774285D01*
X132894000Y-131488571D02*
X132894000Y-129988571D01*
X133465428Y-129988571D01*
X133608285Y-130060000D01*
X133679714Y-130131428D01*
X133751142Y-130274285D01*
X133751142Y-130488571D01*
X133679714Y-130631428D01*
X133608285Y-130702857D01*
X133465428Y-130774285D01*
X132894000Y-130774285D01*
X134322571Y-131417142D02*
X134536857Y-131488571D01*
X134894000Y-131488571D01*
X135036857Y-131417142D01*
X135108285Y-131345714D01*
X135179714Y-131202857D01*
X135179714Y-131060000D01*
X135108285Y-130917142D01*
X135036857Y-130845714D01*
X134894000Y-130774285D01*
X134608285Y-130702857D01*
X134465428Y-130631428D01*
X134394000Y-130560000D01*
X134322571Y-130417142D01*
X134322571Y-130274285D01*
X134394000Y-130131428D01*
X134465428Y-130060000D01*
X134608285Y-129988571D01*
X134965428Y-129988571D01*
X135179714Y-130060000D01*
X136465428Y-130488571D02*
X136465428Y-131488571D01*
X136108285Y-129917142D02*
X135751142Y-130988571D01*
X136679714Y-130988571D01*
X137465428Y-130631428D02*
X137322571Y-130560000D01*
X137251142Y-130488571D01*
X137179714Y-130345714D01*
X137179714Y-130274285D01*
X137251142Y-130131428D01*
X137322571Y-130060000D01*
X137465428Y-129988571D01*
X137751142Y-129988571D01*
X137894000Y-130060000D01*
X137965428Y-130131428D01*
X138036857Y-130274285D01*
X138036857Y-130345714D01*
X137965428Y-130488571D01*
X137894000Y-130560000D01*
X137751142Y-130631428D01*
X137465428Y-130631428D01*
X137322571Y-130702857D01*
X137251142Y-130774285D01*
X137179714Y-130917142D01*
X137179714Y-131202857D01*
X137251142Y-131345714D01*
X137322571Y-131417142D01*
X137465428Y-131488571D01*
X137751142Y-131488571D01*
X137894000Y-131417142D01*
X137965428Y-131345714D01*
X138036857Y-131202857D01*
X138036857Y-130917142D01*
X137965428Y-130774285D01*
X137894000Y-130702857D01*
X137751142Y-130631428D01*
X139394000Y-129988571D02*
X138679714Y-129988571D01*
X138608285Y-130702857D01*
X138679714Y-130631428D01*
X138822571Y-130560000D01*
X139179714Y-130560000D01*
X139322571Y-130631428D01*
X139394000Y-130702857D01*
X139465428Y-130845714D01*
X139465428Y-131202857D01*
X139394000Y-131345714D01*
X139322571Y-131417142D01*
X139179714Y-131488571D01*
X138822571Y-131488571D01*
X138679714Y-131417142D01*
X138608285Y-131345714D01*
D10*
X137751428Y-89455857D02*
X138465714Y-88955857D01*
X137751428Y-88598714D02*
X139251428Y-88598714D01*
X139251428Y-89170142D01*
X139180000Y-89313000D01*
X139108571Y-89384428D01*
X138965714Y-89455857D01*
X138751428Y-89455857D01*
X138608571Y-89384428D01*
X138537142Y-89313000D01*
X138465714Y-89170142D01*
X138465714Y-88598714D01*
X137822857Y-90670142D02*
X137751428Y-90527285D01*
X137751428Y-90241571D01*
X137822857Y-90098714D01*
X137965714Y-90027285D01*
X138537142Y-90027285D01*
X138680000Y-90098714D01*
X138751428Y-90241571D01*
X138751428Y-90527285D01*
X138680000Y-90670142D01*
X138537142Y-90741571D01*
X138394285Y-90741571D01*
X138251428Y-90027285D01*
X137822857Y-91313000D02*
X137751428Y-91455857D01*
X137751428Y-91741571D01*
X137822857Y-91884428D01*
X137965714Y-91955857D01*
X138037142Y-91955857D01*
X138180000Y-91884428D01*
X138251428Y-91741571D01*
X138251428Y-91527285D01*
X138322857Y-91384428D01*
X138465714Y-91313000D01*
X138537142Y-91313000D01*
X138680000Y-91384428D01*
X138751428Y-91527285D01*
X138751428Y-91741571D01*
X138680000Y-91884428D01*
X137822857Y-93170142D02*
X137751428Y-93027285D01*
X137751428Y-92741571D01*
X137822857Y-92598714D01*
X137965714Y-92527285D01*
X138537142Y-92527285D01*
X138680000Y-92598714D01*
X138751428Y-92741571D01*
X138751428Y-93027285D01*
X138680000Y-93170142D01*
X138537142Y-93241571D01*
X138394285Y-93241571D01*
X138251428Y-92527285D01*
X138751428Y-93670142D02*
X138751428Y-94241571D01*
X139251428Y-93884428D02*
X137965714Y-93884428D01*
X137822857Y-93955857D01*
X137751428Y-94098714D01*
X137751428Y-94241571D01*
D12*
X137128000Y-119496000D02*
X125508000Y-119496000D01*
X137128000Y-125496000D02*
X125508000Y-125496000D01*
X125508000Y-125496000D02*
X125508000Y-119496000D01*
X137128000Y-125496000D02*
X137128000Y-119496000D01*
X156718000Y-47879000D02*
X157099000Y-47879000D01*
X158369000Y-47879000D02*
X158623000Y-47879000D01*
X159893000Y-47879000D02*
X160147000Y-47879000D01*
X161417000Y-47879000D02*
X161671000Y-47879000D01*
X162941000Y-47879000D02*
X163195000Y-47879000D01*
X164465000Y-47879000D02*
X164719000Y-47879000D01*
X165989000Y-47879000D02*
X166370000Y-47879000D01*
X165989000Y-46863000D02*
X166370000Y-46863000D01*
X164465000Y-46863000D02*
X164719000Y-46863000D01*
X162941000Y-46863000D02*
X163195000Y-46863000D01*
X161417000Y-46863000D02*
X161671000Y-46863000D01*
X159893000Y-46863000D02*
X160147000Y-46863000D01*
X158369000Y-46863000D02*
X158623000Y-46863000D01*
X156718000Y-46863000D02*
X157099000Y-46863000D01*
X121158000Y-89090500D02*
X121158000Y-86296500D01*
X121158000Y-86296500D02*
X126111000Y-86296500D01*
X126111000Y-86296500D02*
X126111000Y-93916500D01*
X126111000Y-93916500D02*
X121158000Y-93916500D01*
X121158000Y-93916500D02*
X121158000Y-91122500D01*
X153580000Y-147700000D02*
X153580000Y-138300000D01*
X145180000Y-147700000D02*
X145180000Y-138300000D01*
X153580000Y-147700000D02*
X145180000Y-147700000D01*
X145180000Y-138300000D02*
X153580000Y-138300000D01*
X150622000Y-97044000D02*
X151638000Y-97044000D01*
X151638000Y-97044000D02*
X151638000Y-99695000D01*
X150622000Y-99695000D02*
X150622000Y-97044000D01*
X150622000Y-112760000D02*
X150622000Y-110109000D01*
X151638000Y-112760000D02*
X150622000Y-112760000D01*
X151638000Y-110109000D02*
X151638000Y-112760000D01*
D15*
G36*
X151638000Y-111744000D02*
G01*
X152654000Y-111744000D01*
X152654000Y-112760000D01*
X151638000Y-112760000D01*
X151638000Y-111744000D01*
G37*
X151638000Y-111744000D02*
X152654000Y-111744000D01*
X152654000Y-112760000D01*
X151638000Y-112760000D01*
X151638000Y-111744000D01*
D12*
X130250000Y-138300000D02*
X142150000Y-138300000D01*
X142150000Y-147700000D02*
X130250000Y-147700000D01*
X130250000Y-147700000D02*
X130250000Y-138300000D01*
X142150000Y-147700000D02*
X142150000Y-138300000D01*
X178556000Y-122910000D02*
X178556000Y-120110000D01*
X180256000Y-122910000D02*
X180256000Y-113310000D01*
X151956000Y-122910000D02*
X151956000Y-113310000D01*
X151956000Y-113310000D02*
X180256000Y-113310000D01*
X151956000Y-122910000D02*
X180256000Y-122910000D01*
X178556000Y-116110000D02*
X178556000Y-113310000D01*
X153256000Y-115410000D02*
X153256000Y-120810000D01*
X153256000Y-120810000D02*
X154756000Y-120810000D01*
X154756000Y-120810000D02*
X154756000Y-119310000D01*
X153256000Y-115410000D02*
X154756000Y-115410000D01*
X154756000Y-115410000D02*
X154756000Y-116910000D01*
X140639000Y-81041000D02*
X134389000Y-81041000D01*
X140639000Y-86091000D02*
X134389000Y-86091000D01*
X134389000Y-81041000D02*
G75*
G03*
X134389000Y-86091000I0J-2525000D01*
G01*
X140639000Y-81041000D02*
G75*
G02*
X140639000Y-86091000I0J-2525000D01*
G01*
X143455000Y-94373000D02*
X139755000Y-94373000D01*
X143455000Y-88253000D02*
X143455000Y-94373000D01*
X139755000Y-88253000D02*
X143455000Y-88253000D01*
X139755000Y-94373000D02*
X139755000Y-88253000D01*
X128270000Y-111760000D02*
X127000000Y-111760000D01*
X128270000Y-110490000D02*
X128270000Y-111760000D01*
X125957071Y-99950000D02*
X125560000Y-99950000D01*
X125957071Y-100710000D02*
X125560000Y-100710000D01*
X116900000Y-99950000D02*
X122900000Y-99950000D01*
X116900000Y-100710000D02*
X116900000Y-99950000D01*
X122900000Y-100710000D02*
X116900000Y-100710000D01*
X125560000Y-101600000D02*
X122900000Y-101600000D01*
X125957071Y-102490000D02*
X125560000Y-102490000D01*
X125957071Y-103250000D02*
X125560000Y-103250000D01*
X116900000Y-102490000D02*
X122900000Y-102490000D01*
X116900000Y-103250000D02*
X116900000Y-102490000D01*
X122900000Y-103250000D02*
X116900000Y-103250000D01*
X125560000Y-104140000D02*
X122900000Y-104140000D01*
X125957071Y-105030000D02*
X125560000Y-105030000D01*
X125957071Y-105790000D02*
X125560000Y-105790000D01*
X116900000Y-105030000D02*
X122900000Y-105030000D01*
X116900000Y-105790000D02*
X116900000Y-105030000D01*
X122900000Y-105790000D02*
X116900000Y-105790000D01*
X125560000Y-106680000D02*
X122900000Y-106680000D01*
X125957071Y-107570000D02*
X125560000Y-107570000D01*
X125957071Y-108330000D02*
X125560000Y-108330000D01*
X116900000Y-107570000D02*
X122900000Y-107570000D01*
X116900000Y-108330000D02*
X116900000Y-107570000D01*
X122900000Y-108330000D02*
X116900000Y-108330000D01*
X125560000Y-109220000D02*
X122900000Y-109220000D01*
X125890000Y-110110000D02*
X125560000Y-110110000D01*
X125890000Y-110870000D02*
X125560000Y-110870000D01*
X122900000Y-110210000D02*
X116900000Y-110210000D01*
X122900000Y-110330000D02*
X116900000Y-110330000D01*
X122900000Y-110450000D02*
X116900000Y-110450000D01*
X122900000Y-110570000D02*
X116900000Y-110570000D01*
X122900000Y-110690000D02*
X116900000Y-110690000D01*
X122900000Y-110810000D02*
X116900000Y-110810000D01*
X116900000Y-110110000D02*
X122900000Y-110110000D01*
X116900000Y-110870000D02*
X116900000Y-110110000D01*
X122900000Y-110870000D02*
X116900000Y-110870000D01*
X122900000Y-111820000D02*
X125560000Y-111820000D01*
X122900000Y-99000000D02*
X122900000Y-111820000D01*
X125560000Y-99000000D02*
X122900000Y-99000000D01*
X125560000Y-111820000D02*
X125560000Y-99000000D01*
X173990000Y-99060000D02*
X175260000Y-99060000D01*
X173990000Y-100330000D02*
X173990000Y-99060000D01*
X176302929Y-110870000D02*
X176700000Y-110870000D01*
X176302929Y-110110000D02*
X176700000Y-110110000D01*
X185360000Y-110870000D02*
X179360000Y-110870000D01*
X185360000Y-110110000D02*
X185360000Y-110870000D01*
X179360000Y-110110000D02*
X185360000Y-110110000D01*
X176700000Y-109220000D02*
X179360000Y-109220000D01*
X176302929Y-108330000D02*
X176700000Y-108330000D01*
X176302929Y-107570000D02*
X176700000Y-107570000D01*
X185360000Y-108330000D02*
X179360000Y-108330000D01*
X185360000Y-107570000D02*
X185360000Y-108330000D01*
X179360000Y-107570000D02*
X185360000Y-107570000D01*
X176700000Y-106680000D02*
X179360000Y-106680000D01*
X176302929Y-105790000D02*
X176700000Y-105790000D01*
X176302929Y-105030000D02*
X176700000Y-105030000D01*
X185360000Y-105790000D02*
X179360000Y-105790000D01*
X185360000Y-105030000D02*
X185360000Y-105790000D01*
X179360000Y-105030000D02*
X185360000Y-105030000D01*
X176700000Y-104140000D02*
X179360000Y-104140000D01*
X176302929Y-103250000D02*
X176700000Y-103250000D01*
X176302929Y-102490000D02*
X176700000Y-102490000D01*
X185360000Y-103250000D02*
X179360000Y-103250000D01*
X185360000Y-102490000D02*
X185360000Y-103250000D01*
X179360000Y-102490000D02*
X185360000Y-102490000D01*
X176700000Y-101600000D02*
X179360000Y-101600000D01*
X176370000Y-100710000D02*
X176700000Y-100710000D01*
X176370000Y-99950000D02*
X176700000Y-99950000D01*
X179360000Y-100610000D02*
X185360000Y-100610000D01*
X179360000Y-100490000D02*
X185360000Y-100490000D01*
X179360000Y-100370000D02*
X185360000Y-100370000D01*
X179360000Y-100250000D02*
X185360000Y-100250000D01*
X179360000Y-100130000D02*
X185360000Y-100130000D01*
X179360000Y-100010000D02*
X185360000Y-100010000D01*
X185360000Y-100710000D02*
X179360000Y-100710000D01*
X185360000Y-99950000D02*
X185360000Y-100710000D01*
X179360000Y-99950000D02*
X185360000Y-99950000D01*
X179360000Y-99000000D02*
X176700000Y-99000000D01*
X179360000Y-111820000D02*
X179360000Y-99000000D01*
X176700000Y-111820000D02*
X179360000Y-111820000D01*
X176700000Y-99000000D02*
X176700000Y-111820000D01*
X160455000Y-112207646D02*
X161455000Y-112207646D01*
X160955000Y-112707646D02*
X160955000Y-111707646D01*
X163231000Y-102147000D02*
X164429000Y-102147000D01*
X162968000Y-102187000D02*
X164692000Y-102187000D01*
X162768000Y-102227000D02*
X164892000Y-102227000D01*
X162600000Y-102267000D02*
X165060000Y-102267000D01*
X162452000Y-102307000D02*
X165208000Y-102307000D01*
X162320000Y-102347000D02*
X165340000Y-102347000D01*
X162200000Y-102387000D02*
X165460000Y-102387000D01*
X162088000Y-102427000D02*
X165572000Y-102427000D01*
X161984000Y-102467000D02*
X165676000Y-102467000D01*
X161886000Y-102507000D02*
X165774000Y-102507000D01*
X161793000Y-102547000D02*
X165867000Y-102547000D01*
X161705000Y-102587000D02*
X165955000Y-102587000D01*
X161621000Y-102627000D02*
X166039000Y-102627000D01*
X161541000Y-102667000D02*
X166119000Y-102667000D01*
X161465000Y-102707000D02*
X166195000Y-102707000D01*
X161391000Y-102747000D02*
X166269000Y-102747000D01*
X161320000Y-102787000D02*
X166340000Y-102787000D01*
X161251000Y-102827000D02*
X166409000Y-102827000D01*
X161185000Y-102867000D02*
X166475000Y-102867000D01*
X161121000Y-102907000D02*
X166539000Y-102907000D01*
X161060000Y-102947000D02*
X166600000Y-102947000D01*
X161000000Y-102987000D02*
X166660000Y-102987000D01*
X160941000Y-103027000D02*
X166719000Y-103027000D01*
X160885000Y-103067000D02*
X166775000Y-103067000D01*
X160830000Y-103107000D02*
X166830000Y-103107000D01*
X160776000Y-103147000D02*
X166884000Y-103147000D01*
X160724000Y-103187000D02*
X166936000Y-103187000D01*
X160674000Y-103227000D02*
X166986000Y-103227000D01*
X160624000Y-103267000D02*
X167036000Y-103267000D01*
X160576000Y-103307000D02*
X167084000Y-103307000D01*
X160529000Y-103347000D02*
X167131000Y-103347000D01*
X160483000Y-103387000D02*
X167177000Y-103387000D01*
X160438000Y-103427000D02*
X167222000Y-103427000D01*
X160394000Y-103467000D02*
X167266000Y-103467000D01*
X165071000Y-103507000D02*
X167308000Y-103507000D01*
X160352000Y-103507000D02*
X162589000Y-103507000D01*
X165071000Y-103547000D02*
X167350000Y-103547000D01*
X160310000Y-103547000D02*
X162589000Y-103547000D01*
X165071000Y-103587000D02*
X167391000Y-103587000D01*
X160269000Y-103587000D02*
X162589000Y-103587000D01*
X165071000Y-103627000D02*
X167431000Y-103627000D01*
X160229000Y-103627000D02*
X162589000Y-103627000D01*
X165071000Y-103667000D02*
X167470000Y-103667000D01*
X160190000Y-103667000D02*
X162589000Y-103667000D01*
X165071000Y-103707000D02*
X167509000Y-103707000D01*
X160151000Y-103707000D02*
X162589000Y-103707000D01*
X165071000Y-103747000D02*
X167546000Y-103747000D01*
X160114000Y-103747000D02*
X162589000Y-103747000D01*
X165071000Y-103787000D02*
X167583000Y-103787000D01*
X160077000Y-103787000D02*
X162589000Y-103787000D01*
X165071000Y-103827000D02*
X167619000Y-103827000D01*
X160041000Y-103827000D02*
X162589000Y-103827000D01*
X165071000Y-103867000D02*
X167654000Y-103867000D01*
X160006000Y-103867000D02*
X162589000Y-103867000D01*
X165071000Y-103907000D02*
X167688000Y-103907000D01*
X159972000Y-103907000D02*
X162589000Y-103907000D01*
X165071000Y-103947000D02*
X167722000Y-103947000D01*
X159938000Y-103947000D02*
X162589000Y-103947000D01*
X165071000Y-103987000D02*
X167755000Y-103987000D01*
X159905000Y-103987000D02*
X162589000Y-103987000D01*
X165071000Y-104027000D02*
X167787000Y-104027000D01*
X159873000Y-104027000D02*
X162589000Y-104027000D01*
X165071000Y-104067000D02*
X167819000Y-104067000D01*
X159841000Y-104067000D02*
X162589000Y-104067000D01*
X165071000Y-104107000D02*
X167850000Y-104107000D01*
X159810000Y-104107000D02*
X162589000Y-104107000D01*
X165071000Y-104147000D02*
X167880000Y-104147000D01*
X159780000Y-104147000D02*
X162589000Y-104147000D01*
X165071000Y-104187000D02*
X167910000Y-104187000D01*
X159750000Y-104187000D02*
X162589000Y-104187000D01*
X165071000Y-104227000D02*
X167940000Y-104227000D01*
X159720000Y-104227000D02*
X162589000Y-104227000D01*
X165071000Y-104267000D02*
X167968000Y-104267000D01*
X159692000Y-104267000D02*
X162589000Y-104267000D01*
X165071000Y-104307000D02*
X167996000Y-104307000D01*
X159664000Y-104307000D02*
X162589000Y-104307000D01*
X165071000Y-104347000D02*
X168024000Y-104347000D01*
X159636000Y-104347000D02*
X162589000Y-104347000D01*
X165071000Y-104387000D02*
X168051000Y-104387000D01*
X159609000Y-104387000D02*
X162589000Y-104387000D01*
X165071000Y-104427000D02*
X168077000Y-104427000D01*
X159583000Y-104427000D02*
X162589000Y-104427000D01*
X165071000Y-104467000D02*
X168103000Y-104467000D01*
X159557000Y-104467000D02*
X162589000Y-104467000D01*
X165071000Y-104507000D02*
X168128000Y-104507000D01*
X159532000Y-104507000D02*
X162589000Y-104507000D01*
X165071000Y-104547000D02*
X168153000Y-104547000D01*
X159507000Y-104547000D02*
X162589000Y-104547000D01*
X165071000Y-104587000D02*
X168177000Y-104587000D01*
X159483000Y-104587000D02*
X162589000Y-104587000D01*
X165071000Y-104627000D02*
X168201000Y-104627000D01*
X159459000Y-104627000D02*
X162589000Y-104627000D01*
X165071000Y-104667000D02*
X168225000Y-104667000D01*
X159435000Y-104667000D02*
X162589000Y-104667000D01*
X165071000Y-104707000D02*
X168247000Y-104707000D01*
X159413000Y-104707000D02*
X162589000Y-104707000D01*
X165071000Y-104747000D02*
X168270000Y-104747000D01*
X159390000Y-104747000D02*
X162589000Y-104747000D01*
X165071000Y-104787000D02*
X168292000Y-104787000D01*
X159368000Y-104787000D02*
X162589000Y-104787000D01*
X165071000Y-104827000D02*
X168313000Y-104827000D01*
X159347000Y-104827000D02*
X162589000Y-104827000D01*
X165071000Y-104867000D02*
X168334000Y-104867000D01*
X159326000Y-104867000D02*
X162589000Y-104867000D01*
X165071000Y-104907000D02*
X168355000Y-104907000D01*
X159305000Y-104907000D02*
X162589000Y-104907000D01*
X165071000Y-104947000D02*
X168375000Y-104947000D01*
X159285000Y-104947000D02*
X162589000Y-104947000D01*
X165071000Y-104987000D02*
X168394000Y-104987000D01*
X159266000Y-104987000D02*
X162589000Y-104987000D01*
X165071000Y-105027000D02*
X168414000Y-105027000D01*
X159246000Y-105027000D02*
X162589000Y-105027000D01*
X165071000Y-105067000D02*
X168433000Y-105067000D01*
X159227000Y-105067000D02*
X162589000Y-105067000D01*
X165071000Y-105107000D02*
X168451000Y-105107000D01*
X159209000Y-105107000D02*
X162589000Y-105107000D01*
X165071000Y-105147000D02*
X168469000Y-105147000D01*
X159191000Y-105147000D02*
X162589000Y-105147000D01*
X165071000Y-105187000D02*
X168487000Y-105187000D01*
X159173000Y-105187000D02*
X162589000Y-105187000D01*
X165071000Y-105227000D02*
X168504000Y-105227000D01*
X159156000Y-105227000D02*
X162589000Y-105227000D01*
X165071000Y-105267000D02*
X168520000Y-105267000D01*
X159140000Y-105267000D02*
X162589000Y-105267000D01*
X165071000Y-105307000D02*
X168537000Y-105307000D01*
X159123000Y-105307000D02*
X162589000Y-105307000D01*
X165071000Y-105347000D02*
X168553000Y-105347000D01*
X159107000Y-105347000D02*
X162589000Y-105347000D01*
X165071000Y-105387000D02*
X168568000Y-105387000D01*
X159092000Y-105387000D02*
X162589000Y-105387000D01*
X165071000Y-105427000D02*
X168584000Y-105427000D01*
X159076000Y-105427000D02*
X162589000Y-105427000D01*
X165071000Y-105467000D02*
X168598000Y-105467000D01*
X159062000Y-105467000D02*
X162589000Y-105467000D01*
X165071000Y-105507000D02*
X168613000Y-105507000D01*
X159047000Y-105507000D02*
X162589000Y-105507000D01*
X165071000Y-105547000D02*
X168627000Y-105547000D01*
X159033000Y-105547000D02*
X162589000Y-105547000D01*
X165071000Y-105587000D02*
X168641000Y-105587000D01*
X159019000Y-105587000D02*
X162589000Y-105587000D01*
X165071000Y-105627000D02*
X168654000Y-105627000D01*
X159006000Y-105627000D02*
X162589000Y-105627000D01*
X165071000Y-105667000D02*
X168667000Y-105667000D01*
X158993000Y-105667000D02*
X162589000Y-105667000D01*
X165071000Y-105707000D02*
X168680000Y-105707000D01*
X158980000Y-105707000D02*
X162589000Y-105707000D01*
X165071000Y-105747000D02*
X168692000Y-105747000D01*
X158968000Y-105747000D02*
X162589000Y-105747000D01*
X165071000Y-105787000D02*
X168704000Y-105787000D01*
X158956000Y-105787000D02*
X162589000Y-105787000D01*
X165071000Y-105827000D02*
X168715000Y-105827000D01*
X158945000Y-105827000D02*
X162589000Y-105827000D01*
X165071000Y-105867000D02*
X168727000Y-105867000D01*
X158933000Y-105867000D02*
X162589000Y-105867000D01*
X165071000Y-105907000D02*
X168737000Y-105907000D01*
X158923000Y-105907000D02*
X162589000Y-105907000D01*
X165071000Y-105947000D02*
X168748000Y-105947000D01*
X158912000Y-105947000D02*
X162589000Y-105947000D01*
X158902000Y-105987000D02*
X168758000Y-105987000D01*
X158892000Y-106027000D02*
X168768000Y-106027000D01*
X158883000Y-106067000D02*
X168777000Y-106067000D01*
X158874000Y-106107000D02*
X168786000Y-106107000D01*
X158865000Y-106147000D02*
X168795000Y-106147000D01*
X158856000Y-106187000D02*
X168804000Y-106187000D01*
X158848000Y-106227000D02*
X168812000Y-106227000D01*
X158840000Y-106267000D02*
X168820000Y-106267000D01*
X158833000Y-106307000D02*
X168827000Y-106307000D01*
X158826000Y-106347000D02*
X168834000Y-106347000D01*
X158819000Y-106387000D02*
X168841000Y-106387000D01*
X158812000Y-106427000D02*
X168848000Y-106427000D01*
X158806000Y-106467000D02*
X168854000Y-106467000D01*
X158800000Y-106507000D02*
X168860000Y-106507000D01*
X158795000Y-106548000D02*
X168865000Y-106548000D01*
X158790000Y-106588000D02*
X168870000Y-106588000D01*
X158785000Y-106628000D02*
X168875000Y-106628000D01*
X158780000Y-106668000D02*
X168880000Y-106668000D01*
X158776000Y-106708000D02*
X168884000Y-106708000D01*
X158772000Y-106748000D02*
X168888000Y-106748000D01*
X158768000Y-106788000D02*
X168892000Y-106788000D01*
X158765000Y-106828000D02*
X168895000Y-106828000D01*
X158762000Y-106868000D02*
X168898000Y-106868000D01*
X158760000Y-106908000D02*
X168900000Y-106908000D01*
X158757000Y-106948000D02*
X168903000Y-106948000D01*
X158755000Y-106988000D02*
X168905000Y-106988000D01*
X158753000Y-107028000D02*
X168907000Y-107028000D01*
X158752000Y-107068000D02*
X168908000Y-107068000D01*
X158751000Y-107108000D02*
X168909000Y-107108000D01*
X158750000Y-107148000D02*
X168910000Y-107148000D01*
X158750000Y-107188000D02*
X168910000Y-107188000D01*
X158750000Y-107228000D02*
X168910000Y-107228000D01*
X168950000Y-107228000D02*
G75*
G03*
X168950000Y-107228000I-5120000J0D01*
G01*
X135055000Y-112207646D02*
X136055000Y-112207646D01*
X135555000Y-112707646D02*
X135555000Y-111707646D01*
X137831000Y-102147000D02*
X139029000Y-102147000D01*
X137568000Y-102187000D02*
X139292000Y-102187000D01*
X137368000Y-102227000D02*
X139492000Y-102227000D01*
X137200000Y-102267000D02*
X139660000Y-102267000D01*
X137052000Y-102307000D02*
X139808000Y-102307000D01*
X136920000Y-102347000D02*
X139940000Y-102347000D01*
X136800000Y-102387000D02*
X140060000Y-102387000D01*
X136688000Y-102427000D02*
X140172000Y-102427000D01*
X136584000Y-102467000D02*
X140276000Y-102467000D01*
X136486000Y-102507000D02*
X140374000Y-102507000D01*
X136393000Y-102547000D02*
X140467000Y-102547000D01*
X136305000Y-102587000D02*
X140555000Y-102587000D01*
X136221000Y-102627000D02*
X140639000Y-102627000D01*
X136141000Y-102667000D02*
X140719000Y-102667000D01*
X136065000Y-102707000D02*
X140795000Y-102707000D01*
X135991000Y-102747000D02*
X140869000Y-102747000D01*
X135920000Y-102787000D02*
X140940000Y-102787000D01*
X135851000Y-102827000D02*
X141009000Y-102827000D01*
X135785000Y-102867000D02*
X141075000Y-102867000D01*
X135721000Y-102907000D02*
X141139000Y-102907000D01*
X135660000Y-102947000D02*
X141200000Y-102947000D01*
X135600000Y-102987000D02*
X141260000Y-102987000D01*
X135541000Y-103027000D02*
X141319000Y-103027000D01*
X135485000Y-103067000D02*
X141375000Y-103067000D01*
X135430000Y-103107000D02*
X141430000Y-103107000D01*
X135376000Y-103147000D02*
X141484000Y-103147000D01*
X135324000Y-103187000D02*
X141536000Y-103187000D01*
X135274000Y-103227000D02*
X141586000Y-103227000D01*
X135224000Y-103267000D02*
X141636000Y-103267000D01*
X135176000Y-103307000D02*
X141684000Y-103307000D01*
X135129000Y-103347000D02*
X141731000Y-103347000D01*
X135083000Y-103387000D02*
X141777000Y-103387000D01*
X135038000Y-103427000D02*
X141822000Y-103427000D01*
X134994000Y-103467000D02*
X141866000Y-103467000D01*
X139671000Y-103507000D02*
X141908000Y-103507000D01*
X134952000Y-103507000D02*
X137189000Y-103507000D01*
X139671000Y-103547000D02*
X141950000Y-103547000D01*
X134910000Y-103547000D02*
X137189000Y-103547000D01*
X139671000Y-103587000D02*
X141991000Y-103587000D01*
X134869000Y-103587000D02*
X137189000Y-103587000D01*
X139671000Y-103627000D02*
X142031000Y-103627000D01*
X134829000Y-103627000D02*
X137189000Y-103627000D01*
X139671000Y-103667000D02*
X142070000Y-103667000D01*
X134790000Y-103667000D02*
X137189000Y-103667000D01*
X139671000Y-103707000D02*
X142109000Y-103707000D01*
X134751000Y-103707000D02*
X137189000Y-103707000D01*
X139671000Y-103747000D02*
X142146000Y-103747000D01*
X134714000Y-103747000D02*
X137189000Y-103747000D01*
X139671000Y-103787000D02*
X142183000Y-103787000D01*
X134677000Y-103787000D02*
X137189000Y-103787000D01*
X139671000Y-103827000D02*
X142219000Y-103827000D01*
X134641000Y-103827000D02*
X137189000Y-103827000D01*
X139671000Y-103867000D02*
X142254000Y-103867000D01*
X134606000Y-103867000D02*
X137189000Y-103867000D01*
X139671000Y-103907000D02*
X142288000Y-103907000D01*
X134572000Y-103907000D02*
X137189000Y-103907000D01*
X139671000Y-103947000D02*
X142322000Y-103947000D01*
X134538000Y-103947000D02*
X137189000Y-103947000D01*
X139671000Y-103987000D02*
X142355000Y-103987000D01*
X134505000Y-103987000D02*
X137189000Y-103987000D01*
X139671000Y-104027000D02*
X142387000Y-104027000D01*
X134473000Y-104027000D02*
X137189000Y-104027000D01*
X139671000Y-104067000D02*
X142419000Y-104067000D01*
X134441000Y-104067000D02*
X137189000Y-104067000D01*
X139671000Y-104107000D02*
X142450000Y-104107000D01*
X134410000Y-104107000D02*
X137189000Y-104107000D01*
X139671000Y-104147000D02*
X142480000Y-104147000D01*
X134380000Y-104147000D02*
X137189000Y-104147000D01*
X139671000Y-104187000D02*
X142510000Y-104187000D01*
X134350000Y-104187000D02*
X137189000Y-104187000D01*
X139671000Y-104227000D02*
X142540000Y-104227000D01*
X134320000Y-104227000D02*
X137189000Y-104227000D01*
X139671000Y-104267000D02*
X142568000Y-104267000D01*
X134292000Y-104267000D02*
X137189000Y-104267000D01*
X139671000Y-104307000D02*
X142596000Y-104307000D01*
X134264000Y-104307000D02*
X137189000Y-104307000D01*
X139671000Y-104347000D02*
X142624000Y-104347000D01*
X134236000Y-104347000D02*
X137189000Y-104347000D01*
X139671000Y-104387000D02*
X142651000Y-104387000D01*
X134209000Y-104387000D02*
X137189000Y-104387000D01*
X139671000Y-104427000D02*
X142677000Y-104427000D01*
X134183000Y-104427000D02*
X137189000Y-104427000D01*
X139671000Y-104467000D02*
X142703000Y-104467000D01*
X134157000Y-104467000D02*
X137189000Y-104467000D01*
X139671000Y-104507000D02*
X142728000Y-104507000D01*
X134132000Y-104507000D02*
X137189000Y-104507000D01*
X139671000Y-104547000D02*
X142753000Y-104547000D01*
X134107000Y-104547000D02*
X137189000Y-104547000D01*
X139671000Y-104587000D02*
X142777000Y-104587000D01*
X134083000Y-104587000D02*
X137189000Y-104587000D01*
X139671000Y-104627000D02*
X142801000Y-104627000D01*
X134059000Y-104627000D02*
X137189000Y-104627000D01*
X139671000Y-104667000D02*
X142825000Y-104667000D01*
X134035000Y-104667000D02*
X137189000Y-104667000D01*
X139671000Y-104707000D02*
X142847000Y-104707000D01*
X134013000Y-104707000D02*
X137189000Y-104707000D01*
X139671000Y-104747000D02*
X142870000Y-104747000D01*
X133990000Y-104747000D02*
X137189000Y-104747000D01*
X139671000Y-104787000D02*
X142892000Y-104787000D01*
X133968000Y-104787000D02*
X137189000Y-104787000D01*
X139671000Y-104827000D02*
X142913000Y-104827000D01*
X133947000Y-104827000D02*
X137189000Y-104827000D01*
X139671000Y-104867000D02*
X142934000Y-104867000D01*
X133926000Y-104867000D02*
X137189000Y-104867000D01*
X139671000Y-104907000D02*
X142955000Y-104907000D01*
X133905000Y-104907000D02*
X137189000Y-104907000D01*
X139671000Y-104947000D02*
X142975000Y-104947000D01*
X133885000Y-104947000D02*
X137189000Y-104947000D01*
X139671000Y-104987000D02*
X142994000Y-104987000D01*
X133866000Y-104987000D02*
X137189000Y-104987000D01*
X139671000Y-105027000D02*
X143014000Y-105027000D01*
X133846000Y-105027000D02*
X137189000Y-105027000D01*
X139671000Y-105067000D02*
X143033000Y-105067000D01*
X133827000Y-105067000D02*
X137189000Y-105067000D01*
X139671000Y-105107000D02*
X143051000Y-105107000D01*
X133809000Y-105107000D02*
X137189000Y-105107000D01*
X139671000Y-105147000D02*
X143069000Y-105147000D01*
X133791000Y-105147000D02*
X137189000Y-105147000D01*
X139671000Y-105187000D02*
X143087000Y-105187000D01*
X133773000Y-105187000D02*
X137189000Y-105187000D01*
X139671000Y-105227000D02*
X143104000Y-105227000D01*
X133756000Y-105227000D02*
X137189000Y-105227000D01*
X139671000Y-105267000D02*
X143120000Y-105267000D01*
X133740000Y-105267000D02*
X137189000Y-105267000D01*
X139671000Y-105307000D02*
X143137000Y-105307000D01*
X133723000Y-105307000D02*
X137189000Y-105307000D01*
X139671000Y-105347000D02*
X143153000Y-105347000D01*
X133707000Y-105347000D02*
X137189000Y-105347000D01*
X139671000Y-105387000D02*
X143168000Y-105387000D01*
X133692000Y-105387000D02*
X137189000Y-105387000D01*
X139671000Y-105427000D02*
X143184000Y-105427000D01*
X133676000Y-105427000D02*
X137189000Y-105427000D01*
X139671000Y-105467000D02*
X143198000Y-105467000D01*
X133662000Y-105467000D02*
X137189000Y-105467000D01*
X139671000Y-105507000D02*
X143213000Y-105507000D01*
X133647000Y-105507000D02*
X137189000Y-105507000D01*
X139671000Y-105547000D02*
X143227000Y-105547000D01*
X133633000Y-105547000D02*
X137189000Y-105547000D01*
X139671000Y-105587000D02*
X143241000Y-105587000D01*
X133619000Y-105587000D02*
X137189000Y-105587000D01*
X139671000Y-105627000D02*
X143254000Y-105627000D01*
X133606000Y-105627000D02*
X137189000Y-105627000D01*
X139671000Y-105667000D02*
X143267000Y-105667000D01*
X133593000Y-105667000D02*
X137189000Y-105667000D01*
X139671000Y-105707000D02*
X143280000Y-105707000D01*
X133580000Y-105707000D02*
X137189000Y-105707000D01*
X139671000Y-105747000D02*
X143292000Y-105747000D01*
X133568000Y-105747000D02*
X137189000Y-105747000D01*
X139671000Y-105787000D02*
X143304000Y-105787000D01*
X133556000Y-105787000D02*
X137189000Y-105787000D01*
X139671000Y-105827000D02*
X143315000Y-105827000D01*
X133545000Y-105827000D02*
X137189000Y-105827000D01*
X139671000Y-105867000D02*
X143327000Y-105867000D01*
X133533000Y-105867000D02*
X137189000Y-105867000D01*
X139671000Y-105907000D02*
X143337000Y-105907000D01*
X133523000Y-105907000D02*
X137189000Y-105907000D01*
X139671000Y-105947000D02*
X143348000Y-105947000D01*
X133512000Y-105947000D02*
X137189000Y-105947000D01*
X133502000Y-105987000D02*
X143358000Y-105987000D01*
X133492000Y-106027000D02*
X143368000Y-106027000D01*
X133483000Y-106067000D02*
X143377000Y-106067000D01*
X133474000Y-106107000D02*
X143386000Y-106107000D01*
X133465000Y-106147000D02*
X143395000Y-106147000D01*
X133456000Y-106187000D02*
X143404000Y-106187000D01*
X133448000Y-106227000D02*
X143412000Y-106227000D01*
X133440000Y-106267000D02*
X143420000Y-106267000D01*
X133433000Y-106307000D02*
X143427000Y-106307000D01*
X133426000Y-106347000D02*
X143434000Y-106347000D01*
X133419000Y-106387000D02*
X143441000Y-106387000D01*
X133412000Y-106427000D02*
X143448000Y-106427000D01*
X133406000Y-106467000D02*
X143454000Y-106467000D01*
X133400000Y-106507000D02*
X143460000Y-106507000D01*
X133395000Y-106548000D02*
X143465000Y-106548000D01*
X133390000Y-106588000D02*
X143470000Y-106588000D01*
X133385000Y-106628000D02*
X143475000Y-106628000D01*
X133380000Y-106668000D02*
X143480000Y-106668000D01*
X133376000Y-106708000D02*
X143484000Y-106708000D01*
X133372000Y-106748000D02*
X143488000Y-106748000D01*
X133368000Y-106788000D02*
X143492000Y-106788000D01*
X133365000Y-106828000D02*
X143495000Y-106828000D01*
X133362000Y-106868000D02*
X143498000Y-106868000D01*
X133360000Y-106908000D02*
X143500000Y-106908000D01*
X133357000Y-106948000D02*
X143503000Y-106948000D01*
X133355000Y-106988000D02*
X143505000Y-106988000D01*
X133353000Y-107028000D02*
X143507000Y-107028000D01*
X133352000Y-107068000D02*
X143508000Y-107068000D01*
X133351000Y-107108000D02*
X143509000Y-107108000D01*
X133350000Y-107148000D02*
X143510000Y-107148000D01*
X133350000Y-107188000D02*
X143510000Y-107188000D01*
X133350000Y-107228000D02*
X143510000Y-107228000D01*
X143550000Y-107228000D02*
G75*
G03*
X143550000Y-107228000I-5120000J0D01*
G01*
X162750000Y-74640000D02*
X162594000Y-74640000D01*
X165066000Y-74640000D02*
X164910000Y-74640000D01*
X162750163Y-77241130D02*
G75*
G02*
X162750000Y-75159039I1079837J1041130D01*
G01*
X164909837Y-77241130D02*
G75*
G03*
X164910000Y-75159039I-1079837J1041130D01*
G01*
X162751392Y-77872335D02*
G75*
G02*
X162594484Y-74640000I1078608J1672335D01*
G01*
X164908608Y-77872335D02*
G75*
G03*
X165065516Y-74640000I-1078608J1672335D01*
G01*
X157670000Y-74640000D02*
X157514000Y-74640000D01*
X159986000Y-74640000D02*
X159830000Y-74640000D01*
X157670163Y-77241130D02*
G75*
G02*
X157670000Y-75159039I1079837J1041130D01*
G01*
X159829837Y-77241130D02*
G75*
G03*
X159830000Y-75159039I-1079837J1041130D01*
G01*
X157671392Y-77872335D02*
G75*
G02*
X157514484Y-74640000I1078608J1672335D01*
G01*
X159828608Y-77872335D02*
G75*
G03*
X159985516Y-74640000I-1078608J1672335D01*
G01*
X152590000Y-74640000D02*
X152434000Y-74640000D01*
X154906000Y-74640000D02*
X154750000Y-74640000D01*
X152590163Y-77241130D02*
G75*
G02*
X152590000Y-75159039I1079837J1041130D01*
G01*
X154749837Y-77241130D02*
G75*
G03*
X154750000Y-75159039I-1079837J1041130D01*
G01*
X152591392Y-77872335D02*
G75*
G02*
X152434484Y-74640000I1078608J1672335D01*
G01*
X154748608Y-77872335D02*
G75*
G03*
X154905516Y-74640000I-1078608J1672335D01*
G01*
X140010000Y-75450000D02*
X140010000Y-76950000D01*
X141260000Y-79450000D02*
X145760000Y-79450000D01*
X147010000Y-76950000D02*
X147010000Y-75450000D01*
X145760000Y-72950000D02*
X141260000Y-72950000D01*
X165735000Y-85312333D02*
X167005000Y-85312333D01*
X166935000Y-86519000D02*
X166935000Y-85312333D01*
X166815000Y-86519000D02*
X166815000Y-85312333D01*
X166695000Y-86519000D02*
X166695000Y-85312333D01*
X166575000Y-86519000D02*
X166575000Y-85312333D01*
X166455000Y-86519000D02*
X166455000Y-85312333D01*
X166335000Y-86519000D02*
X166335000Y-85312333D01*
X166215000Y-86519000D02*
X166215000Y-85312333D01*
X166095000Y-86519000D02*
X166095000Y-85312333D01*
X165975000Y-86519000D02*
X165975000Y-85312333D01*
X165855000Y-86519000D02*
X165855000Y-85312333D01*
X165735000Y-82899000D02*
X165735000Y-86519000D01*
X167005000Y-82899000D02*
X165735000Y-82899000D01*
X167005000Y-86519000D02*
X167005000Y-82899000D01*
X165735000Y-86519000D02*
X167005000Y-86519000D01*
X163195000Y-85312333D02*
X164465000Y-85312333D01*
X164395000Y-86519000D02*
X164395000Y-85312333D01*
X164275000Y-86519000D02*
X164275000Y-85312333D01*
X164155000Y-86519000D02*
X164155000Y-85312333D01*
X164035000Y-86519000D02*
X164035000Y-85312333D01*
X163915000Y-86519000D02*
X163915000Y-85312333D01*
X163795000Y-86519000D02*
X163795000Y-85312333D01*
X163675000Y-86519000D02*
X163675000Y-85312333D01*
X163555000Y-86519000D02*
X163555000Y-85312333D01*
X163435000Y-86519000D02*
X163435000Y-85312333D01*
X163315000Y-86519000D02*
X163315000Y-85312333D01*
X163195000Y-82899000D02*
X163195000Y-86519000D01*
X164465000Y-82899000D02*
X163195000Y-82899000D01*
X164465000Y-86519000D02*
X164465000Y-82899000D01*
X163195000Y-86519000D02*
X164465000Y-86519000D01*
X160655000Y-85312333D02*
X161925000Y-85312333D01*
X161855000Y-86519000D02*
X161855000Y-85312333D01*
X161735000Y-86519000D02*
X161735000Y-85312333D01*
X161615000Y-86519000D02*
X161615000Y-85312333D01*
X161495000Y-86519000D02*
X161495000Y-85312333D01*
X161375000Y-86519000D02*
X161375000Y-85312333D01*
X161255000Y-86519000D02*
X161255000Y-85312333D01*
X161135000Y-86519000D02*
X161135000Y-85312333D01*
X161015000Y-86519000D02*
X161015000Y-85312333D01*
X160895000Y-86519000D02*
X160895000Y-85312333D01*
X160775000Y-86519000D02*
X160775000Y-85312333D01*
X160655000Y-82899000D02*
X160655000Y-86519000D01*
X161925000Y-82899000D02*
X160655000Y-82899000D01*
X161925000Y-86519000D02*
X161925000Y-82899000D01*
X160655000Y-86519000D02*
X161925000Y-86519000D01*
X158115000Y-85312333D02*
X159385000Y-85312333D01*
X159315000Y-86519000D02*
X159315000Y-85312333D01*
X159195000Y-86519000D02*
X159195000Y-85312333D01*
X159075000Y-86519000D02*
X159075000Y-85312333D01*
X158955000Y-86519000D02*
X158955000Y-85312333D01*
X158835000Y-86519000D02*
X158835000Y-85312333D01*
X158715000Y-86519000D02*
X158715000Y-85312333D01*
X158595000Y-86519000D02*
X158595000Y-85312333D01*
X158475000Y-86519000D02*
X158475000Y-85312333D01*
X158355000Y-86519000D02*
X158355000Y-85312333D01*
X158235000Y-86519000D02*
X158235000Y-85312333D01*
X158115000Y-82899000D02*
X158115000Y-86519000D01*
X159385000Y-82899000D02*
X158115000Y-82899000D01*
X159385000Y-86519000D02*
X159385000Y-82899000D01*
X158115000Y-86519000D02*
X159385000Y-86519000D01*
X155575000Y-85312333D02*
X156845000Y-85312333D01*
X156775000Y-86519000D02*
X156775000Y-85312333D01*
X156655000Y-86519000D02*
X156655000Y-85312333D01*
X156535000Y-86519000D02*
X156535000Y-85312333D01*
X156415000Y-86519000D02*
X156415000Y-85312333D01*
X156295000Y-86519000D02*
X156295000Y-85312333D01*
X156175000Y-86519000D02*
X156175000Y-85312333D01*
X156055000Y-86519000D02*
X156055000Y-85312333D01*
X155935000Y-86519000D02*
X155935000Y-85312333D01*
X155815000Y-86519000D02*
X155815000Y-85312333D01*
X155695000Y-86519000D02*
X155695000Y-85312333D01*
X155575000Y-82899000D02*
X155575000Y-86519000D01*
X156845000Y-82899000D02*
X155575000Y-82899000D01*
X156845000Y-86519000D02*
X156845000Y-82899000D01*
X155575000Y-86519000D02*
X156845000Y-86519000D01*
X153860000Y-88359000D02*
X155170000Y-88359000D01*
X153860000Y-88359000D02*
X153860000Y-86976000D01*
X157200000Y-81298000D02*
X157761000Y-81298000D01*
X154100000Y-81298000D02*
X155220000Y-81298000D01*
X159740000Y-81298000D02*
X160301000Y-81298000D01*
X162280000Y-81298000D02*
X162841000Y-81298000D01*
X164820000Y-81298000D02*
X165380000Y-81298000D01*
X167360000Y-81298000D02*
X168481000Y-81298000D01*
X167360000Y-88119000D02*
X168481000Y-88119000D01*
X164820000Y-88119000D02*
X165380000Y-88119000D01*
X162280000Y-88119000D02*
X162841000Y-88119000D01*
X159740000Y-88119000D02*
X160301000Y-88119000D01*
X157250000Y-88119000D02*
X157761000Y-88119000D01*
X154100000Y-88119000D02*
X155170000Y-88119000D01*
X168481000Y-88119000D02*
X168481000Y-81298000D01*
X154100000Y-88119000D02*
X154100000Y-81298000D01*
X167830000Y-74640000D02*
X167674000Y-74640000D01*
X170146000Y-74640000D02*
X169990000Y-74640000D01*
X167830163Y-77241130D02*
G75*
G02*
X167830000Y-75159039I1079837J1041130D01*
G01*
X169989837Y-77241130D02*
G75*
G03*
X169990000Y-75159039I-1079837J1041130D01*
G01*
X167831392Y-77872335D02*
G75*
G02*
X167674484Y-74640000I1078608J1672335D01*
G01*
X169988608Y-77872335D02*
G75*
G03*
X170145516Y-74640000I-1078608J1672335D01*
G01*
X173250000Y-94970000D02*
X171600000Y-93320000D01*
X171600000Y-83520000D02*
X173250000Y-81870000D01*
X171600000Y-83520000D02*
X171600000Y-85420000D01*
X171600000Y-93320000D02*
X171600000Y-91420000D01*
X178850000Y-94970000D02*
X180200000Y-93820000D01*
X178850000Y-81870000D02*
X180200000Y-83020000D01*
X180697607Y-90924098D02*
G75*
G02*
X180200000Y-93820000I-2297607J-1095902D01*
G01*
X180696458Y-85918306D02*
G75*
G03*
X180200000Y-83020000I-2296458J1098306D01*
G01*
X132270000Y-74640000D02*
X132114000Y-74640000D01*
X134586000Y-74640000D02*
X134430000Y-74640000D01*
X132270163Y-77241130D02*
G75*
G02*
X132270000Y-75159039I1079837J1041130D01*
G01*
X134429837Y-77241130D02*
G75*
G03*
X134430000Y-75159039I-1079837J1041130D01*
G01*
X132271392Y-77872335D02*
G75*
G02*
X132114484Y-74640000I1078608J1672335D01*
G01*
X134428608Y-77872335D02*
G75*
G03*
X134585516Y-74640000I-1078608J1672335D01*
G01*
X172940000Y-138100000D02*
X161380000Y-138100000D01*
X172940000Y-150200000D02*
X161380000Y-150200000D01*
X172940000Y-150200000D02*
X172940000Y-138100000D01*
X161380000Y-150200000D02*
X161380000Y-138100000D01*
X172240000Y-150200000D02*
X172240000Y-158900000D01*
X162080000Y-150200000D02*
X162080000Y-158900000D01*
X172240000Y-158900000D02*
X162080000Y-158900000D01*
X171450000Y-153600000D02*
G75*
G03*
X171450000Y-153600000I-1750000J0D01*
G01*
X166370000Y-153600000D02*
G75*
G03*
X166370000Y-153600000I-1750000J0D01*
G01*
X171300000Y-154100000D02*
X168100000Y-154100000D01*
X171300000Y-153100000D02*
X168100000Y-153100000D01*
X166220000Y-153100000D02*
X163020000Y-153100000D01*
X166220000Y-154100000D02*
X163020000Y-154100000D01*
X167160000Y-150200000D02*
X167160000Y-146100000D01*
X165660000Y-150200000D02*
X165660000Y-146100000D01*
X167160000Y-146100000D02*
X165660000Y-146100000D01*
X161380000Y-147300000D02*
X165660000Y-147300000D01*
X167160000Y-147300000D02*
X172940000Y-147300000D01*
D11*
X177661523Y-65254380D02*
X177328190Y-64778190D01*
X177090095Y-65254380D02*
X177090095Y-64254380D01*
X177471047Y-64254380D01*
X177566285Y-64302000D01*
X177613904Y-64349619D01*
X177661523Y-64444857D01*
X177661523Y-64587714D01*
X177613904Y-64682952D01*
X177566285Y-64730571D01*
X177471047Y-64778190D01*
X177090095Y-64778190D01*
X177613904Y-62302000D02*
X177518666Y-62254380D01*
X177375809Y-62254380D01*
X177232952Y-62302000D01*
X177137714Y-62397238D01*
X177090095Y-62492476D01*
X177042476Y-62682952D01*
X177042476Y-62825809D01*
X177090095Y-63016285D01*
X177137714Y-63111523D01*
X177232952Y-63206761D01*
X177375809Y-63254380D01*
X177471047Y-63254380D01*
X177613904Y-63206761D01*
X177661523Y-63159142D01*
X177661523Y-62825809D01*
X177471047Y-62825809D01*
X176923428Y-58254380D02*
X177161523Y-59254380D01*
X177352000Y-58540095D01*
X177542476Y-59254380D01*
X177780571Y-58254380D01*
X176971047Y-66873428D02*
X177732952Y-66873428D01*
X177352000Y-67254380D02*
X177352000Y-66492476D01*
X177423428Y-60630571D02*
X177566285Y-60678190D01*
X177613904Y-60725809D01*
X177661523Y-60821047D01*
X177661523Y-60963904D01*
X177613904Y-61059142D01*
X177566285Y-61106761D01*
X177471047Y-61154380D01*
X177090095Y-61154380D01*
X177090095Y-60154380D01*
X177423428Y-60154380D01*
X177518666Y-60202000D01*
X177566285Y-60249619D01*
X177613904Y-60344857D01*
X177613904Y-60440095D01*
X177566285Y-60535333D01*
X177518666Y-60582952D01*
X177423428Y-60630571D01*
X177090095Y-60630571D01*
X129730714Y-125817380D02*
X129730714Y-126626904D01*
X129778333Y-126722142D01*
X129825952Y-126769761D01*
X129921190Y-126817380D01*
X130111666Y-126817380D01*
X130206904Y-126769761D01*
X130254523Y-126722142D01*
X130302142Y-126626904D01*
X130302142Y-125817380D01*
X131206904Y-126150714D02*
X131206904Y-126817380D01*
X130968809Y-125769761D02*
X130730714Y-126484047D01*
X131349761Y-126484047D01*
X131921190Y-125817380D02*
X132016428Y-125817380D01*
X132111666Y-125865000D01*
X132159285Y-125912619D01*
X132206904Y-126007857D01*
X132254523Y-126198333D01*
X132254523Y-126436428D01*
X132206904Y-126626904D01*
X132159285Y-126722142D01*
X132111666Y-126769761D01*
X132016428Y-126817380D01*
X131921190Y-126817380D01*
X131825952Y-126769761D01*
X131778333Y-126722142D01*
X131730714Y-126626904D01*
X131683095Y-126436428D01*
X131683095Y-126198333D01*
X131730714Y-126007857D01*
X131778333Y-125912619D01*
X131825952Y-125865000D01*
X131921190Y-125817380D01*
X132635476Y-125912619D02*
X132683095Y-125865000D01*
X132778333Y-125817380D01*
X133016428Y-125817380D01*
X133111666Y-125865000D01*
X133159285Y-125912619D01*
X133206904Y-126007857D01*
X133206904Y-126103095D01*
X133159285Y-126245952D01*
X132587857Y-126817380D01*
X133206904Y-126817380D01*
X161691129Y-59141920D02*
X162196205Y-59646996D01*
X162330892Y-59714339D01*
X162465579Y-59714339D01*
X162600266Y-59646996D01*
X162667610Y-59579652D01*
X161691129Y-60556133D02*
X162095190Y-60152072D01*
X161893160Y-60354103D02*
X161186053Y-59646996D01*
X161354412Y-59680668D01*
X161489099Y-59680668D01*
X161590114Y-59646996D01*
X160546290Y-60286759D02*
X160478946Y-60354103D01*
X160445274Y-60455118D01*
X160445274Y-60522461D01*
X160478946Y-60623477D01*
X160579961Y-60791835D01*
X160748320Y-60960194D01*
X160916679Y-61061209D01*
X161017694Y-61094881D01*
X161085038Y-61094881D01*
X161186053Y-61061209D01*
X161253396Y-60993866D01*
X161287068Y-60892851D01*
X161287068Y-60825507D01*
X161253396Y-60724492D01*
X161152381Y-60556133D01*
X160984022Y-60387774D01*
X160815664Y-60286759D01*
X160714648Y-60253087D01*
X160647305Y-60253087D01*
X160546290Y-60286759D01*
X159872855Y-60960194D02*
X159805511Y-61027538D01*
X159771839Y-61128553D01*
X159771839Y-61195896D01*
X159805511Y-61296912D01*
X159906526Y-61465270D01*
X160074885Y-61633629D01*
X160243244Y-61734644D01*
X160344259Y-61768316D01*
X160411603Y-61768316D01*
X160512618Y-61734644D01*
X160579961Y-61667301D01*
X160613633Y-61566286D01*
X160613633Y-61498942D01*
X160579961Y-61397927D01*
X160478946Y-61229568D01*
X160310587Y-61061209D01*
X160142229Y-60960194D01*
X160041213Y-60926522D01*
X159973870Y-60926522D01*
X159872855Y-60960194D01*
X159435122Y-61532614D02*
X159367778Y-61532614D01*
X159266763Y-61566286D01*
X159098404Y-61734644D01*
X159064733Y-61835660D01*
X159064733Y-61903003D01*
X159098404Y-62004018D01*
X159165748Y-62071362D01*
X159300435Y-62138705D01*
X160108557Y-62138705D01*
X159670824Y-62576438D01*
X126198380Y-91775238D02*
X126912666Y-91775238D01*
X127055523Y-91822857D01*
X127150761Y-91918095D01*
X127198380Y-92060952D01*
X127198380Y-92156190D01*
X126198380Y-91394285D02*
X126198380Y-90727619D01*
X127198380Y-91156190D01*
X126198380Y-90156190D02*
X126198380Y-90060952D01*
X126246000Y-89965714D01*
X126293619Y-89918095D01*
X126388857Y-89870476D01*
X126579333Y-89822857D01*
X126817428Y-89822857D01*
X127007904Y-89870476D01*
X127103142Y-89918095D01*
X127150761Y-89965714D01*
X127198380Y-90060952D01*
X127198380Y-90156190D01*
X127150761Y-90251428D01*
X127103142Y-90299047D01*
X127007904Y-90346666D01*
X126817428Y-90394285D01*
X126579333Y-90394285D01*
X126388857Y-90346666D01*
X126293619Y-90299047D01*
X126246000Y-90251428D01*
X126198380Y-90156190D01*
X127198380Y-88870476D02*
X127198380Y-89441904D01*
X127198380Y-89156190D02*
X126198380Y-89156190D01*
X126341238Y-89251428D01*
X126436476Y-89346666D01*
X126484095Y-89441904D01*
X121474666Y-90789833D02*
X120774666Y-90789833D01*
X121441333Y-90489833D02*
X121474666Y-90389833D01*
X121474666Y-90223166D01*
X121441333Y-90156500D01*
X121408000Y-90123166D01*
X121341333Y-90089833D01*
X121274666Y-90089833D01*
X121208000Y-90123166D01*
X121174666Y-90156500D01*
X121141333Y-90223166D01*
X121108000Y-90356500D01*
X121074666Y-90423166D01*
X121041333Y-90456500D01*
X120974666Y-90489833D01*
X120908000Y-90489833D01*
X120841333Y-90456500D01*
X120808000Y-90423166D01*
X120774666Y-90356500D01*
X120774666Y-90189833D01*
X120808000Y-90089833D01*
X121474666Y-89789833D02*
X120774666Y-89789833D01*
X120774666Y-89523166D01*
X120808000Y-89456500D01*
X120841333Y-89423166D01*
X120908000Y-89389833D01*
X121008000Y-89389833D01*
X121074666Y-89423166D01*
X121108000Y-89456500D01*
X121141333Y-89523166D01*
X121141333Y-89789833D01*
X123200166Y-92061500D02*
X123733500Y-92061500D01*
X123466833Y-92328166D02*
X123466833Y-91794833D01*
X124400166Y-91628166D02*
X124066833Y-91628166D01*
X124033500Y-91961500D01*
X124066833Y-91928166D01*
X124133500Y-91894833D01*
X124300166Y-91894833D01*
X124366833Y-91928166D01*
X124400166Y-91961500D01*
X124433500Y-92028166D01*
X124433500Y-92194833D01*
X124400166Y-92261500D01*
X124366833Y-92294833D01*
X124300166Y-92328166D01*
X124133500Y-92328166D01*
X124066833Y-92294833D01*
X124033500Y-92261500D01*
X124633500Y-91628166D02*
X124866833Y-92328166D01*
X125100166Y-91628166D01*
X123166833Y-91024833D02*
X123266833Y-91058166D01*
X123433500Y-91058166D01*
X123500166Y-91024833D01*
X123533500Y-90991500D01*
X123566833Y-90924833D01*
X123566833Y-90858166D01*
X123533500Y-90791500D01*
X123500166Y-90758166D01*
X123433500Y-90724833D01*
X123300166Y-90691500D01*
X123233500Y-90658166D01*
X123200166Y-90624833D01*
X123166833Y-90558166D01*
X123166833Y-90491500D01*
X123200166Y-90424833D01*
X123233500Y-90391500D01*
X123300166Y-90358166D01*
X123466833Y-90358166D01*
X123566833Y-90391500D01*
X124266833Y-90991500D02*
X124233500Y-91024833D01*
X124133500Y-91058166D01*
X124066833Y-91058166D01*
X123966833Y-91024833D01*
X123900166Y-90958166D01*
X123866833Y-90891500D01*
X123833500Y-90758166D01*
X123833500Y-90658166D01*
X123866833Y-90524833D01*
X123900166Y-90458166D01*
X123966833Y-90391500D01*
X124066833Y-90358166D01*
X124133500Y-90358166D01*
X124233500Y-90391500D01*
X124266833Y-90424833D01*
X124566833Y-91058166D02*
X124566833Y-90358166D01*
X124966833Y-91058166D02*
X124666833Y-90658166D01*
X124966833Y-90358166D02*
X124566833Y-90758166D01*
X123033500Y-87502500D02*
X123733500Y-87502500D01*
X123600166Y-88518166D02*
X123366833Y-88184833D01*
X123200166Y-88518166D02*
X123200166Y-87818166D01*
X123466833Y-87818166D01*
X123533500Y-87851500D01*
X123566833Y-87884833D01*
X123600166Y-87951500D01*
X123600166Y-88051500D01*
X123566833Y-88118166D01*
X123533500Y-88151500D01*
X123466833Y-88184833D01*
X123200166Y-88184833D01*
X123733500Y-87502500D02*
X124333500Y-87502500D01*
X124166833Y-88484833D02*
X124100166Y-88518166D01*
X123966833Y-88518166D01*
X123900166Y-88484833D01*
X123866833Y-88418166D01*
X123866833Y-88151500D01*
X123900166Y-88084833D01*
X123966833Y-88051500D01*
X124100166Y-88051500D01*
X124166833Y-88084833D01*
X124200166Y-88151500D01*
X124200166Y-88218166D01*
X123866833Y-88284833D01*
X124333500Y-87502500D02*
X124900166Y-87502500D01*
X124466833Y-88484833D02*
X124533500Y-88518166D01*
X124666833Y-88518166D01*
X124733500Y-88484833D01*
X124766833Y-88418166D01*
X124766833Y-88384833D01*
X124733500Y-88318166D01*
X124666833Y-88284833D01*
X124566833Y-88284833D01*
X124500166Y-88251500D01*
X124466833Y-88184833D01*
X124466833Y-88151500D01*
X124500166Y-88084833D01*
X124566833Y-88051500D01*
X124666833Y-88051500D01*
X124733500Y-88084833D01*
X124900166Y-87502500D02*
X125500166Y-87502500D01*
X125333500Y-88484833D02*
X125266833Y-88518166D01*
X125133500Y-88518166D01*
X125066833Y-88484833D01*
X125033500Y-88418166D01*
X125033500Y-88151500D01*
X125066833Y-88084833D01*
X125133500Y-88051500D01*
X125266833Y-88051500D01*
X125333500Y-88084833D01*
X125366833Y-88151500D01*
X125366833Y-88218166D01*
X125033500Y-88284833D01*
X125500166Y-87502500D02*
X125900166Y-87502500D01*
X125566833Y-88051500D02*
X125833500Y-88051500D01*
X125666833Y-87818166D02*
X125666833Y-88418166D01*
X125700166Y-88484833D01*
X125766833Y-88518166D01*
X125833500Y-88518166D01*
X123200166Y-89788166D02*
X123200166Y-89088166D01*
X123433500Y-89588166D01*
X123666833Y-89088166D01*
X123666833Y-89788166D01*
X124133500Y-89088166D02*
X124266833Y-89088166D01*
X124333500Y-89121500D01*
X124400166Y-89188166D01*
X124433500Y-89321500D01*
X124433500Y-89554833D01*
X124400166Y-89688166D01*
X124333500Y-89754833D01*
X124266833Y-89788166D01*
X124133500Y-89788166D01*
X124066833Y-89754833D01*
X124000166Y-89688166D01*
X123966833Y-89554833D01*
X123966833Y-89321500D01*
X124000166Y-89188166D01*
X124066833Y-89121500D01*
X124133500Y-89088166D01*
X124700166Y-89754833D02*
X124800166Y-89788166D01*
X124966833Y-89788166D01*
X125033500Y-89754833D01*
X125066833Y-89721500D01*
X125100166Y-89654833D01*
X125100166Y-89588166D01*
X125066833Y-89521500D01*
X125033500Y-89488166D01*
X124966833Y-89454833D01*
X124833500Y-89421500D01*
X124766833Y-89388166D01*
X124733500Y-89354833D01*
X124700166Y-89288166D01*
X124700166Y-89221500D01*
X124733500Y-89154833D01*
X124766833Y-89121500D01*
X124833500Y-89088166D01*
X125000166Y-89088166D01*
X125100166Y-89121500D01*
X125400166Y-89788166D02*
X125400166Y-89088166D01*
X123200166Y-93598166D02*
X123200166Y-92898166D01*
X123433500Y-93398166D01*
X123666833Y-92898166D01*
X123666833Y-93598166D01*
X124000166Y-93598166D02*
X124000166Y-92898166D01*
X124300166Y-93564833D02*
X124400166Y-93598166D01*
X124566833Y-93598166D01*
X124633500Y-93564833D01*
X124666833Y-93531500D01*
X124700166Y-93464833D01*
X124700166Y-93398166D01*
X124666833Y-93331500D01*
X124633500Y-93298166D01*
X124566833Y-93264833D01*
X124433500Y-93231500D01*
X124366833Y-93198166D01*
X124333500Y-93164833D01*
X124300166Y-93098166D01*
X124300166Y-93031500D01*
X124333500Y-92964833D01*
X124366833Y-92931500D01*
X124433500Y-92898166D01*
X124600166Y-92898166D01*
X124700166Y-92931500D01*
X125133500Y-92898166D02*
X125266833Y-92898166D01*
X125333500Y-92931500D01*
X125400166Y-92998166D01*
X125433500Y-93131500D01*
X125433500Y-93364833D01*
X125400166Y-93498166D01*
X125333500Y-93564833D01*
X125266833Y-93598166D01*
X125133500Y-93598166D01*
X125066833Y-93564833D01*
X125000166Y-93498166D01*
X124966833Y-93364833D01*
X124966833Y-93131500D01*
X125000166Y-92998166D01*
X125066833Y-92931500D01*
X125133500Y-92898166D01*
X123566833Y-86581500D02*
X123500166Y-86548166D01*
X123400166Y-86548166D01*
X123300166Y-86581500D01*
X123233500Y-86648166D01*
X123200166Y-86714833D01*
X123166833Y-86848166D01*
X123166833Y-86948166D01*
X123200166Y-87081500D01*
X123233500Y-87148166D01*
X123300166Y-87214833D01*
X123400166Y-87248166D01*
X123466833Y-87248166D01*
X123566833Y-87214833D01*
X123600166Y-87181500D01*
X123600166Y-86948166D01*
X123466833Y-86948166D01*
X123900166Y-87248166D02*
X123900166Y-86548166D01*
X124300166Y-87248166D01*
X124300166Y-86548166D01*
X124633500Y-87248166D02*
X124633500Y-86548166D01*
X124800166Y-86548166D01*
X124900166Y-86581500D01*
X124966833Y-86648166D01*
X125000166Y-86714833D01*
X125033500Y-86848166D01*
X125033500Y-86948166D01*
X125000166Y-87081500D01*
X124966833Y-87148166D01*
X124900166Y-87214833D01*
X124800166Y-87248166D01*
X124633500Y-87248166D01*
X148066285Y-136929880D02*
X148066285Y-137644166D01*
X148018666Y-137787023D01*
X147923428Y-137882261D01*
X147780571Y-137929880D01*
X147685333Y-137929880D01*
X148971047Y-136929880D02*
X148780571Y-136929880D01*
X148685333Y-136977500D01*
X148637714Y-137025119D01*
X148542476Y-137167976D01*
X148494857Y-137358452D01*
X148494857Y-137739404D01*
X148542476Y-137834642D01*
X148590095Y-137882261D01*
X148685333Y-137929880D01*
X148875809Y-137929880D01*
X148971047Y-137882261D01*
X149018666Y-137834642D01*
X149066285Y-137739404D01*
X149066285Y-137501309D01*
X149018666Y-137406071D01*
X148971047Y-137358452D01*
X148875809Y-137310833D01*
X148685333Y-137310833D01*
X148590095Y-137358452D01*
X148542476Y-137406071D01*
X148494857Y-137501309D01*
X149685333Y-136929880D02*
X149780571Y-136929880D01*
X149875809Y-136977500D01*
X149923428Y-137025119D01*
X149971047Y-137120357D01*
X150018666Y-137310833D01*
X150018666Y-137548928D01*
X149971047Y-137739404D01*
X149923428Y-137834642D01*
X149875809Y-137882261D01*
X149780571Y-137929880D01*
X149685333Y-137929880D01*
X149590095Y-137882261D01*
X149542476Y-137834642D01*
X149494857Y-137739404D01*
X149447238Y-137548928D01*
X149447238Y-137310833D01*
X149494857Y-137120357D01*
X149542476Y-137025119D01*
X149590095Y-136977500D01*
X149685333Y-136929880D01*
X150971047Y-137929880D02*
X150399619Y-137929880D01*
X150685333Y-137929880D02*
X150685333Y-136929880D01*
X150590095Y-137072738D01*
X150494857Y-137167976D01*
X150399619Y-137215595D01*
X152767309Y-98766380D02*
X152767309Y-99480666D01*
X152719690Y-99623523D01*
X152624452Y-99718761D01*
X152481595Y-99766380D01*
X152386357Y-99766380D01*
X153719690Y-98766380D02*
X153243500Y-98766380D01*
X153195880Y-99242571D01*
X153243500Y-99194952D01*
X153338738Y-99147333D01*
X153576833Y-99147333D01*
X153672071Y-99194952D01*
X153719690Y-99242571D01*
X153767309Y-99337809D01*
X153767309Y-99575904D01*
X153719690Y-99671142D01*
X153672071Y-99718761D01*
X153576833Y-99766380D01*
X153338738Y-99766380D01*
X153243500Y-99718761D01*
X153195880Y-99671142D01*
X154386357Y-98766380D02*
X154481595Y-98766380D01*
X154576833Y-98814000D01*
X154624452Y-98861619D01*
X154672071Y-98956857D01*
X154719690Y-99147333D01*
X154719690Y-99385428D01*
X154672071Y-99575904D01*
X154624452Y-99671142D01*
X154576833Y-99718761D01*
X154481595Y-99766380D01*
X154386357Y-99766380D01*
X154291119Y-99718761D01*
X154243500Y-99671142D01*
X154195880Y-99575904D01*
X154148261Y-99385428D01*
X154148261Y-99147333D01*
X154195880Y-98956857D01*
X154243500Y-98861619D01*
X154291119Y-98814000D01*
X154386357Y-98766380D01*
X155100642Y-98861619D02*
X155148261Y-98814000D01*
X155243500Y-98766380D01*
X155481595Y-98766380D01*
X155576833Y-98814000D01*
X155624452Y-98861619D01*
X155672071Y-98956857D01*
X155672071Y-99052095D01*
X155624452Y-99194952D01*
X155053023Y-99766380D01*
X155672071Y-99766380D01*
X134921785Y-136929880D02*
X134921785Y-137644166D01*
X134874166Y-137787023D01*
X134778928Y-137882261D01*
X134636071Y-137929880D01*
X134540833Y-137929880D01*
X135826547Y-137263214D02*
X135826547Y-137929880D01*
X135588452Y-136882261D02*
X135350357Y-137596547D01*
X135969404Y-137596547D01*
X136540833Y-136929880D02*
X136636071Y-136929880D01*
X136731309Y-136977500D01*
X136778928Y-137025119D01*
X136826547Y-137120357D01*
X136874166Y-137310833D01*
X136874166Y-137548928D01*
X136826547Y-137739404D01*
X136778928Y-137834642D01*
X136731309Y-137882261D01*
X136636071Y-137929880D01*
X136540833Y-137929880D01*
X136445595Y-137882261D01*
X136397976Y-137834642D01*
X136350357Y-137739404D01*
X136302738Y-137548928D01*
X136302738Y-137310833D01*
X136350357Y-137120357D01*
X136397976Y-137025119D01*
X136445595Y-136977500D01*
X136540833Y-136929880D01*
X137826547Y-137929880D02*
X137255119Y-137929880D01*
X137540833Y-137929880D02*
X137540833Y-136929880D01*
X137445595Y-137072738D01*
X137350357Y-137167976D01*
X137255119Y-137215595D01*
X176085714Y-72842380D02*
X176085714Y-71842380D01*
X176085714Y-72318571D02*
X176657142Y-72318571D01*
X176657142Y-72842380D02*
X176657142Y-71842380D01*
X177085714Y-71937619D02*
X177133333Y-71890000D01*
X177228571Y-71842380D01*
X177466666Y-71842380D01*
X177561904Y-71890000D01*
X177609523Y-71937619D01*
X177657142Y-72032857D01*
X177657142Y-72128095D01*
X177609523Y-72270952D01*
X177038095Y-72842380D01*
X177657142Y-72842380D01*
X178276190Y-71842380D02*
X178371428Y-71842380D01*
X178466666Y-71890000D01*
X178514285Y-71937619D01*
X178561904Y-72032857D01*
X178609523Y-72223333D01*
X178609523Y-72461428D01*
X178561904Y-72651904D01*
X178514285Y-72747142D01*
X178466666Y-72794761D01*
X178371428Y-72842380D01*
X178276190Y-72842380D01*
X178180952Y-72794761D01*
X178133333Y-72747142D01*
X178085714Y-72651904D01*
X178038095Y-72461428D01*
X178038095Y-72223333D01*
X178085714Y-72032857D01*
X178133333Y-71937619D01*
X178180952Y-71890000D01*
X178276190Y-71842380D01*
X178942857Y-71842380D02*
X179561904Y-71842380D01*
X179228571Y-72223333D01*
X179371428Y-72223333D01*
X179466666Y-72270952D01*
X179514285Y-72318571D01*
X179561904Y-72413809D01*
X179561904Y-72651904D01*
X179514285Y-72747142D01*
X179466666Y-72794761D01*
X179371428Y-72842380D01*
X179085714Y-72842380D01*
X178990476Y-72794761D01*
X178942857Y-72747142D01*
X152257285Y-123753571D02*
X151923952Y-123753571D01*
X151923952Y-124277380D02*
X151923952Y-123277380D01*
X152400142Y-123277380D01*
X152685857Y-123277380D02*
X153304904Y-123277380D01*
X152971571Y-123658333D01*
X153114428Y-123658333D01*
X153209666Y-123705952D01*
X153257285Y-123753571D01*
X153304904Y-123848809D01*
X153304904Y-124086904D01*
X153257285Y-124182142D01*
X153209666Y-124229761D01*
X153114428Y-124277380D01*
X152828714Y-124277380D01*
X152733476Y-124229761D01*
X152685857Y-124182142D01*
X153923952Y-123277380D02*
X154019190Y-123277380D01*
X154114428Y-123325000D01*
X154162047Y-123372619D01*
X154209666Y-123467857D01*
X154257285Y-123658333D01*
X154257285Y-123896428D01*
X154209666Y-124086904D01*
X154162047Y-124182142D01*
X154114428Y-124229761D01*
X154019190Y-124277380D01*
X153923952Y-124277380D01*
X153828714Y-124229761D01*
X153781095Y-124182142D01*
X153733476Y-124086904D01*
X153685857Y-123896428D01*
X153685857Y-123658333D01*
X153733476Y-123467857D01*
X153781095Y-123372619D01*
X153828714Y-123325000D01*
X153923952Y-123277380D01*
X155209666Y-124277380D02*
X154638238Y-124277380D01*
X154923952Y-124277380D02*
X154923952Y-123277380D01*
X154828714Y-123420238D01*
X154733476Y-123515476D01*
X154638238Y-123563095D01*
D10*
X162551047Y-127334095D02*
X162551047Y-126034095D01*
X162984380Y-126962666D01*
X163417714Y-126034095D01*
X163417714Y-127334095D01*
X164593904Y-127334095D02*
X164593904Y-126653142D01*
X164532000Y-126529333D01*
X164408190Y-126467428D01*
X164160571Y-126467428D01*
X164036761Y-126529333D01*
X164593904Y-127272190D02*
X164470095Y-127334095D01*
X164160571Y-127334095D01*
X164036761Y-127272190D01*
X163974857Y-127148380D01*
X163974857Y-127024571D01*
X164036761Y-126900761D01*
X164160571Y-126838857D01*
X164470095Y-126838857D01*
X164593904Y-126776952D01*
X165089142Y-127334095D02*
X165770095Y-126467428D01*
X165089142Y-126467428D02*
X165770095Y-127334095D01*
X166265333Y-127210285D02*
X166327238Y-127272190D01*
X166265333Y-127334095D01*
X166203428Y-127272190D01*
X166265333Y-127210285D01*
X166265333Y-127334095D01*
X168493904Y-126034095D02*
X167874857Y-126034095D01*
X167812952Y-126653142D01*
X167874857Y-126591238D01*
X167998666Y-126529333D01*
X168308190Y-126529333D01*
X168432000Y-126591238D01*
X168493904Y-126653142D01*
X168555809Y-126776952D01*
X168555809Y-127086476D01*
X168493904Y-127210285D01*
X168432000Y-127272190D01*
X168308190Y-127334095D01*
X167998666Y-127334095D01*
X167874857Y-127272190D01*
X167812952Y-127210285D01*
X169051047Y-126962666D02*
X169670095Y-126962666D01*
X168927238Y-127334095D02*
X169360571Y-126034095D01*
X169793904Y-127334095D01*
X171651047Y-126653142D02*
X171217714Y-126653142D01*
X171217714Y-127334095D02*
X171217714Y-126034095D01*
X171836761Y-126034095D01*
D16*
X136144142Y-80498952D02*
X136144142Y-80879904D01*
X135877476Y-80079904D02*
X136144142Y-80498952D01*
X136410809Y-80079904D01*
X136601285Y-80079904D02*
X137134619Y-80079904D01*
X136791761Y-80879904D01*
X137591761Y-80079904D02*
X137667952Y-80079904D01*
X137744142Y-80118000D01*
X137782238Y-80156095D01*
X137820333Y-80232285D01*
X137858428Y-80384666D01*
X137858428Y-80575142D01*
X137820333Y-80727523D01*
X137782238Y-80803714D01*
X137744142Y-80841809D01*
X137667952Y-80879904D01*
X137591761Y-80879904D01*
X137515571Y-80841809D01*
X137477476Y-80803714D01*
X137439380Y-80727523D01*
X137401285Y-80575142D01*
X137401285Y-80384666D01*
X137439380Y-80232285D01*
X137477476Y-80156095D01*
X137515571Y-80118000D01*
X137591761Y-80079904D01*
X138620333Y-80879904D02*
X138163190Y-80879904D01*
X138391761Y-80879904D02*
X138391761Y-80079904D01*
X138315571Y-80194190D01*
X138239380Y-80270380D01*
X138163190Y-80308476D01*
D11*
X144676761Y-93598714D02*
X144724380Y-93455857D01*
X144724380Y-93217761D01*
X144676761Y-93122523D01*
X144629142Y-93074904D01*
X144533904Y-93027285D01*
X144438666Y-93027285D01*
X144343428Y-93074904D01*
X144295809Y-93122523D01*
X144248190Y-93217761D01*
X144200571Y-93408238D01*
X144152952Y-93503476D01*
X144105333Y-93551095D01*
X144010095Y-93598714D01*
X143914857Y-93598714D01*
X143819619Y-93551095D01*
X143772000Y-93503476D01*
X143724380Y-93408238D01*
X143724380Y-93170142D01*
X143772000Y-93027285D01*
X143724380Y-92693952D02*
X144724380Y-92455857D01*
X144010095Y-92265380D01*
X144724380Y-92074904D01*
X143724380Y-91836809D01*
X143724380Y-91551095D02*
X143724380Y-90884428D01*
X144724380Y-91313000D01*
X143724380Y-90313000D02*
X143724380Y-90217761D01*
X143772000Y-90122523D01*
X143819619Y-90074904D01*
X143914857Y-90027285D01*
X144105333Y-89979666D01*
X144343428Y-89979666D01*
X144533904Y-90027285D01*
X144629142Y-90074904D01*
X144676761Y-90122523D01*
X144724380Y-90217761D01*
X144724380Y-90313000D01*
X144676761Y-90408238D01*
X144629142Y-90455857D01*
X144533904Y-90503476D01*
X144343428Y-90551095D01*
X144105333Y-90551095D01*
X143914857Y-90503476D01*
X143819619Y-90455857D01*
X143772000Y-90408238D01*
X143724380Y-90313000D01*
X143819619Y-89598714D02*
X143772000Y-89551095D01*
X143724380Y-89455857D01*
X143724380Y-89217761D01*
X143772000Y-89122523D01*
X143819619Y-89074904D01*
X143914857Y-89027285D01*
X144010095Y-89027285D01*
X144152952Y-89074904D01*
X144724380Y-89646333D01*
X144724380Y-89027285D01*
X120888285Y-97496380D02*
X120888285Y-98210666D01*
X120840666Y-98353523D01*
X120745428Y-98448761D01*
X120602571Y-98496380D01*
X120507333Y-98496380D01*
X121840666Y-97496380D02*
X121364476Y-97496380D01*
X121316857Y-97972571D01*
X121364476Y-97924952D01*
X121459714Y-97877333D01*
X121697809Y-97877333D01*
X121793047Y-97924952D01*
X121840666Y-97972571D01*
X121888285Y-98067809D01*
X121888285Y-98305904D01*
X121840666Y-98401142D01*
X121793047Y-98448761D01*
X121697809Y-98496380D01*
X121459714Y-98496380D01*
X121364476Y-98448761D01*
X121316857Y-98401142D01*
X122507333Y-97496380D02*
X122602571Y-97496380D01*
X122697809Y-97544000D01*
X122745428Y-97591619D01*
X122793047Y-97686857D01*
X122840666Y-97877333D01*
X122840666Y-98115428D01*
X122793047Y-98305904D01*
X122745428Y-98401142D01*
X122697809Y-98448761D01*
X122602571Y-98496380D01*
X122507333Y-98496380D01*
X122412095Y-98448761D01*
X122364476Y-98401142D01*
X122316857Y-98305904D01*
X122269238Y-98115428D01*
X122269238Y-97877333D01*
X122316857Y-97686857D01*
X122364476Y-97591619D01*
X122412095Y-97544000D01*
X122507333Y-97496380D01*
X123793047Y-98496380D02*
X123221619Y-98496380D01*
X123507333Y-98496380D02*
X123507333Y-97496380D01*
X123412095Y-97639238D01*
X123316857Y-97734476D01*
X123221619Y-97782095D01*
D13*
X132287095Y-106307619D02*
X132287095Y-106926666D01*
X130987095Y-106926666D01*
X132225190Y-105379047D02*
X132287095Y-105502857D01*
X132287095Y-105750476D01*
X132225190Y-105874285D01*
X132101380Y-105936190D01*
X131606142Y-105936190D01*
X131482333Y-105874285D01*
X131420428Y-105750476D01*
X131420428Y-105502857D01*
X131482333Y-105379047D01*
X131606142Y-105317142D01*
X131729952Y-105317142D01*
X131853761Y-105936190D01*
X131420428Y-104945714D02*
X131420428Y-104450476D01*
X132287095Y-104760000D02*
X131172809Y-104760000D01*
X131049000Y-104698095D01*
X130987095Y-104574285D01*
X130987095Y-104450476D01*
X131420428Y-104202857D02*
X131420428Y-103707619D01*
X130987095Y-104017142D02*
X132101380Y-104017142D01*
X132225190Y-103955238D01*
X132287095Y-103831428D01*
X132287095Y-103707619D01*
D11*
X178359285Y-97512380D02*
X178359285Y-98226666D01*
X178311666Y-98369523D01*
X178216428Y-98464761D01*
X178073571Y-98512380D01*
X177978333Y-98512380D01*
X179311666Y-97512380D02*
X178835476Y-97512380D01*
X178787857Y-97988571D01*
X178835476Y-97940952D01*
X178930714Y-97893333D01*
X179168809Y-97893333D01*
X179264047Y-97940952D01*
X179311666Y-97988571D01*
X179359285Y-98083809D01*
X179359285Y-98321904D01*
X179311666Y-98417142D01*
X179264047Y-98464761D01*
X179168809Y-98512380D01*
X178930714Y-98512380D01*
X178835476Y-98464761D01*
X178787857Y-98417142D01*
X179978333Y-97512380D02*
X180073571Y-97512380D01*
X180168809Y-97560000D01*
X180216428Y-97607619D01*
X180264047Y-97702857D01*
X180311666Y-97893333D01*
X180311666Y-98131428D01*
X180264047Y-98321904D01*
X180216428Y-98417142D01*
X180168809Y-98464761D01*
X180073571Y-98512380D01*
X179978333Y-98512380D01*
X179883095Y-98464761D01*
X179835476Y-98417142D01*
X179787857Y-98321904D01*
X179740238Y-98131428D01*
X179740238Y-97893333D01*
X179787857Y-97702857D01*
X179835476Y-97607619D01*
X179883095Y-97560000D01*
X179978333Y-97512380D01*
X180645000Y-97512380D02*
X181264047Y-97512380D01*
X180930714Y-97893333D01*
X181073571Y-97893333D01*
X181168809Y-97940952D01*
X181216428Y-97988571D01*
X181264047Y-98083809D01*
X181264047Y-98321904D01*
X181216428Y-98417142D01*
X181168809Y-98464761D01*
X181073571Y-98512380D01*
X180787857Y-98512380D01*
X180692619Y-98464761D01*
X180645000Y-98417142D01*
D13*
X171022095Y-106864761D02*
X170403047Y-107298095D01*
X171022095Y-107607619D02*
X169722095Y-107607619D01*
X169722095Y-107112380D01*
X169784000Y-106988571D01*
X169845904Y-106926666D01*
X169969714Y-106864761D01*
X170155428Y-106864761D01*
X170279238Y-106926666D01*
X170341142Y-106988571D01*
X170403047Y-107112380D01*
X170403047Y-107607619D01*
X171022095Y-106307619D02*
X170155428Y-106307619D01*
X169722095Y-106307619D02*
X169784000Y-106369523D01*
X169845904Y-106307619D01*
X169784000Y-106245714D01*
X169722095Y-106307619D01*
X169845904Y-106307619D01*
X170155428Y-105131428D02*
X171207809Y-105131428D01*
X171331619Y-105193333D01*
X171393523Y-105255238D01*
X171455428Y-105379047D01*
X171455428Y-105564761D01*
X171393523Y-105688571D01*
X170960190Y-105131428D02*
X171022095Y-105255238D01*
X171022095Y-105502857D01*
X170960190Y-105626666D01*
X170898285Y-105688571D01*
X170774476Y-105750476D01*
X170403047Y-105750476D01*
X170279238Y-105688571D01*
X170217333Y-105626666D01*
X170155428Y-105502857D01*
X170155428Y-105255238D01*
X170217333Y-105131428D01*
X171022095Y-104512380D02*
X169722095Y-104512380D01*
X171022095Y-103955238D02*
X170341142Y-103955238D01*
X170217333Y-104017142D01*
X170155428Y-104140952D01*
X170155428Y-104326666D01*
X170217333Y-104450476D01*
X170279238Y-104512380D01*
X170155428Y-103521904D02*
X170155428Y-103026666D01*
X169722095Y-103336190D02*
X170836380Y-103336190D01*
X170960190Y-103274285D01*
X171022095Y-103150476D01*
X171022095Y-103026666D01*
D11*
X122745714Y-72842380D02*
X122745714Y-71842380D01*
X122745714Y-72318571D02*
X123317142Y-72318571D01*
X123317142Y-72842380D02*
X123317142Y-71842380D01*
X123745714Y-71937619D02*
X123793333Y-71890000D01*
X123888571Y-71842380D01*
X124126666Y-71842380D01*
X124221904Y-71890000D01*
X124269523Y-71937619D01*
X124317142Y-72032857D01*
X124317142Y-72128095D01*
X124269523Y-72270952D01*
X123698095Y-72842380D01*
X124317142Y-72842380D01*
X124936190Y-71842380D02*
X125031428Y-71842380D01*
X125126666Y-71890000D01*
X125174285Y-71937619D01*
X125221904Y-72032857D01*
X125269523Y-72223333D01*
X125269523Y-72461428D01*
X125221904Y-72651904D01*
X125174285Y-72747142D01*
X125126666Y-72794761D01*
X125031428Y-72842380D01*
X124936190Y-72842380D01*
X124840952Y-72794761D01*
X124793333Y-72747142D01*
X124745714Y-72651904D01*
X124698095Y-72461428D01*
X124698095Y-72223333D01*
X124745714Y-72032857D01*
X124793333Y-71937619D01*
X124840952Y-71890000D01*
X124936190Y-71842380D01*
X126221904Y-72842380D02*
X125650476Y-72842380D01*
X125936190Y-72842380D02*
X125936190Y-71842380D01*
X125840952Y-71985238D01*
X125745714Y-72080476D01*
X125650476Y-72128095D01*
X162710952Y-101195142D02*
X162663333Y-101242761D01*
X162520476Y-101290380D01*
X162425238Y-101290380D01*
X162282380Y-101242761D01*
X162187142Y-101147523D01*
X162139523Y-101052285D01*
X162091904Y-100861809D01*
X162091904Y-100718952D01*
X162139523Y-100528476D01*
X162187142Y-100433238D01*
X162282380Y-100338000D01*
X162425238Y-100290380D01*
X162520476Y-100290380D01*
X162663333Y-100338000D01*
X162710952Y-100385619D01*
X163615714Y-100290380D02*
X163139523Y-100290380D01*
X163091904Y-100766571D01*
X163139523Y-100718952D01*
X163234761Y-100671333D01*
X163472857Y-100671333D01*
X163568095Y-100718952D01*
X163615714Y-100766571D01*
X163663333Y-100861809D01*
X163663333Y-101099904D01*
X163615714Y-101195142D01*
X163568095Y-101242761D01*
X163472857Y-101290380D01*
X163234761Y-101290380D01*
X163139523Y-101242761D01*
X163091904Y-101195142D01*
X164282380Y-100290380D02*
X164377619Y-100290380D01*
X164472857Y-100338000D01*
X164520476Y-100385619D01*
X164568095Y-100480857D01*
X164615714Y-100671333D01*
X164615714Y-100909428D01*
X164568095Y-101099904D01*
X164520476Y-101195142D01*
X164472857Y-101242761D01*
X164377619Y-101290380D01*
X164282380Y-101290380D01*
X164187142Y-101242761D01*
X164139523Y-101195142D01*
X164091904Y-101099904D01*
X164044285Y-100909428D01*
X164044285Y-100671333D01*
X164091904Y-100480857D01*
X164139523Y-100385619D01*
X164187142Y-100338000D01*
X164282380Y-100290380D01*
X165520476Y-100290380D02*
X165044285Y-100290380D01*
X164996666Y-100766571D01*
X165044285Y-100718952D01*
X165139523Y-100671333D01*
X165377619Y-100671333D01*
X165472857Y-100718952D01*
X165520476Y-100766571D01*
X165568095Y-100861809D01*
X165568095Y-101099904D01*
X165520476Y-101195142D01*
X165472857Y-101242761D01*
X165377619Y-101290380D01*
X165139523Y-101290380D01*
X165044285Y-101242761D01*
X164996666Y-101195142D01*
X137310952Y-101195142D02*
X137263333Y-101242761D01*
X137120476Y-101290380D01*
X137025238Y-101290380D01*
X136882380Y-101242761D01*
X136787142Y-101147523D01*
X136739523Y-101052285D01*
X136691904Y-100861809D01*
X136691904Y-100718952D01*
X136739523Y-100528476D01*
X136787142Y-100433238D01*
X136882380Y-100338000D01*
X137025238Y-100290380D01*
X137120476Y-100290380D01*
X137263333Y-100338000D01*
X137310952Y-100385619D01*
X138215714Y-100290380D02*
X137739523Y-100290380D01*
X137691904Y-100766571D01*
X137739523Y-100718952D01*
X137834761Y-100671333D01*
X138072857Y-100671333D01*
X138168095Y-100718952D01*
X138215714Y-100766571D01*
X138263333Y-100861809D01*
X138263333Y-101099904D01*
X138215714Y-101195142D01*
X138168095Y-101242761D01*
X138072857Y-101290380D01*
X137834761Y-101290380D01*
X137739523Y-101242761D01*
X137691904Y-101195142D01*
X138882380Y-100290380D02*
X138977619Y-100290380D01*
X139072857Y-100338000D01*
X139120476Y-100385619D01*
X139168095Y-100480857D01*
X139215714Y-100671333D01*
X139215714Y-100909428D01*
X139168095Y-101099904D01*
X139120476Y-101195142D01*
X139072857Y-101242761D01*
X138977619Y-101290380D01*
X138882380Y-101290380D01*
X138787142Y-101242761D01*
X138739523Y-101195142D01*
X138691904Y-101099904D01*
X138644285Y-100909428D01*
X138644285Y-100671333D01*
X138691904Y-100480857D01*
X138739523Y-100385619D01*
X138787142Y-100338000D01*
X138882380Y-100290380D01*
X139549047Y-100290380D02*
X140168095Y-100290380D01*
X139834761Y-100671333D01*
X139977619Y-100671333D01*
X140072857Y-100718952D01*
X140120476Y-100766571D01*
X140168095Y-100861809D01*
X140168095Y-101099904D01*
X140120476Y-101195142D01*
X140072857Y-101242761D01*
X139977619Y-101290380D01*
X139691904Y-101290380D01*
X139596666Y-101242761D01*
X139549047Y-101195142D01*
D16*
X162553819Y-79622604D02*
X162553819Y-78822604D01*
X162744295Y-78822604D01*
X162858580Y-78860700D01*
X162934771Y-78936890D01*
X162972866Y-79013080D01*
X163010961Y-79165461D01*
X163010961Y-79279747D01*
X162972866Y-79432128D01*
X162934771Y-79508319D01*
X162858580Y-79584509D01*
X162744295Y-79622604D01*
X162553819Y-79622604D01*
X163277628Y-78822604D02*
X163810961Y-78822604D01*
X163468104Y-79622604D01*
X164268104Y-78822604D02*
X164344295Y-78822604D01*
X164420485Y-78860700D01*
X164458580Y-78898795D01*
X164496676Y-78974985D01*
X164534771Y-79127366D01*
X164534771Y-79317842D01*
X164496676Y-79470223D01*
X164458580Y-79546414D01*
X164420485Y-79584509D01*
X164344295Y-79622604D01*
X164268104Y-79622604D01*
X164191914Y-79584509D01*
X164153819Y-79546414D01*
X164115723Y-79470223D01*
X164077628Y-79317842D01*
X164077628Y-79127366D01*
X164115723Y-78974985D01*
X164153819Y-78898795D01*
X164191914Y-78860700D01*
X164268104Y-78822604D01*
X164801438Y-78822604D02*
X165296676Y-78822604D01*
X165030009Y-79127366D01*
X165144295Y-79127366D01*
X165220485Y-79165461D01*
X165258580Y-79203557D01*
X165296676Y-79279747D01*
X165296676Y-79470223D01*
X165258580Y-79546414D01*
X165220485Y-79584509D01*
X165144295Y-79622604D01*
X164915723Y-79622604D01*
X164839533Y-79584509D01*
X164801438Y-79546414D01*
X157537319Y-79622604D02*
X157537319Y-78822604D01*
X157727795Y-78822604D01*
X157842080Y-78860700D01*
X157918271Y-78936890D01*
X157956366Y-79013080D01*
X157994461Y-79165461D01*
X157994461Y-79279747D01*
X157956366Y-79432128D01*
X157918271Y-79508319D01*
X157842080Y-79584509D01*
X157727795Y-79622604D01*
X157537319Y-79622604D01*
X158261128Y-78822604D02*
X158794461Y-78822604D01*
X158451604Y-79622604D01*
X159251604Y-78822604D02*
X159327795Y-78822604D01*
X159403985Y-78860700D01*
X159442080Y-78898795D01*
X159480176Y-78974985D01*
X159518271Y-79127366D01*
X159518271Y-79317842D01*
X159480176Y-79470223D01*
X159442080Y-79546414D01*
X159403985Y-79584509D01*
X159327795Y-79622604D01*
X159251604Y-79622604D01*
X159175414Y-79584509D01*
X159137319Y-79546414D01*
X159099223Y-79470223D01*
X159061128Y-79317842D01*
X159061128Y-79127366D01*
X159099223Y-78974985D01*
X159137319Y-78898795D01*
X159175414Y-78860700D01*
X159251604Y-78822604D01*
X160203985Y-79089271D02*
X160203985Y-79622604D01*
X160013509Y-78784509D02*
X159823033Y-79355938D01*
X160318271Y-79355938D01*
X152393819Y-79622604D02*
X152393819Y-78822604D01*
X152584295Y-78822604D01*
X152698580Y-78860700D01*
X152774771Y-78936890D01*
X152812866Y-79013080D01*
X152850961Y-79165461D01*
X152850961Y-79279747D01*
X152812866Y-79432128D01*
X152774771Y-79508319D01*
X152698580Y-79584509D01*
X152584295Y-79622604D01*
X152393819Y-79622604D01*
X153117628Y-78822604D02*
X153650961Y-78822604D01*
X153308104Y-79622604D01*
X154108104Y-78822604D02*
X154184295Y-78822604D01*
X154260485Y-78860700D01*
X154298580Y-78898795D01*
X154336676Y-78974985D01*
X154374771Y-79127366D01*
X154374771Y-79317842D01*
X154336676Y-79470223D01*
X154298580Y-79546414D01*
X154260485Y-79584509D01*
X154184295Y-79622604D01*
X154108104Y-79622604D01*
X154031914Y-79584509D01*
X153993819Y-79546414D01*
X153955723Y-79470223D01*
X153917628Y-79317842D01*
X153917628Y-79127366D01*
X153955723Y-78974985D01*
X153993819Y-78898795D01*
X154031914Y-78860700D01*
X154108104Y-78822604D01*
X155098580Y-78822604D02*
X154717628Y-78822604D01*
X154679533Y-79203557D01*
X154717628Y-79165461D01*
X154793819Y-79127366D01*
X154984295Y-79127366D01*
X155060485Y-79165461D01*
X155098580Y-79203557D01*
X155136676Y-79279747D01*
X155136676Y-79470223D01*
X155098580Y-79546414D01*
X155060485Y-79584509D01*
X154984295Y-79622604D01*
X154793819Y-79622604D01*
X154717628Y-79584509D01*
X154679533Y-79546414D01*
X141677428Y-80460809D02*
X141791714Y-80498904D01*
X141982190Y-80498904D01*
X142058380Y-80460809D01*
X142096476Y-80422714D01*
X142134571Y-80346523D01*
X142134571Y-80270333D01*
X142096476Y-80194142D01*
X142058380Y-80156047D01*
X141982190Y-80117952D01*
X141829809Y-80079857D01*
X141753619Y-80041761D01*
X141715523Y-80003666D01*
X141677428Y-79927476D01*
X141677428Y-79851285D01*
X141715523Y-79775095D01*
X141753619Y-79737000D01*
X141829809Y-79698904D01*
X142020285Y-79698904D01*
X142134571Y-79737000D01*
X142401238Y-79698904D02*
X142591714Y-80498904D01*
X142744095Y-79927476D01*
X142896476Y-80498904D01*
X143086952Y-79698904D01*
X143315523Y-79698904D02*
X143848857Y-79698904D01*
X143506000Y-80498904D01*
X144306000Y-79698904D02*
X144382190Y-79698904D01*
X144458380Y-79737000D01*
X144496476Y-79775095D01*
X144534571Y-79851285D01*
X144572666Y-80003666D01*
X144572666Y-80194142D01*
X144534571Y-80346523D01*
X144496476Y-80422714D01*
X144458380Y-80460809D01*
X144382190Y-80498904D01*
X144306000Y-80498904D01*
X144229809Y-80460809D01*
X144191714Y-80422714D01*
X144153619Y-80346523D01*
X144115523Y-80194142D01*
X144115523Y-80003666D01*
X144153619Y-79851285D01*
X144191714Y-79775095D01*
X144229809Y-79737000D01*
X144306000Y-79698904D01*
X145334571Y-80498904D02*
X144877428Y-80498904D01*
X145106000Y-80498904D02*
X145106000Y-79698904D01*
X145029809Y-79813190D01*
X144953619Y-79889380D01*
X144877428Y-79927476D01*
D11*
X176085714Y-143962380D02*
X176085714Y-142962380D01*
X176085714Y-143438571D02*
X176657142Y-143438571D01*
X176657142Y-143962380D02*
X176657142Y-142962380D01*
X177085714Y-143057619D02*
X177133333Y-143010000D01*
X177228571Y-142962380D01*
X177466666Y-142962380D01*
X177561904Y-143010000D01*
X177609523Y-143057619D01*
X177657142Y-143152857D01*
X177657142Y-143248095D01*
X177609523Y-143390952D01*
X177038095Y-143962380D01*
X177657142Y-143962380D01*
X178276190Y-142962380D02*
X178371428Y-142962380D01*
X178466666Y-143010000D01*
X178514285Y-143057619D01*
X178561904Y-143152857D01*
X178609523Y-143343333D01*
X178609523Y-143581428D01*
X178561904Y-143771904D01*
X178514285Y-143867142D01*
X178466666Y-143914761D01*
X178371428Y-143962380D01*
X178276190Y-143962380D01*
X178180952Y-143914761D01*
X178133333Y-143867142D01*
X178085714Y-143771904D01*
X178038095Y-143581428D01*
X178038095Y-143343333D01*
X178085714Y-143152857D01*
X178133333Y-143057619D01*
X178180952Y-143010000D01*
X178276190Y-142962380D01*
X179466666Y-143295714D02*
X179466666Y-143962380D01*
X179228571Y-142914761D02*
X178990476Y-143629047D01*
X179609523Y-143629047D01*
X122745714Y-143962380D02*
X122745714Y-142962380D01*
X122745714Y-143438571D02*
X123317142Y-143438571D01*
X123317142Y-143962380D02*
X123317142Y-142962380D01*
X123745714Y-143057619D02*
X123793333Y-143010000D01*
X123888571Y-142962380D01*
X124126666Y-142962380D01*
X124221904Y-143010000D01*
X124269523Y-143057619D01*
X124317142Y-143152857D01*
X124317142Y-143248095D01*
X124269523Y-143390952D01*
X123698095Y-143962380D01*
X124317142Y-143962380D01*
X124936190Y-142962380D02*
X125031428Y-142962380D01*
X125126666Y-143010000D01*
X125174285Y-143057619D01*
X125221904Y-143152857D01*
X125269523Y-143343333D01*
X125269523Y-143581428D01*
X125221904Y-143771904D01*
X125174285Y-143867142D01*
X125126666Y-143914761D01*
X125031428Y-143962380D01*
X124936190Y-143962380D01*
X124840952Y-143914761D01*
X124793333Y-143867142D01*
X124745714Y-143771904D01*
X124698095Y-143581428D01*
X124698095Y-143343333D01*
X124745714Y-143152857D01*
X124793333Y-143057619D01*
X124840952Y-143010000D01*
X124936190Y-142962380D01*
X125650476Y-143057619D02*
X125698095Y-143010000D01*
X125793333Y-142962380D01*
X126031428Y-142962380D01*
X126126666Y-143010000D01*
X126174285Y-143057619D01*
X126221904Y-143152857D01*
X126221904Y-143248095D01*
X126174285Y-143390952D01*
X125602857Y-143962380D01*
X126221904Y-143962380D01*
X153504761Y-86994714D02*
X153552380Y-86851857D01*
X153552380Y-86613761D01*
X153504761Y-86518523D01*
X153457142Y-86470904D01*
X153361904Y-86423285D01*
X153266666Y-86423285D01*
X153171428Y-86470904D01*
X153123809Y-86518523D01*
X153076190Y-86613761D01*
X153028571Y-86804238D01*
X152980952Y-86899476D01*
X152933333Y-86947095D01*
X152838095Y-86994714D01*
X152742857Y-86994714D01*
X152647619Y-86947095D01*
X152600000Y-86899476D01*
X152552380Y-86804238D01*
X152552380Y-86566142D01*
X152600000Y-86423285D01*
X152552380Y-86089952D02*
X153552380Y-85851857D01*
X152838095Y-85661380D01*
X153552380Y-85470904D01*
X152552380Y-85232809D01*
X152552380Y-84947095D02*
X152552380Y-84280428D01*
X153552380Y-84709000D01*
X152552380Y-83709000D02*
X152552380Y-83613761D01*
X152600000Y-83518523D01*
X152647619Y-83470904D01*
X152742857Y-83423285D01*
X152933333Y-83375666D01*
X153171428Y-83375666D01*
X153361904Y-83423285D01*
X153457142Y-83470904D01*
X153504761Y-83518523D01*
X153552380Y-83613761D01*
X153552380Y-83709000D01*
X153504761Y-83804238D01*
X153457142Y-83851857D01*
X153361904Y-83899476D01*
X153171428Y-83947095D01*
X152933333Y-83947095D01*
X152742857Y-83899476D01*
X152647619Y-83851857D01*
X152600000Y-83804238D01*
X152552380Y-83709000D01*
X152552380Y-83042333D02*
X152552380Y-82423285D01*
X152933333Y-82756619D01*
X152933333Y-82613761D01*
X152980952Y-82518523D01*
X153028571Y-82470904D01*
X153123809Y-82423285D01*
X153361904Y-82423285D01*
X153457142Y-82470904D01*
X153504761Y-82518523D01*
X153552380Y-82613761D01*
X153552380Y-82899476D01*
X153504761Y-82994714D01*
X153457142Y-83042333D01*
D16*
X167633819Y-79559104D02*
X167633819Y-78759104D01*
X167824295Y-78759104D01*
X167938580Y-78797200D01*
X168014771Y-78873390D01*
X168052866Y-78949580D01*
X168090961Y-79101961D01*
X168090961Y-79216247D01*
X168052866Y-79368628D01*
X168014771Y-79444819D01*
X167938580Y-79521009D01*
X167824295Y-79559104D01*
X167633819Y-79559104D01*
X168357628Y-78759104D02*
X168890961Y-78759104D01*
X168548104Y-79559104D01*
X169348104Y-78759104D02*
X169424295Y-78759104D01*
X169500485Y-78797200D01*
X169538580Y-78835295D01*
X169576676Y-78911485D01*
X169614771Y-79063866D01*
X169614771Y-79254342D01*
X169576676Y-79406723D01*
X169538580Y-79482914D01*
X169500485Y-79521009D01*
X169424295Y-79559104D01*
X169348104Y-79559104D01*
X169271914Y-79521009D01*
X169233819Y-79482914D01*
X169195723Y-79406723D01*
X169157628Y-79254342D01*
X169157628Y-79063866D01*
X169195723Y-78911485D01*
X169233819Y-78835295D01*
X169271914Y-78797200D01*
X169348104Y-78759104D01*
X169919533Y-78835295D02*
X169957628Y-78797200D01*
X170033819Y-78759104D01*
X170224295Y-78759104D01*
X170300485Y-78797200D01*
X170338580Y-78835295D01*
X170376676Y-78911485D01*
X170376676Y-78987676D01*
X170338580Y-79101961D01*
X169881438Y-79559104D01*
X170376676Y-79559104D01*
D11*
X169981571Y-90158095D02*
X170029190Y-90015238D01*
X170076809Y-89967619D01*
X170172047Y-89920000D01*
X170314904Y-89920000D01*
X170410142Y-89967619D01*
X170457761Y-90015238D01*
X170505380Y-90110476D01*
X170505380Y-90491428D01*
X169505380Y-90491428D01*
X169505380Y-90158095D01*
X169553000Y-90062857D01*
X169600619Y-90015238D01*
X169695857Y-89967619D01*
X169791095Y-89967619D01*
X169886333Y-90015238D01*
X169933952Y-90062857D01*
X169981571Y-90158095D01*
X169981571Y-90491428D01*
X169505380Y-89634285D02*
X169505380Y-89062857D01*
X170505380Y-89348571D02*
X169505380Y-89348571D01*
X170505380Y-88681904D02*
X170505380Y-88491428D01*
X170457761Y-88396190D01*
X170410142Y-88348571D01*
X170267285Y-88253333D01*
X170076809Y-88205714D01*
X169695857Y-88205714D01*
X169600619Y-88253333D01*
X169553000Y-88300952D01*
X169505380Y-88396190D01*
X169505380Y-88586666D01*
X169553000Y-88681904D01*
X169600619Y-88729523D01*
X169695857Y-88777142D01*
X169933952Y-88777142D01*
X170029190Y-88729523D01*
X170076809Y-88681904D01*
X170124428Y-88586666D01*
X170124428Y-88396190D01*
X170076809Y-88300952D01*
X170029190Y-88253333D01*
X169933952Y-88205714D01*
X169505380Y-87586666D02*
X169505380Y-87491428D01*
X169553000Y-87396190D01*
X169600619Y-87348571D01*
X169695857Y-87300952D01*
X169886333Y-87253333D01*
X170124428Y-87253333D01*
X170314904Y-87300952D01*
X170410142Y-87348571D01*
X170457761Y-87396190D01*
X170505380Y-87491428D01*
X170505380Y-87586666D01*
X170457761Y-87681904D01*
X170410142Y-87729523D01*
X170314904Y-87777142D01*
X170124428Y-87824761D01*
X169886333Y-87824761D01*
X169695857Y-87777142D01*
X169600619Y-87729523D01*
X169553000Y-87681904D01*
X169505380Y-87586666D01*
X170505380Y-86300952D02*
X170505380Y-86872380D01*
X170505380Y-86586666D02*
X169505380Y-86586666D01*
X169648238Y-86681904D01*
X169743476Y-86777142D01*
X169791095Y-86872380D01*
X138037523Y-65254380D02*
X137704190Y-64778190D01*
X137466095Y-65254380D02*
X137466095Y-64254380D01*
X137847047Y-64254380D01*
X137942285Y-64302000D01*
X137989904Y-64349619D01*
X138037523Y-64444857D01*
X138037523Y-64587714D01*
X137989904Y-64682952D01*
X137942285Y-64730571D01*
X137847047Y-64778190D01*
X137466095Y-64778190D01*
X137989904Y-62302000D02*
X137894666Y-62254380D01*
X137751809Y-62254380D01*
X137608952Y-62302000D01*
X137513714Y-62397238D01*
X137466095Y-62492476D01*
X137418476Y-62682952D01*
X137418476Y-62825809D01*
X137466095Y-63016285D01*
X137513714Y-63111523D01*
X137608952Y-63206761D01*
X137751809Y-63254380D01*
X137847047Y-63254380D01*
X137989904Y-63206761D01*
X138037523Y-63159142D01*
X138037523Y-62825809D01*
X137847047Y-62825809D01*
X137299428Y-58254380D02*
X137537523Y-59254380D01*
X137728000Y-58540095D01*
X137918476Y-59254380D01*
X138156571Y-58254380D01*
X137347047Y-66873428D02*
X138108952Y-66873428D01*
X137728000Y-67254380D02*
X137728000Y-66492476D01*
X137799428Y-60630571D02*
X137942285Y-60678190D01*
X137989904Y-60725809D01*
X138037523Y-60821047D01*
X138037523Y-60963904D01*
X137989904Y-61059142D01*
X137942285Y-61106761D01*
X137847047Y-61154380D01*
X137466095Y-61154380D01*
X137466095Y-60154380D01*
X137799428Y-60154380D01*
X137894666Y-60202000D01*
X137942285Y-60249619D01*
X137989904Y-60344857D01*
X137989904Y-60440095D01*
X137942285Y-60535333D01*
X137894666Y-60582952D01*
X137799428Y-60630571D01*
X137466095Y-60630571D01*
X145609047Y-66873428D02*
X146370952Y-66873428D01*
X145990000Y-67254380D02*
X145990000Y-66492476D01*
X146299523Y-65254380D02*
X145966190Y-64778190D01*
X145728095Y-65254380D02*
X145728095Y-64254380D01*
X146109047Y-64254380D01*
X146204285Y-64302000D01*
X146251904Y-64349619D01*
X146299523Y-64444857D01*
X146299523Y-64587714D01*
X146251904Y-64682952D01*
X146204285Y-64730571D01*
X146109047Y-64778190D01*
X145728095Y-64778190D01*
X146251904Y-62302000D02*
X146156666Y-62254380D01*
X146013809Y-62254380D01*
X145870952Y-62302000D01*
X145775714Y-62397238D01*
X145728095Y-62492476D01*
X145680476Y-62682952D01*
X145680476Y-62825809D01*
X145728095Y-63016285D01*
X145775714Y-63111523D01*
X145870952Y-63206761D01*
X146013809Y-63254380D01*
X146109047Y-63254380D01*
X146251904Y-63206761D01*
X146299523Y-63159142D01*
X146299523Y-62825809D01*
X146109047Y-62825809D01*
X146061428Y-60630571D02*
X146204285Y-60678190D01*
X146251904Y-60725809D01*
X146299523Y-60821047D01*
X146299523Y-60963904D01*
X146251904Y-61059142D01*
X146204285Y-61106761D01*
X146109047Y-61154380D01*
X145728095Y-61154380D01*
X145728095Y-60154380D01*
X146061428Y-60154380D01*
X146156666Y-60202000D01*
X146204285Y-60249619D01*
X146251904Y-60344857D01*
X146251904Y-60440095D01*
X146204285Y-60535333D01*
X146156666Y-60582952D01*
X146061428Y-60630571D01*
X145728095Y-60630571D01*
X145561428Y-58254380D02*
X145799523Y-59254380D01*
X145990000Y-58540095D01*
X146180476Y-59254380D01*
X146418571Y-58254380D01*
X145609047Y-54823428D02*
X146370952Y-54823428D01*
X145990000Y-55204380D02*
X145990000Y-54442476D01*
X146061428Y-52350571D02*
X146204285Y-52398190D01*
X146251904Y-52445809D01*
X146299523Y-52541047D01*
X146299523Y-52683904D01*
X146251904Y-52779142D01*
X146204285Y-52826761D01*
X146109047Y-52874380D01*
X145728095Y-52874380D01*
X145728095Y-51874380D01*
X146061428Y-51874380D01*
X146156666Y-51922000D01*
X146204285Y-51969619D01*
X146251904Y-52064857D01*
X146251904Y-52160095D01*
X146204285Y-52255333D01*
X146156666Y-52302952D01*
X146061428Y-52350571D01*
X145728095Y-52350571D01*
X146299523Y-50534380D02*
X145966190Y-50058190D01*
X145728095Y-50534380D02*
X145728095Y-49534380D01*
X146109047Y-49534380D01*
X146204285Y-49582000D01*
X146251904Y-49629619D01*
X146299523Y-49724857D01*
X146299523Y-49867714D01*
X146251904Y-49962952D01*
X146204285Y-50010571D01*
X146109047Y-50058190D01*
X145728095Y-50058190D01*
X146251904Y-47252000D02*
X146156666Y-47204380D01*
X146013809Y-47204380D01*
X145870952Y-47252000D01*
X145775714Y-47347238D01*
X145728095Y-47442476D01*
X145680476Y-47632952D01*
X145680476Y-47775809D01*
X145728095Y-47966285D01*
X145775714Y-48061523D01*
X145870952Y-48156761D01*
X146013809Y-48204380D01*
X146109047Y-48204380D01*
X146251904Y-48156761D01*
X146299523Y-48109142D01*
X146299523Y-47775809D01*
X146109047Y-47775809D01*
X124829523Y-65254380D02*
X124496190Y-64778190D01*
X124258095Y-65254380D02*
X124258095Y-64254380D01*
X124639047Y-64254380D01*
X124734285Y-64302000D01*
X124781904Y-64349619D01*
X124829523Y-64444857D01*
X124829523Y-64587714D01*
X124781904Y-64682952D01*
X124734285Y-64730571D01*
X124639047Y-64778190D01*
X124258095Y-64778190D01*
X124781904Y-62302000D02*
X124686666Y-62254380D01*
X124543809Y-62254380D01*
X124400952Y-62302000D01*
X124305714Y-62397238D01*
X124258095Y-62492476D01*
X124210476Y-62682952D01*
X124210476Y-62825809D01*
X124258095Y-63016285D01*
X124305714Y-63111523D01*
X124400952Y-63206761D01*
X124543809Y-63254380D01*
X124639047Y-63254380D01*
X124781904Y-63206761D01*
X124829523Y-63159142D01*
X124829523Y-62825809D01*
X124639047Y-62825809D01*
X124091428Y-58254380D02*
X124329523Y-59254380D01*
X124520000Y-58540095D01*
X124710476Y-59254380D01*
X124948571Y-58254380D01*
X124139047Y-66873428D02*
X124900952Y-66873428D01*
X124520000Y-67254380D02*
X124520000Y-66492476D01*
X124591428Y-60630571D02*
X124734285Y-60678190D01*
X124781904Y-60725809D01*
X124829523Y-60821047D01*
X124829523Y-60963904D01*
X124781904Y-61059142D01*
X124734285Y-61106761D01*
X124639047Y-61154380D01*
X124258095Y-61154380D01*
X124258095Y-60154380D01*
X124591428Y-60154380D01*
X124686666Y-60202000D01*
X124734285Y-60249619D01*
X124781904Y-60344857D01*
X124781904Y-60440095D01*
X124734285Y-60535333D01*
X124686666Y-60582952D01*
X124591428Y-60630571D01*
X124258095Y-60630571D01*
D16*
X131997619Y-79609904D02*
X131997619Y-78809904D01*
X132188095Y-78809904D01*
X132302380Y-78848000D01*
X132378571Y-78924190D01*
X132416666Y-79000380D01*
X132454761Y-79152761D01*
X132454761Y-79267047D01*
X132416666Y-79419428D01*
X132378571Y-79495619D01*
X132302380Y-79571809D01*
X132188095Y-79609904D01*
X131997619Y-79609904D01*
X132721428Y-78809904D02*
X133254761Y-78809904D01*
X132911904Y-79609904D01*
X133711904Y-78809904D02*
X133788095Y-78809904D01*
X133864285Y-78848000D01*
X133902380Y-78886095D01*
X133940476Y-78962285D01*
X133978571Y-79114666D01*
X133978571Y-79305142D01*
X133940476Y-79457523D01*
X133902380Y-79533714D01*
X133864285Y-79571809D01*
X133788095Y-79609904D01*
X133711904Y-79609904D01*
X133635714Y-79571809D01*
X133597619Y-79533714D01*
X133559523Y-79457523D01*
X133521428Y-79305142D01*
X133521428Y-79114666D01*
X133559523Y-78962285D01*
X133597619Y-78886095D01*
X133635714Y-78848000D01*
X133711904Y-78809904D01*
X134740476Y-79609904D02*
X134283333Y-79609904D01*
X134511904Y-79609904D02*
X134511904Y-78809904D01*
X134435714Y-78924190D01*
X134359523Y-79000380D01*
X134283333Y-79038476D01*
D11*
X169707261Y-136552380D02*
X169707261Y-137266666D01*
X169659642Y-137409523D01*
X169564404Y-137504761D01*
X169421547Y-137552380D01*
X169326309Y-137552380D01*
X170088214Y-136552380D02*
X170707261Y-136552380D01*
X170373928Y-136933333D01*
X170516785Y-136933333D01*
X170612023Y-136980952D01*
X170659642Y-137028571D01*
X170707261Y-137123809D01*
X170707261Y-137361904D01*
X170659642Y-137457142D01*
X170612023Y-137504761D01*
X170516785Y-137552380D01*
X170231071Y-137552380D01*
X170135833Y-137504761D01*
X170088214Y-137457142D01*
X171326309Y-136552380D02*
X171421547Y-136552380D01*
X171516785Y-136600000D01*
X171564404Y-136647619D01*
X171612023Y-136742857D01*
X171659642Y-136933333D01*
X171659642Y-137171428D01*
X171612023Y-137361904D01*
X171564404Y-137457142D01*
X171516785Y-137504761D01*
X171421547Y-137552380D01*
X171326309Y-137552380D01*
X171231071Y-137504761D01*
X171183452Y-137457142D01*
X171135833Y-137361904D01*
X171088214Y-137171428D01*
X171088214Y-136933333D01*
X171135833Y-136742857D01*
X171183452Y-136647619D01*
X171231071Y-136600000D01*
X171326309Y-136552380D01*
X172612023Y-137552380D02*
X172040595Y-137552380D01*
X172326309Y-137552380D02*
X172326309Y-136552380D01*
X172231071Y-136695238D01*
X172135833Y-136790476D01*
X172040595Y-136838095D01*
X176971047Y-54823428D02*
X177732952Y-54823428D01*
X177352000Y-55204380D02*
X177352000Y-54442476D01*
X177423428Y-52350571D02*
X177566285Y-52398190D01*
X177613904Y-52445809D01*
X177661523Y-52541047D01*
X177661523Y-52683904D01*
X177613904Y-52779142D01*
X177566285Y-52826761D01*
X177471047Y-52874380D01*
X177090095Y-52874380D01*
X177090095Y-51874380D01*
X177423428Y-51874380D01*
X177518666Y-51922000D01*
X177566285Y-51969619D01*
X177613904Y-52064857D01*
X177613904Y-52160095D01*
X177566285Y-52255333D01*
X177518666Y-52302952D01*
X177423428Y-52350571D01*
X177090095Y-52350571D01*
X177661523Y-50534380D02*
X177328190Y-50058190D01*
X177090095Y-50534380D02*
X177090095Y-49534380D01*
X177471047Y-49534380D01*
X177566285Y-49582000D01*
X177613904Y-49629619D01*
X177661523Y-49724857D01*
X177661523Y-49867714D01*
X177613904Y-49962952D01*
X177566285Y-50010571D01*
X177471047Y-50058190D01*
X177090095Y-50058190D01*
X177613904Y-47252000D02*
X177518666Y-47204380D01*
X177375809Y-47204380D01*
X177232952Y-47252000D01*
X177137714Y-47347238D01*
X177090095Y-47442476D01*
X177042476Y-47632952D01*
X177042476Y-47775809D01*
X177090095Y-47966285D01*
X177137714Y-48061523D01*
X177232952Y-48156761D01*
X177375809Y-48204380D01*
X177471047Y-48204380D01*
X177613904Y-48156761D01*
X177661523Y-48109142D01*
X177661523Y-47775809D01*
X177471047Y-47775809D01*
X137347047Y-54823428D02*
X138108952Y-54823428D01*
X137728000Y-55204380D02*
X137728000Y-54442476D01*
X137799428Y-52350571D02*
X137942285Y-52398190D01*
X137989904Y-52445809D01*
X138037523Y-52541047D01*
X138037523Y-52683904D01*
X137989904Y-52779142D01*
X137942285Y-52826761D01*
X137847047Y-52874380D01*
X137466095Y-52874380D01*
X137466095Y-51874380D01*
X137799428Y-51874380D01*
X137894666Y-51922000D01*
X137942285Y-51969619D01*
X137989904Y-52064857D01*
X137989904Y-52160095D01*
X137942285Y-52255333D01*
X137894666Y-52302952D01*
X137799428Y-52350571D01*
X137466095Y-52350571D01*
X138037523Y-50534380D02*
X137704190Y-50058190D01*
X137466095Y-50534380D02*
X137466095Y-49534380D01*
X137847047Y-49534380D01*
X137942285Y-49582000D01*
X137989904Y-49629619D01*
X138037523Y-49724857D01*
X138037523Y-49867714D01*
X137989904Y-49962952D01*
X137942285Y-50010571D01*
X137847047Y-50058190D01*
X137466095Y-50058190D01*
X137989904Y-47252000D02*
X137894666Y-47204380D01*
X137751809Y-47204380D01*
X137608952Y-47252000D01*
X137513714Y-47347238D01*
X137466095Y-47442476D01*
X137418476Y-47632952D01*
X137418476Y-47775809D01*
X137466095Y-47966285D01*
X137513714Y-48061523D01*
X137608952Y-48156761D01*
X137751809Y-48204380D01*
X137847047Y-48204380D01*
X137989904Y-48156761D01*
X138037523Y-48109142D01*
X138037523Y-47775809D01*
X137847047Y-47775809D01*
X124139047Y-54823428D02*
X124900952Y-54823428D01*
X124520000Y-55204380D02*
X124520000Y-54442476D01*
X124591428Y-52350571D02*
X124734285Y-52398190D01*
X124781904Y-52445809D01*
X124829523Y-52541047D01*
X124829523Y-52683904D01*
X124781904Y-52779142D01*
X124734285Y-52826761D01*
X124639047Y-52874380D01*
X124258095Y-52874380D01*
X124258095Y-51874380D01*
X124591428Y-51874380D01*
X124686666Y-51922000D01*
X124734285Y-51969619D01*
X124781904Y-52064857D01*
X124781904Y-52160095D01*
X124734285Y-52255333D01*
X124686666Y-52302952D01*
X124591428Y-52350571D01*
X124258095Y-52350571D01*
X124829523Y-50534380D02*
X124496190Y-50058190D01*
X124258095Y-50534380D02*
X124258095Y-49534380D01*
X124639047Y-49534380D01*
X124734285Y-49582000D01*
X124781904Y-49629619D01*
X124829523Y-49724857D01*
X124829523Y-49867714D01*
X124781904Y-49962952D01*
X124734285Y-50010571D01*
X124639047Y-50058190D01*
X124258095Y-50058190D01*
X124781904Y-47252000D02*
X124686666Y-47204380D01*
X124543809Y-47204380D01*
X124400952Y-47252000D01*
X124305714Y-47347238D01*
X124258095Y-47442476D01*
X124210476Y-47632952D01*
X124210476Y-47775809D01*
X124258095Y-47966285D01*
X124305714Y-48061523D01*
X124400952Y-48156761D01*
X124543809Y-48204380D01*
X124639047Y-48204380D01*
X124781904Y-48156761D01*
X124829523Y-48109142D01*
X124829523Y-47775809D01*
X124639047Y-47775809D01*
X171213428Y-53681142D02*
X170613428Y-53681142D01*
X171042000Y-53481142D01*
X170613428Y-53281142D01*
X171213428Y-53281142D01*
X170899142Y-52795428D02*
X170927714Y-52709714D01*
X170956285Y-52681142D01*
X171013428Y-52652571D01*
X171099142Y-52652571D01*
X171156285Y-52681142D01*
X171184857Y-52709714D01*
X171213428Y-52766857D01*
X171213428Y-52995428D01*
X170613428Y-52995428D01*
X170613428Y-52795428D01*
X170642000Y-52738285D01*
X170670571Y-52709714D01*
X170727714Y-52681142D01*
X170784857Y-52681142D01*
X170842000Y-52709714D01*
X170870571Y-52738285D01*
X170899142Y-52795428D01*
X170899142Y-52995428D01*
X171213428Y-52081142D02*
X171213428Y-52424000D01*
X171213428Y-52252571D02*
X170613428Y-52252571D01*
X170699142Y-52309714D01*
X170756285Y-52366857D01*
X170784857Y-52424000D01*
X170613428Y-51709714D02*
X170613428Y-51652571D01*
X170642000Y-51595428D01*
X170670571Y-51566857D01*
X170727714Y-51538285D01*
X170842000Y-51509714D01*
X170984857Y-51509714D01*
X171099142Y-51538285D01*
X171156285Y-51566857D01*
X171184857Y-51595428D01*
X171213428Y-51652571D01*
X171213428Y-51709714D01*
X171184857Y-51766857D01*
X171156285Y-51795428D01*
X171099142Y-51824000D01*
X170984857Y-51852571D01*
X170842000Y-51852571D01*
X170727714Y-51824000D01*
X170670571Y-51795428D01*
X170642000Y-51766857D01*
X170613428Y-51709714D01*
X170613428Y-50966857D02*
X170613428Y-51252571D01*
X170899142Y-51281142D01*
X170870571Y-51252571D01*
X170842000Y-51195428D01*
X170842000Y-51052571D01*
X170870571Y-50995428D01*
X170899142Y-50966857D01*
X170956285Y-50938285D01*
X171099142Y-50938285D01*
X171156285Y-50966857D01*
X171184857Y-50995428D01*
X171213428Y-51052571D01*
X171213428Y-51195428D01*
X171184857Y-51252571D01*
X171156285Y-51281142D01*
%LPC*%
D17*
X127000000Y-51816000D03*
X127000000Y-53816000D03*
X127000000Y-55816000D03*
X127000000Y-57816000D03*
D18*
X127000000Y-59816000D03*
D19*
X174752000Y-58802000D03*
D20*
X174752000Y-66802000D03*
D19*
X174752000Y-62802000D03*
X174752000Y-64802000D03*
X174752000Y-60802000D03*
D17*
X179832000Y-51816000D03*
X179832000Y-53816000D03*
X179832000Y-55816000D03*
X179832000Y-57816000D03*
D18*
X179832000Y-59816000D03*
D21*
X179832000Y-65196000D03*
D22*
X135128000Y-120396000D03*
X132588000Y-120396000D03*
X130048000Y-120396000D03*
X127508000Y-120396000D03*
D23*
X177800000Y-70720000D03*
X176700000Y-70720000D03*
X175600000Y-70720000D03*
X178900000Y-70720000D03*
X180000000Y-70720000D03*
X178900000Y-68980000D03*
X175600000Y-68980000D03*
X176700000Y-68980000D03*
X180000000Y-68980000D03*
X177800000Y-68980000D03*
X153270000Y-58547000D03*
X153270000Y-59647000D03*
X153270000Y-60747000D03*
X153270000Y-57447000D03*
X153270000Y-56347000D03*
X151530000Y-57447000D03*
X151530000Y-60747000D03*
X151530000Y-59647000D03*
X151530000Y-56347000D03*
X151530000Y-58547000D03*
X141859000Y-70720000D03*
X140759000Y-70720000D03*
X139659000Y-70720000D03*
X142959000Y-70720000D03*
X144059000Y-70720000D03*
X142959000Y-68980000D03*
X139659000Y-68980000D03*
X140759000Y-68980000D03*
X144059000Y-68980000D03*
X141859000Y-68980000D03*
X132188000Y-56896000D03*
X132188000Y-57996000D03*
X132188000Y-59096000D03*
X132188000Y-55796000D03*
X132188000Y-54696000D03*
X130448000Y-55796000D03*
X130448000Y-59096000D03*
X130448000Y-57996000D03*
X130448000Y-54696000D03*
X130448000Y-56896000D03*
X124714000Y-70720000D03*
X123614000Y-70720000D03*
X122514000Y-70720000D03*
X125814000Y-70720000D03*
X126914000Y-70720000D03*
X125814000Y-68980000D03*
X122514000Y-68980000D03*
X123614000Y-68980000D03*
X126914000Y-68980000D03*
X124714000Y-68980000D03*
D15*
G36*
X160410330Y-66848670D02*
G01*
X159349670Y-67909330D01*
X157228350Y-65788010D01*
X158289010Y-64727350D01*
X160410330Y-66848670D01*
G37*
G36*
X161824543Y-65434456D02*
G01*
X160763883Y-66495116D01*
X158642563Y-64373796D01*
X159703223Y-63313136D01*
X161824543Y-65434456D01*
G37*
G36*
X163238757Y-64020243D02*
G01*
X162178097Y-65080903D01*
X160056777Y-62959583D01*
X161117437Y-61898923D01*
X163238757Y-64020243D01*
G37*
G36*
X164652971Y-62606029D02*
G01*
X163592311Y-63666689D01*
X161470991Y-61545369D01*
X162531651Y-60484709D01*
X164652971Y-62606029D01*
G37*
G36*
X166067184Y-61191816D02*
G01*
X165006524Y-62252476D01*
X162885204Y-60131156D01*
X163945864Y-59070496D01*
X166067184Y-61191816D01*
G37*
G36*
X167481398Y-59777602D02*
G01*
X166420738Y-60838262D01*
X164299418Y-58716942D01*
X165360078Y-57656282D01*
X167481398Y-59777602D01*
G37*
D24*
X157734000Y-47672500D03*
X159258000Y-47672500D03*
X160782000Y-47672500D03*
X162306000Y-47672500D03*
X163830000Y-47672500D03*
X165354000Y-47672500D03*
D25*
X122301000Y-86931500D03*
X122301000Y-88201500D03*
X122301000Y-89471500D03*
X122301000Y-90741500D03*
X122301000Y-92011500D03*
D26*
X122301000Y-93281500D03*
D27*
X151130000Y-139700000D03*
X147630000Y-139700000D03*
D28*
X149606000Y-101092000D03*
X152654000Y-101092000D03*
X149606000Y-102616000D03*
X152654000Y-102616000D03*
X149606000Y-104140000D03*
X152654000Y-104140000D03*
X149606000Y-105664000D03*
X152654000Y-105664000D03*
X149606000Y-107188000D03*
X152654000Y-107188000D03*
X149606000Y-108712000D03*
X152654000Y-108712000D03*
D27*
X139700000Y-139700000D03*
X136200000Y-139700000D03*
X132700000Y-139700000D03*
D21*
X141859000Y-65151000D03*
X127000000Y-65196000D03*
D29*
X177800000Y-76200000D03*
D30*
X178556000Y-118110000D03*
X155956000Y-118110000D03*
D31*
X135074000Y-83566000D03*
X139954000Y-83566000D03*
D32*
X141605000Y-87413000D03*
X141605000Y-95213000D03*
D33*
X127000000Y-100330000D03*
X127000000Y-102870000D03*
X127000000Y-105410000D03*
X127000000Y-107950000D03*
D34*
X127000000Y-110490000D03*
D33*
X175260000Y-110490000D03*
X175260000Y-107950000D03*
X175260000Y-105410000D03*
X175260000Y-102870000D03*
D34*
X175260000Y-100330000D03*
D29*
X124460000Y-76200000D03*
D22*
X163830000Y-104728000D03*
D35*
X163830000Y-109728000D03*
D22*
X138430000Y-104728000D03*
D35*
X138430000Y-109728000D03*
D36*
X163830000Y-77470000D03*
D37*
X163830000Y-74930000D03*
D36*
X158750000Y-77470000D03*
D37*
X158750000Y-74930000D03*
D36*
X153670000Y-77470000D03*
D37*
X153670000Y-74930000D03*
D22*
X140260000Y-78450000D03*
X140260000Y-73950000D03*
X146760000Y-78450000D03*
X146760000Y-73950000D03*
D29*
X177800000Y-139700000D03*
X124460000Y-139700000D03*
D38*
X156210000Y-80899000D03*
X166370000Y-88519000D03*
X158750000Y-80899000D03*
X163830000Y-88519000D03*
X161290000Y-80899000D03*
X161290000Y-88519000D03*
X163830000Y-80899000D03*
X158750000Y-88519000D03*
X166370000Y-80899000D03*
D39*
X156210000Y-88519000D03*
D36*
X168910000Y-77470000D03*
D37*
X168910000Y-74930000D03*
D40*
X170312000Y-79883000D03*
X172212000Y-79883000D03*
D17*
X142859000Y-49276000D03*
X140859000Y-49276000D03*
X142859000Y-51276000D03*
X140859000Y-51276000D03*
X142859000Y-53276000D03*
X140859000Y-53276000D03*
X142859000Y-55276000D03*
X140859000Y-55276000D03*
X142859000Y-57276000D03*
X140859000Y-57276000D03*
X142859000Y-59276000D03*
D18*
X140859000Y-59276000D03*
D41*
X176000000Y-88420000D03*
D42*
X176000000Y-80820000D03*
X176000000Y-96020000D03*
D19*
X135128000Y-58802000D03*
D20*
X135128000Y-66802000D03*
D19*
X135128000Y-62802000D03*
X135128000Y-64802000D03*
X135128000Y-60802000D03*
D20*
X148590000Y-66802000D03*
D19*
X148590000Y-64802000D03*
X148590000Y-62802000D03*
X148590000Y-60802000D03*
X148590000Y-58802000D03*
D43*
X148590000Y-54752000D03*
D44*
X148590000Y-52422000D03*
X148590000Y-50082000D03*
X148590000Y-47752000D03*
D19*
X121920000Y-58802000D03*
D20*
X121920000Y-66802000D03*
D19*
X121920000Y-62802000D03*
X121920000Y-64802000D03*
X121920000Y-60802000D03*
D36*
X133350000Y-77470000D03*
D37*
X133350000Y-74930000D03*
D30*
X169700000Y-139700000D03*
X164620000Y-139700000D03*
D43*
X174752000Y-54752000D03*
D44*
X174752000Y-52422000D03*
X174752000Y-50082000D03*
X174752000Y-47752000D03*
D43*
X135128000Y-54752000D03*
D44*
X135128000Y-52422000D03*
X135128000Y-50082000D03*
X135128000Y-47752000D03*
D43*
X121920000Y-54752000D03*
D44*
X121920000Y-52422000D03*
X121920000Y-50082000D03*
X121920000Y-47752000D03*
D23*
X169818000Y-52324000D03*
X169818000Y-50124000D03*
X169818000Y-53424000D03*
X169818000Y-54524000D03*
X169818000Y-51224000D03*
X171812000Y-50124000D03*
X171812000Y-51224000D03*
X171812000Y-54524000D03*
X171812000Y-53424000D03*
X171812000Y-52324000D03*
M02*
