G04 #@! TF.GenerationSoftware,KiCad,Pcbnew,5.1.12-84ad8e8a86~92~ubuntu16.04.1*
G04 #@! TF.CreationDate,2022-11-17T21:27:21+01:00*
G04 #@! TF.ProjectId,LedBar,4c656442-6172-42e6-9b69-6361645f7063,rev?*
G04 #@! TF.SameCoordinates,Original*
G04 #@! TF.FileFunction,Paste,Bot*
G04 #@! TF.FilePolarity,Positive*
%FSLAX46Y46*%
G04 Gerber Fmt 4.6, Leading zero omitted, Abs format (unit mm)*
G04 Created by KiCad (PCBNEW 5.1.12-84ad8e8a86~92~ubuntu16.04.1) date 2022-11-17 21:27:21*
%MOMM*%
%LPD*%
G01*
G04 APERTURE LIST*
%ADD10R,1.900000X0.800000*%
%ADD11R,1.500000X2.000000*%
%ADD12R,3.800000X2.000000*%
%ADD13R,2.300000X3.500000*%
%ADD14R,1.600000X0.550000*%
%ADD15R,0.550000X1.600000*%
%ADD16R,3.000000X8.000000*%
G04 APERTURE END LIST*
G36*
G01*
X160517000Y-126687000D02*
X160517000Y-128837000D01*
G75*
G02*
X160267000Y-129087000I-250000J0D01*
G01*
X159467000Y-129087000D01*
G75*
G02*
X159217000Y-128837000I0J250000D01*
G01*
X159217000Y-126687000D01*
G75*
G02*
X159467000Y-126437000I250000J0D01*
G01*
X160267000Y-126437000D01*
G75*
G02*
X160517000Y-126687000I0J-250000D01*
G01*
G37*
G36*
G01*
X163617000Y-126687000D02*
X163617000Y-128837000D01*
G75*
G02*
X163367000Y-129087000I-250000J0D01*
G01*
X162567000Y-129087000D01*
G75*
G02*
X162317000Y-128837000I0J250000D01*
G01*
X162317000Y-126687000D01*
G75*
G02*
X162567000Y-126437000I250000J0D01*
G01*
X163367000Y-126437000D01*
G75*
G02*
X163617000Y-126687000I0J-250000D01*
G01*
G37*
G36*
G01*
X162192000Y-125529500D02*
X162192000Y-124279500D01*
G75*
G02*
X162442000Y-124029500I250000J0D01*
G01*
X163367000Y-124029500D01*
G75*
G02*
X163617000Y-124279500I0J-250000D01*
G01*
X163617000Y-125529500D01*
G75*
G02*
X163367000Y-125779500I-250000J0D01*
G01*
X162442000Y-125779500D01*
G75*
G02*
X162192000Y-125529500I0J250000D01*
G01*
G37*
G36*
G01*
X159217000Y-125529500D02*
X159217000Y-124279500D01*
G75*
G02*
X159467000Y-124029500I250000J0D01*
G01*
X160392000Y-124029500D01*
G75*
G02*
X160642000Y-124279500I0J-250000D01*
G01*
X160642000Y-125529500D01*
G75*
G02*
X160392000Y-125779500I-250000J0D01*
G01*
X159467000Y-125779500D01*
G75*
G02*
X159217000Y-125529500I0J250000D01*
G01*
G37*
G36*
G01*
X127692999Y-83331000D02*
X128593001Y-83331000D01*
G75*
G02*
X128843000Y-83580999I0J-249999D01*
G01*
X128843000Y-84281001D01*
G75*
G02*
X128593001Y-84531000I-249999J0D01*
G01*
X127692999Y-84531000D01*
G75*
G02*
X127443000Y-84281001I0J249999D01*
G01*
X127443000Y-83580999D01*
G75*
G02*
X127692999Y-83331000I249999J0D01*
G01*
G37*
G36*
G01*
X127692999Y-81331000D02*
X128593001Y-81331000D01*
G75*
G02*
X128843000Y-81580999I0J-249999D01*
G01*
X128843000Y-82281001D01*
G75*
G02*
X128593001Y-82531000I-249999J0D01*
G01*
X127692999Y-82531000D01*
G75*
G02*
X127443000Y-82281001I0J249999D01*
G01*
X127443000Y-81580999D01*
G75*
G02*
X127692999Y-81331000I249999J0D01*
G01*
G37*
G36*
G01*
X124406500Y-84087000D02*
X125656500Y-84087000D01*
G75*
G02*
X125906500Y-84337000I0J-250000D01*
G01*
X125906500Y-85262000D01*
G75*
G02*
X125656500Y-85512000I-250000J0D01*
G01*
X124406500Y-85512000D01*
G75*
G02*
X124156500Y-85262000I0J250000D01*
G01*
X124156500Y-84337000D01*
G75*
G02*
X124406500Y-84087000I250000J0D01*
G01*
G37*
G36*
G01*
X124406500Y-81112000D02*
X125656500Y-81112000D01*
G75*
G02*
X125906500Y-81362000I0J-250000D01*
G01*
X125906500Y-82287000D01*
G75*
G02*
X125656500Y-82537000I-250000J0D01*
G01*
X124406500Y-82537000D01*
G75*
G02*
X124156500Y-82287000I0J250000D01*
G01*
X124156500Y-81362000D01*
G75*
G02*
X124406500Y-81112000I250000J0D01*
G01*
G37*
G36*
G01*
X124656000Y-126713000D02*
X124656000Y-125763000D01*
G75*
G02*
X124906000Y-125513000I250000J0D01*
G01*
X125581000Y-125513000D01*
G75*
G02*
X125831000Y-125763000I0J-250000D01*
G01*
X125831000Y-126713000D01*
G75*
G02*
X125581000Y-126963000I-250000J0D01*
G01*
X124906000Y-126963000D01*
G75*
G02*
X124656000Y-126713000I0J250000D01*
G01*
G37*
G36*
G01*
X122581000Y-126713000D02*
X122581000Y-125763000D01*
G75*
G02*
X122831000Y-125513000I250000J0D01*
G01*
X123506000Y-125513000D01*
G75*
G02*
X123756000Y-125763000I0J-250000D01*
G01*
X123756000Y-126713000D01*
G75*
G02*
X123506000Y-126963000I-250000J0D01*
G01*
X122831000Y-126963000D01*
G75*
G02*
X122581000Y-126713000I0J250000D01*
G01*
G37*
G36*
G01*
X137889000Y-121978000D02*
X136939000Y-121978000D01*
G75*
G02*
X136689000Y-121728000I0J250000D01*
G01*
X136689000Y-121053000D01*
G75*
G02*
X136939000Y-120803000I250000J0D01*
G01*
X137889000Y-120803000D01*
G75*
G02*
X138139000Y-121053000I0J-250000D01*
G01*
X138139000Y-121728000D01*
G75*
G02*
X137889000Y-121978000I-250000J0D01*
G01*
G37*
G36*
G01*
X137889000Y-124053000D02*
X136939000Y-124053000D01*
G75*
G02*
X136689000Y-123803000I0J250000D01*
G01*
X136689000Y-123128000D01*
G75*
G02*
X136939000Y-122878000I250000J0D01*
G01*
X137889000Y-122878000D01*
G75*
G02*
X138139000Y-123128000I0J-250000D01*
G01*
X138139000Y-123803000D01*
G75*
G02*
X137889000Y-124053000I-250000J0D01*
G01*
G37*
G36*
G01*
X124606000Y-128847001D02*
X124606000Y-127946999D01*
G75*
G02*
X124855999Y-127697000I249999J0D01*
G01*
X125556001Y-127697000D01*
G75*
G02*
X125806000Y-127946999I0J-249999D01*
G01*
X125806000Y-128847001D01*
G75*
G02*
X125556001Y-129097000I-249999J0D01*
G01*
X124855999Y-129097000D01*
G75*
G02*
X124606000Y-128847001I0J249999D01*
G01*
G37*
G36*
G01*
X122606000Y-128847001D02*
X122606000Y-127946999D01*
G75*
G02*
X122855999Y-127697000I249999J0D01*
G01*
X123556001Y-127697000D01*
G75*
G02*
X123806000Y-127946999I0J-249999D01*
G01*
X123806000Y-128847001D01*
G75*
G02*
X123556001Y-129097000I-249999J0D01*
G01*
X122855999Y-129097000D01*
G75*
G02*
X122606000Y-128847001I0J249999D01*
G01*
G37*
G36*
G01*
X162142999Y-134711500D02*
X163993001Y-134711500D01*
G75*
G02*
X164243000Y-134961499I0J-249999D01*
G01*
X164243000Y-136711501D01*
G75*
G02*
X163993001Y-136961500I-249999J0D01*
G01*
X162142999Y-136961500D01*
G75*
G02*
X161893000Y-136711501I0J249999D01*
G01*
X161893000Y-134961499D01*
G75*
G02*
X162142999Y-134711500I249999J0D01*
G01*
G37*
G36*
G01*
X162142999Y-129611500D02*
X163993001Y-129611500D01*
G75*
G02*
X164243000Y-129861499I0J-249999D01*
G01*
X164243000Y-131611501D01*
G75*
G02*
X163993001Y-131861500I-249999J0D01*
G01*
X162142999Y-131861500D01*
G75*
G02*
X161893000Y-131611501I0J249999D01*
G01*
X161893000Y-129861499D01*
G75*
G02*
X162142999Y-129611500I249999J0D01*
G01*
G37*
G36*
G01*
X166449500Y-134907000D02*
X166449500Y-135857000D01*
G75*
G02*
X166199500Y-136107000I-250000J0D01*
G01*
X165524500Y-136107000D01*
G75*
G02*
X165274500Y-135857000I0J250000D01*
G01*
X165274500Y-134907000D01*
G75*
G02*
X165524500Y-134657000I250000J0D01*
G01*
X166199500Y-134657000D01*
G75*
G02*
X166449500Y-134907000I0J-250000D01*
G01*
G37*
G36*
G01*
X168524500Y-134907000D02*
X168524500Y-135857000D01*
G75*
G02*
X168274500Y-136107000I-250000J0D01*
G01*
X167599500Y-136107000D01*
G75*
G02*
X167349500Y-135857000I0J250000D01*
G01*
X167349500Y-134907000D01*
G75*
G02*
X167599500Y-134657000I250000J0D01*
G01*
X168274500Y-134657000D01*
G75*
G02*
X168524500Y-134907000I0J-250000D01*
G01*
G37*
G36*
G01*
X138905000Y-106738000D02*
X137955000Y-106738000D01*
G75*
G02*
X137705000Y-106488000I0J250000D01*
G01*
X137705000Y-105813000D01*
G75*
G02*
X137955000Y-105563000I250000J0D01*
G01*
X138905000Y-105563000D01*
G75*
G02*
X139155000Y-105813000I0J-250000D01*
G01*
X139155000Y-106488000D01*
G75*
G02*
X138905000Y-106738000I-250000J0D01*
G01*
G37*
G36*
G01*
X138905000Y-108813000D02*
X137955000Y-108813000D01*
G75*
G02*
X137705000Y-108563000I0J250000D01*
G01*
X137705000Y-107888000D01*
G75*
G02*
X137955000Y-107638000I250000J0D01*
G01*
X138905000Y-107638000D01*
G75*
G02*
X139155000Y-107888000I0J-250000D01*
G01*
X139155000Y-108563000D01*
G75*
G02*
X138905000Y-108813000I-250000J0D01*
G01*
G37*
G36*
G01*
X164305000Y-106738000D02*
X163355000Y-106738000D01*
G75*
G02*
X163105000Y-106488000I0J250000D01*
G01*
X163105000Y-105813000D01*
G75*
G02*
X163355000Y-105563000I250000J0D01*
G01*
X164305000Y-105563000D01*
G75*
G02*
X164555000Y-105813000I0J-250000D01*
G01*
X164555000Y-106488000D01*
G75*
G02*
X164305000Y-106738000I-250000J0D01*
G01*
G37*
G36*
G01*
X164305000Y-108813000D02*
X163355000Y-108813000D01*
G75*
G02*
X163105000Y-108563000I0J250000D01*
G01*
X163105000Y-107888000D01*
G75*
G02*
X163355000Y-107638000I250000J0D01*
G01*
X164305000Y-107638000D01*
G75*
G02*
X164555000Y-107888000I0J-250000D01*
G01*
X164555000Y-108563000D01*
G75*
G02*
X164305000Y-108813000I-250000J0D01*
G01*
G37*
G36*
G01*
X148532000Y-142842000D02*
X148532000Y-141892000D01*
G75*
G02*
X148782000Y-141642000I250000J0D01*
G01*
X149457000Y-141642000D01*
G75*
G02*
X149707000Y-141892000I0J-250000D01*
G01*
X149707000Y-142842000D01*
G75*
G02*
X149457000Y-143092000I-250000J0D01*
G01*
X148782000Y-143092000D01*
G75*
G02*
X148532000Y-142842000I0J250000D01*
G01*
G37*
G36*
G01*
X146457000Y-142842000D02*
X146457000Y-141892000D01*
G75*
G02*
X146707000Y-141642000I250000J0D01*
G01*
X147382000Y-141642000D01*
G75*
G02*
X147632000Y-141892000I0J-250000D01*
G01*
X147632000Y-142842000D01*
G75*
G02*
X147382000Y-143092000I-250000J0D01*
G01*
X146707000Y-143092000D01*
G75*
G02*
X146457000Y-142842000I0J250000D01*
G01*
G37*
D10*
X131850000Y-111506000D03*
X134850000Y-112456000D03*
X134850000Y-110556000D03*
X170410000Y-111506000D03*
X167410000Y-110556000D03*
X167410000Y-112456000D03*
X131850000Y-107823000D03*
X134850000Y-108773000D03*
X134850000Y-106873000D03*
X145264000Y-107823000D03*
X142264000Y-106873000D03*
X142264000Y-108773000D03*
X156996000Y-107823000D03*
X159996000Y-108773000D03*
X159996000Y-106873000D03*
X170410000Y-107823000D03*
X167410000Y-106873000D03*
X167410000Y-108773000D03*
X131850000Y-104140000D03*
X134850000Y-105090000D03*
X134850000Y-103190000D03*
X145264000Y-104140000D03*
X142264000Y-103190000D03*
X142264000Y-105090000D03*
X156996000Y-104140000D03*
X159996000Y-105090000D03*
X159996000Y-103190000D03*
X131850000Y-100457000D03*
X134850000Y-101407000D03*
X134850000Y-99507000D03*
X145264000Y-100457000D03*
X142264000Y-99507000D03*
X142264000Y-101407000D03*
X156996000Y-100457000D03*
X159996000Y-101407000D03*
X159996000Y-99507000D03*
X170410000Y-100457000D03*
X167410000Y-99507000D03*
X167410000Y-101407000D03*
G36*
G01*
X146615999Y-136544000D02*
X147516001Y-136544000D01*
G75*
G02*
X147766000Y-136793999I0J-249999D01*
G01*
X147766000Y-137494001D01*
G75*
G02*
X147516001Y-137744000I-249999J0D01*
G01*
X146615999Y-137744000D01*
G75*
G02*
X146366000Y-137494001I0J249999D01*
G01*
X146366000Y-136793999D01*
G75*
G02*
X146615999Y-136544000I249999J0D01*
G01*
G37*
G36*
G01*
X146615999Y-134544000D02*
X147516001Y-134544000D01*
G75*
G02*
X147766000Y-134793999I0J-249999D01*
G01*
X147766000Y-135494001D01*
G75*
G02*
X147516001Y-135744000I-249999J0D01*
G01*
X146615999Y-135744000D01*
G75*
G02*
X146366000Y-135494001I0J249999D01*
G01*
X146366000Y-134793999D01*
G75*
G02*
X146615999Y-134544000I249999J0D01*
G01*
G37*
G36*
G01*
X150437001Y-135744000D02*
X149536999Y-135744000D01*
G75*
G02*
X149287000Y-135494001I0J249999D01*
G01*
X149287000Y-134793999D01*
G75*
G02*
X149536999Y-134544000I249999J0D01*
G01*
X150437001Y-134544000D01*
G75*
G02*
X150687000Y-134793999I0J-249999D01*
G01*
X150687000Y-135494001D01*
G75*
G02*
X150437001Y-135744000I-249999J0D01*
G01*
G37*
G36*
G01*
X150437001Y-137744000D02*
X149536999Y-137744000D01*
G75*
G02*
X149287000Y-137494001I0J249999D01*
G01*
X149287000Y-136793999D01*
G75*
G02*
X149536999Y-136544000I249999J0D01*
G01*
X150437001Y-136544000D01*
G75*
G02*
X150687000Y-136793999I0J-249999D01*
G01*
X150687000Y-137494001D01*
G75*
G02*
X150437001Y-137744000I-249999J0D01*
G01*
G37*
G36*
G01*
X152457999Y-136544000D02*
X153358001Y-136544000D01*
G75*
G02*
X153608000Y-136793999I0J-249999D01*
G01*
X153608000Y-137494001D01*
G75*
G02*
X153358001Y-137744000I-249999J0D01*
G01*
X152457999Y-137744000D01*
G75*
G02*
X152208000Y-137494001I0J249999D01*
G01*
X152208000Y-136793999D01*
G75*
G02*
X152457999Y-136544000I249999J0D01*
G01*
G37*
G36*
G01*
X152457999Y-134544000D02*
X153358001Y-134544000D01*
G75*
G02*
X153608000Y-134793999I0J-249999D01*
G01*
X153608000Y-135494001D01*
G75*
G02*
X153358001Y-135744000I-249999J0D01*
G01*
X152457999Y-135744000D01*
G75*
G02*
X152208000Y-135494001I0J249999D01*
G01*
X152208000Y-134793999D01*
G75*
G02*
X152457999Y-134544000I249999J0D01*
G01*
G37*
G36*
G01*
X146869999Y-124123400D02*
X147770001Y-124123400D01*
G75*
G02*
X148020000Y-124373399I0J-249999D01*
G01*
X148020000Y-125073401D01*
G75*
G02*
X147770001Y-125323400I-249999J0D01*
G01*
X146869999Y-125323400D01*
G75*
G02*
X146620000Y-125073401I0J249999D01*
G01*
X146620000Y-124373399D01*
G75*
G02*
X146869999Y-124123400I249999J0D01*
G01*
G37*
G36*
G01*
X146869999Y-122123400D02*
X147770001Y-122123400D01*
G75*
G02*
X148020000Y-122373399I0J-249999D01*
G01*
X148020000Y-123073401D01*
G75*
G02*
X147770001Y-123323400I-249999J0D01*
G01*
X146869999Y-123323400D01*
G75*
G02*
X146620000Y-123073401I0J249999D01*
G01*
X146620000Y-122373399D01*
G75*
G02*
X146869999Y-122123400I249999J0D01*
G01*
G37*
G36*
G01*
X145230001Y-123298000D02*
X144329999Y-123298000D01*
G75*
G02*
X144080000Y-123048001I0J249999D01*
G01*
X144080000Y-122347999D01*
G75*
G02*
X144329999Y-122098000I249999J0D01*
G01*
X145230001Y-122098000D01*
G75*
G02*
X145480000Y-122347999I0J-249999D01*
G01*
X145480000Y-123048001D01*
G75*
G02*
X145230001Y-123298000I-249999J0D01*
G01*
G37*
G36*
G01*
X145230001Y-125298000D02*
X144329999Y-125298000D01*
G75*
G02*
X144080000Y-125048001I0J249999D01*
G01*
X144080000Y-124347999D01*
G75*
G02*
X144329999Y-124098000I249999J0D01*
G01*
X145230001Y-124098000D01*
G75*
G02*
X145480000Y-124347999I0J-249999D01*
G01*
X145480000Y-125048001D01*
G75*
G02*
X145230001Y-125298000I-249999J0D01*
G01*
G37*
G36*
G01*
X149536999Y-124123400D02*
X150437001Y-124123400D01*
G75*
G02*
X150687000Y-124373399I0J-249999D01*
G01*
X150687000Y-125073401D01*
G75*
G02*
X150437001Y-125323400I-249999J0D01*
G01*
X149536999Y-125323400D01*
G75*
G02*
X149287000Y-125073401I0J249999D01*
G01*
X149287000Y-124373399D01*
G75*
G02*
X149536999Y-124123400I249999J0D01*
G01*
G37*
G36*
G01*
X149536999Y-122123400D02*
X150437001Y-122123400D01*
G75*
G02*
X150687000Y-122373399I0J-249999D01*
G01*
X150687000Y-123073401D01*
G75*
G02*
X150437001Y-123323400I-249999J0D01*
G01*
X149536999Y-123323400D01*
G75*
G02*
X149287000Y-123073401I0J249999D01*
G01*
X149287000Y-122373399D01*
G75*
G02*
X149536999Y-122123400I249999J0D01*
G01*
G37*
G36*
G01*
X152203999Y-124098000D02*
X153104001Y-124098000D01*
G75*
G02*
X153354000Y-124347999I0J-249999D01*
G01*
X153354000Y-125048001D01*
G75*
G02*
X153104001Y-125298000I-249999J0D01*
G01*
X152203999Y-125298000D01*
G75*
G02*
X151954000Y-125048001I0J249999D01*
G01*
X151954000Y-124347999D01*
G75*
G02*
X152203999Y-124098000I249999J0D01*
G01*
G37*
G36*
G01*
X152203999Y-122098000D02*
X153104001Y-122098000D01*
G75*
G02*
X153354000Y-122347999I0J-249999D01*
G01*
X153354000Y-123048001D01*
G75*
G02*
X153104001Y-123298000I-249999J0D01*
G01*
X152203999Y-123298000D01*
G75*
G02*
X151954000Y-123048001I0J249999D01*
G01*
X151954000Y-122347999D01*
G75*
G02*
X152203999Y-122098000I249999J0D01*
G01*
G37*
G36*
G01*
X144418000Y-130752001D02*
X144418000Y-129851999D01*
G75*
G02*
X144667999Y-129602000I249999J0D01*
G01*
X145368001Y-129602000D01*
G75*
G02*
X145618000Y-129851999I0J-249999D01*
G01*
X145618000Y-130752001D01*
G75*
G02*
X145368001Y-131002000I-249999J0D01*
G01*
X144667999Y-131002000D01*
G75*
G02*
X144418000Y-130752001I0J249999D01*
G01*
G37*
G36*
G01*
X142418000Y-130752001D02*
X142418000Y-129851999D01*
G75*
G02*
X142667999Y-129602000I249999J0D01*
G01*
X143368001Y-129602000D01*
G75*
G02*
X143618000Y-129851999I0J-249999D01*
G01*
X143618000Y-130752001D01*
G75*
G02*
X143368001Y-131002000I-249999J0D01*
G01*
X142667999Y-131002000D01*
G75*
G02*
X142418000Y-130752001I0J249999D01*
G01*
G37*
G36*
G01*
X144434000Y-127958001D02*
X144434000Y-127057999D01*
G75*
G02*
X144683999Y-126808000I249999J0D01*
G01*
X145384001Y-126808000D01*
G75*
G02*
X145634000Y-127057999I0J-249999D01*
G01*
X145634000Y-127958001D01*
G75*
G02*
X145384001Y-128208000I-249999J0D01*
G01*
X144683999Y-128208000D01*
G75*
G02*
X144434000Y-127958001I0J249999D01*
G01*
G37*
G36*
G01*
X142434000Y-127958001D02*
X142434000Y-127057999D01*
G75*
G02*
X142683999Y-126808000I249999J0D01*
G01*
X143384001Y-126808000D01*
G75*
G02*
X143634000Y-127057999I0J-249999D01*
G01*
X143634000Y-127958001D01*
G75*
G02*
X143384001Y-128208000I-249999J0D01*
G01*
X142683999Y-128208000D01*
G75*
G02*
X142434000Y-127958001I0J249999D01*
G01*
G37*
G36*
G01*
X148659001Y-115694000D02*
X147758999Y-115694000D01*
G75*
G02*
X147509000Y-115444001I0J249999D01*
G01*
X147509000Y-114743999D01*
G75*
G02*
X147758999Y-114494000I249999J0D01*
G01*
X148659001Y-114494000D01*
G75*
G02*
X148909000Y-114743999I0J-249999D01*
G01*
X148909000Y-115444001D01*
G75*
G02*
X148659001Y-115694000I-249999J0D01*
G01*
G37*
G36*
G01*
X148659001Y-117694000D02*
X147758999Y-117694000D01*
G75*
G02*
X147509000Y-117444001I0J249999D01*
G01*
X147509000Y-116743999D01*
G75*
G02*
X147758999Y-116494000I249999J0D01*
G01*
X148659001Y-116494000D01*
G75*
G02*
X148909000Y-116743999I0J-249999D01*
G01*
X148909000Y-117444001D01*
G75*
G02*
X148659001Y-117694000I-249999J0D01*
G01*
G37*
X170410000Y-104140000D03*
X167410000Y-103190000D03*
X167410000Y-105090000D03*
G36*
G01*
X160216000Y-120998000D02*
X160216000Y-120048000D01*
G75*
G02*
X160466000Y-119798000I250000J0D01*
G01*
X161141000Y-119798000D01*
G75*
G02*
X161391000Y-120048000I0J-250000D01*
G01*
X161391000Y-120998000D01*
G75*
G02*
X161141000Y-121248000I-250000J0D01*
G01*
X160466000Y-121248000D01*
G75*
G02*
X160216000Y-120998000I0J250000D01*
G01*
G37*
G36*
G01*
X158141000Y-120998000D02*
X158141000Y-120048000D01*
G75*
G02*
X158391000Y-119798000I250000J0D01*
G01*
X159066000Y-119798000D01*
G75*
G02*
X159316000Y-120048000I0J-250000D01*
G01*
X159316000Y-120998000D01*
G75*
G02*
X159066000Y-121248000I-250000J0D01*
G01*
X158391000Y-121248000D01*
G75*
G02*
X158141000Y-120998000I0J250000D01*
G01*
G37*
G36*
G01*
X163101000Y-118052000D02*
X164051000Y-118052000D01*
G75*
G02*
X164301000Y-118302000I0J-250000D01*
G01*
X164301000Y-118977000D01*
G75*
G02*
X164051000Y-119227000I-250000J0D01*
G01*
X163101000Y-119227000D01*
G75*
G02*
X162851000Y-118977000I0J250000D01*
G01*
X162851000Y-118302000D01*
G75*
G02*
X163101000Y-118052000I250000J0D01*
G01*
G37*
G36*
G01*
X163101000Y-115977000D02*
X164051000Y-115977000D01*
G75*
G02*
X164301000Y-116227000I0J-250000D01*
G01*
X164301000Y-116902000D01*
G75*
G02*
X164051000Y-117152000I-250000J0D01*
G01*
X163101000Y-117152000D01*
G75*
G02*
X162851000Y-116902000I0J250000D01*
G01*
X162851000Y-116227000D01*
G75*
G02*
X163101000Y-115977000I250000J0D01*
G01*
G37*
G36*
G01*
X160216000Y-116807000D02*
X160216000Y-115857000D01*
G75*
G02*
X160466000Y-115607000I250000J0D01*
G01*
X161141000Y-115607000D01*
G75*
G02*
X161391000Y-115857000I0J-250000D01*
G01*
X161391000Y-116807000D01*
G75*
G02*
X161141000Y-117057000I-250000J0D01*
G01*
X160466000Y-117057000D01*
G75*
G02*
X160216000Y-116807000I0J250000D01*
G01*
G37*
G36*
G01*
X158141000Y-116807000D02*
X158141000Y-115857000D01*
G75*
G02*
X158391000Y-115607000I250000J0D01*
G01*
X159066000Y-115607000D01*
G75*
G02*
X159316000Y-115857000I0J-250000D01*
G01*
X159316000Y-116807000D01*
G75*
G02*
X159066000Y-117057000I-250000J0D01*
G01*
X158391000Y-117057000D01*
G75*
G02*
X158141000Y-116807000I0J250000D01*
G01*
G37*
G36*
G01*
X173007000Y-127958000D02*
X173957000Y-127958000D01*
G75*
G02*
X174207000Y-128208000I0J-250000D01*
G01*
X174207000Y-128883000D01*
G75*
G02*
X173957000Y-129133000I-250000J0D01*
G01*
X173007000Y-129133000D01*
G75*
G02*
X172757000Y-128883000I0J250000D01*
G01*
X172757000Y-128208000D01*
G75*
G02*
X173007000Y-127958000I250000J0D01*
G01*
G37*
G36*
G01*
X173007000Y-125883000D02*
X173957000Y-125883000D01*
G75*
G02*
X174207000Y-126133000I0J-250000D01*
G01*
X174207000Y-126808000D01*
G75*
G02*
X173957000Y-127058000I-250000J0D01*
G01*
X173007000Y-127058000D01*
G75*
G02*
X172757000Y-126808000I0J250000D01*
G01*
X172757000Y-126133000D01*
G75*
G02*
X173007000Y-125883000I250000J0D01*
G01*
G37*
G36*
G01*
X175088999Y-128666000D02*
X175939001Y-128666000D01*
G75*
G02*
X176189000Y-128915999I0J-249999D01*
G01*
X176189000Y-129991001D01*
G75*
G02*
X175939001Y-130241000I-249999J0D01*
G01*
X175088999Y-130241000D01*
G75*
G02*
X174839000Y-129991001I0J249999D01*
G01*
X174839000Y-128915999D01*
G75*
G02*
X175088999Y-128666000I249999J0D01*
G01*
G37*
G36*
G01*
X175088999Y-125791000D02*
X175939001Y-125791000D01*
G75*
G02*
X176189000Y-126040999I0J-249999D01*
G01*
X176189000Y-127116001D01*
G75*
G02*
X175939001Y-127366000I-249999J0D01*
G01*
X175088999Y-127366000D01*
G75*
G02*
X174839000Y-127116001I0J249999D01*
G01*
X174839000Y-126040999D01*
G75*
G02*
X175088999Y-125791000I249999J0D01*
G01*
G37*
G36*
G01*
X164180500Y-93350500D02*
X165130500Y-93350500D01*
G75*
G02*
X165380500Y-93600500I0J-250000D01*
G01*
X165380500Y-94275500D01*
G75*
G02*
X165130500Y-94525500I-250000J0D01*
G01*
X164180500Y-94525500D01*
G75*
G02*
X163930500Y-94275500I0J250000D01*
G01*
X163930500Y-93600500D01*
G75*
G02*
X164180500Y-93350500I250000J0D01*
G01*
G37*
G36*
G01*
X164180500Y-91275500D02*
X165130500Y-91275500D01*
G75*
G02*
X165380500Y-91525500I0J-250000D01*
G01*
X165380500Y-92200500D01*
G75*
G02*
X165130500Y-92450500I-250000J0D01*
G01*
X164180500Y-92450500D01*
G75*
G02*
X163930500Y-92200500I0J250000D01*
G01*
X163930500Y-91525500D01*
G75*
G02*
X164180500Y-91275500I250000J0D01*
G01*
G37*
G36*
G01*
X160166000Y-123005001D02*
X160166000Y-122104999D01*
G75*
G02*
X160415999Y-121855000I249999J0D01*
G01*
X161116001Y-121855000D01*
G75*
G02*
X161366000Y-122104999I0J-249999D01*
G01*
X161366000Y-123005001D01*
G75*
G02*
X161116001Y-123255000I-249999J0D01*
G01*
X160415999Y-123255000D01*
G75*
G02*
X160166000Y-123005001I0J249999D01*
G01*
G37*
G36*
G01*
X158166000Y-123005001D02*
X158166000Y-122104999D01*
G75*
G02*
X158415999Y-121855000I249999J0D01*
G01*
X159116001Y-121855000D01*
G75*
G02*
X159366000Y-122104999I0J-249999D01*
G01*
X159366000Y-123005001D01*
G75*
G02*
X159116001Y-123255000I-249999J0D01*
G01*
X158415999Y-123255000D01*
G75*
G02*
X158166000Y-123005001I0J249999D01*
G01*
G37*
G36*
G01*
X160166000Y-118814001D02*
X160166000Y-117913999D01*
G75*
G02*
X160415999Y-117664000I249999J0D01*
G01*
X161116001Y-117664000D01*
G75*
G02*
X161366000Y-117913999I0J-249999D01*
G01*
X161366000Y-118814001D01*
G75*
G02*
X161116001Y-119064000I-249999J0D01*
G01*
X160415999Y-119064000D01*
G75*
G02*
X160166000Y-118814001I0J249999D01*
G01*
G37*
G36*
G01*
X158166000Y-118814001D02*
X158166000Y-117913999D01*
G75*
G02*
X158415999Y-117664000I249999J0D01*
G01*
X159116001Y-117664000D01*
G75*
G02*
X159366000Y-117913999I0J-249999D01*
G01*
X159366000Y-118814001D01*
G75*
G02*
X159116001Y-119064000I-249999J0D01*
G01*
X158415999Y-119064000D01*
G75*
G02*
X158166000Y-118814001I0J249999D01*
G01*
G37*
G36*
G01*
X122370001Y-82658000D02*
X121469999Y-82658000D01*
G75*
G02*
X121220000Y-82408001I0J249999D01*
G01*
X121220000Y-81707999D01*
G75*
G02*
X121469999Y-81458000I249999J0D01*
G01*
X122370001Y-81458000D01*
G75*
G02*
X122620000Y-81707999I0J-249999D01*
G01*
X122620000Y-82408001D01*
G75*
G02*
X122370001Y-82658000I-249999J0D01*
G01*
G37*
G36*
G01*
X122370001Y-84658000D02*
X121469999Y-84658000D01*
G75*
G02*
X121220000Y-84408001I0J249999D01*
G01*
X121220000Y-83707999D01*
G75*
G02*
X121469999Y-83458000I249999J0D01*
G01*
X122370001Y-83458000D01*
G75*
G02*
X122620000Y-83707999I0J-249999D01*
G01*
X122620000Y-84408001D01*
G75*
G02*
X122370001Y-84658000I-249999J0D01*
G01*
G37*
D11*
X170956000Y-132690000D03*
X166356000Y-132690000D03*
X168656000Y-132690000D03*
D12*
X168656000Y-126390000D03*
G36*
G01*
X130879000Y-97122000D02*
X130879000Y-96172000D01*
G75*
G02*
X131129000Y-95922000I250000J0D01*
G01*
X131804000Y-95922000D01*
G75*
G02*
X132054000Y-96172000I0J-250000D01*
G01*
X132054000Y-97122000D01*
G75*
G02*
X131804000Y-97372000I-250000J0D01*
G01*
X131129000Y-97372000D01*
G75*
G02*
X130879000Y-97122000I0J250000D01*
G01*
G37*
G36*
G01*
X128804000Y-97122000D02*
X128804000Y-96172000D01*
G75*
G02*
X129054000Y-95922000I250000J0D01*
G01*
X129729000Y-95922000D01*
G75*
G02*
X129979000Y-96172000I0J-250000D01*
G01*
X129979000Y-97122000D01*
G75*
G02*
X129729000Y-97372000I-250000J0D01*
G01*
X129054000Y-97372000D01*
G75*
G02*
X128804000Y-97122000I0J250000D01*
G01*
G37*
G36*
G01*
X142424999Y-82823000D02*
X143325001Y-82823000D01*
G75*
G02*
X143575000Y-83072999I0J-249999D01*
G01*
X143575000Y-83773001D01*
G75*
G02*
X143325001Y-84023000I-249999J0D01*
G01*
X142424999Y-84023000D01*
G75*
G02*
X142175000Y-83773001I0J249999D01*
G01*
X142175000Y-83072999D01*
G75*
G02*
X142424999Y-82823000I249999J0D01*
G01*
G37*
G36*
G01*
X142424999Y-80823000D02*
X143325001Y-80823000D01*
G75*
G02*
X143575000Y-81072999I0J-249999D01*
G01*
X143575000Y-81773001D01*
G75*
G02*
X143325001Y-82023000I-249999J0D01*
G01*
X142424999Y-82023000D01*
G75*
G02*
X142175000Y-81773001I0J249999D01*
G01*
X142175000Y-81072999D01*
G75*
G02*
X142424999Y-80823000I249999J0D01*
G01*
G37*
G36*
G01*
X169749999Y-93872000D02*
X170650001Y-93872000D01*
G75*
G02*
X170900000Y-94121999I0J-249999D01*
G01*
X170900000Y-94822001D01*
G75*
G02*
X170650001Y-95072000I-249999J0D01*
G01*
X169749999Y-95072000D01*
G75*
G02*
X169500000Y-94822001I0J249999D01*
G01*
X169500000Y-94121999D01*
G75*
G02*
X169749999Y-93872000I249999J0D01*
G01*
G37*
G36*
G01*
X169749999Y-91872000D02*
X170650001Y-91872000D01*
G75*
G02*
X170900000Y-92121999I0J-249999D01*
G01*
X170900000Y-92822001D01*
G75*
G02*
X170650001Y-93072000I-249999J0D01*
G01*
X169749999Y-93072000D01*
G75*
G02*
X169500000Y-92822001I0J249999D01*
G01*
X169500000Y-92121999D01*
G75*
G02*
X169749999Y-91872000I249999J0D01*
G01*
G37*
D10*
X156996000Y-111506000D03*
X159996000Y-112456000D03*
X159996000Y-110556000D03*
G36*
G01*
X134932000Y-81186000D02*
X134932000Y-82136000D01*
G75*
G02*
X134682000Y-82386000I-250000J0D01*
G01*
X134007000Y-82386000D01*
G75*
G02*
X133757000Y-82136000I0J250000D01*
G01*
X133757000Y-81186000D01*
G75*
G02*
X134007000Y-80936000I250000J0D01*
G01*
X134682000Y-80936000D01*
G75*
G02*
X134932000Y-81186000I0J-250000D01*
G01*
G37*
G36*
G01*
X137007000Y-81186000D02*
X137007000Y-82136000D01*
G75*
G02*
X136757000Y-82386000I-250000J0D01*
G01*
X136082000Y-82386000D01*
G75*
G02*
X135832000Y-82136000I0J250000D01*
G01*
X135832000Y-81186000D01*
G75*
G02*
X136082000Y-80936000I250000J0D01*
G01*
X136757000Y-80936000D01*
G75*
G02*
X137007000Y-81186000I0J-250000D01*
G01*
G37*
G36*
G01*
X139642000Y-82136000D02*
X139642000Y-81186000D01*
G75*
G02*
X139892000Y-80936000I250000J0D01*
G01*
X140567000Y-80936000D01*
G75*
G02*
X140817000Y-81186000I0J-250000D01*
G01*
X140817000Y-82136000D01*
G75*
G02*
X140567000Y-82386000I-250000J0D01*
G01*
X139892000Y-82386000D01*
G75*
G02*
X139642000Y-82136000I0J250000D01*
G01*
G37*
G36*
G01*
X137567000Y-82136000D02*
X137567000Y-81186000D01*
G75*
G02*
X137817000Y-80936000I250000J0D01*
G01*
X138492000Y-80936000D01*
G75*
G02*
X138742000Y-81186000I0J-250000D01*
G01*
X138742000Y-82136000D01*
G75*
G02*
X138492000Y-82386000I-250000J0D01*
G01*
X137817000Y-82386000D01*
G75*
G02*
X137567000Y-82136000I0J250000D01*
G01*
G37*
G36*
G01*
X150974999Y-119190000D02*
X153825001Y-119190000D01*
G75*
G02*
X154075000Y-119439999I0J-249999D01*
G01*
X154075000Y-120340001D01*
G75*
G02*
X153825001Y-120590000I-249999J0D01*
G01*
X150974999Y-120590000D01*
G75*
G02*
X150725000Y-120340001I0J249999D01*
G01*
X150725000Y-119439999D01*
G75*
G02*
X150974999Y-119190000I249999J0D01*
G01*
G37*
G36*
G01*
X150974999Y-113090000D02*
X153825001Y-113090000D01*
G75*
G02*
X154075000Y-113339999I0J-249999D01*
G01*
X154075000Y-114240001D01*
G75*
G02*
X153825001Y-114490000I-249999J0D01*
G01*
X150974999Y-114490000D01*
G75*
G02*
X150725000Y-114240001I0J249999D01*
G01*
X150725000Y-113339999D01*
G75*
G02*
X150974999Y-113090000I249999J0D01*
G01*
G37*
G36*
G01*
X163101000Y-121862000D02*
X164051000Y-121862000D01*
G75*
G02*
X164301000Y-122112000I0J-250000D01*
G01*
X164301000Y-122787000D01*
G75*
G02*
X164051000Y-123037000I-250000J0D01*
G01*
X163101000Y-123037000D01*
G75*
G02*
X162851000Y-122787000I0J250000D01*
G01*
X162851000Y-122112000D01*
G75*
G02*
X163101000Y-121862000I250000J0D01*
G01*
G37*
G36*
G01*
X163101000Y-119787000D02*
X164051000Y-119787000D01*
G75*
G02*
X164301000Y-120037000I0J-250000D01*
G01*
X164301000Y-120712000D01*
G75*
G02*
X164051000Y-120962000I-250000J0D01*
G01*
X163101000Y-120962000D01*
G75*
G02*
X162851000Y-120712000I0J250000D01*
G01*
X162851000Y-120037000D01*
G75*
G02*
X163101000Y-119787000I250000J0D01*
G01*
G37*
D13*
X158750000Y-136939000D03*
X158750000Y-131539000D03*
G36*
G01*
X145091999Y-82823000D02*
X145992001Y-82823000D01*
G75*
G02*
X146242000Y-83072999I0J-249999D01*
G01*
X146242000Y-83773001D01*
G75*
G02*
X145992001Y-84023000I-249999J0D01*
G01*
X145091999Y-84023000D01*
G75*
G02*
X144842000Y-83773001I0J249999D01*
G01*
X144842000Y-83072999D01*
G75*
G02*
X145091999Y-82823000I249999J0D01*
G01*
G37*
G36*
G01*
X145091999Y-80823000D02*
X145992001Y-80823000D01*
G75*
G02*
X146242000Y-81072999I0J-249999D01*
G01*
X146242000Y-81773001D01*
G75*
G02*
X145992001Y-82023000I-249999J0D01*
G01*
X145091999Y-82023000D01*
G75*
G02*
X144842000Y-81773001I0J249999D01*
G01*
X144842000Y-81072999D01*
G75*
G02*
X145091999Y-80823000I249999J0D01*
G01*
G37*
G36*
G01*
X131133001Y-76308000D02*
X130232999Y-76308000D01*
G75*
G02*
X129983000Y-76058001I0J249999D01*
G01*
X129983000Y-75357999D01*
G75*
G02*
X130232999Y-75108000I249999J0D01*
G01*
X131133001Y-75108000D01*
G75*
G02*
X131383000Y-75357999I0J-249999D01*
G01*
X131383000Y-76058001D01*
G75*
G02*
X131133001Y-76308000I-249999J0D01*
G01*
G37*
G36*
G01*
X131133001Y-78308000D02*
X130232999Y-78308000D01*
G75*
G02*
X129983000Y-78058001I0J249999D01*
G01*
X129983000Y-77357999D01*
G75*
G02*
X130232999Y-77108000I249999J0D01*
G01*
X131133001Y-77108000D01*
G75*
G02*
X131383000Y-77357999I0J-249999D01*
G01*
X131383000Y-78058001D01*
G75*
G02*
X131133001Y-78308000I-249999J0D01*
G01*
G37*
G36*
G01*
X144468000Y-136238000D02*
X144468000Y-135288000D01*
G75*
G02*
X144718000Y-135038000I250000J0D01*
G01*
X145393000Y-135038000D01*
G75*
G02*
X145643000Y-135288000I0J-250000D01*
G01*
X145643000Y-136238000D01*
G75*
G02*
X145393000Y-136488000I-250000J0D01*
G01*
X144718000Y-136488000D01*
G75*
G02*
X144468000Y-136238000I0J250000D01*
G01*
G37*
G36*
G01*
X142393000Y-136238000D02*
X142393000Y-135288000D01*
G75*
G02*
X142643000Y-135038000I250000J0D01*
G01*
X143318000Y-135038000D01*
G75*
G02*
X143568000Y-135288000I0J-250000D01*
G01*
X143568000Y-136238000D01*
G75*
G02*
X143318000Y-136488000I-250000J0D01*
G01*
X142643000Y-136488000D01*
G75*
G02*
X142393000Y-136238000I0J250000D01*
G01*
G37*
G36*
G01*
X165919999Y-77108000D02*
X166820001Y-77108000D01*
G75*
G02*
X167070000Y-77357999I0J-249999D01*
G01*
X167070000Y-78058001D01*
G75*
G02*
X166820001Y-78308000I-249999J0D01*
G01*
X165919999Y-78308000D01*
G75*
G02*
X165670000Y-78058001I0J249999D01*
G01*
X165670000Y-77357999D01*
G75*
G02*
X165919999Y-77108000I249999J0D01*
G01*
G37*
G36*
G01*
X165919999Y-75108000D02*
X166820001Y-75108000D01*
G75*
G02*
X167070000Y-75357999I0J-249999D01*
G01*
X167070000Y-76058001D01*
G75*
G02*
X166820001Y-76308000I-249999J0D01*
G01*
X165919999Y-76308000D01*
G75*
G02*
X165670000Y-76058001I0J249999D01*
G01*
X165670000Y-75357999D01*
G75*
G02*
X165919999Y-75108000I249999J0D01*
G01*
G37*
G36*
G01*
X160839999Y-77108000D02*
X161740001Y-77108000D01*
G75*
G02*
X161990000Y-77357999I0J-249999D01*
G01*
X161990000Y-78058001D01*
G75*
G02*
X161740001Y-78308000I-249999J0D01*
G01*
X160839999Y-78308000D01*
G75*
G02*
X160590000Y-78058001I0J249999D01*
G01*
X160590000Y-77357999D01*
G75*
G02*
X160839999Y-77108000I249999J0D01*
G01*
G37*
G36*
G01*
X160839999Y-75108000D02*
X161740001Y-75108000D01*
G75*
G02*
X161990000Y-75357999I0J-249999D01*
G01*
X161990000Y-76058001D01*
G75*
G02*
X161740001Y-76308000I-249999J0D01*
G01*
X160839999Y-76308000D01*
G75*
G02*
X160590000Y-76058001I0J249999D01*
G01*
X160590000Y-75357999D01*
G75*
G02*
X160839999Y-75108000I249999J0D01*
G01*
G37*
G36*
G01*
X155759999Y-77108000D02*
X156660001Y-77108000D01*
G75*
G02*
X156910000Y-77357999I0J-249999D01*
G01*
X156910000Y-78058001D01*
G75*
G02*
X156660001Y-78308000I-249999J0D01*
G01*
X155759999Y-78308000D01*
G75*
G02*
X155510000Y-78058001I0J249999D01*
G01*
X155510000Y-77357999D01*
G75*
G02*
X155759999Y-77108000I249999J0D01*
G01*
G37*
G36*
G01*
X155759999Y-75108000D02*
X156660001Y-75108000D01*
G75*
G02*
X156910000Y-75357999I0J-249999D01*
G01*
X156910000Y-76058001D01*
G75*
G02*
X156660001Y-76308000I-249999J0D01*
G01*
X155759999Y-76308000D01*
G75*
G02*
X155510000Y-76058001I0J249999D01*
G01*
X155510000Y-75357999D01*
G75*
G02*
X155759999Y-75108000I249999J0D01*
G01*
G37*
G36*
G01*
X150679999Y-77108000D02*
X151580001Y-77108000D01*
G75*
G02*
X151830000Y-77357999I0J-249999D01*
G01*
X151830000Y-78058001D01*
G75*
G02*
X151580001Y-78308000I-249999J0D01*
G01*
X150679999Y-78308000D01*
G75*
G02*
X150430000Y-78058001I0J249999D01*
G01*
X150430000Y-77357999D01*
G75*
G02*
X150679999Y-77108000I249999J0D01*
G01*
G37*
G36*
G01*
X150679999Y-75108000D02*
X151580001Y-75108000D01*
G75*
G02*
X151830000Y-75357999I0J-249999D01*
G01*
X151830000Y-76058001D01*
G75*
G02*
X151580001Y-76308000I-249999J0D01*
G01*
X150679999Y-76308000D01*
G75*
G02*
X150430000Y-76058001I0J249999D01*
G01*
X150430000Y-75357999D01*
G75*
G02*
X150679999Y-75108000I249999J0D01*
G01*
G37*
G36*
G01*
X148684000Y-81973000D02*
X147734000Y-81973000D01*
G75*
G02*
X147484000Y-81723000I0J250000D01*
G01*
X147484000Y-81048000D01*
G75*
G02*
X147734000Y-80798000I250000J0D01*
G01*
X148684000Y-80798000D01*
G75*
G02*
X148934000Y-81048000I0J-250000D01*
G01*
X148934000Y-81723000D01*
G75*
G02*
X148684000Y-81973000I-250000J0D01*
G01*
G37*
G36*
G01*
X148684000Y-84048000D02*
X147734000Y-84048000D01*
G75*
G02*
X147484000Y-83798000I0J250000D01*
G01*
X147484000Y-83123000D01*
G75*
G02*
X147734000Y-82873000I250000J0D01*
G01*
X148684000Y-82873000D01*
G75*
G02*
X148934000Y-83123000I0J-250000D01*
G01*
X148934000Y-83798000D01*
G75*
G02*
X148684000Y-84048000I-250000J0D01*
G01*
G37*
G36*
G01*
X144468000Y-133571000D02*
X144468000Y-132621000D01*
G75*
G02*
X144718000Y-132371000I250000J0D01*
G01*
X145393000Y-132371000D01*
G75*
G02*
X145643000Y-132621000I0J-250000D01*
G01*
X145643000Y-133571000D01*
G75*
G02*
X145393000Y-133821000I-250000J0D01*
G01*
X144718000Y-133821000D01*
G75*
G02*
X144468000Y-133571000I0J250000D01*
G01*
G37*
G36*
G01*
X142393000Y-133571000D02*
X142393000Y-132621000D01*
G75*
G02*
X142643000Y-132371000I250000J0D01*
G01*
X143318000Y-132371000D01*
G75*
G02*
X143568000Y-132621000I0J-250000D01*
G01*
X143568000Y-133571000D01*
G75*
G02*
X143318000Y-133821000I-250000J0D01*
G01*
X142643000Y-133821000D01*
G75*
G02*
X142393000Y-133571000I0J250000D01*
G01*
G37*
G36*
G01*
X154171000Y-96867000D02*
X154371000Y-96867000D01*
G75*
G02*
X154471000Y-96967000I0J-100000D01*
G01*
X154471000Y-98242000D01*
G75*
G02*
X154371000Y-98342000I-100000J0D01*
G01*
X154171000Y-98342000D01*
G75*
G02*
X154071000Y-98242000I0J100000D01*
G01*
X154071000Y-96967000D01*
G75*
G02*
X154171000Y-96867000I100000J0D01*
G01*
G37*
G36*
G01*
X154821000Y-96867000D02*
X155021000Y-96867000D01*
G75*
G02*
X155121000Y-96967000I0J-100000D01*
G01*
X155121000Y-98242000D01*
G75*
G02*
X155021000Y-98342000I-100000J0D01*
G01*
X154821000Y-98342000D01*
G75*
G02*
X154721000Y-98242000I0J100000D01*
G01*
X154721000Y-96967000D01*
G75*
G02*
X154821000Y-96867000I100000J0D01*
G01*
G37*
G36*
G01*
X155471000Y-96867000D02*
X155671000Y-96867000D01*
G75*
G02*
X155771000Y-96967000I0J-100000D01*
G01*
X155771000Y-98242000D01*
G75*
G02*
X155671000Y-98342000I-100000J0D01*
G01*
X155471000Y-98342000D01*
G75*
G02*
X155371000Y-98242000I0J100000D01*
G01*
X155371000Y-96967000D01*
G75*
G02*
X155471000Y-96867000I100000J0D01*
G01*
G37*
G36*
G01*
X156121000Y-96867000D02*
X156321000Y-96867000D01*
G75*
G02*
X156421000Y-96967000I0J-100000D01*
G01*
X156421000Y-98242000D01*
G75*
G02*
X156321000Y-98342000I-100000J0D01*
G01*
X156121000Y-98342000D01*
G75*
G02*
X156021000Y-98242000I0J100000D01*
G01*
X156021000Y-96967000D01*
G75*
G02*
X156121000Y-96867000I100000J0D01*
G01*
G37*
G36*
G01*
X156771000Y-96867000D02*
X156971000Y-96867000D01*
G75*
G02*
X157071000Y-96967000I0J-100000D01*
G01*
X157071000Y-98242000D01*
G75*
G02*
X156971000Y-98342000I-100000J0D01*
G01*
X156771000Y-98342000D01*
G75*
G02*
X156671000Y-98242000I0J100000D01*
G01*
X156671000Y-96967000D01*
G75*
G02*
X156771000Y-96867000I100000J0D01*
G01*
G37*
G36*
G01*
X157421000Y-96867000D02*
X157621000Y-96867000D01*
G75*
G02*
X157721000Y-96967000I0J-100000D01*
G01*
X157721000Y-98242000D01*
G75*
G02*
X157621000Y-98342000I-100000J0D01*
G01*
X157421000Y-98342000D01*
G75*
G02*
X157321000Y-98242000I0J100000D01*
G01*
X157321000Y-96967000D01*
G75*
G02*
X157421000Y-96867000I100000J0D01*
G01*
G37*
G36*
G01*
X158071000Y-96867000D02*
X158271000Y-96867000D01*
G75*
G02*
X158371000Y-96967000I0J-100000D01*
G01*
X158371000Y-98242000D01*
G75*
G02*
X158271000Y-98342000I-100000J0D01*
G01*
X158071000Y-98342000D01*
G75*
G02*
X157971000Y-98242000I0J100000D01*
G01*
X157971000Y-96967000D01*
G75*
G02*
X158071000Y-96867000I100000J0D01*
G01*
G37*
G36*
G01*
X158721000Y-96867000D02*
X158921000Y-96867000D01*
G75*
G02*
X159021000Y-96967000I0J-100000D01*
G01*
X159021000Y-98242000D01*
G75*
G02*
X158921000Y-98342000I-100000J0D01*
G01*
X158721000Y-98342000D01*
G75*
G02*
X158621000Y-98242000I0J100000D01*
G01*
X158621000Y-96967000D01*
G75*
G02*
X158721000Y-96867000I100000J0D01*
G01*
G37*
G36*
G01*
X159371000Y-96867000D02*
X159571000Y-96867000D01*
G75*
G02*
X159671000Y-96967000I0J-100000D01*
G01*
X159671000Y-98242000D01*
G75*
G02*
X159571000Y-98342000I-100000J0D01*
G01*
X159371000Y-98342000D01*
G75*
G02*
X159271000Y-98242000I0J100000D01*
G01*
X159271000Y-96967000D01*
G75*
G02*
X159371000Y-96867000I100000J0D01*
G01*
G37*
G36*
G01*
X160021000Y-96867000D02*
X160221000Y-96867000D01*
G75*
G02*
X160321000Y-96967000I0J-100000D01*
G01*
X160321000Y-98242000D01*
G75*
G02*
X160221000Y-98342000I-100000J0D01*
G01*
X160021000Y-98342000D01*
G75*
G02*
X159921000Y-98242000I0J100000D01*
G01*
X159921000Y-96967000D01*
G75*
G02*
X160021000Y-96867000I100000J0D01*
G01*
G37*
G36*
G01*
X160671000Y-96867000D02*
X160871000Y-96867000D01*
G75*
G02*
X160971000Y-96967000I0J-100000D01*
G01*
X160971000Y-98242000D01*
G75*
G02*
X160871000Y-98342000I-100000J0D01*
G01*
X160671000Y-98342000D01*
G75*
G02*
X160571000Y-98242000I0J100000D01*
G01*
X160571000Y-96967000D01*
G75*
G02*
X160671000Y-96867000I100000J0D01*
G01*
G37*
G36*
G01*
X161321000Y-96867000D02*
X161521000Y-96867000D01*
G75*
G02*
X161621000Y-96967000I0J-100000D01*
G01*
X161621000Y-98242000D01*
G75*
G02*
X161521000Y-98342000I-100000J0D01*
G01*
X161321000Y-98342000D01*
G75*
G02*
X161221000Y-98242000I0J100000D01*
G01*
X161221000Y-96967000D01*
G75*
G02*
X161321000Y-96867000I100000J0D01*
G01*
G37*
G36*
G01*
X161971000Y-96867000D02*
X162171000Y-96867000D01*
G75*
G02*
X162271000Y-96967000I0J-100000D01*
G01*
X162271000Y-98242000D01*
G75*
G02*
X162171000Y-98342000I-100000J0D01*
G01*
X161971000Y-98342000D01*
G75*
G02*
X161871000Y-98242000I0J100000D01*
G01*
X161871000Y-96967000D01*
G75*
G02*
X161971000Y-96867000I100000J0D01*
G01*
G37*
G36*
G01*
X162621000Y-96867000D02*
X162821000Y-96867000D01*
G75*
G02*
X162921000Y-96967000I0J-100000D01*
G01*
X162921000Y-98242000D01*
G75*
G02*
X162821000Y-98342000I-100000J0D01*
G01*
X162621000Y-98342000D01*
G75*
G02*
X162521000Y-98242000I0J100000D01*
G01*
X162521000Y-96967000D01*
G75*
G02*
X162621000Y-96867000I100000J0D01*
G01*
G37*
G36*
G01*
X162621000Y-91142000D02*
X162821000Y-91142000D01*
G75*
G02*
X162921000Y-91242000I0J-100000D01*
G01*
X162921000Y-92517000D01*
G75*
G02*
X162821000Y-92617000I-100000J0D01*
G01*
X162621000Y-92617000D01*
G75*
G02*
X162521000Y-92517000I0J100000D01*
G01*
X162521000Y-91242000D01*
G75*
G02*
X162621000Y-91142000I100000J0D01*
G01*
G37*
G36*
G01*
X161971000Y-91142000D02*
X162171000Y-91142000D01*
G75*
G02*
X162271000Y-91242000I0J-100000D01*
G01*
X162271000Y-92517000D01*
G75*
G02*
X162171000Y-92617000I-100000J0D01*
G01*
X161971000Y-92617000D01*
G75*
G02*
X161871000Y-92517000I0J100000D01*
G01*
X161871000Y-91242000D01*
G75*
G02*
X161971000Y-91142000I100000J0D01*
G01*
G37*
G36*
G01*
X161321000Y-91142000D02*
X161521000Y-91142000D01*
G75*
G02*
X161621000Y-91242000I0J-100000D01*
G01*
X161621000Y-92517000D01*
G75*
G02*
X161521000Y-92617000I-100000J0D01*
G01*
X161321000Y-92617000D01*
G75*
G02*
X161221000Y-92517000I0J100000D01*
G01*
X161221000Y-91242000D01*
G75*
G02*
X161321000Y-91142000I100000J0D01*
G01*
G37*
G36*
G01*
X160671000Y-91142000D02*
X160871000Y-91142000D01*
G75*
G02*
X160971000Y-91242000I0J-100000D01*
G01*
X160971000Y-92517000D01*
G75*
G02*
X160871000Y-92617000I-100000J0D01*
G01*
X160671000Y-92617000D01*
G75*
G02*
X160571000Y-92517000I0J100000D01*
G01*
X160571000Y-91242000D01*
G75*
G02*
X160671000Y-91142000I100000J0D01*
G01*
G37*
G36*
G01*
X160021000Y-91142000D02*
X160221000Y-91142000D01*
G75*
G02*
X160321000Y-91242000I0J-100000D01*
G01*
X160321000Y-92517000D01*
G75*
G02*
X160221000Y-92617000I-100000J0D01*
G01*
X160021000Y-92617000D01*
G75*
G02*
X159921000Y-92517000I0J100000D01*
G01*
X159921000Y-91242000D01*
G75*
G02*
X160021000Y-91142000I100000J0D01*
G01*
G37*
G36*
G01*
X159371000Y-91142000D02*
X159571000Y-91142000D01*
G75*
G02*
X159671000Y-91242000I0J-100000D01*
G01*
X159671000Y-92517000D01*
G75*
G02*
X159571000Y-92617000I-100000J0D01*
G01*
X159371000Y-92617000D01*
G75*
G02*
X159271000Y-92517000I0J100000D01*
G01*
X159271000Y-91242000D01*
G75*
G02*
X159371000Y-91142000I100000J0D01*
G01*
G37*
G36*
G01*
X158721000Y-91142000D02*
X158921000Y-91142000D01*
G75*
G02*
X159021000Y-91242000I0J-100000D01*
G01*
X159021000Y-92517000D01*
G75*
G02*
X158921000Y-92617000I-100000J0D01*
G01*
X158721000Y-92617000D01*
G75*
G02*
X158621000Y-92517000I0J100000D01*
G01*
X158621000Y-91242000D01*
G75*
G02*
X158721000Y-91142000I100000J0D01*
G01*
G37*
G36*
G01*
X158071000Y-91142000D02*
X158271000Y-91142000D01*
G75*
G02*
X158371000Y-91242000I0J-100000D01*
G01*
X158371000Y-92517000D01*
G75*
G02*
X158271000Y-92617000I-100000J0D01*
G01*
X158071000Y-92617000D01*
G75*
G02*
X157971000Y-92517000I0J100000D01*
G01*
X157971000Y-91242000D01*
G75*
G02*
X158071000Y-91142000I100000J0D01*
G01*
G37*
G36*
G01*
X157421000Y-91142000D02*
X157621000Y-91142000D01*
G75*
G02*
X157721000Y-91242000I0J-100000D01*
G01*
X157721000Y-92517000D01*
G75*
G02*
X157621000Y-92617000I-100000J0D01*
G01*
X157421000Y-92617000D01*
G75*
G02*
X157321000Y-92517000I0J100000D01*
G01*
X157321000Y-91242000D01*
G75*
G02*
X157421000Y-91142000I100000J0D01*
G01*
G37*
G36*
G01*
X156771000Y-91142000D02*
X156971000Y-91142000D01*
G75*
G02*
X157071000Y-91242000I0J-100000D01*
G01*
X157071000Y-92517000D01*
G75*
G02*
X156971000Y-92617000I-100000J0D01*
G01*
X156771000Y-92617000D01*
G75*
G02*
X156671000Y-92517000I0J100000D01*
G01*
X156671000Y-91242000D01*
G75*
G02*
X156771000Y-91142000I100000J0D01*
G01*
G37*
G36*
G01*
X156121000Y-91142000D02*
X156321000Y-91142000D01*
G75*
G02*
X156421000Y-91242000I0J-100000D01*
G01*
X156421000Y-92517000D01*
G75*
G02*
X156321000Y-92617000I-100000J0D01*
G01*
X156121000Y-92617000D01*
G75*
G02*
X156021000Y-92517000I0J100000D01*
G01*
X156021000Y-91242000D01*
G75*
G02*
X156121000Y-91142000I100000J0D01*
G01*
G37*
G36*
G01*
X155471000Y-91142000D02*
X155671000Y-91142000D01*
G75*
G02*
X155771000Y-91242000I0J-100000D01*
G01*
X155771000Y-92517000D01*
G75*
G02*
X155671000Y-92617000I-100000J0D01*
G01*
X155471000Y-92617000D01*
G75*
G02*
X155371000Y-92517000I0J100000D01*
G01*
X155371000Y-91242000D01*
G75*
G02*
X155471000Y-91142000I100000J0D01*
G01*
G37*
G36*
G01*
X154821000Y-91142000D02*
X155021000Y-91142000D01*
G75*
G02*
X155121000Y-91242000I0J-100000D01*
G01*
X155121000Y-92517000D01*
G75*
G02*
X155021000Y-92617000I-100000J0D01*
G01*
X154821000Y-92617000D01*
G75*
G02*
X154721000Y-92517000I0J100000D01*
G01*
X154721000Y-91242000D01*
G75*
G02*
X154821000Y-91142000I100000J0D01*
G01*
G37*
G36*
G01*
X154171000Y-91142000D02*
X154371000Y-91142000D01*
G75*
G02*
X154471000Y-91242000I0J-100000D01*
G01*
X154471000Y-92517000D01*
G75*
G02*
X154371000Y-92617000I-100000J0D01*
G01*
X154171000Y-92617000D01*
G75*
G02*
X154071000Y-92517000I0J100000D01*
G01*
X154071000Y-91242000D01*
G75*
G02*
X154171000Y-91142000I100000J0D01*
G01*
G37*
G36*
G01*
X146598500Y-131802000D02*
X146898500Y-131802000D01*
G75*
G02*
X147048500Y-131952000I0J-150000D01*
G01*
X147048500Y-133602000D01*
G75*
G02*
X146898500Y-133752000I-150000J0D01*
G01*
X146598500Y-133752000D01*
G75*
G02*
X146448500Y-133602000I0J150000D01*
G01*
X146448500Y-131952000D01*
G75*
G02*
X146598500Y-131802000I150000J0D01*
G01*
G37*
G36*
G01*
X147868500Y-131802000D02*
X148168500Y-131802000D01*
G75*
G02*
X148318500Y-131952000I0J-150000D01*
G01*
X148318500Y-133602000D01*
G75*
G02*
X148168500Y-133752000I-150000J0D01*
G01*
X147868500Y-133752000D01*
G75*
G02*
X147718500Y-133602000I0J150000D01*
G01*
X147718500Y-131952000D01*
G75*
G02*
X147868500Y-131802000I150000J0D01*
G01*
G37*
G36*
G01*
X149138500Y-131802000D02*
X149438500Y-131802000D01*
G75*
G02*
X149588500Y-131952000I0J-150000D01*
G01*
X149588500Y-133602000D01*
G75*
G02*
X149438500Y-133752000I-150000J0D01*
G01*
X149138500Y-133752000D01*
G75*
G02*
X148988500Y-133602000I0J150000D01*
G01*
X148988500Y-131952000D01*
G75*
G02*
X149138500Y-131802000I150000J0D01*
G01*
G37*
G36*
G01*
X150408500Y-131802000D02*
X150708500Y-131802000D01*
G75*
G02*
X150858500Y-131952000I0J-150000D01*
G01*
X150858500Y-133602000D01*
G75*
G02*
X150708500Y-133752000I-150000J0D01*
G01*
X150408500Y-133752000D01*
G75*
G02*
X150258500Y-133602000I0J150000D01*
G01*
X150258500Y-131952000D01*
G75*
G02*
X150408500Y-131802000I150000J0D01*
G01*
G37*
G36*
G01*
X150408500Y-126852000D02*
X150708500Y-126852000D01*
G75*
G02*
X150858500Y-127002000I0J-150000D01*
G01*
X150858500Y-128652000D01*
G75*
G02*
X150708500Y-128802000I-150000J0D01*
G01*
X150408500Y-128802000D01*
G75*
G02*
X150258500Y-128652000I0J150000D01*
G01*
X150258500Y-127002000D01*
G75*
G02*
X150408500Y-126852000I150000J0D01*
G01*
G37*
G36*
G01*
X149138500Y-126852000D02*
X149438500Y-126852000D01*
G75*
G02*
X149588500Y-127002000I0J-150000D01*
G01*
X149588500Y-128652000D01*
G75*
G02*
X149438500Y-128802000I-150000J0D01*
G01*
X149138500Y-128802000D01*
G75*
G02*
X148988500Y-128652000I0J150000D01*
G01*
X148988500Y-127002000D01*
G75*
G02*
X149138500Y-126852000I150000J0D01*
G01*
G37*
G36*
G01*
X147868500Y-126852000D02*
X148168500Y-126852000D01*
G75*
G02*
X148318500Y-127002000I0J-150000D01*
G01*
X148318500Y-128652000D01*
G75*
G02*
X148168500Y-128802000I-150000J0D01*
G01*
X147868500Y-128802000D01*
G75*
G02*
X147718500Y-128652000I0J150000D01*
G01*
X147718500Y-127002000D01*
G75*
G02*
X147868500Y-126852000I150000J0D01*
G01*
G37*
G36*
G01*
X146598500Y-126852000D02*
X146898500Y-126852000D01*
G75*
G02*
X147048500Y-127002000I0J-150000D01*
G01*
X147048500Y-128652000D01*
G75*
G02*
X146898500Y-128802000I-150000J0D01*
G01*
X146598500Y-128802000D01*
G75*
G02*
X146448500Y-128652000I0J150000D01*
G01*
X146448500Y-127002000D01*
G75*
G02*
X146598500Y-126852000I150000J0D01*
G01*
G37*
D14*
X129862000Y-87370000D03*
X129862000Y-88170000D03*
X129862000Y-88970000D03*
X129862000Y-89770000D03*
X129862000Y-90570000D03*
X129862000Y-91370000D03*
X129862000Y-92170000D03*
X129862000Y-92970000D03*
D15*
X131312000Y-94420000D03*
X132112000Y-94420000D03*
X132912000Y-94420000D03*
X133712000Y-94420000D03*
X134512000Y-94420000D03*
X135312000Y-94420000D03*
X136112000Y-94420000D03*
X136912000Y-94420000D03*
D14*
X138362000Y-92970000D03*
X138362000Y-92170000D03*
X138362000Y-91370000D03*
X138362000Y-90570000D03*
X138362000Y-89770000D03*
X138362000Y-88970000D03*
X138362000Y-88170000D03*
X138362000Y-87370000D03*
D15*
X136912000Y-85920000D03*
X136112000Y-85920000D03*
X135312000Y-85920000D03*
X134512000Y-85920000D03*
X133712000Y-85920000D03*
X132912000Y-85920000D03*
X132112000Y-85920000D03*
X131312000Y-85920000D03*
G36*
G01*
X128963000Y-125453000D02*
X128963000Y-125753000D01*
G75*
G02*
X128813000Y-125903000I-150000J0D01*
G01*
X127063000Y-125903000D01*
G75*
G02*
X126913000Y-125753000I0J150000D01*
G01*
X126913000Y-125453000D01*
G75*
G02*
X127063000Y-125303000I150000J0D01*
G01*
X128813000Y-125303000D01*
G75*
G02*
X128963000Y-125453000I0J-150000D01*
G01*
G37*
G36*
G01*
X128963000Y-126723000D02*
X128963000Y-127023000D01*
G75*
G02*
X128813000Y-127173000I-150000J0D01*
G01*
X127063000Y-127173000D01*
G75*
G02*
X126913000Y-127023000I0J150000D01*
G01*
X126913000Y-126723000D01*
G75*
G02*
X127063000Y-126573000I150000J0D01*
G01*
X128813000Y-126573000D01*
G75*
G02*
X128963000Y-126723000I0J-150000D01*
G01*
G37*
G36*
G01*
X128963000Y-127993000D02*
X128963000Y-128293000D01*
G75*
G02*
X128813000Y-128443000I-150000J0D01*
G01*
X127063000Y-128443000D01*
G75*
G02*
X126913000Y-128293000I0J150000D01*
G01*
X126913000Y-127993000D01*
G75*
G02*
X127063000Y-127843000I150000J0D01*
G01*
X128813000Y-127843000D01*
G75*
G02*
X128963000Y-127993000I0J-150000D01*
G01*
G37*
G36*
G01*
X128963000Y-129263000D02*
X128963000Y-129563000D01*
G75*
G02*
X128813000Y-129713000I-150000J0D01*
G01*
X127063000Y-129713000D01*
G75*
G02*
X126913000Y-129563000I0J150000D01*
G01*
X126913000Y-129263000D01*
G75*
G02*
X127063000Y-129113000I150000J0D01*
G01*
X128813000Y-129113000D01*
G75*
G02*
X128963000Y-129263000I0J-150000D01*
G01*
G37*
G36*
G01*
X128963000Y-130533000D02*
X128963000Y-130833000D01*
G75*
G02*
X128813000Y-130983000I-150000J0D01*
G01*
X127063000Y-130983000D01*
G75*
G02*
X126913000Y-130833000I0J150000D01*
G01*
X126913000Y-130533000D01*
G75*
G02*
X127063000Y-130383000I150000J0D01*
G01*
X128813000Y-130383000D01*
G75*
G02*
X128963000Y-130533000I0J-150000D01*
G01*
G37*
G36*
G01*
X128963000Y-131803000D02*
X128963000Y-132103000D01*
G75*
G02*
X128813000Y-132253000I-150000J0D01*
G01*
X127063000Y-132253000D01*
G75*
G02*
X126913000Y-132103000I0J150000D01*
G01*
X126913000Y-131803000D01*
G75*
G02*
X127063000Y-131653000I150000J0D01*
G01*
X128813000Y-131653000D01*
G75*
G02*
X128963000Y-131803000I0J-150000D01*
G01*
G37*
G36*
G01*
X128963000Y-133073000D02*
X128963000Y-133373000D01*
G75*
G02*
X128813000Y-133523000I-150000J0D01*
G01*
X127063000Y-133523000D01*
G75*
G02*
X126913000Y-133373000I0J150000D01*
G01*
X126913000Y-133073000D01*
G75*
G02*
X127063000Y-132923000I150000J0D01*
G01*
X128813000Y-132923000D01*
G75*
G02*
X128963000Y-133073000I0J-150000D01*
G01*
G37*
G36*
G01*
X128963000Y-134343000D02*
X128963000Y-134643000D01*
G75*
G02*
X128813000Y-134793000I-150000J0D01*
G01*
X127063000Y-134793000D01*
G75*
G02*
X126913000Y-134643000I0J150000D01*
G01*
X126913000Y-134343000D01*
G75*
G02*
X127063000Y-134193000I150000J0D01*
G01*
X128813000Y-134193000D01*
G75*
G02*
X128963000Y-134343000I0J-150000D01*
G01*
G37*
G36*
G01*
X138263000Y-134343000D02*
X138263000Y-134643000D01*
G75*
G02*
X138113000Y-134793000I-150000J0D01*
G01*
X136363000Y-134793000D01*
G75*
G02*
X136213000Y-134643000I0J150000D01*
G01*
X136213000Y-134343000D01*
G75*
G02*
X136363000Y-134193000I150000J0D01*
G01*
X138113000Y-134193000D01*
G75*
G02*
X138263000Y-134343000I0J-150000D01*
G01*
G37*
G36*
G01*
X138263000Y-133073000D02*
X138263000Y-133373000D01*
G75*
G02*
X138113000Y-133523000I-150000J0D01*
G01*
X136363000Y-133523000D01*
G75*
G02*
X136213000Y-133373000I0J150000D01*
G01*
X136213000Y-133073000D01*
G75*
G02*
X136363000Y-132923000I150000J0D01*
G01*
X138113000Y-132923000D01*
G75*
G02*
X138263000Y-133073000I0J-150000D01*
G01*
G37*
G36*
G01*
X138263000Y-131803000D02*
X138263000Y-132103000D01*
G75*
G02*
X138113000Y-132253000I-150000J0D01*
G01*
X136363000Y-132253000D01*
G75*
G02*
X136213000Y-132103000I0J150000D01*
G01*
X136213000Y-131803000D01*
G75*
G02*
X136363000Y-131653000I150000J0D01*
G01*
X138113000Y-131653000D01*
G75*
G02*
X138263000Y-131803000I0J-150000D01*
G01*
G37*
G36*
G01*
X138263000Y-130533000D02*
X138263000Y-130833000D01*
G75*
G02*
X138113000Y-130983000I-150000J0D01*
G01*
X136363000Y-130983000D01*
G75*
G02*
X136213000Y-130833000I0J150000D01*
G01*
X136213000Y-130533000D01*
G75*
G02*
X136363000Y-130383000I150000J0D01*
G01*
X138113000Y-130383000D01*
G75*
G02*
X138263000Y-130533000I0J-150000D01*
G01*
G37*
G36*
G01*
X138263000Y-129263000D02*
X138263000Y-129563000D01*
G75*
G02*
X138113000Y-129713000I-150000J0D01*
G01*
X136363000Y-129713000D01*
G75*
G02*
X136213000Y-129563000I0J150000D01*
G01*
X136213000Y-129263000D01*
G75*
G02*
X136363000Y-129113000I150000J0D01*
G01*
X138113000Y-129113000D01*
G75*
G02*
X138263000Y-129263000I0J-150000D01*
G01*
G37*
G36*
G01*
X138263000Y-127993000D02*
X138263000Y-128293000D01*
G75*
G02*
X138113000Y-128443000I-150000J0D01*
G01*
X136363000Y-128443000D01*
G75*
G02*
X136213000Y-128293000I0J150000D01*
G01*
X136213000Y-127993000D01*
G75*
G02*
X136363000Y-127843000I150000J0D01*
G01*
X138113000Y-127843000D01*
G75*
G02*
X138263000Y-127993000I0J-150000D01*
G01*
G37*
G36*
G01*
X138263000Y-126723000D02*
X138263000Y-127023000D01*
G75*
G02*
X138113000Y-127173000I-150000J0D01*
G01*
X136363000Y-127173000D01*
G75*
G02*
X136213000Y-127023000I0J150000D01*
G01*
X136213000Y-126723000D01*
G75*
G02*
X136363000Y-126573000I150000J0D01*
G01*
X138113000Y-126573000D01*
G75*
G02*
X138263000Y-126723000I0J-150000D01*
G01*
G37*
G36*
G01*
X138263000Y-125453000D02*
X138263000Y-125753000D01*
G75*
G02*
X138113000Y-125903000I-150000J0D01*
G01*
X136363000Y-125903000D01*
G75*
G02*
X136213000Y-125753000I0J150000D01*
G01*
X136213000Y-125453000D01*
G75*
G02*
X136363000Y-125303000I150000J0D01*
G01*
X138113000Y-125303000D01*
G75*
G02*
X138263000Y-125453000I0J-150000D01*
G01*
G37*
G36*
G01*
X124606000Y-130879001D02*
X124606000Y-129978999D01*
G75*
G02*
X124855999Y-129729000I249999J0D01*
G01*
X125556001Y-129729000D01*
G75*
G02*
X125806000Y-129978999I0J-249999D01*
G01*
X125806000Y-130879001D01*
G75*
G02*
X125556001Y-131129000I-249999J0D01*
G01*
X124855999Y-131129000D01*
G75*
G02*
X124606000Y-130879001I0J249999D01*
G01*
G37*
G36*
G01*
X122606000Y-130879001D02*
X122606000Y-129978999D01*
G75*
G02*
X122855999Y-129729000I249999J0D01*
G01*
X123556001Y-129729000D01*
G75*
G02*
X123806000Y-129978999I0J-249999D01*
G01*
X123806000Y-130879001D01*
G75*
G02*
X123556001Y-131129000I-249999J0D01*
G01*
X122855999Y-131129000D01*
G75*
G02*
X122606000Y-130879001I0J249999D01*
G01*
G37*
G36*
G01*
X152029000Y-128981500D02*
X153279000Y-128981500D01*
G75*
G02*
X153529000Y-129231500I0J-250000D01*
G01*
X153529000Y-130156500D01*
G75*
G02*
X153279000Y-130406500I-250000J0D01*
G01*
X152029000Y-130406500D01*
G75*
G02*
X151779000Y-130156500I0J250000D01*
G01*
X151779000Y-129231500D01*
G75*
G02*
X152029000Y-128981500I250000J0D01*
G01*
G37*
G36*
G01*
X152029000Y-126006500D02*
X153279000Y-126006500D01*
G75*
G02*
X153529000Y-126256500I0J-250000D01*
G01*
X153529000Y-127181500D01*
G75*
G02*
X153279000Y-127431500I-250000J0D01*
G01*
X152029000Y-127431500D01*
G75*
G02*
X151779000Y-127181500I0J250000D01*
G01*
X151779000Y-126256500D01*
G75*
G02*
X152029000Y-126006500I250000J0D01*
G01*
G37*
D10*
X125198000Y-133223000D03*
X122198000Y-132273000D03*
X122198000Y-134173000D03*
G36*
G01*
X144625000Y-118962999D02*
X144625000Y-120813001D01*
G75*
G02*
X144375001Y-121063000I-249999J0D01*
G01*
X142624999Y-121063000D01*
G75*
G02*
X142375000Y-120813001I0J249999D01*
G01*
X142375000Y-118962999D01*
G75*
G02*
X142624999Y-118713000I249999J0D01*
G01*
X144375001Y-118713000D01*
G75*
G02*
X144625000Y-118962999I0J-249999D01*
G01*
G37*
G36*
G01*
X149725000Y-118962999D02*
X149725000Y-120813001D01*
G75*
G02*
X149475001Y-121063000I-249999J0D01*
G01*
X147724999Y-121063000D01*
G75*
G02*
X147475000Y-120813001I0J249999D01*
G01*
X147475000Y-118962999D01*
G75*
G02*
X147724999Y-118713000I249999J0D01*
G01*
X149475001Y-118713000D01*
G75*
G02*
X149725000Y-118962999I0J-249999D01*
G01*
G37*
G36*
G01*
X135451000Y-97122000D02*
X135451000Y-96172000D01*
G75*
G02*
X135701000Y-95922000I250000J0D01*
G01*
X136376000Y-95922000D01*
G75*
G02*
X136626000Y-96172000I0J-250000D01*
G01*
X136626000Y-97122000D01*
G75*
G02*
X136376000Y-97372000I-250000J0D01*
G01*
X135701000Y-97372000D01*
G75*
G02*
X135451000Y-97122000I0J250000D01*
G01*
G37*
G36*
G01*
X133376000Y-97122000D02*
X133376000Y-96172000D01*
G75*
G02*
X133626000Y-95922000I250000J0D01*
G01*
X134301000Y-95922000D01*
G75*
G02*
X134551000Y-96172000I0J-250000D01*
G01*
X134551000Y-97122000D01*
G75*
G02*
X134301000Y-97372000I-250000J0D01*
G01*
X133626000Y-97372000D01*
G75*
G02*
X133376000Y-97122000I0J250000D01*
G01*
G37*
G36*
G01*
X131757000Y-83218000D02*
X131757000Y-84168000D01*
G75*
G02*
X131507000Y-84418000I-250000J0D01*
G01*
X130832000Y-84418000D01*
G75*
G02*
X130582000Y-84168000I0J250000D01*
G01*
X130582000Y-83218000D01*
G75*
G02*
X130832000Y-82968000I250000J0D01*
G01*
X131507000Y-82968000D01*
G75*
G02*
X131757000Y-83218000I0J-250000D01*
G01*
G37*
G36*
G01*
X133832000Y-83218000D02*
X133832000Y-84168000D01*
G75*
G02*
X133582000Y-84418000I-250000J0D01*
G01*
X132907000Y-84418000D01*
G75*
G02*
X132657000Y-84168000I0J250000D01*
G01*
X132657000Y-83218000D01*
G75*
G02*
X132907000Y-82968000I250000J0D01*
G01*
X133582000Y-82968000D01*
G75*
G02*
X133832000Y-83218000I0J-250000D01*
G01*
G37*
G36*
G01*
X134421500Y-123869001D02*
X134421500Y-123018999D01*
G75*
G02*
X134671499Y-122769000I249999J0D01*
G01*
X135746501Y-122769000D01*
G75*
G02*
X135996500Y-123018999I0J-249999D01*
G01*
X135996500Y-123869001D01*
G75*
G02*
X135746501Y-124119000I-249999J0D01*
G01*
X134671499Y-124119000D01*
G75*
G02*
X134421500Y-123869001I0J249999D01*
G01*
G37*
G36*
G01*
X131546500Y-123869001D02*
X131546500Y-123018999D01*
G75*
G02*
X131796499Y-122769000I249999J0D01*
G01*
X132871501Y-122769000D01*
G75*
G02*
X133121500Y-123018999I0J-249999D01*
G01*
X133121500Y-123869001D01*
G75*
G02*
X132871501Y-124119000I-249999J0D01*
G01*
X131796499Y-124119000D01*
G75*
G02*
X131546500Y-123869001I0J249999D01*
G01*
G37*
G36*
G01*
X128128000Y-123018999D02*
X128128000Y-123869001D01*
G75*
G02*
X127878001Y-124119000I-249999J0D01*
G01*
X126802999Y-124119000D01*
G75*
G02*
X126553000Y-123869001I0J249999D01*
G01*
X126553000Y-123018999D01*
G75*
G02*
X126802999Y-122769000I249999J0D01*
G01*
X127878001Y-122769000D01*
G75*
G02*
X128128000Y-123018999I0J-249999D01*
G01*
G37*
G36*
G01*
X131003000Y-123018999D02*
X131003000Y-123869001D01*
G75*
G02*
X130753001Y-124119000I-249999J0D01*
G01*
X129677999Y-124119000D01*
G75*
G02*
X129428000Y-123869001I0J249999D01*
G01*
X129428000Y-123018999D01*
G75*
G02*
X129677999Y-122769000I249999J0D01*
G01*
X130753001Y-122769000D01*
G75*
G02*
X131003000Y-123018999I0J-249999D01*
G01*
G37*
G36*
G01*
X174241000Y-86020000D02*
X174541000Y-86020000D01*
G75*
G02*
X174691000Y-86170000I0J-150000D01*
G01*
X174691000Y-87820000D01*
G75*
G02*
X174541000Y-87970000I-150000J0D01*
G01*
X174241000Y-87970000D01*
G75*
G02*
X174091000Y-87820000I0J150000D01*
G01*
X174091000Y-86170000D01*
G75*
G02*
X174241000Y-86020000I150000J0D01*
G01*
G37*
G36*
G01*
X175511000Y-86020000D02*
X175811000Y-86020000D01*
G75*
G02*
X175961000Y-86170000I0J-150000D01*
G01*
X175961000Y-87820000D01*
G75*
G02*
X175811000Y-87970000I-150000J0D01*
G01*
X175511000Y-87970000D01*
G75*
G02*
X175361000Y-87820000I0J150000D01*
G01*
X175361000Y-86170000D01*
G75*
G02*
X175511000Y-86020000I150000J0D01*
G01*
G37*
G36*
G01*
X176781000Y-86020000D02*
X177081000Y-86020000D01*
G75*
G02*
X177231000Y-86170000I0J-150000D01*
G01*
X177231000Y-87820000D01*
G75*
G02*
X177081000Y-87970000I-150000J0D01*
G01*
X176781000Y-87970000D01*
G75*
G02*
X176631000Y-87820000I0J150000D01*
G01*
X176631000Y-86170000D01*
G75*
G02*
X176781000Y-86020000I150000J0D01*
G01*
G37*
G36*
G01*
X178051000Y-86020000D02*
X178351000Y-86020000D01*
G75*
G02*
X178501000Y-86170000I0J-150000D01*
G01*
X178501000Y-87820000D01*
G75*
G02*
X178351000Y-87970000I-150000J0D01*
G01*
X178051000Y-87970000D01*
G75*
G02*
X177901000Y-87820000I0J150000D01*
G01*
X177901000Y-86170000D01*
G75*
G02*
X178051000Y-86020000I150000J0D01*
G01*
G37*
G36*
G01*
X178051000Y-81070000D02*
X178351000Y-81070000D01*
G75*
G02*
X178501000Y-81220000I0J-150000D01*
G01*
X178501000Y-82870000D01*
G75*
G02*
X178351000Y-83020000I-150000J0D01*
G01*
X178051000Y-83020000D01*
G75*
G02*
X177901000Y-82870000I0J150000D01*
G01*
X177901000Y-81220000D01*
G75*
G02*
X178051000Y-81070000I150000J0D01*
G01*
G37*
G36*
G01*
X176781000Y-81070000D02*
X177081000Y-81070000D01*
G75*
G02*
X177231000Y-81220000I0J-150000D01*
G01*
X177231000Y-82870000D01*
G75*
G02*
X177081000Y-83020000I-150000J0D01*
G01*
X176781000Y-83020000D01*
G75*
G02*
X176631000Y-82870000I0J150000D01*
G01*
X176631000Y-81220000D01*
G75*
G02*
X176781000Y-81070000I150000J0D01*
G01*
G37*
G36*
G01*
X175511000Y-81070000D02*
X175811000Y-81070000D01*
G75*
G02*
X175961000Y-81220000I0J-150000D01*
G01*
X175961000Y-82870000D01*
G75*
G02*
X175811000Y-83020000I-150000J0D01*
G01*
X175511000Y-83020000D01*
G75*
G02*
X175361000Y-82870000I0J150000D01*
G01*
X175361000Y-81220000D01*
G75*
G02*
X175511000Y-81070000I150000J0D01*
G01*
G37*
G36*
G01*
X174241000Y-81070000D02*
X174541000Y-81070000D01*
G75*
G02*
X174691000Y-81220000I0J-150000D01*
G01*
X174691000Y-82870000D01*
G75*
G02*
X174541000Y-83020000I-150000J0D01*
G01*
X174241000Y-83020000D01*
G75*
G02*
X174091000Y-82870000I0J150000D01*
G01*
X174091000Y-81220000D01*
G75*
G02*
X174241000Y-81070000I150000J0D01*
G01*
G37*
G36*
G01*
X172299999Y-93870000D02*
X173200001Y-93870000D01*
G75*
G02*
X173450000Y-94119999I0J-249999D01*
G01*
X173450000Y-94820001D01*
G75*
G02*
X173200001Y-95070000I-249999J0D01*
G01*
X172299999Y-95070000D01*
G75*
G02*
X172050000Y-94820001I0J249999D01*
G01*
X172050000Y-94119999D01*
G75*
G02*
X172299999Y-93870000I249999J0D01*
G01*
G37*
G36*
G01*
X172299999Y-91870000D02*
X173200001Y-91870000D01*
G75*
G02*
X173450000Y-92119999I0J-249999D01*
G01*
X173450000Y-92820001D01*
G75*
G02*
X173200001Y-93070000I-249999J0D01*
G01*
X172299999Y-93070000D01*
G75*
G02*
X172050000Y-92820001I0J249999D01*
G01*
X172050000Y-92119999D01*
G75*
G02*
X172299999Y-91870000I249999J0D01*
G01*
G37*
G36*
G01*
X180561000Y-82862000D02*
X179611000Y-82862000D01*
G75*
G02*
X179361000Y-82612000I0J250000D01*
G01*
X179361000Y-81937000D01*
G75*
G02*
X179611000Y-81687000I250000J0D01*
G01*
X180561000Y-81687000D01*
G75*
G02*
X180811000Y-81937000I0J-250000D01*
G01*
X180811000Y-82612000D01*
G75*
G02*
X180561000Y-82862000I-250000J0D01*
G01*
G37*
G36*
G01*
X180561000Y-84937000D02*
X179611000Y-84937000D01*
G75*
G02*
X179361000Y-84687000I0J250000D01*
G01*
X179361000Y-84012000D01*
G75*
G02*
X179611000Y-83762000I250000J0D01*
G01*
X180561000Y-83762000D01*
G75*
G02*
X180811000Y-84012000I0J-250000D01*
G01*
X180811000Y-84687000D01*
G75*
G02*
X180561000Y-84937000I-250000J0D01*
G01*
G37*
D16*
X171262000Y-86883000D03*
G36*
G01*
X167156000Y-118087000D02*
X167156000Y-118387000D01*
G75*
G02*
X167006000Y-118537000I-150000J0D01*
G01*
X165356000Y-118537000D01*
G75*
G02*
X165206000Y-118387000I0J150000D01*
G01*
X165206000Y-118087000D01*
G75*
G02*
X165356000Y-117937000I150000J0D01*
G01*
X167006000Y-117937000D01*
G75*
G02*
X167156000Y-118087000I0J-150000D01*
G01*
G37*
G36*
G01*
X167156000Y-119357000D02*
X167156000Y-119657000D01*
G75*
G02*
X167006000Y-119807000I-150000J0D01*
G01*
X165356000Y-119807000D01*
G75*
G02*
X165206000Y-119657000I0J150000D01*
G01*
X165206000Y-119357000D01*
G75*
G02*
X165356000Y-119207000I150000J0D01*
G01*
X167006000Y-119207000D01*
G75*
G02*
X167156000Y-119357000I0J-150000D01*
G01*
G37*
G36*
G01*
X167156000Y-120627000D02*
X167156000Y-120927000D01*
G75*
G02*
X167006000Y-121077000I-150000J0D01*
G01*
X165356000Y-121077000D01*
G75*
G02*
X165206000Y-120927000I0J150000D01*
G01*
X165206000Y-120627000D01*
G75*
G02*
X165356000Y-120477000I150000J0D01*
G01*
X167006000Y-120477000D01*
G75*
G02*
X167156000Y-120627000I0J-150000D01*
G01*
G37*
G36*
G01*
X167156000Y-121897000D02*
X167156000Y-122197000D01*
G75*
G02*
X167006000Y-122347000I-150000J0D01*
G01*
X165356000Y-122347000D01*
G75*
G02*
X165206000Y-122197000I0J150000D01*
G01*
X165206000Y-121897000D01*
G75*
G02*
X165356000Y-121747000I150000J0D01*
G01*
X167006000Y-121747000D01*
G75*
G02*
X167156000Y-121897000I0J-150000D01*
G01*
G37*
G36*
G01*
X172106000Y-121897000D02*
X172106000Y-122197000D01*
G75*
G02*
X171956000Y-122347000I-150000J0D01*
G01*
X170306000Y-122347000D01*
G75*
G02*
X170156000Y-122197000I0J150000D01*
G01*
X170156000Y-121897000D01*
G75*
G02*
X170306000Y-121747000I150000J0D01*
G01*
X171956000Y-121747000D01*
G75*
G02*
X172106000Y-121897000I0J-150000D01*
G01*
G37*
G36*
G01*
X172106000Y-120627000D02*
X172106000Y-120927000D01*
G75*
G02*
X171956000Y-121077000I-150000J0D01*
G01*
X170306000Y-121077000D01*
G75*
G02*
X170156000Y-120927000I0J150000D01*
G01*
X170156000Y-120627000D01*
G75*
G02*
X170306000Y-120477000I150000J0D01*
G01*
X171956000Y-120477000D01*
G75*
G02*
X172106000Y-120627000I0J-150000D01*
G01*
G37*
G36*
G01*
X172106000Y-119357000D02*
X172106000Y-119657000D01*
G75*
G02*
X171956000Y-119807000I-150000J0D01*
G01*
X170306000Y-119807000D01*
G75*
G02*
X170156000Y-119657000I0J150000D01*
G01*
X170156000Y-119357000D01*
G75*
G02*
X170306000Y-119207000I150000J0D01*
G01*
X171956000Y-119207000D01*
G75*
G02*
X172106000Y-119357000I0J-150000D01*
G01*
G37*
G36*
G01*
X172106000Y-118087000D02*
X172106000Y-118387000D01*
G75*
G02*
X171956000Y-118537000I-150000J0D01*
G01*
X170306000Y-118537000D01*
G75*
G02*
X170156000Y-118387000I0J150000D01*
G01*
X170156000Y-118087000D01*
G75*
G02*
X170306000Y-117937000I150000J0D01*
G01*
X171956000Y-117937000D01*
G75*
G02*
X172106000Y-118087000I0J-150000D01*
G01*
G37*
D10*
X145264000Y-111506000D03*
X142264000Y-110556000D03*
X142264000Y-112456000D03*
M02*
