M48
; DRILL file {KiCad 5.1.12-84ad8e8a86~92~ubuntu16.04.1} date do 17 nov 2022 23:38:09 CET
; FORMAT={-:-/ absolute / metric / decimal}
; #@! TF.CreationDate,2022-11-17T23:38:09+01:00
; #@! TF.GenerationSoftware,Kicad,Pcbnew,5.1.12-84ad8e8a86~92~ubuntu16.04.1
; #@! TF.FileFunction,NonPlated,1,2,NPTH
FMAT,2
METRIC
T1C0.800
T2C3.200
%
G90
G05
T1
X100.095Y-66.634
X100.095Y-67.734
X100.095Y-68.834
X100.095Y-69.934
X100.095Y-71.034
X101.835Y-66.634
X101.835Y-67.734
X101.835Y-68.834
X101.835Y-69.934
X101.835Y-71.034
X121.177Y-68.229
X121.177Y-69.329
X121.177Y-70.429
X121.177Y-71.529
X121.177Y-72.629
X122.917Y-68.229
X122.917Y-69.329
X122.917Y-70.429
X122.917Y-71.529
X122.917Y-72.629
X139.465Y-62.009
X139.465Y-63.109
X139.465Y-64.209
X139.465Y-65.309
X139.465Y-66.409
X141.459Y-62.009
X141.459Y-63.109
X141.459Y-64.209
X141.459Y-65.309
X141.459Y-66.409
T2
X96.647Y-77.083
X111.506Y-77.038
X149.479Y-77.083
T0
M30
