%FSLAX45Y45*%
G04 Gerber Fmt 4.5, Leading zero omitted, Abs format (unit mm)*
G04 Created by KiCad (PCBNEW 5.1.12-84ad8e8a86~92~ubuntu16.04.1) date 2022-11-17 23:38:10*
%MOMM*%
%LPD*%
G01*
G04 APERTURE LIST*
%TA.AperFunction,Profile*%
%ADD10C,0.050000*%
%TD*%
%ADD11C,0.200000*%
%ADD12C,0.300000*%
G04 APERTURE END LIST*
D10*
X8953500Y-5735320D02*
X9918700Y-5735320D01*
X10274300Y-5735320D02*
X12026900Y-5735320D01*
X12077700Y-7487920D02*
X12077700Y-7995920D01*
X8902700Y-7995920D02*
X8902700Y-5786120D01*
X9969500Y-5786120D02*
X9969500Y-6438900D01*
X9969500Y-7327900D02*
X9969500Y-7995920D01*
X10223500Y-7327900D02*
X10223500Y-7995920D01*
X10274300Y-8046720D02*
X12026900Y-8046720D01*
X10223500Y-6438900D02*
X10223500Y-5786120D01*
X12077700Y-5786120D02*
X12077700Y-6598920D01*
X12331700Y-5976620D02*
X12331700Y-6598920D01*
X8953500Y-8046720D02*
X9918700Y-8046720D01*
X14185900Y-5976620D02*
X14185900Y-5786120D01*
X14236700Y-5735320D02*
X15201900Y-5735320D01*
X15252700Y-5786120D02*
X15252700Y-7995920D01*
X14185900Y-6865620D02*
X14185900Y-7995920D01*
X15189200Y-8046720D02*
X15201900Y-8046720D01*
X15189200Y-8046720D02*
X14236700Y-8046720D01*
X8953500Y-8046720D02*
G75*
G02*
X8902700Y-7995920I0J50800D01*
G01*
X8902700Y-5786120D02*
G75*
G02*
X8953500Y-5735320I50800J0D01*
G01*
X9918700Y-5735320D02*
G75*
G02*
X9969500Y-5786120I0J-50800D01*
G01*
X9969500Y-7995920D02*
G75*
G02*
X9918700Y-8046720I-50800J0D01*
G01*
X10274300Y-8046720D02*
G75*
G02*
X10223500Y-7995920I0J50800D01*
G01*
X10223500Y-5786120D02*
G75*
G02*
X10274300Y-5735320I50800J0D01*
G01*
X12026900Y-5735320D02*
G75*
G02*
X12077700Y-5786120I0J-50800D01*
G01*
X12077700Y-7995920D02*
G75*
G02*
X12026900Y-8046720I-50800J0D01*
G01*
X14185900Y-5786120D02*
G75*
G02*
X14236700Y-5735320I50800J0D01*
G01*
X15201900Y-5735320D02*
G75*
G02*
X15252700Y-5786120I0J-50800D01*
G01*
X14236700Y-8046720D02*
G75*
G02*
X14185900Y-7995920I0J50800D01*
G01*
X15252700Y-7995920D02*
G75*
G02*
X15201900Y-8046720I-50800J0D01*
G01*
X12877800Y-8008620D02*
X13741400Y-7145020D01*
X12331700Y-7487920D02*
X12852400Y-8008620D01*
X13931900Y-6751320D02*
X13741400Y-6941820D01*
X13741400Y-7119620D02*
G75*
G02*
X13741400Y-6941820I88900J88900D01*
G01*
X12877800Y-8008620D02*
G75*
G02*
X12852400Y-8008620I-12700J12700D01*
G01*
X13741400Y-7119620D02*
G75*
G02*
X13741400Y-7145020I-12700J-12700D01*
G01*
D11*
X9969500Y-6623400D02*
X10049500Y-6703400D01*
X10049500Y-6623400D02*
X9969500Y-6703400D01*
X9969500Y-6733400D02*
X10049500Y-6813400D01*
X10049500Y-6733400D02*
X9969500Y-6813400D01*
X9969500Y-6843400D02*
X10049500Y-6923400D01*
X10049500Y-6843400D02*
X9969500Y-6923400D01*
X9969500Y-6953400D02*
X10049500Y-7033400D01*
X10049500Y-6953400D02*
X9969500Y-7033400D01*
X9969500Y-7063400D02*
X10049500Y-7143400D01*
X10049500Y-7063400D02*
X9969500Y-7143400D01*
X10143500Y-6623400D02*
X10223500Y-6703400D01*
X10223500Y-6623400D02*
X10143500Y-6703400D01*
X10143500Y-6733400D02*
X10223500Y-6813400D01*
X10223500Y-6733400D02*
X10143500Y-6813400D01*
X10143500Y-6843400D02*
X10223500Y-6923400D01*
X10223500Y-6843400D02*
X10143500Y-6923400D01*
X10143500Y-6953400D02*
X10223500Y-7033400D01*
X10223500Y-6953400D02*
X10143500Y-7033400D01*
X10143500Y-7063400D02*
X10223500Y-7143400D01*
X10223500Y-7063400D02*
X10143500Y-7143400D01*
X12077700Y-6782920D02*
X12157700Y-6862920D01*
X12157700Y-6782920D02*
X12077700Y-6862920D01*
X12077700Y-6892920D02*
X12157700Y-6972920D01*
X12157700Y-6892920D02*
X12077700Y-6972920D01*
X12077700Y-7002920D02*
X12157700Y-7082920D01*
X12157700Y-7002920D02*
X12077700Y-7082920D01*
X12077700Y-7112920D02*
X12157700Y-7192920D01*
X12157700Y-7112920D02*
X12077700Y-7192920D01*
X12077700Y-7222920D02*
X12157700Y-7302920D01*
X12157700Y-7222920D02*
X12077700Y-7302920D01*
X12251700Y-6782920D02*
X12331700Y-6862920D01*
X12331700Y-6782920D02*
X12251700Y-6862920D01*
X12251700Y-6892920D02*
X12331700Y-6972920D01*
X12331700Y-6892920D02*
X12251700Y-6972920D01*
X12251700Y-7002920D02*
X12331700Y-7082920D01*
X12331700Y-7002920D02*
X12251700Y-7082920D01*
X12251700Y-7112920D02*
X12331700Y-7192920D01*
X12331700Y-7112920D02*
X12251700Y-7192920D01*
X12251700Y-7222920D02*
X12331700Y-7302920D01*
X12331700Y-7222920D02*
X12251700Y-7302920D01*
X13906500Y-6160920D02*
X13986500Y-6240920D01*
X13986500Y-6160920D02*
X13906500Y-6240920D01*
X13906500Y-6270920D02*
X13986500Y-6350920D01*
X13986500Y-6270920D02*
X13906500Y-6350920D01*
X13906500Y-6380920D02*
X13986500Y-6460920D01*
X13986500Y-6380920D02*
X13906500Y-6460920D01*
X13906500Y-6490920D02*
X13986500Y-6570920D01*
X13986500Y-6490920D02*
X13906500Y-6570920D01*
X13906500Y-6600920D02*
X13986500Y-6680920D01*
X13986500Y-6600920D02*
X13906500Y-6680920D01*
X14105900Y-6160920D02*
X14185900Y-6240920D01*
X14185900Y-6160920D02*
X14105900Y-6240920D01*
X14105900Y-6270920D02*
X14185900Y-6350920D01*
X14185900Y-6270920D02*
X14105900Y-6350920D01*
X14105900Y-6380920D02*
X14185900Y-6460920D01*
X14185900Y-6380920D02*
X14105900Y-6460920D01*
X14105900Y-6490920D02*
X14185900Y-6570920D01*
X14185900Y-6490920D02*
X14105900Y-6570920D01*
X14105900Y-6600920D02*
X14185900Y-6680920D01*
X14185900Y-6600920D02*
X14105900Y-6680920D01*
X9824700Y-7708320D02*
G75*
G03*
X9824700Y-7708320I-160000J0D01*
G01*
X11310600Y-7703820D02*
G75*
G03*
X11310600Y-7703820I-160000J0D01*
G01*
X15107900Y-7708320D02*
G75*
G03*
X15107900Y-7708320I-160000J0D01*
G01*
D12*
X9186628Y-8514934D02*
X9186628Y-8214934D01*
X9258057Y-8214934D01*
X9300914Y-8229220D01*
X9329486Y-8257791D01*
X9343771Y-8286363D01*
X9358057Y-8343506D01*
X9358057Y-8386363D01*
X9343771Y-8443506D01*
X9329486Y-8472077D01*
X9300914Y-8500649D01*
X9258057Y-8514934D01*
X9186628Y-8514934D01*
X9486628Y-8514934D02*
X9486628Y-8314934D01*
X9486628Y-8372077D02*
X9500914Y-8343506D01*
X9515200Y-8329220D01*
X9543771Y-8314934D01*
X9572343Y-8314934D01*
X9672343Y-8514934D02*
X9672343Y-8314934D01*
X9672343Y-8214934D02*
X9658057Y-8229220D01*
X9672343Y-8243506D01*
X9686628Y-8229220D01*
X9672343Y-8214934D01*
X9672343Y-8243506D01*
X9858057Y-8514934D02*
X9829486Y-8500649D01*
X9815200Y-8472077D01*
X9815200Y-8214934D01*
X10015200Y-8514934D02*
X9986628Y-8500649D01*
X9972343Y-8472077D01*
X9972343Y-8214934D01*
X10358057Y-8514934D02*
X10358057Y-8214934D01*
X10458057Y-8429220D01*
X10558057Y-8214934D01*
X10558057Y-8514934D01*
X10829486Y-8514934D02*
X10829486Y-8357791D01*
X10815200Y-8329220D01*
X10786628Y-8314934D01*
X10729486Y-8314934D01*
X10700914Y-8329220D01*
X10829486Y-8500649D02*
X10800914Y-8514934D01*
X10729486Y-8514934D01*
X10700914Y-8500649D01*
X10686628Y-8472077D01*
X10686628Y-8443506D01*
X10700914Y-8414934D01*
X10729486Y-8400649D01*
X10800914Y-8400649D01*
X10829486Y-8386363D01*
X10972343Y-8314934D02*
X10972343Y-8614934D01*
X10972343Y-8329220D02*
X11000914Y-8314934D01*
X11058057Y-8314934D01*
X11086628Y-8329220D01*
X11100914Y-8343506D01*
X11115200Y-8372077D01*
X11115200Y-8457792D01*
X11100914Y-8486363D01*
X11086628Y-8500649D01*
X11058057Y-8514934D01*
X11000914Y-8514934D01*
X10972343Y-8500649D01*
X11243771Y-8486363D02*
X11258057Y-8500649D01*
X11243771Y-8514934D01*
X11229486Y-8500649D01*
X11243771Y-8486363D01*
X11243771Y-8514934D01*
X11243771Y-8329220D02*
X11258057Y-8343506D01*
X11243771Y-8357791D01*
X11229486Y-8343506D01*
X11243771Y-8329220D01*
X11243771Y-8357791D01*
X8820200Y-8969220D02*
X8900200Y-9049220D01*
X8900200Y-8969220D02*
X8820200Y-9049220D01*
X9243771Y-8844934D02*
X9272343Y-8844934D01*
X9300914Y-8859220D01*
X9315200Y-8873506D01*
X9329486Y-8902077D01*
X9343771Y-8959220D01*
X9343771Y-9030649D01*
X9329486Y-9087792D01*
X9315200Y-9116363D01*
X9300914Y-9130649D01*
X9272343Y-9144934D01*
X9243771Y-9144934D01*
X9215200Y-9130649D01*
X9200914Y-9116363D01*
X9186628Y-9087792D01*
X9172343Y-9030649D01*
X9172343Y-8959220D01*
X9186628Y-8902077D01*
X9200914Y-8873506D01*
X9215200Y-8859220D01*
X9243771Y-8844934D01*
X9472343Y-9116363D02*
X9486628Y-9130649D01*
X9472343Y-9144934D01*
X9458057Y-9130649D01*
X9472343Y-9116363D01*
X9472343Y-9144934D01*
X9658057Y-8973506D02*
X9629486Y-8959220D01*
X9615200Y-8944934D01*
X9600914Y-8916363D01*
X9600914Y-8902077D01*
X9615200Y-8873506D01*
X9629486Y-8859220D01*
X9658057Y-8844934D01*
X9715200Y-8844934D01*
X9743771Y-8859220D01*
X9758057Y-8873506D01*
X9772343Y-8902077D01*
X9772343Y-8916363D01*
X9758057Y-8944934D01*
X9743771Y-8959220D01*
X9715200Y-8973506D01*
X9658057Y-8973506D01*
X9629486Y-8987792D01*
X9615200Y-9002077D01*
X9600914Y-9030649D01*
X9600914Y-9087792D01*
X9615200Y-9116363D01*
X9629486Y-9130649D01*
X9658057Y-9144934D01*
X9715200Y-9144934D01*
X9743771Y-9130649D01*
X9758057Y-9116363D01*
X9772343Y-9087792D01*
X9772343Y-9030649D01*
X9758057Y-9002077D01*
X9743771Y-8987792D01*
X9715200Y-8973506D01*
X9958057Y-8844934D02*
X9986628Y-8844934D01*
X10015200Y-8859220D01*
X10029486Y-8873506D01*
X10043771Y-8902077D01*
X10058057Y-8959220D01*
X10058057Y-9030649D01*
X10043771Y-9087792D01*
X10029486Y-9116363D01*
X10015200Y-9130649D01*
X9986628Y-9144934D01*
X9958057Y-9144934D01*
X9929486Y-9130649D01*
X9915200Y-9116363D01*
X9900914Y-9087792D01*
X9886628Y-9030649D01*
X9886628Y-8959220D01*
X9900914Y-8902077D01*
X9915200Y-8873506D01*
X9929486Y-8859220D01*
X9958057Y-8844934D01*
X10243771Y-8844934D02*
X10272343Y-8844934D01*
X10300914Y-8859220D01*
X10315200Y-8873506D01*
X10329486Y-8902077D01*
X10343771Y-8959220D01*
X10343771Y-9030649D01*
X10329486Y-9087792D01*
X10315200Y-9116363D01*
X10300914Y-9130649D01*
X10272343Y-9144934D01*
X10243771Y-9144934D01*
X10215200Y-9130649D01*
X10200914Y-9116363D01*
X10186628Y-9087792D01*
X10172343Y-9030649D01*
X10172343Y-8959220D01*
X10186628Y-8902077D01*
X10200914Y-8873506D01*
X10215200Y-8859220D01*
X10243771Y-8844934D01*
X10472343Y-9144934D02*
X10472343Y-8944934D01*
X10472343Y-8973506D02*
X10486628Y-8959220D01*
X10515200Y-8944934D01*
X10558057Y-8944934D01*
X10586628Y-8959220D01*
X10600914Y-8987792D01*
X10600914Y-9144934D01*
X10600914Y-8987792D02*
X10615200Y-8959220D01*
X10643771Y-8944934D01*
X10686628Y-8944934D01*
X10715200Y-8959220D01*
X10729486Y-8987792D01*
X10729486Y-9144934D01*
X10872343Y-9144934D02*
X10872343Y-8944934D01*
X10872343Y-8973506D02*
X10886628Y-8959220D01*
X10915200Y-8944934D01*
X10958057Y-8944934D01*
X10986628Y-8959220D01*
X11000914Y-8987792D01*
X11000914Y-9144934D01*
X11000914Y-8987792D02*
X11015200Y-8959220D01*
X11043771Y-8944934D01*
X11086628Y-8944934D01*
X11115200Y-8959220D01*
X11129486Y-8987792D01*
X11129486Y-9144934D01*
X11715200Y-8830649D02*
X11458057Y-9216363D01*
X12100914Y-8844934D02*
X12129486Y-8844934D01*
X12158057Y-8859220D01*
X12172343Y-8873506D01*
X12186628Y-8902077D01*
X12200914Y-8959220D01*
X12200914Y-9030649D01*
X12186628Y-9087792D01*
X12172343Y-9116363D01*
X12158057Y-9130649D01*
X12129486Y-9144934D01*
X12100914Y-9144934D01*
X12072343Y-9130649D01*
X12058057Y-9116363D01*
X12043771Y-9087792D01*
X12029486Y-9030649D01*
X12029486Y-8959220D01*
X12043771Y-8902077D01*
X12058057Y-8873506D01*
X12072343Y-8859220D01*
X12100914Y-8844934D01*
X12329486Y-9116363D02*
X12343771Y-9130649D01*
X12329486Y-9144934D01*
X12315200Y-9130649D01*
X12329486Y-9116363D01*
X12329486Y-9144934D01*
X12529486Y-8844934D02*
X12558057Y-8844934D01*
X12586628Y-8859220D01*
X12600914Y-8873506D01*
X12615200Y-8902077D01*
X12629486Y-8959220D01*
X12629486Y-9030649D01*
X12615200Y-9087792D01*
X12600914Y-9116363D01*
X12586628Y-9130649D01*
X12558057Y-9144934D01*
X12529486Y-9144934D01*
X12500914Y-9130649D01*
X12486628Y-9116363D01*
X12472343Y-9087792D01*
X12458057Y-9030649D01*
X12458057Y-8959220D01*
X12472343Y-8902077D01*
X12486628Y-8873506D01*
X12500914Y-8859220D01*
X12529486Y-8844934D01*
X12729486Y-8844934D02*
X12915200Y-8844934D01*
X12815200Y-8959220D01*
X12858057Y-8959220D01*
X12886628Y-8973506D01*
X12900914Y-8987792D01*
X12915200Y-9016363D01*
X12915200Y-9087792D01*
X12900914Y-9116363D01*
X12886628Y-9130649D01*
X12858057Y-9144934D01*
X12772343Y-9144934D01*
X12743771Y-9130649D01*
X12729486Y-9116363D01*
X13200914Y-9144934D02*
X13029486Y-9144934D01*
X13115200Y-9144934D02*
X13115200Y-8844934D01*
X13086628Y-8887792D01*
X13058057Y-8916363D01*
X13029486Y-8930649D01*
X13472343Y-8844934D02*
X13329486Y-8844934D01*
X13315200Y-8987792D01*
X13329486Y-8973506D01*
X13358057Y-8959220D01*
X13429486Y-8959220D01*
X13458057Y-8973506D01*
X13472343Y-8987792D01*
X13486628Y-9016363D01*
X13486628Y-9087792D01*
X13472343Y-9116363D01*
X13458057Y-9130649D01*
X13429486Y-9144934D01*
X13358057Y-9144934D01*
X13329486Y-9130649D01*
X13315200Y-9116363D01*
X13600914Y-8844934D02*
X13600914Y-8902077D01*
X13715200Y-8844934D02*
X13715200Y-8902077D01*
X14158057Y-9259220D02*
X14143771Y-9244934D01*
X14115200Y-9202077D01*
X14100914Y-9173506D01*
X14086628Y-9130649D01*
X14072343Y-9059220D01*
X14072343Y-9002077D01*
X14086628Y-8930649D01*
X14100914Y-8887792D01*
X14115200Y-8859220D01*
X14143771Y-8816363D01*
X14158057Y-8802077D01*
X14243771Y-8844934D02*
X14429486Y-8844934D01*
X14329486Y-8959220D01*
X14372343Y-8959220D01*
X14400914Y-8973506D01*
X14415200Y-8987792D01*
X14429486Y-9016363D01*
X14429486Y-9087792D01*
X14415200Y-9116363D01*
X14400914Y-9130649D01*
X14372343Y-9144934D01*
X14286628Y-9144934D01*
X14258057Y-9130649D01*
X14243771Y-9116363D01*
X14615200Y-8844934D02*
X14643771Y-8844934D01*
X14672343Y-8859220D01*
X14686628Y-8873506D01*
X14700914Y-8902077D01*
X14715200Y-8959220D01*
X14715200Y-9030649D01*
X14700914Y-9087792D01*
X14686628Y-9116363D01*
X14672343Y-9130649D01*
X14643771Y-9144934D01*
X14615200Y-9144934D01*
X14586628Y-9130649D01*
X14572343Y-9116363D01*
X14558057Y-9087792D01*
X14543771Y-9030649D01*
X14543771Y-8959220D01*
X14558057Y-8902077D01*
X14572343Y-8873506D01*
X14586628Y-8859220D01*
X14615200Y-8844934D01*
X15072343Y-9144934D02*
X15072343Y-8844934D01*
X15200914Y-9144934D02*
X15200914Y-8987792D01*
X15186628Y-8959220D01*
X15158057Y-8944934D01*
X15115200Y-8944934D01*
X15086628Y-8959220D01*
X15072343Y-8973506D01*
X15386628Y-9144934D02*
X15358057Y-9130649D01*
X15343771Y-9116363D01*
X15329486Y-9087792D01*
X15329486Y-9002077D01*
X15343771Y-8973506D01*
X15358057Y-8959220D01*
X15386628Y-8944934D01*
X15429486Y-8944934D01*
X15458057Y-8959220D01*
X15472343Y-8973506D01*
X15486628Y-9002077D01*
X15486628Y-9087792D01*
X15472343Y-9116363D01*
X15458057Y-9130649D01*
X15429486Y-9144934D01*
X15386628Y-9144934D01*
X15658057Y-9144934D02*
X15629486Y-9130649D01*
X15615200Y-9102077D01*
X15615200Y-8844934D01*
X15886628Y-9130649D02*
X15858057Y-9144934D01*
X15800914Y-9144934D01*
X15772343Y-9130649D01*
X15758057Y-9102077D01*
X15758057Y-8987792D01*
X15772343Y-8959220D01*
X15800914Y-8944934D01*
X15858057Y-8944934D01*
X15886628Y-8959220D01*
X15900914Y-8987792D01*
X15900914Y-9016363D01*
X15758057Y-9044934D01*
X16015200Y-9130649D02*
X16043771Y-9144934D01*
X16100914Y-9144934D01*
X16129486Y-9130649D01*
X16143771Y-9102077D01*
X16143771Y-9087792D01*
X16129486Y-9059220D01*
X16100914Y-9044934D01*
X16058057Y-9044934D01*
X16029486Y-9030649D01*
X16015200Y-9002077D01*
X16015200Y-8987792D01*
X16029486Y-8959220D01*
X16058057Y-8944934D01*
X16100914Y-8944934D01*
X16129486Y-8959220D01*
X16243771Y-9259220D02*
X16258057Y-9244934D01*
X16286628Y-9202077D01*
X16300914Y-9173506D01*
X16315200Y-9130649D01*
X16329486Y-9059220D01*
X16329486Y-9002077D01*
X16315200Y-8930649D01*
X16300914Y-8887792D01*
X16286628Y-8859220D01*
X16258057Y-8816363D01*
X16243771Y-8802077D01*
X16786628Y-9259220D02*
X16772343Y-9244934D01*
X16743771Y-9202077D01*
X16729486Y-9173506D01*
X16715200Y-9130649D01*
X16700914Y-9059220D01*
X16700914Y-9002077D01*
X16715200Y-8930649D01*
X16729486Y-8887792D01*
X16743771Y-8859220D01*
X16772343Y-8816363D01*
X16786628Y-8802077D01*
X16900914Y-8944934D02*
X16900914Y-9144934D01*
X16900914Y-8973506D02*
X16915200Y-8959220D01*
X16943771Y-8944934D01*
X16986628Y-8944934D01*
X17015200Y-8959220D01*
X17029486Y-8987792D01*
X17029486Y-9144934D01*
X17215200Y-9144934D02*
X17186628Y-9130649D01*
X17172343Y-9116363D01*
X17158057Y-9087792D01*
X17158057Y-9002077D01*
X17172343Y-8973506D01*
X17186628Y-8959220D01*
X17215200Y-8944934D01*
X17258057Y-8944934D01*
X17286628Y-8959220D01*
X17300914Y-8973506D01*
X17315200Y-9002077D01*
X17315200Y-9087792D01*
X17300914Y-9116363D01*
X17286628Y-9130649D01*
X17258057Y-9144934D01*
X17215200Y-9144934D01*
X17400914Y-8944934D02*
X17515200Y-8944934D01*
X17443771Y-8844934D02*
X17443771Y-9102077D01*
X17458057Y-9130649D01*
X17486628Y-9144934D01*
X17515200Y-9144934D01*
X17843771Y-8944934D02*
X17843771Y-9244934D01*
X17843771Y-8959220D02*
X17872343Y-8944934D01*
X17929486Y-8944934D01*
X17958057Y-8959220D01*
X17972343Y-8973506D01*
X17986628Y-9002077D01*
X17986628Y-9087792D01*
X17972343Y-9116363D01*
X17958057Y-9130649D01*
X17929486Y-9144934D01*
X17872343Y-9144934D01*
X17843771Y-9130649D01*
X18158057Y-9144934D02*
X18129486Y-9130649D01*
X18115200Y-9102077D01*
X18115200Y-8844934D01*
X18400914Y-9144934D02*
X18400914Y-8987792D01*
X18386628Y-8959220D01*
X18358057Y-8944934D01*
X18300914Y-8944934D01*
X18272343Y-8959220D01*
X18400914Y-9130649D02*
X18372343Y-9144934D01*
X18300914Y-9144934D01*
X18272343Y-9130649D01*
X18258057Y-9102077D01*
X18258057Y-9073506D01*
X18272343Y-9044934D01*
X18300914Y-9030649D01*
X18372343Y-9030649D01*
X18400914Y-9016363D01*
X18500914Y-8944934D02*
X18615200Y-8944934D01*
X18543771Y-8844934D02*
X18543771Y-9102077D01*
X18558057Y-9130649D01*
X18586628Y-9144934D01*
X18615200Y-9144934D01*
X18829486Y-9130649D02*
X18800914Y-9144934D01*
X18743771Y-9144934D01*
X18715200Y-9130649D01*
X18700914Y-9102077D01*
X18700914Y-8987792D01*
X18715200Y-8959220D01*
X18743771Y-8944934D01*
X18800914Y-8944934D01*
X18829486Y-8959220D01*
X18843771Y-8987792D01*
X18843771Y-9016363D01*
X18700914Y-9044934D01*
X19100914Y-9144934D02*
X19100914Y-8844934D01*
X19100914Y-9130649D02*
X19072343Y-9144934D01*
X19015200Y-9144934D01*
X18986628Y-9130649D01*
X18972343Y-9116363D01*
X18958057Y-9087792D01*
X18958057Y-9002077D01*
X18972343Y-8973506D01*
X18986628Y-8959220D01*
X19015200Y-8944934D01*
X19072343Y-8944934D01*
X19100914Y-8959220D01*
X19215200Y-9259220D02*
X19229486Y-9244934D01*
X19258057Y-9202077D01*
X19272343Y-9173506D01*
X19286628Y-9130649D01*
X19300914Y-9059220D01*
X19300914Y-9002077D01*
X19286628Y-8930649D01*
X19272343Y-8887792D01*
X19258057Y-8859220D01*
X19229486Y-8816363D01*
X19215200Y-8802077D01*
X8900200Y-9405220D02*
G75*
G03*
X8900200Y-9405220I-160000J0D01*
G01*
X9158057Y-9240934D02*
X9343771Y-9240934D01*
X9243771Y-9355220D01*
X9286628Y-9355220D01*
X9315200Y-9369506D01*
X9329486Y-9383792D01*
X9343771Y-9412363D01*
X9343771Y-9483792D01*
X9329486Y-9512363D01*
X9315200Y-9526649D01*
X9286628Y-9540934D01*
X9200914Y-9540934D01*
X9172343Y-9526649D01*
X9158057Y-9512363D01*
X9472343Y-9512363D02*
X9486628Y-9526649D01*
X9472343Y-9540934D01*
X9458057Y-9526649D01*
X9472343Y-9512363D01*
X9472343Y-9540934D01*
X9600914Y-9269506D02*
X9615200Y-9255220D01*
X9643771Y-9240934D01*
X9715200Y-9240934D01*
X9743771Y-9255220D01*
X9758057Y-9269506D01*
X9772343Y-9298077D01*
X9772343Y-9326649D01*
X9758057Y-9369506D01*
X9586628Y-9540934D01*
X9772343Y-9540934D01*
X9958057Y-9240934D02*
X9986628Y-9240934D01*
X10015200Y-9255220D01*
X10029486Y-9269506D01*
X10043771Y-9298077D01*
X10058057Y-9355220D01*
X10058057Y-9426649D01*
X10043771Y-9483792D01*
X10029486Y-9512363D01*
X10015200Y-9526649D01*
X9986628Y-9540934D01*
X9958057Y-9540934D01*
X9929486Y-9526649D01*
X9915200Y-9512363D01*
X9900914Y-9483792D01*
X9886628Y-9426649D01*
X9886628Y-9355220D01*
X9900914Y-9298077D01*
X9915200Y-9269506D01*
X9929486Y-9255220D01*
X9958057Y-9240934D01*
X10243771Y-9240934D02*
X10272343Y-9240934D01*
X10300914Y-9255220D01*
X10315200Y-9269506D01*
X10329486Y-9298077D01*
X10343771Y-9355220D01*
X10343771Y-9426649D01*
X10329486Y-9483792D01*
X10315200Y-9512363D01*
X10300914Y-9526649D01*
X10272343Y-9540934D01*
X10243771Y-9540934D01*
X10215200Y-9526649D01*
X10200914Y-9512363D01*
X10186628Y-9483792D01*
X10172343Y-9426649D01*
X10172343Y-9355220D01*
X10186628Y-9298077D01*
X10200914Y-9269506D01*
X10215200Y-9255220D01*
X10243771Y-9240934D01*
X10472343Y-9540934D02*
X10472343Y-9340934D01*
X10472343Y-9369506D02*
X10486628Y-9355220D01*
X10515200Y-9340934D01*
X10558057Y-9340934D01*
X10586628Y-9355220D01*
X10600914Y-9383792D01*
X10600914Y-9540934D01*
X10600914Y-9383792D02*
X10615200Y-9355220D01*
X10643771Y-9340934D01*
X10686628Y-9340934D01*
X10715200Y-9355220D01*
X10729486Y-9383792D01*
X10729486Y-9540934D01*
X10872343Y-9540934D02*
X10872343Y-9340934D01*
X10872343Y-9369506D02*
X10886628Y-9355220D01*
X10915200Y-9340934D01*
X10958057Y-9340934D01*
X10986628Y-9355220D01*
X11000914Y-9383792D01*
X11000914Y-9540934D01*
X11000914Y-9383792D02*
X11015200Y-9355220D01*
X11043771Y-9340934D01*
X11086628Y-9340934D01*
X11115200Y-9355220D01*
X11129486Y-9383792D01*
X11129486Y-9540934D01*
X11715200Y-9226649D02*
X11458057Y-9612363D01*
X12100914Y-9240934D02*
X12129486Y-9240934D01*
X12158057Y-9255220D01*
X12172343Y-9269506D01*
X12186628Y-9298077D01*
X12200914Y-9355220D01*
X12200914Y-9426649D01*
X12186628Y-9483792D01*
X12172343Y-9512363D01*
X12158057Y-9526649D01*
X12129486Y-9540934D01*
X12100914Y-9540934D01*
X12072343Y-9526649D01*
X12058057Y-9512363D01*
X12043771Y-9483792D01*
X12029486Y-9426649D01*
X12029486Y-9355220D01*
X12043771Y-9298077D01*
X12058057Y-9269506D01*
X12072343Y-9255220D01*
X12100914Y-9240934D01*
X12329486Y-9512363D02*
X12343771Y-9526649D01*
X12329486Y-9540934D01*
X12315200Y-9526649D01*
X12329486Y-9512363D01*
X12329486Y-9540934D01*
X12629486Y-9540934D02*
X12458057Y-9540934D01*
X12543771Y-9540934D02*
X12543771Y-9240934D01*
X12515200Y-9283792D01*
X12486628Y-9312363D01*
X12458057Y-9326649D01*
X12743771Y-9269506D02*
X12758057Y-9255220D01*
X12786628Y-9240934D01*
X12858057Y-9240934D01*
X12886628Y-9255220D01*
X12900914Y-9269506D01*
X12915200Y-9298077D01*
X12915200Y-9326649D01*
X12900914Y-9369506D01*
X12729486Y-9540934D01*
X12915200Y-9540934D01*
X13172343Y-9240934D02*
X13115200Y-9240934D01*
X13086628Y-9255220D01*
X13072343Y-9269506D01*
X13043771Y-9312363D01*
X13029486Y-9369506D01*
X13029486Y-9483792D01*
X13043771Y-9512363D01*
X13058057Y-9526649D01*
X13086628Y-9540934D01*
X13143771Y-9540934D01*
X13172343Y-9526649D01*
X13186628Y-9512363D01*
X13200914Y-9483792D01*
X13200914Y-9412363D01*
X13186628Y-9383792D01*
X13172343Y-9369506D01*
X13143771Y-9355220D01*
X13086628Y-9355220D01*
X13058057Y-9369506D01*
X13043771Y-9383792D01*
X13029486Y-9412363D01*
X13386628Y-9240934D02*
X13415200Y-9240934D01*
X13443771Y-9255220D01*
X13458057Y-9269506D01*
X13472343Y-9298077D01*
X13486628Y-9355220D01*
X13486628Y-9426649D01*
X13472343Y-9483792D01*
X13458057Y-9512363D01*
X13443771Y-9526649D01*
X13415200Y-9540934D01*
X13386628Y-9540934D01*
X13358057Y-9526649D01*
X13343771Y-9512363D01*
X13329486Y-9483792D01*
X13315200Y-9426649D01*
X13315200Y-9355220D01*
X13329486Y-9298077D01*
X13343771Y-9269506D01*
X13358057Y-9255220D01*
X13386628Y-9240934D01*
X13600914Y-9240934D02*
X13600914Y-9298077D01*
X13715200Y-9240934D02*
X13715200Y-9298077D01*
X14158057Y-9655220D02*
X14143771Y-9640934D01*
X14115200Y-9598077D01*
X14100914Y-9569506D01*
X14086628Y-9526649D01*
X14072343Y-9455220D01*
X14072343Y-9398077D01*
X14086628Y-9326649D01*
X14100914Y-9283792D01*
X14115200Y-9255220D01*
X14143771Y-9212363D01*
X14158057Y-9198077D01*
X14243771Y-9240934D02*
X14429486Y-9240934D01*
X14329486Y-9355220D01*
X14372343Y-9355220D01*
X14400914Y-9369506D01*
X14415200Y-9383792D01*
X14429486Y-9412363D01*
X14429486Y-9483792D01*
X14415200Y-9512363D01*
X14400914Y-9526649D01*
X14372343Y-9540934D01*
X14286628Y-9540934D01*
X14258057Y-9526649D01*
X14243771Y-9512363D01*
X14786628Y-9540934D02*
X14786628Y-9240934D01*
X14915200Y-9540934D02*
X14915200Y-9383792D01*
X14900914Y-9355220D01*
X14872343Y-9340934D01*
X14829486Y-9340934D01*
X14800914Y-9355220D01*
X14786628Y-9369506D01*
X15100914Y-9540934D02*
X15072343Y-9526649D01*
X15058057Y-9512363D01*
X15043771Y-9483792D01*
X15043771Y-9398077D01*
X15058057Y-9369506D01*
X15072343Y-9355220D01*
X15100914Y-9340934D01*
X15143771Y-9340934D01*
X15172343Y-9355220D01*
X15186628Y-9369506D01*
X15200914Y-9398077D01*
X15200914Y-9483792D01*
X15186628Y-9512363D01*
X15172343Y-9526649D01*
X15143771Y-9540934D01*
X15100914Y-9540934D01*
X15372343Y-9540934D02*
X15343771Y-9526649D01*
X15329486Y-9498077D01*
X15329486Y-9240934D01*
X15600914Y-9526649D02*
X15572343Y-9540934D01*
X15515200Y-9540934D01*
X15486628Y-9526649D01*
X15472343Y-9498077D01*
X15472343Y-9383792D01*
X15486628Y-9355220D01*
X15515200Y-9340934D01*
X15572343Y-9340934D01*
X15600914Y-9355220D01*
X15615200Y-9383792D01*
X15615200Y-9412363D01*
X15472343Y-9440934D01*
X15729486Y-9526649D02*
X15758057Y-9540934D01*
X15815200Y-9540934D01*
X15843771Y-9526649D01*
X15858057Y-9498077D01*
X15858057Y-9483792D01*
X15843771Y-9455220D01*
X15815200Y-9440934D01*
X15772343Y-9440934D01*
X15743771Y-9426649D01*
X15729486Y-9398077D01*
X15729486Y-9383792D01*
X15743771Y-9355220D01*
X15772343Y-9340934D01*
X15815200Y-9340934D01*
X15843771Y-9355220D01*
X15958057Y-9655220D02*
X15972343Y-9640934D01*
X16000914Y-9598077D01*
X16015200Y-9569506D01*
X16029486Y-9526649D01*
X16043771Y-9455220D01*
X16043771Y-9398077D01*
X16029486Y-9326649D01*
X16015200Y-9283792D01*
X16000914Y-9255220D01*
X15972343Y-9212363D01*
X15958057Y-9198077D01*
X16500914Y-9655220D02*
X16486628Y-9640934D01*
X16458057Y-9598077D01*
X16443771Y-9569506D01*
X16429486Y-9526649D01*
X16415200Y-9455220D01*
X16415200Y-9398077D01*
X16429486Y-9326649D01*
X16443771Y-9283792D01*
X16458057Y-9255220D01*
X16486628Y-9212363D01*
X16500914Y-9198077D01*
X16615200Y-9340934D02*
X16615200Y-9540934D01*
X16615200Y-9369506D02*
X16629486Y-9355220D01*
X16658057Y-9340934D01*
X16700914Y-9340934D01*
X16729486Y-9355220D01*
X16743771Y-9383792D01*
X16743771Y-9540934D01*
X16929486Y-9540934D02*
X16900914Y-9526649D01*
X16886628Y-9512363D01*
X16872343Y-9483792D01*
X16872343Y-9398077D01*
X16886628Y-9369506D01*
X16900914Y-9355220D01*
X16929486Y-9340934D01*
X16972343Y-9340934D01*
X17000914Y-9355220D01*
X17015200Y-9369506D01*
X17029486Y-9398077D01*
X17029486Y-9483792D01*
X17015200Y-9512363D01*
X17000914Y-9526649D01*
X16972343Y-9540934D01*
X16929486Y-9540934D01*
X17115200Y-9340934D02*
X17229486Y-9340934D01*
X17158057Y-9240934D02*
X17158057Y-9498077D01*
X17172343Y-9526649D01*
X17200914Y-9540934D01*
X17229486Y-9540934D01*
X17558057Y-9340934D02*
X17558057Y-9640934D01*
X17558057Y-9355220D02*
X17586628Y-9340934D01*
X17643771Y-9340934D01*
X17672343Y-9355220D01*
X17686628Y-9369506D01*
X17700914Y-9398077D01*
X17700914Y-9483792D01*
X17686628Y-9512363D01*
X17672343Y-9526649D01*
X17643771Y-9540934D01*
X17586628Y-9540934D01*
X17558057Y-9526649D01*
X17872343Y-9540934D02*
X17843771Y-9526649D01*
X17829486Y-9498077D01*
X17829486Y-9240934D01*
X18115200Y-9540934D02*
X18115200Y-9383792D01*
X18100914Y-9355220D01*
X18072343Y-9340934D01*
X18015200Y-9340934D01*
X17986628Y-9355220D01*
X18115200Y-9526649D02*
X18086628Y-9540934D01*
X18015200Y-9540934D01*
X17986628Y-9526649D01*
X17972343Y-9498077D01*
X17972343Y-9469506D01*
X17986628Y-9440934D01*
X18015200Y-9426649D01*
X18086628Y-9426649D01*
X18115200Y-9412363D01*
X18215200Y-9340934D02*
X18329486Y-9340934D01*
X18258057Y-9240934D02*
X18258057Y-9498077D01*
X18272343Y-9526649D01*
X18300914Y-9540934D01*
X18329486Y-9540934D01*
X18543771Y-9526649D02*
X18515200Y-9540934D01*
X18458057Y-9540934D01*
X18429486Y-9526649D01*
X18415200Y-9498077D01*
X18415200Y-9383792D01*
X18429486Y-9355220D01*
X18458057Y-9340934D01*
X18515200Y-9340934D01*
X18543771Y-9355220D01*
X18558057Y-9383792D01*
X18558057Y-9412363D01*
X18415200Y-9440934D01*
X18815200Y-9540934D02*
X18815200Y-9240934D01*
X18815200Y-9526649D02*
X18786628Y-9540934D01*
X18729486Y-9540934D01*
X18700914Y-9526649D01*
X18686628Y-9512363D01*
X18672343Y-9483792D01*
X18672343Y-9398077D01*
X18686628Y-9369506D01*
X18700914Y-9355220D01*
X18729486Y-9340934D01*
X18786628Y-9340934D01*
X18815200Y-9355220D01*
X18929486Y-9655220D02*
X18943771Y-9640934D01*
X18972343Y-9598077D01*
X18986628Y-9569506D01*
X19000914Y-9526649D01*
X19015200Y-9455220D01*
X19015200Y-9398077D01*
X19000914Y-9326649D01*
X18986628Y-9283792D01*
X18972343Y-9255220D01*
X18943771Y-9212363D01*
X18929486Y-9198077D01*
M02*
