G04 #@! TF.GenerationSoftware,KiCad,Pcbnew,5.1.12-84ad8e8a86~92~ubuntu16.04.1*
G04 #@! TF.CreationDate,2022-11-17T23:37:42+01:00*
G04 #@! TF.ProjectId,Subboards,53756262-6f61-4726-9473-2e6b69636164,rev?*
G04 #@! TF.SameCoordinates,Original*
G04 #@! TF.FileFunction,Soldermask,Bot*
G04 #@! TF.FilePolarity,Negative*
%FSLAX46Y46*%
G04 Gerber Fmt 4.6, Leading zero omitted, Abs format (unit mm)*
G04 Created by KiCad (PCBNEW 5.1.12-84ad8e8a86~92~ubuntu16.04.1) date 2022-11-17 23:37:42*
%MOMM*%
%LPD*%
G01*
G04 APERTURE LIST*
%ADD10C,0.100000*%
%ADD11O,4.050000X1.500000*%
%ADD12R,4.050000X1.500000*%
%ADD13O,4.050000X1.400000*%
%ADD14R,4.050000X1.400000*%
%ADD15R,1.350000X1.350000*%
%ADD16O,1.350000X1.350000*%
%ADD17R,1.070000X4.413000*%
%ADD18C,3.200000*%
%ADD19C,0.800000*%
G04 APERTURE END LIST*
D10*
G36*
X137128398Y-71664802D02*
G01*
X136067738Y-72725462D01*
X133946418Y-70604142D01*
X135007078Y-69543482D01*
X137128398Y-71664802D01*
G37*
G36*
X135714184Y-73079016D02*
G01*
X134653524Y-74139676D01*
X132532204Y-72018356D01*
X133592864Y-70957696D01*
X135714184Y-73079016D01*
G37*
G36*
X134299971Y-74493229D02*
G01*
X133239311Y-75553889D01*
X131117991Y-73432569D01*
X132178651Y-72371909D01*
X134299971Y-74493229D01*
G37*
G36*
X132885757Y-75907443D02*
G01*
X131825097Y-76968103D01*
X129703777Y-74846783D01*
X130764437Y-73786123D01*
X132885757Y-75907443D01*
G37*
G36*
X131471543Y-77321656D02*
G01*
X130410883Y-78382316D01*
X128289563Y-76260996D01*
X129350223Y-75200336D01*
X131471543Y-77321656D01*
G37*
G36*
X130057330Y-78735870D02*
G01*
X128996670Y-79796530D01*
X126875350Y-77675210D01*
X127936010Y-76614550D01*
X130057330Y-78735870D01*
G37*
D11*
X91567000Y-59639200D03*
X91567000Y-61969200D03*
X91567000Y-64309200D03*
D12*
X91567000Y-66639200D03*
D11*
X104775000Y-59639200D03*
X104775000Y-61969200D03*
X104775000Y-64309200D03*
D12*
X104775000Y-66639200D03*
D11*
X144399000Y-59639200D03*
X144399000Y-61969200D03*
X144399000Y-64309200D03*
D12*
X144399000Y-66639200D03*
D11*
X118237000Y-59639200D03*
X118237000Y-61969200D03*
X118237000Y-64309200D03*
D12*
X118237000Y-66639200D03*
D13*
X118237000Y-70689200D03*
X118237000Y-72689200D03*
X118237000Y-74689200D03*
X118237000Y-76689200D03*
D14*
X118237000Y-78689200D03*
D13*
X104775000Y-72689200D03*
X104775000Y-76689200D03*
X104775000Y-74689200D03*
D14*
X104775000Y-78689200D03*
D13*
X104775000Y-70689200D03*
D15*
X110506000Y-71163200D03*
D16*
X112506000Y-71163200D03*
X110506000Y-69163200D03*
X112506000Y-69163200D03*
X110506000Y-67163200D03*
X112506000Y-67163200D03*
X110506000Y-65163200D03*
X112506000Y-65163200D03*
X110506000Y-63163200D03*
X112506000Y-63163200D03*
X110506000Y-61163200D03*
X112506000Y-61163200D03*
D13*
X91567000Y-72689200D03*
X91567000Y-76689200D03*
X91567000Y-74689200D03*
D14*
X91567000Y-78689200D03*
D13*
X91567000Y-70689200D03*
D15*
X149479000Y-71703200D03*
D16*
X149479000Y-69703200D03*
X149479000Y-67703200D03*
X149479000Y-65703200D03*
X149479000Y-63703200D03*
D17*
X135001000Y-59559700D03*
X133477000Y-59559700D03*
X131953000Y-59559700D03*
X130429000Y-59559700D03*
X128905000Y-59559700D03*
X127381000Y-59559700D03*
D18*
X96647000Y-77083200D03*
X111506000Y-77038200D03*
D13*
X144399000Y-72689200D03*
X144399000Y-76689200D03*
X144399000Y-74689200D03*
D14*
X144399000Y-78689200D03*
D13*
X144399000Y-70689200D03*
D18*
X149479000Y-77083200D03*
D15*
X96647000Y-71703200D03*
D16*
X96647000Y-69703200D03*
X96647000Y-67703200D03*
X96647000Y-65703200D03*
X96647000Y-63703200D03*
D19*
X101835000Y-68834000D03*
X101835000Y-69934000D03*
X101835000Y-71034000D03*
X101835000Y-67734000D03*
X101835000Y-66634000D03*
X100095000Y-67734000D03*
X100095000Y-71034000D03*
X100095000Y-69934000D03*
X100095000Y-66634000D03*
X100095000Y-68834000D03*
X121177000Y-70429200D03*
X121177000Y-68229200D03*
X121177000Y-71529200D03*
X121177000Y-72629200D03*
X121177000Y-69329200D03*
X122917000Y-68229200D03*
X122917000Y-69329200D03*
X122917000Y-72629200D03*
X122917000Y-71529200D03*
X122917000Y-70429200D03*
X139465000Y-64209200D03*
X139465000Y-62009200D03*
X139465000Y-65309200D03*
X139465000Y-66409200D03*
X139465000Y-63109200D03*
X141459000Y-62009200D03*
X141459000Y-63109200D03*
X141459000Y-66409200D03*
X141459000Y-65309200D03*
X141459000Y-64209200D03*
M02*
