M48
; DRILL file {KiCad 5.1.12-84ad8e8a86~92~ubuntu16.04.1} date do 17 nov 2022 23:38:09 CET
; FORMAT={-:-/ absolute / metric / decimal}
; #@! TF.CreationDate,2022-11-17T23:38:09+01:00
; #@! TF.GenerationSoftware,Kicad,Pcbnew,5.1.12-84ad8e8a86~92~ubuntu16.04.1
; #@! TF.FileFunction,Plated,1,2,PTH
FMAT,2
METRIC
T1C0.400
T2C0.800
T3C1.000
%
G90
G05
T1
X95.885Y-61.925
X108.585Y-61.417
X114.427Y-61.417
X148.717Y-61.925
T2
X96.647Y-63.703
X96.647Y-65.703
X96.647Y-67.703
X96.647Y-69.703
X96.647Y-71.703
X110.506Y-61.163
X110.506Y-63.163
X110.506Y-65.163
X110.506Y-67.163
X110.506Y-69.163
X110.506Y-71.163
X112.506Y-61.163
X112.506Y-63.163
X112.506Y-65.163
X112.506Y-67.163
X112.506Y-69.163
X112.506Y-71.163
X149.479Y-63.703
X149.479Y-65.703
X149.479Y-67.703
X149.479Y-69.703
X149.479Y-71.703
T3
X91.567Y-59.639
X91.567Y-61.969
X91.567Y-64.309
X91.567Y-66.639
X91.567Y-70.689
X91.567Y-72.689
X91.567Y-74.689
X91.567Y-76.689
X91.567Y-78.689
X104.775Y-59.639
X104.775Y-61.969
X104.775Y-64.309
X104.775Y-66.639
X104.775Y-70.689
X104.775Y-72.689
X104.775Y-74.689
X104.775Y-76.689
X104.775Y-78.689
X118.237Y-59.639
X118.237Y-61.969
X118.237Y-64.309
X118.237Y-66.639
X118.237Y-70.689
X118.237Y-72.689
X118.237Y-74.689
X118.237Y-76.689
X118.237Y-78.689
X144.399Y-59.639
X144.399Y-61.969
X144.399Y-64.309
X144.399Y-66.639
X144.399Y-70.689
X144.399Y-72.689
X144.399Y-74.689
X144.399Y-76.689
X144.399Y-78.689
T0
M30
