G04 #@! TF.GenerationSoftware,KiCad,Pcbnew,5.1.12-84ad8e8a86~92~ubuntu16.04.1*
G04 #@! TF.CreationDate,2022-12-06T17:39:37+01:00*
G04 #@! TF.ProjectId,Subboards,53756262-6f61-4726-9473-2e6b69636164,rev?*
G04 #@! TF.SameCoordinates,Original*
G04 #@! TF.FileFunction,Profile,NP*
%FSLAX46Y46*%
G04 Gerber Fmt 4.6, Leading zero omitted, Abs format (unit mm)*
G04 Created by KiCad (PCBNEW 5.1.12-84ad8e8a86~92~ubuntu16.04.1) date 2022-12-06 17:39:37*
%MOMM*%
%LPD*%
G01*
G04 APERTURE LIST*
G04 #@! TA.AperFunction,Profile*
%ADD10C,0.050000*%
G04 #@! TD*
G04 APERTURE END LIST*
D10*
X89535000Y-57353200D02*
X99187000Y-57353200D01*
X102743000Y-57353200D02*
X120269000Y-57353200D01*
X120777000Y-74879200D02*
X120777000Y-79959200D01*
X89027000Y-79959200D02*
X89027000Y-57861200D01*
X99695000Y-57861200D02*
X99695000Y-64389000D01*
X99695000Y-73279000D02*
X99695000Y-79959200D01*
X102235000Y-73279000D02*
X102235000Y-79959200D01*
X102743000Y-80467200D02*
X120269000Y-80467200D01*
X102235000Y-64389000D02*
X102235000Y-57861200D01*
X120777000Y-57861200D02*
X120777000Y-65989200D01*
X123317000Y-59766200D02*
X123317000Y-65989200D01*
X89535000Y-80467200D02*
X99187000Y-80467200D01*
X141859000Y-59766200D02*
X141859000Y-57861200D01*
X142367000Y-57353200D02*
X152019000Y-57353200D01*
X152527000Y-57861200D02*
X152527000Y-79959200D01*
X141859000Y-68656200D02*
X141859000Y-79959200D01*
X151892000Y-80467200D02*
X152019000Y-80467200D01*
X151892000Y-80467200D02*
X142367000Y-80467200D01*
X89535000Y-80467200D02*
G75*
G02*
X89027000Y-79959200I0J508000D01*
G01*
X89027000Y-57861200D02*
G75*
G02*
X89535000Y-57353200I508000J0D01*
G01*
X99187000Y-57353200D02*
G75*
G02*
X99695000Y-57861200I0J-508000D01*
G01*
X99695000Y-79959200D02*
G75*
G02*
X99187000Y-80467200I-508000J0D01*
G01*
X102743000Y-80467200D02*
G75*
G02*
X102235000Y-79959200I0J508000D01*
G01*
X102235000Y-57861200D02*
G75*
G02*
X102743000Y-57353200I508000J0D01*
G01*
X120269000Y-57353200D02*
G75*
G02*
X120777000Y-57861200I0J-508000D01*
G01*
X120777000Y-79959200D02*
G75*
G02*
X120269000Y-80467200I-508000J0D01*
G01*
X141859000Y-57861200D02*
G75*
G02*
X142367000Y-57353200I508000J0D01*
G01*
X152019000Y-57353200D02*
G75*
G02*
X152527000Y-57861200I0J-508000D01*
G01*
X142367000Y-80467200D02*
G75*
G02*
X141859000Y-79959200I0J508000D01*
G01*
X152527000Y-79959200D02*
G75*
G02*
X152019000Y-80467200I-508000J0D01*
G01*
X128777999Y-80086199D02*
X137413999Y-71450199D01*
X123317000Y-74879200D02*
X128524000Y-80086200D01*
X139319000Y-67513200D02*
X137414000Y-69418200D01*
X137414000Y-71196200D02*
G75*
G02*
X137414000Y-69418200I889000J889000D01*
G01*
X128777999Y-80086199D02*
G75*
G02*
X128524001Y-80086199I-126999J126999D01*
G01*
X137413999Y-71196201D02*
G75*
G02*
X137413999Y-71450199I-126999J-126999D01*
G01*
X139065000Y-59766200D02*
X138017000Y-59766200D01*
X124365000Y-59766200D02*
X123317000Y-59766200D01*
X126365000Y-57353200D02*
X136017000Y-57353200D01*
X136017000Y-57353200D02*
X136017000Y-59766200D01*
X126365000Y-59766200D02*
X126365000Y-57353200D01*
X124365000Y-59766200D02*
G75*
G03*
X126365000Y-59766200I1000000J0D01*
G01*
X136017000Y-59766200D02*
G75*
G03*
X138017000Y-59766200I1000000J0D01*
G01*
X102235000Y-72864000D02*
X102235000Y-73279000D01*
X99695000Y-72864000D02*
X99695000Y-73279000D01*
X99695000Y-64804000D02*
X99695000Y-64389000D01*
X102235000Y-64804000D02*
X102235000Y-64389000D01*
X99695000Y-72864000D02*
G75*
G02*
X102235000Y-72864000I1270000J0D01*
G01*
X102235000Y-64804000D02*
G75*
G02*
X99695000Y-64804000I-1270000J0D01*
G01*
X123317000Y-66399200D02*
X123317000Y-65984200D01*
X120777000Y-66399200D02*
X120777000Y-65984200D01*
X120777000Y-74459200D02*
X120777000Y-74874200D01*
X123317000Y-74459200D02*
X123317000Y-74874200D01*
X123317000Y-66399200D02*
G75*
G02*
X120777000Y-66399200I-1270000J0D01*
G01*
X120777000Y-74459200D02*
G75*
G02*
X123317000Y-74459200I1270000J0D01*
G01*
X139496800Y-67341174D02*
X139319000Y-67511200D01*
X140589000Y-66969200D02*
X140394826Y-66969200D01*
X140335000Y-61449200D02*
X140589000Y-61449200D01*
X141859000Y-60179200D02*
X141859000Y-59764200D01*
X139065000Y-60179200D02*
X139065000Y-59764200D01*
X141859000Y-68239200D02*
X141859000Y-68654200D01*
X139496800Y-67341174D02*
G75*
G02*
X140394826Y-66969200I898026J-898026D01*
G01*
X140335000Y-61449200D02*
G75*
G02*
X139065000Y-60179200I0J1270000D01*
G01*
X141859000Y-60179200D02*
G75*
G02*
X140589000Y-61449200I-1270000J0D01*
G01*
X140589000Y-66969200D02*
G75*
G02*
X141859000Y-68239200I0J-1270000D01*
G01*
M02*
