G04 #@! TF.GenerationSoftware,KiCad,Pcbnew,5.1.12-84ad8e8a86~92~ubuntu16.04.1*
G04 #@! TF.CreationDate,2022-12-06T17:39:37+01:00*
G04 #@! TF.ProjectId,Subboards,53756262-6f61-4726-9473-2e6b69636164,rev?*
G04 #@! TF.SameCoordinates,Original*
G04 #@! TF.FileFunction,Copper,L2,Bot*
G04 #@! TF.FilePolarity,Positive*
%FSLAX46Y46*%
G04 Gerber Fmt 4.6, Leading zero omitted, Abs format (unit mm)*
G04 Created by KiCad (PCBNEW 5.1.12-84ad8e8a86~92~ubuntu16.04.1) date 2022-12-06 17:39:37*
%MOMM*%
%LPD*%
G01*
G04 APERTURE LIST*
G04 #@! TA.AperFunction,SMDPad,CuDef*
%ADD10C,0.100000*%
G04 #@! TD*
G04 #@! TA.AperFunction,ComponentPad*
%ADD11O,4.050000X1.500000*%
G04 #@! TD*
G04 #@! TA.AperFunction,ComponentPad*
%ADD12R,4.050000X1.500000*%
G04 #@! TD*
G04 #@! TA.AperFunction,ComponentPad*
%ADD13O,4.050000X1.400000*%
G04 #@! TD*
G04 #@! TA.AperFunction,ComponentPad*
%ADD14R,4.050000X1.400000*%
G04 #@! TD*
G04 #@! TA.AperFunction,ComponentPad*
%ADD15R,1.350000X1.350000*%
G04 #@! TD*
G04 #@! TA.AperFunction,ComponentPad*
%ADD16O,1.350000X1.350000*%
G04 #@! TD*
G04 #@! TA.AperFunction,SMDPad,CuDef*
%ADD17R,1.070000X4.413000*%
G04 #@! TD*
G04 #@! TA.AperFunction,ViaPad*
%ADD18C,0.800000*%
G04 #@! TD*
G04 #@! TA.AperFunction,Conductor*
%ADD19C,0.500000*%
G04 #@! TD*
G04 APERTURE END LIST*
G04 #@! TA.AperFunction,SMDPad,CuDef*
D10*
G36*
X137128398Y-71664802D02*
G01*
X136067738Y-72725462D01*
X133946418Y-70604142D01*
X135007078Y-69543482D01*
X137128398Y-71664802D01*
G37*
G04 #@! TD.AperFunction*
G04 #@! TA.AperFunction,SMDPad,CuDef*
G36*
X135714184Y-73079016D02*
G01*
X134653524Y-74139676D01*
X132532204Y-72018356D01*
X133592864Y-70957696D01*
X135714184Y-73079016D01*
G37*
G04 #@! TD.AperFunction*
G04 #@! TA.AperFunction,SMDPad,CuDef*
G36*
X134299971Y-74493229D02*
G01*
X133239311Y-75553889D01*
X131117991Y-73432569D01*
X132178651Y-72371909D01*
X134299971Y-74493229D01*
G37*
G04 #@! TD.AperFunction*
G04 #@! TA.AperFunction,SMDPad,CuDef*
G36*
X132885757Y-75907443D02*
G01*
X131825097Y-76968103D01*
X129703777Y-74846783D01*
X130764437Y-73786123D01*
X132885757Y-75907443D01*
G37*
G04 #@! TD.AperFunction*
G04 #@! TA.AperFunction,SMDPad,CuDef*
G36*
X131471543Y-77321656D02*
G01*
X130410883Y-78382316D01*
X128289563Y-76260996D01*
X129350223Y-75200336D01*
X131471543Y-77321656D01*
G37*
G04 #@! TD.AperFunction*
G04 #@! TA.AperFunction,SMDPad,CuDef*
G36*
X130057330Y-78735870D02*
G01*
X128996670Y-79796530D01*
X126875350Y-77675210D01*
X127936010Y-76614550D01*
X130057330Y-78735870D01*
G37*
G04 #@! TD.AperFunction*
D11*
X91567000Y-59639200D03*
X91567000Y-61969200D03*
X91567000Y-64309200D03*
D12*
X91567000Y-66639200D03*
D11*
X104775000Y-59639200D03*
X104775000Y-61969200D03*
X104775000Y-64309200D03*
D12*
X104775000Y-66639200D03*
D11*
X144399000Y-59639200D03*
X144399000Y-61969200D03*
X144399000Y-64309200D03*
D12*
X144399000Y-66639200D03*
D11*
X118237000Y-59639200D03*
X118237000Y-61969200D03*
X118237000Y-64309200D03*
D12*
X118237000Y-66639200D03*
D13*
X118237000Y-70689200D03*
X118237000Y-72689200D03*
X118237000Y-74689200D03*
X118237000Y-76689200D03*
D14*
X118237000Y-78689200D03*
D13*
X104775000Y-72689200D03*
X104775000Y-76689200D03*
X104775000Y-74689200D03*
D14*
X104775000Y-78689200D03*
D13*
X104775000Y-70689200D03*
D15*
X110506000Y-71163200D03*
D16*
X112506000Y-71163200D03*
X110506000Y-69163200D03*
X112506000Y-69163200D03*
X110506000Y-67163200D03*
X112506000Y-67163200D03*
X110506000Y-65163200D03*
X112506000Y-65163200D03*
X110506000Y-63163200D03*
X112506000Y-63163200D03*
X110506000Y-61163200D03*
X112506000Y-61163200D03*
D13*
X91567000Y-72689200D03*
X91567000Y-76689200D03*
X91567000Y-74689200D03*
D14*
X91567000Y-78689200D03*
D13*
X91567000Y-70689200D03*
D15*
X149479000Y-71703200D03*
D16*
X149479000Y-69703200D03*
X149479000Y-67703200D03*
X149479000Y-65703200D03*
X149479000Y-63703200D03*
D17*
X135001000Y-59559700D03*
X133477000Y-59559700D03*
X131953000Y-59559700D03*
X130429000Y-59559700D03*
X128905000Y-59559700D03*
X127381000Y-59559700D03*
D13*
X144399000Y-72689200D03*
X144399000Y-76689200D03*
X144399000Y-74689200D03*
D14*
X144399000Y-78689200D03*
D13*
X144399000Y-70689200D03*
D15*
X96647000Y-71703200D03*
D16*
X96647000Y-69703200D03*
X96647000Y-67703200D03*
X96647000Y-65703200D03*
X96647000Y-63703200D03*
D18*
X95885000Y-61925200D03*
X108585000Y-61417200D03*
X114427000Y-61417200D03*
X148717000Y-61925200D03*
D19*
X135001000Y-70598064D02*
X135537408Y-71134472D01*
X135001000Y-59258200D02*
X135001000Y-70598064D01*
X133477000Y-71902492D02*
X134123194Y-72548686D01*
X133477000Y-59258200D02*
X133477000Y-71902492D01*
X131953000Y-73206918D02*
X132708981Y-73962899D01*
X131953000Y-59258200D02*
X131953000Y-73206918D01*
X130429000Y-74511346D02*
X131294767Y-75377113D01*
X130429000Y-59258200D02*
X130429000Y-74511346D01*
X128905000Y-75815773D02*
X129880553Y-76791326D01*
X128905000Y-59258200D02*
X128905000Y-75815773D01*
X127381000Y-77120200D02*
X128466340Y-78205540D01*
X127381000Y-59258200D02*
X127381000Y-77120200D01*
X96647000Y-65703200D02*
X95521999Y-64578199D01*
X95521999Y-62288201D02*
X95885000Y-61925200D01*
X95521999Y-64578199D02*
X95521999Y-62288201D01*
X91567000Y-61969200D02*
X93262000Y-61969200D01*
X93135000Y-61969200D02*
X91567000Y-61969200D01*
X93389000Y-61969200D02*
X91567000Y-61969200D01*
X94121983Y-62702183D02*
X93389000Y-61969200D01*
X94121983Y-65158107D02*
X94121983Y-62702183D01*
X96647000Y-69703200D02*
X95521999Y-68578199D01*
X94821989Y-65858113D02*
X94121983Y-65158107D01*
X95521999Y-68578199D02*
X95521999Y-67568161D01*
X95521999Y-67568161D02*
X94821989Y-66868152D01*
X94821989Y-66868152D02*
X94821989Y-65858113D01*
X96647000Y-67703200D02*
X95521999Y-66578199D01*
X95521999Y-66578199D02*
X95521999Y-65568161D01*
X95521999Y-65568161D02*
X94821991Y-64868153D01*
X94821991Y-64868153D02*
X94821991Y-62412229D01*
X94821991Y-62412229D02*
X94042010Y-61632248D01*
X94042010Y-61632248D02*
X94042010Y-60844210D01*
X92837000Y-59639200D02*
X91567000Y-59639200D01*
X94042010Y-60844210D02*
X92837000Y-59639200D01*
X96647000Y-71703200D02*
X95521999Y-70578199D01*
X95521999Y-69568161D02*
X94821989Y-68868152D01*
X95521999Y-70578199D02*
X95521999Y-69568161D01*
X94821989Y-68868152D02*
X94821989Y-67858115D01*
X94821989Y-67858115D02*
X93969074Y-67005200D01*
X91933000Y-67005200D02*
X91567000Y-66639200D01*
X93969074Y-67005200D02*
X91933000Y-67005200D01*
X110506000Y-63163200D02*
X110331000Y-63163200D01*
X110331000Y-63163200D02*
X108585000Y-61417200D01*
X110506000Y-67163200D02*
X107315000Y-63972200D01*
X106322037Y-61969200D02*
X107315000Y-62962163D01*
X107315000Y-62962163D02*
X107315000Y-63972200D01*
X104775000Y-61969200D02*
X106322037Y-61969200D01*
X110506000Y-65163200D02*
X107315000Y-61972200D01*
X107315000Y-61972200D02*
X107315000Y-60401200D01*
X106553000Y-59639200D02*
X104775000Y-59639200D01*
X107315000Y-60401200D02*
X106553000Y-59639200D01*
X115030000Y-66639200D02*
X112506000Y-69163200D01*
X118237000Y-66639200D02*
X115030000Y-66639200D01*
X112506000Y-71163200D02*
X112506000Y-69163200D01*
X107982000Y-66639200D02*
X110506000Y-69163200D01*
X104775000Y-66639200D02*
X107982000Y-66639200D01*
X110506000Y-71163200D02*
X110506000Y-69163200D01*
X112506000Y-69163200D02*
X110506000Y-69163200D01*
X112506000Y-67163200D02*
X115697000Y-63972200D01*
X115697000Y-62962163D02*
X115697000Y-63972200D01*
X116689963Y-61969200D02*
X115697000Y-62962163D01*
X118237000Y-61969200D02*
X116689963Y-61969200D01*
X112506000Y-65163200D02*
X115697000Y-61972200D01*
X116459000Y-59639200D02*
X118237000Y-59639200D01*
X115697000Y-60401200D02*
X116459000Y-59639200D01*
X115697000Y-61972200D02*
X115697000Y-60401200D01*
X112506000Y-63163200D02*
X112681000Y-63163200D01*
X112681000Y-63163200D02*
X114427000Y-61417200D01*
X149479000Y-71703200D02*
X148353999Y-70578199D01*
X148353999Y-69568161D02*
X147653989Y-68868152D01*
X148353999Y-70578199D02*
X148353999Y-69568161D01*
X147653989Y-68868152D02*
X147653989Y-67858115D01*
X147653989Y-67858115D02*
X146801074Y-67005200D01*
X144765000Y-67005200D02*
X144399000Y-66639200D01*
X146801074Y-67005200D02*
X144765000Y-67005200D01*
X144399000Y-61969200D02*
X146094000Y-61969200D01*
X145967000Y-61969200D02*
X144399000Y-61969200D01*
X146221000Y-61969200D02*
X144399000Y-61969200D01*
X146953983Y-62702183D02*
X146221000Y-61969200D01*
X146953983Y-65158107D02*
X146953983Y-62702183D01*
X149479000Y-69703200D02*
X148353999Y-68578199D01*
X147653989Y-65858113D02*
X146953983Y-65158107D01*
X148353999Y-68578199D02*
X148353999Y-67568161D01*
X148353999Y-67568161D02*
X147653989Y-66868152D01*
X147653989Y-66868152D02*
X147653989Y-65858113D01*
X149479000Y-67703200D02*
X148353999Y-66578199D01*
X148353999Y-66578199D02*
X148353999Y-65568161D01*
X148353999Y-65568161D02*
X147653991Y-64868153D01*
X147653991Y-64868153D02*
X147653991Y-62412229D01*
X147653991Y-62412229D02*
X146874010Y-61632248D01*
X146874010Y-61632248D02*
X146874010Y-60844210D01*
X145669000Y-59639200D02*
X144399000Y-59639200D01*
X146874010Y-60844210D02*
X145669000Y-59639200D01*
X149479000Y-65703200D02*
X148353999Y-64578199D01*
X148353999Y-62288201D02*
X148717000Y-61925200D01*
X148353999Y-64578199D02*
X148353999Y-62288201D01*
M02*
