%FSLAX45Y45*%
G04 Gerber Fmt 4.5, Leading zero omitted, Abs format (unit mm)*
G04 Created by KiCad (PCBNEW 5.1.12-84ad8e8a86~92~ubuntu16.04.1) date 2022-12-06 17:39:42*
%MOMM*%
%LPD*%
G01*
G04 APERTURE LIST*
%TA.AperFunction,Profile*%
%ADD10C,0.050000*%
%TD*%
%ADD11C,0.200000*%
%ADD12C,0.300000*%
G04 APERTURE END LIST*
D10*
X8953500Y-5735320D02*
X9918700Y-5735320D01*
X10274300Y-5735320D02*
X12026900Y-5735320D01*
X12077700Y-7487920D02*
X12077700Y-7995920D01*
X8902700Y-7995920D02*
X8902700Y-5786120D01*
X9969500Y-5786120D02*
X9969500Y-6438900D01*
X9969500Y-7327900D02*
X9969500Y-7995920D01*
X10223500Y-7327900D02*
X10223500Y-7995920D01*
X10274300Y-8046720D02*
X12026900Y-8046720D01*
X10223500Y-6438900D02*
X10223500Y-5786120D01*
X12077700Y-5786120D02*
X12077700Y-6598920D01*
X12331700Y-5976620D02*
X12331700Y-6598920D01*
X8953500Y-8046720D02*
X9918700Y-8046720D01*
X14185900Y-5976620D02*
X14185900Y-5786120D01*
X14236700Y-5735320D02*
X15201900Y-5735320D01*
X15252700Y-5786120D02*
X15252700Y-7995920D01*
X14185900Y-6865620D02*
X14185900Y-7995920D01*
X15189200Y-8046720D02*
X15201900Y-8046720D01*
X15189200Y-8046720D02*
X14236700Y-8046720D01*
X8953500Y-8046720D02*
G75*
G02*
X8902700Y-7995920I0J50800D01*
G01*
X8902700Y-5786120D02*
G75*
G02*
X8953500Y-5735320I50800J0D01*
G01*
X9918700Y-5735320D02*
G75*
G02*
X9969500Y-5786120I0J-50800D01*
G01*
X9969500Y-7995920D02*
G75*
G02*
X9918700Y-8046720I-50800J0D01*
G01*
X10274300Y-8046720D02*
G75*
G02*
X10223500Y-7995920I0J50800D01*
G01*
X10223500Y-5786120D02*
G75*
G02*
X10274300Y-5735320I50800J0D01*
G01*
X12026900Y-5735320D02*
G75*
G02*
X12077700Y-5786120I0J-50800D01*
G01*
X12077700Y-7995920D02*
G75*
G02*
X12026900Y-8046720I-50800J0D01*
G01*
X14185900Y-5786120D02*
G75*
G02*
X14236700Y-5735320I50800J0D01*
G01*
X15201900Y-5735320D02*
G75*
G02*
X15252700Y-5786120I0J-50800D01*
G01*
X14236700Y-8046720D02*
G75*
G02*
X14185900Y-7995920I0J50800D01*
G01*
X15252700Y-7995920D02*
G75*
G02*
X15201900Y-8046720I-50800J0D01*
G01*
X12877800Y-8008620D02*
X13741400Y-7145020D01*
X12331700Y-7487920D02*
X12852400Y-8008620D01*
X13931900Y-6751320D02*
X13741400Y-6941820D01*
X13741400Y-7119620D02*
G75*
G02*
X13741400Y-6941820I88900J88900D01*
G01*
X12877800Y-8008620D02*
G75*
G02*
X12852400Y-8008620I-12700J12700D01*
G01*
X13741400Y-7119620D02*
G75*
G02*
X13741400Y-7145020I-12700J-12700D01*
G01*
D11*
X9568500Y-6172520D02*
X9608500Y-6212520D01*
X9608500Y-6172520D02*
X9568500Y-6212520D01*
X10838500Y-6121720D02*
X10878500Y-6161720D01*
X10878500Y-6121720D02*
X10838500Y-6161720D01*
X11422700Y-6121720D02*
X11462700Y-6161720D01*
X11462700Y-6121720D02*
X11422700Y-6161720D01*
X14851700Y-6172520D02*
X14891700Y-6212520D01*
X14891700Y-6172520D02*
X14851700Y-6212520D01*
X9704700Y-6370320D02*
G75*
G03*
X9704700Y-6370320I-40000J0D01*
G01*
X9704700Y-6570320D02*
G75*
G03*
X9704700Y-6570320I-40000J0D01*
G01*
X9704700Y-6770320D02*
G75*
G03*
X9704700Y-6770320I-40000J0D01*
G01*
X9704700Y-6970320D02*
G75*
G03*
X9704700Y-6970320I-40000J0D01*
G01*
X9704700Y-7170320D02*
G75*
G03*
X9704700Y-7170320I-40000J0D01*
G01*
X11090600Y-6116320D02*
G75*
G03*
X11090600Y-6116320I-40000J0D01*
G01*
X11090600Y-6316320D02*
G75*
G03*
X11090600Y-6316320I-40000J0D01*
G01*
X11090600Y-6516320D02*
G75*
G03*
X11090600Y-6516320I-40000J0D01*
G01*
X11090600Y-6716320D02*
G75*
G03*
X11090600Y-6716320I-40000J0D01*
G01*
X11090600Y-6916320D02*
G75*
G03*
X11090600Y-6916320I-40000J0D01*
G01*
X11090600Y-7116320D02*
G75*
G03*
X11090600Y-7116320I-40000J0D01*
G01*
X11290600Y-6116320D02*
G75*
G03*
X11290600Y-6116320I-40000J0D01*
G01*
X11290600Y-6316320D02*
G75*
G03*
X11290600Y-6316320I-40000J0D01*
G01*
X11290600Y-6516320D02*
G75*
G03*
X11290600Y-6516320I-40000J0D01*
G01*
X11290600Y-6716320D02*
G75*
G03*
X11290600Y-6716320I-40000J0D01*
G01*
X11290600Y-6916320D02*
G75*
G03*
X11290600Y-6916320I-40000J0D01*
G01*
X11290600Y-7116320D02*
G75*
G03*
X11290600Y-7116320I-40000J0D01*
G01*
X14987900Y-6370320D02*
G75*
G03*
X14987900Y-6370320I-40000J0D01*
G01*
X14987900Y-6570320D02*
G75*
G03*
X14987900Y-6570320I-40000J0D01*
G01*
X14987900Y-6770320D02*
G75*
G03*
X14987900Y-6770320I-40000J0D01*
G01*
X14987900Y-6970320D02*
G75*
G03*
X14987900Y-6970320I-40000J0D01*
G01*
X14987900Y-7170320D02*
G75*
G03*
X14987900Y-7170320I-40000J0D01*
G01*
X9156700Y-5913920D02*
X9156700Y-6013920D01*
X9106700Y-5963920D02*
X9206700Y-5963920D01*
X9156700Y-6146920D02*
X9156700Y-6246920D01*
X9106700Y-6196920D02*
X9206700Y-6196920D01*
X9156700Y-6380920D02*
X9156700Y-6480920D01*
X9106700Y-6430920D02*
X9206700Y-6430920D01*
X9156700Y-6613920D02*
X9156700Y-6713920D01*
X9106700Y-6663920D02*
X9206700Y-6663920D01*
X9156700Y-7018920D02*
X9156700Y-7118920D01*
X9106700Y-7068920D02*
X9206700Y-7068920D01*
X9156700Y-7218920D02*
X9156700Y-7318920D01*
X9106700Y-7268920D02*
X9206700Y-7268920D01*
X9156700Y-7418920D02*
X9156700Y-7518920D01*
X9106700Y-7468920D02*
X9206700Y-7468920D01*
X9156700Y-7618920D02*
X9156700Y-7718920D01*
X9106700Y-7668920D02*
X9206700Y-7668920D01*
X9156700Y-7818920D02*
X9156700Y-7918920D01*
X9106700Y-7868920D02*
X9206700Y-7868920D01*
X10477500Y-5913920D02*
X10477500Y-6013920D01*
X10427500Y-5963920D02*
X10527500Y-5963920D01*
X10477500Y-6146920D02*
X10477500Y-6246920D01*
X10427500Y-6196920D02*
X10527500Y-6196920D01*
X10477500Y-6380920D02*
X10477500Y-6480920D01*
X10427500Y-6430920D02*
X10527500Y-6430920D01*
X10477500Y-6613920D02*
X10477500Y-6713920D01*
X10427500Y-6663920D02*
X10527500Y-6663920D01*
X10477500Y-7018920D02*
X10477500Y-7118920D01*
X10427500Y-7068920D02*
X10527500Y-7068920D01*
X10477500Y-7218920D02*
X10477500Y-7318920D01*
X10427500Y-7268920D02*
X10527500Y-7268920D01*
X10477500Y-7418920D02*
X10477500Y-7518920D01*
X10427500Y-7468920D02*
X10527500Y-7468920D01*
X10477500Y-7618920D02*
X10477500Y-7718920D01*
X10427500Y-7668920D02*
X10527500Y-7668920D01*
X10477500Y-7818920D02*
X10477500Y-7918920D01*
X10427500Y-7868920D02*
X10527500Y-7868920D01*
X11823700Y-5913920D02*
X11823700Y-6013920D01*
X11773700Y-5963920D02*
X11873700Y-5963920D01*
X11823700Y-6146920D02*
X11823700Y-6246920D01*
X11773700Y-6196920D02*
X11873700Y-6196920D01*
X11823700Y-6380920D02*
X11823700Y-6480920D01*
X11773700Y-6430920D02*
X11873700Y-6430920D01*
X11823700Y-6613920D02*
X11823700Y-6713920D01*
X11773700Y-6663920D02*
X11873700Y-6663920D01*
X11823700Y-7018920D02*
X11823700Y-7118920D01*
X11773700Y-7068920D02*
X11873700Y-7068920D01*
X11823700Y-7218920D02*
X11823700Y-7318920D01*
X11773700Y-7268920D02*
X11873700Y-7268920D01*
X11823700Y-7418920D02*
X11823700Y-7518920D01*
X11773700Y-7468920D02*
X11873700Y-7468920D01*
X11823700Y-7618920D02*
X11823700Y-7718920D01*
X11773700Y-7668920D02*
X11873700Y-7668920D01*
X11823700Y-7818920D02*
X11823700Y-7918920D01*
X11773700Y-7868920D02*
X11873700Y-7868920D01*
X14439900Y-5913920D02*
X14439900Y-6013920D01*
X14389900Y-5963920D02*
X14489900Y-5963920D01*
X14439900Y-6146920D02*
X14439900Y-6246920D01*
X14389900Y-6196920D02*
X14489900Y-6196920D01*
X14439900Y-6380920D02*
X14439900Y-6480920D01*
X14389900Y-6430920D02*
X14489900Y-6430920D01*
X14439900Y-6613920D02*
X14439900Y-6713920D01*
X14389900Y-6663920D02*
X14489900Y-6663920D01*
X14439900Y-7018920D02*
X14439900Y-7118920D01*
X14389900Y-7068920D02*
X14489900Y-7068920D01*
X14439900Y-7218920D02*
X14439900Y-7318920D01*
X14389900Y-7268920D02*
X14489900Y-7268920D01*
X14439900Y-7418920D02*
X14439900Y-7518920D01*
X14389900Y-7468920D02*
X14489900Y-7468920D01*
X14439900Y-7618920D02*
X14439900Y-7718920D01*
X14389900Y-7668920D02*
X14489900Y-7668920D01*
X14439900Y-7818920D02*
X14439900Y-7918920D01*
X14389900Y-7868920D02*
X14489900Y-7868920D01*
D12*
X9186628Y-8514934D02*
X9186628Y-8214934D01*
X9258057Y-8214934D01*
X9300914Y-8229220D01*
X9329486Y-8257791D01*
X9343771Y-8286363D01*
X9358057Y-8343506D01*
X9358057Y-8386363D01*
X9343771Y-8443506D01*
X9329486Y-8472077D01*
X9300914Y-8500649D01*
X9258057Y-8514934D01*
X9186628Y-8514934D01*
X9486628Y-8514934D02*
X9486628Y-8314934D01*
X9486628Y-8372077D02*
X9500914Y-8343506D01*
X9515200Y-8329220D01*
X9543771Y-8314934D01*
X9572343Y-8314934D01*
X9672343Y-8514934D02*
X9672343Y-8314934D01*
X9672343Y-8214934D02*
X9658057Y-8229220D01*
X9672343Y-8243506D01*
X9686628Y-8229220D01*
X9672343Y-8214934D01*
X9672343Y-8243506D01*
X9858057Y-8514934D02*
X9829486Y-8500649D01*
X9815200Y-8472077D01*
X9815200Y-8214934D01*
X10015200Y-8514934D02*
X9986628Y-8500649D01*
X9972343Y-8472077D01*
X9972343Y-8214934D01*
X10358057Y-8514934D02*
X10358057Y-8214934D01*
X10458057Y-8429220D01*
X10558057Y-8214934D01*
X10558057Y-8514934D01*
X10829486Y-8514934D02*
X10829486Y-8357791D01*
X10815200Y-8329220D01*
X10786628Y-8314934D01*
X10729486Y-8314934D01*
X10700914Y-8329220D01*
X10829486Y-8500649D02*
X10800914Y-8514934D01*
X10729486Y-8514934D01*
X10700914Y-8500649D01*
X10686628Y-8472077D01*
X10686628Y-8443506D01*
X10700914Y-8414934D01*
X10729486Y-8400649D01*
X10800914Y-8400649D01*
X10829486Y-8386363D01*
X10972343Y-8314934D02*
X10972343Y-8614934D01*
X10972343Y-8329220D02*
X11000914Y-8314934D01*
X11058057Y-8314934D01*
X11086628Y-8329220D01*
X11100914Y-8343506D01*
X11115200Y-8372077D01*
X11115200Y-8457792D01*
X11100914Y-8486363D01*
X11086628Y-8500649D01*
X11058057Y-8514934D01*
X11000914Y-8514934D01*
X10972343Y-8500649D01*
X11243771Y-8486363D02*
X11258057Y-8500649D01*
X11243771Y-8514934D01*
X11229486Y-8500649D01*
X11243771Y-8486363D01*
X11243771Y-8514934D01*
X11243771Y-8329220D02*
X11258057Y-8343506D01*
X11243771Y-8357791D01*
X11229486Y-8343506D01*
X11243771Y-8329220D01*
X11243771Y-8357791D01*
X8860200Y-8989220D02*
X8900200Y-9029220D01*
X8900200Y-8989220D02*
X8860200Y-9029220D01*
X9243771Y-8844934D02*
X9272343Y-8844934D01*
X9300914Y-8859220D01*
X9315200Y-8873506D01*
X9329486Y-8902077D01*
X9343771Y-8959220D01*
X9343771Y-9030649D01*
X9329486Y-9087792D01*
X9315200Y-9116363D01*
X9300914Y-9130649D01*
X9272343Y-9144934D01*
X9243771Y-9144934D01*
X9215200Y-9130649D01*
X9200914Y-9116363D01*
X9186628Y-9087792D01*
X9172343Y-9030649D01*
X9172343Y-8959220D01*
X9186628Y-8902077D01*
X9200914Y-8873506D01*
X9215200Y-8859220D01*
X9243771Y-8844934D01*
X9472343Y-9116363D02*
X9486628Y-9130649D01*
X9472343Y-9144934D01*
X9458057Y-9130649D01*
X9472343Y-9116363D01*
X9472343Y-9144934D01*
X9743771Y-8944934D02*
X9743771Y-9144934D01*
X9672343Y-8830649D02*
X9600914Y-9044934D01*
X9786628Y-9044934D01*
X9958057Y-8844934D02*
X9986628Y-8844934D01*
X10015200Y-8859220D01*
X10029486Y-8873506D01*
X10043771Y-8902077D01*
X10058057Y-8959220D01*
X10058057Y-9030649D01*
X10043771Y-9087792D01*
X10029486Y-9116363D01*
X10015200Y-9130649D01*
X9986628Y-9144934D01*
X9958057Y-9144934D01*
X9929486Y-9130649D01*
X9915200Y-9116363D01*
X9900914Y-9087792D01*
X9886628Y-9030649D01*
X9886628Y-8959220D01*
X9900914Y-8902077D01*
X9915200Y-8873506D01*
X9929486Y-8859220D01*
X9958057Y-8844934D01*
X10243771Y-8844934D02*
X10272343Y-8844934D01*
X10300914Y-8859220D01*
X10315200Y-8873506D01*
X10329486Y-8902077D01*
X10343771Y-8959220D01*
X10343771Y-9030649D01*
X10329486Y-9087792D01*
X10315200Y-9116363D01*
X10300914Y-9130649D01*
X10272343Y-9144934D01*
X10243771Y-9144934D01*
X10215200Y-9130649D01*
X10200914Y-9116363D01*
X10186628Y-9087792D01*
X10172343Y-9030649D01*
X10172343Y-8959220D01*
X10186628Y-8902077D01*
X10200914Y-8873506D01*
X10215200Y-8859220D01*
X10243771Y-8844934D01*
X10472343Y-9144934D02*
X10472343Y-8944934D01*
X10472343Y-8973506D02*
X10486628Y-8959220D01*
X10515200Y-8944934D01*
X10558057Y-8944934D01*
X10586628Y-8959220D01*
X10600914Y-8987792D01*
X10600914Y-9144934D01*
X10600914Y-8987792D02*
X10615200Y-8959220D01*
X10643771Y-8944934D01*
X10686628Y-8944934D01*
X10715200Y-8959220D01*
X10729486Y-8987792D01*
X10729486Y-9144934D01*
X10872343Y-9144934D02*
X10872343Y-8944934D01*
X10872343Y-8973506D02*
X10886628Y-8959220D01*
X10915200Y-8944934D01*
X10958057Y-8944934D01*
X10986628Y-8959220D01*
X11000914Y-8987792D01*
X11000914Y-9144934D01*
X11000914Y-8987792D02*
X11015200Y-8959220D01*
X11043771Y-8944934D01*
X11086628Y-8944934D01*
X11115200Y-8959220D01*
X11129486Y-8987792D01*
X11129486Y-9144934D01*
X11715200Y-8830649D02*
X11458057Y-9216363D01*
X12100914Y-8844934D02*
X12129486Y-8844934D01*
X12158057Y-8859220D01*
X12172343Y-8873506D01*
X12186628Y-8902077D01*
X12200914Y-8959220D01*
X12200914Y-9030649D01*
X12186628Y-9087792D01*
X12172343Y-9116363D01*
X12158057Y-9130649D01*
X12129486Y-9144934D01*
X12100914Y-9144934D01*
X12072343Y-9130649D01*
X12058057Y-9116363D01*
X12043771Y-9087792D01*
X12029486Y-9030649D01*
X12029486Y-8959220D01*
X12043771Y-8902077D01*
X12058057Y-8873506D01*
X12072343Y-8859220D01*
X12100914Y-8844934D01*
X12329486Y-9116363D02*
X12343771Y-9130649D01*
X12329486Y-9144934D01*
X12315200Y-9130649D01*
X12329486Y-9116363D01*
X12329486Y-9144934D01*
X12529486Y-8844934D02*
X12558057Y-8844934D01*
X12586628Y-8859220D01*
X12600914Y-8873506D01*
X12615200Y-8902077D01*
X12629486Y-8959220D01*
X12629486Y-9030649D01*
X12615200Y-9087792D01*
X12600914Y-9116363D01*
X12586628Y-9130649D01*
X12558057Y-9144934D01*
X12529486Y-9144934D01*
X12500914Y-9130649D01*
X12486628Y-9116363D01*
X12472343Y-9087792D01*
X12458057Y-9030649D01*
X12458057Y-8959220D01*
X12472343Y-8902077D01*
X12486628Y-8873506D01*
X12500914Y-8859220D01*
X12529486Y-8844934D01*
X12915200Y-9144934D02*
X12743771Y-9144934D01*
X12829486Y-9144934D02*
X12829486Y-8844934D01*
X12800914Y-8887792D01*
X12772343Y-8916363D01*
X12743771Y-8930649D01*
X13186628Y-8844934D02*
X13043771Y-8844934D01*
X13029486Y-8987792D01*
X13043771Y-8973506D01*
X13072343Y-8959220D01*
X13143771Y-8959220D01*
X13172343Y-8973506D01*
X13186628Y-8987792D01*
X13200914Y-9016363D01*
X13200914Y-9087792D01*
X13186628Y-9116363D01*
X13172343Y-9130649D01*
X13143771Y-9144934D01*
X13072343Y-9144934D01*
X13043771Y-9130649D01*
X13029486Y-9116363D01*
X13300914Y-8844934D02*
X13500914Y-8844934D01*
X13372343Y-9144934D01*
X13600914Y-8844934D02*
X13600914Y-8902077D01*
X13715200Y-8844934D02*
X13715200Y-8902077D01*
X14158057Y-9259220D02*
X14143771Y-9244934D01*
X14115200Y-9202077D01*
X14100914Y-9173506D01*
X14086628Y-9130649D01*
X14072343Y-9059220D01*
X14072343Y-9002077D01*
X14086628Y-8930649D01*
X14100914Y-8887792D01*
X14115200Y-8859220D01*
X14143771Y-8816363D01*
X14158057Y-8802077D01*
X14400914Y-8944934D02*
X14400914Y-9144934D01*
X14329486Y-8830649D02*
X14258057Y-9044934D01*
X14443771Y-9044934D01*
X14786628Y-9144934D02*
X14786628Y-8844934D01*
X14915200Y-9144934D02*
X14915200Y-8987792D01*
X14900914Y-8959220D01*
X14872343Y-8944934D01*
X14829486Y-8944934D01*
X14800914Y-8959220D01*
X14786628Y-8973506D01*
X15100914Y-9144934D02*
X15072343Y-9130649D01*
X15058057Y-9116363D01*
X15043771Y-9087792D01*
X15043771Y-9002077D01*
X15058057Y-8973506D01*
X15072343Y-8959220D01*
X15100914Y-8944934D01*
X15143771Y-8944934D01*
X15172343Y-8959220D01*
X15186628Y-8973506D01*
X15200914Y-9002077D01*
X15200914Y-9087792D01*
X15186628Y-9116363D01*
X15172343Y-9130649D01*
X15143771Y-9144934D01*
X15100914Y-9144934D01*
X15372343Y-9144934D02*
X15343771Y-9130649D01*
X15329486Y-9102077D01*
X15329486Y-8844934D01*
X15600914Y-9130649D02*
X15572343Y-9144934D01*
X15515200Y-9144934D01*
X15486628Y-9130649D01*
X15472343Y-9102077D01*
X15472343Y-8987792D01*
X15486628Y-8959220D01*
X15515200Y-8944934D01*
X15572343Y-8944934D01*
X15600914Y-8959220D01*
X15615200Y-8987792D01*
X15615200Y-9016363D01*
X15472343Y-9044934D01*
X15729486Y-9130649D02*
X15758057Y-9144934D01*
X15815200Y-9144934D01*
X15843771Y-9130649D01*
X15858057Y-9102077D01*
X15858057Y-9087792D01*
X15843771Y-9059220D01*
X15815200Y-9044934D01*
X15772343Y-9044934D01*
X15743771Y-9030649D01*
X15729486Y-9002077D01*
X15729486Y-8987792D01*
X15743771Y-8959220D01*
X15772343Y-8944934D01*
X15815200Y-8944934D01*
X15843771Y-8959220D01*
X15958057Y-9259220D02*
X15972343Y-9244934D01*
X16000914Y-9202077D01*
X16015200Y-9173506D01*
X16029486Y-9130649D01*
X16043771Y-9059220D01*
X16043771Y-9002077D01*
X16029486Y-8930649D01*
X16015200Y-8887792D01*
X16000914Y-8859220D01*
X15972343Y-8816363D01*
X15958057Y-8802077D01*
X8900200Y-9405220D02*
G75*
G03*
X8900200Y-9405220I-40000J0D01*
G01*
X9243771Y-9240934D02*
X9272343Y-9240934D01*
X9300914Y-9255220D01*
X9315200Y-9269506D01*
X9329486Y-9298077D01*
X9343771Y-9355220D01*
X9343771Y-9426649D01*
X9329486Y-9483792D01*
X9315200Y-9512363D01*
X9300914Y-9526649D01*
X9272343Y-9540934D01*
X9243771Y-9540934D01*
X9215200Y-9526649D01*
X9200914Y-9512363D01*
X9186628Y-9483792D01*
X9172343Y-9426649D01*
X9172343Y-9355220D01*
X9186628Y-9298077D01*
X9200914Y-9269506D01*
X9215200Y-9255220D01*
X9243771Y-9240934D01*
X9472343Y-9512363D02*
X9486628Y-9526649D01*
X9472343Y-9540934D01*
X9458057Y-9526649D01*
X9472343Y-9512363D01*
X9472343Y-9540934D01*
X9658057Y-9369506D02*
X9629486Y-9355220D01*
X9615200Y-9340934D01*
X9600914Y-9312363D01*
X9600914Y-9298077D01*
X9615200Y-9269506D01*
X9629486Y-9255220D01*
X9658057Y-9240934D01*
X9715200Y-9240934D01*
X9743771Y-9255220D01*
X9758057Y-9269506D01*
X9772343Y-9298077D01*
X9772343Y-9312363D01*
X9758057Y-9340934D01*
X9743771Y-9355220D01*
X9715200Y-9369506D01*
X9658057Y-9369506D01*
X9629486Y-9383792D01*
X9615200Y-9398077D01*
X9600914Y-9426649D01*
X9600914Y-9483792D01*
X9615200Y-9512363D01*
X9629486Y-9526649D01*
X9658057Y-9540934D01*
X9715200Y-9540934D01*
X9743771Y-9526649D01*
X9758057Y-9512363D01*
X9772343Y-9483792D01*
X9772343Y-9426649D01*
X9758057Y-9398077D01*
X9743771Y-9383792D01*
X9715200Y-9369506D01*
X9958057Y-9240934D02*
X9986628Y-9240934D01*
X10015200Y-9255220D01*
X10029486Y-9269506D01*
X10043771Y-9298077D01*
X10058057Y-9355220D01*
X10058057Y-9426649D01*
X10043771Y-9483792D01*
X10029486Y-9512363D01*
X10015200Y-9526649D01*
X9986628Y-9540934D01*
X9958057Y-9540934D01*
X9929486Y-9526649D01*
X9915200Y-9512363D01*
X9900914Y-9483792D01*
X9886628Y-9426649D01*
X9886628Y-9355220D01*
X9900914Y-9298077D01*
X9915200Y-9269506D01*
X9929486Y-9255220D01*
X9958057Y-9240934D01*
X10243771Y-9240934D02*
X10272343Y-9240934D01*
X10300914Y-9255220D01*
X10315200Y-9269506D01*
X10329486Y-9298077D01*
X10343771Y-9355220D01*
X10343771Y-9426649D01*
X10329486Y-9483792D01*
X10315200Y-9512363D01*
X10300914Y-9526649D01*
X10272343Y-9540934D01*
X10243771Y-9540934D01*
X10215200Y-9526649D01*
X10200914Y-9512363D01*
X10186628Y-9483792D01*
X10172343Y-9426649D01*
X10172343Y-9355220D01*
X10186628Y-9298077D01*
X10200914Y-9269506D01*
X10215200Y-9255220D01*
X10243771Y-9240934D01*
X10472343Y-9540934D02*
X10472343Y-9340934D01*
X10472343Y-9369506D02*
X10486628Y-9355220D01*
X10515200Y-9340934D01*
X10558057Y-9340934D01*
X10586628Y-9355220D01*
X10600914Y-9383792D01*
X10600914Y-9540934D01*
X10600914Y-9383792D02*
X10615200Y-9355220D01*
X10643771Y-9340934D01*
X10686628Y-9340934D01*
X10715200Y-9355220D01*
X10729486Y-9383792D01*
X10729486Y-9540934D01*
X10872343Y-9540934D02*
X10872343Y-9340934D01*
X10872343Y-9369506D02*
X10886628Y-9355220D01*
X10915200Y-9340934D01*
X10958057Y-9340934D01*
X10986628Y-9355220D01*
X11000914Y-9383792D01*
X11000914Y-9540934D01*
X11000914Y-9383792D02*
X11015200Y-9355220D01*
X11043771Y-9340934D01*
X11086628Y-9340934D01*
X11115200Y-9355220D01*
X11129486Y-9383792D01*
X11129486Y-9540934D01*
X11715200Y-9226649D02*
X11458057Y-9612363D01*
X12100914Y-9240934D02*
X12129486Y-9240934D01*
X12158057Y-9255220D01*
X12172343Y-9269506D01*
X12186628Y-9298077D01*
X12200914Y-9355220D01*
X12200914Y-9426649D01*
X12186628Y-9483792D01*
X12172343Y-9512363D01*
X12158057Y-9526649D01*
X12129486Y-9540934D01*
X12100914Y-9540934D01*
X12072343Y-9526649D01*
X12058057Y-9512363D01*
X12043771Y-9483792D01*
X12029486Y-9426649D01*
X12029486Y-9355220D01*
X12043771Y-9298077D01*
X12058057Y-9269506D01*
X12072343Y-9255220D01*
X12100914Y-9240934D01*
X12329486Y-9512363D02*
X12343771Y-9526649D01*
X12329486Y-9540934D01*
X12315200Y-9526649D01*
X12329486Y-9512363D01*
X12329486Y-9540934D01*
X12529486Y-9240934D02*
X12558057Y-9240934D01*
X12586628Y-9255220D01*
X12600914Y-9269506D01*
X12615200Y-9298077D01*
X12629486Y-9355220D01*
X12629486Y-9426649D01*
X12615200Y-9483792D01*
X12600914Y-9512363D01*
X12586628Y-9526649D01*
X12558057Y-9540934D01*
X12529486Y-9540934D01*
X12500914Y-9526649D01*
X12486628Y-9512363D01*
X12472343Y-9483792D01*
X12458057Y-9426649D01*
X12458057Y-9355220D01*
X12472343Y-9298077D01*
X12486628Y-9269506D01*
X12500914Y-9255220D01*
X12529486Y-9240934D01*
X12729486Y-9240934D02*
X12915200Y-9240934D01*
X12815200Y-9355220D01*
X12858057Y-9355220D01*
X12886628Y-9369506D01*
X12900914Y-9383792D01*
X12915200Y-9412363D01*
X12915200Y-9483792D01*
X12900914Y-9512363D01*
X12886628Y-9526649D01*
X12858057Y-9540934D01*
X12772343Y-9540934D01*
X12743771Y-9526649D01*
X12729486Y-9512363D01*
X13200914Y-9540934D02*
X13029486Y-9540934D01*
X13115200Y-9540934D02*
X13115200Y-9240934D01*
X13086628Y-9283792D01*
X13058057Y-9312363D01*
X13029486Y-9326649D01*
X13472343Y-9240934D02*
X13329486Y-9240934D01*
X13315200Y-9383792D01*
X13329486Y-9369506D01*
X13358057Y-9355220D01*
X13429486Y-9355220D01*
X13458057Y-9369506D01*
X13472343Y-9383792D01*
X13486628Y-9412363D01*
X13486628Y-9483792D01*
X13472343Y-9512363D01*
X13458057Y-9526649D01*
X13429486Y-9540934D01*
X13358057Y-9540934D01*
X13329486Y-9526649D01*
X13315200Y-9512363D01*
X13600914Y-9240934D02*
X13600914Y-9298077D01*
X13715200Y-9240934D02*
X13715200Y-9298077D01*
X14158057Y-9655220D02*
X14143771Y-9640934D01*
X14115200Y-9598077D01*
X14100914Y-9569506D01*
X14086628Y-9526649D01*
X14072343Y-9455220D01*
X14072343Y-9398077D01*
X14086628Y-9326649D01*
X14100914Y-9283792D01*
X14115200Y-9255220D01*
X14143771Y-9212363D01*
X14158057Y-9198077D01*
X14258057Y-9269506D02*
X14272343Y-9255220D01*
X14300914Y-9240934D01*
X14372343Y-9240934D01*
X14400914Y-9255220D01*
X14415200Y-9269506D01*
X14429486Y-9298077D01*
X14429486Y-9326649D01*
X14415200Y-9369506D01*
X14243771Y-9540934D01*
X14429486Y-9540934D01*
X14543771Y-9269506D02*
X14558057Y-9255220D01*
X14586628Y-9240934D01*
X14658057Y-9240934D01*
X14686628Y-9255220D01*
X14700914Y-9269506D01*
X14715200Y-9298077D01*
X14715200Y-9326649D01*
X14700914Y-9369506D01*
X14529486Y-9540934D01*
X14715200Y-9540934D01*
X15072343Y-9540934D02*
X15072343Y-9240934D01*
X15200914Y-9540934D02*
X15200914Y-9383792D01*
X15186628Y-9355220D01*
X15158057Y-9340934D01*
X15115200Y-9340934D01*
X15086628Y-9355220D01*
X15072343Y-9369506D01*
X15386628Y-9540934D02*
X15358057Y-9526649D01*
X15343771Y-9512363D01*
X15329486Y-9483792D01*
X15329486Y-9398077D01*
X15343771Y-9369506D01*
X15358057Y-9355220D01*
X15386628Y-9340934D01*
X15429486Y-9340934D01*
X15458057Y-9355220D01*
X15472343Y-9369506D01*
X15486628Y-9398077D01*
X15486628Y-9483792D01*
X15472343Y-9512363D01*
X15458057Y-9526649D01*
X15429486Y-9540934D01*
X15386628Y-9540934D01*
X15658057Y-9540934D02*
X15629486Y-9526649D01*
X15615200Y-9498077D01*
X15615200Y-9240934D01*
X15886628Y-9526649D02*
X15858057Y-9540934D01*
X15800914Y-9540934D01*
X15772343Y-9526649D01*
X15758057Y-9498077D01*
X15758057Y-9383792D01*
X15772343Y-9355220D01*
X15800914Y-9340934D01*
X15858057Y-9340934D01*
X15886628Y-9355220D01*
X15900914Y-9383792D01*
X15900914Y-9412363D01*
X15758057Y-9440934D01*
X16015200Y-9526649D02*
X16043771Y-9540934D01*
X16100914Y-9540934D01*
X16129486Y-9526649D01*
X16143771Y-9498077D01*
X16143771Y-9483792D01*
X16129486Y-9455220D01*
X16100914Y-9440934D01*
X16058057Y-9440934D01*
X16029486Y-9426649D01*
X16015200Y-9398077D01*
X16015200Y-9383792D01*
X16029486Y-9355220D01*
X16058057Y-9340934D01*
X16100914Y-9340934D01*
X16129486Y-9355220D01*
X16243771Y-9655220D02*
X16258057Y-9640934D01*
X16286628Y-9598077D01*
X16300914Y-9569506D01*
X16315200Y-9526649D01*
X16329486Y-9455220D01*
X16329486Y-9398077D01*
X16315200Y-9326649D01*
X16300914Y-9283792D01*
X16286628Y-9255220D01*
X16258057Y-9212363D01*
X16243771Y-9198077D01*
X8850200Y-9751220D02*
X8850200Y-9851220D01*
X8800200Y-9801220D02*
X8900200Y-9801220D01*
X9343771Y-9936934D02*
X9172343Y-9936934D01*
X9258057Y-9936934D02*
X9258057Y-9636934D01*
X9229486Y-9679792D01*
X9200914Y-9708363D01*
X9172343Y-9722649D01*
X9472343Y-9908363D02*
X9486628Y-9922649D01*
X9472343Y-9936934D01*
X9458057Y-9922649D01*
X9472343Y-9908363D01*
X9472343Y-9936934D01*
X9672343Y-9636934D02*
X9700914Y-9636934D01*
X9729486Y-9651220D01*
X9743771Y-9665506D01*
X9758057Y-9694077D01*
X9772343Y-9751220D01*
X9772343Y-9822649D01*
X9758057Y-9879792D01*
X9743771Y-9908363D01*
X9729486Y-9922649D01*
X9700914Y-9936934D01*
X9672343Y-9936934D01*
X9643771Y-9922649D01*
X9629486Y-9908363D01*
X9615200Y-9879792D01*
X9600914Y-9822649D01*
X9600914Y-9751220D01*
X9615200Y-9694077D01*
X9629486Y-9665506D01*
X9643771Y-9651220D01*
X9672343Y-9636934D01*
X9958057Y-9636934D02*
X9986628Y-9636934D01*
X10015200Y-9651220D01*
X10029486Y-9665506D01*
X10043771Y-9694077D01*
X10058057Y-9751220D01*
X10058057Y-9822649D01*
X10043771Y-9879792D01*
X10029486Y-9908363D01*
X10015200Y-9922649D01*
X9986628Y-9936934D01*
X9958057Y-9936934D01*
X9929486Y-9922649D01*
X9915200Y-9908363D01*
X9900914Y-9879792D01*
X9886628Y-9822649D01*
X9886628Y-9751220D01*
X9900914Y-9694077D01*
X9915200Y-9665506D01*
X9929486Y-9651220D01*
X9958057Y-9636934D01*
X10243771Y-9636934D02*
X10272343Y-9636934D01*
X10300914Y-9651220D01*
X10315200Y-9665506D01*
X10329486Y-9694077D01*
X10343771Y-9751220D01*
X10343771Y-9822649D01*
X10329486Y-9879792D01*
X10315200Y-9908363D01*
X10300914Y-9922649D01*
X10272343Y-9936934D01*
X10243771Y-9936934D01*
X10215200Y-9922649D01*
X10200914Y-9908363D01*
X10186628Y-9879792D01*
X10172343Y-9822649D01*
X10172343Y-9751220D01*
X10186628Y-9694077D01*
X10200914Y-9665506D01*
X10215200Y-9651220D01*
X10243771Y-9636934D01*
X10472343Y-9936934D02*
X10472343Y-9736934D01*
X10472343Y-9765506D02*
X10486628Y-9751220D01*
X10515200Y-9736934D01*
X10558057Y-9736934D01*
X10586628Y-9751220D01*
X10600914Y-9779792D01*
X10600914Y-9936934D01*
X10600914Y-9779792D02*
X10615200Y-9751220D01*
X10643771Y-9736934D01*
X10686628Y-9736934D01*
X10715200Y-9751220D01*
X10729486Y-9779792D01*
X10729486Y-9936934D01*
X10872343Y-9936934D02*
X10872343Y-9736934D01*
X10872343Y-9765506D02*
X10886628Y-9751220D01*
X10915200Y-9736934D01*
X10958057Y-9736934D01*
X10986628Y-9751220D01*
X11000914Y-9779792D01*
X11000914Y-9936934D01*
X11000914Y-9779792D02*
X11015200Y-9751220D01*
X11043771Y-9736934D01*
X11086628Y-9736934D01*
X11115200Y-9751220D01*
X11129486Y-9779792D01*
X11129486Y-9936934D01*
X11715200Y-9622649D02*
X11458057Y-10008363D01*
X12100914Y-9636934D02*
X12129486Y-9636934D01*
X12158057Y-9651220D01*
X12172343Y-9665506D01*
X12186628Y-9694077D01*
X12200914Y-9751220D01*
X12200914Y-9822649D01*
X12186628Y-9879792D01*
X12172343Y-9908363D01*
X12158057Y-9922649D01*
X12129486Y-9936934D01*
X12100914Y-9936934D01*
X12072343Y-9922649D01*
X12058057Y-9908363D01*
X12043771Y-9879792D01*
X12029486Y-9822649D01*
X12029486Y-9751220D01*
X12043771Y-9694077D01*
X12058057Y-9665506D01*
X12072343Y-9651220D01*
X12100914Y-9636934D01*
X12329486Y-9908363D02*
X12343771Y-9922649D01*
X12329486Y-9936934D01*
X12315200Y-9922649D01*
X12329486Y-9908363D01*
X12329486Y-9936934D01*
X12529486Y-9636934D02*
X12558057Y-9636934D01*
X12586628Y-9651220D01*
X12600914Y-9665506D01*
X12615200Y-9694077D01*
X12629486Y-9751220D01*
X12629486Y-9822649D01*
X12615200Y-9879792D01*
X12600914Y-9908363D01*
X12586628Y-9922649D01*
X12558057Y-9936934D01*
X12529486Y-9936934D01*
X12500914Y-9922649D01*
X12486628Y-9908363D01*
X12472343Y-9879792D01*
X12458057Y-9822649D01*
X12458057Y-9751220D01*
X12472343Y-9694077D01*
X12486628Y-9665506D01*
X12500914Y-9651220D01*
X12529486Y-9636934D01*
X12729486Y-9636934D02*
X12915200Y-9636934D01*
X12815200Y-9751220D01*
X12858057Y-9751220D01*
X12886628Y-9765506D01*
X12900914Y-9779792D01*
X12915200Y-9808363D01*
X12915200Y-9879792D01*
X12900914Y-9908363D01*
X12886628Y-9922649D01*
X12858057Y-9936934D01*
X12772343Y-9936934D01*
X12743771Y-9922649D01*
X12729486Y-9908363D01*
X13058057Y-9936934D02*
X13115200Y-9936934D01*
X13143771Y-9922649D01*
X13158057Y-9908363D01*
X13186628Y-9865506D01*
X13200914Y-9808363D01*
X13200914Y-9694077D01*
X13186628Y-9665506D01*
X13172343Y-9651220D01*
X13143771Y-9636934D01*
X13086628Y-9636934D01*
X13058057Y-9651220D01*
X13043771Y-9665506D01*
X13029486Y-9694077D01*
X13029486Y-9765506D01*
X13043771Y-9794077D01*
X13058057Y-9808363D01*
X13086628Y-9822649D01*
X13143771Y-9822649D01*
X13172343Y-9808363D01*
X13186628Y-9794077D01*
X13200914Y-9765506D01*
X13458057Y-9736934D02*
X13458057Y-9936934D01*
X13386628Y-9622649D02*
X13315200Y-9836934D01*
X13500914Y-9836934D01*
X13600914Y-9636934D02*
X13600914Y-9694077D01*
X13715200Y-9636934D02*
X13715200Y-9694077D01*
X14158057Y-10051220D02*
X14143771Y-10036934D01*
X14115200Y-9994077D01*
X14100914Y-9965506D01*
X14086628Y-9922649D01*
X14072343Y-9851220D01*
X14072343Y-9794077D01*
X14086628Y-9722649D01*
X14100914Y-9679792D01*
X14115200Y-9651220D01*
X14143771Y-9608363D01*
X14158057Y-9594077D01*
X14243771Y-9636934D02*
X14429486Y-9636934D01*
X14329486Y-9751220D01*
X14372343Y-9751220D01*
X14400914Y-9765506D01*
X14415200Y-9779792D01*
X14429486Y-9808363D01*
X14429486Y-9879792D01*
X14415200Y-9908363D01*
X14400914Y-9922649D01*
X14372343Y-9936934D01*
X14286628Y-9936934D01*
X14258057Y-9922649D01*
X14243771Y-9908363D01*
X14686628Y-9636934D02*
X14629486Y-9636934D01*
X14600914Y-9651220D01*
X14586628Y-9665506D01*
X14558057Y-9708363D01*
X14543771Y-9765506D01*
X14543771Y-9879792D01*
X14558057Y-9908363D01*
X14572343Y-9922649D01*
X14600914Y-9936934D01*
X14658057Y-9936934D01*
X14686628Y-9922649D01*
X14700914Y-9908363D01*
X14715200Y-9879792D01*
X14715200Y-9808363D01*
X14700914Y-9779792D01*
X14686628Y-9765506D01*
X14658057Y-9751220D01*
X14600914Y-9751220D01*
X14572343Y-9765506D01*
X14558057Y-9779792D01*
X14543771Y-9808363D01*
X15072343Y-9936934D02*
X15072343Y-9636934D01*
X15200914Y-9936934D02*
X15200914Y-9779792D01*
X15186628Y-9751220D01*
X15158057Y-9736934D01*
X15115200Y-9736934D01*
X15086628Y-9751220D01*
X15072343Y-9765506D01*
X15386628Y-9936934D02*
X15358057Y-9922649D01*
X15343771Y-9908363D01*
X15329486Y-9879792D01*
X15329486Y-9794077D01*
X15343771Y-9765506D01*
X15358057Y-9751220D01*
X15386628Y-9736934D01*
X15429486Y-9736934D01*
X15458057Y-9751220D01*
X15472343Y-9765506D01*
X15486628Y-9794077D01*
X15486628Y-9879792D01*
X15472343Y-9908363D01*
X15458057Y-9922649D01*
X15429486Y-9936934D01*
X15386628Y-9936934D01*
X15658057Y-9936934D02*
X15629486Y-9922649D01*
X15615200Y-9894077D01*
X15615200Y-9636934D01*
X15886628Y-9922649D02*
X15858057Y-9936934D01*
X15800914Y-9936934D01*
X15772343Y-9922649D01*
X15758057Y-9894077D01*
X15758057Y-9779792D01*
X15772343Y-9751220D01*
X15800914Y-9736934D01*
X15858057Y-9736934D01*
X15886628Y-9751220D01*
X15900914Y-9779792D01*
X15900914Y-9808363D01*
X15758057Y-9836934D01*
X16015200Y-9922649D02*
X16043771Y-9936934D01*
X16100914Y-9936934D01*
X16129486Y-9922649D01*
X16143771Y-9894077D01*
X16143771Y-9879792D01*
X16129486Y-9851220D01*
X16100914Y-9836934D01*
X16058057Y-9836934D01*
X16029486Y-9822649D01*
X16015200Y-9794077D01*
X16015200Y-9779792D01*
X16029486Y-9751220D01*
X16058057Y-9736934D01*
X16100914Y-9736934D01*
X16129486Y-9751220D01*
X16243771Y-10051220D02*
X16258057Y-10036934D01*
X16286628Y-9994077D01*
X16300914Y-9965506D01*
X16315200Y-9922649D01*
X16329486Y-9851220D01*
X16329486Y-9794077D01*
X16315200Y-9722649D01*
X16300914Y-9679792D01*
X16286628Y-9651220D01*
X16258057Y-9608363D01*
X16243771Y-9594077D01*
M02*
