M48
; DRILL file {KiCad 5.1.12-84ad8e8a86~92~ubuntu16.04.1} date do 17 nov 2022 23:35:09 CET
; FORMAT={-:-/ absolute / metric / decimal}
; #@! TF.CreationDate,2022-11-17T23:35:09+01:00
; #@! TF.GenerationSoftware,Kicad,Pcbnew,5.1.12-84ad8e8a86~92~ubuntu16.04.1
; #@! TF.FileFunction,Plated,1,2,PTH
FMAT,2
METRIC
T1C0.400
T2C0.500
T3C0.700
T4C0.800
T5C0.900
T6C1.000
T7C1.100
T8C1.300
T9C1.500
T10C1.600
%
G90
G05
T1
X128.524Y-54.864
X128.524Y-67.373
X128.524Y-79.692
X128.524Y-89.662
X128.524Y-100.33
X128.524Y-102.362
X128.524Y-111.633
X128.524Y-125.476
X128.888Y-77.805
X130.683Y-65.215
X130.81Y-106.934
X131.318Y-76.136
X131.826Y-70.358
X131.92Y-80.459
X132.143Y-68.326
X132.398Y-72.263
X132.614Y-79.739
X133.731Y-74.295
X133.731Y-116.738
X133.77Y-80.688
X133.794Y-77.406
X133.858Y-106.934
X134.01Y-63.119
X134.429Y-65.532
X134.62Y-61.658
X135.763Y-70.126
X136.081Y-75.692
X136.108Y-72.34
X136.398Y-61.976
X137.363Y-109.093
X137.541Y-65.913
X137.922Y-68.58
X138.86Y-73.838
X138.913Y-75.238
X138.938Y-125.476
X139.065Y-63.691
X139.192Y-54.864
X139.269Y-69.537
X139.592Y-101.092
X139.7Y-107.315
X139.827Y-113.411
X140.089Y-64.389
X140.282Y-74.44
X140.335Y-78.867
X140.686Y-70.101
X140.716Y-117.348
X140.779Y-83.629
X140.779Y-87.312
X140.779Y-90.995
X140.779Y-94.678
X142.011Y-69.54
X142.082Y-74.527
X142.621Y-59.182
X142.875Y-61.849
X143.065Y-109.093
X143.585Y-71.633
X143.621Y-73.945
X144.003Y-74.869
X144.022Y-73.029
X144.325Y-66.707
X144.526Y-69.596
X144.584Y-71.666
X144.907Y-62.23
X145.102Y-79.033
X145.415Y-68.58
X147.037Y-68.199
X147.574Y-77.074
X148.236Y-100.261
X148.336Y-107.442
X148.59Y-115.316
X148.59Y-116.84
X148.844Y-72.847
X149.225Y-125.476
X149.606Y-54.864
X150.325Y-68.516
X150.774Y-104.191
X151.13Y-69.686
X151.257Y-125.476
X151.575Y-81.724
X151.575Y-85.407
X151.575Y-89.09
X151.575Y-92.773
X151.892Y-66.675
X152.654Y-77.074
X152.654Y-119.507
X153.543Y-113.665
X153.67Y-99.06
X154.178Y-100.457
X154.432Y-63.627
X154.749Y-108.331
X156.464Y-68.58
X156.464Y-72.39
X157.607Y-62.611
X157.607Y-64.011
X157.607Y-66.811
X157.607Y-68.211
X157.628Y-65.411
X157.988Y-103.632
X158.242Y-111.887
X158.877Y-54.864
X159.007Y-73.974
X159.321Y-77.597
X161.036Y-79.756
X161.607Y-75.438
X161.798Y-107.188
X162.306Y-98.044
X162.56Y-125.476
X164.084Y-77.978
X164.338Y-119.126
X165.1Y-81.153
X165.227Y-103.759
X165.227Y-106.68
X165.544Y-78.295
X165.925Y-83.629
X165.925Y-87.312
X165.925Y-90.995
X165.925Y-94.678
X166.37Y-116.586
X166.37Y-121.793
X167.386Y-99.568
X168.402Y-119.126
X169.418Y-54.864
X169.672Y-101.092
X169.875Y-104.191
X169.926Y-120.396
X170.307Y-75.692
X171.177Y-80.347
X172.466Y-125.476
X172.593Y-105.156
X173.482Y-78.295
X173.609Y-76.445
X174.655Y-77.37
X175.235Y-73.762
X175.408Y-102.891
X176.53Y-69.088
X176.72Y-81.724
X176.72Y-85.407
X176.72Y-89.09
X176.72Y-91.567
X176.733Y-73.711
X178.308Y-95.758
X178.943Y-64.262
X179.07Y-77.978
X179.095Y-76.098
X180.086Y-98.298
X180.086Y-115.062
X180.213Y-107.188
X180.34Y-54.864
X181.673Y-76.24
X181.737Y-125.476
X182.118Y-113.284
X183.769Y-105.791
X183.78Y-80.09
X185.191Y-76.327
X186.591Y-76.073
X186.944Y-63.24
X187.96Y-62.433
X188.504Y-67.696
X188.976Y-54.864
X188.976Y-81.407
X188.976Y-94.742
X188.976Y-109.601
X188.976Y-125.476
X189.421Y-69.151
T2
X157.226Y-83.312
X157.226Y-84.836
X157.226Y-86.36
X157.226Y-87.884
X157.226Y-89.408
X157.226Y-90.932
X160.274Y-83.312
X160.274Y-84.836
X160.274Y-86.36
X160.274Y-87.884
X160.274Y-89.408
X160.274Y-90.932
X177.932Y-62.103
X179.832Y-62.103
T3
X129.921Y-69.151
X129.921Y-70.421
X129.921Y-71.691
X129.921Y-72.962
X129.921Y-74.231
X129.921Y-75.501
T4
X142.694Y-65.786
X147.574Y-65.786
X163.83Y-63.119
X163.83Y-70.739
X166.37Y-63.119
X166.37Y-70.739
X168.91Y-63.119
X168.91Y-70.739
X171.45Y-63.119
X171.45Y-70.739
X173.99Y-63.119
X173.99Y-70.739
T5
X140.97Y-57.15
X140.97Y-59.69
X161.29Y-57.15
X161.29Y-59.69
X166.37Y-57.15
X166.37Y-59.69
X171.45Y-57.15
X171.45Y-59.69
X176.53Y-57.15
X176.53Y-59.69
T6
X134.62Y-82.55
X134.62Y-85.09
X134.62Y-87.63
X134.62Y-90.17
X134.62Y-92.71
X135.128Y-102.616
X137.668Y-102.616
X140.208Y-102.616
X142.748Y-102.616
X146.05Y-86.948
X146.05Y-91.948
X171.45Y-86.948
X171.45Y-91.948
X182.88Y-82.55
X182.88Y-85.09
X182.88Y-87.63
X182.88Y-90.17
X182.88Y-92.71
T7
X147.88Y-56.17
X147.88Y-60.67
X154.38Y-56.17
X154.38Y-60.67
T8
X140.32Y-121.92
X143.82Y-121.92
X147.32Y-121.92
X155.25Y-121.92
X158.75Y-121.92
T9
X163.576Y-100.33
X186.176Y-100.33
T10
X172.212Y-121.92
X177.292Y-121.92
T0
M30
