G04 #@! TF.GenerationSoftware,KiCad,Pcbnew,5.1.12-84ad8e8a86~92~ubuntu16.04.1*
G04 #@! TF.CreationDate,2022-11-17T23:34:12+01:00*
G04 #@! TF.ProjectId,Mainboard,4d61696e-626f-4617-9264-2e6b69636164,rev?*
G04 #@! TF.SameCoordinates,Original*
G04 #@! TF.FileFunction,Soldermask,Top*
G04 #@! TF.FilePolarity,Negative*
%FSLAX46Y46*%
G04 Gerber Fmt 4.6, Leading zero omitted, Abs format (unit mm)*
G04 Created by KiCad (PCBNEW 5.1.12-84ad8e8a86~92~ubuntu16.04.1) date 2022-11-17 23:34:12*
%MOMM*%
%LPD*%
G01*
G04 APERTURE LIST*
%ADD10R,1.000000X1.000000*%
%ADD11O,1.000000X1.000000*%
%ADD12R,2.032000X1.070000*%
%ADD13C,3.000000*%
%ADD14C,4.300000*%
%ADD15C,2.800000*%
%ADD16C,2.000000*%
%ADD17R,1.800000X1.800000*%
%ADD18C,1.800000*%
%ADD19R,5.100000X2.500000*%
%ADD20C,10.200000*%
%ADD21C,1.000000*%
%ADD22R,2.000000X2.000000*%
%ADD23R,1.700000X1.700000*%
%ADD24O,1.700000X1.700000*%
%ADD25R,1.500000X1.500000*%
%ADD26C,1.500000*%
%ADD27R,1.600000X1.600000*%
%ADD28O,1.600000X1.600000*%
G04 APERTURE END LIST*
D10*
X129921000Y-75501500D03*
D11*
X129921000Y-74231500D03*
X129921000Y-72961500D03*
X129921000Y-71691500D03*
X129921000Y-70421500D03*
X129921000Y-69151500D03*
D12*
X160274000Y-90932000D03*
X157226000Y-90932000D03*
X160274000Y-89408000D03*
X157226000Y-89408000D03*
X160274000Y-87884000D03*
X157226000Y-87884000D03*
X160274000Y-86360000D03*
X157226000Y-86360000D03*
X160274000Y-84836000D03*
X157226000Y-84836000D03*
X160274000Y-83312000D03*
X157226000Y-83312000D03*
D13*
X163576000Y-100330000D03*
X186176000Y-100330000D03*
D14*
X185420000Y-58420000D03*
D15*
X140320000Y-121920000D03*
X143820000Y-121920000D03*
X147320000Y-121920000D03*
D16*
X135128000Y-102616000D03*
X137668000Y-102616000D03*
X140208000Y-102616000D03*
X142748000Y-102616000D03*
D15*
X155250000Y-121920000D03*
X158750000Y-121920000D03*
D13*
X172212000Y-121920000D03*
X177292000Y-121920000D03*
D17*
X140970000Y-57150000D03*
D18*
X140970000Y-59690000D03*
D19*
X183620000Y-78240000D03*
X183620000Y-63040000D03*
D20*
X183620000Y-70640000D03*
D21*
X179832000Y-62103000D03*
X177932000Y-62103000D03*
D17*
X176530000Y-57150000D03*
D18*
X176530000Y-59690000D03*
D22*
X146050000Y-91948000D03*
D16*
X146050000Y-86948000D03*
D22*
X171450000Y-91948000D03*
D16*
X171450000Y-86948000D03*
D14*
X132080000Y-58420000D03*
D23*
X182880000Y-82550000D03*
D24*
X182880000Y-85090000D03*
X182880000Y-87630000D03*
X182880000Y-90170000D03*
X182880000Y-92710000D03*
D23*
X134620000Y-92710000D03*
D24*
X134620000Y-90170000D03*
X134620000Y-87630000D03*
X134620000Y-85090000D03*
X134620000Y-82550000D03*
D25*
X149225000Y-77433000D03*
X149225000Y-69633000D03*
D26*
X147574000Y-65786000D03*
X142694000Y-65786000D03*
D27*
X163830000Y-70739000D03*
D28*
X173990000Y-63119000D03*
X166370000Y-70739000D03*
X171450000Y-63119000D03*
X168910000Y-70739000D03*
X168910000Y-63119000D03*
X171450000Y-70739000D03*
X166370000Y-63119000D03*
X173990000Y-70739000D03*
X163830000Y-63119000D03*
D14*
X132080000Y-121920000D03*
X185420000Y-121920000D03*
D16*
X154380000Y-56170000D03*
X154380000Y-60670000D03*
X147880000Y-56170000D03*
X147880000Y-60670000D03*
D17*
X161290000Y-57150000D03*
D18*
X161290000Y-59690000D03*
D17*
X166370000Y-57150000D03*
D18*
X166370000Y-59690000D03*
D17*
X171450000Y-57150000D03*
D18*
X171450000Y-59690000D03*
M02*
