G04 #@! TF.GenerationSoftware,KiCad,Pcbnew,5.1.12-84ad8e8a86~92~ubuntu16.04.1*
G04 #@! TF.CreationDate,2022-11-17T23:34:12+01:00*
G04 #@! TF.ProjectId,Mainboard,4d61696e-626f-4617-9264-2e6b69636164,rev?*
G04 #@! TF.SameCoordinates,Original*
G04 #@! TF.FileFunction,Legend,Top*
G04 #@! TF.FilePolarity,Positive*
%FSLAX46Y46*%
G04 Gerber Fmt 4.6, Leading zero omitted, Abs format (unit mm)*
G04 Created by KiCad (PCBNEW 5.1.12-84ad8e8a86~92~ubuntu16.04.1) date 2022-11-17 23:34:12*
%MOMM*%
%LPD*%
G01*
G04 APERTURE LIST*
%ADD10C,0.200000*%
%ADD11C,0.250000*%
%ADD12C,0.240000*%
%ADD13C,0.120000*%
%ADD14C,0.100000*%
%ADD15C,0.150000*%
%ADD16C,0.130000*%
%ADD17R,1.000000X1.000000*%
%ADD18O,1.000000X1.000000*%
%ADD19R,2.032000X1.070000*%
%ADD20C,3.000000*%
%ADD21C,4.300000*%
%ADD22C,2.800000*%
%ADD23C,2.000000*%
%ADD24R,1.800000X1.800000*%
%ADD25C,1.800000*%
%ADD26R,5.100000X2.500000*%
%ADD27C,10.200000*%
%ADD28C,1.000000*%
%ADD29R,2.000000X2.000000*%
%ADD30R,1.700000X1.700000*%
%ADD31O,1.700000X1.700000*%
%ADD32R,1.500000X1.500000*%
%ADD33C,1.500000*%
%ADD34R,1.600000X1.600000*%
%ADD35O,1.600000X1.600000*%
G04 APERTURE END LIST*
D10*
X145371428Y-71675857D02*
X146085714Y-71175857D01*
X145371428Y-70818714D02*
X146871428Y-70818714D01*
X146871428Y-71390142D01*
X146800000Y-71533000D01*
X146728571Y-71604428D01*
X146585714Y-71675857D01*
X146371428Y-71675857D01*
X146228571Y-71604428D01*
X146157142Y-71533000D01*
X146085714Y-71390142D01*
X146085714Y-70818714D01*
X145442857Y-72890142D02*
X145371428Y-72747285D01*
X145371428Y-72461571D01*
X145442857Y-72318714D01*
X145585714Y-72247285D01*
X146157142Y-72247285D01*
X146300000Y-72318714D01*
X146371428Y-72461571D01*
X146371428Y-72747285D01*
X146300000Y-72890142D01*
X146157142Y-72961571D01*
X146014285Y-72961571D01*
X145871428Y-72247285D01*
X145442857Y-73533000D02*
X145371428Y-73675857D01*
X145371428Y-73961571D01*
X145442857Y-74104428D01*
X145585714Y-74175857D01*
X145657142Y-74175857D01*
X145800000Y-74104428D01*
X145871428Y-73961571D01*
X145871428Y-73747285D01*
X145942857Y-73604428D01*
X146085714Y-73533000D01*
X146157142Y-73533000D01*
X146300000Y-73604428D01*
X146371428Y-73747285D01*
X146371428Y-73961571D01*
X146300000Y-74104428D01*
X145442857Y-75390142D02*
X145371428Y-75247285D01*
X145371428Y-74961571D01*
X145442857Y-74818714D01*
X145585714Y-74747285D01*
X146157142Y-74747285D01*
X146300000Y-74818714D01*
X146371428Y-74961571D01*
X146371428Y-75247285D01*
X146300000Y-75390142D01*
X146157142Y-75461571D01*
X146014285Y-75461571D01*
X145871428Y-74747285D01*
X146371428Y-75890142D02*
X146371428Y-76461571D01*
X146871428Y-76104428D02*
X145585714Y-76104428D01*
X145442857Y-76175857D01*
X145371428Y-76318714D01*
X145371428Y-76461571D01*
D11*
X141371142Y-113708571D02*
X140871142Y-112994285D01*
X140514000Y-113708571D02*
X140514000Y-112208571D01*
X141085428Y-112208571D01*
X141228285Y-112280000D01*
X141299714Y-112351428D01*
X141371142Y-112494285D01*
X141371142Y-112708571D01*
X141299714Y-112851428D01*
X141228285Y-112922857D01*
X141085428Y-112994285D01*
X140514000Y-112994285D01*
X141942571Y-113637142D02*
X142156857Y-113708571D01*
X142514000Y-113708571D01*
X142656857Y-113637142D01*
X142728285Y-113565714D01*
X142799714Y-113422857D01*
X142799714Y-113280000D01*
X142728285Y-113137142D01*
X142656857Y-113065714D01*
X142514000Y-112994285D01*
X142228285Y-112922857D01*
X142085428Y-112851428D01*
X142014000Y-112780000D01*
X141942571Y-112637142D01*
X141942571Y-112494285D01*
X142014000Y-112351428D01*
X142085428Y-112280000D01*
X142228285Y-112208571D01*
X142585428Y-112208571D01*
X142799714Y-112280000D01*
X144085428Y-112708571D02*
X144085428Y-113708571D01*
X143728285Y-112137142D02*
X143371142Y-113208571D01*
X144299714Y-113208571D01*
X145085428Y-112851428D02*
X144942571Y-112780000D01*
X144871142Y-112708571D01*
X144799714Y-112565714D01*
X144799714Y-112494285D01*
X144871142Y-112351428D01*
X144942571Y-112280000D01*
X145085428Y-112208571D01*
X145371142Y-112208571D01*
X145514000Y-112280000D01*
X145585428Y-112351428D01*
X145656857Y-112494285D01*
X145656857Y-112565714D01*
X145585428Y-112708571D01*
X145514000Y-112780000D01*
X145371142Y-112851428D01*
X145085428Y-112851428D01*
X144942571Y-112922857D01*
X144871142Y-112994285D01*
X144799714Y-113137142D01*
X144799714Y-113422857D01*
X144871142Y-113565714D01*
X144942571Y-113637142D01*
X145085428Y-113708571D01*
X145371142Y-113708571D01*
X145514000Y-113637142D01*
X145585428Y-113565714D01*
X145656857Y-113422857D01*
X145656857Y-113137142D01*
X145585428Y-112994285D01*
X145514000Y-112922857D01*
X145371142Y-112851428D01*
X147014000Y-112208571D02*
X146299714Y-112208571D01*
X146228285Y-112922857D01*
X146299714Y-112851428D01*
X146442571Y-112780000D01*
X146799714Y-112780000D01*
X146942571Y-112851428D01*
X147014000Y-112922857D01*
X147085428Y-113065714D01*
X147085428Y-113422857D01*
X147014000Y-113565714D01*
X146942571Y-113637142D01*
X146799714Y-113708571D01*
X146442571Y-113708571D01*
X146299714Y-113637142D01*
X146228285Y-113565714D01*
X153900571Y-112208571D02*
X154043428Y-112208571D01*
X154186285Y-112280000D01*
X154257714Y-112351428D01*
X154329142Y-112494285D01*
X154400571Y-112780000D01*
X154400571Y-113137142D01*
X154329142Y-113422857D01*
X154257714Y-113565714D01*
X154186285Y-113637142D01*
X154043428Y-113708571D01*
X153900571Y-113708571D01*
X153757714Y-113637142D01*
X153686285Y-113565714D01*
X153614857Y-113422857D01*
X153543428Y-113137142D01*
X153543428Y-112780000D01*
X153614857Y-112494285D01*
X153686285Y-112351428D01*
X153757714Y-112280000D01*
X153900571Y-112208571D01*
X155043428Y-113137142D02*
X156186285Y-113137142D01*
X157686285Y-113708571D02*
X156829142Y-113708571D01*
X157257714Y-113708571D02*
X157257714Y-112208571D01*
X157114857Y-112422857D01*
X156972000Y-112565714D01*
X156829142Y-112637142D01*
X158614857Y-112208571D02*
X158757714Y-112208571D01*
X158900571Y-112280000D01*
X158972000Y-112351428D01*
X159043428Y-112494285D01*
X159114857Y-112780000D01*
X159114857Y-113137142D01*
X159043428Y-113422857D01*
X158972000Y-113565714D01*
X158900571Y-113637142D01*
X158757714Y-113708571D01*
X158614857Y-113708571D01*
X158472000Y-113637142D01*
X158400571Y-113565714D01*
X158329142Y-113422857D01*
X158257714Y-113137142D01*
X158257714Y-112780000D01*
X158329142Y-112494285D01*
X158400571Y-112351428D01*
X158472000Y-112280000D01*
X158614857Y-112208571D01*
X159543428Y-112208571D02*
X160043428Y-113708571D01*
X160543428Y-112208571D01*
X170053571Y-113708571D02*
X169196428Y-113708571D01*
X169625000Y-113708571D02*
X169625000Y-112208571D01*
X169482142Y-112422857D01*
X169339285Y-112565714D01*
X169196428Y-112637142D01*
X170625000Y-112351428D02*
X170696428Y-112280000D01*
X170839285Y-112208571D01*
X171196428Y-112208571D01*
X171339285Y-112280000D01*
X171410714Y-112351428D01*
X171482142Y-112494285D01*
X171482142Y-112637142D01*
X171410714Y-112851428D01*
X170553571Y-113708571D01*
X171482142Y-113708571D01*
X171910714Y-112208571D02*
X172410714Y-113708571D01*
X172910714Y-112208571D01*
X174267857Y-113565714D02*
X174196428Y-113637142D01*
X173982142Y-113708571D01*
X173839285Y-113708571D01*
X173625000Y-113637142D01*
X173482142Y-113494285D01*
X173410714Y-113351428D01*
X173339285Y-113065714D01*
X173339285Y-112851428D01*
X173410714Y-112565714D01*
X173482142Y-112422857D01*
X173625000Y-112280000D01*
X173839285Y-112208571D01*
X173982142Y-112208571D01*
X174196428Y-112280000D01*
X174267857Y-112351428D01*
X174910714Y-113708571D02*
X174910714Y-112208571D01*
X175267857Y-112208571D01*
X175482142Y-112280000D01*
X175625000Y-112422857D01*
X175696428Y-112565714D01*
X175767857Y-112851428D01*
X175767857Y-113065714D01*
X175696428Y-113351428D01*
X175625000Y-113494285D01*
X175482142Y-113637142D01*
X175267857Y-113708571D01*
X174910714Y-113708571D01*
X177482142Y-112137142D02*
X176196428Y-114065714D01*
X178696428Y-112208571D02*
X177982142Y-112208571D01*
X177910714Y-112922857D01*
X177982142Y-112851428D01*
X178125000Y-112780000D01*
X178482142Y-112780000D01*
X178625000Y-112851428D01*
X178696428Y-112922857D01*
X178767857Y-113065714D01*
X178767857Y-113422857D01*
X178696428Y-113565714D01*
X178625000Y-113637142D01*
X178482142Y-113708571D01*
X178125000Y-113708571D01*
X177982142Y-113637142D01*
X177910714Y-113565714D01*
X179339285Y-113280000D02*
X180053571Y-113280000D01*
X179196428Y-113708571D02*
X179696428Y-112208571D01*
X180196428Y-113708571D01*
D12*
X140046857Y-115477142D02*
X140232571Y-115539047D01*
X140294476Y-115600952D01*
X140356380Y-115724761D01*
X140356380Y-115910476D01*
X140294476Y-116034285D01*
X140232571Y-116096190D01*
X140108761Y-116158095D01*
X139613523Y-116158095D01*
X139613523Y-114858095D01*
X140046857Y-114858095D01*
X140170666Y-114920000D01*
X140232571Y-114981904D01*
X140294476Y-115105714D01*
X140294476Y-115229523D01*
X140232571Y-115353333D01*
X140170666Y-115415238D01*
X140046857Y-115477142D01*
X139613523Y-115477142D01*
X145313523Y-114920000D02*
X145189714Y-114858095D01*
X145004000Y-114858095D01*
X144818285Y-114920000D01*
X144694476Y-115043809D01*
X144632571Y-115167619D01*
X144570666Y-115415238D01*
X144570666Y-115600952D01*
X144632571Y-115848571D01*
X144694476Y-115972380D01*
X144818285Y-116096190D01*
X145004000Y-116158095D01*
X145127809Y-116158095D01*
X145313523Y-116096190D01*
X145375428Y-116034285D01*
X145375428Y-115600952D01*
X145127809Y-115600952D01*
X145932571Y-116158095D02*
X145932571Y-114858095D01*
X146675428Y-116158095D01*
X146675428Y-114858095D01*
X147294476Y-116158095D02*
X147294476Y-114858095D01*
X147604000Y-114858095D01*
X147789714Y-114920000D01*
X147913523Y-115043809D01*
X147975428Y-115167619D01*
X148037333Y-115415238D01*
X148037333Y-115600952D01*
X147975428Y-115848571D01*
X147913523Y-115972380D01*
X147789714Y-116096190D01*
X147604000Y-116158095D01*
X147294476Y-116158095D01*
X142184476Y-115786666D02*
X142803523Y-115786666D01*
X142060666Y-116158095D02*
X142494000Y-114858095D01*
X142927333Y-116158095D01*
D13*
X138684000Y-116840000D02*
X148844000Y-116840000D01*
X148844000Y-116840000D02*
X148844000Y-111760000D01*
X148844000Y-111760000D02*
X138684000Y-111760000D01*
X138684000Y-111760000D02*
X138684000Y-116840000D01*
X138684000Y-114300000D02*
X148844000Y-114300000D01*
X143764000Y-114300000D02*
X143764000Y-116840000D01*
X141224000Y-114300000D02*
X141224000Y-116840000D01*
D12*
X158521523Y-114920000D02*
X158397714Y-114858095D01*
X158212000Y-114858095D01*
X158026285Y-114920000D01*
X157902476Y-115043809D01*
X157840571Y-115167619D01*
X157778666Y-115415238D01*
X157778666Y-115600952D01*
X157840571Y-115848571D01*
X157902476Y-115972380D01*
X158026285Y-116096190D01*
X158212000Y-116158095D01*
X158335809Y-116158095D01*
X158521523Y-116096190D01*
X158583428Y-116034285D01*
X158583428Y-115600952D01*
X158335809Y-115600952D01*
X159140571Y-116158095D02*
X159140571Y-114858095D01*
X159883428Y-116158095D01*
X159883428Y-114858095D01*
X160502476Y-116158095D02*
X160502476Y-114858095D01*
X160812000Y-114858095D01*
X160997714Y-114920000D01*
X161121523Y-115043809D01*
X161183428Y-115167619D01*
X161245333Y-115415238D01*
X161245333Y-115600952D01*
X161183428Y-115848571D01*
X161121523Y-115972380D01*
X160997714Y-116096190D01*
X160812000Y-116158095D01*
X160502476Y-116158095D01*
X153132000Y-114858095D02*
X153379619Y-114858095D01*
X153503428Y-114920000D01*
X153627238Y-115043809D01*
X153689142Y-115291428D01*
X153689142Y-115724761D01*
X153627238Y-115972380D01*
X153503428Y-116096190D01*
X153379619Y-116158095D01*
X153132000Y-116158095D01*
X153008190Y-116096190D01*
X152884380Y-115972380D01*
X152822476Y-115724761D01*
X152822476Y-115291428D01*
X152884380Y-115043809D01*
X153008190Y-114920000D01*
X153132000Y-114858095D01*
X154246285Y-114858095D02*
X154246285Y-115910476D01*
X154308190Y-116034285D01*
X154370095Y-116096190D01*
X154493904Y-116158095D01*
X154741523Y-116158095D01*
X154865333Y-116096190D01*
X154927238Y-116034285D01*
X154989142Y-115910476D01*
X154989142Y-114858095D01*
X155422476Y-114858095D02*
X156165333Y-114858095D01*
X155793904Y-116158095D02*
X155793904Y-114858095D01*
D13*
X151892000Y-116840000D02*
X151892000Y-111760000D01*
X151892000Y-111760000D02*
X162052000Y-111760000D01*
X162052000Y-111760000D02*
X162052000Y-116840000D01*
X162052000Y-116840000D02*
X151892000Y-116840000D01*
X151892000Y-114300000D02*
X162052000Y-114300000D01*
X162052000Y-114300000D02*
X156972000Y-114300000D01*
X156972000Y-114300000D02*
X156972000Y-116840000D01*
D12*
X176174523Y-114920000D02*
X176050714Y-114858095D01*
X175865000Y-114858095D01*
X175679285Y-114920000D01*
X175555476Y-115043809D01*
X175493571Y-115167619D01*
X175431666Y-115415238D01*
X175431666Y-115600952D01*
X175493571Y-115848571D01*
X175555476Y-115972380D01*
X175679285Y-116096190D01*
X175865000Y-116158095D01*
X175988809Y-116158095D01*
X176174523Y-116096190D01*
X176236428Y-116034285D01*
X176236428Y-115600952D01*
X175988809Y-115600952D01*
X176793571Y-116158095D02*
X176793571Y-114858095D01*
X177536428Y-116158095D01*
X177536428Y-114858095D01*
X178155476Y-116158095D02*
X178155476Y-114858095D01*
X178465000Y-114858095D01*
X178650714Y-114920000D01*
X178774523Y-115043809D01*
X178836428Y-115167619D01*
X178898333Y-115415238D01*
X178898333Y-115600952D01*
X178836428Y-115848571D01*
X178774523Y-115972380D01*
X178650714Y-116096190D01*
X178465000Y-116158095D01*
X178155476Y-116158095D01*
X170134047Y-116203333D02*
X170134047Y-114803333D01*
X170753095Y-116203333D02*
X170753095Y-114803333D01*
X171495952Y-116203333D01*
X171495952Y-114803333D01*
D13*
X168275000Y-111760000D02*
X180975000Y-111760000D01*
X180975000Y-111760000D02*
X180975000Y-116840000D01*
X180975000Y-116840000D02*
X168275000Y-116840000D01*
X168275000Y-116840000D02*
X168275000Y-111760000D01*
X168275000Y-114300000D02*
X180975000Y-114300000D01*
X173355000Y-114300000D02*
X173355000Y-116840000D01*
X168275000Y-106045000D02*
X180975000Y-106045000D01*
X180975000Y-106045000D02*
X180975000Y-110490000D01*
X180975000Y-110490000D02*
X168275000Y-110490000D01*
X168275000Y-110490000D02*
X168275000Y-106045000D01*
D10*
X189841142Y-72834238D02*
X189888761Y-72881857D01*
X189936380Y-73024714D01*
X189936380Y-73119952D01*
X189888761Y-73262809D01*
X189793523Y-73358047D01*
X189698285Y-73405666D01*
X189507809Y-73453285D01*
X189364952Y-73453285D01*
X189174476Y-73405666D01*
X189079238Y-73358047D01*
X188984000Y-73262809D01*
X188936380Y-73119952D01*
X188936380Y-73024714D01*
X188984000Y-72881857D01*
X189031619Y-72834238D01*
X189936380Y-71834238D02*
X189460190Y-72167571D01*
X189936380Y-72405666D02*
X188936380Y-72405666D01*
X188936380Y-72024714D01*
X188984000Y-71929476D01*
X189031619Y-71881857D01*
X189126857Y-71834238D01*
X189269714Y-71834238D01*
X189364952Y-71881857D01*
X189412571Y-71929476D01*
X189460190Y-72024714D01*
X189460190Y-72405666D01*
X189936380Y-70881857D02*
X189936380Y-71453285D01*
X189936380Y-71167571D02*
X188936380Y-71167571D01*
X189079238Y-71262809D01*
X189174476Y-71358047D01*
X189222095Y-71453285D01*
X189031619Y-70500904D02*
X188984000Y-70453285D01*
X188936380Y-70358047D01*
X188936380Y-70119952D01*
X188984000Y-70024714D01*
X189031619Y-69977095D01*
X189126857Y-69929476D01*
X189222095Y-69929476D01*
X189364952Y-69977095D01*
X189936380Y-70548523D01*
X189936380Y-69929476D01*
X189031619Y-69548523D02*
X188984000Y-69500904D01*
X188936380Y-69405666D01*
X188936380Y-69167571D01*
X188984000Y-69072333D01*
X189031619Y-69024714D01*
X189126857Y-68977095D01*
X189222095Y-68977095D01*
X189364952Y-69024714D01*
X189936380Y-69596142D01*
X189936380Y-68977095D01*
X188936380Y-68072333D02*
X188936380Y-68548523D01*
X189412571Y-68596142D01*
X189364952Y-68548523D01*
X189317333Y-68453285D01*
X189317333Y-68215190D01*
X189364952Y-68119952D01*
X189412571Y-68072333D01*
X189507809Y-68024714D01*
X189745904Y-68024714D01*
X189841142Y-68072333D01*
X189888761Y-68119952D01*
X189936380Y-68215190D01*
X189936380Y-68453285D01*
X189888761Y-68548523D01*
X189841142Y-68596142D01*
D12*
X137998904Y-81992857D02*
X136698904Y-82302380D01*
X137627476Y-82550000D01*
X136698904Y-82797619D01*
X137998904Y-83107142D01*
X137379857Y-85182857D02*
X137317952Y-85368571D01*
X137256047Y-85430476D01*
X137132238Y-85492380D01*
X136946523Y-85492380D01*
X136822714Y-85430476D01*
X136760809Y-85368571D01*
X136698904Y-85244761D01*
X136698904Y-84749523D01*
X137998904Y-84749523D01*
X137998904Y-85182857D01*
X137937000Y-85306666D01*
X137875095Y-85368571D01*
X137751285Y-85430476D01*
X137627476Y-85430476D01*
X137503666Y-85368571D01*
X137441761Y-85306666D01*
X137379857Y-85182857D01*
X137379857Y-84749523D01*
X136698904Y-88032380D02*
X137317952Y-87599047D01*
X136698904Y-87289523D02*
X137998904Y-87289523D01*
X137998904Y-87784761D01*
X137937000Y-87908571D01*
X137875095Y-87970476D01*
X137751285Y-88032380D01*
X137565571Y-88032380D01*
X137441761Y-87970476D01*
X137379857Y-87908571D01*
X137317952Y-87784761D01*
X137317952Y-87289523D01*
X137937000Y-90510476D02*
X137998904Y-90386666D01*
X137998904Y-90200952D01*
X137937000Y-90015238D01*
X137813190Y-89891428D01*
X137689380Y-89829523D01*
X137441761Y-89767619D01*
X137256047Y-89767619D01*
X137008428Y-89829523D01*
X136884619Y-89891428D01*
X136760809Y-90015238D01*
X136698904Y-90200952D01*
X136698904Y-90324761D01*
X136760809Y-90510476D01*
X136822714Y-90572380D01*
X137256047Y-90572380D01*
X137256047Y-90324761D01*
X137321142Y-92278261D02*
X137321142Y-93268738D01*
X136825904Y-92773500D02*
X137816380Y-92773500D01*
X179501095Y-83107142D02*
X180801095Y-82797619D01*
X179872523Y-82550000D01*
X180801095Y-82302380D01*
X179501095Y-81992857D01*
X180120142Y-84997142D02*
X180182047Y-84811428D01*
X180243952Y-84749523D01*
X180367761Y-84687619D01*
X180553476Y-84687619D01*
X180677285Y-84749523D01*
X180739190Y-84811428D01*
X180801095Y-84935238D01*
X180801095Y-85430476D01*
X179501095Y-85430476D01*
X179501095Y-84997142D01*
X179563000Y-84873333D01*
X179624904Y-84811428D01*
X179748714Y-84749523D01*
X179872523Y-84749523D01*
X179996333Y-84811428D01*
X180058238Y-84873333D01*
X180120142Y-84997142D01*
X180120142Y-85430476D01*
X180801095Y-87227619D02*
X180182047Y-87660952D01*
X180801095Y-87970476D02*
X179501095Y-87970476D01*
X179501095Y-87475238D01*
X179563000Y-87351428D01*
X179624904Y-87289523D01*
X179748714Y-87227619D01*
X179934428Y-87227619D01*
X180058238Y-87289523D01*
X180120142Y-87351428D01*
X180182047Y-87475238D01*
X180182047Y-87970476D01*
X179563000Y-89829523D02*
X179501095Y-89953333D01*
X179501095Y-90139047D01*
X179563000Y-90324761D01*
X179686809Y-90448571D01*
X179810619Y-90510476D01*
X180058238Y-90572380D01*
X180243952Y-90572380D01*
X180491571Y-90510476D01*
X180615380Y-90448571D01*
X180739190Y-90324761D01*
X180801095Y-90139047D01*
X180801095Y-90015238D01*
X180739190Y-89829523D01*
X180677285Y-89767619D01*
X180243952Y-89767619D01*
X180243952Y-90015238D01*
X180178857Y-93205238D02*
X180178857Y-92214761D01*
X180674095Y-92710000D02*
X179683619Y-92710000D01*
D10*
X172829761Y-107222142D02*
X172396428Y-107222142D01*
X172396428Y-107903095D02*
X172396428Y-106603095D01*
X173015476Y-106603095D01*
X174067857Y-107036428D02*
X174067857Y-107903095D01*
X173510714Y-107036428D02*
X173510714Y-107717380D01*
X173572619Y-107841190D01*
X173696428Y-107903095D01*
X173882142Y-107903095D01*
X174005952Y-107841190D01*
X174067857Y-107779285D01*
X174625000Y-107841190D02*
X174748809Y-107903095D01*
X174996428Y-107903095D01*
X175120238Y-107841190D01*
X175182142Y-107717380D01*
X175182142Y-107655476D01*
X175120238Y-107531666D01*
X174996428Y-107469761D01*
X174810714Y-107469761D01*
X174686904Y-107407857D01*
X174625000Y-107284047D01*
X174625000Y-107222142D01*
X174686904Y-107098333D01*
X174810714Y-107036428D01*
X174996428Y-107036428D01*
X175120238Y-107098333D01*
X176234523Y-107841190D02*
X176110714Y-107903095D01*
X175863095Y-107903095D01*
X175739285Y-107841190D01*
X175677380Y-107717380D01*
X175677380Y-107222142D01*
X175739285Y-107098333D01*
X175863095Y-107036428D01*
X176110714Y-107036428D01*
X176234523Y-107098333D01*
X176296428Y-107222142D01*
X176296428Y-107345952D01*
X175677380Y-107469761D01*
X176853571Y-107779285D02*
X176915476Y-107841190D01*
X176853571Y-107903095D01*
X176791666Y-107841190D01*
X176853571Y-107779285D01*
X176853571Y-107903095D01*
X176853571Y-107098333D02*
X176915476Y-107160238D01*
X176853571Y-107222142D01*
X176791666Y-107160238D01*
X176853571Y-107098333D01*
X176853571Y-107222142D01*
D13*
X136398000Y-81280000D02*
X136398000Y-93980000D01*
X136398000Y-93980000D02*
X140462000Y-93980000D01*
X140462000Y-93980000D02*
X140462000Y-81280000D01*
X140462000Y-81280000D02*
X136398000Y-81280000D01*
X138303000Y-81280000D02*
X138303000Y-93980000D01*
X136398000Y-91440000D02*
X138303000Y-91440000D01*
X136398000Y-88900000D02*
X138303000Y-88900000D01*
X136398000Y-86360000D02*
X138303000Y-86360000D01*
X136398000Y-83820000D02*
X138303000Y-83820000D01*
X177038000Y-93980000D02*
X181102000Y-93980000D01*
X181102000Y-88900000D02*
X179197000Y-88900000D01*
X181102000Y-93980000D02*
X181102000Y-81280000D01*
X179197000Y-93980000D02*
X179197000Y-81280000D01*
X181102000Y-86360000D02*
X179197000Y-86360000D01*
X181102000Y-83820000D02*
X179197000Y-83820000D01*
X181102000Y-81280000D02*
X177038000Y-81280000D01*
X177038000Y-81280000D02*
X177038000Y-93980000D01*
X181102000Y-91440000D02*
X179197000Y-91440000D01*
D10*
X173704285Y-72064619D02*
X174275714Y-72064619D01*
X173990000Y-72064619D02*
X173990000Y-73064619D01*
X174085238Y-72921761D01*
X174180476Y-72826523D01*
X174275714Y-72778904D01*
X171735714Y-72969380D02*
X171688095Y-73017000D01*
X171592857Y-73064619D01*
X171354761Y-73064619D01*
X171259523Y-73017000D01*
X171211904Y-72969380D01*
X171164285Y-72874142D01*
X171164285Y-72778904D01*
X171211904Y-72636047D01*
X171783333Y-72064619D01*
X171164285Y-72064619D01*
X169243333Y-73064619D02*
X168624285Y-73064619D01*
X168957619Y-72683666D01*
X168814761Y-72683666D01*
X168719523Y-72636047D01*
X168671904Y-72588428D01*
X168624285Y-72493190D01*
X168624285Y-72255095D01*
X168671904Y-72159857D01*
X168719523Y-72112238D01*
X168814761Y-72064619D01*
X169100476Y-72064619D01*
X169195714Y-72112238D01*
X169243333Y-72159857D01*
X166179523Y-72731285D02*
X166179523Y-72064619D01*
X166417619Y-73112238D02*
X166655714Y-72397952D01*
X166036666Y-72397952D01*
X163591904Y-73064619D02*
X164068095Y-73064619D01*
X164115714Y-72588428D01*
X164068095Y-72636047D01*
X163972857Y-72683666D01*
X163734761Y-72683666D01*
X163639523Y-72636047D01*
X163591904Y-72588428D01*
X163544285Y-72493190D01*
X163544285Y-72255095D01*
X163591904Y-72159857D01*
X163639523Y-72112238D01*
X163734761Y-72064619D01*
X163972857Y-72064619D01*
X164068095Y-72112238D01*
X164115714Y-72159857D01*
X172569047Y-54030619D02*
X173045238Y-54030619D01*
X173045238Y-55030619D01*
X172235714Y-54554428D02*
X171902380Y-54554428D01*
X171759523Y-54030619D02*
X172235714Y-54030619D01*
X172235714Y-55030619D01*
X171759523Y-55030619D01*
X171330952Y-54030619D02*
X171330952Y-55030619D01*
X171092857Y-55030619D01*
X170950000Y-54983000D01*
X170854761Y-54887761D01*
X170807142Y-54792523D01*
X170759523Y-54602047D01*
X170759523Y-54459190D01*
X170807142Y-54268714D01*
X170854761Y-54173476D01*
X170950000Y-54078238D01*
X171092857Y-54030619D01*
X171330952Y-54030619D01*
X170378571Y-54935380D02*
X170330952Y-54983000D01*
X170235714Y-55030619D01*
X169997619Y-55030619D01*
X169902380Y-54983000D01*
X169854761Y-54935380D01*
X169807142Y-54840142D01*
X169807142Y-54744904D01*
X169854761Y-54602047D01*
X170426190Y-54030619D01*
X169807142Y-54030619D01*
X177649047Y-54030619D02*
X178125238Y-54030619D01*
X178125238Y-55030619D01*
X177315714Y-54554428D02*
X176982380Y-54554428D01*
X176839523Y-54030619D02*
X177315714Y-54030619D01*
X177315714Y-55030619D01*
X176839523Y-55030619D01*
X176410952Y-54030619D02*
X176410952Y-55030619D01*
X176172857Y-55030619D01*
X176030000Y-54983000D01*
X175934761Y-54887761D01*
X175887142Y-54792523D01*
X175839523Y-54602047D01*
X175839523Y-54459190D01*
X175887142Y-54268714D01*
X175934761Y-54173476D01*
X176030000Y-54078238D01*
X176172857Y-54030619D01*
X176410952Y-54030619D01*
X174887142Y-54030619D02*
X175458571Y-54030619D01*
X175172857Y-54030619D02*
X175172857Y-55030619D01*
X175268095Y-54887761D01*
X175363333Y-54792523D01*
X175458571Y-54744904D01*
X167489047Y-54030619D02*
X167965238Y-54030619D01*
X167965238Y-55030619D01*
X167155714Y-54554428D02*
X166822380Y-54554428D01*
X166679523Y-54030619D02*
X167155714Y-54030619D01*
X167155714Y-55030619D01*
X166679523Y-55030619D01*
X166250952Y-54030619D02*
X166250952Y-55030619D01*
X166012857Y-55030619D01*
X165870000Y-54983000D01*
X165774761Y-54887761D01*
X165727142Y-54792523D01*
X165679523Y-54602047D01*
X165679523Y-54459190D01*
X165727142Y-54268714D01*
X165774761Y-54173476D01*
X165870000Y-54078238D01*
X166012857Y-54030619D01*
X166250952Y-54030619D01*
X165346190Y-55030619D02*
X164727142Y-55030619D01*
X165060476Y-54649666D01*
X164917619Y-54649666D01*
X164822380Y-54602047D01*
X164774761Y-54554428D01*
X164727142Y-54459190D01*
X164727142Y-54221095D01*
X164774761Y-54125857D01*
X164822380Y-54078238D01*
X164917619Y-54030619D01*
X165203333Y-54030619D01*
X165298571Y-54078238D01*
X165346190Y-54125857D01*
X162409047Y-54030619D02*
X162885238Y-54030619D01*
X162885238Y-55030619D01*
X162075714Y-54554428D02*
X161742380Y-54554428D01*
X161599523Y-54030619D02*
X162075714Y-54030619D01*
X162075714Y-55030619D01*
X161599523Y-55030619D01*
X161170952Y-54030619D02*
X161170952Y-55030619D01*
X160932857Y-55030619D01*
X160790000Y-54983000D01*
X160694761Y-54887761D01*
X160647142Y-54792523D01*
X160599523Y-54602047D01*
X160599523Y-54459190D01*
X160647142Y-54268714D01*
X160694761Y-54173476D01*
X160790000Y-54078238D01*
X160932857Y-54030619D01*
X161170952Y-54030619D01*
X159742380Y-54697285D02*
X159742380Y-54030619D01*
X159980476Y-55078238D02*
X160218571Y-54363952D01*
X159599523Y-54363952D01*
X142946190Y-54030619D02*
X142946190Y-55030619D01*
X142565238Y-55030619D01*
X142470000Y-54983000D01*
X142422380Y-54935380D01*
X142374761Y-54840142D01*
X142374761Y-54697285D01*
X142422380Y-54602047D01*
X142470000Y-54554428D01*
X142565238Y-54506809D01*
X142946190Y-54506809D01*
X141803333Y-54030619D02*
X141898571Y-54078238D01*
X141946190Y-54125857D01*
X141993809Y-54221095D01*
X141993809Y-54506809D01*
X141946190Y-54602047D01*
X141898571Y-54649666D01*
X141803333Y-54697285D01*
X141660476Y-54697285D01*
X141565238Y-54649666D01*
X141517619Y-54602047D01*
X141470000Y-54506809D01*
X141470000Y-54221095D01*
X141517619Y-54125857D01*
X141565238Y-54078238D01*
X141660476Y-54030619D01*
X141803333Y-54030619D01*
X141136666Y-54697285D02*
X140946190Y-54030619D01*
X140755714Y-54506809D01*
X140565238Y-54030619D01*
X140374761Y-54697285D01*
X139612857Y-54078238D02*
X139708095Y-54030619D01*
X139898571Y-54030619D01*
X139993809Y-54078238D01*
X140041428Y-54173476D01*
X140041428Y-54554428D01*
X139993809Y-54649666D01*
X139898571Y-54697285D01*
X139708095Y-54697285D01*
X139612857Y-54649666D01*
X139565238Y-54554428D01*
X139565238Y-54459190D01*
X140041428Y-54363952D01*
X139136666Y-54030619D02*
X139136666Y-54697285D01*
X139136666Y-54506809D02*
X139089047Y-54602047D01*
X139041428Y-54649666D01*
X138946190Y-54697285D01*
X138850952Y-54697285D01*
X152987142Y-54554428D02*
X152844285Y-54506809D01*
X152796666Y-54459190D01*
X152749047Y-54363952D01*
X152749047Y-54221095D01*
X152796666Y-54125857D01*
X152844285Y-54078238D01*
X152939523Y-54030619D01*
X153320476Y-54030619D01*
X153320476Y-55030619D01*
X152987142Y-55030619D01*
X152891904Y-54983000D01*
X152844285Y-54935380D01*
X152796666Y-54840142D01*
X152796666Y-54744904D01*
X152844285Y-54649666D01*
X152891904Y-54602047D01*
X152987142Y-54554428D01*
X153320476Y-54554428D01*
X151891904Y-54697285D02*
X151891904Y-54030619D01*
X152320476Y-54697285D02*
X152320476Y-54173476D01*
X152272857Y-54078238D01*
X152177619Y-54030619D01*
X152034761Y-54030619D01*
X151939523Y-54078238D01*
X151891904Y-54125857D01*
X151558571Y-54697285D02*
X151177619Y-54697285D01*
X151415714Y-55030619D02*
X151415714Y-54173476D01*
X151368095Y-54078238D01*
X151272857Y-54030619D01*
X151177619Y-54030619D01*
X150987142Y-54697285D02*
X150606190Y-54697285D01*
X150844285Y-55030619D02*
X150844285Y-54173476D01*
X150796666Y-54078238D01*
X150701428Y-54030619D01*
X150606190Y-54030619D01*
X150130000Y-54030619D02*
X150225238Y-54078238D01*
X150272857Y-54125857D01*
X150320476Y-54221095D01*
X150320476Y-54506809D01*
X150272857Y-54602047D01*
X150225238Y-54649666D01*
X150130000Y-54697285D01*
X149987142Y-54697285D01*
X149891904Y-54649666D01*
X149844285Y-54602047D01*
X149796666Y-54506809D01*
X149796666Y-54221095D01*
X149844285Y-54125857D01*
X149891904Y-54078238D01*
X149987142Y-54030619D01*
X150130000Y-54030619D01*
X149368095Y-54697285D02*
X149368095Y-54030619D01*
X149368095Y-54602047D02*
X149320476Y-54649666D01*
X149225238Y-54697285D01*
X149082380Y-54697285D01*
X148987142Y-54649666D01*
X148939523Y-54554428D01*
X148939523Y-54030619D01*
D13*
X128778000Y-71310500D02*
X128778000Y-68516500D01*
X128778000Y-68516500D02*
X133731000Y-68516500D01*
X133731000Y-68516500D02*
X133731000Y-76136500D01*
X133731000Y-76136500D02*
X128778000Y-76136500D01*
X128778000Y-76136500D02*
X128778000Y-73342500D01*
X158242000Y-79264000D02*
X159258000Y-79264000D01*
X159258000Y-79264000D02*
X159258000Y-81915000D01*
X158242000Y-81915000D02*
X158242000Y-79264000D01*
X158242000Y-94980000D02*
X158242000Y-92329000D01*
X159258000Y-94980000D02*
X158242000Y-94980000D01*
X159258000Y-92329000D02*
X159258000Y-94980000D01*
D14*
G36*
X159258000Y-93964000D02*
G01*
X160274000Y-93964000D01*
X160274000Y-94980000D01*
X159258000Y-94980000D01*
X159258000Y-93964000D01*
G37*
X159258000Y-93964000D02*
X160274000Y-93964000D01*
X160274000Y-94980000D01*
X159258000Y-94980000D01*
X159258000Y-93964000D01*
D13*
X186176000Y-105130000D02*
X186176000Y-102330000D01*
X187876000Y-105130000D02*
X187876000Y-95530000D01*
X159576000Y-105130000D02*
X159576000Y-95530000D01*
X159576000Y-95530000D02*
X187876000Y-95530000D01*
X159576000Y-105130000D02*
X187876000Y-105130000D01*
X186176000Y-98330000D02*
X186176000Y-95530000D01*
X160876000Y-97630000D02*
X160876000Y-103030000D01*
X160876000Y-103030000D02*
X162376000Y-103030000D01*
X162376000Y-103030000D02*
X162376000Y-101530000D01*
X160876000Y-97630000D02*
X162376000Y-97630000D01*
X162376000Y-97630000D02*
X162376000Y-99130000D01*
X137870000Y-120520000D02*
X149770000Y-120520000D01*
X149770000Y-129920000D02*
X137870000Y-129920000D01*
X137870000Y-129920000D02*
X137870000Y-120520000D01*
X149770000Y-129920000D02*
X149770000Y-120520000D01*
X144748000Y-101716000D02*
X133128000Y-101716000D01*
X144748000Y-107716000D02*
X133128000Y-107716000D01*
X133128000Y-107716000D02*
X133128000Y-101716000D01*
X144748000Y-107716000D02*
X144748000Y-101716000D01*
X161200000Y-129920000D02*
X161200000Y-120520000D01*
X152800000Y-129920000D02*
X152800000Y-120520000D01*
X161200000Y-129920000D02*
X152800000Y-129920000D01*
X152800000Y-120520000D02*
X161200000Y-120520000D01*
X180532000Y-120320000D02*
X168972000Y-120320000D01*
X180532000Y-132420000D02*
X168972000Y-132420000D01*
X180532000Y-132420000D02*
X180532000Y-120320000D01*
X168972000Y-132420000D02*
X168972000Y-120320000D01*
X179832000Y-132420000D02*
X179832000Y-141120000D01*
X169672000Y-132420000D02*
X169672000Y-141120000D01*
X179832000Y-141120000D02*
X169672000Y-141120000D01*
X179042000Y-135820000D02*
G75*
G03*
X179042000Y-135820000I-1750000J0D01*
G01*
X173962000Y-135820000D02*
G75*
G03*
X173962000Y-135820000I-1750000J0D01*
G01*
X178892000Y-136320000D02*
X175692000Y-136320000D01*
X178892000Y-135320000D02*
X175692000Y-135320000D01*
X173812000Y-135320000D02*
X170612000Y-135320000D01*
X173812000Y-136320000D02*
X170612000Y-136320000D01*
X174752000Y-132420000D02*
X174752000Y-128320000D01*
X173252000Y-132420000D02*
X173252000Y-128320000D01*
X174752000Y-128320000D02*
X173252000Y-128320000D01*
X168972000Y-129520000D02*
X173252000Y-129520000D01*
X174752000Y-129520000D02*
X180532000Y-129520000D01*
X139890000Y-56860000D02*
X139734000Y-56860000D01*
X142206000Y-56860000D02*
X142050000Y-56860000D01*
X142048608Y-60092335D02*
G75*
G03*
X142205516Y-56860000I-1078608J1672335D01*
G01*
X139891392Y-60092335D02*
G75*
G02*
X139734484Y-56860000I1078608J1672335D01*
G01*
X142049837Y-59461130D02*
G75*
G03*
X142050000Y-57379039I-1079837J1041130D01*
G01*
X139890163Y-59461130D02*
G75*
G02*
X139890000Y-57379039I1079837J1041130D01*
G01*
X180870000Y-77190000D02*
X179220000Y-75540000D01*
X179220000Y-65740000D02*
X180870000Y-64090000D01*
X179220000Y-65740000D02*
X179220000Y-67640000D01*
X179220000Y-75540000D02*
X179220000Y-73640000D01*
X186470000Y-77190000D02*
X187820000Y-76040000D01*
X186470000Y-64090000D02*
X187820000Y-65240000D01*
X188316458Y-68138306D02*
G75*
G03*
X187820000Y-65240000I-2296458J1098306D01*
G01*
X188317607Y-73144098D02*
G75*
G02*
X187820000Y-76040000I-2297607J-1095902D01*
G01*
X175450000Y-56860000D02*
X175294000Y-56860000D01*
X177766000Y-56860000D02*
X177610000Y-56860000D01*
X177608608Y-60092335D02*
G75*
G03*
X177765516Y-56860000I-1078608J1672335D01*
G01*
X175451392Y-60092335D02*
G75*
G02*
X175294484Y-56860000I1078608J1672335D01*
G01*
X177609837Y-59461130D02*
G75*
G03*
X177610000Y-57379039I-1079837J1041130D01*
G01*
X175450163Y-59461130D02*
G75*
G02*
X175450000Y-57379039I1079837J1041130D01*
G01*
X142675000Y-94427646D02*
X143675000Y-94427646D01*
X143175000Y-94927646D02*
X143175000Y-93927646D01*
X145451000Y-84367000D02*
X146649000Y-84367000D01*
X145188000Y-84407000D02*
X146912000Y-84407000D01*
X144988000Y-84447000D02*
X147112000Y-84447000D01*
X144820000Y-84487000D02*
X147280000Y-84487000D01*
X144672000Y-84527000D02*
X147428000Y-84527000D01*
X144540000Y-84567000D02*
X147560000Y-84567000D01*
X144420000Y-84607000D02*
X147680000Y-84607000D01*
X144308000Y-84647000D02*
X147792000Y-84647000D01*
X144204000Y-84687000D02*
X147896000Y-84687000D01*
X144106000Y-84727000D02*
X147994000Y-84727000D01*
X144013000Y-84767000D02*
X148087000Y-84767000D01*
X143925000Y-84807000D02*
X148175000Y-84807000D01*
X143841000Y-84847000D02*
X148259000Y-84847000D01*
X143761000Y-84887000D02*
X148339000Y-84887000D01*
X143685000Y-84927000D02*
X148415000Y-84927000D01*
X143611000Y-84967000D02*
X148489000Y-84967000D01*
X143540000Y-85007000D02*
X148560000Y-85007000D01*
X143471000Y-85047000D02*
X148629000Y-85047000D01*
X143405000Y-85087000D02*
X148695000Y-85087000D01*
X143341000Y-85127000D02*
X148759000Y-85127000D01*
X143280000Y-85167000D02*
X148820000Y-85167000D01*
X143220000Y-85207000D02*
X148880000Y-85207000D01*
X143161000Y-85247000D02*
X148939000Y-85247000D01*
X143105000Y-85287000D02*
X148995000Y-85287000D01*
X143050000Y-85327000D02*
X149050000Y-85327000D01*
X142996000Y-85367000D02*
X149104000Y-85367000D01*
X142944000Y-85407000D02*
X149156000Y-85407000D01*
X142894000Y-85447000D02*
X149206000Y-85447000D01*
X142844000Y-85487000D02*
X149256000Y-85487000D01*
X142796000Y-85527000D02*
X149304000Y-85527000D01*
X142749000Y-85567000D02*
X149351000Y-85567000D01*
X142703000Y-85607000D02*
X149397000Y-85607000D01*
X142658000Y-85647000D02*
X149442000Y-85647000D01*
X142614000Y-85687000D02*
X149486000Y-85687000D01*
X147291000Y-85727000D02*
X149528000Y-85727000D01*
X142572000Y-85727000D02*
X144809000Y-85727000D01*
X147291000Y-85767000D02*
X149570000Y-85767000D01*
X142530000Y-85767000D02*
X144809000Y-85767000D01*
X147291000Y-85807000D02*
X149611000Y-85807000D01*
X142489000Y-85807000D02*
X144809000Y-85807000D01*
X147291000Y-85847000D02*
X149651000Y-85847000D01*
X142449000Y-85847000D02*
X144809000Y-85847000D01*
X147291000Y-85887000D02*
X149690000Y-85887000D01*
X142410000Y-85887000D02*
X144809000Y-85887000D01*
X147291000Y-85927000D02*
X149729000Y-85927000D01*
X142371000Y-85927000D02*
X144809000Y-85927000D01*
X147291000Y-85967000D02*
X149766000Y-85967000D01*
X142334000Y-85967000D02*
X144809000Y-85967000D01*
X147291000Y-86007000D02*
X149803000Y-86007000D01*
X142297000Y-86007000D02*
X144809000Y-86007000D01*
X147291000Y-86047000D02*
X149839000Y-86047000D01*
X142261000Y-86047000D02*
X144809000Y-86047000D01*
X147291000Y-86087000D02*
X149874000Y-86087000D01*
X142226000Y-86087000D02*
X144809000Y-86087000D01*
X147291000Y-86127000D02*
X149908000Y-86127000D01*
X142192000Y-86127000D02*
X144809000Y-86127000D01*
X147291000Y-86167000D02*
X149942000Y-86167000D01*
X142158000Y-86167000D02*
X144809000Y-86167000D01*
X147291000Y-86207000D02*
X149975000Y-86207000D01*
X142125000Y-86207000D02*
X144809000Y-86207000D01*
X147291000Y-86247000D02*
X150007000Y-86247000D01*
X142093000Y-86247000D02*
X144809000Y-86247000D01*
X147291000Y-86287000D02*
X150039000Y-86287000D01*
X142061000Y-86287000D02*
X144809000Y-86287000D01*
X147291000Y-86327000D02*
X150070000Y-86327000D01*
X142030000Y-86327000D02*
X144809000Y-86327000D01*
X147291000Y-86367000D02*
X150100000Y-86367000D01*
X142000000Y-86367000D02*
X144809000Y-86367000D01*
X147291000Y-86407000D02*
X150130000Y-86407000D01*
X141970000Y-86407000D02*
X144809000Y-86407000D01*
X147291000Y-86447000D02*
X150160000Y-86447000D01*
X141940000Y-86447000D02*
X144809000Y-86447000D01*
X147291000Y-86487000D02*
X150188000Y-86487000D01*
X141912000Y-86487000D02*
X144809000Y-86487000D01*
X147291000Y-86527000D02*
X150216000Y-86527000D01*
X141884000Y-86527000D02*
X144809000Y-86527000D01*
X147291000Y-86567000D02*
X150244000Y-86567000D01*
X141856000Y-86567000D02*
X144809000Y-86567000D01*
X147291000Y-86607000D02*
X150271000Y-86607000D01*
X141829000Y-86607000D02*
X144809000Y-86607000D01*
X147291000Y-86647000D02*
X150297000Y-86647000D01*
X141803000Y-86647000D02*
X144809000Y-86647000D01*
X147291000Y-86687000D02*
X150323000Y-86687000D01*
X141777000Y-86687000D02*
X144809000Y-86687000D01*
X147291000Y-86727000D02*
X150348000Y-86727000D01*
X141752000Y-86727000D02*
X144809000Y-86727000D01*
X147291000Y-86767000D02*
X150373000Y-86767000D01*
X141727000Y-86767000D02*
X144809000Y-86767000D01*
X147291000Y-86807000D02*
X150397000Y-86807000D01*
X141703000Y-86807000D02*
X144809000Y-86807000D01*
X147291000Y-86847000D02*
X150421000Y-86847000D01*
X141679000Y-86847000D02*
X144809000Y-86847000D01*
X147291000Y-86887000D02*
X150445000Y-86887000D01*
X141655000Y-86887000D02*
X144809000Y-86887000D01*
X147291000Y-86927000D02*
X150467000Y-86927000D01*
X141633000Y-86927000D02*
X144809000Y-86927000D01*
X147291000Y-86967000D02*
X150490000Y-86967000D01*
X141610000Y-86967000D02*
X144809000Y-86967000D01*
X147291000Y-87007000D02*
X150512000Y-87007000D01*
X141588000Y-87007000D02*
X144809000Y-87007000D01*
X147291000Y-87047000D02*
X150533000Y-87047000D01*
X141567000Y-87047000D02*
X144809000Y-87047000D01*
X147291000Y-87087000D02*
X150554000Y-87087000D01*
X141546000Y-87087000D02*
X144809000Y-87087000D01*
X147291000Y-87127000D02*
X150575000Y-87127000D01*
X141525000Y-87127000D02*
X144809000Y-87127000D01*
X147291000Y-87167000D02*
X150595000Y-87167000D01*
X141505000Y-87167000D02*
X144809000Y-87167000D01*
X147291000Y-87207000D02*
X150614000Y-87207000D01*
X141486000Y-87207000D02*
X144809000Y-87207000D01*
X147291000Y-87247000D02*
X150634000Y-87247000D01*
X141466000Y-87247000D02*
X144809000Y-87247000D01*
X147291000Y-87287000D02*
X150653000Y-87287000D01*
X141447000Y-87287000D02*
X144809000Y-87287000D01*
X147291000Y-87327000D02*
X150671000Y-87327000D01*
X141429000Y-87327000D02*
X144809000Y-87327000D01*
X147291000Y-87367000D02*
X150689000Y-87367000D01*
X141411000Y-87367000D02*
X144809000Y-87367000D01*
X147291000Y-87407000D02*
X150707000Y-87407000D01*
X141393000Y-87407000D02*
X144809000Y-87407000D01*
X147291000Y-87447000D02*
X150724000Y-87447000D01*
X141376000Y-87447000D02*
X144809000Y-87447000D01*
X147291000Y-87487000D02*
X150740000Y-87487000D01*
X141360000Y-87487000D02*
X144809000Y-87487000D01*
X147291000Y-87527000D02*
X150757000Y-87527000D01*
X141343000Y-87527000D02*
X144809000Y-87527000D01*
X147291000Y-87567000D02*
X150773000Y-87567000D01*
X141327000Y-87567000D02*
X144809000Y-87567000D01*
X147291000Y-87607000D02*
X150788000Y-87607000D01*
X141312000Y-87607000D02*
X144809000Y-87607000D01*
X147291000Y-87647000D02*
X150804000Y-87647000D01*
X141296000Y-87647000D02*
X144809000Y-87647000D01*
X147291000Y-87687000D02*
X150818000Y-87687000D01*
X141282000Y-87687000D02*
X144809000Y-87687000D01*
X147291000Y-87727000D02*
X150833000Y-87727000D01*
X141267000Y-87727000D02*
X144809000Y-87727000D01*
X147291000Y-87767000D02*
X150847000Y-87767000D01*
X141253000Y-87767000D02*
X144809000Y-87767000D01*
X147291000Y-87807000D02*
X150861000Y-87807000D01*
X141239000Y-87807000D02*
X144809000Y-87807000D01*
X147291000Y-87847000D02*
X150874000Y-87847000D01*
X141226000Y-87847000D02*
X144809000Y-87847000D01*
X147291000Y-87887000D02*
X150887000Y-87887000D01*
X141213000Y-87887000D02*
X144809000Y-87887000D01*
X147291000Y-87927000D02*
X150900000Y-87927000D01*
X141200000Y-87927000D02*
X144809000Y-87927000D01*
X147291000Y-87967000D02*
X150912000Y-87967000D01*
X141188000Y-87967000D02*
X144809000Y-87967000D01*
X147291000Y-88007000D02*
X150924000Y-88007000D01*
X141176000Y-88007000D02*
X144809000Y-88007000D01*
X147291000Y-88047000D02*
X150935000Y-88047000D01*
X141165000Y-88047000D02*
X144809000Y-88047000D01*
X147291000Y-88087000D02*
X150947000Y-88087000D01*
X141153000Y-88087000D02*
X144809000Y-88087000D01*
X147291000Y-88127000D02*
X150957000Y-88127000D01*
X141143000Y-88127000D02*
X144809000Y-88127000D01*
X147291000Y-88167000D02*
X150968000Y-88167000D01*
X141132000Y-88167000D02*
X144809000Y-88167000D01*
X141122000Y-88207000D02*
X150978000Y-88207000D01*
X141112000Y-88247000D02*
X150988000Y-88247000D01*
X141103000Y-88287000D02*
X150997000Y-88287000D01*
X141094000Y-88327000D02*
X151006000Y-88327000D01*
X141085000Y-88367000D02*
X151015000Y-88367000D01*
X141076000Y-88407000D02*
X151024000Y-88407000D01*
X141068000Y-88447000D02*
X151032000Y-88447000D01*
X141060000Y-88487000D02*
X151040000Y-88487000D01*
X141053000Y-88527000D02*
X151047000Y-88527000D01*
X141046000Y-88567000D02*
X151054000Y-88567000D01*
X141039000Y-88607000D02*
X151061000Y-88607000D01*
X141032000Y-88647000D02*
X151068000Y-88647000D01*
X141026000Y-88687000D02*
X151074000Y-88687000D01*
X141020000Y-88727000D02*
X151080000Y-88727000D01*
X141015000Y-88768000D02*
X151085000Y-88768000D01*
X141010000Y-88808000D02*
X151090000Y-88808000D01*
X141005000Y-88848000D02*
X151095000Y-88848000D01*
X141000000Y-88888000D02*
X151100000Y-88888000D01*
X140996000Y-88928000D02*
X151104000Y-88928000D01*
X140992000Y-88968000D02*
X151108000Y-88968000D01*
X140988000Y-89008000D02*
X151112000Y-89008000D01*
X140985000Y-89048000D02*
X151115000Y-89048000D01*
X140982000Y-89088000D02*
X151118000Y-89088000D01*
X140980000Y-89128000D02*
X151120000Y-89128000D01*
X140977000Y-89168000D02*
X151123000Y-89168000D01*
X140975000Y-89208000D02*
X151125000Y-89208000D01*
X140973000Y-89248000D02*
X151127000Y-89248000D01*
X140972000Y-89288000D02*
X151128000Y-89288000D01*
X140971000Y-89328000D02*
X151129000Y-89328000D01*
X140970000Y-89368000D02*
X151130000Y-89368000D01*
X140970000Y-89408000D02*
X151130000Y-89408000D01*
X140970000Y-89448000D02*
X151130000Y-89448000D01*
X151170000Y-89448000D02*
G75*
G03*
X151170000Y-89448000I-5120000J0D01*
G01*
X168075000Y-94427646D02*
X169075000Y-94427646D01*
X168575000Y-94927646D02*
X168575000Y-93927646D01*
X170851000Y-84367000D02*
X172049000Y-84367000D01*
X170588000Y-84407000D02*
X172312000Y-84407000D01*
X170388000Y-84447000D02*
X172512000Y-84447000D01*
X170220000Y-84487000D02*
X172680000Y-84487000D01*
X170072000Y-84527000D02*
X172828000Y-84527000D01*
X169940000Y-84567000D02*
X172960000Y-84567000D01*
X169820000Y-84607000D02*
X173080000Y-84607000D01*
X169708000Y-84647000D02*
X173192000Y-84647000D01*
X169604000Y-84687000D02*
X173296000Y-84687000D01*
X169506000Y-84727000D02*
X173394000Y-84727000D01*
X169413000Y-84767000D02*
X173487000Y-84767000D01*
X169325000Y-84807000D02*
X173575000Y-84807000D01*
X169241000Y-84847000D02*
X173659000Y-84847000D01*
X169161000Y-84887000D02*
X173739000Y-84887000D01*
X169085000Y-84927000D02*
X173815000Y-84927000D01*
X169011000Y-84967000D02*
X173889000Y-84967000D01*
X168940000Y-85007000D02*
X173960000Y-85007000D01*
X168871000Y-85047000D02*
X174029000Y-85047000D01*
X168805000Y-85087000D02*
X174095000Y-85087000D01*
X168741000Y-85127000D02*
X174159000Y-85127000D01*
X168680000Y-85167000D02*
X174220000Y-85167000D01*
X168620000Y-85207000D02*
X174280000Y-85207000D01*
X168561000Y-85247000D02*
X174339000Y-85247000D01*
X168505000Y-85287000D02*
X174395000Y-85287000D01*
X168450000Y-85327000D02*
X174450000Y-85327000D01*
X168396000Y-85367000D02*
X174504000Y-85367000D01*
X168344000Y-85407000D02*
X174556000Y-85407000D01*
X168294000Y-85447000D02*
X174606000Y-85447000D01*
X168244000Y-85487000D02*
X174656000Y-85487000D01*
X168196000Y-85527000D02*
X174704000Y-85527000D01*
X168149000Y-85567000D02*
X174751000Y-85567000D01*
X168103000Y-85607000D02*
X174797000Y-85607000D01*
X168058000Y-85647000D02*
X174842000Y-85647000D01*
X168014000Y-85687000D02*
X174886000Y-85687000D01*
X172691000Y-85727000D02*
X174928000Y-85727000D01*
X167972000Y-85727000D02*
X170209000Y-85727000D01*
X172691000Y-85767000D02*
X174970000Y-85767000D01*
X167930000Y-85767000D02*
X170209000Y-85767000D01*
X172691000Y-85807000D02*
X175011000Y-85807000D01*
X167889000Y-85807000D02*
X170209000Y-85807000D01*
X172691000Y-85847000D02*
X175051000Y-85847000D01*
X167849000Y-85847000D02*
X170209000Y-85847000D01*
X172691000Y-85887000D02*
X175090000Y-85887000D01*
X167810000Y-85887000D02*
X170209000Y-85887000D01*
X172691000Y-85927000D02*
X175129000Y-85927000D01*
X167771000Y-85927000D02*
X170209000Y-85927000D01*
X172691000Y-85967000D02*
X175166000Y-85967000D01*
X167734000Y-85967000D02*
X170209000Y-85967000D01*
X172691000Y-86007000D02*
X175203000Y-86007000D01*
X167697000Y-86007000D02*
X170209000Y-86007000D01*
X172691000Y-86047000D02*
X175239000Y-86047000D01*
X167661000Y-86047000D02*
X170209000Y-86047000D01*
X172691000Y-86087000D02*
X175274000Y-86087000D01*
X167626000Y-86087000D02*
X170209000Y-86087000D01*
X172691000Y-86127000D02*
X175308000Y-86127000D01*
X167592000Y-86127000D02*
X170209000Y-86127000D01*
X172691000Y-86167000D02*
X175342000Y-86167000D01*
X167558000Y-86167000D02*
X170209000Y-86167000D01*
X172691000Y-86207000D02*
X175375000Y-86207000D01*
X167525000Y-86207000D02*
X170209000Y-86207000D01*
X172691000Y-86247000D02*
X175407000Y-86247000D01*
X167493000Y-86247000D02*
X170209000Y-86247000D01*
X172691000Y-86287000D02*
X175439000Y-86287000D01*
X167461000Y-86287000D02*
X170209000Y-86287000D01*
X172691000Y-86327000D02*
X175470000Y-86327000D01*
X167430000Y-86327000D02*
X170209000Y-86327000D01*
X172691000Y-86367000D02*
X175500000Y-86367000D01*
X167400000Y-86367000D02*
X170209000Y-86367000D01*
X172691000Y-86407000D02*
X175530000Y-86407000D01*
X167370000Y-86407000D02*
X170209000Y-86407000D01*
X172691000Y-86447000D02*
X175560000Y-86447000D01*
X167340000Y-86447000D02*
X170209000Y-86447000D01*
X172691000Y-86487000D02*
X175588000Y-86487000D01*
X167312000Y-86487000D02*
X170209000Y-86487000D01*
X172691000Y-86527000D02*
X175616000Y-86527000D01*
X167284000Y-86527000D02*
X170209000Y-86527000D01*
X172691000Y-86567000D02*
X175644000Y-86567000D01*
X167256000Y-86567000D02*
X170209000Y-86567000D01*
X172691000Y-86607000D02*
X175671000Y-86607000D01*
X167229000Y-86607000D02*
X170209000Y-86607000D01*
X172691000Y-86647000D02*
X175697000Y-86647000D01*
X167203000Y-86647000D02*
X170209000Y-86647000D01*
X172691000Y-86687000D02*
X175723000Y-86687000D01*
X167177000Y-86687000D02*
X170209000Y-86687000D01*
X172691000Y-86727000D02*
X175748000Y-86727000D01*
X167152000Y-86727000D02*
X170209000Y-86727000D01*
X172691000Y-86767000D02*
X175773000Y-86767000D01*
X167127000Y-86767000D02*
X170209000Y-86767000D01*
X172691000Y-86807000D02*
X175797000Y-86807000D01*
X167103000Y-86807000D02*
X170209000Y-86807000D01*
X172691000Y-86847000D02*
X175821000Y-86847000D01*
X167079000Y-86847000D02*
X170209000Y-86847000D01*
X172691000Y-86887000D02*
X175845000Y-86887000D01*
X167055000Y-86887000D02*
X170209000Y-86887000D01*
X172691000Y-86927000D02*
X175867000Y-86927000D01*
X167033000Y-86927000D02*
X170209000Y-86927000D01*
X172691000Y-86967000D02*
X175890000Y-86967000D01*
X167010000Y-86967000D02*
X170209000Y-86967000D01*
X172691000Y-87007000D02*
X175912000Y-87007000D01*
X166988000Y-87007000D02*
X170209000Y-87007000D01*
X172691000Y-87047000D02*
X175933000Y-87047000D01*
X166967000Y-87047000D02*
X170209000Y-87047000D01*
X172691000Y-87087000D02*
X175954000Y-87087000D01*
X166946000Y-87087000D02*
X170209000Y-87087000D01*
X172691000Y-87127000D02*
X175975000Y-87127000D01*
X166925000Y-87127000D02*
X170209000Y-87127000D01*
X172691000Y-87167000D02*
X175995000Y-87167000D01*
X166905000Y-87167000D02*
X170209000Y-87167000D01*
X172691000Y-87207000D02*
X176014000Y-87207000D01*
X166886000Y-87207000D02*
X170209000Y-87207000D01*
X172691000Y-87247000D02*
X176034000Y-87247000D01*
X166866000Y-87247000D02*
X170209000Y-87247000D01*
X172691000Y-87287000D02*
X176053000Y-87287000D01*
X166847000Y-87287000D02*
X170209000Y-87287000D01*
X172691000Y-87327000D02*
X176071000Y-87327000D01*
X166829000Y-87327000D02*
X170209000Y-87327000D01*
X172691000Y-87367000D02*
X176089000Y-87367000D01*
X166811000Y-87367000D02*
X170209000Y-87367000D01*
X172691000Y-87407000D02*
X176107000Y-87407000D01*
X166793000Y-87407000D02*
X170209000Y-87407000D01*
X172691000Y-87447000D02*
X176124000Y-87447000D01*
X166776000Y-87447000D02*
X170209000Y-87447000D01*
X172691000Y-87487000D02*
X176140000Y-87487000D01*
X166760000Y-87487000D02*
X170209000Y-87487000D01*
X172691000Y-87527000D02*
X176157000Y-87527000D01*
X166743000Y-87527000D02*
X170209000Y-87527000D01*
X172691000Y-87567000D02*
X176173000Y-87567000D01*
X166727000Y-87567000D02*
X170209000Y-87567000D01*
X172691000Y-87607000D02*
X176188000Y-87607000D01*
X166712000Y-87607000D02*
X170209000Y-87607000D01*
X172691000Y-87647000D02*
X176204000Y-87647000D01*
X166696000Y-87647000D02*
X170209000Y-87647000D01*
X172691000Y-87687000D02*
X176218000Y-87687000D01*
X166682000Y-87687000D02*
X170209000Y-87687000D01*
X172691000Y-87727000D02*
X176233000Y-87727000D01*
X166667000Y-87727000D02*
X170209000Y-87727000D01*
X172691000Y-87767000D02*
X176247000Y-87767000D01*
X166653000Y-87767000D02*
X170209000Y-87767000D01*
X172691000Y-87807000D02*
X176261000Y-87807000D01*
X166639000Y-87807000D02*
X170209000Y-87807000D01*
X172691000Y-87847000D02*
X176274000Y-87847000D01*
X166626000Y-87847000D02*
X170209000Y-87847000D01*
X172691000Y-87887000D02*
X176287000Y-87887000D01*
X166613000Y-87887000D02*
X170209000Y-87887000D01*
X172691000Y-87927000D02*
X176300000Y-87927000D01*
X166600000Y-87927000D02*
X170209000Y-87927000D01*
X172691000Y-87967000D02*
X176312000Y-87967000D01*
X166588000Y-87967000D02*
X170209000Y-87967000D01*
X172691000Y-88007000D02*
X176324000Y-88007000D01*
X166576000Y-88007000D02*
X170209000Y-88007000D01*
X172691000Y-88047000D02*
X176335000Y-88047000D01*
X166565000Y-88047000D02*
X170209000Y-88047000D01*
X172691000Y-88087000D02*
X176347000Y-88087000D01*
X166553000Y-88087000D02*
X170209000Y-88087000D01*
X172691000Y-88127000D02*
X176357000Y-88127000D01*
X166543000Y-88127000D02*
X170209000Y-88127000D01*
X172691000Y-88167000D02*
X176368000Y-88167000D01*
X166532000Y-88167000D02*
X170209000Y-88167000D01*
X166522000Y-88207000D02*
X176378000Y-88207000D01*
X166512000Y-88247000D02*
X176388000Y-88247000D01*
X166503000Y-88287000D02*
X176397000Y-88287000D01*
X166494000Y-88327000D02*
X176406000Y-88327000D01*
X166485000Y-88367000D02*
X176415000Y-88367000D01*
X166476000Y-88407000D02*
X176424000Y-88407000D01*
X166468000Y-88447000D02*
X176432000Y-88447000D01*
X166460000Y-88487000D02*
X176440000Y-88487000D01*
X166453000Y-88527000D02*
X176447000Y-88527000D01*
X166446000Y-88567000D02*
X176454000Y-88567000D01*
X166439000Y-88607000D02*
X176461000Y-88607000D01*
X166432000Y-88647000D02*
X176468000Y-88647000D01*
X166426000Y-88687000D02*
X176474000Y-88687000D01*
X166420000Y-88727000D02*
X176480000Y-88727000D01*
X166415000Y-88768000D02*
X176485000Y-88768000D01*
X166410000Y-88808000D02*
X176490000Y-88808000D01*
X166405000Y-88848000D02*
X176495000Y-88848000D01*
X166400000Y-88888000D02*
X176500000Y-88888000D01*
X166396000Y-88928000D02*
X176504000Y-88928000D01*
X166392000Y-88968000D02*
X176508000Y-88968000D01*
X166388000Y-89008000D02*
X176512000Y-89008000D01*
X166385000Y-89048000D02*
X176515000Y-89048000D01*
X166382000Y-89088000D02*
X176518000Y-89088000D01*
X166380000Y-89128000D02*
X176520000Y-89128000D01*
X166377000Y-89168000D02*
X176523000Y-89168000D01*
X166375000Y-89208000D02*
X176525000Y-89208000D01*
X166373000Y-89248000D02*
X176527000Y-89248000D01*
X166372000Y-89288000D02*
X176528000Y-89288000D01*
X166371000Y-89328000D02*
X176529000Y-89328000D01*
X166370000Y-89368000D02*
X176530000Y-89368000D01*
X166370000Y-89408000D02*
X176530000Y-89408000D01*
X166370000Y-89448000D02*
X176530000Y-89448000D01*
X176570000Y-89448000D02*
G75*
G03*
X176570000Y-89448000I-5120000J0D01*
G01*
X181610000Y-81280000D02*
X182880000Y-81280000D01*
X181610000Y-82550000D02*
X181610000Y-81280000D01*
X183922929Y-93090000D02*
X184320000Y-93090000D01*
X183922929Y-92330000D02*
X184320000Y-92330000D01*
X192980000Y-93090000D02*
X186980000Y-93090000D01*
X192980000Y-92330000D02*
X192980000Y-93090000D01*
X186980000Y-92330000D02*
X192980000Y-92330000D01*
X184320000Y-91440000D02*
X186980000Y-91440000D01*
X183922929Y-90550000D02*
X184320000Y-90550000D01*
X183922929Y-89790000D02*
X184320000Y-89790000D01*
X192980000Y-90550000D02*
X186980000Y-90550000D01*
X192980000Y-89790000D02*
X192980000Y-90550000D01*
X186980000Y-89790000D02*
X192980000Y-89790000D01*
X184320000Y-88900000D02*
X186980000Y-88900000D01*
X183922929Y-88010000D02*
X184320000Y-88010000D01*
X183922929Y-87250000D02*
X184320000Y-87250000D01*
X192980000Y-88010000D02*
X186980000Y-88010000D01*
X192980000Y-87250000D02*
X192980000Y-88010000D01*
X186980000Y-87250000D02*
X192980000Y-87250000D01*
X184320000Y-86360000D02*
X186980000Y-86360000D01*
X183922929Y-85470000D02*
X184320000Y-85470000D01*
X183922929Y-84710000D02*
X184320000Y-84710000D01*
X192980000Y-85470000D02*
X186980000Y-85470000D01*
X192980000Y-84710000D02*
X192980000Y-85470000D01*
X186980000Y-84710000D02*
X192980000Y-84710000D01*
X184320000Y-83820000D02*
X186980000Y-83820000D01*
X183990000Y-82930000D02*
X184320000Y-82930000D01*
X183990000Y-82170000D02*
X184320000Y-82170000D01*
X186980000Y-82830000D02*
X192980000Y-82830000D01*
X186980000Y-82710000D02*
X192980000Y-82710000D01*
X186980000Y-82590000D02*
X192980000Y-82590000D01*
X186980000Y-82470000D02*
X192980000Y-82470000D01*
X186980000Y-82350000D02*
X192980000Y-82350000D01*
X186980000Y-82230000D02*
X192980000Y-82230000D01*
X192980000Y-82930000D02*
X186980000Y-82930000D01*
X192980000Y-82170000D02*
X192980000Y-82930000D01*
X186980000Y-82170000D02*
X192980000Y-82170000D01*
X186980000Y-81220000D02*
X184320000Y-81220000D01*
X186980000Y-94040000D02*
X186980000Y-81220000D01*
X184320000Y-94040000D02*
X186980000Y-94040000D01*
X184320000Y-81220000D02*
X184320000Y-94040000D01*
X135890000Y-93980000D02*
X134620000Y-93980000D01*
X135890000Y-92710000D02*
X135890000Y-93980000D01*
X133577071Y-82170000D02*
X133180000Y-82170000D01*
X133577071Y-82930000D02*
X133180000Y-82930000D01*
X124520000Y-82170000D02*
X130520000Y-82170000D01*
X124520000Y-82930000D02*
X124520000Y-82170000D01*
X130520000Y-82930000D02*
X124520000Y-82930000D01*
X133180000Y-83820000D02*
X130520000Y-83820000D01*
X133577071Y-84710000D02*
X133180000Y-84710000D01*
X133577071Y-85470000D02*
X133180000Y-85470000D01*
X124520000Y-84710000D02*
X130520000Y-84710000D01*
X124520000Y-85470000D02*
X124520000Y-84710000D01*
X130520000Y-85470000D02*
X124520000Y-85470000D01*
X133180000Y-86360000D02*
X130520000Y-86360000D01*
X133577071Y-87250000D02*
X133180000Y-87250000D01*
X133577071Y-88010000D02*
X133180000Y-88010000D01*
X124520000Y-87250000D02*
X130520000Y-87250000D01*
X124520000Y-88010000D02*
X124520000Y-87250000D01*
X130520000Y-88010000D02*
X124520000Y-88010000D01*
X133180000Y-88900000D02*
X130520000Y-88900000D01*
X133577071Y-89790000D02*
X133180000Y-89790000D01*
X133577071Y-90550000D02*
X133180000Y-90550000D01*
X124520000Y-89790000D02*
X130520000Y-89790000D01*
X124520000Y-90550000D02*
X124520000Y-89790000D01*
X130520000Y-90550000D02*
X124520000Y-90550000D01*
X133180000Y-91440000D02*
X130520000Y-91440000D01*
X133510000Y-92330000D02*
X133180000Y-92330000D01*
X133510000Y-93090000D02*
X133180000Y-93090000D01*
X130520000Y-92430000D02*
X124520000Y-92430000D01*
X130520000Y-92550000D02*
X124520000Y-92550000D01*
X130520000Y-92670000D02*
X124520000Y-92670000D01*
X130520000Y-92790000D02*
X124520000Y-92790000D01*
X130520000Y-92910000D02*
X124520000Y-92910000D01*
X130520000Y-93030000D02*
X124520000Y-93030000D01*
X124520000Y-92330000D02*
X130520000Y-92330000D01*
X124520000Y-93090000D02*
X124520000Y-92330000D01*
X130520000Y-93090000D02*
X124520000Y-93090000D01*
X130520000Y-94040000D02*
X133180000Y-94040000D01*
X130520000Y-81220000D02*
X130520000Y-94040000D01*
X133180000Y-81220000D02*
X130520000Y-81220000D01*
X133180000Y-94040000D02*
X133180000Y-81220000D01*
X151075000Y-76593000D02*
X147375000Y-76593000D01*
X151075000Y-70473000D02*
X151075000Y-76593000D01*
X147375000Y-70473000D02*
X151075000Y-70473000D01*
X147375000Y-76593000D02*
X147375000Y-70473000D01*
X148259000Y-63261000D02*
X142009000Y-63261000D01*
X148259000Y-68311000D02*
X142009000Y-68311000D01*
X148259000Y-63261000D02*
G75*
G02*
X148259000Y-68311000I0J-2525000D01*
G01*
X142009000Y-63261000D02*
G75*
G03*
X142009000Y-68311000I0J-2525000D01*
G01*
X173355000Y-67532333D02*
X174625000Y-67532333D01*
X174555000Y-68739000D02*
X174555000Y-67532333D01*
X174435000Y-68739000D02*
X174435000Y-67532333D01*
X174315000Y-68739000D02*
X174315000Y-67532333D01*
X174195000Y-68739000D02*
X174195000Y-67532333D01*
X174075000Y-68739000D02*
X174075000Y-67532333D01*
X173955000Y-68739000D02*
X173955000Y-67532333D01*
X173835000Y-68739000D02*
X173835000Y-67532333D01*
X173715000Y-68739000D02*
X173715000Y-67532333D01*
X173595000Y-68739000D02*
X173595000Y-67532333D01*
X173475000Y-68739000D02*
X173475000Y-67532333D01*
X173355000Y-65119000D02*
X173355000Y-68739000D01*
X174625000Y-65119000D02*
X173355000Y-65119000D01*
X174625000Y-68739000D02*
X174625000Y-65119000D01*
X173355000Y-68739000D02*
X174625000Y-68739000D01*
X170815000Y-67532333D02*
X172085000Y-67532333D01*
X172015000Y-68739000D02*
X172015000Y-67532333D01*
X171895000Y-68739000D02*
X171895000Y-67532333D01*
X171775000Y-68739000D02*
X171775000Y-67532333D01*
X171655000Y-68739000D02*
X171655000Y-67532333D01*
X171535000Y-68739000D02*
X171535000Y-67532333D01*
X171415000Y-68739000D02*
X171415000Y-67532333D01*
X171295000Y-68739000D02*
X171295000Y-67532333D01*
X171175000Y-68739000D02*
X171175000Y-67532333D01*
X171055000Y-68739000D02*
X171055000Y-67532333D01*
X170935000Y-68739000D02*
X170935000Y-67532333D01*
X170815000Y-65119000D02*
X170815000Y-68739000D01*
X172085000Y-65119000D02*
X170815000Y-65119000D01*
X172085000Y-68739000D02*
X172085000Y-65119000D01*
X170815000Y-68739000D02*
X172085000Y-68739000D01*
X168275000Y-67532333D02*
X169545000Y-67532333D01*
X169475000Y-68739000D02*
X169475000Y-67532333D01*
X169355000Y-68739000D02*
X169355000Y-67532333D01*
X169235000Y-68739000D02*
X169235000Y-67532333D01*
X169115000Y-68739000D02*
X169115000Y-67532333D01*
X168995000Y-68739000D02*
X168995000Y-67532333D01*
X168875000Y-68739000D02*
X168875000Y-67532333D01*
X168755000Y-68739000D02*
X168755000Y-67532333D01*
X168635000Y-68739000D02*
X168635000Y-67532333D01*
X168515000Y-68739000D02*
X168515000Y-67532333D01*
X168395000Y-68739000D02*
X168395000Y-67532333D01*
X168275000Y-65119000D02*
X168275000Y-68739000D01*
X169545000Y-65119000D02*
X168275000Y-65119000D01*
X169545000Y-68739000D02*
X169545000Y-65119000D01*
X168275000Y-68739000D02*
X169545000Y-68739000D01*
X165735000Y-67532333D02*
X167005000Y-67532333D01*
X166935000Y-68739000D02*
X166935000Y-67532333D01*
X166815000Y-68739000D02*
X166815000Y-67532333D01*
X166695000Y-68739000D02*
X166695000Y-67532333D01*
X166575000Y-68739000D02*
X166575000Y-67532333D01*
X166455000Y-68739000D02*
X166455000Y-67532333D01*
X166335000Y-68739000D02*
X166335000Y-67532333D01*
X166215000Y-68739000D02*
X166215000Y-67532333D01*
X166095000Y-68739000D02*
X166095000Y-67532333D01*
X165975000Y-68739000D02*
X165975000Y-67532333D01*
X165855000Y-68739000D02*
X165855000Y-67532333D01*
X165735000Y-65119000D02*
X165735000Y-68739000D01*
X167005000Y-65119000D02*
X165735000Y-65119000D01*
X167005000Y-68739000D02*
X167005000Y-65119000D01*
X165735000Y-68739000D02*
X167005000Y-68739000D01*
X163195000Y-67532333D02*
X164465000Y-67532333D01*
X164395000Y-68739000D02*
X164395000Y-67532333D01*
X164275000Y-68739000D02*
X164275000Y-67532333D01*
X164155000Y-68739000D02*
X164155000Y-67532333D01*
X164035000Y-68739000D02*
X164035000Y-67532333D01*
X163915000Y-68739000D02*
X163915000Y-67532333D01*
X163795000Y-68739000D02*
X163795000Y-67532333D01*
X163675000Y-68739000D02*
X163675000Y-67532333D01*
X163555000Y-68739000D02*
X163555000Y-67532333D01*
X163435000Y-68739000D02*
X163435000Y-67532333D01*
X163315000Y-68739000D02*
X163315000Y-67532333D01*
X163195000Y-65119000D02*
X163195000Y-68739000D01*
X164465000Y-65119000D02*
X163195000Y-65119000D01*
X164465000Y-68739000D02*
X164465000Y-65119000D01*
X163195000Y-68739000D02*
X164465000Y-68739000D01*
X161480000Y-70579000D02*
X162790000Y-70579000D01*
X161480000Y-70579000D02*
X161480000Y-69196000D01*
X164820000Y-63518000D02*
X165381000Y-63518000D01*
X161720000Y-63518000D02*
X162840000Y-63518000D01*
X167360000Y-63518000D02*
X167921000Y-63518000D01*
X169900000Y-63518000D02*
X170461000Y-63518000D01*
X172440000Y-63518000D02*
X173000000Y-63518000D01*
X174980000Y-63518000D02*
X176101000Y-63518000D01*
X174980000Y-70339000D02*
X176101000Y-70339000D01*
X172440000Y-70339000D02*
X173000000Y-70339000D01*
X169900000Y-70339000D02*
X170461000Y-70339000D01*
X167360000Y-70339000D02*
X167921000Y-70339000D01*
X164870000Y-70339000D02*
X165381000Y-70339000D01*
X161720000Y-70339000D02*
X162790000Y-70339000D01*
X176101000Y-70339000D02*
X176101000Y-63518000D01*
X161720000Y-70339000D02*
X161720000Y-63518000D01*
X147630000Y-57670000D02*
X147630000Y-59170000D01*
X148880000Y-61670000D02*
X153380000Y-61670000D01*
X154630000Y-59170000D02*
X154630000Y-57670000D01*
X153380000Y-55170000D02*
X148880000Y-55170000D01*
X160210000Y-56860000D02*
X160054000Y-56860000D01*
X162526000Y-56860000D02*
X162370000Y-56860000D01*
X162368608Y-60092335D02*
G75*
G03*
X162525516Y-56860000I-1078608J1672335D01*
G01*
X160211392Y-60092335D02*
G75*
G02*
X160054484Y-56860000I1078608J1672335D01*
G01*
X162369837Y-59461130D02*
G75*
G03*
X162370000Y-57379039I-1079837J1041130D01*
G01*
X160210163Y-59461130D02*
G75*
G02*
X160210000Y-57379039I1079837J1041130D01*
G01*
X165290000Y-56860000D02*
X165134000Y-56860000D01*
X167606000Y-56860000D02*
X167450000Y-56860000D01*
X167448608Y-60092335D02*
G75*
G03*
X167605516Y-56860000I-1078608J1672335D01*
G01*
X165291392Y-60092335D02*
G75*
G02*
X165134484Y-56860000I1078608J1672335D01*
G01*
X167449837Y-59461130D02*
G75*
G03*
X167450000Y-57379039I-1079837J1041130D01*
G01*
X165290163Y-59461130D02*
G75*
G02*
X165290000Y-57379039I1079837J1041130D01*
G01*
X170370000Y-56860000D02*
X170214000Y-56860000D01*
X172686000Y-56860000D02*
X172530000Y-56860000D01*
X172528608Y-60092335D02*
G75*
G03*
X172685516Y-56860000I-1078608J1672335D01*
G01*
X170371392Y-60092335D02*
G75*
G02*
X170214484Y-56860000I1078608J1672335D01*
G01*
X172529837Y-59461130D02*
G75*
G03*
X172530000Y-57379039I-1079837J1041130D01*
G01*
X170370163Y-59461130D02*
G75*
G02*
X170370000Y-57379039I1079837J1041130D01*
G01*
D15*
X133818380Y-73995238D02*
X134532666Y-73995238D01*
X134675523Y-74042857D01*
X134770761Y-74138095D01*
X134818380Y-74280952D01*
X134818380Y-74376190D01*
X133818380Y-73614285D02*
X133818380Y-72947619D01*
X134818380Y-73376190D01*
X133818380Y-72376190D02*
X133818380Y-72280952D01*
X133866000Y-72185714D01*
X133913619Y-72138095D01*
X134008857Y-72090476D01*
X134199333Y-72042857D01*
X134437428Y-72042857D01*
X134627904Y-72090476D01*
X134723142Y-72138095D01*
X134770761Y-72185714D01*
X134818380Y-72280952D01*
X134818380Y-72376190D01*
X134770761Y-72471428D01*
X134723142Y-72519047D01*
X134627904Y-72566666D01*
X134437428Y-72614285D01*
X134199333Y-72614285D01*
X134008857Y-72566666D01*
X133913619Y-72519047D01*
X133866000Y-72471428D01*
X133818380Y-72376190D01*
X134818380Y-71090476D02*
X134818380Y-71661904D01*
X134818380Y-71376190D02*
X133818380Y-71376190D01*
X133961238Y-71471428D01*
X134056476Y-71566666D01*
X134104095Y-71661904D01*
X131186833Y-68801500D02*
X131120166Y-68768166D01*
X131020166Y-68768166D01*
X130920166Y-68801500D01*
X130853500Y-68868166D01*
X130820166Y-68934833D01*
X130786833Y-69068166D01*
X130786833Y-69168166D01*
X130820166Y-69301500D01*
X130853500Y-69368166D01*
X130920166Y-69434833D01*
X131020166Y-69468166D01*
X131086833Y-69468166D01*
X131186833Y-69434833D01*
X131220166Y-69401500D01*
X131220166Y-69168166D01*
X131086833Y-69168166D01*
X131520166Y-69468166D02*
X131520166Y-68768166D01*
X131920166Y-69468166D01*
X131920166Y-68768166D01*
X132253500Y-69468166D02*
X132253500Y-68768166D01*
X132420166Y-68768166D01*
X132520166Y-68801500D01*
X132586833Y-68868166D01*
X132620166Y-68934833D01*
X132653500Y-69068166D01*
X132653500Y-69168166D01*
X132620166Y-69301500D01*
X132586833Y-69368166D01*
X132520166Y-69434833D01*
X132420166Y-69468166D01*
X132253500Y-69468166D01*
X130820166Y-75818166D02*
X130820166Y-75118166D01*
X131053500Y-75618166D01*
X131286833Y-75118166D01*
X131286833Y-75818166D01*
X131620166Y-75818166D02*
X131620166Y-75118166D01*
X131920166Y-75784833D02*
X132020166Y-75818166D01*
X132186833Y-75818166D01*
X132253500Y-75784833D01*
X132286833Y-75751500D01*
X132320166Y-75684833D01*
X132320166Y-75618166D01*
X132286833Y-75551500D01*
X132253500Y-75518166D01*
X132186833Y-75484833D01*
X132053500Y-75451500D01*
X131986833Y-75418166D01*
X131953500Y-75384833D01*
X131920166Y-75318166D01*
X131920166Y-75251500D01*
X131953500Y-75184833D01*
X131986833Y-75151500D01*
X132053500Y-75118166D01*
X132220166Y-75118166D01*
X132320166Y-75151500D01*
X132753500Y-75118166D02*
X132886833Y-75118166D01*
X132953500Y-75151500D01*
X133020166Y-75218166D01*
X133053500Y-75351500D01*
X133053500Y-75584833D01*
X133020166Y-75718166D01*
X132953500Y-75784833D01*
X132886833Y-75818166D01*
X132753500Y-75818166D01*
X132686833Y-75784833D01*
X132620166Y-75718166D01*
X132586833Y-75584833D01*
X132586833Y-75351500D01*
X132620166Y-75218166D01*
X132686833Y-75151500D01*
X132753500Y-75118166D01*
X130820166Y-72008166D02*
X130820166Y-71308166D01*
X131053500Y-71808166D01*
X131286833Y-71308166D01*
X131286833Y-72008166D01*
X131753500Y-71308166D02*
X131886833Y-71308166D01*
X131953500Y-71341500D01*
X132020166Y-71408166D01*
X132053500Y-71541500D01*
X132053500Y-71774833D01*
X132020166Y-71908166D01*
X131953500Y-71974833D01*
X131886833Y-72008166D01*
X131753500Y-72008166D01*
X131686833Y-71974833D01*
X131620166Y-71908166D01*
X131586833Y-71774833D01*
X131586833Y-71541500D01*
X131620166Y-71408166D01*
X131686833Y-71341500D01*
X131753500Y-71308166D01*
X132320166Y-71974833D02*
X132420166Y-72008166D01*
X132586833Y-72008166D01*
X132653500Y-71974833D01*
X132686833Y-71941500D01*
X132720166Y-71874833D01*
X132720166Y-71808166D01*
X132686833Y-71741500D01*
X132653500Y-71708166D01*
X132586833Y-71674833D01*
X132453500Y-71641500D01*
X132386833Y-71608166D01*
X132353500Y-71574833D01*
X132320166Y-71508166D01*
X132320166Y-71441500D01*
X132353500Y-71374833D01*
X132386833Y-71341500D01*
X132453500Y-71308166D01*
X132620166Y-71308166D01*
X132720166Y-71341500D01*
X133020166Y-72008166D02*
X133020166Y-71308166D01*
X130653500Y-69722500D02*
X131353500Y-69722500D01*
X131220166Y-70738166D02*
X130986833Y-70404833D01*
X130820166Y-70738166D02*
X130820166Y-70038166D01*
X131086833Y-70038166D01*
X131153500Y-70071500D01*
X131186833Y-70104833D01*
X131220166Y-70171500D01*
X131220166Y-70271500D01*
X131186833Y-70338166D01*
X131153500Y-70371500D01*
X131086833Y-70404833D01*
X130820166Y-70404833D01*
X131353500Y-69722500D02*
X131953500Y-69722500D01*
X131786833Y-70704833D02*
X131720166Y-70738166D01*
X131586833Y-70738166D01*
X131520166Y-70704833D01*
X131486833Y-70638166D01*
X131486833Y-70371500D01*
X131520166Y-70304833D01*
X131586833Y-70271500D01*
X131720166Y-70271500D01*
X131786833Y-70304833D01*
X131820166Y-70371500D01*
X131820166Y-70438166D01*
X131486833Y-70504833D01*
X131953500Y-69722500D02*
X132520166Y-69722500D01*
X132086833Y-70704833D02*
X132153500Y-70738166D01*
X132286833Y-70738166D01*
X132353500Y-70704833D01*
X132386833Y-70638166D01*
X132386833Y-70604833D01*
X132353500Y-70538166D01*
X132286833Y-70504833D01*
X132186833Y-70504833D01*
X132120166Y-70471500D01*
X132086833Y-70404833D01*
X132086833Y-70371500D01*
X132120166Y-70304833D01*
X132186833Y-70271500D01*
X132286833Y-70271500D01*
X132353500Y-70304833D01*
X132520166Y-69722500D02*
X133120166Y-69722500D01*
X132953500Y-70704833D02*
X132886833Y-70738166D01*
X132753500Y-70738166D01*
X132686833Y-70704833D01*
X132653500Y-70638166D01*
X132653500Y-70371500D01*
X132686833Y-70304833D01*
X132753500Y-70271500D01*
X132886833Y-70271500D01*
X132953500Y-70304833D01*
X132986833Y-70371500D01*
X132986833Y-70438166D01*
X132653500Y-70504833D01*
X133120166Y-69722500D02*
X133520166Y-69722500D01*
X133186833Y-70271500D02*
X133453500Y-70271500D01*
X133286833Y-70038166D02*
X133286833Y-70638166D01*
X133320166Y-70704833D01*
X133386833Y-70738166D01*
X133453500Y-70738166D01*
X130786833Y-73244833D02*
X130886833Y-73278166D01*
X131053500Y-73278166D01*
X131120166Y-73244833D01*
X131153500Y-73211500D01*
X131186833Y-73144833D01*
X131186833Y-73078166D01*
X131153500Y-73011500D01*
X131120166Y-72978166D01*
X131053500Y-72944833D01*
X130920166Y-72911500D01*
X130853500Y-72878166D01*
X130820166Y-72844833D01*
X130786833Y-72778166D01*
X130786833Y-72711500D01*
X130820166Y-72644833D01*
X130853500Y-72611500D01*
X130920166Y-72578166D01*
X131086833Y-72578166D01*
X131186833Y-72611500D01*
X131886833Y-73211500D02*
X131853500Y-73244833D01*
X131753500Y-73278166D01*
X131686833Y-73278166D01*
X131586833Y-73244833D01*
X131520166Y-73178166D01*
X131486833Y-73111500D01*
X131453500Y-72978166D01*
X131453500Y-72878166D01*
X131486833Y-72744833D01*
X131520166Y-72678166D01*
X131586833Y-72611500D01*
X131686833Y-72578166D01*
X131753500Y-72578166D01*
X131853500Y-72611500D01*
X131886833Y-72644833D01*
X132186833Y-73278166D02*
X132186833Y-72578166D01*
X132586833Y-73278166D02*
X132286833Y-72878166D01*
X132586833Y-72578166D02*
X132186833Y-72978166D01*
X130820166Y-74281500D02*
X131353500Y-74281500D01*
X131086833Y-74548166D02*
X131086833Y-74014833D01*
X132020166Y-73848166D02*
X131686833Y-73848166D01*
X131653500Y-74181500D01*
X131686833Y-74148166D01*
X131753500Y-74114833D01*
X131920166Y-74114833D01*
X131986833Y-74148166D01*
X132020166Y-74181500D01*
X132053500Y-74248166D01*
X132053500Y-74414833D01*
X132020166Y-74481500D01*
X131986833Y-74514833D01*
X131920166Y-74548166D01*
X131753500Y-74548166D01*
X131686833Y-74514833D01*
X131653500Y-74481500D01*
X132253500Y-73848166D02*
X132486833Y-74548166D01*
X132720166Y-73848166D01*
X129094666Y-73009833D02*
X128394666Y-73009833D01*
X129061333Y-72709833D02*
X129094666Y-72609833D01*
X129094666Y-72443166D01*
X129061333Y-72376500D01*
X129028000Y-72343166D01*
X128961333Y-72309833D01*
X128894666Y-72309833D01*
X128828000Y-72343166D01*
X128794666Y-72376500D01*
X128761333Y-72443166D01*
X128728000Y-72576500D01*
X128694666Y-72643166D01*
X128661333Y-72676500D01*
X128594666Y-72709833D01*
X128528000Y-72709833D01*
X128461333Y-72676500D01*
X128428000Y-72643166D01*
X128394666Y-72576500D01*
X128394666Y-72409833D01*
X128428000Y-72309833D01*
X129094666Y-72009833D02*
X128394666Y-72009833D01*
X128394666Y-71743166D01*
X128428000Y-71676500D01*
X128461333Y-71643166D01*
X128528000Y-71609833D01*
X128628000Y-71609833D01*
X128694666Y-71643166D01*
X128728000Y-71676500D01*
X128761333Y-71743166D01*
X128761333Y-72009833D01*
X160387309Y-80986380D02*
X160387309Y-81700666D01*
X160339690Y-81843523D01*
X160244452Y-81938761D01*
X160101595Y-81986380D01*
X160006357Y-81986380D01*
X161339690Y-80986380D02*
X160863500Y-80986380D01*
X160815880Y-81462571D01*
X160863500Y-81414952D01*
X160958738Y-81367333D01*
X161196833Y-81367333D01*
X161292071Y-81414952D01*
X161339690Y-81462571D01*
X161387309Y-81557809D01*
X161387309Y-81795904D01*
X161339690Y-81891142D01*
X161292071Y-81938761D01*
X161196833Y-81986380D01*
X160958738Y-81986380D01*
X160863500Y-81938761D01*
X160815880Y-81891142D01*
X162006357Y-80986380D02*
X162101595Y-80986380D01*
X162196833Y-81034000D01*
X162244452Y-81081619D01*
X162292071Y-81176857D01*
X162339690Y-81367333D01*
X162339690Y-81605428D01*
X162292071Y-81795904D01*
X162244452Y-81891142D01*
X162196833Y-81938761D01*
X162101595Y-81986380D01*
X162006357Y-81986380D01*
X161911119Y-81938761D01*
X161863500Y-81891142D01*
X161815880Y-81795904D01*
X161768261Y-81605428D01*
X161768261Y-81367333D01*
X161815880Y-81176857D01*
X161863500Y-81081619D01*
X161911119Y-81034000D01*
X162006357Y-80986380D01*
X162720642Y-81081619D02*
X162768261Y-81034000D01*
X162863500Y-80986380D01*
X163101595Y-80986380D01*
X163196833Y-81034000D01*
X163244452Y-81081619D01*
X163292071Y-81176857D01*
X163292071Y-81272095D01*
X163244452Y-81414952D01*
X162673023Y-81986380D01*
X163292071Y-81986380D01*
X159877285Y-105973571D02*
X159543952Y-105973571D01*
X159543952Y-106497380D02*
X159543952Y-105497380D01*
X160020142Y-105497380D01*
X160305857Y-105497380D02*
X160924904Y-105497380D01*
X160591571Y-105878333D01*
X160734428Y-105878333D01*
X160829666Y-105925952D01*
X160877285Y-105973571D01*
X160924904Y-106068809D01*
X160924904Y-106306904D01*
X160877285Y-106402142D01*
X160829666Y-106449761D01*
X160734428Y-106497380D01*
X160448714Y-106497380D01*
X160353476Y-106449761D01*
X160305857Y-106402142D01*
X161543952Y-105497380D02*
X161639190Y-105497380D01*
X161734428Y-105545000D01*
X161782047Y-105592619D01*
X161829666Y-105687857D01*
X161877285Y-105878333D01*
X161877285Y-106116428D01*
X161829666Y-106306904D01*
X161782047Y-106402142D01*
X161734428Y-106449761D01*
X161639190Y-106497380D01*
X161543952Y-106497380D01*
X161448714Y-106449761D01*
X161401095Y-106402142D01*
X161353476Y-106306904D01*
X161305857Y-106116428D01*
X161305857Y-105878333D01*
X161353476Y-105687857D01*
X161401095Y-105592619D01*
X161448714Y-105545000D01*
X161543952Y-105497380D01*
X162829666Y-106497380D02*
X162258238Y-106497380D01*
X162543952Y-106497380D02*
X162543952Y-105497380D01*
X162448714Y-105640238D01*
X162353476Y-105735476D01*
X162258238Y-105783095D01*
X183705714Y-55062380D02*
X183705714Y-54062380D01*
X183705714Y-54538571D02*
X184277142Y-54538571D01*
X184277142Y-55062380D02*
X184277142Y-54062380D01*
X184705714Y-54157619D02*
X184753333Y-54110000D01*
X184848571Y-54062380D01*
X185086666Y-54062380D01*
X185181904Y-54110000D01*
X185229523Y-54157619D01*
X185277142Y-54252857D01*
X185277142Y-54348095D01*
X185229523Y-54490952D01*
X184658095Y-55062380D01*
X185277142Y-55062380D01*
X185896190Y-54062380D02*
X185991428Y-54062380D01*
X186086666Y-54110000D01*
X186134285Y-54157619D01*
X186181904Y-54252857D01*
X186229523Y-54443333D01*
X186229523Y-54681428D01*
X186181904Y-54871904D01*
X186134285Y-54967142D01*
X186086666Y-55014761D01*
X185991428Y-55062380D01*
X185896190Y-55062380D01*
X185800952Y-55014761D01*
X185753333Y-54967142D01*
X185705714Y-54871904D01*
X185658095Y-54681428D01*
X185658095Y-54443333D01*
X185705714Y-54252857D01*
X185753333Y-54157619D01*
X185800952Y-54110000D01*
X185896190Y-54062380D01*
X186562857Y-54062380D02*
X187181904Y-54062380D01*
X186848571Y-54443333D01*
X186991428Y-54443333D01*
X187086666Y-54490952D01*
X187134285Y-54538571D01*
X187181904Y-54633809D01*
X187181904Y-54871904D01*
X187134285Y-54967142D01*
X187086666Y-55014761D01*
X186991428Y-55062380D01*
X186705714Y-55062380D01*
X186610476Y-55014761D01*
X186562857Y-54967142D01*
X142541785Y-119149880D02*
X142541785Y-119864166D01*
X142494166Y-120007023D01*
X142398928Y-120102261D01*
X142256071Y-120149880D01*
X142160833Y-120149880D01*
X143446547Y-119483214D02*
X143446547Y-120149880D01*
X143208452Y-119102261D02*
X142970357Y-119816547D01*
X143589404Y-119816547D01*
X144160833Y-119149880D02*
X144256071Y-119149880D01*
X144351309Y-119197500D01*
X144398928Y-119245119D01*
X144446547Y-119340357D01*
X144494166Y-119530833D01*
X144494166Y-119768928D01*
X144446547Y-119959404D01*
X144398928Y-120054642D01*
X144351309Y-120102261D01*
X144256071Y-120149880D01*
X144160833Y-120149880D01*
X144065595Y-120102261D01*
X144017976Y-120054642D01*
X143970357Y-119959404D01*
X143922738Y-119768928D01*
X143922738Y-119530833D01*
X143970357Y-119340357D01*
X144017976Y-119245119D01*
X144065595Y-119197500D01*
X144160833Y-119149880D01*
X145446547Y-120149880D02*
X144875119Y-120149880D01*
X145160833Y-120149880D02*
X145160833Y-119149880D01*
X145065595Y-119292738D01*
X144970357Y-119387976D01*
X144875119Y-119435595D01*
X137350714Y-108037380D02*
X137350714Y-108846904D01*
X137398333Y-108942142D01*
X137445952Y-108989761D01*
X137541190Y-109037380D01*
X137731666Y-109037380D01*
X137826904Y-108989761D01*
X137874523Y-108942142D01*
X137922142Y-108846904D01*
X137922142Y-108037380D01*
X138826904Y-108370714D02*
X138826904Y-109037380D01*
X138588809Y-107989761D02*
X138350714Y-108704047D01*
X138969761Y-108704047D01*
X139541190Y-108037380D02*
X139636428Y-108037380D01*
X139731666Y-108085000D01*
X139779285Y-108132619D01*
X139826904Y-108227857D01*
X139874523Y-108418333D01*
X139874523Y-108656428D01*
X139826904Y-108846904D01*
X139779285Y-108942142D01*
X139731666Y-108989761D01*
X139636428Y-109037380D01*
X139541190Y-109037380D01*
X139445952Y-108989761D01*
X139398333Y-108942142D01*
X139350714Y-108846904D01*
X139303095Y-108656428D01*
X139303095Y-108418333D01*
X139350714Y-108227857D01*
X139398333Y-108132619D01*
X139445952Y-108085000D01*
X139541190Y-108037380D01*
X140255476Y-108132619D02*
X140303095Y-108085000D01*
X140398333Y-108037380D01*
X140636428Y-108037380D01*
X140731666Y-108085000D01*
X140779285Y-108132619D01*
X140826904Y-108227857D01*
X140826904Y-108323095D01*
X140779285Y-108465952D01*
X140207857Y-109037380D01*
X140826904Y-109037380D01*
X155686285Y-119149880D02*
X155686285Y-119864166D01*
X155638666Y-120007023D01*
X155543428Y-120102261D01*
X155400571Y-120149880D01*
X155305333Y-120149880D01*
X156591047Y-119149880D02*
X156400571Y-119149880D01*
X156305333Y-119197500D01*
X156257714Y-119245119D01*
X156162476Y-119387976D01*
X156114857Y-119578452D01*
X156114857Y-119959404D01*
X156162476Y-120054642D01*
X156210095Y-120102261D01*
X156305333Y-120149880D01*
X156495809Y-120149880D01*
X156591047Y-120102261D01*
X156638666Y-120054642D01*
X156686285Y-119959404D01*
X156686285Y-119721309D01*
X156638666Y-119626071D01*
X156591047Y-119578452D01*
X156495809Y-119530833D01*
X156305333Y-119530833D01*
X156210095Y-119578452D01*
X156162476Y-119626071D01*
X156114857Y-119721309D01*
X157305333Y-119149880D02*
X157400571Y-119149880D01*
X157495809Y-119197500D01*
X157543428Y-119245119D01*
X157591047Y-119340357D01*
X157638666Y-119530833D01*
X157638666Y-119768928D01*
X157591047Y-119959404D01*
X157543428Y-120054642D01*
X157495809Y-120102261D01*
X157400571Y-120149880D01*
X157305333Y-120149880D01*
X157210095Y-120102261D01*
X157162476Y-120054642D01*
X157114857Y-119959404D01*
X157067238Y-119768928D01*
X157067238Y-119530833D01*
X157114857Y-119340357D01*
X157162476Y-119245119D01*
X157210095Y-119197500D01*
X157305333Y-119149880D01*
X158591047Y-120149880D02*
X158019619Y-120149880D01*
X158305333Y-120149880D02*
X158305333Y-119149880D01*
X158210095Y-119292738D01*
X158114857Y-119387976D01*
X158019619Y-119435595D01*
X177299261Y-118772380D02*
X177299261Y-119486666D01*
X177251642Y-119629523D01*
X177156404Y-119724761D01*
X177013547Y-119772380D01*
X176918309Y-119772380D01*
X177680214Y-118772380D02*
X178299261Y-118772380D01*
X177965928Y-119153333D01*
X178108785Y-119153333D01*
X178204023Y-119200952D01*
X178251642Y-119248571D01*
X178299261Y-119343809D01*
X178299261Y-119581904D01*
X178251642Y-119677142D01*
X178204023Y-119724761D01*
X178108785Y-119772380D01*
X177823071Y-119772380D01*
X177727833Y-119724761D01*
X177680214Y-119677142D01*
X178918309Y-118772380D02*
X179013547Y-118772380D01*
X179108785Y-118820000D01*
X179156404Y-118867619D01*
X179204023Y-118962857D01*
X179251642Y-119153333D01*
X179251642Y-119391428D01*
X179204023Y-119581904D01*
X179156404Y-119677142D01*
X179108785Y-119724761D01*
X179013547Y-119772380D01*
X178918309Y-119772380D01*
X178823071Y-119724761D01*
X178775452Y-119677142D01*
X178727833Y-119581904D01*
X178680214Y-119391428D01*
X178680214Y-119153333D01*
X178727833Y-118962857D01*
X178775452Y-118867619D01*
X178823071Y-118820000D01*
X178918309Y-118772380D01*
X180204023Y-119772380D02*
X179632595Y-119772380D01*
X179918309Y-119772380D02*
X179918309Y-118772380D01*
X179823071Y-118915238D01*
X179727833Y-119010476D01*
X179632595Y-119058095D01*
D16*
X139617619Y-61829904D02*
X139617619Y-61029904D01*
X139808095Y-61029904D01*
X139922380Y-61068000D01*
X139998571Y-61144190D01*
X140036666Y-61220380D01*
X140074761Y-61372761D01*
X140074761Y-61487047D01*
X140036666Y-61639428D01*
X139998571Y-61715619D01*
X139922380Y-61791809D01*
X139808095Y-61829904D01*
X139617619Y-61829904D01*
X140341428Y-61029904D02*
X140874761Y-61029904D01*
X140531904Y-61829904D01*
X141331904Y-61029904D02*
X141408095Y-61029904D01*
X141484285Y-61068000D01*
X141522380Y-61106095D01*
X141560476Y-61182285D01*
X141598571Y-61334666D01*
X141598571Y-61525142D01*
X141560476Y-61677523D01*
X141522380Y-61753714D01*
X141484285Y-61791809D01*
X141408095Y-61829904D01*
X141331904Y-61829904D01*
X141255714Y-61791809D01*
X141217619Y-61753714D01*
X141179523Y-61677523D01*
X141141428Y-61525142D01*
X141141428Y-61334666D01*
X141179523Y-61182285D01*
X141217619Y-61106095D01*
X141255714Y-61068000D01*
X141331904Y-61029904D01*
X142360476Y-61829904D02*
X141903333Y-61829904D01*
X142131904Y-61829904D02*
X142131904Y-61029904D01*
X142055714Y-61144190D01*
X141979523Y-61220380D01*
X141903333Y-61258476D01*
D15*
X177601571Y-72378095D02*
X177649190Y-72235238D01*
X177696809Y-72187619D01*
X177792047Y-72140000D01*
X177934904Y-72140000D01*
X178030142Y-72187619D01*
X178077761Y-72235238D01*
X178125380Y-72330476D01*
X178125380Y-72711428D01*
X177125380Y-72711428D01*
X177125380Y-72378095D01*
X177173000Y-72282857D01*
X177220619Y-72235238D01*
X177315857Y-72187619D01*
X177411095Y-72187619D01*
X177506333Y-72235238D01*
X177553952Y-72282857D01*
X177601571Y-72378095D01*
X177601571Y-72711428D01*
X177125380Y-71854285D02*
X177125380Y-71282857D01*
X178125380Y-71568571D02*
X177125380Y-71568571D01*
X178125380Y-70901904D02*
X178125380Y-70711428D01*
X178077761Y-70616190D01*
X178030142Y-70568571D01*
X177887285Y-70473333D01*
X177696809Y-70425714D01*
X177315857Y-70425714D01*
X177220619Y-70473333D01*
X177173000Y-70520952D01*
X177125380Y-70616190D01*
X177125380Y-70806666D01*
X177173000Y-70901904D01*
X177220619Y-70949523D01*
X177315857Y-70997142D01*
X177553952Y-70997142D01*
X177649190Y-70949523D01*
X177696809Y-70901904D01*
X177744428Y-70806666D01*
X177744428Y-70616190D01*
X177696809Y-70520952D01*
X177649190Y-70473333D01*
X177553952Y-70425714D01*
X177125380Y-69806666D02*
X177125380Y-69711428D01*
X177173000Y-69616190D01*
X177220619Y-69568571D01*
X177315857Y-69520952D01*
X177506333Y-69473333D01*
X177744428Y-69473333D01*
X177934904Y-69520952D01*
X178030142Y-69568571D01*
X178077761Y-69616190D01*
X178125380Y-69711428D01*
X178125380Y-69806666D01*
X178077761Y-69901904D01*
X178030142Y-69949523D01*
X177934904Y-69997142D01*
X177744428Y-70044761D01*
X177506333Y-70044761D01*
X177315857Y-69997142D01*
X177220619Y-69949523D01*
X177173000Y-69901904D01*
X177125380Y-69806666D01*
X178125380Y-68520952D02*
X178125380Y-69092380D01*
X178125380Y-68806666D02*
X177125380Y-68806666D01*
X177268238Y-68901904D01*
X177363476Y-68997142D01*
X177411095Y-69092380D01*
D16*
X175253819Y-61779104D02*
X175253819Y-60979104D01*
X175444295Y-60979104D01*
X175558580Y-61017200D01*
X175634771Y-61093390D01*
X175672866Y-61169580D01*
X175710961Y-61321961D01*
X175710961Y-61436247D01*
X175672866Y-61588628D01*
X175634771Y-61664819D01*
X175558580Y-61741009D01*
X175444295Y-61779104D01*
X175253819Y-61779104D01*
X175977628Y-60979104D02*
X176510961Y-60979104D01*
X176168104Y-61779104D01*
X176968104Y-60979104D02*
X177044295Y-60979104D01*
X177120485Y-61017200D01*
X177158580Y-61055295D01*
X177196676Y-61131485D01*
X177234771Y-61283866D01*
X177234771Y-61474342D01*
X177196676Y-61626723D01*
X177158580Y-61702914D01*
X177120485Y-61741009D01*
X177044295Y-61779104D01*
X176968104Y-61779104D01*
X176891914Y-61741009D01*
X176853819Y-61702914D01*
X176815723Y-61626723D01*
X176777628Y-61474342D01*
X176777628Y-61283866D01*
X176815723Y-61131485D01*
X176853819Y-61055295D01*
X176891914Y-61017200D01*
X176968104Y-60979104D01*
X177539533Y-61055295D02*
X177577628Y-61017200D01*
X177653819Y-60979104D01*
X177844295Y-60979104D01*
X177920485Y-61017200D01*
X177958580Y-61055295D01*
X177996676Y-61131485D01*
X177996676Y-61207676D01*
X177958580Y-61321961D01*
X177501438Y-61779104D01*
X177996676Y-61779104D01*
D15*
X144930952Y-83415142D02*
X144883333Y-83462761D01*
X144740476Y-83510380D01*
X144645238Y-83510380D01*
X144502380Y-83462761D01*
X144407142Y-83367523D01*
X144359523Y-83272285D01*
X144311904Y-83081809D01*
X144311904Y-82938952D01*
X144359523Y-82748476D01*
X144407142Y-82653238D01*
X144502380Y-82558000D01*
X144645238Y-82510380D01*
X144740476Y-82510380D01*
X144883333Y-82558000D01*
X144930952Y-82605619D01*
X145835714Y-82510380D02*
X145359523Y-82510380D01*
X145311904Y-82986571D01*
X145359523Y-82938952D01*
X145454761Y-82891333D01*
X145692857Y-82891333D01*
X145788095Y-82938952D01*
X145835714Y-82986571D01*
X145883333Y-83081809D01*
X145883333Y-83319904D01*
X145835714Y-83415142D01*
X145788095Y-83462761D01*
X145692857Y-83510380D01*
X145454761Y-83510380D01*
X145359523Y-83462761D01*
X145311904Y-83415142D01*
X146502380Y-82510380D02*
X146597619Y-82510380D01*
X146692857Y-82558000D01*
X146740476Y-82605619D01*
X146788095Y-82700857D01*
X146835714Y-82891333D01*
X146835714Y-83129428D01*
X146788095Y-83319904D01*
X146740476Y-83415142D01*
X146692857Y-83462761D01*
X146597619Y-83510380D01*
X146502380Y-83510380D01*
X146407142Y-83462761D01*
X146359523Y-83415142D01*
X146311904Y-83319904D01*
X146264285Y-83129428D01*
X146264285Y-82891333D01*
X146311904Y-82700857D01*
X146359523Y-82605619D01*
X146407142Y-82558000D01*
X146502380Y-82510380D01*
X147169047Y-82510380D02*
X147788095Y-82510380D01*
X147454761Y-82891333D01*
X147597619Y-82891333D01*
X147692857Y-82938952D01*
X147740476Y-82986571D01*
X147788095Y-83081809D01*
X147788095Y-83319904D01*
X147740476Y-83415142D01*
X147692857Y-83462761D01*
X147597619Y-83510380D01*
X147311904Y-83510380D01*
X147216666Y-83462761D01*
X147169047Y-83415142D01*
X170330952Y-83415142D02*
X170283333Y-83462761D01*
X170140476Y-83510380D01*
X170045238Y-83510380D01*
X169902380Y-83462761D01*
X169807142Y-83367523D01*
X169759523Y-83272285D01*
X169711904Y-83081809D01*
X169711904Y-82938952D01*
X169759523Y-82748476D01*
X169807142Y-82653238D01*
X169902380Y-82558000D01*
X170045238Y-82510380D01*
X170140476Y-82510380D01*
X170283333Y-82558000D01*
X170330952Y-82605619D01*
X171235714Y-82510380D02*
X170759523Y-82510380D01*
X170711904Y-82986571D01*
X170759523Y-82938952D01*
X170854761Y-82891333D01*
X171092857Y-82891333D01*
X171188095Y-82938952D01*
X171235714Y-82986571D01*
X171283333Y-83081809D01*
X171283333Y-83319904D01*
X171235714Y-83415142D01*
X171188095Y-83462761D01*
X171092857Y-83510380D01*
X170854761Y-83510380D01*
X170759523Y-83462761D01*
X170711904Y-83415142D01*
X171902380Y-82510380D02*
X171997619Y-82510380D01*
X172092857Y-82558000D01*
X172140476Y-82605619D01*
X172188095Y-82700857D01*
X172235714Y-82891333D01*
X172235714Y-83129428D01*
X172188095Y-83319904D01*
X172140476Y-83415142D01*
X172092857Y-83462761D01*
X171997619Y-83510380D01*
X171902380Y-83510380D01*
X171807142Y-83462761D01*
X171759523Y-83415142D01*
X171711904Y-83319904D01*
X171664285Y-83129428D01*
X171664285Y-82891333D01*
X171711904Y-82700857D01*
X171759523Y-82605619D01*
X171807142Y-82558000D01*
X171902380Y-82510380D01*
X173140476Y-82510380D02*
X172664285Y-82510380D01*
X172616666Y-82986571D01*
X172664285Y-82938952D01*
X172759523Y-82891333D01*
X172997619Y-82891333D01*
X173092857Y-82938952D01*
X173140476Y-82986571D01*
X173188095Y-83081809D01*
X173188095Y-83319904D01*
X173140476Y-83415142D01*
X173092857Y-83462761D01*
X172997619Y-83510380D01*
X172759523Y-83510380D01*
X172664285Y-83462761D01*
X172616666Y-83415142D01*
X130365714Y-55062380D02*
X130365714Y-54062380D01*
X130365714Y-54538571D02*
X130937142Y-54538571D01*
X130937142Y-55062380D02*
X130937142Y-54062380D01*
X131365714Y-54157619D02*
X131413333Y-54110000D01*
X131508571Y-54062380D01*
X131746666Y-54062380D01*
X131841904Y-54110000D01*
X131889523Y-54157619D01*
X131937142Y-54252857D01*
X131937142Y-54348095D01*
X131889523Y-54490952D01*
X131318095Y-55062380D01*
X131937142Y-55062380D01*
X132556190Y-54062380D02*
X132651428Y-54062380D01*
X132746666Y-54110000D01*
X132794285Y-54157619D01*
X132841904Y-54252857D01*
X132889523Y-54443333D01*
X132889523Y-54681428D01*
X132841904Y-54871904D01*
X132794285Y-54967142D01*
X132746666Y-55014761D01*
X132651428Y-55062380D01*
X132556190Y-55062380D01*
X132460952Y-55014761D01*
X132413333Y-54967142D01*
X132365714Y-54871904D01*
X132318095Y-54681428D01*
X132318095Y-54443333D01*
X132365714Y-54252857D01*
X132413333Y-54157619D01*
X132460952Y-54110000D01*
X132556190Y-54062380D01*
X133841904Y-55062380D02*
X133270476Y-55062380D01*
X133556190Y-55062380D02*
X133556190Y-54062380D01*
X133460952Y-54205238D01*
X133365714Y-54300476D01*
X133270476Y-54348095D01*
X185979285Y-79732380D02*
X185979285Y-80446666D01*
X185931666Y-80589523D01*
X185836428Y-80684761D01*
X185693571Y-80732380D01*
X185598333Y-80732380D01*
X186931666Y-79732380D02*
X186455476Y-79732380D01*
X186407857Y-80208571D01*
X186455476Y-80160952D01*
X186550714Y-80113333D01*
X186788809Y-80113333D01*
X186884047Y-80160952D01*
X186931666Y-80208571D01*
X186979285Y-80303809D01*
X186979285Y-80541904D01*
X186931666Y-80637142D01*
X186884047Y-80684761D01*
X186788809Y-80732380D01*
X186550714Y-80732380D01*
X186455476Y-80684761D01*
X186407857Y-80637142D01*
X187598333Y-79732380D02*
X187693571Y-79732380D01*
X187788809Y-79780000D01*
X187836428Y-79827619D01*
X187884047Y-79922857D01*
X187931666Y-80113333D01*
X187931666Y-80351428D01*
X187884047Y-80541904D01*
X187836428Y-80637142D01*
X187788809Y-80684761D01*
X187693571Y-80732380D01*
X187598333Y-80732380D01*
X187503095Y-80684761D01*
X187455476Y-80637142D01*
X187407857Y-80541904D01*
X187360238Y-80351428D01*
X187360238Y-80113333D01*
X187407857Y-79922857D01*
X187455476Y-79827619D01*
X187503095Y-79780000D01*
X187598333Y-79732380D01*
X188265000Y-79732380D02*
X188884047Y-79732380D01*
X188550714Y-80113333D01*
X188693571Y-80113333D01*
X188788809Y-80160952D01*
X188836428Y-80208571D01*
X188884047Y-80303809D01*
X188884047Y-80541904D01*
X188836428Y-80637142D01*
X188788809Y-80684761D01*
X188693571Y-80732380D01*
X188407857Y-80732380D01*
X188312619Y-80684761D01*
X188265000Y-80637142D01*
X128508285Y-79716380D02*
X128508285Y-80430666D01*
X128460666Y-80573523D01*
X128365428Y-80668761D01*
X128222571Y-80716380D01*
X128127333Y-80716380D01*
X129460666Y-79716380D02*
X128984476Y-79716380D01*
X128936857Y-80192571D01*
X128984476Y-80144952D01*
X129079714Y-80097333D01*
X129317809Y-80097333D01*
X129413047Y-80144952D01*
X129460666Y-80192571D01*
X129508285Y-80287809D01*
X129508285Y-80525904D01*
X129460666Y-80621142D01*
X129413047Y-80668761D01*
X129317809Y-80716380D01*
X129079714Y-80716380D01*
X128984476Y-80668761D01*
X128936857Y-80621142D01*
X130127333Y-79716380D02*
X130222571Y-79716380D01*
X130317809Y-79764000D01*
X130365428Y-79811619D01*
X130413047Y-79906857D01*
X130460666Y-80097333D01*
X130460666Y-80335428D01*
X130413047Y-80525904D01*
X130365428Y-80621142D01*
X130317809Y-80668761D01*
X130222571Y-80716380D01*
X130127333Y-80716380D01*
X130032095Y-80668761D01*
X129984476Y-80621142D01*
X129936857Y-80525904D01*
X129889238Y-80335428D01*
X129889238Y-80097333D01*
X129936857Y-79906857D01*
X129984476Y-79811619D01*
X130032095Y-79764000D01*
X130127333Y-79716380D01*
X131413047Y-80716380D02*
X130841619Y-80716380D01*
X131127333Y-80716380D02*
X131127333Y-79716380D01*
X131032095Y-79859238D01*
X130936857Y-79954476D01*
X130841619Y-80002095D01*
X152296761Y-75818714D02*
X152344380Y-75675857D01*
X152344380Y-75437761D01*
X152296761Y-75342523D01*
X152249142Y-75294904D01*
X152153904Y-75247285D01*
X152058666Y-75247285D01*
X151963428Y-75294904D01*
X151915809Y-75342523D01*
X151868190Y-75437761D01*
X151820571Y-75628238D01*
X151772952Y-75723476D01*
X151725333Y-75771095D01*
X151630095Y-75818714D01*
X151534857Y-75818714D01*
X151439619Y-75771095D01*
X151392000Y-75723476D01*
X151344380Y-75628238D01*
X151344380Y-75390142D01*
X151392000Y-75247285D01*
X151344380Y-74913952D02*
X152344380Y-74675857D01*
X151630095Y-74485380D01*
X152344380Y-74294904D01*
X151344380Y-74056809D01*
X151344380Y-73771095D02*
X151344380Y-73104428D01*
X152344380Y-73533000D01*
X151344380Y-72533000D02*
X151344380Y-72437761D01*
X151392000Y-72342523D01*
X151439619Y-72294904D01*
X151534857Y-72247285D01*
X151725333Y-72199666D01*
X151963428Y-72199666D01*
X152153904Y-72247285D01*
X152249142Y-72294904D01*
X152296761Y-72342523D01*
X152344380Y-72437761D01*
X152344380Y-72533000D01*
X152296761Y-72628238D01*
X152249142Y-72675857D01*
X152153904Y-72723476D01*
X151963428Y-72771095D01*
X151725333Y-72771095D01*
X151534857Y-72723476D01*
X151439619Y-72675857D01*
X151392000Y-72628238D01*
X151344380Y-72533000D01*
X151439619Y-71818714D02*
X151392000Y-71771095D01*
X151344380Y-71675857D01*
X151344380Y-71437761D01*
X151392000Y-71342523D01*
X151439619Y-71294904D01*
X151534857Y-71247285D01*
X151630095Y-71247285D01*
X151772952Y-71294904D01*
X152344380Y-71866333D01*
X152344380Y-71247285D01*
D16*
X143764142Y-62718952D02*
X143764142Y-63099904D01*
X143497476Y-62299904D02*
X143764142Y-62718952D01*
X144030809Y-62299904D01*
X144221285Y-62299904D02*
X144754619Y-62299904D01*
X144411761Y-63099904D01*
X145211761Y-62299904D02*
X145287952Y-62299904D01*
X145364142Y-62338000D01*
X145402238Y-62376095D01*
X145440333Y-62452285D01*
X145478428Y-62604666D01*
X145478428Y-62795142D01*
X145440333Y-62947523D01*
X145402238Y-63023714D01*
X145364142Y-63061809D01*
X145287952Y-63099904D01*
X145211761Y-63099904D01*
X145135571Y-63061809D01*
X145097476Y-63023714D01*
X145059380Y-62947523D01*
X145021285Y-62795142D01*
X145021285Y-62604666D01*
X145059380Y-62452285D01*
X145097476Y-62376095D01*
X145135571Y-62338000D01*
X145211761Y-62299904D01*
X146240333Y-63099904D02*
X145783190Y-63099904D01*
X146011761Y-63099904D02*
X146011761Y-62299904D01*
X145935571Y-62414190D01*
X145859380Y-62490380D01*
X145783190Y-62528476D01*
D15*
X161124761Y-69214714D02*
X161172380Y-69071857D01*
X161172380Y-68833761D01*
X161124761Y-68738523D01*
X161077142Y-68690904D01*
X160981904Y-68643285D01*
X160886666Y-68643285D01*
X160791428Y-68690904D01*
X160743809Y-68738523D01*
X160696190Y-68833761D01*
X160648571Y-69024238D01*
X160600952Y-69119476D01*
X160553333Y-69167095D01*
X160458095Y-69214714D01*
X160362857Y-69214714D01*
X160267619Y-69167095D01*
X160220000Y-69119476D01*
X160172380Y-69024238D01*
X160172380Y-68786142D01*
X160220000Y-68643285D01*
X160172380Y-68309952D02*
X161172380Y-68071857D01*
X160458095Y-67881380D01*
X161172380Y-67690904D01*
X160172380Y-67452809D01*
X160172380Y-67167095D02*
X160172380Y-66500428D01*
X161172380Y-66929000D01*
X160172380Y-65929000D02*
X160172380Y-65833761D01*
X160220000Y-65738523D01*
X160267619Y-65690904D01*
X160362857Y-65643285D01*
X160553333Y-65595666D01*
X160791428Y-65595666D01*
X160981904Y-65643285D01*
X161077142Y-65690904D01*
X161124761Y-65738523D01*
X161172380Y-65833761D01*
X161172380Y-65929000D01*
X161124761Y-66024238D01*
X161077142Y-66071857D01*
X160981904Y-66119476D01*
X160791428Y-66167095D01*
X160553333Y-66167095D01*
X160362857Y-66119476D01*
X160267619Y-66071857D01*
X160220000Y-66024238D01*
X160172380Y-65929000D01*
X160172380Y-65262333D02*
X160172380Y-64643285D01*
X160553333Y-64976619D01*
X160553333Y-64833761D01*
X160600952Y-64738523D01*
X160648571Y-64690904D01*
X160743809Y-64643285D01*
X160981904Y-64643285D01*
X161077142Y-64690904D01*
X161124761Y-64738523D01*
X161172380Y-64833761D01*
X161172380Y-65119476D01*
X161124761Y-65214714D01*
X161077142Y-65262333D01*
X130365714Y-126182380D02*
X130365714Y-125182380D01*
X130365714Y-125658571D02*
X130937142Y-125658571D01*
X130937142Y-126182380D02*
X130937142Y-125182380D01*
X131365714Y-125277619D02*
X131413333Y-125230000D01*
X131508571Y-125182380D01*
X131746666Y-125182380D01*
X131841904Y-125230000D01*
X131889523Y-125277619D01*
X131937142Y-125372857D01*
X131937142Y-125468095D01*
X131889523Y-125610952D01*
X131318095Y-126182380D01*
X131937142Y-126182380D01*
X132556190Y-125182380D02*
X132651428Y-125182380D01*
X132746666Y-125230000D01*
X132794285Y-125277619D01*
X132841904Y-125372857D01*
X132889523Y-125563333D01*
X132889523Y-125801428D01*
X132841904Y-125991904D01*
X132794285Y-126087142D01*
X132746666Y-126134761D01*
X132651428Y-126182380D01*
X132556190Y-126182380D01*
X132460952Y-126134761D01*
X132413333Y-126087142D01*
X132365714Y-125991904D01*
X132318095Y-125801428D01*
X132318095Y-125563333D01*
X132365714Y-125372857D01*
X132413333Y-125277619D01*
X132460952Y-125230000D01*
X132556190Y-125182380D01*
X133270476Y-125277619D02*
X133318095Y-125230000D01*
X133413333Y-125182380D01*
X133651428Y-125182380D01*
X133746666Y-125230000D01*
X133794285Y-125277619D01*
X133841904Y-125372857D01*
X133841904Y-125468095D01*
X133794285Y-125610952D01*
X133222857Y-126182380D01*
X133841904Y-126182380D01*
X183705714Y-126182380D02*
X183705714Y-125182380D01*
X183705714Y-125658571D02*
X184277142Y-125658571D01*
X184277142Y-126182380D02*
X184277142Y-125182380D01*
X184705714Y-125277619D02*
X184753333Y-125230000D01*
X184848571Y-125182380D01*
X185086666Y-125182380D01*
X185181904Y-125230000D01*
X185229523Y-125277619D01*
X185277142Y-125372857D01*
X185277142Y-125468095D01*
X185229523Y-125610952D01*
X184658095Y-126182380D01*
X185277142Y-126182380D01*
X185896190Y-125182380D02*
X185991428Y-125182380D01*
X186086666Y-125230000D01*
X186134285Y-125277619D01*
X186181904Y-125372857D01*
X186229523Y-125563333D01*
X186229523Y-125801428D01*
X186181904Y-125991904D01*
X186134285Y-126087142D01*
X186086666Y-126134761D01*
X185991428Y-126182380D01*
X185896190Y-126182380D01*
X185800952Y-126134761D01*
X185753333Y-126087142D01*
X185705714Y-125991904D01*
X185658095Y-125801428D01*
X185658095Y-125563333D01*
X185705714Y-125372857D01*
X185753333Y-125277619D01*
X185800952Y-125230000D01*
X185896190Y-125182380D01*
X187086666Y-125515714D02*
X187086666Y-126182380D01*
X186848571Y-125134761D02*
X186610476Y-125849047D01*
X187229523Y-125849047D01*
D16*
X149297428Y-62680809D02*
X149411714Y-62718904D01*
X149602190Y-62718904D01*
X149678380Y-62680809D01*
X149716476Y-62642714D01*
X149754571Y-62566523D01*
X149754571Y-62490333D01*
X149716476Y-62414142D01*
X149678380Y-62376047D01*
X149602190Y-62337952D01*
X149449809Y-62299857D01*
X149373619Y-62261761D01*
X149335523Y-62223666D01*
X149297428Y-62147476D01*
X149297428Y-62071285D01*
X149335523Y-61995095D01*
X149373619Y-61957000D01*
X149449809Y-61918904D01*
X149640285Y-61918904D01*
X149754571Y-61957000D01*
X150021238Y-61918904D02*
X150211714Y-62718904D01*
X150364095Y-62147476D01*
X150516476Y-62718904D01*
X150706952Y-61918904D01*
X150935523Y-61918904D02*
X151468857Y-61918904D01*
X151126000Y-62718904D01*
X151926000Y-61918904D02*
X152002190Y-61918904D01*
X152078380Y-61957000D01*
X152116476Y-61995095D01*
X152154571Y-62071285D01*
X152192666Y-62223666D01*
X152192666Y-62414142D01*
X152154571Y-62566523D01*
X152116476Y-62642714D01*
X152078380Y-62680809D01*
X152002190Y-62718904D01*
X151926000Y-62718904D01*
X151849809Y-62680809D01*
X151811714Y-62642714D01*
X151773619Y-62566523D01*
X151735523Y-62414142D01*
X151735523Y-62223666D01*
X151773619Y-62071285D01*
X151811714Y-61995095D01*
X151849809Y-61957000D01*
X151926000Y-61918904D01*
X152954571Y-62718904D02*
X152497428Y-62718904D01*
X152726000Y-62718904D02*
X152726000Y-61918904D01*
X152649809Y-62033190D01*
X152573619Y-62109380D01*
X152497428Y-62147476D01*
X160013819Y-61842604D02*
X160013819Y-61042604D01*
X160204295Y-61042604D01*
X160318580Y-61080700D01*
X160394771Y-61156890D01*
X160432866Y-61233080D01*
X160470961Y-61385461D01*
X160470961Y-61499747D01*
X160432866Y-61652128D01*
X160394771Y-61728319D01*
X160318580Y-61804509D01*
X160204295Y-61842604D01*
X160013819Y-61842604D01*
X160737628Y-61042604D02*
X161270961Y-61042604D01*
X160928104Y-61842604D01*
X161728104Y-61042604D02*
X161804295Y-61042604D01*
X161880485Y-61080700D01*
X161918580Y-61118795D01*
X161956676Y-61194985D01*
X161994771Y-61347366D01*
X161994771Y-61537842D01*
X161956676Y-61690223D01*
X161918580Y-61766414D01*
X161880485Y-61804509D01*
X161804295Y-61842604D01*
X161728104Y-61842604D01*
X161651914Y-61804509D01*
X161613819Y-61766414D01*
X161575723Y-61690223D01*
X161537628Y-61537842D01*
X161537628Y-61347366D01*
X161575723Y-61194985D01*
X161613819Y-61118795D01*
X161651914Y-61080700D01*
X161728104Y-61042604D01*
X162718580Y-61042604D02*
X162337628Y-61042604D01*
X162299533Y-61423557D01*
X162337628Y-61385461D01*
X162413819Y-61347366D01*
X162604295Y-61347366D01*
X162680485Y-61385461D01*
X162718580Y-61423557D01*
X162756676Y-61499747D01*
X162756676Y-61690223D01*
X162718580Y-61766414D01*
X162680485Y-61804509D01*
X162604295Y-61842604D01*
X162413819Y-61842604D01*
X162337628Y-61804509D01*
X162299533Y-61766414D01*
X165157319Y-61842604D02*
X165157319Y-61042604D01*
X165347795Y-61042604D01*
X165462080Y-61080700D01*
X165538271Y-61156890D01*
X165576366Y-61233080D01*
X165614461Y-61385461D01*
X165614461Y-61499747D01*
X165576366Y-61652128D01*
X165538271Y-61728319D01*
X165462080Y-61804509D01*
X165347795Y-61842604D01*
X165157319Y-61842604D01*
X165881128Y-61042604D02*
X166414461Y-61042604D01*
X166071604Y-61842604D01*
X166871604Y-61042604D02*
X166947795Y-61042604D01*
X167023985Y-61080700D01*
X167062080Y-61118795D01*
X167100176Y-61194985D01*
X167138271Y-61347366D01*
X167138271Y-61537842D01*
X167100176Y-61690223D01*
X167062080Y-61766414D01*
X167023985Y-61804509D01*
X166947795Y-61842604D01*
X166871604Y-61842604D01*
X166795414Y-61804509D01*
X166757319Y-61766414D01*
X166719223Y-61690223D01*
X166681128Y-61537842D01*
X166681128Y-61347366D01*
X166719223Y-61194985D01*
X166757319Y-61118795D01*
X166795414Y-61080700D01*
X166871604Y-61042604D01*
X167823985Y-61309271D02*
X167823985Y-61842604D01*
X167633509Y-61004509D02*
X167443033Y-61575938D01*
X167938271Y-61575938D01*
X170173819Y-61842604D02*
X170173819Y-61042604D01*
X170364295Y-61042604D01*
X170478580Y-61080700D01*
X170554771Y-61156890D01*
X170592866Y-61233080D01*
X170630961Y-61385461D01*
X170630961Y-61499747D01*
X170592866Y-61652128D01*
X170554771Y-61728319D01*
X170478580Y-61804509D01*
X170364295Y-61842604D01*
X170173819Y-61842604D01*
X170897628Y-61042604D02*
X171430961Y-61042604D01*
X171088104Y-61842604D01*
X171888104Y-61042604D02*
X171964295Y-61042604D01*
X172040485Y-61080700D01*
X172078580Y-61118795D01*
X172116676Y-61194985D01*
X172154771Y-61347366D01*
X172154771Y-61537842D01*
X172116676Y-61690223D01*
X172078580Y-61766414D01*
X172040485Y-61804509D01*
X171964295Y-61842604D01*
X171888104Y-61842604D01*
X171811914Y-61804509D01*
X171773819Y-61766414D01*
X171735723Y-61690223D01*
X171697628Y-61537842D01*
X171697628Y-61347366D01*
X171735723Y-61194985D01*
X171773819Y-61118795D01*
X171811914Y-61080700D01*
X171888104Y-61042604D01*
X172421438Y-61042604D02*
X172916676Y-61042604D01*
X172650009Y-61347366D01*
X172764295Y-61347366D01*
X172840485Y-61385461D01*
X172878580Y-61423557D01*
X172916676Y-61499747D01*
X172916676Y-61690223D01*
X172878580Y-61766414D01*
X172840485Y-61804509D01*
X172764295Y-61842604D01*
X172535723Y-61842604D01*
X172459533Y-61804509D01*
X172421438Y-61766414D01*
%LPC*%
D17*
X129921000Y-75501500D03*
D18*
X129921000Y-74231500D03*
X129921000Y-72961500D03*
X129921000Y-71691500D03*
X129921000Y-70421500D03*
X129921000Y-69151500D03*
D19*
X160274000Y-90932000D03*
X157226000Y-90932000D03*
X160274000Y-89408000D03*
X157226000Y-89408000D03*
X160274000Y-87884000D03*
X157226000Y-87884000D03*
X160274000Y-86360000D03*
X157226000Y-86360000D03*
X160274000Y-84836000D03*
X157226000Y-84836000D03*
X160274000Y-83312000D03*
X157226000Y-83312000D03*
D20*
X163576000Y-100330000D03*
X186176000Y-100330000D03*
D21*
X185420000Y-58420000D03*
D22*
X140320000Y-121920000D03*
X143820000Y-121920000D03*
X147320000Y-121920000D03*
D23*
X135128000Y-102616000D03*
X137668000Y-102616000D03*
X140208000Y-102616000D03*
X142748000Y-102616000D03*
D22*
X155250000Y-121920000D03*
X158750000Y-121920000D03*
D20*
X172212000Y-121920000D03*
X177292000Y-121920000D03*
D24*
X140970000Y-57150000D03*
D25*
X140970000Y-59690000D03*
D26*
X183620000Y-78240000D03*
X183620000Y-63040000D03*
D27*
X183620000Y-70640000D03*
D28*
X179832000Y-62103000D03*
X177932000Y-62103000D03*
D24*
X176530000Y-57150000D03*
D25*
X176530000Y-59690000D03*
D29*
X146050000Y-91948000D03*
D23*
X146050000Y-86948000D03*
D29*
X171450000Y-91948000D03*
D23*
X171450000Y-86948000D03*
D21*
X132080000Y-58420000D03*
D30*
X182880000Y-82550000D03*
D31*
X182880000Y-85090000D03*
X182880000Y-87630000D03*
X182880000Y-90170000D03*
X182880000Y-92710000D03*
D30*
X134620000Y-92710000D03*
D31*
X134620000Y-90170000D03*
X134620000Y-87630000D03*
X134620000Y-85090000D03*
X134620000Y-82550000D03*
D32*
X149225000Y-77433000D03*
X149225000Y-69633000D03*
D33*
X147574000Y-65786000D03*
X142694000Y-65786000D03*
D34*
X163830000Y-70739000D03*
D35*
X173990000Y-63119000D03*
X166370000Y-70739000D03*
X171450000Y-63119000D03*
X168910000Y-70739000D03*
X168910000Y-63119000D03*
X171450000Y-70739000D03*
X166370000Y-63119000D03*
X173990000Y-70739000D03*
X163830000Y-63119000D03*
D21*
X132080000Y-121920000D03*
X185420000Y-121920000D03*
D23*
X154380000Y-56170000D03*
X154380000Y-60670000D03*
X147880000Y-56170000D03*
X147880000Y-60670000D03*
D24*
X161290000Y-57150000D03*
D25*
X161290000Y-59690000D03*
D24*
X166370000Y-57150000D03*
D25*
X166370000Y-59690000D03*
D24*
X171450000Y-57150000D03*
D25*
X171450000Y-59690000D03*
M02*
