G04 #@! TF.GenerationSoftware,KiCad,Pcbnew,5.1.12-84ad8e8a86~92~ubuntu16.04.1*
G04 #@! TF.CreationDate,2022-11-17T23:34:12+01:00*
G04 #@! TF.ProjectId,Mainboard,4d61696e-626f-4617-9264-2e6b69636164,rev?*
G04 #@! TF.SameCoordinates,Original*
G04 #@! TF.FileFunction,Paste,Bot*
G04 #@! TF.FilePolarity,Positive*
%FSLAX46Y46*%
G04 Gerber Fmt 4.6, Leading zero omitted, Abs format (unit mm)*
G04 Created by KiCad (PCBNEW 5.1.12-84ad8e8a86~92~ubuntu16.04.1) date 2022-11-17 23:34:12*
%MOMM*%
%LPD*%
G01*
G04 APERTURE LIST*
%ADD10R,1.900000X0.800000*%
%ADD11R,3.000000X8.000000*%
%ADD12R,0.550000X1.600000*%
%ADD13R,1.600000X0.550000*%
%ADD14R,3.800000X2.000000*%
%ADD15R,1.500000X2.000000*%
%ADD16R,2.300000X3.500000*%
G04 APERTURE END LIST*
G36*
G01*
X132026500Y-63332000D02*
X133276500Y-63332000D01*
G75*
G02*
X133526500Y-63582000I0J-250000D01*
G01*
X133526500Y-64507000D01*
G75*
G02*
X133276500Y-64757000I-250000J0D01*
G01*
X132026500Y-64757000D01*
G75*
G02*
X131776500Y-64507000I0J250000D01*
G01*
X131776500Y-63582000D01*
G75*
G02*
X132026500Y-63332000I250000J0D01*
G01*
G37*
G36*
G01*
X132026500Y-66307000D02*
X133276500Y-66307000D01*
G75*
G02*
X133526500Y-66557000I0J-250000D01*
G01*
X133526500Y-67482000D01*
G75*
G02*
X133276500Y-67732000I-250000J0D01*
G01*
X132026500Y-67732000D01*
G75*
G02*
X131776500Y-67482000I0J250000D01*
G01*
X131776500Y-66557000D01*
G75*
G02*
X132026500Y-66307000I250000J0D01*
G01*
G37*
G36*
G01*
X166837000Y-107749500D02*
X166837000Y-106499500D01*
G75*
G02*
X167087000Y-106249500I250000J0D01*
G01*
X168012000Y-106249500D01*
G75*
G02*
X168262000Y-106499500I0J-250000D01*
G01*
X168262000Y-107749500D01*
G75*
G02*
X168012000Y-107999500I-250000J0D01*
G01*
X167087000Y-107999500D01*
G75*
G02*
X166837000Y-107749500I0J250000D01*
G01*
G37*
G36*
G01*
X169812000Y-107749500D02*
X169812000Y-106499500D01*
G75*
G02*
X170062000Y-106249500I250000J0D01*
G01*
X170987000Y-106249500D01*
G75*
G02*
X171237000Y-106499500I0J-250000D01*
G01*
X171237000Y-107749500D01*
G75*
G02*
X170987000Y-107999500I-250000J0D01*
G01*
X170062000Y-107999500D01*
G75*
G02*
X169812000Y-107749500I0J250000D01*
G01*
G37*
D10*
X142470000Y-89093000D03*
X142470000Y-90993000D03*
X139470000Y-90043000D03*
X142470000Y-92776000D03*
X142470000Y-94676000D03*
X139470000Y-93726000D03*
G36*
G01*
X154077000Y-125062000D02*
X154077000Y-124112000D01*
G75*
G02*
X154327000Y-123862000I250000J0D01*
G01*
X155002000Y-123862000D01*
G75*
G02*
X155252000Y-124112000I0J-250000D01*
G01*
X155252000Y-125062000D01*
G75*
G02*
X155002000Y-125312000I-250000J0D01*
G01*
X154327000Y-125312000D01*
G75*
G02*
X154077000Y-125062000I0J250000D01*
G01*
G37*
G36*
G01*
X156152000Y-125062000D02*
X156152000Y-124112000D01*
G75*
G02*
X156402000Y-123862000I250000J0D01*
G01*
X157077000Y-123862000D01*
G75*
G02*
X157327000Y-124112000I0J-250000D01*
G01*
X157327000Y-125062000D01*
G75*
G02*
X157077000Y-125312000I-250000J0D01*
G01*
X156402000Y-125312000D01*
G75*
G02*
X156152000Y-125062000I0J250000D01*
G01*
G37*
G36*
G01*
X171925000Y-91033000D02*
X170975000Y-91033000D01*
G75*
G02*
X170725000Y-90783000I0J250000D01*
G01*
X170725000Y-90108000D01*
G75*
G02*
X170975000Y-89858000I250000J0D01*
G01*
X171925000Y-89858000D01*
G75*
G02*
X172175000Y-90108000I0J-250000D01*
G01*
X172175000Y-90783000D01*
G75*
G02*
X171925000Y-91033000I-250000J0D01*
G01*
G37*
G36*
G01*
X171925000Y-88958000D02*
X170975000Y-88958000D01*
G75*
G02*
X170725000Y-88708000I0J250000D01*
G01*
X170725000Y-88033000D01*
G75*
G02*
X170975000Y-87783000I250000J0D01*
G01*
X171925000Y-87783000D01*
G75*
G02*
X172175000Y-88033000I0J-250000D01*
G01*
X172175000Y-88708000D01*
G75*
G02*
X171925000Y-88958000I-250000J0D01*
G01*
G37*
G36*
G01*
X146525000Y-91033000D02*
X145575000Y-91033000D01*
G75*
G02*
X145325000Y-90783000I0J250000D01*
G01*
X145325000Y-90108000D01*
G75*
G02*
X145575000Y-89858000I250000J0D01*
G01*
X146525000Y-89858000D01*
G75*
G02*
X146775000Y-90108000I0J-250000D01*
G01*
X146775000Y-90783000D01*
G75*
G02*
X146525000Y-91033000I-250000J0D01*
G01*
G37*
G36*
G01*
X146525000Y-88958000D02*
X145575000Y-88958000D01*
G75*
G02*
X145325000Y-88708000I0J250000D01*
G01*
X145325000Y-88033000D01*
G75*
G02*
X145575000Y-87783000I250000J0D01*
G01*
X146525000Y-87783000D01*
G75*
G02*
X146775000Y-88033000I0J-250000D01*
G01*
X146775000Y-88708000D01*
G75*
G02*
X146525000Y-88958000I-250000J0D01*
G01*
G37*
G36*
G01*
X176144500Y-117127000D02*
X176144500Y-118077000D01*
G75*
G02*
X175894500Y-118327000I-250000J0D01*
G01*
X175219500Y-118327000D01*
G75*
G02*
X174969500Y-118077000I0J250000D01*
G01*
X174969500Y-117127000D01*
G75*
G02*
X175219500Y-116877000I250000J0D01*
G01*
X175894500Y-116877000D01*
G75*
G02*
X176144500Y-117127000I0J-250000D01*
G01*
G37*
G36*
G01*
X174069500Y-117127000D02*
X174069500Y-118077000D01*
G75*
G02*
X173819500Y-118327000I-250000J0D01*
G01*
X173144500Y-118327000D01*
G75*
G02*
X172894500Y-118077000I0J250000D01*
G01*
X172894500Y-117127000D01*
G75*
G02*
X173144500Y-116877000I250000J0D01*
G01*
X173819500Y-116877000D01*
G75*
G02*
X174069500Y-117127000I0J-250000D01*
G01*
G37*
G36*
G01*
X169762999Y-111831500D02*
X171613001Y-111831500D01*
G75*
G02*
X171863000Y-112081499I0J-249999D01*
G01*
X171863000Y-113831501D01*
G75*
G02*
X171613001Y-114081500I-249999J0D01*
G01*
X169762999Y-114081500D01*
G75*
G02*
X169513000Y-113831501I0J249999D01*
G01*
X169513000Y-112081499D01*
G75*
G02*
X169762999Y-111831500I249999J0D01*
G01*
G37*
G36*
G01*
X169762999Y-116931500D02*
X171613001Y-116931500D01*
G75*
G02*
X171863000Y-117181499I0J-249999D01*
G01*
X171863000Y-118931501D01*
G75*
G02*
X171613001Y-119181500I-249999J0D01*
G01*
X169762999Y-119181500D01*
G75*
G02*
X169513000Y-118931501I0J249999D01*
G01*
X169513000Y-117181499D01*
G75*
G02*
X169762999Y-116931500I249999J0D01*
G01*
G37*
G36*
G01*
X130226000Y-111067001D02*
X130226000Y-110166999D01*
G75*
G02*
X130475999Y-109917000I249999J0D01*
G01*
X131176001Y-109917000D01*
G75*
G02*
X131426000Y-110166999I0J-249999D01*
G01*
X131426000Y-111067001D01*
G75*
G02*
X131176001Y-111317000I-249999J0D01*
G01*
X130475999Y-111317000D01*
G75*
G02*
X130226000Y-111067001I0J249999D01*
G01*
G37*
G36*
G01*
X132226000Y-111067001D02*
X132226000Y-110166999D01*
G75*
G02*
X132475999Y-109917000I249999J0D01*
G01*
X133176001Y-109917000D01*
G75*
G02*
X133426000Y-110166999I0J-249999D01*
G01*
X133426000Y-111067001D01*
G75*
G02*
X133176001Y-111317000I-249999J0D01*
G01*
X132475999Y-111317000D01*
G75*
G02*
X132226000Y-111067001I0J249999D01*
G01*
G37*
G36*
G01*
X145509000Y-106273000D02*
X144559000Y-106273000D01*
G75*
G02*
X144309000Y-106023000I0J250000D01*
G01*
X144309000Y-105348000D01*
G75*
G02*
X144559000Y-105098000I250000J0D01*
G01*
X145509000Y-105098000D01*
G75*
G02*
X145759000Y-105348000I0J-250000D01*
G01*
X145759000Y-106023000D01*
G75*
G02*
X145509000Y-106273000I-250000J0D01*
G01*
G37*
G36*
G01*
X145509000Y-104198000D02*
X144559000Y-104198000D01*
G75*
G02*
X144309000Y-103948000I0J250000D01*
G01*
X144309000Y-103273000D01*
G75*
G02*
X144559000Y-103023000I250000J0D01*
G01*
X145509000Y-103023000D01*
G75*
G02*
X145759000Y-103273000I0J-250000D01*
G01*
X145759000Y-103948000D01*
G75*
G02*
X145509000Y-104198000I-250000J0D01*
G01*
G37*
G36*
G01*
X130201000Y-108933000D02*
X130201000Y-107983000D01*
G75*
G02*
X130451000Y-107733000I250000J0D01*
G01*
X131126000Y-107733000D01*
G75*
G02*
X131376000Y-107983000I0J-250000D01*
G01*
X131376000Y-108933000D01*
G75*
G02*
X131126000Y-109183000I-250000J0D01*
G01*
X130451000Y-109183000D01*
G75*
G02*
X130201000Y-108933000I0J250000D01*
G01*
G37*
G36*
G01*
X132276000Y-108933000D02*
X132276000Y-107983000D01*
G75*
G02*
X132526000Y-107733000I250000J0D01*
G01*
X133201000Y-107733000D01*
G75*
G02*
X133451000Y-107983000I0J-250000D01*
G01*
X133451000Y-108933000D01*
G75*
G02*
X133201000Y-109183000I-250000J0D01*
G01*
X132526000Y-109183000D01*
G75*
G02*
X132276000Y-108933000I0J250000D01*
G01*
G37*
G36*
G01*
X171237000Y-108907000D02*
X171237000Y-111057000D01*
G75*
G02*
X170987000Y-111307000I-250000J0D01*
G01*
X170187000Y-111307000D01*
G75*
G02*
X169937000Y-111057000I0J250000D01*
G01*
X169937000Y-108907000D01*
G75*
G02*
X170187000Y-108657000I250000J0D01*
G01*
X170987000Y-108657000D01*
G75*
G02*
X171237000Y-108907000I0J-250000D01*
G01*
G37*
G36*
G01*
X168137000Y-108907000D02*
X168137000Y-111057000D01*
G75*
G02*
X167887000Y-111307000I-250000J0D01*
G01*
X167087000Y-111307000D01*
G75*
G02*
X166837000Y-111057000I0J250000D01*
G01*
X166837000Y-108907000D01*
G75*
G02*
X167087000Y-108657000I250000J0D01*
G01*
X167887000Y-108657000D01*
G75*
G02*
X168137000Y-108907000I0J-250000D01*
G01*
G37*
X149884000Y-94676000D03*
X149884000Y-92776000D03*
X152884000Y-93726000D03*
G36*
G01*
X179726000Y-100307000D02*
X179726000Y-100607000D01*
G75*
G02*
X179576000Y-100757000I-150000J0D01*
G01*
X177926000Y-100757000D01*
G75*
G02*
X177776000Y-100607000I0J150000D01*
G01*
X177776000Y-100307000D01*
G75*
G02*
X177926000Y-100157000I150000J0D01*
G01*
X179576000Y-100157000D01*
G75*
G02*
X179726000Y-100307000I0J-150000D01*
G01*
G37*
G36*
G01*
X179726000Y-101577000D02*
X179726000Y-101877000D01*
G75*
G02*
X179576000Y-102027000I-150000J0D01*
G01*
X177926000Y-102027000D01*
G75*
G02*
X177776000Y-101877000I0J150000D01*
G01*
X177776000Y-101577000D01*
G75*
G02*
X177926000Y-101427000I150000J0D01*
G01*
X179576000Y-101427000D01*
G75*
G02*
X179726000Y-101577000I0J-150000D01*
G01*
G37*
G36*
G01*
X179726000Y-102847000D02*
X179726000Y-103147000D01*
G75*
G02*
X179576000Y-103297000I-150000J0D01*
G01*
X177926000Y-103297000D01*
G75*
G02*
X177776000Y-103147000I0J150000D01*
G01*
X177776000Y-102847000D01*
G75*
G02*
X177926000Y-102697000I150000J0D01*
G01*
X179576000Y-102697000D01*
G75*
G02*
X179726000Y-102847000I0J-150000D01*
G01*
G37*
G36*
G01*
X179726000Y-104117000D02*
X179726000Y-104417000D01*
G75*
G02*
X179576000Y-104567000I-150000J0D01*
G01*
X177926000Y-104567000D01*
G75*
G02*
X177776000Y-104417000I0J150000D01*
G01*
X177776000Y-104117000D01*
G75*
G02*
X177926000Y-103967000I150000J0D01*
G01*
X179576000Y-103967000D01*
G75*
G02*
X179726000Y-104117000I0J-150000D01*
G01*
G37*
G36*
G01*
X174776000Y-104117000D02*
X174776000Y-104417000D01*
G75*
G02*
X174626000Y-104567000I-150000J0D01*
G01*
X172976000Y-104567000D01*
G75*
G02*
X172826000Y-104417000I0J150000D01*
G01*
X172826000Y-104117000D01*
G75*
G02*
X172976000Y-103967000I150000J0D01*
G01*
X174626000Y-103967000D01*
G75*
G02*
X174776000Y-104117000I0J-150000D01*
G01*
G37*
G36*
G01*
X174776000Y-102847000D02*
X174776000Y-103147000D01*
G75*
G02*
X174626000Y-103297000I-150000J0D01*
G01*
X172976000Y-103297000D01*
G75*
G02*
X172826000Y-103147000I0J150000D01*
G01*
X172826000Y-102847000D01*
G75*
G02*
X172976000Y-102697000I150000J0D01*
G01*
X174626000Y-102697000D01*
G75*
G02*
X174776000Y-102847000I0J-150000D01*
G01*
G37*
G36*
G01*
X174776000Y-101577000D02*
X174776000Y-101877000D01*
G75*
G02*
X174626000Y-102027000I-150000J0D01*
G01*
X172976000Y-102027000D01*
G75*
G02*
X172826000Y-101877000I0J150000D01*
G01*
X172826000Y-101577000D01*
G75*
G02*
X172976000Y-101427000I150000J0D01*
G01*
X174626000Y-101427000D01*
G75*
G02*
X174776000Y-101577000I0J-150000D01*
G01*
G37*
G36*
G01*
X174776000Y-100307000D02*
X174776000Y-100607000D01*
G75*
G02*
X174626000Y-100757000I-150000J0D01*
G01*
X172976000Y-100757000D01*
G75*
G02*
X172826000Y-100607000I0J150000D01*
G01*
X172826000Y-100307000D01*
G75*
G02*
X172976000Y-100157000I150000J0D01*
G01*
X174626000Y-100157000D01*
G75*
G02*
X174776000Y-100307000I0J-150000D01*
G01*
G37*
D11*
X178882000Y-69103000D03*
G36*
G01*
X188181000Y-67157000D02*
X187231000Y-67157000D01*
G75*
G02*
X186981000Y-66907000I0J250000D01*
G01*
X186981000Y-66232000D01*
G75*
G02*
X187231000Y-65982000I250000J0D01*
G01*
X188181000Y-65982000D01*
G75*
G02*
X188431000Y-66232000I0J-250000D01*
G01*
X188431000Y-66907000D01*
G75*
G02*
X188181000Y-67157000I-250000J0D01*
G01*
G37*
G36*
G01*
X188181000Y-65082000D02*
X187231000Y-65082000D01*
G75*
G02*
X186981000Y-64832000I0J250000D01*
G01*
X186981000Y-64157000D01*
G75*
G02*
X187231000Y-63907000I250000J0D01*
G01*
X188181000Y-63907000D01*
G75*
G02*
X188431000Y-64157000I0J-250000D01*
G01*
X188431000Y-64832000D01*
G75*
G02*
X188181000Y-65082000I-250000J0D01*
G01*
G37*
G36*
G01*
X179919999Y-74090000D02*
X180820001Y-74090000D01*
G75*
G02*
X181070000Y-74339999I0J-249999D01*
G01*
X181070000Y-75040001D01*
G75*
G02*
X180820001Y-75290000I-249999J0D01*
G01*
X179919999Y-75290000D01*
G75*
G02*
X179670000Y-75040001I0J249999D01*
G01*
X179670000Y-74339999D01*
G75*
G02*
X179919999Y-74090000I249999J0D01*
G01*
G37*
G36*
G01*
X179919999Y-76090000D02*
X180820001Y-76090000D01*
G75*
G02*
X181070000Y-76339999I0J-249999D01*
G01*
X181070000Y-77040001D01*
G75*
G02*
X180820001Y-77290000I-249999J0D01*
G01*
X179919999Y-77290000D01*
G75*
G02*
X179670000Y-77040001I0J249999D01*
G01*
X179670000Y-76339999D01*
G75*
G02*
X179919999Y-76090000I249999J0D01*
G01*
G37*
G36*
G01*
X181861000Y-63290000D02*
X182161000Y-63290000D01*
G75*
G02*
X182311000Y-63440000I0J-150000D01*
G01*
X182311000Y-65090000D01*
G75*
G02*
X182161000Y-65240000I-150000J0D01*
G01*
X181861000Y-65240000D01*
G75*
G02*
X181711000Y-65090000I0J150000D01*
G01*
X181711000Y-63440000D01*
G75*
G02*
X181861000Y-63290000I150000J0D01*
G01*
G37*
G36*
G01*
X183131000Y-63290000D02*
X183431000Y-63290000D01*
G75*
G02*
X183581000Y-63440000I0J-150000D01*
G01*
X183581000Y-65090000D01*
G75*
G02*
X183431000Y-65240000I-150000J0D01*
G01*
X183131000Y-65240000D01*
G75*
G02*
X182981000Y-65090000I0J150000D01*
G01*
X182981000Y-63440000D01*
G75*
G02*
X183131000Y-63290000I150000J0D01*
G01*
G37*
G36*
G01*
X184401000Y-63290000D02*
X184701000Y-63290000D01*
G75*
G02*
X184851000Y-63440000I0J-150000D01*
G01*
X184851000Y-65090000D01*
G75*
G02*
X184701000Y-65240000I-150000J0D01*
G01*
X184401000Y-65240000D01*
G75*
G02*
X184251000Y-65090000I0J150000D01*
G01*
X184251000Y-63440000D01*
G75*
G02*
X184401000Y-63290000I150000J0D01*
G01*
G37*
G36*
G01*
X185671000Y-63290000D02*
X185971000Y-63290000D01*
G75*
G02*
X186121000Y-63440000I0J-150000D01*
G01*
X186121000Y-65090000D01*
G75*
G02*
X185971000Y-65240000I-150000J0D01*
G01*
X185671000Y-65240000D01*
G75*
G02*
X185521000Y-65090000I0J150000D01*
G01*
X185521000Y-63440000D01*
G75*
G02*
X185671000Y-63290000I150000J0D01*
G01*
G37*
G36*
G01*
X185671000Y-68240000D02*
X185971000Y-68240000D01*
G75*
G02*
X186121000Y-68390000I0J-150000D01*
G01*
X186121000Y-70040000D01*
G75*
G02*
X185971000Y-70190000I-150000J0D01*
G01*
X185671000Y-70190000D01*
G75*
G02*
X185521000Y-70040000I0J150000D01*
G01*
X185521000Y-68390000D01*
G75*
G02*
X185671000Y-68240000I150000J0D01*
G01*
G37*
G36*
G01*
X184401000Y-68240000D02*
X184701000Y-68240000D01*
G75*
G02*
X184851000Y-68390000I0J-150000D01*
G01*
X184851000Y-70040000D01*
G75*
G02*
X184701000Y-70190000I-150000J0D01*
G01*
X184401000Y-70190000D01*
G75*
G02*
X184251000Y-70040000I0J150000D01*
G01*
X184251000Y-68390000D01*
G75*
G02*
X184401000Y-68240000I150000J0D01*
G01*
G37*
G36*
G01*
X183131000Y-68240000D02*
X183431000Y-68240000D01*
G75*
G02*
X183581000Y-68390000I0J-150000D01*
G01*
X183581000Y-70040000D01*
G75*
G02*
X183431000Y-70190000I-150000J0D01*
G01*
X183131000Y-70190000D01*
G75*
G02*
X182981000Y-70040000I0J150000D01*
G01*
X182981000Y-68390000D01*
G75*
G02*
X183131000Y-68240000I150000J0D01*
G01*
G37*
G36*
G01*
X181861000Y-68240000D02*
X182161000Y-68240000D01*
G75*
G02*
X182311000Y-68390000I0J-150000D01*
G01*
X182311000Y-70040000D01*
G75*
G02*
X182161000Y-70190000I-150000J0D01*
G01*
X181861000Y-70190000D01*
G75*
G02*
X181711000Y-70040000I0J150000D01*
G01*
X181711000Y-68390000D01*
G75*
G02*
X181861000Y-68240000I150000J0D01*
G01*
G37*
G36*
G01*
X138623000Y-105238999D02*
X138623000Y-106089001D01*
G75*
G02*
X138373001Y-106339000I-249999J0D01*
G01*
X137297999Y-106339000D01*
G75*
G02*
X137048000Y-106089001I0J249999D01*
G01*
X137048000Y-105238999D01*
G75*
G02*
X137297999Y-104989000I249999J0D01*
G01*
X138373001Y-104989000D01*
G75*
G02*
X138623000Y-105238999I0J-249999D01*
G01*
G37*
G36*
G01*
X135748000Y-105238999D02*
X135748000Y-106089001D01*
G75*
G02*
X135498001Y-106339000I-249999J0D01*
G01*
X134422999Y-106339000D01*
G75*
G02*
X134173000Y-106089001I0J249999D01*
G01*
X134173000Y-105238999D01*
G75*
G02*
X134422999Y-104989000I249999J0D01*
G01*
X135498001Y-104989000D01*
G75*
G02*
X135748000Y-105238999I0J-249999D01*
G01*
G37*
G36*
G01*
X139166500Y-106089001D02*
X139166500Y-105238999D01*
G75*
G02*
X139416499Y-104989000I249999J0D01*
G01*
X140491501Y-104989000D01*
G75*
G02*
X140741500Y-105238999I0J-249999D01*
G01*
X140741500Y-106089001D01*
G75*
G02*
X140491501Y-106339000I-249999J0D01*
G01*
X139416499Y-106339000D01*
G75*
G02*
X139166500Y-106089001I0J249999D01*
G01*
G37*
G36*
G01*
X142041500Y-106089001D02*
X142041500Y-105238999D01*
G75*
G02*
X142291499Y-104989000I249999J0D01*
G01*
X143366501Y-104989000D01*
G75*
G02*
X143616500Y-105238999I0J-249999D01*
G01*
X143616500Y-106089001D01*
G75*
G02*
X143366501Y-106339000I-249999J0D01*
G01*
X142291499Y-106339000D01*
G75*
G02*
X142041500Y-106089001I0J249999D01*
G01*
G37*
G36*
G01*
X141452000Y-65438000D02*
X141452000Y-66388000D01*
G75*
G02*
X141202000Y-66638000I-250000J0D01*
G01*
X140527000Y-66638000D01*
G75*
G02*
X140277000Y-66388000I0J250000D01*
G01*
X140277000Y-65438000D01*
G75*
G02*
X140527000Y-65188000I250000J0D01*
G01*
X141202000Y-65188000D01*
G75*
G02*
X141452000Y-65438000I0J-250000D01*
G01*
G37*
G36*
G01*
X139377000Y-65438000D02*
X139377000Y-66388000D01*
G75*
G02*
X139127000Y-66638000I-250000J0D01*
G01*
X138452000Y-66638000D01*
G75*
G02*
X138202000Y-66388000I0J250000D01*
G01*
X138202000Y-65438000D01*
G75*
G02*
X138452000Y-65188000I250000J0D01*
G01*
X139127000Y-65188000D01*
G75*
G02*
X139377000Y-65438000I0J-250000D01*
G01*
G37*
G36*
G01*
X140996000Y-79342000D02*
X140996000Y-78392000D01*
G75*
G02*
X141246000Y-78142000I250000J0D01*
G01*
X141921000Y-78142000D01*
G75*
G02*
X142171000Y-78392000I0J-250000D01*
G01*
X142171000Y-79342000D01*
G75*
G02*
X141921000Y-79592000I-250000J0D01*
G01*
X141246000Y-79592000D01*
G75*
G02*
X140996000Y-79342000I0J250000D01*
G01*
G37*
G36*
G01*
X143071000Y-79342000D02*
X143071000Y-78392000D01*
G75*
G02*
X143321000Y-78142000I250000J0D01*
G01*
X143996000Y-78142000D01*
G75*
G02*
X144246000Y-78392000I0J-250000D01*
G01*
X144246000Y-79342000D01*
G75*
G02*
X143996000Y-79592000I-250000J0D01*
G01*
X143321000Y-79592000D01*
G75*
G02*
X143071000Y-79342000I0J250000D01*
G01*
G37*
G36*
G01*
X157345000Y-101182999D02*
X157345000Y-103033001D01*
G75*
G02*
X157095001Y-103283000I-249999J0D01*
G01*
X155344999Y-103283000D01*
G75*
G02*
X155095000Y-103033001I0J249999D01*
G01*
X155095000Y-101182999D01*
G75*
G02*
X155344999Y-100933000I249999J0D01*
G01*
X157095001Y-100933000D01*
G75*
G02*
X157345000Y-101182999I0J-249999D01*
G01*
G37*
G36*
G01*
X152245000Y-101182999D02*
X152245000Y-103033001D01*
G75*
G02*
X151995001Y-103283000I-249999J0D01*
G01*
X150244999Y-103283000D01*
G75*
G02*
X149995000Y-103033001I0J249999D01*
G01*
X149995000Y-101182999D01*
G75*
G02*
X150244999Y-100933000I249999J0D01*
G01*
X151995001Y-100933000D01*
G75*
G02*
X152245000Y-101182999I0J-249999D01*
G01*
G37*
D10*
X129818000Y-116393000D03*
X129818000Y-114493000D03*
X132818000Y-115443000D03*
G36*
G01*
X159649000Y-108226500D02*
X160899000Y-108226500D01*
G75*
G02*
X161149000Y-108476500I0J-250000D01*
G01*
X161149000Y-109401500D01*
G75*
G02*
X160899000Y-109651500I-250000J0D01*
G01*
X159649000Y-109651500D01*
G75*
G02*
X159399000Y-109401500I0J250000D01*
G01*
X159399000Y-108476500D01*
G75*
G02*
X159649000Y-108226500I250000J0D01*
G01*
G37*
G36*
G01*
X159649000Y-111201500D02*
X160899000Y-111201500D01*
G75*
G02*
X161149000Y-111451500I0J-250000D01*
G01*
X161149000Y-112376500D01*
G75*
G02*
X160899000Y-112626500I-250000J0D01*
G01*
X159649000Y-112626500D01*
G75*
G02*
X159399000Y-112376500I0J250000D01*
G01*
X159399000Y-111451500D01*
G75*
G02*
X159649000Y-111201500I250000J0D01*
G01*
G37*
G36*
G01*
X130226000Y-113099001D02*
X130226000Y-112198999D01*
G75*
G02*
X130475999Y-111949000I249999J0D01*
G01*
X131176001Y-111949000D01*
G75*
G02*
X131426000Y-112198999I0J-249999D01*
G01*
X131426000Y-113099001D01*
G75*
G02*
X131176001Y-113349000I-249999J0D01*
G01*
X130475999Y-113349000D01*
G75*
G02*
X130226000Y-113099001I0J249999D01*
G01*
G37*
G36*
G01*
X132226000Y-113099001D02*
X132226000Y-112198999D01*
G75*
G02*
X132475999Y-111949000I249999J0D01*
G01*
X133176001Y-111949000D01*
G75*
G02*
X133426000Y-112198999I0J-249999D01*
G01*
X133426000Y-113099001D01*
G75*
G02*
X133176001Y-113349000I-249999J0D01*
G01*
X132475999Y-113349000D01*
G75*
G02*
X132226000Y-113099001I0J249999D01*
G01*
G37*
G36*
G01*
X145883000Y-107673000D02*
X145883000Y-107973000D01*
G75*
G02*
X145733000Y-108123000I-150000J0D01*
G01*
X143983000Y-108123000D01*
G75*
G02*
X143833000Y-107973000I0J150000D01*
G01*
X143833000Y-107673000D01*
G75*
G02*
X143983000Y-107523000I150000J0D01*
G01*
X145733000Y-107523000D01*
G75*
G02*
X145883000Y-107673000I0J-150000D01*
G01*
G37*
G36*
G01*
X145883000Y-108943000D02*
X145883000Y-109243000D01*
G75*
G02*
X145733000Y-109393000I-150000J0D01*
G01*
X143983000Y-109393000D01*
G75*
G02*
X143833000Y-109243000I0J150000D01*
G01*
X143833000Y-108943000D01*
G75*
G02*
X143983000Y-108793000I150000J0D01*
G01*
X145733000Y-108793000D01*
G75*
G02*
X145883000Y-108943000I0J-150000D01*
G01*
G37*
G36*
G01*
X145883000Y-110213000D02*
X145883000Y-110513000D01*
G75*
G02*
X145733000Y-110663000I-150000J0D01*
G01*
X143983000Y-110663000D01*
G75*
G02*
X143833000Y-110513000I0J150000D01*
G01*
X143833000Y-110213000D01*
G75*
G02*
X143983000Y-110063000I150000J0D01*
G01*
X145733000Y-110063000D01*
G75*
G02*
X145883000Y-110213000I0J-150000D01*
G01*
G37*
G36*
G01*
X145883000Y-111483000D02*
X145883000Y-111783000D01*
G75*
G02*
X145733000Y-111933000I-150000J0D01*
G01*
X143983000Y-111933000D01*
G75*
G02*
X143833000Y-111783000I0J150000D01*
G01*
X143833000Y-111483000D01*
G75*
G02*
X143983000Y-111333000I150000J0D01*
G01*
X145733000Y-111333000D01*
G75*
G02*
X145883000Y-111483000I0J-150000D01*
G01*
G37*
G36*
G01*
X145883000Y-112753000D02*
X145883000Y-113053000D01*
G75*
G02*
X145733000Y-113203000I-150000J0D01*
G01*
X143983000Y-113203000D01*
G75*
G02*
X143833000Y-113053000I0J150000D01*
G01*
X143833000Y-112753000D01*
G75*
G02*
X143983000Y-112603000I150000J0D01*
G01*
X145733000Y-112603000D01*
G75*
G02*
X145883000Y-112753000I0J-150000D01*
G01*
G37*
G36*
G01*
X145883000Y-114023000D02*
X145883000Y-114323000D01*
G75*
G02*
X145733000Y-114473000I-150000J0D01*
G01*
X143983000Y-114473000D01*
G75*
G02*
X143833000Y-114323000I0J150000D01*
G01*
X143833000Y-114023000D01*
G75*
G02*
X143983000Y-113873000I150000J0D01*
G01*
X145733000Y-113873000D01*
G75*
G02*
X145883000Y-114023000I0J-150000D01*
G01*
G37*
G36*
G01*
X145883000Y-115293000D02*
X145883000Y-115593000D01*
G75*
G02*
X145733000Y-115743000I-150000J0D01*
G01*
X143983000Y-115743000D01*
G75*
G02*
X143833000Y-115593000I0J150000D01*
G01*
X143833000Y-115293000D01*
G75*
G02*
X143983000Y-115143000I150000J0D01*
G01*
X145733000Y-115143000D01*
G75*
G02*
X145883000Y-115293000I0J-150000D01*
G01*
G37*
G36*
G01*
X145883000Y-116563000D02*
X145883000Y-116863000D01*
G75*
G02*
X145733000Y-117013000I-150000J0D01*
G01*
X143983000Y-117013000D01*
G75*
G02*
X143833000Y-116863000I0J150000D01*
G01*
X143833000Y-116563000D01*
G75*
G02*
X143983000Y-116413000I150000J0D01*
G01*
X145733000Y-116413000D01*
G75*
G02*
X145883000Y-116563000I0J-150000D01*
G01*
G37*
G36*
G01*
X136583000Y-116563000D02*
X136583000Y-116863000D01*
G75*
G02*
X136433000Y-117013000I-150000J0D01*
G01*
X134683000Y-117013000D01*
G75*
G02*
X134533000Y-116863000I0J150000D01*
G01*
X134533000Y-116563000D01*
G75*
G02*
X134683000Y-116413000I150000J0D01*
G01*
X136433000Y-116413000D01*
G75*
G02*
X136583000Y-116563000I0J-150000D01*
G01*
G37*
G36*
G01*
X136583000Y-115293000D02*
X136583000Y-115593000D01*
G75*
G02*
X136433000Y-115743000I-150000J0D01*
G01*
X134683000Y-115743000D01*
G75*
G02*
X134533000Y-115593000I0J150000D01*
G01*
X134533000Y-115293000D01*
G75*
G02*
X134683000Y-115143000I150000J0D01*
G01*
X136433000Y-115143000D01*
G75*
G02*
X136583000Y-115293000I0J-150000D01*
G01*
G37*
G36*
G01*
X136583000Y-114023000D02*
X136583000Y-114323000D01*
G75*
G02*
X136433000Y-114473000I-150000J0D01*
G01*
X134683000Y-114473000D01*
G75*
G02*
X134533000Y-114323000I0J150000D01*
G01*
X134533000Y-114023000D01*
G75*
G02*
X134683000Y-113873000I150000J0D01*
G01*
X136433000Y-113873000D01*
G75*
G02*
X136583000Y-114023000I0J-150000D01*
G01*
G37*
G36*
G01*
X136583000Y-112753000D02*
X136583000Y-113053000D01*
G75*
G02*
X136433000Y-113203000I-150000J0D01*
G01*
X134683000Y-113203000D01*
G75*
G02*
X134533000Y-113053000I0J150000D01*
G01*
X134533000Y-112753000D01*
G75*
G02*
X134683000Y-112603000I150000J0D01*
G01*
X136433000Y-112603000D01*
G75*
G02*
X136583000Y-112753000I0J-150000D01*
G01*
G37*
G36*
G01*
X136583000Y-111483000D02*
X136583000Y-111783000D01*
G75*
G02*
X136433000Y-111933000I-150000J0D01*
G01*
X134683000Y-111933000D01*
G75*
G02*
X134533000Y-111783000I0J150000D01*
G01*
X134533000Y-111483000D01*
G75*
G02*
X134683000Y-111333000I150000J0D01*
G01*
X136433000Y-111333000D01*
G75*
G02*
X136583000Y-111483000I0J-150000D01*
G01*
G37*
G36*
G01*
X136583000Y-110213000D02*
X136583000Y-110513000D01*
G75*
G02*
X136433000Y-110663000I-150000J0D01*
G01*
X134683000Y-110663000D01*
G75*
G02*
X134533000Y-110513000I0J150000D01*
G01*
X134533000Y-110213000D01*
G75*
G02*
X134683000Y-110063000I150000J0D01*
G01*
X136433000Y-110063000D01*
G75*
G02*
X136583000Y-110213000I0J-150000D01*
G01*
G37*
G36*
G01*
X136583000Y-108943000D02*
X136583000Y-109243000D01*
G75*
G02*
X136433000Y-109393000I-150000J0D01*
G01*
X134683000Y-109393000D01*
G75*
G02*
X134533000Y-109243000I0J150000D01*
G01*
X134533000Y-108943000D01*
G75*
G02*
X134683000Y-108793000I150000J0D01*
G01*
X136433000Y-108793000D01*
G75*
G02*
X136583000Y-108943000I0J-150000D01*
G01*
G37*
G36*
G01*
X136583000Y-107673000D02*
X136583000Y-107973000D01*
G75*
G02*
X136433000Y-108123000I-150000J0D01*
G01*
X134683000Y-108123000D01*
G75*
G02*
X134533000Y-107973000I0J150000D01*
G01*
X134533000Y-107673000D01*
G75*
G02*
X134683000Y-107523000I150000J0D01*
G01*
X136433000Y-107523000D01*
G75*
G02*
X136583000Y-107673000I0J-150000D01*
G01*
G37*
D12*
X138932000Y-68140000D03*
X139732000Y-68140000D03*
X140532000Y-68140000D03*
X141332000Y-68140000D03*
X142132000Y-68140000D03*
X142932000Y-68140000D03*
X143732000Y-68140000D03*
X144532000Y-68140000D03*
D13*
X145982000Y-69590000D03*
X145982000Y-70390000D03*
X145982000Y-71190000D03*
X145982000Y-71990000D03*
X145982000Y-72790000D03*
X145982000Y-73590000D03*
X145982000Y-74390000D03*
X145982000Y-75190000D03*
D12*
X144532000Y-76640000D03*
X143732000Y-76640000D03*
X142932000Y-76640000D03*
X142132000Y-76640000D03*
X141332000Y-76640000D03*
X140532000Y-76640000D03*
X139732000Y-76640000D03*
X138932000Y-76640000D03*
D13*
X137482000Y-75190000D03*
X137482000Y-74390000D03*
X137482000Y-73590000D03*
X137482000Y-72790000D03*
X137482000Y-71990000D03*
X137482000Y-71190000D03*
X137482000Y-70390000D03*
X137482000Y-69590000D03*
G36*
G01*
X158594999Y-95310000D02*
X161445001Y-95310000D01*
G75*
G02*
X161695000Y-95559999I0J-249999D01*
G01*
X161695000Y-96460001D01*
G75*
G02*
X161445001Y-96710000I-249999J0D01*
G01*
X158594999Y-96710000D01*
G75*
G02*
X158345000Y-96460001I0J249999D01*
G01*
X158345000Y-95559999D01*
G75*
G02*
X158594999Y-95310000I249999J0D01*
G01*
G37*
G36*
G01*
X158594999Y-101410000D02*
X161445001Y-101410000D01*
G75*
G02*
X161695000Y-101659999I0J-249999D01*
G01*
X161695000Y-102560001D01*
G75*
G02*
X161445001Y-102810000I-249999J0D01*
G01*
X158594999Y-102810000D01*
G75*
G02*
X158345000Y-102560001I0J249999D01*
G01*
X158345000Y-101659999D01*
G75*
G02*
X158594999Y-101410000I249999J0D01*
G01*
G37*
G36*
G01*
X145187000Y-64356000D02*
X145187000Y-63406000D01*
G75*
G02*
X145437000Y-63156000I250000J0D01*
G01*
X146112000Y-63156000D01*
G75*
G02*
X146362000Y-63406000I0J-250000D01*
G01*
X146362000Y-64356000D01*
G75*
G02*
X146112000Y-64606000I-250000J0D01*
G01*
X145437000Y-64606000D01*
G75*
G02*
X145187000Y-64356000I0J250000D01*
G01*
G37*
G36*
G01*
X147262000Y-64356000D02*
X147262000Y-63406000D01*
G75*
G02*
X147512000Y-63156000I250000J0D01*
G01*
X148187000Y-63156000D01*
G75*
G02*
X148437000Y-63406000I0J-250000D01*
G01*
X148437000Y-64356000D01*
G75*
G02*
X148187000Y-64606000I-250000J0D01*
G01*
X147512000Y-64606000D01*
G75*
G02*
X147262000Y-64356000I0J250000D01*
G01*
G37*
G36*
G01*
X144627000Y-63406000D02*
X144627000Y-64356000D01*
G75*
G02*
X144377000Y-64606000I-250000J0D01*
G01*
X143702000Y-64606000D01*
G75*
G02*
X143452000Y-64356000I0J250000D01*
G01*
X143452000Y-63406000D01*
G75*
G02*
X143702000Y-63156000I250000J0D01*
G01*
X144377000Y-63156000D01*
G75*
G02*
X144627000Y-63406000I0J-250000D01*
G01*
G37*
G36*
G01*
X142552000Y-63406000D02*
X142552000Y-64356000D01*
G75*
G02*
X142302000Y-64606000I-250000J0D01*
G01*
X141627000Y-64606000D01*
G75*
G02*
X141377000Y-64356000I0J250000D01*
G01*
X141377000Y-63406000D01*
G75*
G02*
X141627000Y-63156000I250000J0D01*
G01*
X142302000Y-63156000D01*
G75*
G02*
X142552000Y-63406000I0J-250000D01*
G01*
G37*
D10*
X167616000Y-92776000D03*
X167616000Y-94676000D03*
X164616000Y-93726000D03*
G36*
G01*
X177369999Y-74092000D02*
X178270001Y-74092000D01*
G75*
G02*
X178520000Y-74341999I0J-249999D01*
G01*
X178520000Y-75042001D01*
G75*
G02*
X178270001Y-75292000I-249999J0D01*
G01*
X177369999Y-75292000D01*
G75*
G02*
X177120000Y-75042001I0J249999D01*
G01*
X177120000Y-74341999D01*
G75*
G02*
X177369999Y-74092000I249999J0D01*
G01*
G37*
G36*
G01*
X177369999Y-76092000D02*
X178270001Y-76092000D01*
G75*
G02*
X178520000Y-76341999I0J-249999D01*
G01*
X178520000Y-77042001D01*
G75*
G02*
X178270001Y-77292000I-249999J0D01*
G01*
X177369999Y-77292000D01*
G75*
G02*
X177120000Y-77042001I0J249999D01*
G01*
X177120000Y-76341999D01*
G75*
G02*
X177369999Y-76092000I249999J0D01*
G01*
G37*
G36*
G01*
X150044999Y-63043000D02*
X150945001Y-63043000D01*
G75*
G02*
X151195000Y-63292999I0J-249999D01*
G01*
X151195000Y-63993001D01*
G75*
G02*
X150945001Y-64243000I-249999J0D01*
G01*
X150044999Y-64243000D01*
G75*
G02*
X149795000Y-63993001I0J249999D01*
G01*
X149795000Y-63292999D01*
G75*
G02*
X150044999Y-63043000I249999J0D01*
G01*
G37*
G36*
G01*
X150044999Y-65043000D02*
X150945001Y-65043000D01*
G75*
G02*
X151195000Y-65292999I0J-249999D01*
G01*
X151195000Y-65993001D01*
G75*
G02*
X150945001Y-66243000I-249999J0D01*
G01*
X150044999Y-66243000D01*
G75*
G02*
X149795000Y-65993001I0J249999D01*
G01*
X149795000Y-65292999D01*
G75*
G02*
X150044999Y-65043000I249999J0D01*
G01*
G37*
G36*
G01*
X136424000Y-79342000D02*
X136424000Y-78392000D01*
G75*
G02*
X136674000Y-78142000I250000J0D01*
G01*
X137349000Y-78142000D01*
G75*
G02*
X137599000Y-78392000I0J-250000D01*
G01*
X137599000Y-79342000D01*
G75*
G02*
X137349000Y-79592000I-250000J0D01*
G01*
X136674000Y-79592000D01*
G75*
G02*
X136424000Y-79342000I0J250000D01*
G01*
G37*
G36*
G01*
X138499000Y-79342000D02*
X138499000Y-78392000D01*
G75*
G02*
X138749000Y-78142000I250000J0D01*
G01*
X139424000Y-78142000D01*
G75*
G02*
X139674000Y-78392000I0J-250000D01*
G01*
X139674000Y-79342000D01*
G75*
G02*
X139424000Y-79592000I-250000J0D01*
G01*
X138749000Y-79592000D01*
G75*
G02*
X138499000Y-79342000I0J250000D01*
G01*
G37*
D14*
X176276000Y-108610000D03*
D15*
X176276000Y-114910000D03*
X173976000Y-114910000D03*
X178576000Y-114910000D03*
G36*
G01*
X129990001Y-66878000D02*
X129089999Y-66878000D01*
G75*
G02*
X128840000Y-66628001I0J249999D01*
G01*
X128840000Y-65927999D01*
G75*
G02*
X129089999Y-65678000I249999J0D01*
G01*
X129990001Y-65678000D01*
G75*
G02*
X130240000Y-65927999I0J-249999D01*
G01*
X130240000Y-66628001D01*
G75*
G02*
X129990001Y-66878000I-249999J0D01*
G01*
G37*
G36*
G01*
X129990001Y-64878000D02*
X129089999Y-64878000D01*
G75*
G02*
X128840000Y-64628001I0J249999D01*
G01*
X128840000Y-63927999D01*
G75*
G02*
X129089999Y-63678000I249999J0D01*
G01*
X129990001Y-63678000D01*
G75*
G02*
X130240000Y-63927999I0J-249999D01*
G01*
X130240000Y-64628001D01*
G75*
G02*
X129990001Y-64878000I-249999J0D01*
G01*
G37*
G36*
G01*
X165786000Y-101034001D02*
X165786000Y-100133999D01*
G75*
G02*
X166035999Y-99884000I249999J0D01*
G01*
X166736001Y-99884000D01*
G75*
G02*
X166986000Y-100133999I0J-249999D01*
G01*
X166986000Y-101034001D01*
G75*
G02*
X166736001Y-101284000I-249999J0D01*
G01*
X166035999Y-101284000D01*
G75*
G02*
X165786000Y-101034001I0J249999D01*
G01*
G37*
G36*
G01*
X167786000Y-101034001D02*
X167786000Y-100133999D01*
G75*
G02*
X168035999Y-99884000I249999J0D01*
G01*
X168736001Y-99884000D01*
G75*
G02*
X168986000Y-100133999I0J-249999D01*
G01*
X168986000Y-101034001D01*
G75*
G02*
X168736001Y-101284000I-249999J0D01*
G01*
X168035999Y-101284000D01*
G75*
G02*
X167786000Y-101034001I0J249999D01*
G01*
G37*
G36*
G01*
X165786000Y-105225001D02*
X165786000Y-104324999D01*
G75*
G02*
X166035999Y-104075000I249999J0D01*
G01*
X166736001Y-104075000D01*
G75*
G02*
X166986000Y-104324999I0J-249999D01*
G01*
X166986000Y-105225001D01*
G75*
G02*
X166736001Y-105475000I-249999J0D01*
G01*
X166035999Y-105475000D01*
G75*
G02*
X165786000Y-105225001I0J249999D01*
G01*
G37*
G36*
G01*
X167786000Y-105225001D02*
X167786000Y-104324999D01*
G75*
G02*
X168035999Y-104075000I249999J0D01*
G01*
X168736001Y-104075000D01*
G75*
G02*
X168986000Y-104324999I0J-249999D01*
G01*
X168986000Y-105225001D01*
G75*
G02*
X168736001Y-105475000I-249999J0D01*
G01*
X168035999Y-105475000D01*
G75*
G02*
X167786000Y-105225001I0J249999D01*
G01*
G37*
G36*
G01*
X171800500Y-73495500D02*
X172750500Y-73495500D01*
G75*
G02*
X173000500Y-73745500I0J-250000D01*
G01*
X173000500Y-74420500D01*
G75*
G02*
X172750500Y-74670500I-250000J0D01*
G01*
X171800500Y-74670500D01*
G75*
G02*
X171550500Y-74420500I0J250000D01*
G01*
X171550500Y-73745500D01*
G75*
G02*
X171800500Y-73495500I250000J0D01*
G01*
G37*
G36*
G01*
X171800500Y-75570500D02*
X172750500Y-75570500D01*
G75*
G02*
X173000500Y-75820500I0J-250000D01*
G01*
X173000500Y-76495500D01*
G75*
G02*
X172750500Y-76745500I-250000J0D01*
G01*
X171800500Y-76745500D01*
G75*
G02*
X171550500Y-76495500I0J250000D01*
G01*
X171550500Y-75820500D01*
G75*
G02*
X171800500Y-75570500I250000J0D01*
G01*
G37*
G36*
G01*
X182708999Y-108011000D02*
X183559001Y-108011000D01*
G75*
G02*
X183809000Y-108260999I0J-249999D01*
G01*
X183809000Y-109336001D01*
G75*
G02*
X183559001Y-109586000I-249999J0D01*
G01*
X182708999Y-109586000D01*
G75*
G02*
X182459000Y-109336001I0J249999D01*
G01*
X182459000Y-108260999D01*
G75*
G02*
X182708999Y-108011000I249999J0D01*
G01*
G37*
G36*
G01*
X182708999Y-110886000D02*
X183559001Y-110886000D01*
G75*
G02*
X183809000Y-111135999I0J-249999D01*
G01*
X183809000Y-112211001D01*
G75*
G02*
X183559001Y-112461000I-249999J0D01*
G01*
X182708999Y-112461000D01*
G75*
G02*
X182459000Y-112211001I0J249999D01*
G01*
X182459000Y-111135999D01*
G75*
G02*
X182708999Y-110886000I249999J0D01*
G01*
G37*
G36*
G01*
X154218500Y-109072000D02*
X154518500Y-109072000D01*
G75*
G02*
X154668500Y-109222000I0J-150000D01*
G01*
X154668500Y-110872000D01*
G75*
G02*
X154518500Y-111022000I-150000J0D01*
G01*
X154218500Y-111022000D01*
G75*
G02*
X154068500Y-110872000I0J150000D01*
G01*
X154068500Y-109222000D01*
G75*
G02*
X154218500Y-109072000I150000J0D01*
G01*
G37*
G36*
G01*
X155488500Y-109072000D02*
X155788500Y-109072000D01*
G75*
G02*
X155938500Y-109222000I0J-150000D01*
G01*
X155938500Y-110872000D01*
G75*
G02*
X155788500Y-111022000I-150000J0D01*
G01*
X155488500Y-111022000D01*
G75*
G02*
X155338500Y-110872000I0J150000D01*
G01*
X155338500Y-109222000D01*
G75*
G02*
X155488500Y-109072000I150000J0D01*
G01*
G37*
G36*
G01*
X156758500Y-109072000D02*
X157058500Y-109072000D01*
G75*
G02*
X157208500Y-109222000I0J-150000D01*
G01*
X157208500Y-110872000D01*
G75*
G02*
X157058500Y-111022000I-150000J0D01*
G01*
X156758500Y-111022000D01*
G75*
G02*
X156608500Y-110872000I0J150000D01*
G01*
X156608500Y-109222000D01*
G75*
G02*
X156758500Y-109072000I150000J0D01*
G01*
G37*
G36*
G01*
X158028500Y-109072000D02*
X158328500Y-109072000D01*
G75*
G02*
X158478500Y-109222000I0J-150000D01*
G01*
X158478500Y-110872000D01*
G75*
G02*
X158328500Y-111022000I-150000J0D01*
G01*
X158028500Y-111022000D01*
G75*
G02*
X157878500Y-110872000I0J150000D01*
G01*
X157878500Y-109222000D01*
G75*
G02*
X158028500Y-109072000I150000J0D01*
G01*
G37*
G36*
G01*
X158028500Y-114022000D02*
X158328500Y-114022000D01*
G75*
G02*
X158478500Y-114172000I0J-150000D01*
G01*
X158478500Y-115822000D01*
G75*
G02*
X158328500Y-115972000I-150000J0D01*
G01*
X158028500Y-115972000D01*
G75*
G02*
X157878500Y-115822000I0J150000D01*
G01*
X157878500Y-114172000D01*
G75*
G02*
X158028500Y-114022000I150000J0D01*
G01*
G37*
G36*
G01*
X156758500Y-114022000D02*
X157058500Y-114022000D01*
G75*
G02*
X157208500Y-114172000I0J-150000D01*
G01*
X157208500Y-115822000D01*
G75*
G02*
X157058500Y-115972000I-150000J0D01*
G01*
X156758500Y-115972000D01*
G75*
G02*
X156608500Y-115822000I0J150000D01*
G01*
X156608500Y-114172000D01*
G75*
G02*
X156758500Y-114022000I150000J0D01*
G01*
G37*
G36*
G01*
X155488500Y-114022000D02*
X155788500Y-114022000D01*
G75*
G02*
X155938500Y-114172000I0J-150000D01*
G01*
X155938500Y-115822000D01*
G75*
G02*
X155788500Y-115972000I-150000J0D01*
G01*
X155488500Y-115972000D01*
G75*
G02*
X155338500Y-115822000I0J150000D01*
G01*
X155338500Y-114172000D01*
G75*
G02*
X155488500Y-114022000I150000J0D01*
G01*
G37*
G36*
G01*
X154218500Y-114022000D02*
X154518500Y-114022000D01*
G75*
G02*
X154668500Y-114172000I0J-150000D01*
G01*
X154668500Y-115822000D01*
G75*
G02*
X154518500Y-115972000I-150000J0D01*
G01*
X154218500Y-115972000D01*
G75*
G02*
X154068500Y-115822000I0J150000D01*
G01*
X154068500Y-114172000D01*
G75*
G02*
X154218500Y-114022000I150000J0D01*
G01*
G37*
G36*
G01*
X161791000Y-73362000D02*
X161991000Y-73362000D01*
G75*
G02*
X162091000Y-73462000I0J-100000D01*
G01*
X162091000Y-74737000D01*
G75*
G02*
X161991000Y-74837000I-100000J0D01*
G01*
X161791000Y-74837000D01*
G75*
G02*
X161691000Y-74737000I0J100000D01*
G01*
X161691000Y-73462000D01*
G75*
G02*
X161791000Y-73362000I100000J0D01*
G01*
G37*
G36*
G01*
X162441000Y-73362000D02*
X162641000Y-73362000D01*
G75*
G02*
X162741000Y-73462000I0J-100000D01*
G01*
X162741000Y-74737000D01*
G75*
G02*
X162641000Y-74837000I-100000J0D01*
G01*
X162441000Y-74837000D01*
G75*
G02*
X162341000Y-74737000I0J100000D01*
G01*
X162341000Y-73462000D01*
G75*
G02*
X162441000Y-73362000I100000J0D01*
G01*
G37*
G36*
G01*
X163091000Y-73362000D02*
X163291000Y-73362000D01*
G75*
G02*
X163391000Y-73462000I0J-100000D01*
G01*
X163391000Y-74737000D01*
G75*
G02*
X163291000Y-74837000I-100000J0D01*
G01*
X163091000Y-74837000D01*
G75*
G02*
X162991000Y-74737000I0J100000D01*
G01*
X162991000Y-73462000D01*
G75*
G02*
X163091000Y-73362000I100000J0D01*
G01*
G37*
G36*
G01*
X163741000Y-73362000D02*
X163941000Y-73362000D01*
G75*
G02*
X164041000Y-73462000I0J-100000D01*
G01*
X164041000Y-74737000D01*
G75*
G02*
X163941000Y-74837000I-100000J0D01*
G01*
X163741000Y-74837000D01*
G75*
G02*
X163641000Y-74737000I0J100000D01*
G01*
X163641000Y-73462000D01*
G75*
G02*
X163741000Y-73362000I100000J0D01*
G01*
G37*
G36*
G01*
X164391000Y-73362000D02*
X164591000Y-73362000D01*
G75*
G02*
X164691000Y-73462000I0J-100000D01*
G01*
X164691000Y-74737000D01*
G75*
G02*
X164591000Y-74837000I-100000J0D01*
G01*
X164391000Y-74837000D01*
G75*
G02*
X164291000Y-74737000I0J100000D01*
G01*
X164291000Y-73462000D01*
G75*
G02*
X164391000Y-73362000I100000J0D01*
G01*
G37*
G36*
G01*
X165041000Y-73362000D02*
X165241000Y-73362000D01*
G75*
G02*
X165341000Y-73462000I0J-100000D01*
G01*
X165341000Y-74737000D01*
G75*
G02*
X165241000Y-74837000I-100000J0D01*
G01*
X165041000Y-74837000D01*
G75*
G02*
X164941000Y-74737000I0J100000D01*
G01*
X164941000Y-73462000D01*
G75*
G02*
X165041000Y-73362000I100000J0D01*
G01*
G37*
G36*
G01*
X165691000Y-73362000D02*
X165891000Y-73362000D01*
G75*
G02*
X165991000Y-73462000I0J-100000D01*
G01*
X165991000Y-74737000D01*
G75*
G02*
X165891000Y-74837000I-100000J0D01*
G01*
X165691000Y-74837000D01*
G75*
G02*
X165591000Y-74737000I0J100000D01*
G01*
X165591000Y-73462000D01*
G75*
G02*
X165691000Y-73362000I100000J0D01*
G01*
G37*
G36*
G01*
X166341000Y-73362000D02*
X166541000Y-73362000D01*
G75*
G02*
X166641000Y-73462000I0J-100000D01*
G01*
X166641000Y-74737000D01*
G75*
G02*
X166541000Y-74837000I-100000J0D01*
G01*
X166341000Y-74837000D01*
G75*
G02*
X166241000Y-74737000I0J100000D01*
G01*
X166241000Y-73462000D01*
G75*
G02*
X166341000Y-73362000I100000J0D01*
G01*
G37*
G36*
G01*
X166991000Y-73362000D02*
X167191000Y-73362000D01*
G75*
G02*
X167291000Y-73462000I0J-100000D01*
G01*
X167291000Y-74737000D01*
G75*
G02*
X167191000Y-74837000I-100000J0D01*
G01*
X166991000Y-74837000D01*
G75*
G02*
X166891000Y-74737000I0J100000D01*
G01*
X166891000Y-73462000D01*
G75*
G02*
X166991000Y-73362000I100000J0D01*
G01*
G37*
G36*
G01*
X167641000Y-73362000D02*
X167841000Y-73362000D01*
G75*
G02*
X167941000Y-73462000I0J-100000D01*
G01*
X167941000Y-74737000D01*
G75*
G02*
X167841000Y-74837000I-100000J0D01*
G01*
X167641000Y-74837000D01*
G75*
G02*
X167541000Y-74737000I0J100000D01*
G01*
X167541000Y-73462000D01*
G75*
G02*
X167641000Y-73362000I100000J0D01*
G01*
G37*
G36*
G01*
X168291000Y-73362000D02*
X168491000Y-73362000D01*
G75*
G02*
X168591000Y-73462000I0J-100000D01*
G01*
X168591000Y-74737000D01*
G75*
G02*
X168491000Y-74837000I-100000J0D01*
G01*
X168291000Y-74837000D01*
G75*
G02*
X168191000Y-74737000I0J100000D01*
G01*
X168191000Y-73462000D01*
G75*
G02*
X168291000Y-73362000I100000J0D01*
G01*
G37*
G36*
G01*
X168941000Y-73362000D02*
X169141000Y-73362000D01*
G75*
G02*
X169241000Y-73462000I0J-100000D01*
G01*
X169241000Y-74737000D01*
G75*
G02*
X169141000Y-74837000I-100000J0D01*
G01*
X168941000Y-74837000D01*
G75*
G02*
X168841000Y-74737000I0J100000D01*
G01*
X168841000Y-73462000D01*
G75*
G02*
X168941000Y-73362000I100000J0D01*
G01*
G37*
G36*
G01*
X169591000Y-73362000D02*
X169791000Y-73362000D01*
G75*
G02*
X169891000Y-73462000I0J-100000D01*
G01*
X169891000Y-74737000D01*
G75*
G02*
X169791000Y-74837000I-100000J0D01*
G01*
X169591000Y-74837000D01*
G75*
G02*
X169491000Y-74737000I0J100000D01*
G01*
X169491000Y-73462000D01*
G75*
G02*
X169591000Y-73362000I100000J0D01*
G01*
G37*
G36*
G01*
X170241000Y-73362000D02*
X170441000Y-73362000D01*
G75*
G02*
X170541000Y-73462000I0J-100000D01*
G01*
X170541000Y-74737000D01*
G75*
G02*
X170441000Y-74837000I-100000J0D01*
G01*
X170241000Y-74837000D01*
G75*
G02*
X170141000Y-74737000I0J100000D01*
G01*
X170141000Y-73462000D01*
G75*
G02*
X170241000Y-73362000I100000J0D01*
G01*
G37*
G36*
G01*
X170241000Y-79087000D02*
X170441000Y-79087000D01*
G75*
G02*
X170541000Y-79187000I0J-100000D01*
G01*
X170541000Y-80462000D01*
G75*
G02*
X170441000Y-80562000I-100000J0D01*
G01*
X170241000Y-80562000D01*
G75*
G02*
X170141000Y-80462000I0J100000D01*
G01*
X170141000Y-79187000D01*
G75*
G02*
X170241000Y-79087000I100000J0D01*
G01*
G37*
G36*
G01*
X169591000Y-79087000D02*
X169791000Y-79087000D01*
G75*
G02*
X169891000Y-79187000I0J-100000D01*
G01*
X169891000Y-80462000D01*
G75*
G02*
X169791000Y-80562000I-100000J0D01*
G01*
X169591000Y-80562000D01*
G75*
G02*
X169491000Y-80462000I0J100000D01*
G01*
X169491000Y-79187000D01*
G75*
G02*
X169591000Y-79087000I100000J0D01*
G01*
G37*
G36*
G01*
X168941000Y-79087000D02*
X169141000Y-79087000D01*
G75*
G02*
X169241000Y-79187000I0J-100000D01*
G01*
X169241000Y-80462000D01*
G75*
G02*
X169141000Y-80562000I-100000J0D01*
G01*
X168941000Y-80562000D01*
G75*
G02*
X168841000Y-80462000I0J100000D01*
G01*
X168841000Y-79187000D01*
G75*
G02*
X168941000Y-79087000I100000J0D01*
G01*
G37*
G36*
G01*
X168291000Y-79087000D02*
X168491000Y-79087000D01*
G75*
G02*
X168591000Y-79187000I0J-100000D01*
G01*
X168591000Y-80462000D01*
G75*
G02*
X168491000Y-80562000I-100000J0D01*
G01*
X168291000Y-80562000D01*
G75*
G02*
X168191000Y-80462000I0J100000D01*
G01*
X168191000Y-79187000D01*
G75*
G02*
X168291000Y-79087000I100000J0D01*
G01*
G37*
G36*
G01*
X167641000Y-79087000D02*
X167841000Y-79087000D01*
G75*
G02*
X167941000Y-79187000I0J-100000D01*
G01*
X167941000Y-80462000D01*
G75*
G02*
X167841000Y-80562000I-100000J0D01*
G01*
X167641000Y-80562000D01*
G75*
G02*
X167541000Y-80462000I0J100000D01*
G01*
X167541000Y-79187000D01*
G75*
G02*
X167641000Y-79087000I100000J0D01*
G01*
G37*
G36*
G01*
X166991000Y-79087000D02*
X167191000Y-79087000D01*
G75*
G02*
X167291000Y-79187000I0J-100000D01*
G01*
X167291000Y-80462000D01*
G75*
G02*
X167191000Y-80562000I-100000J0D01*
G01*
X166991000Y-80562000D01*
G75*
G02*
X166891000Y-80462000I0J100000D01*
G01*
X166891000Y-79187000D01*
G75*
G02*
X166991000Y-79087000I100000J0D01*
G01*
G37*
G36*
G01*
X166341000Y-79087000D02*
X166541000Y-79087000D01*
G75*
G02*
X166641000Y-79187000I0J-100000D01*
G01*
X166641000Y-80462000D01*
G75*
G02*
X166541000Y-80562000I-100000J0D01*
G01*
X166341000Y-80562000D01*
G75*
G02*
X166241000Y-80462000I0J100000D01*
G01*
X166241000Y-79187000D01*
G75*
G02*
X166341000Y-79087000I100000J0D01*
G01*
G37*
G36*
G01*
X165691000Y-79087000D02*
X165891000Y-79087000D01*
G75*
G02*
X165991000Y-79187000I0J-100000D01*
G01*
X165991000Y-80462000D01*
G75*
G02*
X165891000Y-80562000I-100000J0D01*
G01*
X165691000Y-80562000D01*
G75*
G02*
X165591000Y-80462000I0J100000D01*
G01*
X165591000Y-79187000D01*
G75*
G02*
X165691000Y-79087000I100000J0D01*
G01*
G37*
G36*
G01*
X165041000Y-79087000D02*
X165241000Y-79087000D01*
G75*
G02*
X165341000Y-79187000I0J-100000D01*
G01*
X165341000Y-80462000D01*
G75*
G02*
X165241000Y-80562000I-100000J0D01*
G01*
X165041000Y-80562000D01*
G75*
G02*
X164941000Y-80462000I0J100000D01*
G01*
X164941000Y-79187000D01*
G75*
G02*
X165041000Y-79087000I100000J0D01*
G01*
G37*
G36*
G01*
X164391000Y-79087000D02*
X164591000Y-79087000D01*
G75*
G02*
X164691000Y-79187000I0J-100000D01*
G01*
X164691000Y-80462000D01*
G75*
G02*
X164591000Y-80562000I-100000J0D01*
G01*
X164391000Y-80562000D01*
G75*
G02*
X164291000Y-80462000I0J100000D01*
G01*
X164291000Y-79187000D01*
G75*
G02*
X164391000Y-79087000I100000J0D01*
G01*
G37*
G36*
G01*
X163741000Y-79087000D02*
X163941000Y-79087000D01*
G75*
G02*
X164041000Y-79187000I0J-100000D01*
G01*
X164041000Y-80462000D01*
G75*
G02*
X163941000Y-80562000I-100000J0D01*
G01*
X163741000Y-80562000D01*
G75*
G02*
X163641000Y-80462000I0J100000D01*
G01*
X163641000Y-79187000D01*
G75*
G02*
X163741000Y-79087000I100000J0D01*
G01*
G37*
G36*
G01*
X163091000Y-79087000D02*
X163291000Y-79087000D01*
G75*
G02*
X163391000Y-79187000I0J-100000D01*
G01*
X163391000Y-80462000D01*
G75*
G02*
X163291000Y-80562000I-100000J0D01*
G01*
X163091000Y-80562000D01*
G75*
G02*
X162991000Y-80462000I0J100000D01*
G01*
X162991000Y-79187000D01*
G75*
G02*
X163091000Y-79087000I100000J0D01*
G01*
G37*
G36*
G01*
X162441000Y-79087000D02*
X162641000Y-79087000D01*
G75*
G02*
X162741000Y-79187000I0J-100000D01*
G01*
X162741000Y-80462000D01*
G75*
G02*
X162641000Y-80562000I-100000J0D01*
G01*
X162441000Y-80562000D01*
G75*
G02*
X162341000Y-80462000I0J100000D01*
G01*
X162341000Y-79187000D01*
G75*
G02*
X162441000Y-79087000I100000J0D01*
G01*
G37*
G36*
G01*
X161791000Y-79087000D02*
X161991000Y-79087000D01*
G75*
G02*
X162091000Y-79187000I0J-100000D01*
G01*
X162091000Y-80462000D01*
G75*
G02*
X161991000Y-80562000I-100000J0D01*
G01*
X161791000Y-80562000D01*
G75*
G02*
X161691000Y-80462000I0J100000D01*
G01*
X161691000Y-79187000D01*
G75*
G02*
X161791000Y-79087000I100000J0D01*
G01*
G37*
G36*
G01*
X150013000Y-115791000D02*
X150013000Y-114841000D01*
G75*
G02*
X150263000Y-114591000I250000J0D01*
G01*
X150938000Y-114591000D01*
G75*
G02*
X151188000Y-114841000I0J-250000D01*
G01*
X151188000Y-115791000D01*
G75*
G02*
X150938000Y-116041000I-250000J0D01*
G01*
X150263000Y-116041000D01*
G75*
G02*
X150013000Y-115791000I0J250000D01*
G01*
G37*
G36*
G01*
X152088000Y-115791000D02*
X152088000Y-114841000D01*
G75*
G02*
X152338000Y-114591000I250000J0D01*
G01*
X153013000Y-114591000D01*
G75*
G02*
X153263000Y-114841000I0J-250000D01*
G01*
X153263000Y-115791000D01*
G75*
G02*
X153013000Y-116041000I-250000J0D01*
G01*
X152338000Y-116041000D01*
G75*
G02*
X152088000Y-115791000I0J250000D01*
G01*
G37*
G36*
G01*
X156304000Y-66268000D02*
X155354000Y-66268000D01*
G75*
G02*
X155104000Y-66018000I0J250000D01*
G01*
X155104000Y-65343000D01*
G75*
G02*
X155354000Y-65093000I250000J0D01*
G01*
X156304000Y-65093000D01*
G75*
G02*
X156554000Y-65343000I0J-250000D01*
G01*
X156554000Y-66018000D01*
G75*
G02*
X156304000Y-66268000I-250000J0D01*
G01*
G37*
G36*
G01*
X156304000Y-64193000D02*
X155354000Y-64193000D01*
G75*
G02*
X155104000Y-63943000I0J250000D01*
G01*
X155104000Y-63268000D01*
G75*
G02*
X155354000Y-63018000I250000J0D01*
G01*
X156304000Y-63018000D01*
G75*
G02*
X156554000Y-63268000I0J-250000D01*
G01*
X156554000Y-63943000D01*
G75*
G02*
X156304000Y-64193000I-250000J0D01*
G01*
G37*
G36*
G01*
X158299999Y-57328000D02*
X159200001Y-57328000D01*
G75*
G02*
X159450000Y-57577999I0J-249999D01*
G01*
X159450000Y-58278001D01*
G75*
G02*
X159200001Y-58528000I-249999J0D01*
G01*
X158299999Y-58528000D01*
G75*
G02*
X158050000Y-58278001I0J249999D01*
G01*
X158050000Y-57577999D01*
G75*
G02*
X158299999Y-57328000I249999J0D01*
G01*
G37*
G36*
G01*
X158299999Y-59328000D02*
X159200001Y-59328000D01*
G75*
G02*
X159450000Y-59577999I0J-249999D01*
G01*
X159450000Y-60278001D01*
G75*
G02*
X159200001Y-60528000I-249999J0D01*
G01*
X158299999Y-60528000D01*
G75*
G02*
X158050000Y-60278001I0J249999D01*
G01*
X158050000Y-59577999D01*
G75*
G02*
X158299999Y-59328000I249999J0D01*
G01*
G37*
G36*
G01*
X163379999Y-57328000D02*
X164280001Y-57328000D01*
G75*
G02*
X164530000Y-57577999I0J-249999D01*
G01*
X164530000Y-58278001D01*
G75*
G02*
X164280001Y-58528000I-249999J0D01*
G01*
X163379999Y-58528000D01*
G75*
G02*
X163130000Y-58278001I0J249999D01*
G01*
X163130000Y-57577999D01*
G75*
G02*
X163379999Y-57328000I249999J0D01*
G01*
G37*
G36*
G01*
X163379999Y-59328000D02*
X164280001Y-59328000D01*
G75*
G02*
X164530000Y-59577999I0J-249999D01*
G01*
X164530000Y-60278001D01*
G75*
G02*
X164280001Y-60528000I-249999J0D01*
G01*
X163379999Y-60528000D01*
G75*
G02*
X163130000Y-60278001I0J249999D01*
G01*
X163130000Y-59577999D01*
G75*
G02*
X163379999Y-59328000I249999J0D01*
G01*
G37*
G36*
G01*
X168459999Y-57328000D02*
X169360001Y-57328000D01*
G75*
G02*
X169610000Y-57577999I0J-249999D01*
G01*
X169610000Y-58278001D01*
G75*
G02*
X169360001Y-58528000I-249999J0D01*
G01*
X168459999Y-58528000D01*
G75*
G02*
X168210000Y-58278001I0J249999D01*
G01*
X168210000Y-57577999D01*
G75*
G02*
X168459999Y-57328000I249999J0D01*
G01*
G37*
G36*
G01*
X168459999Y-59328000D02*
X169360001Y-59328000D01*
G75*
G02*
X169610000Y-59577999I0J-249999D01*
G01*
X169610000Y-60278001D01*
G75*
G02*
X169360001Y-60528000I-249999J0D01*
G01*
X168459999Y-60528000D01*
G75*
G02*
X168210000Y-60278001I0J249999D01*
G01*
X168210000Y-59577999D01*
G75*
G02*
X168459999Y-59328000I249999J0D01*
G01*
G37*
G36*
G01*
X173539999Y-57328000D02*
X174440001Y-57328000D01*
G75*
G02*
X174690000Y-57577999I0J-249999D01*
G01*
X174690000Y-58278001D01*
G75*
G02*
X174440001Y-58528000I-249999J0D01*
G01*
X173539999Y-58528000D01*
G75*
G02*
X173290000Y-58278001I0J249999D01*
G01*
X173290000Y-57577999D01*
G75*
G02*
X173539999Y-57328000I249999J0D01*
G01*
G37*
G36*
G01*
X173539999Y-59328000D02*
X174440001Y-59328000D01*
G75*
G02*
X174690000Y-59577999I0J-249999D01*
G01*
X174690000Y-60278001D01*
G75*
G02*
X174440001Y-60528000I-249999J0D01*
G01*
X173539999Y-60528000D01*
G75*
G02*
X173290000Y-60278001I0J249999D01*
G01*
X173290000Y-59577999D01*
G75*
G02*
X173539999Y-59328000I249999J0D01*
G01*
G37*
G36*
G01*
X150013000Y-118458000D02*
X150013000Y-117508000D01*
G75*
G02*
X150263000Y-117258000I250000J0D01*
G01*
X150938000Y-117258000D01*
G75*
G02*
X151188000Y-117508000I0J-250000D01*
G01*
X151188000Y-118458000D01*
G75*
G02*
X150938000Y-118708000I-250000J0D01*
G01*
X150263000Y-118708000D01*
G75*
G02*
X150013000Y-118458000I0J250000D01*
G01*
G37*
G36*
G01*
X152088000Y-118458000D02*
X152088000Y-117508000D01*
G75*
G02*
X152338000Y-117258000I250000J0D01*
G01*
X153013000Y-117258000D01*
G75*
G02*
X153263000Y-117508000I0J-250000D01*
G01*
X153263000Y-118458000D01*
G75*
G02*
X153013000Y-118708000I-250000J0D01*
G01*
X152338000Y-118708000D01*
G75*
G02*
X152088000Y-118458000I0J250000D01*
G01*
G37*
G36*
G01*
X138753001Y-60528000D02*
X137852999Y-60528000D01*
G75*
G02*
X137603000Y-60278001I0J249999D01*
G01*
X137603000Y-59577999D01*
G75*
G02*
X137852999Y-59328000I249999J0D01*
G01*
X138753001Y-59328000D01*
G75*
G02*
X139003000Y-59577999I0J-249999D01*
G01*
X139003000Y-60278001D01*
G75*
G02*
X138753001Y-60528000I-249999J0D01*
G01*
G37*
G36*
G01*
X138753001Y-58528000D02*
X137852999Y-58528000D01*
G75*
G02*
X137603000Y-58278001I0J249999D01*
G01*
X137603000Y-57577999D01*
G75*
G02*
X137852999Y-57328000I249999J0D01*
G01*
X138753001Y-57328000D01*
G75*
G02*
X139003000Y-57577999I0J-249999D01*
G01*
X139003000Y-58278001D01*
G75*
G02*
X138753001Y-58528000I-249999J0D01*
G01*
G37*
G36*
G01*
X152711999Y-63043000D02*
X153612001Y-63043000D01*
G75*
G02*
X153862000Y-63292999I0J-249999D01*
G01*
X153862000Y-63993001D01*
G75*
G02*
X153612001Y-64243000I-249999J0D01*
G01*
X152711999Y-64243000D01*
G75*
G02*
X152462000Y-63993001I0J249999D01*
G01*
X152462000Y-63292999D01*
G75*
G02*
X152711999Y-63043000I249999J0D01*
G01*
G37*
G36*
G01*
X152711999Y-65043000D02*
X153612001Y-65043000D01*
G75*
G02*
X153862000Y-65292999I0J-249999D01*
G01*
X153862000Y-65993001D01*
G75*
G02*
X153612001Y-66243000I-249999J0D01*
G01*
X152711999Y-66243000D01*
G75*
G02*
X152462000Y-65993001I0J249999D01*
G01*
X152462000Y-65292999D01*
G75*
G02*
X152711999Y-65043000I249999J0D01*
G01*
G37*
D16*
X166370000Y-113759000D03*
X166370000Y-119159000D03*
G36*
G01*
X170721000Y-102007000D02*
X171671000Y-102007000D01*
G75*
G02*
X171921000Y-102257000I0J-250000D01*
G01*
X171921000Y-102932000D01*
G75*
G02*
X171671000Y-103182000I-250000J0D01*
G01*
X170721000Y-103182000D01*
G75*
G02*
X170471000Y-102932000I0J250000D01*
G01*
X170471000Y-102257000D01*
G75*
G02*
X170721000Y-102007000I250000J0D01*
G01*
G37*
G36*
G01*
X170721000Y-104082000D02*
X171671000Y-104082000D01*
G75*
G02*
X171921000Y-104332000I0J-250000D01*
G01*
X171921000Y-105007000D01*
G75*
G02*
X171671000Y-105257000I-250000J0D01*
G01*
X170721000Y-105257000D01*
G75*
G02*
X170471000Y-105007000I0J250000D01*
G01*
X170471000Y-104332000D01*
G75*
G02*
X170721000Y-104082000I250000J0D01*
G01*
G37*
G36*
G01*
X180627000Y-108103000D02*
X181577000Y-108103000D01*
G75*
G02*
X181827000Y-108353000I0J-250000D01*
G01*
X181827000Y-109028000D01*
G75*
G02*
X181577000Y-109278000I-250000J0D01*
G01*
X180627000Y-109278000D01*
G75*
G02*
X180377000Y-109028000I0J250000D01*
G01*
X180377000Y-108353000D01*
G75*
G02*
X180627000Y-108103000I250000J0D01*
G01*
G37*
G36*
G01*
X180627000Y-110178000D02*
X181577000Y-110178000D01*
G75*
G02*
X181827000Y-110428000I0J-250000D01*
G01*
X181827000Y-111103000D01*
G75*
G02*
X181577000Y-111353000I-250000J0D01*
G01*
X180627000Y-111353000D01*
G75*
G02*
X180377000Y-111103000I0J250000D01*
G01*
X180377000Y-110428000D01*
G75*
G02*
X180627000Y-110178000I250000J0D01*
G01*
G37*
G36*
G01*
X165761000Y-99027000D02*
X165761000Y-98077000D01*
G75*
G02*
X166011000Y-97827000I250000J0D01*
G01*
X166686000Y-97827000D01*
G75*
G02*
X166936000Y-98077000I0J-250000D01*
G01*
X166936000Y-99027000D01*
G75*
G02*
X166686000Y-99277000I-250000J0D01*
G01*
X166011000Y-99277000D01*
G75*
G02*
X165761000Y-99027000I0J250000D01*
G01*
G37*
G36*
G01*
X167836000Y-99027000D02*
X167836000Y-98077000D01*
G75*
G02*
X168086000Y-97827000I250000J0D01*
G01*
X168761000Y-97827000D01*
G75*
G02*
X169011000Y-98077000I0J-250000D01*
G01*
X169011000Y-99027000D01*
G75*
G02*
X168761000Y-99277000I-250000J0D01*
G01*
X168086000Y-99277000D01*
G75*
G02*
X167836000Y-99027000I0J250000D01*
G01*
G37*
G36*
G01*
X170721000Y-98197000D02*
X171671000Y-98197000D01*
G75*
G02*
X171921000Y-98447000I0J-250000D01*
G01*
X171921000Y-99122000D01*
G75*
G02*
X171671000Y-99372000I-250000J0D01*
G01*
X170721000Y-99372000D01*
G75*
G02*
X170471000Y-99122000I0J250000D01*
G01*
X170471000Y-98447000D01*
G75*
G02*
X170721000Y-98197000I250000J0D01*
G01*
G37*
G36*
G01*
X170721000Y-100272000D02*
X171671000Y-100272000D01*
G75*
G02*
X171921000Y-100522000I0J-250000D01*
G01*
X171921000Y-101197000D01*
G75*
G02*
X171671000Y-101447000I-250000J0D01*
G01*
X170721000Y-101447000D01*
G75*
G02*
X170471000Y-101197000I0J250000D01*
G01*
X170471000Y-100522000D01*
G75*
G02*
X170721000Y-100272000I250000J0D01*
G01*
G37*
G36*
G01*
X165761000Y-103218000D02*
X165761000Y-102268000D01*
G75*
G02*
X166011000Y-102018000I250000J0D01*
G01*
X166686000Y-102018000D01*
G75*
G02*
X166936000Y-102268000I0J-250000D01*
G01*
X166936000Y-103218000D01*
G75*
G02*
X166686000Y-103468000I-250000J0D01*
G01*
X166011000Y-103468000D01*
G75*
G02*
X165761000Y-103218000I0J250000D01*
G01*
G37*
G36*
G01*
X167836000Y-103218000D02*
X167836000Y-102268000D01*
G75*
G02*
X168086000Y-102018000I250000J0D01*
G01*
X168761000Y-102018000D01*
G75*
G02*
X169011000Y-102268000I0J-250000D01*
G01*
X169011000Y-103218000D01*
G75*
G02*
X168761000Y-103468000I-250000J0D01*
G01*
X168086000Y-103468000D01*
G75*
G02*
X167836000Y-103218000I0J250000D01*
G01*
G37*
G36*
G01*
X156279001Y-99914000D02*
X155378999Y-99914000D01*
G75*
G02*
X155129000Y-99664001I0J249999D01*
G01*
X155129000Y-98963999D01*
G75*
G02*
X155378999Y-98714000I249999J0D01*
G01*
X156279001Y-98714000D01*
G75*
G02*
X156529000Y-98963999I0J-249999D01*
G01*
X156529000Y-99664001D01*
G75*
G02*
X156279001Y-99914000I-249999J0D01*
G01*
G37*
G36*
G01*
X156279001Y-97914000D02*
X155378999Y-97914000D01*
G75*
G02*
X155129000Y-97664001I0J249999D01*
G01*
X155129000Y-96963999D01*
G75*
G02*
X155378999Y-96714000I249999J0D01*
G01*
X156279001Y-96714000D01*
G75*
G02*
X156529000Y-96963999I0J-249999D01*
G01*
X156529000Y-97664001D01*
G75*
G02*
X156279001Y-97914000I-249999J0D01*
G01*
G37*
G36*
G01*
X150054000Y-110178001D02*
X150054000Y-109277999D01*
G75*
G02*
X150303999Y-109028000I249999J0D01*
G01*
X151004001Y-109028000D01*
G75*
G02*
X151254000Y-109277999I0J-249999D01*
G01*
X151254000Y-110178001D01*
G75*
G02*
X151004001Y-110428000I-249999J0D01*
G01*
X150303999Y-110428000D01*
G75*
G02*
X150054000Y-110178001I0J249999D01*
G01*
G37*
G36*
G01*
X152054000Y-110178001D02*
X152054000Y-109277999D01*
G75*
G02*
X152303999Y-109028000I249999J0D01*
G01*
X153004001Y-109028000D01*
G75*
G02*
X153254000Y-109277999I0J-249999D01*
G01*
X153254000Y-110178001D01*
G75*
G02*
X153004001Y-110428000I-249999J0D01*
G01*
X152303999Y-110428000D01*
G75*
G02*
X152054000Y-110178001I0J249999D01*
G01*
G37*
G36*
G01*
X150038000Y-112972001D02*
X150038000Y-112071999D01*
G75*
G02*
X150287999Y-111822000I249999J0D01*
G01*
X150988001Y-111822000D01*
G75*
G02*
X151238000Y-112071999I0J-249999D01*
G01*
X151238000Y-112972001D01*
G75*
G02*
X150988001Y-113222000I-249999J0D01*
G01*
X150287999Y-113222000D01*
G75*
G02*
X150038000Y-112972001I0J249999D01*
G01*
G37*
G36*
G01*
X152038000Y-112972001D02*
X152038000Y-112071999D01*
G75*
G02*
X152287999Y-111822000I249999J0D01*
G01*
X152988001Y-111822000D01*
G75*
G02*
X153238000Y-112071999I0J-249999D01*
G01*
X153238000Y-112972001D01*
G75*
G02*
X152988001Y-113222000I-249999J0D01*
G01*
X152287999Y-113222000D01*
G75*
G02*
X152038000Y-112972001I0J249999D01*
G01*
G37*
G36*
G01*
X159823999Y-104318000D02*
X160724001Y-104318000D01*
G75*
G02*
X160974000Y-104567999I0J-249999D01*
G01*
X160974000Y-105268001D01*
G75*
G02*
X160724001Y-105518000I-249999J0D01*
G01*
X159823999Y-105518000D01*
G75*
G02*
X159574000Y-105268001I0J249999D01*
G01*
X159574000Y-104567999D01*
G75*
G02*
X159823999Y-104318000I249999J0D01*
G01*
G37*
G36*
G01*
X159823999Y-106318000D02*
X160724001Y-106318000D01*
G75*
G02*
X160974000Y-106567999I0J-249999D01*
G01*
X160974000Y-107268001D01*
G75*
G02*
X160724001Y-107518000I-249999J0D01*
G01*
X159823999Y-107518000D01*
G75*
G02*
X159574000Y-107268001I0J249999D01*
G01*
X159574000Y-106567999D01*
G75*
G02*
X159823999Y-106318000I249999J0D01*
G01*
G37*
G36*
G01*
X157156999Y-104343400D02*
X158057001Y-104343400D01*
G75*
G02*
X158307000Y-104593399I0J-249999D01*
G01*
X158307000Y-105293401D01*
G75*
G02*
X158057001Y-105543400I-249999J0D01*
G01*
X157156999Y-105543400D01*
G75*
G02*
X156907000Y-105293401I0J249999D01*
G01*
X156907000Y-104593399D01*
G75*
G02*
X157156999Y-104343400I249999J0D01*
G01*
G37*
G36*
G01*
X157156999Y-106343400D02*
X158057001Y-106343400D01*
G75*
G02*
X158307000Y-106593399I0J-249999D01*
G01*
X158307000Y-107293401D01*
G75*
G02*
X158057001Y-107543400I-249999J0D01*
G01*
X157156999Y-107543400D01*
G75*
G02*
X156907000Y-107293401I0J249999D01*
G01*
X156907000Y-106593399D01*
G75*
G02*
X157156999Y-106343400I249999J0D01*
G01*
G37*
G36*
G01*
X152850001Y-107518000D02*
X151949999Y-107518000D01*
G75*
G02*
X151700000Y-107268001I0J249999D01*
G01*
X151700000Y-106567999D01*
G75*
G02*
X151949999Y-106318000I249999J0D01*
G01*
X152850001Y-106318000D01*
G75*
G02*
X153100000Y-106567999I0J-249999D01*
G01*
X153100000Y-107268001D01*
G75*
G02*
X152850001Y-107518000I-249999J0D01*
G01*
G37*
G36*
G01*
X152850001Y-105518000D02*
X151949999Y-105518000D01*
G75*
G02*
X151700000Y-105268001I0J249999D01*
G01*
X151700000Y-104567999D01*
G75*
G02*
X151949999Y-104318000I249999J0D01*
G01*
X152850001Y-104318000D01*
G75*
G02*
X153100000Y-104567999I0J-249999D01*
G01*
X153100000Y-105268001D01*
G75*
G02*
X152850001Y-105518000I-249999J0D01*
G01*
G37*
G36*
G01*
X154489999Y-104343400D02*
X155390001Y-104343400D01*
G75*
G02*
X155640000Y-104593399I0J-249999D01*
G01*
X155640000Y-105293401D01*
G75*
G02*
X155390001Y-105543400I-249999J0D01*
G01*
X154489999Y-105543400D01*
G75*
G02*
X154240000Y-105293401I0J249999D01*
G01*
X154240000Y-104593399D01*
G75*
G02*
X154489999Y-104343400I249999J0D01*
G01*
G37*
G36*
G01*
X154489999Y-106343400D02*
X155390001Y-106343400D01*
G75*
G02*
X155640000Y-106593399I0J-249999D01*
G01*
X155640000Y-107293401D01*
G75*
G02*
X155390001Y-107543400I-249999J0D01*
G01*
X154489999Y-107543400D01*
G75*
G02*
X154240000Y-107293401I0J249999D01*
G01*
X154240000Y-106593399D01*
G75*
G02*
X154489999Y-106343400I249999J0D01*
G01*
G37*
G36*
G01*
X160077999Y-116764000D02*
X160978001Y-116764000D01*
G75*
G02*
X161228000Y-117013999I0J-249999D01*
G01*
X161228000Y-117714001D01*
G75*
G02*
X160978001Y-117964000I-249999J0D01*
G01*
X160077999Y-117964000D01*
G75*
G02*
X159828000Y-117714001I0J249999D01*
G01*
X159828000Y-117013999D01*
G75*
G02*
X160077999Y-116764000I249999J0D01*
G01*
G37*
G36*
G01*
X160077999Y-118764000D02*
X160978001Y-118764000D01*
G75*
G02*
X161228000Y-119013999I0J-249999D01*
G01*
X161228000Y-119714001D01*
G75*
G02*
X160978001Y-119964000I-249999J0D01*
G01*
X160077999Y-119964000D01*
G75*
G02*
X159828000Y-119714001I0J249999D01*
G01*
X159828000Y-119013999D01*
G75*
G02*
X160077999Y-118764000I249999J0D01*
G01*
G37*
G36*
G01*
X158057001Y-119964000D02*
X157156999Y-119964000D01*
G75*
G02*
X156907000Y-119714001I0J249999D01*
G01*
X156907000Y-119013999D01*
G75*
G02*
X157156999Y-118764000I249999J0D01*
G01*
X158057001Y-118764000D01*
G75*
G02*
X158307000Y-119013999I0J-249999D01*
G01*
X158307000Y-119714001D01*
G75*
G02*
X158057001Y-119964000I-249999J0D01*
G01*
G37*
G36*
G01*
X158057001Y-117964000D02*
X157156999Y-117964000D01*
G75*
G02*
X156907000Y-117714001I0J249999D01*
G01*
X156907000Y-117013999D01*
G75*
G02*
X157156999Y-116764000I249999J0D01*
G01*
X158057001Y-116764000D01*
G75*
G02*
X158307000Y-117013999I0J-249999D01*
G01*
X158307000Y-117714001D01*
G75*
G02*
X158057001Y-117964000I-249999J0D01*
G01*
G37*
G36*
G01*
X154235999Y-116764000D02*
X155136001Y-116764000D01*
G75*
G02*
X155386000Y-117013999I0J-249999D01*
G01*
X155386000Y-117714001D01*
G75*
G02*
X155136001Y-117964000I-249999J0D01*
G01*
X154235999Y-117964000D01*
G75*
G02*
X153986000Y-117714001I0J249999D01*
G01*
X153986000Y-117013999D01*
G75*
G02*
X154235999Y-116764000I249999J0D01*
G01*
G37*
G36*
G01*
X154235999Y-118764000D02*
X155136001Y-118764000D01*
G75*
G02*
X155386000Y-119013999I0J-249999D01*
G01*
X155386000Y-119714001D01*
G75*
G02*
X155136001Y-119964000I-249999J0D01*
G01*
X154235999Y-119964000D01*
G75*
G02*
X153986000Y-119714001I0J249999D01*
G01*
X153986000Y-119013999D01*
G75*
G02*
X154235999Y-118764000I249999J0D01*
G01*
G37*
D10*
X175030000Y-83627000D03*
X175030000Y-81727000D03*
X178030000Y-82677000D03*
X167616000Y-81727000D03*
X167616000Y-83627000D03*
X164616000Y-82677000D03*
X149884000Y-83627000D03*
X149884000Y-81727000D03*
X152884000Y-82677000D03*
X142470000Y-81727000D03*
X142470000Y-83627000D03*
X139470000Y-82677000D03*
X167616000Y-85410000D03*
X167616000Y-87310000D03*
X164616000Y-86360000D03*
X149884000Y-87310000D03*
X149884000Y-85410000D03*
X152884000Y-86360000D03*
X142470000Y-85410000D03*
X142470000Y-87310000D03*
X139470000Y-86360000D03*
X175030000Y-90993000D03*
X175030000Y-89093000D03*
X178030000Y-90043000D03*
X167616000Y-89093000D03*
X167616000Y-90993000D03*
X164616000Y-90043000D03*
X149884000Y-90993000D03*
X149884000Y-89093000D03*
X152884000Y-90043000D03*
X175030000Y-94676000D03*
X175030000Y-92776000D03*
X178030000Y-93726000D03*
X175030000Y-87310000D03*
X175030000Y-85410000D03*
X178030000Y-86360000D03*
G36*
G01*
X135312999Y-63551000D02*
X136213001Y-63551000D01*
G75*
G02*
X136463000Y-63800999I0J-249999D01*
G01*
X136463000Y-64501001D01*
G75*
G02*
X136213001Y-64751000I-249999J0D01*
G01*
X135312999Y-64751000D01*
G75*
G02*
X135063000Y-64501001I0J249999D01*
G01*
X135063000Y-63800999D01*
G75*
G02*
X135312999Y-63551000I249999J0D01*
G01*
G37*
G36*
G01*
X135312999Y-65551000D02*
X136213001Y-65551000D01*
G75*
G02*
X136463000Y-65800999I0J-249999D01*
G01*
X136463000Y-66501001D01*
G75*
G02*
X136213001Y-66751000I-249999J0D01*
G01*
X135312999Y-66751000D01*
G75*
G02*
X135063000Y-66501001I0J249999D01*
G01*
X135063000Y-65800999D01*
G75*
G02*
X135312999Y-65551000I249999J0D01*
G01*
G37*
M02*
